<?xml version="1.0" encoding="UTF-8" standalone="no"?>
<!-- Generator: Adobe Illustrator 25.3.0, SVG Export Plug-In . SVG Version: 6.00 Build 0)  -->

<svg
   version="1.1"
   id="Capa_1"
   x="0px"
   y="0px"
   viewBox="0 0 566.98996 566.98996"
   xml:space="preserve"
   sodipodi:docname="001.svg"
   inkscape:version="1.3 (0e150ed6c4, 2023-07-21)"
   width="566.98999"
   height="566.98999"
   xmlns:inkscape="http://www.inkscape.org/namespaces/inkscape"
   xmlns:sodipodi="http://sodipodi.sourceforge.net/DTD/sodipodi-0.dtd"
   xmlns="http://www.w3.org/2000/svg"
   xmlns:svg="http://www.w3.org/2000/svg"><defs
   id="defs207" /><sodipodi:namedview
   id="namedview207"
   pagecolor="#ffffff"
   bordercolor="#000000"
   borderopacity="0.25"
   inkscape:showpageshadow="2"
   inkscape:pageopacity="0.0"
   inkscape:pagecheckerboard="0"
   inkscape:deskcolor="#d1d1d1"
   inkscape:export-bgcolor="#ffffffff"
   inkscape:zoom="0.64"
   inkscape:cx="307.8125"
   inkscape:cy="266.40625"
   inkscape:window-width="1920"
   inkscape:window-height="991"
   inkscape:window-x="-9"
   inkscape:window-y="-9"
   inkscape:window-maximized="1"
   inkscape:current-layer="Capa_1"
   showgrid="false" />&#10;<style
   type="text/css"
   id="style1">&#10;	.st0{fill-rule:evenodd;clip-rule:evenodd;fill:#048A38;}&#10;	.st1{fill:#048A38;}&#10;	.st2{fill:#E61770;}&#10;</style>&#10;<rect
   style="fill:#ffffff;fill-opacity:1;stroke:none;stroke-width:64.9162;paint-order:markers stroke fill"
   id="rect1"
   width="566.98999"
   height="566.98999"
   x="0"
   y="0"
   inkscape:export-filename="001.svg"
   inkscape:export-xdpi="96"
   inkscape:export-ydpi="96" /><g
   id="g165">&#10;	<g
   id="g82">&#10;		<g
   id="g81">&#10;			<g
   id="g80">&#10;				<g
   id="g3">&#10;					<g
   id="g1">&#10;						<path
   class="st0"
   d="m 170.6,137.1 c 0,0 6.2,-6.6 23.1,-0.6 12.9,4.6 21.9,17.2 21.9,17.2 0,0 -15.1,2.6 -26.5,-0.8 -14.5,-4.4 -18.6,-12.3 -18.5,-15.8 z"
   id="path1" />&#10;					</g>&#10;					<g
   id="g2">&#10;						<path
   class="st1"
   d="m 203.3,155.5 c -4.6,0 -9.8,-0.4 -14.4,-1.8 -15.3,-4.5 -19.2,-12.9 -19.1,-16.6 v -0.3 l 0.2,-0.2 c 0.3,-0.3 6.8,-6.9 24,-0.8 13,4.6 21.9,17 22.3,17.5 l 0.8,1.1 -1.4,0.2 c -0.3,0 -5.7,0.9 -12.4,0.9 z m -31.8,-18.1 c 0.2,3 3.7,10.4 17.9,14.6 9,2.7 20.6,1.5 24.6,1 -2.6,-3.2 -10.4,-12.1 -20.6,-15.7 -14.2,-5.1 -20.6,-0.9 -21.9,0.1 z"
   id="path2" />&#10;					</g>&#10;				</g>&#10;				<g
   id="g6">&#10;					<g
   id="g4">&#10;						<path
   class="st0"
   d="m 165.7,127.8 c 0,0 -6.6,-6.2 -0.6,-23.1 4.6,-12.9 17.2,-21.9 17.2,-21.9 0,0 2.6,15.1 -0.8,26.5 -4.3,14.6 -12.3,18.6 -15.8,18.5 z"
   id="path3" />&#10;					</g>&#10;					<g
   id="g5">&#10;						<path
   class="st1"
   d="m 165.8,128.7 c -0.1,0 -0.1,0 0,0 h -0.4 l -0.2,-0.2 c -0.3,-0.3 -6.9,-6.8 -0.8,-24 4.6,-13 17,-21.9 17.5,-22.3 l 1.1,-0.8 0.2,1.4 c 0.1,0.6 2.5,15.5 -0.8,26.9 -4.6,15 -12.8,19 -16.6,19 z m 15.9,-44.2 c -3.2,2.6 -12.1,10.4 -15.7,20.6 -5.1,14.2 -0.9,20.6 0.1,21.9 3,-0.2 10.4,-3.7 14.6,-17.9 2.6,-9 1.5,-20.6 1,-24.6 z"
   id="path4" />&#10;					</g>&#10;				</g>&#10;				<g
   id="g9">&#10;					<g
   id="g7">&#10;						<path
   class="st0"
   d="m 133.8,165.3 c 0,0 4.5,-7.9 22.3,-6.1 13.6,1.4 25.4,11.4 25.4,11.4 0,0 -14.1,6.1 -25.9,5.6 -15.2,-0.7 -21,-7.4 -21.8,-10.9 z"
   id="path6" />&#10;					</g>&#10;					<g
   id="g8">&#10;						<path
   class="st1"
   d="m 157.1,177.1 c -0.5,0 -1.1,0 -1.6,0 -15.9,-0.7 -21.7,-7.9 -22.6,-11.6 l -0.1,-0.3 0.2,-0.3 c 0.2,-0.3 5,-8.4 23.1,-6.5 13.7,1.4 25.4,11.2 25.9,11.6 l 1.1,0.9 -1.3,0.6 c -0.6,0.2 -13.2,5.6 -24.7,5.6 z m -22.4,-11.6 c 0.9,2.8 6.1,9.2 20.9,9.9 9.4,0.4 20.4,-3.5 24.2,-4.9 -3.3,-2.5 -13,-9.2 -23.8,-10.3 -15.1,-1.6 -20.3,4 -21.3,5.3 z"
   id="path7" />&#10;					</g>&#10;				</g>&#10;				<g
   id="g12">&#10;					<g
   id="g10">&#10;						<path
   class="st0"
   d="m 126.9,157.3 c 0,0 -7.9,-4.5 -6.1,-22.3 1.4,-13.6 11.4,-25.4 11.4,-25.4 0,0 6.1,14.1 5.6,25.9 -0.7,15.2 -7.4,21 -10.9,21.8 z"
   id="path9" />&#10;					</g>&#10;					<g
   id="g11">&#10;						<path
   class="st1"
   d="m 126.8,158.2 -0.3,-0.2 c -0.3,-0.2 -8.4,-5 -6.5,-23.1 1.4,-13.7 11.2,-25.4 11.6,-25.9 l 0.9,-1.1 0.6,1.3 c 0.3,0.6 6.2,14.4 5.6,26.3 -0.7,15.9 -7.9,21.7 -11.6,22.6 z m 5.2,-46.9 c -2.5,3.3 -9.2,13 -10.3,23.8 -1.5,15 4.1,20.3 5.4,21.3 2.8,-0.9 9.2,-6.1 9.9,-20.9 0.4,-9.4 -3.6,-20.4 -5,-24.2 z"
   id="path10" />&#10;					</g>&#10;				</g>&#10;				<g
   id="g15">&#10;					<g
   id="g13">&#10;						<path
   class="st0"
   d="m 106.4,198.7 c 0,0 2.5,-8.7 20.2,-11.2 13.5,-1.9 27.4,5.1 27.4,5.1 0,0 -12.2,9.3 -23.9,11.6 -14.8,2.9 -22.1,-2.3 -23.7,-5.5 z"
   id="path12" />&#10;					</g>&#10;					<g
   id="g14">&#10;						<path
   class="st1"
   d="m 121.8,205.9 c -9.9,0 -14.8,-4.1 -16.1,-6.8 l -0.2,-0.3 0.1,-0.3 c 0.1,-0.4 2.8,-9.3 20.9,-11.9 13.6,-1.9 27.3,4.9 27.9,5.1 l 1.2,0.6 -1.1,0.8 c -0.5,0.4 -12.5,9.5 -24.2,11.7 -3.1,0.8 -6,1.1 -8.5,1.1 z m -14.4,-7.2 c 1.6,2.5 8.1,7.5 22.6,4.6 9.2,-1.8 19,-8.2 22.3,-10.6 -3.7,-1.6 -14.8,-5.9 -25.6,-4.4 -15,2.2 -18.7,8.8 -19.3,10.4 z"
   id="path13" />&#10;					</g>&#10;				</g>&#10;				<g
   id="g18">&#10;					<g
   id="g16">&#10;						<path
   class="st0"
   d="m 98,192.4 c 0,0 -8.7,-2.5 -11.2,-20.2 -1.9,-13.5 5.1,-27.4 5.1,-27.4 0,0 9.3,12.2 11.6,23.9 2.8,14.8 -2.3,22.1 -5.5,23.7 z"
   id="path15" />&#10;					</g>&#10;					<g
   id="g17">&#10;						<path
   class="st1"
   d="m 98.1,193.3 -0.3,-0.1 C 97.4,193.1 88.5,190.4 85.9,172.3 84,158.7 90.8,145 91,144.4 l 0.6,-1.2 0.8,1.1 c 0.4,0.5 9.4,12.5 11.7,24.2 3.1,15.7 -2.5,23 -5.9,24.7 z M 92,146.5 c -1.6,3.7 -5.9,14.8 -4.4,25.6 2.1,15 8.8,18.7 10.3,19.4 2.5,-1.6 7.5,-8.1 4.6,-22.6 -1.7,-9.3 -8.2,-19.1 -10.5,-22.4 z"
   id="path16" />&#10;					</g>&#10;				</g>&#10;				<g
   id="g21">&#10;					<g
   id="g19">&#10;						<path
   class="st0"
   d="m 90,236 c 0,0 0.3,-9.1 16.9,-15.8 12.7,-5.1 27.8,-1.7 27.8,-1.7 0,0 -9.6,12 -20.4,17 -13.7,6.5 -22,3.2 -24.3,0.5 z"
   id="path18" />&#10;					</g>&#10;					<g
   id="g20">&#10;						<path
   class="st1"
   d="m 99.6,240.2 c -5.5,0 -8.9,-1.9 -10.3,-3.6 l -0.2,-0.3 V 236 c 0,-0.4 0.5,-9.7 17.5,-16.6 12.8,-5.2 27.7,-1.9 28.3,-1.7 l 1.4,0.3 -0.9,1.1 c -0.4,0.5 -9.9,12.2 -20.7,17.2 -6.1,2.9 -11.1,3.9 -15.1,3.9 z m -8.7,-4.5 c 2.1,2.1 9.7,5.3 23.1,-1 8.5,-4 16.5,-12.6 19.1,-15.6 -4,-0.7 -15.8,-2.1 -25.9,1.9 -14,5.7 -16,13.1 -16.3,14.7 z"
   id="path19" />&#10;					</g>&#10;				</g>&#10;				<g
   id="g24">&#10;					<g
   id="g22">&#10;						<path
   class="st0"
   d="m 80.4,231.7 c 0,0 -9.1,-0.3 -15.8,-16.9 C 59.5,202.1 63,187 63,187 c 0,0 12,9.6 17,20.4 6.4,13.7 3.1,22 0.4,24.3 z"
   id="path21" />&#10;					</g>&#10;					<g
   id="g23">&#10;						<path
   class="st1"
   d="m 80.8,232.6 h -0.3 c -0.4,0 -9.7,-0.5 -16.6,-17.5 -5.2,-12.8 -1.9,-27.7 -1.7,-28.3 l 0.3,-1.4 1.1,0.9 c 0.5,0.4 12.2,9.9 17.2,20.7 6.8,14.5 3.1,22.9 0.3,25.4 z m -17.3,-44 c -0.7,4 -2.1,15.8 1.9,25.9 5.7,14.1 13,16.1 14.7,16.3 2.1,-2.1 5.3,-9.7 -1,-23.1 -3.9,-8.5 -12.5,-16.4 -15.6,-19.1 z"
   id="path22" />&#10;					</g>&#10;				</g>&#10;				<g
   id="g27">&#10;					<g
   id="g25">&#10;						<path
   class="st0"
   d="m 86.2,275.9 c 0,0 -2,-8.9 12.5,-19.5 11,-8.1 26.6,-8.5 26.6,-8.5 0,0 -6.4,14 -15.6,21.5 -11.7,9.6 -20.6,8.5 -23.5,6.5 z"
   id="path24" />&#10;					</g>&#10;					<g
   id="g26">&#10;						<path
   class="st1"
   d="m 91.8,278.1 c -2.8,0 -4.9,-0.7 -6.1,-1.6 l -0.3,-0.2 -0.1,-0.3 c -0.1,-0.4 -1.9,-9.6 12.8,-20.4 11.1,-8.2 26.4,-8.7 27,-8.7 h 1.4 l -0.6,1.3 c -0.3,0.6 -6.6,14.3 -15.8,21.8 -7.4,6.3 -13.8,8.1 -18.3,8.1 z M 87,275.4 c 2.6,1.5 10.7,2.8 22.1,-6.7 7.3,-6 12.8,-16.3 14.7,-19.9 -4.1,0.3 -15.9,1.8 -24.6,8.3 -12.3,9 -12.3,16.6 -12.2,18.3 z"
   id="path25" />&#10;					</g>&#10;				</g>&#10;				<g
   id="g30">&#10;					<g
   id="g28">&#10;						<path
   class="st0"
   d="m 75.9,274.2 c 0,0 -8.9,2 -19.5,-12.5 -8.1,-11 -8.5,-26.6 -8.5,-26.6 0,0 14,6.4 21.5,15.6 9.7,11.8 8.6,20.6 6.5,23.5 z"
   id="path27" />&#10;					</g>&#10;					<g
   id="g29">&#10;						<path
   class="st1"
   d="m 74.7,275.2 c -3,0 -10.5,-1.3 -19,-13 -8.2,-11.1 -8.7,-26.4 -8.7,-27 v -1.4 l 1.3,0.6 c 0.6,0.3 14.3,6.6 21.8,15.8 10.1,12.3 8.7,21.5 6.5,24.5 l -0.2,0.3 -0.3,0.1 c -0.1,0 -0.6,0.1 -1.4,0.1 z M 48.9,236.6 c 0.3,4.1 1.8,15.9 8.3,24.6 9,12.3 16.6,12.4 18.3,12.2 1.5,-2.6 2.8,-10.7 -6.7,-22.1 -6,-7.3 -16.3,-12.9 -19.9,-14.7 z"
   id="path28" />&#10;					</g>&#10;				</g>&#10;				<g
   id="g33">&#10;					<g
   id="g31">&#10;						<path
   class="st0"
   d="m 94.6,320.5 c 0,0 -4.1,-8.1 7.2,-22 8.6,-10.6 23.6,-14.9 23.6,-14.9 0,0 -2.7,15.2 -9.7,24.7 -8.9,12.3 -17.7,13.5 -21.1,12.2 z"
   id="path30" />&#10;					</g>&#10;					<g
   id="g32">&#10;						<path
   class="st1"
   d="m 97.2,321.8 c -1.1,0 -2.1,-0.2 -2.8,-0.4 l -0.3,-0.1 -0.2,-0.3 c -0.2,-0.4 -4.3,-8.8 7.3,-23 8.7,-10.7 23.4,-15 24,-15.2 l 1.3,-0.4 -0.2,1.4 c -0.1,0.6 -2.8,15.5 -9.8,25.1 -7.5,10.2 -14.9,12.9 -19.3,12.9 z m -1.9,-2 c 2.9,0.8 11,0 19.8,-12 5.6,-7.6 8.4,-19 9.2,-23 -3.9,1.4 -14.9,5.8 -21.8,14.2 -9.6,11.8 -7.8,19.3 -7.2,20.8 z"
   id="path31" />&#10;					</g>&#10;				</g>&#10;				<g
   id="g36">&#10;					<g
   id="g34">&#10;						<path
   class="st0"
   d="m 84.2,321.8 c 0,0 -8.1,4.1 -22,-7.2 C 51.6,305.9 47.3,291 47.3,291 c 0,0 15.2,2.7 24.8,9.7 12.2,8.9 13.4,17.7 12.1,21.1 z"
   id="path33" />&#10;					</g>&#10;					<g
   id="g35">&#10;						<path
   class="st1"
   d="m 80.1,323.4 c -3.9,0 -10.2,-1.5 -18.4,-8.2 -10.7,-8.7 -15,-23.4 -15.2,-24 l -0.4,-1.3 1.4,0.2 c 0.6,0.1 15.5,2.8 25.1,9.8 12.9,9.4 13.8,18.6 12.5,22.1 l -0.1,0.3 -0.3,0.2 c -0.2,0.1 -1.8,0.9 -4.6,0.9 z M 48.6,292.1 c 1.4,3.9 5.8,14.9 14.2,21.8 11.7,9.6 19.2,7.8 20.8,7.2 0.8,-2.9 0,-11 -12,-19.8 -7.7,-5.5 -19,-8.3 -23,-9.2 z"
   id="path34" />&#10;					</g>&#10;				</g>&#10;				<g
   id="g40">&#10;					<g
   id="g39">&#10;						<g
   id="g37">&#10;							<path
   class="st1"
   d="m 266.7,475.5 c -2,-0.2 -3.5,-0.3 -5.8,-0.5 -0.6,-0.1 -2,-0.2 -3,-0.3 -1,-0.1 -2.3,-0.3 -3.7,-0.5 -1.4,-0.2 -2.7,-0.3 -4.4,-0.6 -1.7,-0.3 -2.7,-0.4 -4.9,-0.9 -8.8,-1.9 -15.3,-3.2 -24.8,-6.5 -9.5,-3.3 -19.6,-6.9 -29.8,-12.7 -10.3,-5.8 -21.2,-12.9 -31.6,-21.4 -10.4,-8.6 -21.3,-18.2 -30.7,-29.7 -9.4,-11.5 -18.7,-24.9 -25.6,-39.2 -6.9,-14.3 -12.7,-30.5 -16.1,-46.5 -3.4,-16 -4.9,-32.6 -4.8,-48.8 0,-8.1 1,-16 2.2,-23.7 1.2,-7.7 3.2,-15.3 5.5,-22.5 4.6,-14.3 11.4,-27.4 20.1,-39 4.3,-5.8 9,-10.8 13.3,-15.5 4.4,-4.6 9.3,-9.5 13.3,-13 7.8,-7.1 16.7,-14.2 24.2,-19.4 7.5,-5.3 12.6,-8 19.6,-12 1.8,-1 2.6,-1.4 3.9,-2.1 1.3,-0.7 2.6,-1.3 3.5,-1.8 1.8,-0.8 4.5,-2.1 5.6,-2.6 2.3,-1 3.3,-1.4 5.1,-2.1 0.2,-0.1 0.3,0.1 0.1,0.2 -1.8,0.8 -2.8,1.2 -5,2.2 -1.1,0.5 -3.8,1.8 -5.6,2.7 -0.9,0.4 -2.2,1.1 -3.5,1.8 -1.3,0.7 -2.2,1.1 -3.9,2.1 -6.9,4.1 -11.9,6.9 -19.3,12.3 -7.4,5.3 -16.2,12.4 -23.9,19.6 -3.8,3.6 -8.7,8.4 -13,13.1 -4.3,4.6 -8.9,9.6 -13.1,15.4 -8.5,11.6 -15.2,24.5 -19.6,38.7 -2.2,7.1 -4.1,14.6 -5.3,22.3 -1.2,7.6 -2.1,15.4 -2.1,23.4 -0.1,16.1 1.4,32.5 4.8,48.3 3.4,15.8 9.1,31.8 16,45.9 6.8,14.1 16,27.4 25.2,38.7 9.3,11.4 20.1,21 30.3,29.5 10.2,8.5 21.1,15.6 31.3,21.3 10.2,5.8 20.1,9.5 29.5,12.9 9.4,3.4 15.9,4.7 24.6,6.7 2.2,0.5 3.2,0.6 4.9,0.9 1.7,0.3 3,0.5 4.3,0.7 1.3,0.2 2.6,0.4 3.7,0.6 1,0.1 2.5,0.3 3,0.3 2.2,0.3 3.7,0.4 5.7,0.7 -0.1,0.4 -0.2,0.7 -0.2,1 z"
   id="path36" />&#10;						</g>&#10;						<g
   id="g38">&#10;							<path
   class="st1"
   d="m 267.6,476.4 -7.4,-0.7 c -0.7,-0.1 -1.6,-0.1 -2.4,-0.2 -1,-0.1 -2.3,-0.3 -3.7,-0.5 -0.5,-0.1 -1,-0.1 -1.5,-0.2 -0.9,-0.1 -1.8,-0.2 -2.9,-0.4 l -1.1,-0.2 c -1.2,-0.2 -2.2,-0.3 -3.9,-0.7 l -2.4,-0.5 c -7.7,-1.7 -13.8,-3 -22.5,-6 -10,-3.4 -19.7,-7 -30,-12.8 -12.2,-6.9 -22.6,-13.9 -31.7,-21.5 -9.8,-8.1 -21.1,-17.9 -30.8,-29.8 -10.9,-13.3 -19.6,-26.5 -25.7,-39.4 -7.3,-15.1 -12.8,-31.2 -16.1,-46.7 -3.3,-15.4 -4.9,-31.9 -4.8,-49 0,-7 0.7,-14.6 2.2,-23.8 1.1,-7.1 2.9,-14.5 5.5,-22.6 4.5,-14 11.3,-27.2 20.2,-39.3 4.3,-5.8 8.9,-10.7 13.3,-15.4 4.1,-4.3 9,-9.2 13.4,-13.2 7.5,-6.8 16.4,-13.9 24.3,-19.5 6.5,-4.5 11.2,-7.2 16.7,-10.3 l 2.9,-1.6 c 1.3,-0.7 2.1,-1.2 3,-1.6 l 1,-0.5 c 1.3,-0.7 2.6,-1.3 3.5,-1.8 1.8,-0.8 4.5,-2.1 5.7,-2.6 2.3,-1 3.3,-1.4 5.1,-2.1 l 0.8,-0.3 0.5,0.8 0.3,0.8 -0.9,0.5 c -0.9,0.4 -1.6,0.7 -2.4,1.1 -0.7,0.3 -1.5,0.7 -2.6,1.2 -1.1,0.5 -3.8,1.8 -5.5,2.7 -0.9,0.4 -2.2,1.1 -3.4,1.8 l -0.9,0.5 c -0.9,0.5 -1.7,0.9 -2.9,1.6 l -2.3,1.3 c -5.8,3.4 -10.5,6.2 -17,10.9 -8.1,5.8 -16.7,12.9 -23.8,19.5 -4.2,3.9 -9.1,8.8 -12.9,13 l -0.7,0.7 c -4.1,4.5 -8.4,9.1 -12.4,14.6 -8.6,11.7 -15.2,24.7 -19.5,38.4 -2.4,7.7 -4.2,15.1 -5.3,22.1 -1.4,8.9 -2.1,16.3 -2.1,23.3 -0.1,16.8 1.5,33 4.8,48.1 3.2,15.1 8.7,31 15.9,45.7 6.1,12.6 14.6,25.6 25.1,38.6 9.7,11.9 21.2,22 30.2,29.4 9.1,7.5 19.5,14.7 31.1,21.3 10.3,5.9 20.6,9.7 29.4,12.8 8.5,3 14.5,4.4 22.1,6.1 l 2.3,0.5 c 1.5,0.3 2.5,0.5 3.5,0.7 l 1.4,0.2 c 1,0.2 1.9,0.3 2.7,0.5 0.5,0.1 1,0.2 1.5,0.2 1.3,0.2 2.6,0.4 3.6,0.6 0.7,0.1 1.6,0.2 2.3,0.3 l 7.4,0.8 -0.1,0.9 c 0,0.2 -0.1,0.5 -0.1,0.7 z M 101.4,196.3 c -4.7,8.2 -8.5,16.8 -11.4,25.8 -2.6,8.1 -4.3,15.4 -5.5,22.4 -1.5,9.1 -2.2,16.6 -2.2,23.6 -0.1,16.9 1.5,33.3 4.8,48.6 3.3,15.3 8.8,31.4 16,46.3 6.1,12.7 14.7,25.8 25.5,39 9.7,11.8 20.9,21.6 30.6,29.6 9.1,7.5 19.4,14.5 31.5,21.3 5.1,2.9 10.1,5.2 15.1,7.3 -4.9,-2.1 -10,-4.5 -15.1,-7.4 -11.7,-6.6 -22.2,-13.8 -31.4,-21.4 -9,-7.5 -20.7,-17.6 -30.4,-29.6 -10.6,-13.1 -19.2,-26.2 -25.4,-38.9 -7.2,-14.9 -12.8,-30.8 -16,-46.1 -3.3,-15.3 -4.9,-31.6 -4.8,-48.5 0,-7.1 0.7,-14.6 2.1,-23.6 1.1,-7.1 2.9,-14.6 5.4,-22.4 2.8,-9.2 6.6,-17.9 11.2,-26 z"
   id="path37" />&#10;						</g>&#10;					</g>&#10;				</g>&#10;				<g
   id="g43">&#10;					<g
   id="g41">&#10;						<path
   class="st0"
   d="m 113.6,367.1 c 0,0 -6,-6.8 1.5,-23.1 5.8,-12.4 19.2,-20.3 19.2,-20.3 0,0 1.2,15.4 -3.2,26.4 -5.7,14 -14,17.4 -17.5,17 z"
   id="path40" />&#10;					</g>&#10;					<g
   id="g42">&#10;						<path
   class="st1"
   d="m 114.2,368 c -0.2,0 -0.4,0 -0.6,0 h -0.3 l -0.2,-0.3 c -0.3,-0.3 -6.3,-7.5 1.4,-24.1 5.8,-12.5 19,-20.4 19.5,-20.7 l 1.2,-0.7 0.1,1.4 c 0,0.6 1.1,15.7 -3.3,26.8 -5.7,14 -13.8,17.6 -17.8,17.6 z m -0.1,-1.8 c 3,0.1 10.7,-2.7 16.2,-16.5 3.5,-8.8 3.4,-20.5 3.3,-24.5 -3.4,2.3 -13,9.3 -17.6,19.1 -6.5,13.8 -2.9,20.5 -1.9,21.9 z"
   id="path41" />&#10;					</g>&#10;				</g>&#10;				<g
   id="g46">&#10;					<g
   id="g44">&#10;						<path
   class="st0"
   d="m 104,371.1 c 0,0 -6.8,6 -23.1,-1.5 -12.4,-5.8 -20.3,-19.2 -20.3,-19.2 0,0 15.4,-1.2 26.4,3.2 14,5.7 17.3,14 17,17.5 z"
   id="path43" />&#10;					</g>&#10;					<g
   id="g45">&#10;						<path
   class="st1"
   d="m 95.6,374.2 c -3.7,0 -8.8,-0.9 -15.2,-3.9 -12.5,-5.8 -20.4,-19 -20.7,-19.5 l -0.7,-1.2 1.4,-0.1 c 0.6,0 15.7,-1.1 26.8,3.3 14.8,5.9 18,14.6 17.6,18.4 v 0.3 l -0.3,0.2 c -0.2,0.2 -2.9,2.5 -8.9,2.5 z M 62,351.2 c 2.3,3.4 9.3,13 19.1,17.6 13.8,6.4 20.5,2.8 21.9,1.9 0,-3 -2.8,-10.7 -16.5,-16.2 C 77.8,350.9 66.1,351 62,351.2 Z"
   id="path44" />&#10;					</g>&#10;				</g>&#10;				<g
   id="g49">&#10;					<g
   id="g47">&#10;						<path
   class="st0"
   d="m 139.6,406.7 c 0,0 -7.5,-5.2 -4.1,-22.8 2.6,-13.5 13.7,-24.3 13.7,-24.3 0,0 4.8,14.6 3.2,26.4 -2.1,15 -9.3,20.2 -12.8,20.7 z"
   id="path46" />&#10;					</g>&#10;					<g
   id="g48">&#10;						<path
   class="st1"
   d="m 139.4,407.6 -0.3,-0.2 c -0.3,-0.2 -7.9,-5.7 -4.4,-23.7 2.6,-13.6 13.5,-24.3 14,-24.8 l 1,-1 0.4,1.3 c 0.2,0.6 4.9,15 3.2,26.8 -2.2,15.9 -9.8,21 -13.6,21.5 z m 9.4,-46.4 c -2.8,3 -10.4,12.2 -12.5,22.8 -2.9,15 2.2,20.6 3.5,21.8 2.9,-0.7 9.7,-5.2 11.8,-20 1.3,-9.3 -1.6,-20.7 -2.8,-24.6 z"
   id="path47" />&#10;					</g>&#10;				</g>&#10;				<g
   id="g52">&#10;					<g
   id="g50">&#10;						<path
   class="st0"
   d="m 131,412.9 c 0,0 -5.2,7.5 -22.8,4.1 -13.5,-2.6 -24.3,-13.7 -24.3,-13.7 0,0 14.6,-4.8 26.4,-3.2 15,2.1 20.3,9.3 20.7,12.8 z"
   id="path49" />&#10;					</g>&#10;					<g
   id="g51">&#10;						<path
   class="st1"
   d="m 116.8,418.8 c -2.5,0 -5.4,-0.3 -8.8,-0.9 -13.6,-2.6 -24.3,-13.5 -24.8,-14 l -1,-1 1.3,-0.4 c 0.6,-0.2 15,-4.9 26.8,-3.2 15.8,2.2 21,9.9 21.5,13.6 v 0.3 l -0.2,0.3 c 0,0.2 -3.7,5.3 -14.8,5.3 z M 85.5,403.7 c 3,2.8 12.2,10.4 22.8,12.5 15,2.9 20.6,-2.2 21.8,-3.5 -0.7,-2.9 -5.2,-9.7 -20,-11.8 -9.3,-1.2 -20.6,1.7 -24.6,2.8 z"
   id="path50" />&#10;					</g>&#10;				</g>&#10;				<g
   id="g55">&#10;					<g
   id="g53">&#10;						<path
   class="st0"
   d="m 171,437.6 c 0,0 -8.5,-3.3 -9.4,-21.2 -0.7,-13.7 7.6,-26.9 7.6,-26.9 0,0 8.2,13.1 9.4,24.9 1.6,15.2 -4.2,21.9 -7.6,23.2 z"
   id="path52" />&#10;					</g>&#10;					<g
   id="g54">&#10;						<path
   class="st1"
   d="m 171,438.6 -0.3,-0.1 c -0.4,-0.1 -9.1,-3.7 -9.9,-22 -0.7,-13.8 7.4,-26.9 7.7,-27.4 l 0.7,-1.2 0.7,1.2 c 0.3,0.5 8.3,13.4 9.5,25.3 1.6,15.9 -4.6,22.8 -8.1,24.1 z m -1.8,-47.4 c -2,3.6 -7.2,14.3 -6.7,25.1 0.7,15.2 7.1,19.5 8.5,20.3 2.7,-1.3 8.2,-7.4 6.7,-22.2 -0.9,-9.3 -6.4,-19.6 -8.5,-23.2 z"
   id="path53" />&#10;					</g>&#10;				</g>&#10;				<g
   id="g58">&#10;					<g
   id="g56">&#10;						<path
   class="st0"
   d="m 164,445.6 c 0,0 -3.3,8.5 -21.2,9.4 -13.7,0.7 -26.9,-7.6 -26.9,-7.6 0,0 13.1,-8.2 24.9,-9.4 15.1,-1.6 21.9,4.2 23.2,7.6 z"
   id="path55" />&#10;					</g>&#10;					<g
   id="g57">&#10;						<path
   class="st1"
   d="m 141.1,455.8 c -13.2,0 -25.2,-7.4 -25.8,-7.7 l -1.2,-0.7 1.2,-0.7 c 0.5,-0.3 13.4,-8.3 25.3,-9.5 15.9,-1.6 22.7,4.6 24.1,8.1 l 0.1,0.3 -0.1,0.3 c -0.1,0.4 -3.7,9.1 -22,9.9 -0.5,0 -1,0 -1.6,0 z m -23.6,-8.5 c 3.6,2 14.3,7.2 25.1,6.7 15.2,-0.7 19.5,-7.1 20.3,-8.5 -1.3,-2.7 -7.4,-8.2 -22.2,-6.7 -9.3,1 -19.6,6.5 -23.2,8.5 z"
   id="path56" />&#10;					</g>&#10;				</g>&#10;				<g
   id="g61">&#10;					<g
   id="g59">&#10;						<path
   class="st0"
   d="m 206.8,458.4 c 0,0 -9.1,-1.2 -14.2,-18.4 -3.9,-13.2 1,-28 1,-28 0,0 11.1,10.8 15,22 5.1,14.3 1.1,22.3 -1.8,24.4 z"
   id="path58" />&#10;					</g>&#10;					<g
   id="g60">&#10;						<path
   class="st1"
   d="m 207,459.3 h -0.3 c -0.4,-0.1 -9.7,-1.4 -14.9,-19 -3.9,-13.3 0.8,-27.9 1,-28.5 l 0.4,-1.3 1,1 c 0.5,0.4 11.2,11 15.2,22.3 5.4,15.1 0.9,23.2 -2.2,25.4 z m -13,-45.6 c -1.1,4 -3.6,15.6 -0.5,26 4.3,14.6 11.5,17.3 13.1,17.7 2.3,-1.9 6.2,-9.1 1.2,-23.2 -3.2,-8.8 -11,-17.6 -13.8,-20.5 z"
   id="path59" />&#10;					</g>&#10;				</g>&#10;				<g
   id="g64">&#10;					<g
   id="g62">&#10;						<path
   class="st0"
   d="m 201.6,467.5 c 0,0 -1.2,9.1 -18.4,14.2 -13.2,3.9 -28,-1 -28,-1 0,0 10.8,-11.1 22,-15 14.4,-5.1 22.3,-1.1 24.4,1.8 z"
   id="path61" />&#10;					</g>&#10;					<g
   id="g63">&#10;						<path
   class="st1"
   d="m 171.8,484.1 c -9,0 -16.4,-2.4 -16.8,-2.5 l -1.3,-0.4 1,-1 c 0.4,-0.5 11,-11.2 22.3,-15.3 15.1,-5.4 23.2,-0.9 25.4,2.1 l 0.2,0.3 v 0.3 c 0,0.4 -1.4,9.7 -19,14.9 -4.1,1.2 -8.1,1.6 -11.8,1.6 z m -14.9,-3.8 c 4,1.1 15.6,3.6 26,0.5 14.6,-4.3 17.3,-11.5 17.7,-13.1 -1.9,-2.3 -9.2,-6.2 -23.2,-1.2 -8.8,3.2 -17.6,11 -20.5,13.8 z"
   id="path62" />&#10;					</g>&#10;				</g>&#10;				<g
   id="g67">&#10;					<g
   id="g65">&#10;						<path
   class="st0"
   d="m 245.5,467.1 c 0,0 -9.1,1.1 -18.2,-14.4 -7,-11.8 -5.9,-27.4 -5.9,-27.4 0,0 13.4,7.8 19.9,17.7 8.5,12.7 6.5,21.4 4.2,24.1 z"
   id="path64" />&#10;					</g>&#10;					<g
   id="g66">&#10;						<path
   class="st1"
   d="m 245.1,468 c -2.1,0 -10.3,-1 -18.6,-14.9 -7,-11.9 -6,-27.2 -6,-27.9 l 0.1,-1.4 1.2,0.7 c 0.6,0.3 13.6,8 20.2,17.9 8.9,13.3 6.6,22.3 4.1,25.2 L 246,468 h -0.3 c -0.1,0 -0.3,0 -0.6,0 z m -22.9,-41.1 c -0.1,4.1 0.3,16 5.8,25.4 7.7,13.1 15.4,14 17,14 1.7,-2.4 3.8,-10.4 -4.4,-22.8 -5.2,-7.9 -14.9,-14.4 -18.4,-16.6 z"
   id="path65" />&#10;					</g>&#10;				</g>&#10;				<g
   id="g70">&#10;					<g
   id="g68">&#10;						<path
   class="st0"
   d="m 242.8,477.2 c 0,0 1.1,9.1 -14.4,18.2 -11.8,7 -27.4,5.9 -27.4,5.9 0,0 7.8,-13.4 17.7,-19.9 12.6,-8.5 21.3,-6.5 24.1,-4.2 z"
   id="path67" />&#10;					</g>&#10;					<g
   id="g69">&#10;						<path
   class="st1"
   d="m 203.6,502.3 c -1.5,0 -2.5,-0.1 -2.6,-0.1 l -1.4,-0.1 0.7,-1.2 c 0.3,-0.6 8,-13.6 17.9,-20.2 13.3,-8.9 22.3,-6.6 25.2,-4.1 l 0.3,0.2 v 0.3 c 0,0.4 1,9.7 -14.8,19.1 -9.2,5.4 -20.4,6.1 -25.3,6.1 z m -1.1,-1.8 c 4.1,0.1 16,-0.3 25.4,-5.8 13.2,-7.8 14,-15.4 14,-17 -2.4,-1.7 -10.4,-3.8 -22.8,4.4 -7.8,5.2 -14.4,15 -16.6,18.4 z"
   id="path68" />&#10;					</g>&#10;				</g>&#10;				<g
   id="g73">&#10;					<g
   id="g71">&#10;						<path
   class="st0"
   d="m 286.2,463.3 c 0,0 -8.5,3.3 -21.3,-9.4 -9.7,-9.7 -12.5,-25 -12.5,-25 0,0 14.9,4.2 23.7,12.1 11.4,10.2 11.7,19.1 10.1,22.3 z"
   id="path70" />&#10;					</g>&#10;					<g
   id="g72">&#10;						<path
   class="st1"
   d="m 283.4,464.6 c -3.7,0 -10.5,-1.5 -19,-10.1 -9.8,-9.8 -12.6,-24.9 -12.8,-25.5 l -0.2,-1.4 1.3,0.4 c 0.6,0.2 15.2,4.3 24.1,12.3 11.9,10.7 11.9,20 10.2,23.4 l -0.1,0.3 -0.3,0.1 c -0.2,0.1 -1.3,0.5 -3.2,0.5 z m -29.8,-34.5 c 1,4 4.3,15.5 12,23.2 10.8,10.8 18.4,9.7 20,9.3 1.1,-2.8 1.1,-11 -10,-21 -7,-6.3 -18.1,-10.2 -22,-11.5 z"
   id="path71" />&#10;					</g>&#10;				</g>&#10;				<g
   id="g76">&#10;					<g
   id="g74">&#10;						<path
   class="st0"
   d="m 286.3,473.8 c 0,0 3.3,8.5 -9.4,21.3 -9.7,9.7 -25,12.5 -25,12.5 0,0 4.2,-14.9 12.1,-23.7 10.2,-11.4 19.1,-11.7 22.3,-10.1 z"
   id="path73" />&#10;					</g>&#10;					<g
   id="g75">&#10;						<path
   class="st1"
   d="m 250.6,508.7 0.4,-1.3 c 0.2,-0.6 4.3,-15.2 12.3,-24.1 10.7,-11.9 20,-11.9 23.4,-10.2 l 0.3,0.2 0.1,0.3 c 0.1,0.4 3.4,9.2 -9.6,22.2 -9.8,9.8 -24.9,12.6 -25.5,12.8 z M 282.7,474 c -3.9,0 -10.5,2 -18.1,10.4 -6.3,7 -10.3,18.1 -11.5,22 4,-1 15.5,-4.3 23.2,-12 10.8,-10.8 9.7,-18.4 9.3,-20 -0.7,-0.2 -1.7,-0.4 -2.9,-0.4 z"
   id="path74" />&#10;					</g>&#10;				</g>&#10;				<g
   id="g79">&#10;					<g
   id="g77">&#10;						<path
   class="st0"
   d="m 193.1,115.9 c 0,0 -1.3,-9 13.9,-18.5 11.6,-7.2 27,-6.5 27,-6.5 0,0 -7.4,13.5 -17.1,20.3 -12.4,8.7 -21.1,7 -23.8,4.7 z"
   id="path76" />&#10;					</g>&#10;					<g
   id="g78">&#10;						<path
   class="st1"
   d="m 199.7,118.6 c -3.5,0 -5.9,-1 -7.2,-2 l -0.3,-0.2 v -0.3 c -0.1,-0.4 -1.2,-9.7 14.3,-19.3 11.7,-7.3 26.9,-6.7 27.5,-6.7 l 1.4,0.1 -0.7,1.2 c -0.3,0.6 -7.6,13.7 -17.3,20.6 -7.3,5 -13.3,6.6 -17.7,6.6 z m -5.8,-3.1 c 2.5,1.7 10.4,3.5 22.5,-5 7.7,-5.4 14,-15.2 16.1,-18.7 -4.1,0 -15.9,0.7 -25.1,6.4 -12.9,8 -13.5,15.6 -13.5,17.3 z"
   id="path77" />&#10;					</g>&#10;				</g>&#10;			</g>&#10;		</g>&#10;	</g>&#10;	<g
   id="g164">&#10;		<g
   id="g163">&#10;			<g
   id="g162">&#10;				<g
   id="g85">&#10;					<g
   id="g83">&#10;						<path
   class="st0"
   d="m 421.4,137.1 c 0,0 -6.2,-6.6 -23.1,-0.6 -12.9,4.6 -21.9,17.2 -21.9,17.2 0,0 15.1,2.6 26.5,-0.8 14.5,-4.4 18.6,-12.3 18.5,-15.8 z"
   id="path82" />&#10;					</g>&#10;					<g
   id="g84">&#10;						<path
   class="st1"
   d="m 388.7,155.5 c -6.7,0 -12.1,-0.9 -12.4,-0.9 l -1.4,-0.2 0.8,-1.1 c 0.4,-0.5 9.3,-12.9 22.3,-17.5 17.2,-6.1 23.7,0.5 24,0.8 l 0.2,0.2 v 0.3 c 0.1,3.8 -3.9,12.1 -19.1,16.6 -4.6,1.4 -9.8,1.8 -14.4,1.8 z M 378,153 c 4,0.5 15.6,1.7 24.6,-1 14.2,-4.2 17.6,-11.6 17.9,-14.6 -1.3,-1 -7.7,-5.2 -21.9,-0.1 -10.2,3.7 -18,12.5 -20.6,15.7 z"
   id="path83" />&#10;					</g>&#10;				</g>&#10;				<g
   id="g88">&#10;					<g
   id="g86">&#10;						<path
   class="st0"
   d="m 426.3,127.8 c 0,0 6.6,-6.2 0.6,-23.1 -4.6,-12.9 -17.2,-21.9 -17.2,-21.9 0,0 -2.6,15.1 0.8,26.5 4.4,14.6 12.3,18.6 15.8,18.5 z"
   id="path85" />&#10;					</g>&#10;					<g
   id="g87">&#10;						<path
   class="st1"
   d="m 426.2,128.7 c -3.8,0 -12,-4 -16.5,-19.1 -3.4,-11.4 -1,-26.2 -0.8,-26.9 l 0.2,-1.4 1.1,0.8 c 0.5,0.4 12.9,9.3 17.5,22.3 6.1,17.2 -0.5,23.7 -0.8,24 l -0.2,0.2 -0.5,0.1 c 0.1,0 0.1,0 0,0 z M 410.4,84.5 c -0.5,4 -1.7,15.6 1,24.6 4.2,14.2 11.6,17.6 14.6,17.9 1,-1.3 5.2,-7.7 0.1,-21.9 C 422.4,94.8 413.5,87 410.4,84.5 Z"
   id="path86" />&#10;					</g>&#10;				</g>&#10;				<g
   id="g91">&#10;					<g
   id="g89">&#10;						<path
   class="st0"
   d="m 458.2,165.3 c 0,0 -4.5,-7.9 -22.3,-6.1 -13.6,1.4 -25.4,11.4 -25.4,11.4 0,0 14.1,6.1 25.9,5.6 15.2,-0.7 21,-7.4 21.8,-10.9 z"
   id="path88" />&#10;					</g>&#10;					<g
   id="g90">&#10;						<path
   class="st1"
   d="m 434.9,177.1 c -11.5,0 -24.1,-5.4 -24.7,-5.7 l -1.3,-0.6 1.1,-0.9 c 0.5,-0.4 12.2,-10.2 25.9,-11.6 18.2,-1.8 22.9,6.2 23.1,6.5 l 0.2,0.3 -0.1,0.3 c -0.8,3.7 -6.6,10.8 -22.6,11.6 -0.5,0.1 -1.1,0.1 -1.6,0.1 z m -22.6,-6.7 c 3.8,1.5 14.8,5.4 24.2,4.9 14.8,-0.7 19.9,-7 20.9,-9.9 -1,-1.3 -6.2,-6.9 -21.3,-5.4 -10.8,1.2 -20.6,7.9 -23.8,10.4 z"
   id="path89" />&#10;					</g>&#10;				</g>&#10;				<g
   id="g94">&#10;					<g
   id="g92">&#10;						<path
   class="st0"
   d="m 465.1,157.3 c 0,0 7.9,-4.5 6.1,-22.3 -1.4,-13.6 -11.4,-25.4 -11.4,-25.4 0,0 -6.1,14.1 -5.6,25.9 0.7,15.2 7.4,21 10.9,21.8 z"
   id="path91" />&#10;					</g>&#10;					<g
   id="g93">&#10;						<path
   class="st1"
   d="m 465.2,158.2 -0.3,-0.1 c -3.7,-0.8 -10.8,-6.6 -11.6,-22.6 -0.6,-11.9 5.4,-25.7 5.6,-26.3 l 0.6,-1.3 0.9,1.1 c 0.4,0.5 10.2,12.2 11.6,25.9 1.8,18.2 -6.2,22.9 -6.5,23.1 z M 460,111.3 c -1.5,3.8 -5.4,14.8 -4.9,24.2 0.7,14.8 7,19.9 9.9,20.9 1.3,-1 6.9,-6.2 5.4,-21.3 -1.1,-10.8 -7.9,-20.5 -10.4,-23.8 z"
   id="path92" />&#10;					</g>&#10;				</g>&#10;				<g
   id="g97">&#10;					<g
   id="g95">&#10;						<path
   class="st0"
   d="m 485.6,198.7 c 0,0 -2.5,-8.7 -20.2,-11.2 -13.5,-1.9 -27.4,5.1 -27.4,5.1 0,0 12.2,9.3 23.9,11.6 14.8,2.9 22.1,-2.3 23.7,-5.5 z"
   id="path94" />&#10;					</g>&#10;					<g
   id="g96">&#10;						<path
   class="st1"
   d="m 470.2,205.9 c -2.5,0 -5.4,-0.3 -8.6,-0.9 -11.7,-2.3 -23.7,-11.4 -24.2,-11.7 l -1.1,-0.8 1.2,-0.6 c 0.6,-0.3 14.3,-7.1 27.9,-5.1 18.1,2.5 20.8,11.5 20.9,11.9 l 0.1,0.3 -0.2,0.3 c -1.2,2.5 -6.1,6.6 -16,6.6 z m -30.5,-13.2 c 3.3,2.3 13.1,8.8 22.3,10.6 14.5,2.8 21,-2.1 22.6,-4.6 -0.7,-1.5 -4.4,-8.2 -19.4,-10.3 -10.7,-1.5 -21.8,2.7 -25.5,4.3 z"
   id="path95" />&#10;					</g>&#10;				</g>&#10;				<g
   id="g100">&#10;					<g
   id="g98">&#10;						<path
   class="st0"
   d="m 494,192.4 c 0,0 8.7,-2.5 11.2,-20.2 1.9,-13.5 -5.1,-27.4 -5.1,-27.4 0,0 -9.3,12.2 -11.6,23.9 -2.8,14.8 2.3,22.1 5.5,23.7 z"
   id="path97" />&#10;					</g>&#10;					<g
   id="g99">&#10;						<path
   class="st1"
   d="m 493.9,193.3 -0.3,-0.2 c -3.4,-1.7 -8.9,-9 -5.9,-24.7 2.3,-11.7 11.3,-23.7 11.7,-24.2 l 0.8,-1.1 0.6,1.2 c 0.3,0.6 7.1,14.3 5.1,27.9 -2.5,18.1 -11.5,20.8 -11.9,20.9 z m 6.1,-46.8 c -2.3,3.3 -8.8,13.1 -10.6,22.3 -2.8,14.5 2.1,21 4.6,22.6 1.5,-0.7 8.2,-4.4 10.3,-19.4 1.6,-10.7 -2.7,-21.8 -4.3,-25.5 z"
   id="path98" />&#10;					</g>&#10;				</g>&#10;				<g
   id="g103">&#10;					<g
   id="g101">&#10;						<path
   class="st0"
   d="m 502,236 c 0,0 -0.3,-9.1 -16.9,-15.8 -12.7,-5.1 -27.8,-1.7 -27.8,-1.7 0,0 9.6,12 20.4,17 13.7,6.5 22,3.2 24.3,0.5 z"
   id="path100" />&#10;					</g>&#10;					<g
   id="g102">&#10;						<path
   class="st1"
   d="m 492.4,240.2 c -4,0 -9,-1 -15,-3.8 -10.8,-5 -20.3,-16.7 -20.7,-17.2 l -0.9,-1.1 1.4,-0.3 c 0.6,-0.1 15.5,-3.4 28.3,1.7 17,6.8 17.5,16.2 17.5,16.6 v 0.3 l -0.2,0.3 c -1.5,1.6 -5,3.5 -10.4,3.5 z m -33.5,-21.1 c 2.7,3.1 10.6,11.7 19.1,15.6 13.4,6.3 20.9,3 23.1,1 -0.3,-1.6 -2.3,-9 -16.3,-14.7 -10.1,-4 -21.9,-2.5 -25.9,-1.9 z"
   id="path101" />&#10;					</g>&#10;				</g>&#10;				<g
   id="g106">&#10;					<g
   id="g104">&#10;						<path
   class="st0"
   d="m 511.6,231.7 c 0,0 9.1,-0.3 15.8,-16.9 5.1,-12.7 1.7,-27.8 1.7,-27.8 0,0 -12,9.6 -17,20.4 -6.5,13.7 -3.2,22 -0.5,24.3 z"
   id="path103" />&#10;					</g>&#10;					<g
   id="g105">&#10;						<path
   class="st1"
   d="m 511.2,232.6 -0.3,-0.2 c -2.9,-2.5 -6.5,-10.9 0.3,-25.4 5,-10.8 16.7,-20.3 17.2,-20.7 l 1.1,-0.9 0.3,1.4 c 0.1,0.6 3.4,15.5 -1.7,28.3 -6.8,17 -16.2,17.5 -16.6,17.5 z m 17.3,-44 c -3.1,2.7 -11.7,10.6 -15.6,19.1 -6.3,13.4 -3,20.9 -1,23.1 1.6,-0.3 9,-2.3 14.7,-16.3 4,-10.1 2.5,-21.9 1.9,-25.9 z"
   id="path104" />&#10;					</g>&#10;				</g>&#10;				<g
   id="g109">&#10;					<g
   id="g107">&#10;						<path
   class="st0"
   d="m 505.8,275.9 c 0,0 2,-8.9 -12.5,-19.5 -11,-8.1 -26.6,-8.5 -26.6,-8.5 0,0 6.4,14 15.6,21.5 11.7,9.6 20.6,8.5 23.5,6.5 z"
   id="path106" />&#10;					</g>&#10;					<g
   id="g108">&#10;						<path
   class="st1"
   d="m 500.2,278.1 c -4.5,0 -10.9,-1.9 -18.5,-8.1 -9.2,-7.6 -15.5,-21.3 -15.8,-21.8 l -0.6,-1.3 h 1.4 c 0.6,0 15.9,0.5 27,8.7 14.8,10.8 12.9,20 12.8,20.4 l -0.1,0.3 -0.3,0.2 c -1,0.9 -3.1,1.6 -5.9,1.6 z m -32,-29.3 c 1.8,3.6 7.4,13.9 14.7,19.9 11.5,9.4 19.6,8.1 22.1,6.7 0.1,-1.7 0,-9.3 -12.2,-18.3 -8.8,-6.4 -20.6,-7.9 -24.6,-8.3 z"
   id="path107" />&#10;					</g>&#10;				</g>&#10;				<g
   id="g112">&#10;					<g
   id="g110">&#10;						<path
   class="st0"
   d="m 516.1,274.2 c 0,0 8.9,2 19.5,-12.5 8.1,-11 8.5,-26.6 8.5,-26.6 0,0 -14,6.4 -21.5,15.6 -9.6,11.8 -8.6,20.6 -6.5,23.5 z"
   id="path109" />&#10;					</g>&#10;					<g
   id="g111">&#10;						<path
   class="st1"
   d="m 517.3,275.2 c -0.8,0 -1.3,-0.1 -1.4,-0.1 l -0.3,-0.1 -0.2,-0.3 c -2.2,-3.1 -3.6,-12.2 6.5,-24.5 7.6,-9.2 21.3,-15.5 21.8,-15.8 l 1.3,-0.6 v 1.4 c 0,0.6 -0.5,15.9 -8.7,27 -8.5,11.7 -16,13 -19,13 z m -0.7,-1.8 c 1.7,0.1 9.3,0 18.3,-12.2 6.4,-8.7 7.9,-20.5 8.3,-24.6 -3.6,1.8 -13.9,7.4 -19.9,14.7 -9.4,11.4 -8.2,19.5 -6.7,22.1 z"
   id="path110" />&#10;					</g>&#10;				</g>&#10;				<g
   id="g115">&#10;					<g
   id="g113">&#10;						<path
   class="st0"
   d="m 497.4,320.5 c 0,0 4.1,-8.1 -7.2,-22 -8.6,-10.6 -23.6,-14.9 -23.6,-14.9 0,0 2.7,15.2 9.7,24.7 8.9,12.3 17.7,13.5 21.1,12.2 z"
   id="path112" />&#10;					</g>&#10;					<g
   id="g114">&#10;						<path
   class="st1"
   d="m 494.9,321.8 c -4.5,0 -11.8,-2.7 -19.3,-12.9 -7,-9.6 -9.7,-24.5 -9.8,-25.1 l -0.2,-1.4 1.3,0.4 c 0.6,0.2 15.3,4.5 24,15.2 11.6,14.2 7.5,22.6 7.3,23 l -0.2,0.3 -0.3,0.1 c -0.7,0.2 -1.7,0.4 -2.8,0.4 z m -27.2,-36.9 c 0.9,4 3.7,15.3 9.2,23 8.7,12 16.9,12.8 19.8,12 0.5,-1.6 2.3,-9 -7.2,-20.8 -6.9,-8.4 -17.9,-12.9 -21.8,-14.2 z"
   id="path113" />&#10;					</g>&#10;				</g>&#10;				<g
   id="g118">&#10;					<g
   id="g116">&#10;						<path
   class="st0"
   d="m 507.8,321.8 c 0,0 8.1,4.1 22,-7.2 10.6,-8.6 14.9,-23.6 14.9,-23.6 0,0 -15.2,2.7 -24.8,9.7 -12.2,8.9 -13.4,17.7 -12.1,21.1 z"
   id="path115" />&#10;					</g>&#10;					<g
   id="g117">&#10;						<path
   class="st1"
   d="m 511.9,323.4 c -2.8,0 -4.4,-0.8 -4.6,-0.8 l -0.3,-0.2 -0.1,-0.3 c -1.3,-3.5 -0.4,-12.7 12.5,-22.1 9.6,-7 24.5,-9.7 25.1,-9.8 l 1.4,-0.2 -0.4,1.3 c -0.2,0.6 -4.5,15.3 -15.2,24 -8.2,6.6 -14.5,8.1 -18.4,8.1 z m -3.4,-2.3 c 1.6,0.6 9,2.3 20.8,-7.2 8.4,-6.9 12.8,-17.9 14.2,-21.8 -4,0.9 -15.3,3.7 -23,9.2 -12,8.8 -12.8,17 -12,19.8 z"
   id="path116" />&#10;					</g>&#10;				</g>&#10;				<g
   id="g122">&#10;					<g
   id="g121">&#10;						<g
   id="g119">&#10;							<path
   class="st1"
   d="m 325.3,475.5 c 2,-0.2 3.5,-0.3 5.8,-0.5 0.6,-0.1 2,-0.2 3,-0.3 1,-0.1 2.3,-0.3 3.7,-0.5 1.4,-0.2 2.7,-0.3 4.4,-0.6 1.7,-0.3 2.7,-0.4 4.9,-0.9 8.8,-1.9 15.3,-3.2 24.8,-6.5 9.5,-3.3 19.6,-6.9 29.8,-12.7 10.3,-5.8 21.2,-12.9 31.6,-21.4 10.4,-8.6 21.3,-18.2 30.7,-29.7 9.4,-11.5 18.7,-24.9 25.6,-39.2 6.9,-14.3 12.7,-30.5 16.1,-46.5 3.4,-16 4.9,-32.6 4.8,-48.8 0,-8.1 -1,-16 -2.2,-23.7 -1.2,-7.7 -3.2,-15.3 -5.5,-22.5 -4.6,-14.3 -11.4,-27.4 -20.1,-39 -4.3,-5.8 -9,-10.8 -13.3,-15.5 -4.3,-4.6 -9.3,-9.5 -13.3,-13 -7.8,-7.1 -16.7,-14.2 -24.2,-19.4 -7.5,-5.3 -12.6,-8 -19.6,-12 -1.8,-1 -2.6,-1.4 -3.9,-2.1 -1.3,-0.7 -2.6,-1.3 -3.5,-1.8 -1.8,-0.8 -4.5,-2.1 -5.6,-2.6 -2.3,-1 -3.3,-1.4 -5.1,-2.1 -0.2,-0.1 -0.3,0.1 -0.1,0.2 1.8,0.8 2.8,1.2 5,2.2 1.1,0.5 3.8,1.8 5.6,2.7 0.9,0.4 2.2,1.1 3.5,1.8 1.3,0.7 2.2,1.1 3.9,2.1 6.9,4.1 11.9,6.9 19.3,12.3 7.4,5.3 16.2,12.4 23.9,19.6 3.8,3.6 8.7,8.4 13,13.1 4.3,4.6 8.9,9.6 13.1,15.4 8.5,11.6 15.2,24.5 19.6,38.7 2.2,7.1 4.1,14.6 5.3,22.3 1.2,7.6 2.1,15.4 2.1,23.4 0.1,16.1 -1.4,32.5 -4.8,48.3 -3.4,15.8 -9.1,31.8 -16,45.9 -6.8,14.1 -16,27.4 -25.2,38.7 -9.3,11.4 -20.1,21 -30.3,29.5 -10.2,8.5 -21.1,15.6 -31.3,21.3 -10.2,5.8 -20.1,9.5 -29.5,12.9 -9.4,3.4 -15.9,4.7 -24.6,6.7 -2.2,0.5 -3.2,0.6 -4.9,0.9 -1.7,0.3 -3,0.5 -4.3,0.7 -1.3,0.2 -2.6,0.4 -3.7,0.6 -1,0.1 -2.5,0.3 -3,0.3 -2.2,0.3 -3.7,0.4 -5.7,0.7 0.1,0.4 0.2,0.7 0.2,1 z"
   id="path118" />&#10;						</g>&#10;						<g
   id="g120">&#10;							<path
   class="st1"
   d="m 324.4,476.4 v -0.9 c 0,-0.2 0,-0.5 -0.1,-0.7 l -0.1,-0.9 7.4,-0.8 c 0.7,-0.1 1.6,-0.2 2.3,-0.3 1,-0.1 2.3,-0.3 3.6,-0.6 0.5,-0.1 1,-0.2 1.5,-0.2 0.8,-0.1 1.7,-0.3 2.8,-0.5 l 1.4,-0.2 c 1,-0.2 1.9,-0.3 3.5,-0.7 l 2.3,-0.5 c 7.6,-1.7 13.6,-3.1 22.1,-6.1 8.8,-3.1 19,-7 29.4,-12.8 11.6,-6.6 22.1,-13.7 31.1,-21.3 9,-7.4 20.5,-17.5 30.2,-29.4 10.6,-13 19,-25.9 25.1,-38.6 7.2,-14.8 12.6,-30.6 15.9,-45.7 3.2,-15.2 4.9,-31.4 4.8,-48.1 0,-7 -0.7,-14.4 -2.1,-23.3 -1.1,-7 -2.9,-14.5 -5.3,-22.1 -4.3,-13.7 -10.8,-26.7 -19.5,-38.4 -4,-5.5 -8.3,-10.1 -12.4,-14.6 l -0.7,-0.7 c -3.9,-4.2 -8.7,-9.1 -12.9,-13 -7.1,-6.6 -15.7,-13.7 -23.8,-19.5 -6.5,-4.7 -11.1,-7.4 -17,-10.9 l -2.3,-1.3 c -1.3,-0.8 -2.1,-1.2 -2.9,-1.6 l -0.9,-0.5 c -1.3,-0.7 -2.6,-1.4 -3.5,-1.8 -1.7,-0.9 -4.4,-2.2 -5.5,-2.7 -1.1,-0.5 -1.9,-0.8 -2.6,-1.2 -0.8,-0.3 -1.5,-0.6 -2.4,-1.1 l -0.8,-0.4 0.2,-0.9 0.3,-0.8 1,0.3 c 1.8,0.7 2.8,1.2 5.1,2.1 1.1,0.5 3.9,1.8 5.7,2.6 0.9,0.4 2.2,1.1 3.5,1.8 l 1,0.5 c 0.9,0.4 1.7,0.9 3,1.6 l 2.9,1.6 c 5.5,3.1 10.3,5.8 16.7,10.3 8,5.6 16.8,12.7 24.3,19.5 4.4,4 9.4,8.9 13.3,13.1 4.5,4.8 9.1,9.7 13.4,15.5 8.9,12.1 15.7,25.3 20.2,39.3 2.6,8.1 4.4,15.5 5.5,22.6 1.5,9.4 2.2,16.7 2.2,23.8 0.1,17.1 -1.5,33.5 -4.8,49 -3.3,15.5 -8.9,31.6 -16.1,46.7 -6.2,12.8 -14.9,26.1 -25.7,39.4 -9.8,11.9 -21.1,21.7 -30.8,29.8 -9.2,7.6 -19.5,14.6 -31.7,21.5 -10.2,5.8 -20,9.4 -30,12.8 -8.7,3 -14.8,4.3 -22.5,6 l -2.4,0.5 c -1.7,0.4 -2.7,0.5 -3.9,0.7 l -1.1,0.2 c -1.1,0.2 -2,0.3 -2.9,0.4 -0.5,0.1 -1,0.1 -1.5,0.2 -1.4,0.2 -2.7,0.4 -3.7,0.5 -0.7,0.1 -1.7,0.2 -2.4,0.2 z M 490.5,196.2 c 4.7,8.2 8.5,16.9 11.3,25.9 2.4,7.8 4.2,15.3 5.4,22.4 1.4,9 2.1,16.5 2.1,23.6 0.1,16.9 -1.6,33.2 -4.8,48.5 -3.3,15.3 -8.8,31.2 -16,46.1 -6.2,12.8 -14.7,25.8 -25.4,38.9 -9.8,12 -21.4,22.2 -30.4,29.6 -9.1,7.6 -19.7,14.8 -31.4,21.4 -5.1,2.9 -10.2,5.3 -15.1,7.4 5,-2 10,-4.4 15.1,-7.3 12.1,-6.9 22.4,-13.8 31.5,-21.3 9.7,-8 20.9,-17.8 30.6,-29.6 10.8,-13.2 19.4,-26.3 25.5,-39 7.2,-14.9 12.7,-30.9 16,-46.3 3.3,-15.3 4.9,-31.6 4.8,-48.6 0,-7 -0.7,-14.3 -2.2,-23.6 -1.1,-7 -2.9,-14.3 -5.5,-22.4 -2.9,-8.9 -6.7,-17.5 -11.5,-25.7 z"
   id="path119" />&#10;						</g>&#10;					</g>&#10;				</g>&#10;				<g
   id="g125">&#10;					<g
   id="g123">&#10;						<path
   class="st0"
   d="m 478.4,367.1 c 0,0 6,-6.8 -1.5,-23.1 -5.8,-12.4 -19.2,-20.3 -19.2,-20.3 0,0 -1.2,15.4 3.2,26.4 5.7,14 14,17.4 17.5,17 z"
   id="path122" />&#10;					</g>&#10;					<g
   id="g124">&#10;						<path
   class="st1"
   d="m 477.9,368 c -4,0 -12.1,-3.6 -17.7,-17.6 -4.4,-11.1 -3.3,-26.1 -3.3,-26.8 l 0.1,-1.4 1.2,0.7 c 0.6,0.3 13.7,8.2 19.5,20.7 7.7,16.6 1.7,23.8 1.4,24.1 l -0.2,0.3 h -0.3 c -0.3,0 -0.5,0 -0.7,0 z m -19.4,-42.8 c -0.2,4.1 -0.2,15.8 3.3,24.5 5.5,13.8 13.2,16.7 16.2,16.5 0.9,-1.4 4.5,-8.2 -1.9,-21.9 -4.6,-9.9 -14.2,-16.9 -17.6,-19.1 z"
   id="path123" />&#10;					</g>&#10;				</g>&#10;				<g
   id="g128">&#10;					<g
   id="g126">&#10;						<path
   class="st0"
   d="m 488.1,371.1 c 0,0 6.8,6 23.1,-1.5 12.4,-5.8 20.3,-19.2 20.3,-19.2 0,0 -15.4,-1.2 -26.4,3.2 -14.1,5.7 -17.4,14 -17,17.5 z"
   id="path125" />&#10;					</g>&#10;					<g
   id="g127">&#10;						<path
   class="st1"
   d="m 496.4,374.2 c -5.9,0 -8.7,-2.3 -8.9,-2.5 l -0.3,-0.2 v -0.3 c -0.4,-3.8 2.7,-12.4 17.6,-18.4 11.1,-4.4 26.1,-3.3 26.8,-3.3 l 1.4,0.1 -0.7,1.2 c -0.3,0.6 -8.2,13.7 -20.7,19.5 -6.5,3 -11.5,3.9 -15.2,3.9 z m -7.5,-3.6 c 1.4,0.9 8.2,4.5 21.9,-1.9 9.8,-4.6 16.9,-14.2 19.1,-17.6 -4.1,-0.1 -15.8,-0.2 -24.5,3.3 -13.8,5.5 -16.5,13.3 -16.5,16.2 z"
   id="path126" />&#10;					</g>&#10;				</g>&#10;				<g
   id="g131">&#10;					<g
   id="g129">&#10;						<path
   class="st0"
   d="m 452.4,406.7 c 0,0 7.5,-5.2 4.1,-22.8 -2.6,-13.5 -13.7,-24.3 -13.7,-24.3 0,0 -4.8,14.6 -3.2,26.4 2.1,15 9.3,20.2 12.8,20.7 z"
   id="path128" />&#10;					</g>&#10;					<g
   id="g130">&#10;						<path
   class="st1"
   d="m 452.6,407.6 h -0.3 c -3.7,-0.5 -11.4,-5.7 -13.6,-21.5 -1.6,-11.8 3,-26.2 3.2,-26.8 l 0.4,-1.3 1,1 c 0.5,0.5 11.3,11.2 14,24.8 3.5,18 -4.1,23.5 -4.4,23.7 z m -9.4,-46.4 c -1.1,3.9 -4,15.3 -2.7,24.6 2,14.7 8.9,19.3 11.8,20 1.2,-1.1 6.3,-6.9 3.5,-21.8 -2.2,-10.6 -9.9,-19.8 -12.6,-22.8 z"
   id="path129" />&#10;					</g>&#10;				</g>&#10;				<g
   id="g134">&#10;					<g
   id="g132">&#10;						<path
   class="st0"
   d="m 461,412.9 c 0,0 5.2,7.5 22.8,4.1 13.5,-2.6 24.3,-13.7 24.3,-13.7 0,0 -14.6,-4.8 -26.4,-3.2 -15,2.1 -20.2,9.3 -20.7,12.8 z"
   id="path131" />&#10;					</g>&#10;					<g
   id="g133">&#10;						<path
   class="st1"
   d="m 475.2,418.8 c -11.1,0 -14.7,-5.1 -14.9,-5.3 l -0.2,-0.3 v -0.3 c 0.5,-3.7 5.7,-11.4 21.5,-13.6 11.8,-1.6 26.2,3 26.8,3.2 l 1.3,0.4 -1,1 c -0.5,0.5 -11.2,11.3 -24.8,14 -3.3,0.6 -6.2,0.9 -8.7,0.9 z m -13.3,-6.1 c 1.1,1.2 6.9,6.4 21.8,3.5 10.7,-2.1 19.8,-9.7 22.8,-12.5 -3.9,-1.1 -15.3,-4 -24.6,-2.7 -14.8,2 -19.3,8.8 -20,11.7 z"
   id="path132" />&#10;					</g>&#10;				</g>&#10;				<g
   id="g137">&#10;					<g
   id="g135">&#10;						<path
   class="st0"
   d="m 421,437.6 c 0,0 8.5,-3.3 9.4,-21.2 0.7,-13.7 -7.6,-26.9 -7.6,-26.9 0,0 -8.2,13.1 -9.4,24.9 -1.5,15.2 4.3,21.9 7.6,23.2 z"
   id="path134" />&#10;					</g>&#10;					<g
   id="g136">&#10;						<path
   class="st1"
   d="m 421,438.6 -0.3,-0.1 c -3.5,-1.4 -9.7,-8.2 -8.1,-24.1 1.2,-11.9 9.2,-24.7 9.5,-25.3 l 0.7,-1.2 0.7,1.2 c 0.3,0.5 8.4,13.6 7.7,27.4 -0.9,18.3 -9.6,21.9 -9.9,22 z m 1.8,-47.4 c -2,3.5 -7.5,13.9 -8.5,23.3 -1.5,14.8 4,20.8 6.7,22.2 1.5,-0.8 7.8,-5.2 8.5,-20.3 0.5,-10.9 -4.8,-21.6 -6.7,-25.2 z"
   id="path135" />&#10;					</g>&#10;				</g>&#10;				<g
   id="g140">&#10;					<g
   id="g138">&#10;						<path
   class="st0"
   d="m 428,445.6 c 0,0 3.3,8.5 21.2,9.4 13.7,0.7 26.9,-7.6 26.9,-7.6 0,0 -13.1,-8.2 -24.9,-9.4 -15.1,-1.6 -21.8,4.2 -23.2,7.6 z"
   id="path137" />&#10;					</g>&#10;					<g
   id="g139">&#10;						<path
   class="st1"
   d="m 450.9,455.8 c -0.5,0 -1.1,0 -1.6,0 -18.3,-0.9 -21.9,-9.6 -22,-9.9 l -0.1,-0.3 0.1,-0.3 c 1.4,-3.5 8.2,-9.7 24.1,-8.1 11.9,1.2 24.7,9.2 25.3,9.5 l 1.2,0.7 -1.2,0.7 c -0.6,0.3 -12.6,7.7 -25.8,7.7 z M 429,445.5 c 0.8,1.5 5.2,7.8 20.3,8.5 10.9,0.5 21.6,-4.7 25.1,-6.7 -3.5,-2 -13.9,-7.5 -23.3,-8.5 -14.7,-1.5 -20.8,4.1 -22.1,6.7 z"
   id="path138" />&#10;					</g>&#10;				</g>&#10;				<g
   id="g143">&#10;					<g
   id="g141">&#10;						<path
   class="st0"
   d="m 385.2,458.4 c 0,0 9.1,-1.2 14.2,-18.4 3.9,-13.2 -1,-28 -1,-28 0,0 -11.1,10.8 -15,22 -5.1,14.3 -1.1,22.3 1.8,24.4 z"
   id="path140" />&#10;					</g>&#10;					<g
   id="g142">&#10;						<path
   class="st1"
   d="m 385,459.3 -0.3,-0.2 c -3.1,-2.2 -7.5,-10.3 -2.2,-25.4 4,-11.3 14.8,-21.9 15.2,-22.3 l 1,-1 0.4,1.3 c 0.2,0.6 4.9,15.2 1,28.5 -5.2,17.6 -14.5,19 -14.9,19 z m 13,-45.6 c -2.8,3 -10.6,11.7 -13.8,20.6 -5,14 -1,21.2 1.2,23.2 1.6,-0.4 8.8,-3.2 13.1,-17.7 3.2,-10.5 0.6,-22.2 -0.5,-26.1 z"
   id="path141" />&#10;					</g>&#10;				</g>&#10;				<g
   id="g146">&#10;					<g
   id="g144">&#10;						<path
   class="st0"
   d="m 390.4,467.5 c 0,0 1.2,9.1 18.4,14.2 13.2,3.9 28,-1 28,-1 0,0 -10.8,-11.1 -22,-15 -14.3,-5.1 -22.3,-1.1 -24.4,1.8 z"
   id="path143" />&#10;					</g>&#10;					<g
   id="g145">&#10;						<path
   class="st1"
   d="m 420.2,484.1 c -3.7,0 -7.7,-0.4 -11.6,-1.6 -17.6,-5.2 -19,-14.5 -19,-14.9 v -0.3 l 0.2,-0.3 c 2.2,-3.1 10.3,-7.5 25.4,-2.1 11.3,4 21.9,14.8 22.3,15.3 l 1,1 -1.3,0.4 c -0.6,0.1 -8,2.5 -17,2.5 z m -28.8,-16.4 c 0.4,1.6 3.2,8.8 17.7,13.1 10.4,3.1 22.1,0.5 26,-0.5 -3,-2.8 -11.7,-10.6 -20.6,-13.8 -14,-5 -21.2,-1 -23.1,1.2 z"
   id="path144" />&#10;					</g>&#10;				</g>&#10;				<g
   id="g149">&#10;					<g
   id="g147">&#10;						<path
   class="st0"
   d="m 346.5,467.1 c 0,0 9.1,1.1 18.2,-14.4 7,-11.8 5.9,-27.4 5.9,-27.4 0,0 -13.4,7.8 -19.9,17.7 -8.5,12.7 -6.5,21.4 -4.2,24.1 z"
   id="path146" />&#10;					</g>&#10;					<g
   id="g148">&#10;						<path
   class="st1"
   d="m 346.9,468 c -0.3,0 -0.5,0 -0.5,0 h -0.3 l -0.2,-0.3 c -2.5,-2.9 -4.8,-11.8 4.1,-25.2 6.6,-10 19.7,-17.6 20.2,-17.9 l 1.2,-0.7 0.1,1.4 c 0,0.6 1.1,16 -6,27.9 C 357.3,467 349,468 346.9,468 Z m 22.9,-41.1 c -3.4,2.2 -13.2,8.8 -18.4,16.6 -8.3,12.4 -6.2,20.3 -4.4,22.8 1.7,0 9.3,-0.9 17,-14 5.5,-9.4 5.8,-21.3 5.8,-25.4 z"
   id="path147" />&#10;					</g>&#10;				</g>&#10;				<g
   id="g152">&#10;					<g
   id="g150">&#10;						<path
   class="st0"
   d="m 349.3,477.2 c 0,0 -1.1,9.1 14.4,18.2 11.8,7 27.4,5.9 27.4,5.9 0,0 -7.8,-13.4 -17.7,-19.9 -12.7,-8.5 -21.4,-6.5 -24.1,-4.2 z"
   id="path149" />&#10;					</g>&#10;					<g
   id="g151">&#10;						<path
   class="st1"
   d="m 388.5,502.3 c -5,0 -16.1,-0.7 -25.2,-6.1 -15.8,-9.3 -14.9,-18.7 -14.8,-19.1 v -0.3 l 0.3,-0.2 c 2.9,-2.5 11.8,-4.8 25.2,4.1 10,6.6 17.6,19.7 17.9,20.2 l 0.7,1.2 -1.4,0.1 c -0.3,0 -1.2,0.1 -2.7,0.1 z m -38.4,-24.7 c 0,1.7 0.9,9.3 14,17 9.4,5.5 21.3,5.9 25.4,5.8 -2.2,-3.4 -8.8,-13.2 -16.6,-18.4 -12.4,-8.2 -20.4,-6.1 -22.8,-4.4 z"
   id="path150" />&#10;					</g>&#10;				</g>&#10;				<g
   id="g155">&#10;					<g
   id="g153">&#10;						<path
   class="st0"
   d="m 305.8,463.3 c 0,0 8.5,3.3 21.3,-9.4 9.7,-9.7 12.5,-25 12.5,-25 0,0 -14.9,4.2 -23.7,12.1 -11.4,10.2 -11.7,19.1 -10.1,22.3 z"
   id="path152" />&#10;					</g>&#10;					<g
   id="g154">&#10;						<path
   class="st1"
   d="m 308.6,464.6 c -1.9,0 -3,-0.4 -3.2,-0.5 l -0.3,-0.1 -0.1,-0.3 c -1.7,-3.4 -1.7,-12.6 10.2,-23.4 8.9,-8 23.5,-12.2 24.1,-12.3 l 1.3,-0.4 -0.2,1.4 c -0.1,0.6 -3,15.7 -12.8,25.5 -8.5,8.6 -15.2,10.1 -19,10.1 z m -2.2,-2 c 1.6,0.4 9.3,1.4 20,-9.3 7.7,-7.7 11,-19.2 12,-23.2 -3.9,1.3 -15,5.2 -22,11.5 -11.1,10 -11,18.2 -10,21 z"
   id="path153" />&#10;					</g>&#10;				</g>&#10;				<g
   id="g158">&#10;					<g
   id="g156">&#10;						<path
   class="st0"
   d="m 305.7,473.8 c 0,0 -3.3,8.5 9.4,21.3 9.7,9.7 25,12.5 25,12.5 0,0 -4.2,-14.9 -12.1,-23.7 -10.2,-11.4 -19.1,-11.7 -22.3,-10.1 z"
   id="path155" />&#10;					</g>&#10;					<g
   id="g157">&#10;						<path
   class="st1"
   d="m 341.4,508.7 -1.4,-0.2 c -0.6,-0.1 -15.7,-3 -25.5,-12.8 -13,-13 -9.8,-21.8 -9.6,-22.2 l 0.1,-0.3 0.3,-0.1 c 3.4,-1.7 12.7,-1.7 23.4,10.2 8,8.9 12.2,23.5 12.3,24.1 z m -35,-34.2 c -0.4,1.6 -1.4,9.3 9.3,20 7.7,7.7 19.2,11 23.2,12 -1.3,-3.9 -5.2,-15 -11.5,-22 -10,-11.1 -18.2,-11.1 -21,-10 z"
   id="path156" />&#10;					</g>&#10;				</g>&#10;				<g
   id="g161">&#10;					<g
   id="g159">&#10;						<path
   class="st0"
   d="m 398.9,115.9 c 0,0 1.3,-9 -13.9,-18.5 -11.6,-7.2 -27,-6.5 -27,-6.5 0,0 7.4,13.5 17.1,20.3 12.4,8.7 21.1,7 23.8,4.7 z"
   id="path158" />&#10;					</g>&#10;					<g
   id="g160">&#10;						<path
   class="st1"
   d="m 392.3,118.6 c -4.4,0 -10.4,-1.6 -17.7,-6.7 -9.7,-6.8 -17,-20 -17.3,-20.6 L 356.6,90.1 358,90 c 0.7,0 15.9,-0.6 27.5,6.7 15.5,9.7 14.3,18.9 14.3,19.3 v 0.3 l -0.3,0.2 c -1.3,1.1 -3.7,2.1 -7.2,2.1 z M 359.5,91.8 c 2.1,3.5 8.4,13.3 16.1,18.7 12.1,8.5 20.1,6.6 22.5,5 0,-1.7 -0.7,-9.3 -13.5,-17.3 -9.2,-5.8 -21,-6.4 -25.1,-6.4 z"
   id="path159" />&#10;					</g>&#10;				</g>&#10;			</g>&#10;		</g>&#10;	</g>&#10;</g>&#10;<g
   id="g171">&#10;	<g
   id="g166">&#10;		<path
   class="st2"
   d="m 170.7,316.6 c 4.8,-1.2 8,-4.1 9.6,-8.7 1.6,-4.6 2.4,-9.2 2.4,-13.8 v -60.6 c 0,-0.7 -0.2,-1.7 -0.6,-2.8 -1,-2.9 -2.9,-4.4 -5.8,-4.5 V 225 h 29 v 1.2 c -2.9,0.1 -4.8,1.6 -5.8,4.5 -0.4,1.2 -0.6,2.1 -0.6,2.8 v 60.6 c 0,5.6 -3.4,10.9 -10.1,15.9 -6.8,5 -12.8,7.5 -18.1,7.5 z"
   id="path165" />&#10;	</g>&#10;	<g
   id="g167">&#10;		<path
   class="st2"
   d="m 211.4,289.7 c 2.9,-0.1 4.8,-1.6 5.8,-4.5 0.4,-1.1 0.6,-2.1 0.6,-2.8 v -49.5 c 0,-0.8 -0.2,-1.7 -0.6,-2.9 -1,-2.8 -3,-4.3 -5.8,-4.4 V 225 l 49.1,0.1 0.5,15.1 h -1 c -4,-6.8 -7.8,-10.8 -11.6,-12.1 -3.8,-1.3 -7.7,-1.9 -11.7,-1.9 -0.9,0 -1.8,0 -2.8,0.1 v 26.1 h 8.7 c 2.1,0 4.1,-0.5 6.2,-1.5 2,-1 3.5,-1.8 4.4,-2.6 l 0.6,15.1 h -1 c -2.9,-4.1 -5.8,-6.8 -8.8,-8 -3,-1.2 -6.1,-1.9 -9.4,-1.9 H 234 v 30.7 c 0,1.6 0.7,2.9 2,4 1.3,1.1 3.4,1.6 6.2,1.6 4.1,0 7.4,-0.7 9.9,-2 3,-1.6 6.6,-5.6 10.8,-12 h 1 l -2,15.1 c -16.8,0.1 -33.6,0.1 -50.5,0.1 z"
   id="path166" />&#10;	</g>&#10;	<g
   id="g168">&#10;		<path
   class="st2"
   d="m 293.7,291.9 c -6.5,0 -11.8,-0.5 -15.7,-1.4 -1.9,-0.5 -3.7,-0.7 -5.7,-0.7 L 271.6,273 h 1 c 4,6.6 7.3,11.2 9.9,13.8 2.5,2.6 6.2,3.9 11,3.9 2.7,0 5.2,-0.9 7.7,-2.7 2.5,-1.8 3.7,-4 3.7,-6.5 0,-5.1 -4.4,-9.8 -13.1,-14.1 -5,-2.4 -9.8,-5.4 -14.2,-9 -4.4,-3.6 -6.6,-8.9 -6.6,-15.8 0,-6 2.2,-10.5 6.6,-13.7 4.4,-3.2 9.4,-4.8 14.8,-4.8 4,0 7.8,0.5 11.5,1.5 1.8,0.5 3.7,0.7 5.6,0.7 l 0.7,15.4 h -1 c -3.5,-6.6 -6.3,-10.9 -8.2,-13.1 -2,-2.2 -4.3,-3.3 -7,-3.3 -2.1,0 -4.3,0.9 -6.4,2.6 -2.1,1.7 -3.1,4.4 -3.1,8 0,3.2 1.5,6.4 4.5,9.3 3,3 6.4,5.4 10.4,7.3 4.4,2 8.3,4.5 11.9,7.5 3.6,3 5.3,7.4 5.3,13.4 0,6.6 -2.4,11.4 -7.3,14.3 -4.9,2.8 -10.1,4.2 -15.6,4.2 z"
   id="path167" />&#10;	</g>&#10;	<g
   id="g169">&#10;		<path
   class="st2"
   d="m 352,291.9 c -6.9,0 -12.7,-1.8 -17.6,-5.3 -4.9,-3.5 -7.3,-7.8 -7.3,-12.8 v -40.3 c 0,-0.7 -0.2,-1.7 -0.6,-2.8 -1,-2.9 -2.9,-4.4 -5.8,-4.5 V 225 h 29.1 v 1.2 c -2.9,0.1 -4.8,1.6 -5.8,4.5 -0.4,1.2 -0.6,2.1 -0.6,2.8 v 40.3 c 0,4.4 1.2,8.1 3.6,11.2 2.4,3.1 5.7,4.6 9.8,4.6 4.1,0 8.2,-1.5 12.4,-4.6 4.2,-3.1 6.3,-6.8 6.3,-11.2 v -40.3 c 0,-2.3 -0.8,-3.9 -2.5,-4.9 -1.6,-1 -3.2,-1.7 -4.7,-2.2 L 368,226.3 V 225 h 15.6 v 1.1 c -1.7,0.6 -3,1.3 -4,2.3 -0.9,0.9 -1.6,1.9 -1.9,2.8 -0.3,0.9 -0.5,1.6 -0.5,2 v 40.5 c 0,5 -2.4,9.3 -7.3,12.8 -5.1,3.6 -11,5.4 -17.9,5.4 z m -5.1,-72.2 c 7,-5.5 14,-9.2 21.1,-11 v -0.9 l -5.9,-4.7 c -0.6,-0.4 -1.4,-0.7 -2.3,-0.7 -0.1,0 -0.6,0 -1.2,0.1 -0.7,0 -1.4,0.5 -2.2,1.3 l -11,13.4 z"
   id="path168" />&#10;	</g>&#10;	<g
   id="g170">&#10;		<path
   class="st2"
   d="m 411.9,291.9 c -6.5,0 -11.8,-0.5 -15.7,-1.4 -1.9,-0.5 -3.7,-0.7 -5.7,-0.7 L 389.8,273 h 1 c 4,6.6 7.3,11.2 9.9,13.8 2.5,2.6 6.2,3.9 11,3.9 2.7,0 5.2,-0.9 7.7,-2.7 2.5,-1.8 3.7,-4 3.7,-6.5 0,-5.1 -4.4,-9.8 -13.1,-14.1 -5,-2.4 -9.8,-5.4 -14.2,-9 -4.4,-3.6 -6.6,-8.9 -6.6,-15.8 0,-6 2.2,-10.5 6.6,-13.7 4.4,-3.2 9.4,-4.8 14.8,-4.8 4,0 7.8,0.5 11.5,1.5 1.8,0.5 3.7,0.7 5.6,0.7 l 0.7,15.4 h -1 c -3.5,-6.6 -6.3,-10.9 -8.2,-13.1 -2,-2.2 -4.3,-3.3 -7,-3.3 -2.1,0 -4.3,0.9 -6.4,2.6 -2.1,1.8 -3.1,4.4 -3.1,8 0,3.2 1.5,6.4 4.5,9.3 3,3 6.4,5.4 10.4,7.3 4.4,2 8.3,4.5 11.9,7.5 3.6,3 5.3,7.4 5.3,13.4 0,6.6 -2.4,11.4 -7.3,14.3 -5,2.8 -10.2,4.2 -15.6,4.2 z"
   id="path169" />&#10;	</g>&#10;</g>&#10;<g
   id="g172">&#10;	<path
   d="m 388.7,190.1 h -172 c -0.8,0 -1.5,-0.7 -1.5,-1.5 0,-0.8 0.7,-1.5 1.5,-1.5 h 172 c 0.8,0 1.5,0.7 1.5,1.5 0,0.8 -0.7,1.5 -1.5,1.5 z"
   id="path171" />&#10;</g>&#10;<g
   id="g173">&#10;	<path
   d="M 434.6,197.6 H 170.8 c -0.8,0 -1.5,-0.7 -1.5,-1.5 0,-0.8 0.7,-1.5 1.5,-1.5 h 263.7 c 0.8,0 1.5,0.7 1.5,1.5 0.1,0.8 -0.6,1.5 -1.4,1.5 z"
   id="path172" />&#10;</g>&#10;<g
   id="g185">&#10;	<g
   id="g174">&#10;		<path
   class="st2"
   d="m 209.8,395.9 v -0.3 c 0.8,0 1.4,-0.5 1.7,-1.3 0.1,-0.3 0.2,-0.6 0.2,-0.8 v -6.4 h -8.5 v 6.4 c 0,0.2 0.1,0.5 0.2,0.8 0.3,0.8 0.9,1.3 1.7,1.3 v 0.3 h -8.5 v -0.3 c 0.8,0 1.4,-0.5 1.7,-1.3 0.1,-0.3 0.2,-0.6 0.2,-0.8 v -14.3 c 0,-0.2 -0.1,-0.5 -0.2,-0.8 -0.3,-0.8 -0.9,-1.3 -1.7,-1.3 v -0.3 h 8.5 v 0.3 c -0.8,0 -1.4,0.5 -1.7,1.3 -0.1,0.3 -0.2,0.6 -0.2,0.8 v 7.5 h 8.5 v -7.5 c 0,-0.2 -0.1,-0.5 -0.2,-0.8 -0.3,-0.8 -0.9,-1.3 -1.7,-1.3 v -0.3 h 8.5 v 0.3 c -0.8,0 -1.4,0.5 -1.7,1.3 -0.1,0.3 -0.2,0.6 -0.2,0.8 v 14.3 c 0,0.2 0.1,0.5 0.2,0.8 0.1,0.3 0.3,0.6 0.6,0.9 0.3,0.3 0.6,0.4 1.1,0.4 v 0.3 z"
   id="path173" />&#10;	</g>&#10;	<g
   id="g175">&#10;		<path
   class="st2"
   d="m 229.3,396.2 c -2.7,0 -5.1,-1 -7,-2.9 -1.9,-1.9 -2.9,-4.3 -2.9,-7 0,-2.7 1,-5.1 2.9,-7 1.9,-1.9 4.3,-2.9 7,-2.9 2.7,0 5.1,1 7,2.9 1.9,1.9 2.9,4.3 2.9,7 0,2.7 -1,5.1 -2.9,7 -1.9,1.9 -4.3,2.9 -7,2.9 z m 2,-0.5 c 0.2,0 0.3,0 0.4,0 1.1,-0.4 1.8,-1.5 2.1,-3.5 0.1,-0.6 0.1,-1.3 0.1,-2 0,-1.5 -0.2,-3.1 -0.7,-4.9 -0.7,-2.6 -1.7,-4.7 -2.9,-6.3 -1.1,-1.4 -2.1,-2.1 -3.1,-2.1 -0.2,0 -0.3,0 -0.4,0 -1.1,0.4 -1.8,1.5 -2.1,3.5 -0.1,0.6 -0.1,1.3 -0.1,2 0,1.5 0.2,3.1 0.7,4.9 0.7,2.6 1.7,4.7 2.9,6.3 1.1,1.4 2.1,2.1 3.1,2.1 z"
   id="path174" />&#10;	</g>&#10;	<g
   id="g176">&#10;		<path
   class="st2"
   d="m 242,395.9 v -0.3 c 0.9,0 1.4,-0.5 1.7,-1.3 0.1,-0.3 0.2,-0.6 0.2,-0.8 v -8.1 l -4.2,-6.4 c -0.2,-0.4 -0.6,-0.8 -1.1,-1.3 -0.5,-0.5 -1,-0.7 -1.5,-0.7 v -0.3 h 7.8 v 0.3 c -0.1,0.3 -0.2,0.5 -0.2,0.7 0,0.2 0.1,0.5 0.4,0.9 l 3.3,5 c 0.1,0.1 0.2,0.2 0.2,0.2 l 3,-5.2 c 0.1,-0.1 0.1,-0.3 0.1,-0.6 0,-0.3 -0.1,-0.6 -0.3,-1 v -0.3 h 4.1 v 0.3 c -0.6,0 -1.2,0.2 -1.9,0.7 -0.7,0.4 -1.2,0.9 -1.5,1.3 l -3.4,5.8 v 8.7 c 0,0.2 0.1,0.5 0.2,0.8 0.3,0.8 0.9,1.3 1.7,1.3 v 0.3 z"
   id="path175" />&#10;	</g>&#10;	<g
   id="g177">&#10;		<path
   class="st2"
   d="m 266.2,395.9 v -0.3 c 0.9,0 1.4,-0.5 1.7,-1.3 0.1,-0.3 0.2,-0.6 0.2,-0.8 v -8.1 l -4.2,-6.4 c -0.2,-0.4 -0.6,-0.8 -1.1,-1.3 -0.5,-0.5 -1,-0.7 -1.5,-0.7 v -0.3 h 7.8 v 0.3 c -0.1,0.3 -0.2,0.5 -0.2,0.7 0,0.2 0.1,0.5 0.4,0.9 l 3.3,5 c 0.1,0.1 0.2,0.2 0.2,0.2 l 3,-5.2 c 0.1,-0.1 0.1,-0.3 0.1,-0.6 0,-0.3 -0.1,-0.6 -0.3,-1 v -0.3 h 4.1 v 0.3 c -0.6,0 -1.2,0.2 -1.9,0.7 -0.7,0.4 -1.2,0.9 -1.5,1.3 l -3.4,5.8 v 8.7 c 0,0.2 0.1,0.5 0.2,0.8 0.3,0.8 0.9,1.3 1.7,1.3 v 0.3 z"
   id="path176" />&#10;	</g>&#10;	<g
   id="g178">&#10;		<path
   class="st2"
   d="m 293.9,396.2 c -1.9,0 -3.4,-0.1 -4.6,-0.4 -0.5,-0.1 -1.1,-0.2 -1.7,-0.2 l -0.2,-4.9 h 0.3 c 1.2,1.9 2.1,3.3 2.9,4 0.8,0.7 1.8,1.1 3.2,1.1 0.8,0 1.5,-0.3 2.2,-0.8 0.7,-0.5 1.1,-1.2 1.1,-1.9 0,-1.5 -1.3,-2.9 -3.8,-4.1 -1.5,-0.7 -2.9,-1.6 -4.1,-2.6 -1.3,-1.1 -1.9,-2.6 -1.9,-4.6 0,-1.7 0.6,-3.1 1.9,-4 1.3,-0.9 2.7,-1.4 4.3,-1.4 1.2,0 2.3,0.1 3.4,0.4 0.5,0.1 1.1,0.2 1.6,0.2 l 0.2,4.5 h -0.3 c -1,-1.9 -1.8,-3.2 -2.4,-3.8 -0.6,-0.6 -1.3,-1 -2,-1 -0.6,0 -1.2,0.3 -1.9,0.8 -0.6,0.5 -0.9,1.3 -0.9,2.3 0,0.9 0.4,1.9 1.3,2.7 0.9,0.9 1.9,1.6 3,2.1 1.3,0.6 2.4,1.3 3.5,2.2 1,0.9 1.6,2.2 1.6,3.9 0,1.9 -0.7,3.3 -2.1,4.2 -1.5,0.9 -3,1.3 -4.6,1.3 z"
   id="path177" />&#10;	</g>&#10;	<g
   id="g179">&#10;		<path
   class="st2"
   d="m 302.4,395.9 v -0.3 c 0.5,0 0.8,-0.2 1.1,-0.4 0.3,-0.3 0.5,-0.6 0.6,-0.9 0.1,-0.3 0.2,-0.6 0.2,-0.8 v -14.3 c 0,-0.2 -0.1,-0.5 -0.2,-0.8 -0.1,-0.3 -0.3,-0.6 -0.6,-0.9 -0.3,-0.3 -0.6,-0.4 -1.1,-0.4 v -0.3 h 8.5 v 0.3 c -0.5,0 -0.8,0.2 -1.1,0.4 -0.3,0.3 -0.5,0.6 -0.6,0.9 -0.1,0.3 -0.2,0.6 -0.2,0.8 v 14.3 c 0,0.2 0.1,0.5 0.2,0.8 0.1,0.3 0.3,0.6 0.6,0.9 0.3,0.3 0.7,0.4 1.1,0.4 v 0.3 z"
   id="path178" />&#10;	</g>&#10;	<g
   id="g180">&#10;		<path
   class="st2"
   d="m 312.8,395.6 c 0.8,0 1.4,-0.5 1.7,-1.3 0.1,-0.3 0.2,-0.6 0.2,-0.8 V 379 c 0,-0.2 -0.1,-0.5 -0.2,-0.8 -0.3,-0.8 -0.9,-1.3 -1.7,-1.3 v -0.2 h 14.3 l 0.2,4.4 H 327 c -1.2,-2 -2.3,-3.2 -3.4,-3.5 -1.1,-0.4 -2.2,-0.6 -3.4,-0.6 -0.3,0 -0.5,0 -0.8,0 v 7.6 h 2.5 c 0.6,0 1.2,-0.1 1.8,-0.4 0.6,-0.3 1,-0.5 1.3,-0.8 l 0.2,4.4 h -0.3 c -0.8,-1.2 -1.7,-2 -2.6,-2.3 -0.9,-0.4 -1.8,-0.5 -2.7,-0.5 h -0.2 v 9 c 0,0.5 0.2,0.8 0.6,1.2 0.4,0.3 1,0.5 1.8,0.5 1.2,0 2.2,-0.2 2.9,-0.6 0.9,-0.5 1.9,-1.6 3.2,-3.5 h 0.3 l -0.6,4.4 c -4.9,0 -9.8,0 -14.7,0 v -0.4 z"
   id="path179" />&#10;	</g>&#10;	<g
   id="g181">&#10;		<path
   class="st2"
   d="m 339.8,396.2 c -0.1,0 -0.3,0 -0.4,-0.1 -0.1,-0.1 -0.2,-0.2 -0.3,-0.3 l -6.5,-11.7 c -0.9,6.4 -1.4,9.7 -1.4,9.7 0,0.2 0,0.3 0.1,0.5 0.1,0.4 0.3,0.8 0.6,1.2 v 0.3 h -3.3 v -0.4 c 1.3,-0.4 2,-1.1 2.2,-2.1 l 2.5,-17.1 h 0.3 c 0.1,0 0.3,0 0.4,0.1 0.1,0.1 0.2,0.2 0.3,0.3 l 7.8,13.7 c 2.6,-6.1 4.6,-10.8 6,-14.1 h 0.2 c 0.1,0 0.3,0 0.4,0.1 0.1,0.1 0.2,0.2 0.2,0.3 l 2.7,16.5 c 0.1,0.5 0.4,1 0.8,1.5 0.4,0.5 0.9,0.8 1.4,0.8 v 0.3 h -7.6 v -0.3 c 0.2,-0.4 0.3,-0.8 0.4,-1 0,-0.3 0,-0.4 0,-0.5 0,-0.2 0,-0.4 -0.1,-0.6 l -1.4,-8.6 -4.9,11.5 z"
   id="path180" />&#10;	</g>&#10;	<g
   id="g182">&#10;		<path
   class="st2"
   d="m 362,395.9 h -7.4 v -0.3 c 0.8,0 1.4,-0.5 1.7,-1.3 0.1,-0.3 0.2,-0.6 0.2,-0.8 v -14.3 c 0,-0.2 -0.1,-0.5 -0.2,-0.8 -0.3,-0.8 -0.9,-1.3 -1.7,-1.3 v -0.3 h 8.8 c 2.6,0.1 4.5,0.6 5.7,1.7 1.2,1.1 1.8,2.4 1.8,3.8 0,2.2 -1.1,3.7 -3.3,4.8 -2.2,1 -4.3,1.6 -6.4,1.6 v 4.4 c 0,0.6 0.1,1.1 0.3,1.7 0.2,0.5 0.4,0.9 0.5,1.1 z m 0.9,-8.3 c 1.2,0 2,-0.4 2.5,-1.1 0.5,-0.7 0.8,-1.5 0.8,-2.5 0,-2.2 -0.4,-4 -1.1,-5.2 -0.7,-1.2 -1.7,-1.8 -2.9,-1.8 h -1 v 9.3 c 0,0.9 0.5,1.3 1.7,1.3 z"
   id="path181" />&#10;	</g>&#10;	<g
   id="g183">&#10;		<path
   class="st2"
   d="m 389.2,396.2 c -1.9,0 -3.5,-0.4 -4.8,-1.3 -1.3,-0.9 -2.5,-2.9 -3.7,-6.1 -0.2,-0.6 -0.8,-0.8 -1.9,-0.8 v 5 c 0,0.6 0.1,1.1 0.3,1.7 0.2,0.5 0.4,0.9 0.5,1.1 v 0.2 h -7.4 v -0.3 c 0.5,0 0.8,-0.2 1.1,-0.4 0.3,-0.3 0.5,-0.6 0.6,-0.9 0.1,-0.3 0.2,-0.6 0.2,-0.8 v -14.3 c 0,-0.2 -0.1,-0.5 -0.2,-0.8 -0.1,-0.3 -0.3,-0.6 -0.6,-0.9 -0.3,-0.3 -0.7,-0.4 -1.1,-0.4 v -0.3 h 8.7 c 5.1,0 7.6,1.6 7.6,4.8 0,1.4 -0.5,2.5 -1.5,3.4 -1,0.9 -2.2,1.6 -3.6,2.1 1,0.2 1.8,0.8 2.5,1.7 l 3,4 c 0.7,0.9 1.5,1.7 2.4,2.1 0.9,0.5 1.5,0.7 2,0.7 v 0.4 z m -7.6,-9.5 c 0.9,-0.3 1.6,-0.8 1.8,-1.5 0.3,-0.7 0.4,-1.5 0.4,-2.3 0,-1.6 -0.3,-3 -1,-4.2 -0.7,-1.2 -1.7,-1.8 -3.1,-1.8 h -1 V 387 c 1,0.1 1.9,0 2.9,-0.3 z"
   id="path182" />&#10;	</g>&#10;	<g
   id="g184">&#10;		<path
   class="st2"
   d="m 393.5,395.6 c 0.8,0 1.4,-0.5 1.7,-1.3 0.1,-0.3 0.2,-0.6 0.2,-0.8 V 379 c 0,-0.2 -0.1,-0.5 -0.2,-0.8 -0.3,-0.8 -0.9,-1.3 -1.7,-1.3 v -0.2 h 14.4 l 0.2,4.4 h -0.3 c -1.2,-2 -2.3,-3.2 -3.4,-3.5 -1.1,-0.4 -2.2,-0.6 -3.4,-0.6 -0.3,0 -0.5,0 -0.8,0 v 7.6 h 2.5 c 0.6,0 1.2,-0.1 1.8,-0.4 0.6,-0.3 1,-0.5 1.3,-0.8 l 0.2,4.4 h -0.3 c -0.8,-1.2 -1.7,-2 -2.6,-2.3 -0.9,-0.4 -1.8,-0.5 -2.7,-0.5 h -0.2 v 9 c 0,0.5 0.2,0.8 0.6,1.2 0.4,0.3 1,0.5 1.8,0.5 1.2,0 2.2,-0.2 2.9,-0.6 0.9,-0.5 1.9,-1.6 3.2,-3.5 h 0.3 l -0.6,4.4 c -4.9,0 -9.8,0 -14.7,0 v -0.4 z"
   id="path183" />&#10;	</g>&#10;</g>&#10;<g
   id="g197">&#10;	<g
   id="g194">&#10;		<g
   id="g186">&#10;			<path
   d="m 211.7,319.7 v 16.8 h 10.4 v 3.5 h -14.3 v -20.3 z"
   id="path185" />&#10;		</g>&#10;		<g
   id="g187">&#10;			<path
   d="m 246.4,329.9 c -0.1,5.3 -3.3,10.5 -10.4,10.5 -7.1,0 -10.4,-5.1 -10.4,-10.5 0,-5.3 3.4,-10.7 10.4,-10.7 7,0.1 10.5,5.4 10.4,10.7 z m -17.1,0.1 c 0.1,3.3 1.9,6.9 6.7,6.9 4.8,0 6.6,-3.6 6.6,-6.9 0.1,-3.4 -1.9,-7.3 -6.6,-7.3 -4.8,0 -6.8,3.9 -6.7,7.3 z"
   id="path186" />&#10;		</g>&#10;		<g
   id="g188">&#10;			<path
   d="m 274.6,340 h -15.2 c 0,-6.8 0,-13.5 0,-20.3 h 15.2 v 3.7 h -11.4 v 4.7 h 11 v 3.6 h -11 v 4.6 h 11.4 z"
   id="path187" />&#10;		</g>&#10;		<g
   id="g189">&#10;			<path
   d="m 292.9,324.6 c -0.7,-1.2 -2.6,-2.3 -4.8,-2.3 -2.8,0 -4.2,1.2 -4.2,2.7 0,1.8 2.1,2.3 4.5,2.6 4.2,0.5 8.2,1.6 8.2,6.5 0,4.5 -4,6.5 -8.5,6.5 -4.1,0 -7.3,-1.3 -8.8,-5 l 3.2,-1.7 c 0.9,2.2 3.2,3.2 5.7,3.2 2.4,0 4.7,-0.8 4.7,-3 0,-1.9 -2,-2.7 -4.7,-3 -4.1,-0.5 -8,-1.6 -8,-6.1 0,-4.2 4.1,-5.9 7.9,-5.9 3.2,0 6.4,0.9 8,4 z"
   id="path188" />&#10;		</g>&#10;		<g
   id="g190">&#10;			<path
   d="m 315,323.1 h -6.4 v -3.5 c 5.9,0 10.8,0 16.7,0 v 3.5 h -6.4 V 340 H 315 Z"
   id="path189" />&#10;		</g>&#10;		<g
   id="g191">&#10;			<path
   d="m 349.7,329.9 c -0.1,5.3 -3.3,10.5 -10.4,10.5 -7.1,0 -10.4,-5.1 -10.4,-10.5 0,-5.3 3.4,-10.7 10.4,-10.7 7,0.1 10.5,5.4 10.4,10.7 z m -17.1,0.1 c 0.1,3.3 1.9,6.9 6.7,6.9 4.8,0 6.6,-3.6 6.6,-6.9 0.1,-3.4 -1.9,-7.3 -6.6,-7.3 -4.8,0 -6.8,3.9 -6.7,7.3 z"
   id="path190" />&#10;		</g>&#10;		<g
   id="g192">&#10;			<path
   d="m 372.6,329.6 c 0.1,5.1 -3,10.3 -10.2,10.3 -2.5,0 -5.5,0 -8,0 v -20.3 c 2.5,0 5.5,0 8,0 7,0.1 10.1,5 10.2,10 z m -14.3,6.7 h 4.2 c 4.6,0 6.4,-3.4 6.4,-6.7 -0.1,-3.2 -1.9,-6.3 -6.4,-6.3 h -4.2 z"
   id="path191" />&#10;		</g>&#10;		<g
   id="g193">&#10;			<path
   d="m 397.5,329.9 c -0.1,5.3 -3.3,10.5 -10.4,10.5 -7.1,0 -10.4,-5.1 -10.4,-10.5 0,-5.3 3.4,-10.7 10.4,-10.7 7,0.1 10.5,5.4 10.4,10.7 z m -17,0.1 c 0.1,3.3 1.9,6.9 6.7,6.9 4.8,0 6.6,-3.6 6.6,-6.9 0.1,-3.4 -1.9,-7.3 -6.6,-7.3 -4.9,0 -6.8,3.9 -6.7,7.3 z"
   id="path192" />&#10;		</g>&#10;	</g>&#10;	<g
   id="g195">&#10;		<circle
   cx="407"
   cy="329.70001"
   r="3.9000001"
   id="circle194" />&#10;	</g>&#10;	<g
   id="g196">&#10;		<circle
   cx="198.39999"
   cy="329.70001"
   r="3.9000001"
   id="circle195" />&#10;	</g>&#10;</g>&#10;<g
   id="g198">&#10;	<path
   d="M 435.7,353.2 H 169.8 c -0.8,0 -1.5,-0.7 -1.5,-1.5 0,-0.8 0.7,-1.5 1.5,-1.5 h 265.9 c 0.8,0 1.5,0.7 1.5,1.5 0,0.8 -0.7,1.5 -1.5,1.5 z"
   id="path197" />&#10;</g>&#10;<g
   id="g201">&#10;	<g
   id="g199">&#10;		<path
   class="st2"
   d="m 351.3,131.4 c -4.6,4.3 -8.1,9.3 -10.8,14.8 -2.7,5.5 -4.4,11.3 -5.3,17.3 -0.2,0 -0.4,0 -0.6,0 -21.3,0 -42.5,0 -63.8,0 -0.5,0 -0.7,-0.1 -0.8,-0.6 -1.6,-10.3 -5.5,-19.5 -12.2,-27.5 -1.2,-1.4 -2.4,-2.6 -3.6,-4 1.5,-0.7 4.3,-0.5 6.1,0.4 2,1 3.3,2.6 4.4,4.6 0.1,-0.5 0.1,-0.9 0.2,-1.2 0.6,-3 2.9,-4.6 6,-4 0.7,0.1 1.4,0.4 2,0.6 1,0.4 1.6,1.2 1.8,2.3 0.3,1.9 -0.3,3.6 -1.1,5.2 -0.1,0 -0.1,0 -0.2,-0.1 -0.7,-1.5 -1.5,-2 -3.2,-1.7 -1.7,0.3 -2.6,1.2 -2.6,2.9 0,2.6 1.1,4.8 2.9,6.7 1.6,1.7 3.7,2.7 6.1,2.6 1.5,-0.1 2.6,-0.7 3.5,-1.9 1.3,-1.8 1.8,-3.8 2,-6 0.1,-1.1 0.2,-2.2 0.2,-3.5 0.2,0.3 0.3,0.5 0.4,0.8 1.3,2.8 2.9,5.4 5.2,7.5 1.1,1 2.3,1.8 3.8,2.1 2.5,0.6 4.6,0.1 6.2,-1.9 2.8,-3.4 3.4,-7.3 2.1,-11.4 -0.9,-2.8 -3.2,-4.2 -6.1,-4.4 -1.5,-0.1 -3,0.1 -4.6,0.1 0,0.1 0,0 0,0 0.8,-2.7 2.7,-4.4 5.6,-4.3 1.5,0.1 2.9,0.5 4.5,1.3 -0.1,-0.3 -0.2,-0.6 -0.3,-0.8 -1.3,-2.6 -2.1,-5.3 -1.9,-8.3 0.2,-2.1 0.9,-4 2.2,-5.7 1.6,-2.1 4.6,-2 6.3,0 2.4,3.1 2.7,6.5 1.7,10.1 -0.3,1.3 -0.9,2.5 -1.4,3.8 -0.1,0.2 -0.2,0.4 -0.4,0.8 0.4,-0.2 0.6,-0.3 0.8,-0.4 1.6,-0.7 3.2,-1.1 5,-0.8 2.1,0.3 4,2.2 4.3,4.4 -0.5,-0.1 -1,-0.2 -1.5,-0.3 -1.6,-0.2 -3.3,-0.2 -4.9,0.3 -2.2,0.7 -3.8,2.1 -4.4,4.3 -1.1,3.9 -0.5,7.5 1.9,10.8 2,2.7 5.2,3.2 8.2,1.5 2,-1.1 3.6,-2.8 4.8,-4.7 0.9,-1.4 1.6,-2.9 2.4,-4.3 0.1,-0.2 0.2,-0.3 0.3,-0.7 0.1,1.3 0.1,2.4 0.3,3.5 0.2,1.6 0.5,3.1 1.2,4.5 1.4,2.9 3.8,3.9 6.8,3 3.4,-1 6.3,-4.8 6.6,-8.3 0,-0.2 0,-0.3 0,-0.5 -0.1,-2.3 -2.1,-3.7 -4.3,-2.9 -0.8,0.3 -1.2,0.9 -1.5,1.7 -0.1,0 -0.1,0 -0.1,0 -0.8,-1.6 -1.3,-3.2 -1.1,-5 0.1,-1 0.6,-1.8 1.4,-2.3 1.4,-0.8 2.9,-1.2 4.6,-0.9 2,0.3 3.4,1.8 3.8,4 0.1,0.4 0.1,0.8 0.2,1.3 2.6,-4 5.9,-5.9 10.9,-4.8 z"
   id="path198" />&#10;	</g>&#10;	<g
   id="g200">&#10;		<path
   class="st2"
   d="m 270.6,173.7 c -0.1,-2.5 -0.3,-5 -0.4,-7.5 21.5,0 43,0 64.5,0 -0.1,2.5 -0.3,5 -0.4,7.5 -21.2,0 -42.5,0 -63.7,0 z"
   id="path199" />&#10;	</g>&#10;</g>&#10;<g
   id="g202">&#10;	<polygon
   points="230.6,141 236.1,140.2 238.6,135.2 241,140.2 246.6,141 242.6,144.9 243.5,150.4 238.6,147.8 233.6,150.4 234.6,144.9 "
   id="polygon201" />&#10;</g>&#10;<g
   id="g203">&#10;	<polygon
   points="357.2,141 362.8,140.2 365.2,135.2 367.7,140.2 373.3,141 369.3,144.9 370.2,150.4 365.2,147.8 360.3,150.4 361.2,144.9 "
   id="polygon202" />&#10;</g>&#10;<g
   id="g207">&#10;	<g
   id="g204">&#10;		<polygon
   points="289.2,95.1 294.9,87.3 289.2,79.5 298.8,80.5 302.7,71.7 306.6,80.5 316.2,79.5 310.5,87.3 316.2,95.1 306.6,94 302.7,102.9 298.8,94 "
   id="polygon203" />&#10;	</g>&#10;	<g
   id="g205">&#10;		<polygon
   points="258.6,97.7 262.4,92.5 258.6,87.2 265,87.9 267.6,82 270.2,87.9 276.6,87.2 272.8,92.5 276.6,97.7 270.2,97 267.6,102.9 265,97 "
   id="polygon204" />&#10;	</g>&#10;	<g
   id="g206">&#10;		<polygon
   points="326.7,97.7 330.5,92.5 326.7,87.2 333.1,87.9 335.7,82 338.3,87.9 344.7,87.2 340.9,92.5 344.7,97.7 338.3,97 335.7,102.9 333.1,97 "
   id="polygon205" />&#10;	</g>&#10;</g>&#10;</svg>
