<?xml version="1.0" encoding="utf-8"?>
<!-- Generator: Adobe Illustrator 25.3.0, SVG Export Plug-In . SVG Version: 6.00 Build 0)  -->
<svg version="1.1" id="Layer_1" xmlns="http://www.w3.org/2000/svg" xmlns:xlink="http://www.w3.org/1999/xlink" x="0px" y="0px"
	 viewBox="0 0 841.89 1190.55" style="enable-background:new 0 0 841.89 1190.55; background:white;" xml:space="preserve">
<style type="text/css">
	.st0{fill:#FFFFFF;}
</style>
<g>
	<path d="M455.88,159.07c8.47,9.77,10.28,21.95,12.17,34.04c0.8,5.16,0.74,10.45,1.4,15.64c0.55,4.36-1.22,5.43-5.33,5.38
		c-15.26-0.2-30.54,0.1-45.8-0.17c-4.91-0.09-6.81,1.06-6.67,6.39c0.38,13.89,0.39,27.8,0.01,41.69c-0.15,5.39,1.84,6.42,6.69,6.31
		c12.75-0.29,25.53,0.18,38.28-0.18c7.94-0.23,12.81,3.44,16.24,10.09c5.88,11.39,6.81,23.98,8.89,36.28
		c2.82,16.68,3.06,33.51,3.05,50.39c-0.08,204.63-0.05,409.26-0.05,613.89c0,11.62,0.01,23.2-2.72,34.64
		c-2.08,8.72-5.73,16.18-13.86,20.76c-28.26,0-56.52,0-84.78,0c-9.43-5.23-12.78-14.31-14.93-24.01
		c-2.48-11.17-3.16-22.53-3.17-33.94c-0.03-152.47-0.06-304.93-0.09-457.4c0-8.66,0.15-17.32-0.05-25.98
		c-0.09-3.96,0.9-5.69,5.3-5.59c12.07,0.27,24.16,0.22,36.23,0.02c3.83-0.06,5.38,1.1,5.14,5.04c-0.25,4.09-0.02,8.2-0.02,12.3
		c0,157.25,0.04,314.51-0.16,471.76c-0.01,6.22,1.7,7.98,7.6,7.41c4.97-0.48,10.02-0.22,15.03-0.05c2.96,0.1,4.2-1.01,3.96-3.96
		c-0.13-1.58-0.01-3.19-0.01-4.78c0-215.14,0-430.28,0-645.42c0-8.87-0.01-8.85-8.75-8.84c-14.81,0.02-29.63-0.2-44.44,0.08
		c-8.33,0.15-13.24-3.93-16.09-11.18c-1.84-4.68-3.18-9.59-3.24-14.6c-0.39-34.85-1.98-69.71,1.29-104.51
		c0.7-7.5,2.38-14.84,5.81-21.64c2.9-5.75,7.29-8.8,14.14-8.75c7.47,0.06,15.03,0.76,22.43-1.1
		C424.89,159.07,440.38,159.07,455.88,159.07z"/>
	<path d="M762.18,503.66c-4.03,6.24-10.37,7.99-17.11,8.04c-28.02,0.18-56.04,0.38-84.05-0.04c-14.1-0.21-18.73-5.63-18.73-19.44
		c-0.01-33.26,0.11-66.52-0.12-99.77c-0.04-5.41,1.56-7.08,6.91-6.9c11.15,0.36,22.33,0.39,33.48,0.01
		c5.09-0.18,6.56,1.22,6.52,6.41c-0.23,33.48,0.01,66.97-0.24,100.45c-0.04,5.74,1.11,8.55,7.42,7.73
		c6.23-0.81,14.35,2.69,18.33-1.45c3.63-3.78,1.03-11.72,1.04-17.82c0.08-42.14-0.12-84.28,0.21-126.42
		c0.05-6.31-1.93-7.45-7.66-7.38c-17.75,0.2-35.53,0.18-53.27-0.49c-10.52-0.4-12.5-3.19-12.61-13.54c-0.03-2.73-0.14-5.48,0.04-8.2
		c0.55-8.53,4.27-12.63,12.86-14.14c2.68-0.47,5.42-0.82,8.13-0.83c21.87-0.13,43.74-0.16,65.6-0.25
		c5.99-0.02,11.21,1.75,15.21,6.36c1.35,1.55,2.84,3.57,1.98,5.48c-0.81,1.79-3.27,1.08-5,1.08c-14.81,0.05-29.61,0.08-44.42-0.05
		c-4.6-0.04-8.09-0.44-8.07,6.42c0.02,7.23,4.21,6.1,8.42,6.11c12.07,0.02,24.16,0.4,36.21-0.11c12.99-0.56,23.28,2.99,28.9,15.62
		C762.18,401.56,762.18,452.61,762.18,503.66z"/>
	<path d="M103.09,372.39c12.97,0.09,25.96,0.59,38.92,0.11c6.54-0.24,7.76,2.07,7.72,8.06c-0.25,37.35,0,74.7-0.26,112.04
		c-0.04,5.7,1.47,7.7,7.16,7.07c6.06-0.68,13.92,2.42,17.81-1.18c3.97-3.68,1.25-11.62,1.26-17.67c0.11-50.33,0-100.66,0.16-150.99
		c0.02-5.38-0.46-8.95-7.16-7.83c-5.38,0.9-4.22-3.22-4.27-6.19c-0.06-3.12-0.77-6.4,4.46-6.29c12.98,0.27,25.97-0.19,38.94,0.22
		c11.1,0.35,14.49,4.25,14.49,15.18c0.01,57.16,0.01,114.32,0,171.48c0,11.18-3.8,15.33-15.03,15.4
		c-29.6,0.16-59.21,0.06-88.82,0.06c-6.58,0-12.05-2.08-15.37-8.2C103.09,459.9,103.09,416.14,103.09,372.39z"/>
	<path d="M286.45,347.88c0,3.56,0,5.51,0,7.47c0.01,45.8,0.1,91.61-0.07,137.41c-0.02,5.14,0.98,7.22,6.66,6.96
		c10.46-0.49,20.98-0.5,31.43,0.01c5.58,0.27,8.48-2.45,10.86-6.58c6.83-11.8,9.98-24.84,12.44-38.07
		c1.33-7.15,2.39-14.37,3.17-21.6c0.44-4.06,2.36-5.32,6.19-5.36c4.96-0.05,3.23,3.57,3.24,5.79c0.13,23.93-0.08,47.86,0.23,71.78
		c0.07,5.39-1.83,6.28-6.66,6.26c-39.65-0.18-79.3-0.17-118.95,0c-4.57,0.02-6.37-0.89-6.32-5.9c0.04-4.85,0.96-7.43,6.35-6.48
		c3.88,0.68,5.01-1.08,5-4.93c-0.11-47.4-0.12-94.8,0.02-142.2c0.01-4.15-1.69-5.27-5.24-4.72c-4.87,0.76-6.29-1.29-6.08-6.03
		c0.18-4.08,0.18-7.38,5.65-6.41c6.27,1.11,5.43-3.2,5.66-7.11c0.26-4.34-0.5-7.24-5.74-6.3c-5.61,1-5.41-2.52-5.55-6.49
		c-0.15-4.31,0.99-5.9,5.65-5.88c40.11,0.18,80.22,0.16,120.32,0.02c4.38-0.02,5.94,1.15,5.85,5.73c-0.28,13.9-0.04,27.8-0.2,41.7
		c-0.02,1.86,1.62,5.22-2.12,5.29c-3.26,0.06-6.7-0.22-7.3-5.04c-1.56-12.46-7.43-22.75-16.47-31.38
		c-2.99-2.86-6.16-4.13-10.37-4.03c-10.7,0.26-21.43,0.4-32.12-0.03c-5.59-0.23-5.69,2.62-5.55,6.68c0.13,3.73-0.57,7.32,5.33,6.96
		c7.04-0.44,14.13,0.08,21.18-0.15c3.91-0.13,4.46,1.84,4.44,5.04c-0.09,14.13-0.01,28.26-0.06,42.39c-0.01,2.11,0.71,4.98-3,4.79
		c-2.79-0.14-5.74,0.67-6.49-3.9c-2.07-12.67-7.19-23.92-17.19-32.49C289.78,350.34,288.86,349.71,286.45,347.88z"/>
	<path d="M551.84,404.85c0,29.39,0.12,58.78-0.11,88.16c-0.04,5.1,1.33,6.99,6.49,6.51c4.29-0.4,8.67-0.38,12.97-0.01
		c4.84,0.42,6.2-1.39,6.16-6.14c-0.2-25.29-0.09-50.57-0.09-75.86c0-33.72,0.11-67.43-0.11-101.15c-0.04-5.29,1.3-7,6.78-6.89
		c17.53,0.35,35.08,0.09,52.62,0.2c1.9,0.01,4.82-1.42,5.28,2.37c0.44,3.65-2.04,3.79-4.61,4.39c-11.78,2.78-13.38,4.93-13.39,17.2
		c0,53.76,0,107.53-0.01,161.29c0,12.04-4.13,16.71-16.26,16.82c-28.7,0.25-57.41,0.23-86.11,0c-12.12-0.1-16.13-4.67-16.14-16.87
		c-0.01-53.99-0.01-107.98-0.03-161.97c0-11.38-2.12-14.06-13.43-16.51c-2.52-0.54-5.2-0.38-4.78-4.14c0.46-4.2,3.77-2.55,5.84-2.57
		c17.54-0.14,35.09,0.13,52.62-0.2c5.21-0.1,6.47,1.47,6.43,6.53C551.72,345.62,551.84,375.24,551.84,404.85z"/>
</g>
</svg>
