<?xml version="1.0" encoding="utf-8"?>
<!-- Generator: Adobe Illustrator 25.3.0, SVG Export Plug-In . SVG Version: 6.00 Build 0)  -->
<svg version="1.1" id="Layer_1" xmlns="http://www.w3.org/2000/svg" xmlns:xlink="http://www.w3.org/1999/xlink" x="0px" y="0px"
	 viewBox="0 0 841.89 1190.55" style="enable-background:new 0 0 841.89 1190.55;" xml:space="preserve">
<style type="text/css">
	.st0{fill:#F38F1A;}
	.st1{fill:none;}
	.st2{fill:#FFFFFF;}
</style>
<polygon class="st0" points="750.92,755.6 778.62,855.49 63.27,855.49 90.95,755.6 63.27,655.71 778.62,655.71 "/>
<path class="st1" d="M265.92,318.66l-8.71,27.15c2.45-1.22,6.18-2.69,11.17-4.42L265.92,318.66z"/>
<path class="st1" d="M373.38,318.66l-8.71,27.15c2.45-1.22,6.18-2.69,11.17-4.42L373.38,318.66z"/>
<path class="st1" d="M420.17,343.99c0.28,0,0.73,0.02,1.32,0.06c0.6,0.04,1.05,0.06,1.35,0.06c5.18,0,9.05-1.33,11.63-4
	c1.14-1.22,2.19-2.81,3.17-4.77c1.08-2.2,1.61-4.06,1.61-5.6c0-5.46-1.6-10.54-4.81-15.25c-2.94-4.32-6.03-6.81-9.25-7.48
	l-4.51-0.71l0.3,7.13c0.14,2.91,0.21,5.28,0.21,7.13c0,3.14-0.13,7.05-0.4,11.72L420.17,343.99z"/>
<path class="st1" d="M550.52,374.74c1.79,2.32,4.04,3.48,6.76,3.48c4.63,0,8-1.37,10.11-4.12c1.97-2.59,3.54-6.08,4.7-10.46
	c1.17-4.38,1.75-8.94,1.75-13.7c0-11.07-3.13-20.56-9.38-28.45c-2.07-2.63-6.85-7.15-14.34-13.55l0.15,16.96l0.09,16.91l-0.49,32.16
	C550.03,374.09,550.24,374.34,550.52,374.74z"/>
<path class="st1" d="M627.02,343.99c0.28,0,0.73,0.02,1.32,0.06c0.6,0.04,1.05,0.06,1.35,0.06c5.18,0,9.05-1.33,11.63-4
	c1.14-1.22,2.19-2.81,3.17-4.77c1.08-2.2,1.61-4.06,1.61-5.6c0-5.46-1.6-10.54-4.81-15.25c-2.94-4.32-6.03-6.81-9.25-7.48
	l-4.51-0.71l0.3,7.13c0.14,2.91,0.21,5.28,0.21,7.13c0,3.14-0.13,7.05-0.4,11.72L627.02,343.99z"/>
<path class="st0" d="M112,383.45c3.08,2.75,6.48,4.12,10.2,4.12c5.11,0,9.61-2.41,13.49-7.25c4.46-5.58,6.7-13.04,6.7-22.38
	c0-6.56-1.2-12.11-3.59-16.67c-2.62-4.99-6.25-7.81-10.9-8.48c-3.21-0.43-5.37-0.9-6.48-1.41c-3-1.33-4.51-3.63-4.51-6.89
	c0-4.32,1.14-7.99,3.41-11.01c2.21-2.94,4.9-4.46,8.07-4.53c1.12-0.04,2.69,0.36,4.72,1.21c2.03,0.85,3.45,1.27,4.26,1.27
	c1.83,0,2.74-1.73,2.74-5.18c0-2.63-1.64-4.79-4.93-6.48c-2.48-1.3-4.7-1.94-6.67-1.94c-4.18,0-8.23,2.73-12.15,8.19
	c-4.1,5.77-6.15,12.15-6.15,19.14c0,5.93,1.44,10.48,4.32,13.67c2.25,2.47,4.98,3.83,8.19,4.06c3.61,0.2,6.65,1.53,9.1,4
	c2.9,2.87,4.35,6.77,4.35,11.72c0,6.01-1.73,10.7-5.18,14.08c-2.7,2.63-5.62,3.95-8.77,3.95c-3.29,0-5.79-1.1-7.52-3.3
	c-0.81-1.06-1.74-3.08-2.77-6.07c-0.75-2.2-1.62-3.3-2.62-3.3c-0.87,0-1.61,0.52-2.21,1.56c-0.6,1.04-0.89,2.39-0.87,4.03
	C106.31,375.44,108.23,380.08,112,383.45z"/>
<path class="st0" d="M150.76,308.77l3.96-0.18l3.96-0.24c-0.57,13.59-0.85,24.92-0.85,33.99c0,2.67,0.07,5.96,0.2,9.87
	c0.13,3.91,0.2,7.22,0.2,9.93c0,4.08-0.1,7.72-0.3,10.9c-3.04,0.82-5.23,1.24-6.54,1.24c-0.85,0-1.57,0.59-2.15,1.77
	c-0.58,1.18-0.87,2.61-0.87,4.3c0,1.69,0.29,3.11,0.87,4.27c0.58,1.16,1.29,1.74,2.15,1.74c1.36,0,3.37-0.36,6.04-1.09
	c2.67-0.73,4.67-1.09,6.01-1.09c1.14,0,2.84-0.05,5.11-0.15c2.27-0.1,3.98-0.15,5.11-0.15c0.85,0,1.57-0.58,2.15-1.74
	c0.58-1.16,0.87-2.6,0.87-4.33c0-1.69-0.29-3.11-0.87-4.27c-0.58-1.16-1.29-1.74-2.15-1.74l-9.59,0.24
	c0.14-3.02,0.21-6.38,0.21-10.07c0-2.75-0.04-6.14-0.12-10.19c-0.08-4.05-0.12-7.44-0.12-10.19c0-10.41,0.23-21.32,0.7-32.75
	l4.9,1.24c1.97,0.51,3.6,0.77,4.9,0.77c0.79,0,1.49-0.45,2.1-1.35c0.69-1.1,1.04-2.57,1.04-4.42c0-3.69-0.9-5.79-2.71-6.3
	c-6.09-1.69-11.15-2.53-15.19-2.53c-4.51,0-7.58,0.16-9.22,0.47c-1.91,0.35-2.86,2.36-2.86,6.01c0,1.77,0.29,3.22,0.88,4.36
	C149.15,308.2,149.88,308.77,150.76,308.77z"/>
<path class="st0" d="M206.71,332.8c3,22.42,5.73,39.6,8.19,51.54c0.63,3.06,1.72,4.59,3.29,4.59c1.18,0,2.09-1.18,2.74-3.53
	c1.28-4.79,2.39-9.7,3.35-14.73l8.19-42.82l2.31-12.9c0.79-4,1.82-7.83,3.07-11.49c0.41-1.18,0.61-2.36,0.61-3.54
	c0-1.69-0.32-3.13-0.96-4.33c-0.64-1.2-1.37-1.8-2.18-1.8c-0.91,0-1.7,0.79-2.37,2.36c-1.3,2.99-2.53,7.38-3.68,13.19l-2.59,14.43
	l-8.16,42.76l-0.18,0.94c-1.85-10.56-3.74-23.15-5.69-37.76l-2.92-20.03l-1.13-10.25c-0.45-3.22-1.44-4.83-2.98-4.83
	c-0.83,0-1.54,0.53-2.13,1.59c-0.65,1.14-0.97,2.59-0.97,4.36c0,2.51,0.6,7.85,1.8,16.02L206.71,332.8z"/>
<path class="st0" d="M243.56,383.87c0.64,1.14,1.36,1.71,2.18,1.71c1.12,0,2-1.1,2.65-3.3c2.46-9.9,4.19-17.42,5.21-22.56l8.1-3.24
	c3.35-1.41,6.06-2.4,8.13-2.95c0.79,8.84,1.45,15.02,1.98,18.55c1.38,9.27,3,13.9,4.87,13.9c0.81,0,1.53-0.57,2.16-1.71
	c0.63-1.14,0.94-2.55,0.94-4.24c0-1.06-0.29-3.18-0.88-6.36l-1.74-9.31l-4.54-40.94l-1.92-19.79c-0.59-4.32-1.68-6.48-3.29-6.48
	c-1.18,0-4.17,7.44-8.98,22.32c-3.53,10.92-6.45,20.58-8.77,28.98c-1.99,0.9-2.98,2.94-2.98,6.12c0,1.34,0.17,2.51,0.52,3.54
	c-3.06,12.45-4.6,19.61-4.6,21.5C242.6,381.31,242.92,382.73,243.56,383.87z M265.92,318.66l2.47,22.74
	c-4.99,1.73-8.72,3.2-11.17,4.42L265.92,318.66z"/>
<path class="st0" d="M294.05,383.45c3.08,2.75,6.48,4.12,10.2,4.12c5.11,0,9.61-2.41,13.49-7.25c4.46-5.58,6.7-13.04,6.7-22.38
	c0-6.56-1.2-12.11-3.59-16.67c-2.62-4.99-6.25-7.81-10.9-8.48c-3.21-0.43-5.37-0.9-6.48-1.41c-3-1.33-4.51-3.63-4.51-6.89
	c0-4.32,1.14-7.99,3.41-11.01c2.21-2.94,4.9-4.46,8.07-4.53c1.12-0.04,2.69,0.36,4.72,1.21c2.03,0.85,3.45,1.27,4.26,1.27
	c1.83,0,2.74-1.73,2.74-5.18c0-2.63-1.64-4.79-4.93-6.48c-2.48-1.3-4.7-1.94-6.67-1.94c-4.18,0-8.23,2.73-12.15,8.19
	c-4.1,5.77-6.15,12.15-6.15,19.14c0,5.93,1.44,10.48,4.32,13.67c2.25,2.47,4.98,3.83,8.19,4.06c3.61,0.2,6.65,1.53,9.1,4
	c2.9,2.87,4.35,6.77,4.35,11.72c0,6.01-1.73,10.7-5.18,14.08c-2.7,2.63-5.62,3.95-8.77,3.95c-3.29,0-5.79-1.1-7.52-3.3
	c-0.81-1.06-1.74-3.08-2.77-6.07c-0.75-2.2-1.62-3.3-2.62-3.3c-0.87,0-1.61,0.52-2.21,1.56c-0.6,1.04-0.89,2.39-0.87,4.03
	C288.35,375.44,290.27,380.08,294.05,383.45z"/>
<path class="st0" d="M351.02,383.87c0.64,1.14,1.36,1.71,2.18,1.71c1.12,0,2-1.1,2.65-3.3c2.46-9.9,4.19-17.42,5.21-22.56l8.1-3.24
	c3.35-1.41,6.06-2.4,8.13-2.95c0.79,8.84,1.45,15.02,1.98,18.55c1.38,9.27,3,13.9,4.87,13.9c0.81,0,1.53-0.57,2.16-1.71
	c0.63-1.14,0.94-2.55,0.94-4.24c0-1.06-0.29-3.18-0.88-6.36l-1.74-9.31l-4.54-40.94l-1.92-19.79c-0.59-4.32-1.68-6.48-3.29-6.48
	c-1.18,0-4.17,7.44-8.98,22.32c-3.53,10.92-6.45,20.58-8.77,28.98c-1.99,0.9-2.98,2.94-2.98,6.12c0,1.34,0.17,2.51,0.52,3.54
	c-3.06,12.45-4.6,19.61-4.6,21.5C350.06,381.31,350.38,382.73,351.02,383.87z M373.38,318.66l2.47,22.74
	c-4.99,1.73-8.72,3.2-11.17,4.42L373.38,318.66z"/>
<path class="st0" d="M414.32,380.22c0,1.73,0.29,3.17,0.87,4.33c0.58,1.16,1.3,1.74,2.18,1.74c0.87,0,1.6-0.58,2.18-1.74
	c0.58-1.16,0.87-2.6,0.87-4.33l-0.15-11.6l-0.24-11.55c8.22,4.44,15.69,13.08,22.41,25.92c0.67,1.26,1.39,1.89,2.16,1.89
	c0.83,0,1.56-0.61,2.18-1.83c0.62-1.22,0.93-2.65,0.93-4.3c0-1.41-0.26-2.75-0.79-4.01c-3.13-7.26-7.84-14.17-14.16-20.73
	c3.37-1.92,6.18-4.73,8.43-8.42c2.8-4.59,4.2-9.88,4.2-15.85c0-12.17-4.11-22.48-12.33-30.92c-1.91-1.96-4.25-3.28-7.03-3.95
	l-7.34-1.12c-1.36-0.2-2.42,0.75-3.2,2.83c-0.65,1.69-0.97,3.65-0.97,5.89c0,2,0.1,4.97,0.29,8.89c0.19,3.93,0.29,6.89,0.29,8.89
	c0,3.57-0.2,8.93-0.61,16.08c-0.41,7.15-0.61,12.53-0.61,16.14c0,3.1,0.08,7.73,0.23,13.87
	C414.25,372.49,414.32,377.11,414.32,380.22z M420.99,313.42l-0.3-7.13l4.51,0.71c3.23,0.67,6.31,3.16,9.25,7.48
	c3.21,4.71,4.81,9.8,4.81,15.25c0,1.53-0.54,3.4-1.61,5.6c-0.97,1.96-2.03,3.55-3.17,4.77c-2.58,2.67-6.45,4-11.63,4
	c-0.3,0-0.76-0.02-1.35-0.06c-0.6-0.04-1.04-0.06-1.32-0.06l0.64-11.72c0.26-4.67,0.4-8.58,0.4-11.72
	C421.2,318.7,421.13,316.33,420.99,313.42z"/>
<path class="st0" d="M453.75,361.07c0,12.6,0.97,20.66,2.92,24.15c1.79,3.22,5.82,4.83,12.12,4.83c6.35,0,10.48-0.37,12.39-1.12
	c1.72-0.67,2.59-2.65,2.59-5.95c0-4.08-1.08-6.12-3.23-6.12c-0.39,0-0.97,0.13-1.77,0.38c-0.79,0.26-1.39,0.38-1.8,0.38
	c-1.28,0-3.18,0.07-5.71,0.21c-2.53,0.14-4.42,0.21-5.68,0.21c-2.7,0-4.29-0.55-4.78-1.65c-0.65-1.53-0.97-6.63-0.97-15.31
	c0-2.16,0.03-4.49,0.08-6.98c0.05-2.49,0.12-5.13,0.2-7.92l14.06-2.47l7.25-1.24c1.87-0.43,2.8-2.43,2.8-6.01
	c0-1.85-0.3-3.32-0.91-4.42c-0.61-1.1-1.36-1.65-2.25-1.65c-0.89,0-3.3,0.39-7.22,1.18l-13.33,2.47c0.34-9.54,0.52-17.04,0.52-22.5
	c0-1.53-0.09-3.57-0.27-6.12c2.27-1.22,4.39-2.12,6.36-2.71c1.97-0.59,3.78-0.88,5.45-0.88c3.19,0,6.49,0.94,9.92,2.83
	c0.34,0.2,0.66,0.29,0.94,0.29c0.87,0,1.6-0.67,2.19-2c0.53-1.22,0.79-2.61,0.79-4.18c0-2.71-0.68-4.6-2.04-5.66
	c-2.94-2.28-6.88-3.42-11.81-3.42c-1.91,0-3.94,0.31-6.1,0.94c-2.16,0.63-4.46,1.57-6.9,2.83c-0.61-1.14-1.34-1.71-2.19-1.71
	c-2.03,0-3.04,2.34-3.04,7.01c0,1.45,0.1,3.58,0.3,6.39c0.2,2.81,0.3,4.94,0.3,6.39c0,5.42-0.2,13.8-0.61,25.15
	c-0.39,1.06-0.58,2.26-0.58,3.59c0,1.02,0.11,1.98,0.34,2.89c-0.1,3.46-0.18,6.68-0.24,9.66
	C453.78,355.81,453.75,358.56,453.75,361.07z"/>
<path class="st0" d="M492.9,322.14c0,2.59,0.03,6.51,0.09,11.75s0.09,9.16,0.09,11.75c0,2.43-0.04,6.08-0.12,10.93
	c-0.08,4.85-0.12,8.49-0.12,10.93c0,1.65-0.07,4.14-0.2,7.48c-0.13,3.34-0.2,5.83-0.2,7.48c0,1.69,0.29,3.14,0.88,4.36
	c0.65,1.37,1.53,2.06,2.65,2.06c2.11,0,3.17-5.28,3.17-15.84c0-3.3-0.04-8.21-0.11-14.73c-0.07-6.52-0.11-11.41-0.11-14.67
	l0.09-13.43l0.15-13.37c10.69,28.51,20.17,50.32,28.43,65.44c1.54,2.83,2.87,4.24,3.99,4.24c1.85,0,2.93-1.98,3.26-5.95
	c0.32-4.4,0.49-7.54,0.49-9.42c0-4.36,0.03-10.87,0.09-19.53c0.06-8.66,0.09-15.17,0.09-19.53c0-25.49-1.77-38.23-5.3-38.23
	c-2.15,0-3.23,2.28-3.23,6.83c0,1.49,0.2,3.57,0.61,6.24c0.47,3.1,0.74,5.16,0.82,6.19c0.69,10.21,1.04,23.93,1.04,41.17l0.09,7.42
	c0.06,3.3,0.06,5.79,0,7.48c-5.74-10.48-11.02-21.48-15.83-32.98c-4.04-9.7-8.58-21.87-13.64-36.52c-1.58-4.55-2.91-6.83-3.99-6.83
	c-1.02,0-1.92,0.75-2.72,2.24c-0.8,1.49-1.2,3.14-1.2,4.95c0,2.47,0.12,6.16,0.36,11.04S492.9,319.66,492.9,322.14z"/>
<path class="st0" d="M546.75,384.57h0.3c1.16,1.69,2.88,3.06,5.18,4.12c1.91,0.9,3.6,1.35,5.08,1.35c5.89,0,10.4-2.08,13.55-6.24
	c2.82-3.73,5.05-8.68,6.68-14.84c1.63-6.16,2.45-12.6,2.45-19.32c0-11.15-2.38-21.38-7.15-30.69c-4.06-7.89-8.97-13.74-14.73-17.55
	c-0.49-0.31-2.29-1.94-5.42-4.89c-2.76-2.63-4.38-3.95-4.87-3.95c-0.85,0-1.7,0.88-2.56,2.65c-0.85,1.77-1.28,3.46-1.28,5.06
	c0,4.6,0.05,11.46,0.14,20.59c0.09,9.13,0.14,15.99,0.14,20.59c0,4.12-0.1,10.3-0.29,18.53c-0.19,8.23-0.29,14.4-0.29,18.53
	c0,1.69,0.29,3.12,0.88,4.3C545.14,383.98,545.88,384.57,546.75,384.57z M550.28,324.91l-0.15-16.96
	c7.49,6.4,12.27,10.92,14.34,13.55c6.25,7.89,9.38,17.38,9.38,28.45c0,4.75-0.58,9.32-1.75,13.7c-1.17,4.38-2.74,7.86-4.7,10.46
	c-2.11,2.75-5.48,4.12-10.11,4.12c-2.72,0-4.97-1.16-6.76-3.48c-0.28-0.39-0.5-0.65-0.64-0.77l0.49-32.16L550.28,324.91z"/>
<path class="st0" d="M588.45,308.77l3.96-0.18l3.96-0.24c-0.57,13.59-0.85,24.92-0.85,33.99c0,2.67,0.07,5.96,0.2,9.87
	c0.13,3.91,0.2,7.22,0.2,9.93c0,4.08-0.1,7.72-0.3,10.9c-3.04,0.82-5.23,1.24-6.55,1.24c-0.85,0-1.57,0.59-2.15,1.77
	c-0.58,1.18-0.87,2.61-0.87,4.3c0,1.69,0.29,3.11,0.87,4.27c0.58,1.16,1.29,1.74,2.15,1.74c1.36,0,3.37-0.36,6.04-1.09
	c2.67-0.73,4.67-1.09,6.01-1.09c1.14,0,2.84-0.05,5.11-0.15c2.27-0.1,3.98-0.15,5.11-0.15c0.85,0,1.57-0.58,2.15-1.74
	c0.58-1.16,0.87-2.6,0.87-4.33c0-1.69-0.29-3.11-0.87-4.27c-0.58-1.16-1.29-1.74-2.15-1.74l-9.59,0.24
	c0.14-3.02,0.21-6.38,0.21-10.07c0-2.75-0.04-6.14-0.12-10.19c-0.08-4.05-0.12-7.44-0.12-10.19c0-10.41,0.23-21.32,0.7-32.75
	l4.9,1.24c1.97,0.51,3.6,0.77,4.9,0.77c0.79,0,1.49-0.45,2.1-1.35c0.69-1.1,1.04-2.57,1.04-4.42c0-3.69-0.9-5.79-2.71-6.3
	c-6.09-1.69-11.15-2.53-15.19-2.53c-4.51,0-7.58,0.16-9.22,0.47c-1.91,0.35-2.86,2.36-2.86,6.01c0,1.77,0.29,3.22,0.88,4.36
	C586.85,308.2,587.58,308.77,588.45,308.77z"/>
<path class="st0" d="M621.18,380.22c0,1.73,0.29,3.17,0.87,4.33c0.58,1.16,1.3,1.74,2.18,1.74c0.87,0,1.6-0.58,2.18-1.74
	c0.58-1.16,0.87-2.6,0.87-4.33l-0.15-11.6l-0.24-11.55c8.22,4.44,15.69,13.08,22.41,25.92c0.67,1.26,1.39,1.89,2.16,1.89
	c0.83,0,1.56-0.61,2.18-1.83c0.62-1.22,0.93-2.65,0.93-4.3c0-1.41-0.26-2.75-0.79-4.01c-3.13-7.26-7.84-14.17-14.16-20.73
	c3.37-1.92,6.18-4.73,8.43-8.42c2.8-4.59,4.2-9.88,4.2-15.85c0-12.17-4.11-22.48-12.33-30.92c-1.91-1.96-4.25-3.28-7.03-3.95
	l-7.34-1.12c-1.36-0.2-2.42,0.75-3.2,2.83c-0.65,1.69-0.97,3.65-0.97,5.89c0,2,0.1,4.97,0.29,8.89c0.19,3.93,0.29,6.89,0.29,8.89
	c0,3.57-0.2,8.93-0.61,16.08c-0.41,7.15-0.61,12.53-0.61,16.14c0,3.1,0.08,7.73,0.23,13.87
	C621.1,372.49,621.18,377.11,621.18,380.22z M627.85,313.42l-0.3-7.13l4.51,0.71c3.23,0.67,6.31,3.16,9.25,7.48
	c3.21,4.71,4.81,9.8,4.81,15.25c0,1.53-0.54,3.4-1.61,5.6c-0.97,1.96-2.03,3.55-3.17,4.77c-2.58,2.67-6.45,4-11.63,4
	c-0.3,0-0.76-0.02-1.35-0.06c-0.6-0.04-1.04-0.06-1.32-0.06l0.64-11.72c0.26-4.67,0.4-8.58,0.4-11.72
	C628.06,318.7,627.99,316.33,627.85,313.42z"/>
<path class="st0" d="M662.34,306.94c2.54,1.26,6.03,1.88,10.47,1.88l2.77-0.06c0.06,4.79,0.34,12.69,0.82,23.68
	c0.47,10.17,0.7,18.06,0.7,23.68c0,1.96,0.07,4.87,0.2,8.72c0.13,3.85,0.2,6.74,0.2,8.66c0,0.59-0.05,1.47-0.15,2.65
	c-0.1,1.18-0.15,2.06-0.15,2.65c0,1.73,0.32,3.14,0.97,4.24c0.65,1.1,1.38,1.65,2.19,1.65c1.2,0,2.08-1.3,2.65-3.89
	c0.45-1.92,0.67-4.22,0.67-6.89c0-1.41-0.07-3.51-0.21-6.3c-0.14-2.79-0.21-4.87-0.21-6.24c0-6.28-0.22-15.1-0.67-26.45
	c-0.49-12.17-0.76-20.97-0.82-26.39h2.16c1.58-0.04,3.9,0.16,6.94,0.59c3.13,0.47,5.44,0.71,6.94,0.71c0.87,0,1.6-0.58,2.19-1.74
	c0.59-1.16,0.88-2.58,0.88-4.27c0-1.73-0.29-3.17-0.88-4.33c-0.59-1.16-1.32-1.74-2.19-1.74c-1.56,0-3.88-0.22-6.96-0.65
	c-3.07-0.43-5.39-0.65-6.96-0.65c-1.22,0-3.06,0.05-5.54,0.15c-2.48,0.1-4.32,0.15-5.54,0.15c-1.26,0-2.9-0.24-4.93-0.71
	c-2.54-0.63-4.16-0.98-4.87-1.06c-0.95-0.12-1.74,0.51-2.34,1.89c-0.53,1.22-0.79,2.63-0.79,4.24
	C659.87,304.17,660.69,306.12,662.34,306.94z"/>
<path class="st0" d="M702.98,361.07c0,12.6,0.97,20.66,2.92,24.15c1.79,3.22,5.82,4.83,12.12,4.83c6.35,0,10.48-0.37,12.39-1.12
	c1.72-0.67,2.59-2.65,2.59-5.95c0-4.08-1.08-6.12-3.23-6.12c-0.39,0-0.97,0.13-1.77,0.38c-0.79,0.26-1.39,0.38-1.8,0.38
	c-1.28,0-3.18,0.07-5.71,0.21c-2.53,0.14-4.42,0.21-5.68,0.21c-2.7,0-4.29-0.55-4.78-1.65c-0.65-1.53-0.97-6.63-0.97-15.31
	c0-2.16,0.03-4.49,0.08-6.98c0.05-2.49,0.12-5.13,0.2-7.92l14.06-2.47l7.25-1.24c1.87-0.43,2.8-2.43,2.8-6.01
	c0-1.85-0.3-3.32-0.91-4.42c-0.61-1.1-1.36-1.65-2.25-1.65c-0.89,0-3.3,0.39-7.22,1.18l-13.33,2.47c0.34-9.54,0.52-17.04,0.52-22.5
	c0-1.53-0.09-3.57-0.27-6.12c2.27-1.22,4.39-2.12,6.36-2.71c1.97-0.59,3.78-0.88,5.45-0.88c3.19,0,6.49,0.94,9.92,2.83
	c0.34,0.2,0.66,0.29,0.94,0.29c0.87,0,1.6-0.67,2.19-2c0.53-1.22,0.79-2.61,0.79-4.18c0-2.71-0.68-4.6-2.04-5.66
	c-2.94-2.28-6.88-3.42-11.81-3.42c-1.91,0-3.94,0.31-6.1,0.94c-2.16,0.63-4.46,1.57-6.9,2.83c-0.61-1.14-1.34-1.71-2.19-1.71
	c-2.03,0-3.04,2.34-3.04,7.01c0,1.45,0.1,3.58,0.3,6.39c0.2,2.81,0.3,4.94,0.3,6.39c0,5.42-0.2,13.8-0.61,25.15
	c-0.39,1.06-0.58,2.26-0.58,3.59c0,1.02,0.11,1.98,0.34,2.89c-0.1,3.46-0.18,6.68-0.24,9.66
	C703.01,355.81,702.98,358.56,702.98,361.07z"/>
<g>
	<path class="st1" d="M266.05,599.52c1.22,1.57,2.71,2.81,4.48,3.7c1.76,0.9,3.74,1.35,5.92,1.35c2.25,0,4.25-0.45,6.02-1.35
		c1.76-0.9,3.25-2.13,4.47-3.7c1.22-1.57,2.15-3.43,2.79-5.58c0.64-2.15,0.96-4.48,0.96-6.98c0-2.56-0.34-4.94-1.01-7.12
		c-0.67-2.18-1.62-4.07-2.84-5.68c-1.22-1.6-2.71-2.85-4.48-3.75c-1.77-0.9-3.74-1.35-5.92-1.35c-2.18,0-4.15,0.45-5.92,1.35
		c-1.77,0.9-3.26,2.15-4.48,3.75c-1.22,1.6-2.17,3.5-2.84,5.68c-0.67,2.18-1.01,4.56-1.01,7.12c0,2.5,0.34,4.83,1.01,6.98
		C263.88,596.09,264.83,597.95,266.05,599.52z"/>
	<path class="st1" d="M665.08,572.96c-1.7-1.31-3.71-2.25-6.02-2.79c-2.31-0.54-4.81-0.82-7.51-0.82c-2.31,0-3.98,0.1-5,0.29v34.55
		c0.51,0.06,0.99,0.1,1.44,0.1c0.45,0,0.93,0,1.44,0c3.08,0.06,5.9-0.26,8.47-0.96c2.56-0.71,4.79-1.81,6.69-3.32
		c1.89-1.51,3.37-3.43,4.43-5.77c1.06-2.34,1.59-5.12,1.59-8.32c0-3.08-0.5-5.68-1.49-7.8
		C668.13,575.99,666.78,574.28,665.08,572.96z"/>
	<path class="st1" d="M423.39,583.11c3.08,0,5.61-0.66,7.6-1.97c1.99-1.31,2.98-3.19,2.98-5.63c0-1.99-0.77-3.56-2.31-4.72
		s-3.88-1.73-7.02-1.73c-1.09,0-2.02,0-2.79,0c-0.77,0-1.41,0.06-1.92,0.19v13.76c0.51,0.06,0.99,0.1,1.44,0.1
		C421.88,583.11,422.55,583.11,423.39,583.11z"/>
	<path class="st1" d="M128.82,584.12c-0.45-1.64-0.93-3.22-1.44-4.76c-0.32-1.03-0.69-2.12-1.11-3.27
		c-0.42-1.15-0.79-2.28-1.11-3.37l0.1,0.1c-0.13-0.45-0.21-0.72-0.24-0.82c-0.03-0.1-0.02-0.14,0.05-0.14
		c-0.06-0.19-0.16-0.45-0.29-0.77c-0.06,0.32-0.14,0.71-0.24,1.15c-0.1,0.45-0.18,0.83-0.24,1.15c-0.26,1.09-0.51,2.13-0.77,3.13
		s-0.55,1.94-0.87,2.84h0.1c-0.45,1.86-0.87,3.46-1.25,4.81c-0.38,1.35-0.83,2.95-1.35,4.81h10.1
		C129.74,587.38,129.26,585.76,128.82,584.12z"/>
	<path class="st0" d="M93.69,619.3h18.48c0.64,0,1.02-0.29,1.15-0.87c0.58-2.37,1.2-4.76,1.88-7.17c0.67-2.41,1.3-4.83,1.88-7.27
		h16.36l4.52,14.44c0.06,0.26,0.21,0.47,0.43,0.63c0.22,0.16,0.43,0.24,0.63,0.24h19.54c0.45,0,0.77-0.16,0.96-0.48
		c0.19-0.32,0.22-0.64,0.1-0.96l-21.07-62.75c-0.13-0.51-0.48-0.77-1.06-0.77h-23.96c-0.58,0-0.93,0.26-1.06,0.77l-19.82,62.75
		c-0.13,0.32-0.1,0.64,0.1,0.96C92.92,619.14,93.24,619.3,93.69,619.3z M121.5,584.17c0.39-1.35,0.8-2.95,1.25-4.81h-0.1
		c0.32-0.9,0.61-1.84,0.87-2.84s0.51-2.04,0.77-3.13c0.06-0.32,0.14-0.71,0.24-1.15c0.1-0.45,0.18-0.83,0.24-1.15
		c0.13,0.32,0.22,0.58,0.29,0.77c-0.06,0-0.08,0.05-0.05,0.14c0.03,0.1,0.11,0.37,0.24,0.82l-0.1-0.1c0.32,1.09,0.69,2.21,1.11,3.37
		c0.42,1.15,0.79,2.25,1.11,3.27c0.51,1.54,0.99,3.13,1.44,4.76c0.45,1.64,0.93,3.26,1.44,4.86h-10.1
		C120.67,587.12,121.12,585.52,121.5,584.17z"/>
	<path class="st0" d="M189.54,619.3h44.65c0.77,0,1.15-0.39,1.15-1.15v-14.63c0-0.77-0.39-1.15-1.15-1.15h-25.98v-46.87
		c0-0.77-0.35-1.15-1.06-1.15h-17.61c-0.77,0-1.16,0.38-1.16,1.15v62.65C188.38,618.91,188.77,619.3,189.54,619.3z"/>
	<path class="st0" d="M250.55,610.93c2.95,2.95,6.56,5.28,10.83,6.98c4.27,1.7,9.06,2.55,14.39,2.55c5.52,0,10.49-0.85,14.92-2.55
		c4.43-1.7,8.19-4.06,11.31-7.07c3.11-3.02,5.5-6.59,7.17-10.73c1.67-4.14,2.5-8.68,2.5-13.62c0-4.81-0.79-9.24-2.36-13.28
		c-1.57-4.04-3.85-7.54-6.83-10.49c-2.98-2.95-6.64-5.26-10.97-6.93c-4.33-1.67-9.22-2.5-14.68-2.5c-5.33,0-10.17,0.85-14.53,2.55
		c-4.36,1.7-8.08,4.06-11.16,7.07c-3.08,3.02-5.47,6.61-7.17,10.78c-1.7,4.17-2.55,8.73-2.55,13.67c0,4.68,0.79,9.05,2.36,13.09
		C245.34,604.48,247.6,607.98,250.55,610.93z M263.21,579.84c0.67-2.18,1.62-4.07,2.84-5.68c1.22-1.6,2.71-2.85,4.48-3.75
		c1.76-0.9,3.74-1.35,5.92-1.35c2.18,0,4.15,0.45,5.92,1.35c1.76,0.9,3.25,2.15,4.48,3.75c1.22,1.6,2.17,3.5,2.84,5.68
		c0.67,2.18,1.01,4.56,1.01,7.12c0,2.5-0.32,4.83-0.96,6.98c-0.64,2.15-1.57,4.01-2.79,5.58c-1.22,1.57-2.71,2.81-4.47,3.7
		c-1.77,0.9-3.77,1.35-6.02,1.35c-2.18,0-4.15-0.45-5.92-1.35c-1.77-0.9-3.26-2.13-4.48-3.7c-1.22-1.57-2.17-3.43-2.84-5.58
		c-0.67-2.15-1.01-4.48-1.01-6.98C262.2,584.4,262.53,582.02,263.21,579.84z"/>
	<path class="st0" d="M342.36,603.9c-3.53,0-6.83-0.45-9.91-1.35c-3.08-0.9-5.65-1.86-7.7-2.89c-0.32-0.19-0.62-0.21-0.91-0.05
		c-0.29,0.16-0.5,0.43-0.63,0.82l-3.66,14.34c-0.06,0.19-0.03,0.42,0.1,0.67c0.13,0.26,0.32,0.45,0.58,0.58
		c1.02,0.51,2.28,1.03,3.75,1.54c1.48,0.51,3.13,0.99,4.96,1.44c1.83,0.45,3.77,0.8,5.82,1.06c2.05,0.26,4.14,0.39,6.25,0.39
		c5.2,0,9.66-0.59,13.38-1.78c3.72-1.19,6.77-2.77,9.14-4.76c2.37-1.99,4.12-4.27,5.25-6.83c1.12-2.56,1.68-5.23,1.68-7.99
		c0-5-1.52-9.14-4.57-12.41c-3.05-3.27-7.75-5.9-14.1-7.89c-3.91-1.22-6.8-2.2-8.66-2.94c-1.86-0.74-2.79-1.75-2.79-3.03
		c0-1.09,0.61-1.91,1.83-2.45c1.22-0.54,2.95-0.82,5.2-0.82c3.46,0,6.46,0.37,9,1.11c2.53,0.74,4.54,1.43,6.01,2.07
		c0.77,0.32,1.28,0.07,1.54-0.77l4.04-13.76c0.19-0.64-0.03-1.09-0.67-1.35c-2.44-1.09-5.21-1.96-8.32-2.6
		c-3.11-0.64-6.88-0.96-11.31-0.96c-4.23,0-8.05,0.51-11.45,1.54c-3.4,1.03-6.3,2.47-8.71,4.33c-2.41,1.86-4.25,4.06-5.53,6.59
		c-1.28,2.53-1.93,5.31-1.93,8.32c0,2.82,0.55,5.33,1.64,7.51c1.09,2.18,2.58,4.11,4.48,5.77c1.89,1.67,4.07,3.1,6.54,4.28
		c2.47,1.19,5.05,2.17,7.75,2.94c6.42,1.8,9.62,3.63,9.62,5.48C350.06,602.62,347.49,603.9,342.36,603.9z"/>
	<path class="st0" d="M400.29,556.26v61.88c0,0.77,0.39,1.15,1.15,1.15h17.42c0.71,0,1.06-0.39,1.06-1.15v-19.63
		c0.51,0.06,1.09,0.1,1.73,0.1c0.64,0,1.28,0,1.92,0c4.88,0,9.3-0.59,13.28-1.78c3.98-1.19,7.38-2.97,10.2-5.34
		c2.12-1.86,3.74-4.23,4.86-7.12c1.12-2.89,1.68-5.87,1.68-8.95c0-3.59-0.8-6.82-2.41-9.67c-1.6-2.85-3.53-5.12-5.77-6.78
		c-2.25-1.54-5.1-2.79-8.56-3.75c-3.47-0.96-7.6-1.44-12.41-1.44c-5.65,0-10.31,0.14-14,0.43c-3.69,0.29-6.75,0.63-9.19,1.01
		C400.61,555.33,400.29,555.69,400.29,556.26z M419.93,569.26c0.51-0.13,1.15-0.19,1.92-0.19c0.77,0,1.7,0,2.79,0
		c3.14,0,5.48,0.58,7.02,1.73s2.31,2.73,2.31,4.72c0,2.44-0.99,4.32-2.98,5.63c-1.99,1.32-4.52,1.97-7.6,1.97c-0.83,0-1.51,0-2.02,0
		c-0.45,0-0.93-0.03-1.44-0.1V569.26z"/>
	<path class="st0" d="M462.65,554.34c-0.71,0-1.06,0.38-1.06,1.15v62.65c0,0.77,0.35,1.15,1.06,1.15h17.61
		c0.71,0,1.06-0.39,1.06-1.15v-62.65c0-0.77-0.35-1.15-1.06-1.15H462.65z"/>
	<path class="st0" d="M489.79,555.49v62.65c0,0.77,0.35,1.15,1.06,1.15h46.1c0.71,0,1.06-0.39,1.06-1.15V604
		c0-0.71-0.35-1.06-1.06-1.06h-27.33v-8.47h24.35c0.71,0,1.06-0.39,1.06-1.15v-14.15c0-0.71-0.35-1.06-1.06-1.06h-24.35v-7.41h25.89
		c0.77,0,1.15-0.35,1.15-1.06v-14.15c0-0.77-0.39-1.15-1.15-1.15h-44.65C490.14,554.34,489.79,554.72,489.79,555.49z"/>
	<path class="st0" d="M568.51,603.9c-3.53,0-6.83-0.45-9.91-1.35c-3.08-0.9-5.65-1.86-7.7-2.89c-0.32-0.19-0.62-0.21-0.91-0.05
		c-0.29,0.16-0.5,0.43-0.63,0.82l-3.66,14.34c-0.06,0.19-0.03,0.42,0.1,0.67c0.13,0.26,0.32,0.45,0.58,0.58
		c1.02,0.51,2.28,1.03,3.75,1.54c1.48,0.51,3.13,0.99,4.96,1.44c1.83,0.45,3.77,0.8,5.82,1.06c2.05,0.26,4.14,0.39,6.25,0.39
		c5.2,0,9.66-0.59,13.38-1.78c3.72-1.19,6.77-2.77,9.14-4.76c2.37-1.99,4.12-4.27,5.25-6.83c1.12-2.56,1.68-5.23,1.68-7.99
		c0-5-1.52-9.14-4.57-12.41c-3.05-3.27-7.75-5.9-14.1-7.89c-3.91-1.22-6.8-2.2-8.66-2.94c-1.86-0.74-2.79-1.75-2.79-3.03
		c0-1.09,0.61-1.91,1.83-2.45c1.22-0.54,2.95-0.82,5.2-0.82c3.46,0,6.46,0.37,9,1.11c2.53,0.74,4.54,1.43,6.01,2.07
		c0.77,0.32,1.28,0.07,1.54-0.77l4.04-13.76c0.19-0.64-0.03-1.09-0.67-1.35c-2.44-1.09-5.21-1.96-8.32-2.6
		c-3.11-0.64-6.88-0.96-11.31-0.96c-4.23,0-8.05,0.51-11.45,1.54c-3.4,1.03-6.3,2.47-8.71,4.33c-2.41,1.86-4.25,4.06-5.53,6.59
		c-1.28,2.53-1.93,5.31-1.93,8.32c0,2.82,0.55,5.33,1.64,7.51c1.09,2.18,2.58,4.11,4.48,5.77c1.89,1.67,4.07,3.1,6.54,4.28
		c2.47,1.19,5.05,2.17,7.75,2.94c6.42,1.8,9.62,3.63,9.62,5.48C576.21,602.62,573.64,603.9,568.51,603.9z"/>
	<path class="st0" d="M678.6,559.92c-1.73-1.09-3.58-2.04-5.53-2.84c-1.96-0.8-4.09-1.44-6.4-1.92c-2.31-0.48-4.86-0.83-7.65-1.06
		c-2.79-0.22-5.86-0.34-9.19-0.34c-4.11,0-8.07,0.11-11.89,0.34c-3.82,0.23-7.27,0.59-10.35,1.11c-0.58,0.13-0.87,0.48-0.87,1.06
		v61.59c0,0.58,0.29,0.93,0.87,1.06c1.73,0.32,4.1,0.59,7.12,0.82c3.02,0.22,6.93,0.34,11.74,0.34c6.67,0,12.9-0.69,18.67-2.07
		c5.77-1.38,10.62-3.54,14.53-6.5c1.54-1.22,3.03-2.66,4.48-4.33c1.44-1.67,2.73-3.61,3.85-5.82c1.12-2.21,2-4.68,2.65-7.41
		c0.64-2.73,0.96-5.73,0.96-9c0-5.97-1.2-11.02-3.61-15.16C685.58,565.65,682.45,562.36,678.6,559.92z M669.03,594.23
		c-1.06,2.34-2.53,4.27-4.43,5.77c-1.89,1.51-4.12,2.62-6.69,3.32c-2.57,0.71-5.39,1.03-8.47,0.96c-0.51,0-0.99,0-1.44,0
		c-0.45,0-0.93-0.03-1.44-0.1v-34.55c1.03-0.19,2.69-0.29,5-0.29c2.69,0,5.2,0.27,7.51,0.82c2.31,0.55,4.31,1.48,6.02,2.79
		c1.7,1.32,3.05,3.03,4.04,5.15c0.99,2.12,1.49,4.72,1.49,7.8C670.62,589.11,670.09,591.89,669.03,594.23z"/>
	<path class="st0" d="M701.12,555.49v62.65c0,0.77,0.35,1.15,1.06,1.15h46.1c0.71,0,1.06-0.39,1.06-1.15V604
		c0-0.71-0.35-1.06-1.06-1.06h-27.33v-8.47h24.35c0.71,0,1.06-0.39,1.06-1.15v-14.15c0-0.71-0.35-1.06-1.06-1.06h-24.35v-7.41h25.89
		c0.77,0,1.15-0.35,1.15-1.06v-14.15c0-0.77-0.39-1.15-1.15-1.15h-44.65C701.47,554.34,701.12,554.72,701.12,555.49z"/>
</g>
<g>
	<path class="st2" d="M199.49,781.8c0,10.61-5.06,15.99-13.05,15.99c-7.02,0-12.24-3.92-17.79-10.61l-20.4,19.25
		c7.99,10.93,20.23,19.25,40.14,19.25c13.05,0,23.82-4.08,31.33-11.59c7.67-7.67,11.26-17.79,11.26-32.14v-72.45h-31.49V781.8z"/>
	<polygon class="st2" points="281.06,778.7 335.89,778.7 335.89,753.74 281.06,753.74 281.06,736.44 341.6,736.44 341.6,709.52 
		249.74,709.52 249.74,823.74 342.41,823.74 342.41,796.81 281.06,796.81 	"/>
	<path class="st2" d="M407.01,752.6c-15.83-3.59-19.74-5.87-19.74-11.09v-0.33c0-4.08,3.75-7.34,11.42-7.34
		c10.12,0,21.54,3.92,31.98,11.26l15.83-22.36c-12.4-9.95-27.58-15.17-46.99-15.17c-27.41,0-44.22,15.34-44.22,36.55v0.33
		c0,23.5,18.76,30.35,43.08,35.9c15.5,3.59,19.25,6.2,19.25,10.93v0.33c0,4.89-4.57,7.83-13.05,7.83
		c-13.22,0-25.78-4.73-37.04-13.71l-17.62,21.05c14.03,12.56,33.29,18.93,53.52,18.93c27.74,0,46.18-13.87,46.18-37.2v-0.33
		C449.6,766.79,433.28,758.31,407.01,752.6z"/>
	<path class="st2" d="M537.69,773.81c0,15.99-8.32,23.5-21.05,23.5c-12.73,0-21.05-7.83-21.05-24.31v-63.47h-32.15v64.12
		c0,35.73,20.4,52.21,52.87,52.21c32.47,0,53.52-16.15,53.52-53.03v-63.31h-32.15V773.81z"/>
	<polygon class="st2" points="549.77,681.78 520.89,672.48 503.92,702.67 525.78,702.67 	"/>
	<path class="st2" d="M637.05,752.6c-15.83-3.59-19.74-5.87-19.74-11.09v-0.33c0-4.08,3.75-7.34,11.42-7.34
		c10.12,0,21.54,3.92,31.98,11.26l15.83-22.36c-12.4-9.95-27.58-15.17-46.99-15.17c-27.41,0-44.22,15.34-44.22,36.55v0.33
		c0,23.5,18.76,30.35,43.08,35.9c15.5,3.59,19.25,6.2,19.25,10.93v0.33c0,4.89-4.57,7.83-13.05,7.83
		c-13.22,0-25.78-4.73-37.04-13.71l-17.62,21.05c14.03,12.56,33.29,18.93,53.52,18.93c27.74,0,46.18-13.87,46.18-37.2v-0.33
		C679.63,766.79,663.31,758.31,637.05,752.6z"/>
</g>
<g>
	<path class="st1" d="M515.96,447.9h7.71c5,0,7.43-1.1,7.29-3.29c-0.14-2.48-1.75-3.71-4.84-3.71
		C521.83,440.89,518.44,443.23,515.96,447.9z"/>
	<path class="st1" d="M575.27,466.27h1.75c3.83,0,6.38-1.56,7.64-4.7l4.91-12.13c0.65-1.59,0.98-2.92,0.98-4
		c0-1.26-0.62-2.36-1.86-3.29c-1.24-0.93-2.72-1.4-4.45-1.4c-3.41,0-6.73,1.99-9.95,5.96c-3.23,3.97-4.84,8.09-4.84,12.34
		C569.45,463.86,571.39,466.27,575.27,466.27z"/>
	<path class="st1" d="M372.89,447.9h7.71c5,0,7.43-1.1,7.29-3.29c-0.14-2.48-1.75-3.71-4.84-3.71
		C378.75,440.89,375.37,443.23,372.89,447.9z"/>
	<path class="st1" d="M256.1,462.69l4.84-11.99c0.51-1.31,0.77-2.59,0.77-3.86c0-1.4-0.64-2.58-1.93-3.54
		c-1.29-0.96-2.86-1.44-4.73-1.44c-3.18,0-6.19,1.82-9.04,5.47c-2.85,3.65-4.28,7.5-4.28,11.57c0,4.58,2.43,6.87,7.29,6.87
		c1.45,0,2.91-0.33,4.38-0.98C254.88,464.15,255.78,463.44,256.1,462.69z"/>
	<path class="st0" d="M236.34,527.61c1.96,1.59,4.53,2.38,7.71,2.38h12.97c3.78,0,6.72-0.78,8.8-2.35c2.08-1.57,3.12-3.78,3.12-6.62
		c0-4.21-2.97-6.31-8.9-6.31h-7.71l22.99-56.78c1.82-4.44,2.73-8.29,2.73-11.57c0-5.84-2.02-10.6-6.06-14.26
		c-4.04-3.67-9.26-5.5-15.67-5.5c-7.62,0-14.23,2.66-19.84,7.99c-3.46,3.32-6.3,7.57-8.52,12.76c-2.22,5.19-3.33,10.23-3.33,15.14
		c0,5.33,1.55,9.78,4.66,13.35c3.11,3.57,7,5.36,11.67,5.36c3.37,0,6.31-1,8.83-3.01l-14.44,35.54c-1.31,3.22-1.96,5.77-1.96,7.64
		C233.39,523.94,234.37,526.02,236.34,527.61z M249.02,465.78c-4.86,0-7.29-2.29-7.29-6.87c0-4.07,1.43-7.92,4.28-11.57
		c2.85-3.65,5.86-5.47,9.04-5.47c1.87,0,3.45,0.48,4.73,1.44c1.29,0.96,1.93,2.14,1.93,3.54c0,1.26-0.26,2.55-0.77,3.86l-4.84,11.99
		c-0.33,0.75-1.23,1.45-2.7,2.1C251.93,465.45,250.47,465.78,249.02,465.78z"/>
	<path class="st0" d="M297.95,481.2h10.23c3.88,0,7.1-1.52,9.67-4.56c1.31,3.04,3.93,4.56,7.85,4.56h12.55
		c3.74,0,6.65-0.81,8.73-2.42s3.12-3.84,3.12-6.69c0-2.2-0.68-3.77-2.03-4.73c-1.36-0.96-3.65-1.44-6.87-1.44h-8.13l10.16-24.96
		c1.22-3.04,1.82-5.28,1.82-6.73c0-1.82-0.7-3.39-2.1-4.7c-1.4-1.31-3.08-1.96-5.05-1.96c-4.77,0-8.46,3.27-11.08,9.81l-8.76,21.59
		c-1.92,4.67-5.77,7.01-11.57,7.01c-2.8,0-4.16-1.05-4.06-3.15c0.04-0.61,0.28-1.52,0.7-2.73l0.77-2.1l7.36-18.02l0.77-1.89
		c0.75-1.82,1.12-3.43,1.12-4.84c0-1.87-0.7-3.45-2.1-4.73c-1.4-1.28-3.11-1.93-5.12-1.93c-4.63,0-8.27,3.25-10.94,9.75l-9.53,23.41
		c-1.22,2.99-1.82,5.61-1.82,7.85c0,3.93,1.35,7.18,4.07,9.75C290.43,479.92,293.84,481.2,297.95,481.2z"/>
	<path class="st0" d="M361.92,436.41c-6.1,6.54-9.15,14.33-9.15,23.34c0,7.01,1.93,12.34,5.78,15.98s9.47,5.47,16.86,5.47h19.84
		c3.74,0,6.65-0.79,8.73-2.38c2.08-1.59,3.12-3.81,3.12-6.66c0-4.16-2.94-6.24-8.83-6.24h-20.82c-5.28,0-7.92-1.75-7.92-5.26h14.02
		c5.65,0,9.91-0.86,12.76-2.6c5.14-3.04,7.71-7.71,7.71-14.02c0-5.23-1.86-9.45-5.57-12.65c-3.72-3.2-8.64-4.8-14.76-4.8
		C375.27,426.59,368.02,429.87,361.92,436.41z M387.89,444.61c0.14,2.2-2.29,3.29-7.29,3.29h-7.71c2.48-4.67,5.86-7.01,10.16-7.01
		C386.14,440.89,387.75,442.13,387.89,444.61z"/>
	<path class="st0" d="M453.75,454.88c1.52,1.33,3.24,2,5.15,2c3.78,0,6.7-2.31,8.76-6.94l1.33-3.22l3.08,6.03
		c1.22,2.34,1.82,4.37,1.82,6.1c0,4.72-3.25,7.08-9.74,7.08h-8.13c-3.69,0-6.59,0.81-8.69,2.42c-2.1,1.61-3.16,3.85-3.16,6.7
		c0,4.11,2.97,6.17,8.9,6.17h14.65c6.54,0,12.01-1.97,16.4-5.92c4.39-3.95,6.59-8.87,6.59-14.76c0-5.28-2.03-10.75-6.1-16.4l-4-5.54
		c-2.2-3.09-3.29-6.1-3.29-9.04c0-0.79,0.09-1.71,0.28-2.73c0.28-1.4,0.42-2.31,0.42-2.73c0-1.63-0.65-3.05-1.96-4.24
		s-2.87-1.79-4.7-1.79c-3.41,0-6.26,2.27-8.55,6.8l-9.32,18.93c-1.36,2.71-2.03,4.88-2.03,6.52
		C451.47,452.02,452.23,453.55,453.75,454.88z"/>
	<path class="st0" d="M505,436.41c-6.1,6.54-9.15,14.33-9.15,23.34c0,7.01,1.93,12.34,5.78,15.98s9.47,5.47,16.86,5.47h19.84
		c3.74,0,6.65-0.79,8.73-2.38c2.08-1.59,3.12-3.81,3.12-6.66c0-4.16-2.94-6.24-8.83-6.24h-20.82c-5.28,0-7.92-1.75-7.92-5.26h14.02
		c5.65,0,9.91-0.86,12.76-2.6c5.14-3.04,7.71-7.71,7.71-14.02c0-5.23-1.86-9.45-5.57-12.65c-3.72-3.2-8.64-4.8-14.76-4.8
		C518.35,426.59,511.09,429.87,505,436.41z M530.97,444.61c0.14,2.2-2.29,3.29-7.29,3.29h-7.71c2.48-4.67,5.86-7.01,10.16-7.01
		C529.21,440.89,530.83,442.13,530.97,444.61z"/>
	<path class="st0" d="M562.2,437.21c-6.19,7.08-9.29,15.11-9.29,24.08c0,5.93,1.58,10.74,4.73,14.41c3.16,3.67,7.3,5.5,12.44,5.5
		h7.99c3.27,0,6.66-1.57,10.16-4.7c1.45,3.13,4.18,4.7,8.2,4.7h8.97c3.69,0,6.59-0.81,8.69-2.42c2.1-1.61,3.16-3.84,3.16-6.69
		c0-4.11-2.94-6.17-8.83-6.17h-7.71l10.09-24.96l0.77-1.89c0.75-1.82,1.12-3.39,1.12-4.7c0-1.92-0.69-3.53-2.07-4.84
		c-1.38-1.31-3.1-1.96-5.15-1.96c-3.79,0-6.85,1.75-9.18,5.26c-2.76-4.16-7.13-6.24-13.11-6.24
		C575.39,426.59,568.39,430.13,562.2,437.21z M574.29,446.71c3.22-3.97,6.54-5.96,9.95-5.96c1.73,0,3.21,0.47,4.45,1.4
		c1.24,0.93,1.86,2.03,1.86,3.29c0,1.08-0.33,2.41-0.98,4l-4.91,12.13c-1.26,3.13-3.81,4.7-7.64,4.7h-1.75
		c-3.88,0-5.82-2.41-5.82-7.22C569.45,454.8,571.06,450.68,574.29,446.71z"/>
	<path class="st0" d="M210.23,446.12c2.04,0,3.7-1.66,3.7-3.7v-9.48c0-2.04-1.66-3.7-3.7-3.7H139.5c-2.04,0-3.7,1.66-3.7,3.7v9.48
		c0,2.04,1.66,3.7,3.7,3.7H210.23z"/>
	<path class="st0" d="M112.25,470.93v9.48c0,2.04,1.66,3.7,3.7,3.7h70.73c2.04,0,3.7-1.66,3.7-3.7v-9.48c0-2.04-1.66-3.7-3.7-3.7
		h-70.73C113.9,467.23,112.25,468.88,112.25,470.93z"/>
	<path class="st0" d="M627.96,432.94v9.48c0,2.04,1.66,3.7,3.7,3.7h70.73c2.04,0,3.7-1.66,3.7-3.7v-9.48c0-2.04-1.66-3.7-3.7-3.7
		h-70.73C629.62,429.24,627.96,430.89,627.96,432.94z"/>
	<path class="st0" d="M729.64,480.41v-9.48c0-2.04-1.66-3.7-3.7-3.7h-70.73c-2.04,0-3.7,1.66-3.7,3.7v9.48c0,2.04,1.66,3.7,3.7,3.7
		h70.73C727.99,484.11,729.64,482.45,729.64,480.41z"/>
</g>
</svg>
