<?xml version="1.0" encoding="utf-8"?>
<!-- Generator: Adobe Illustrator 25.3.0, SVG Export Plug-In . SVG Version: 6.00 Build 0)  -->
<svg version="1.1" id="Layer_1" xmlns="http://www.w3.org/2000/svg" xmlns:xlink="http://www.w3.org/1999/xlink" x="0px" y="0px"
	 viewBox="0 0 841.89 1190.55" style="enable-background:new 0 0 841.89 1190.55;" xml:space="preserve">
<style type="text/css">
	.st0{fill:#F38F1A;}
	.st1{fill:none;}
	.st2{fill:#FFFFFF;}
</style>
<rect width="841.89" height="1190.55"/>
<polygon class="st0" points="745.71,755.6 773.41,855.49 58.06,855.49 85.74,755.6 58.06,655.71 773.41,655.71 "/>
<path class="st2" d="M106.79,383.45c3.08,2.75,6.48,4.12,10.2,4.12c5.11,0,9.61-2.41,13.49-7.25c4.46-5.58,6.7-13.04,6.7-22.38
	c0-6.56-1.2-12.11-3.59-16.67c-2.62-4.99-6.25-7.81-10.9-8.48c-3.21-0.43-5.37-0.9-6.48-1.41c-3-1.33-4.51-3.63-4.51-6.89
	c0-4.32,1.14-7.99,3.41-11.01c2.21-2.94,4.9-4.46,8.07-4.53c1.12-0.04,2.69,0.36,4.72,1.21c2.03,0.85,3.45,1.27,4.26,1.27
	c1.83,0,2.74-1.73,2.74-5.18c0-2.63-1.64-4.79-4.93-6.48c-2.48-1.3-4.7-1.94-6.67-1.94c-4.18,0-8.23,2.73-12.15,8.19
	c-4.1,5.77-6.15,12.15-6.15,19.14c0,5.93,1.44,10.48,4.32,13.67c2.25,2.47,4.98,3.83,8.19,4.06c3.61,0.2,6.65,1.53,9.1,4
	c2.9,2.87,4.35,6.77,4.35,11.72c0,6.01-1.73,10.7-5.18,14.08c-2.7,2.63-5.62,3.95-8.77,3.95c-3.29,0-5.79-1.1-7.52-3.3
	c-0.81-1.06-1.74-3.08-2.77-6.07c-0.75-2.2-1.62-3.3-2.62-3.3c-0.87,0-1.61,0.52-2.21,1.56c-0.6,1.04-0.89,2.39-0.87,4.03
	C101.1,375.44,103.02,380.08,106.79,383.45z"/>
<path class="st2" d="M145.55,308.77l3.96-0.18l3.96-0.24c-0.57,13.59-0.85,24.92-0.85,33.99c0,2.67,0.07,5.96,0.2,9.87
	c0.13,3.91,0.2,7.22,0.2,9.93c0,4.08-0.1,7.72-0.3,10.9c-3.04,0.82-5.23,1.24-6.54,1.24c-0.85,0-1.57,0.59-2.15,1.77
	c-0.58,1.18-0.87,2.61-0.87,4.3c0,1.69,0.29,3.11,0.87,4.27c0.58,1.16,1.29,1.74,2.15,1.74c1.36,0,3.37-0.36,6.04-1.09
	c2.67-0.73,4.67-1.09,6.01-1.09c1.14,0,2.84-0.05,5.11-0.15c2.27-0.1,3.98-0.15,5.11-0.15c0.85,0,1.57-0.58,2.15-1.74
	c0.58-1.16,0.87-2.6,0.87-4.33c0-1.69-0.29-3.11-0.87-4.27c-0.58-1.16-1.29-1.74-2.15-1.74l-9.59,0.24
	c0.14-3.02,0.21-6.38,0.21-10.07c0-2.75-0.04-6.14-0.12-10.19c-0.08-4.05-0.12-7.44-0.12-10.19c0-10.41,0.23-21.32,0.7-32.75
	l4.9,1.24c1.97,0.51,3.6,0.77,4.9,0.77c0.79,0,1.49-0.45,2.1-1.35c0.69-1.1,1.04-2.57,1.04-4.42c0-3.69-0.9-5.79-2.71-6.3
	c-6.09-1.69-11.15-2.53-15.19-2.53c-4.51,0-7.58,0.16-9.22,0.47c-1.91,0.35-2.86,2.36-2.86,6.01c0,1.77,0.29,3.22,0.88,4.36
	C143.94,308.2,144.67,308.77,145.55,308.77z"/>
<path class="st2" d="M201.5,332.8c3,22.42,5.73,39.6,8.19,51.54c0.63,3.06,1.72,4.59,3.29,4.59c1.18,0,2.09-1.18,2.74-3.53
	c1.28-4.79,2.39-9.7,3.35-14.73l8.19-42.82l2.31-12.9c0.79-4,1.82-7.83,3.07-11.49c0.41-1.18,0.61-2.36,0.61-3.54
	c0-1.69-0.32-3.13-0.96-4.33c-0.64-1.2-1.37-1.8-2.18-1.8c-0.91,0-1.7,0.79-2.37,2.36c-1.3,2.99-2.53,7.38-3.68,13.19l-2.59,14.43
	l-8.16,42.76l-0.18,0.94c-1.85-10.56-3.74-23.15-5.69-37.76l-2.92-20.03l-1.13-10.25c-0.45-3.22-1.44-4.83-2.98-4.83
	c-0.83,0-1.54,0.53-2.13,1.59c-0.65,1.14-0.97,2.59-0.97,4.36c0,2.51,0.6,7.85,1.8,16.02L201.5,332.8z"/>
<path class="st2" d="M273.68,373.68l-1.74-9.31l-4.54-40.94l-1.91-19.79c-0.59-4.32-1.69-6.48-3.29-6.48
	c-1.18,0-4.17,7.44-8.98,22.33c-3.53,10.91-6.46,20.57-8.77,28.98c-1.99,0.9-2.98,2.94-2.98,6.12c0,1.34,0.17,2.52,0.51,3.54
	c-3.06,12.45-4.59,19.61-4.59,21.5c0,1.68,0.32,3.1,0.96,4.24c0.64,1.14,1.36,1.7,2.17,1.7c1.12,0,2-1.09,2.65-3.29
	c2.46-9.9,4.19-17.42,5.21-22.56l8.09-3.24c3.35-1.42,6.06-2.4,8.13-2.95c0.79,8.84,1.45,15.02,1.98,18.56
	c1.38,9.26,3,13.9,4.87,13.9c0.81,0,1.53-0.57,2.16-1.71c0.63-1.14,0.95-2.55,0.95-4.24C274.56,378.98,274.26,376.86,273.68,373.68z
	 M252,345.82l8.71-27.16l2.46,22.74C258.18,343.13,254.46,344.6,252,345.82z"/>
<path class="st2" d="M288.84,383.45c3.08,2.75,6.48,4.12,10.2,4.12c5.11,0,9.61-2.41,13.49-7.25c4.46-5.58,6.7-13.04,6.7-22.38
	c0-6.56-1.2-12.11-3.59-16.67c-2.62-4.99-6.25-7.81-10.9-8.48c-3.21-0.43-5.37-0.9-6.48-1.41c-3-1.33-4.51-3.63-4.51-6.89
	c0-4.32,1.14-7.99,3.41-11.01c2.21-2.94,4.9-4.46,8.07-4.53c1.12-0.04,2.69,0.36,4.72,1.21c2.03,0.85,3.45,1.27,4.26,1.27
	c1.83,0,2.74-1.73,2.74-5.18c0-2.63-1.64-4.79-4.93-6.48c-2.48-1.3-4.7-1.94-6.67-1.94c-4.18,0-8.23,2.73-12.15,8.19
	c-4.1,5.77-6.15,12.15-6.15,19.14c0,5.93,1.44,10.48,4.32,13.67c2.25,2.47,4.98,3.83,8.19,4.06c3.61,0.2,6.65,1.53,9.1,4
	c2.9,2.87,4.35,6.77,4.35,11.72c0,6.01-1.73,10.7-5.18,14.08c-2.7,2.63-5.62,3.95-8.77,3.95c-3.29,0-5.79-1.1-7.52-3.3
	c-0.81-1.06-1.74-3.08-2.77-6.07c-0.75-2.2-1.62-3.3-2.62-3.3c-0.87,0-1.61,0.52-2.21,1.56c-0.6,1.04-0.89,2.39-0.87,4.03
	C283.15,375.44,285.06,380.08,288.84,383.45z"/>
<path class="st2" d="M381.14,373.68l-1.74-9.31l-4.53-40.94l-1.92-19.79c-0.59-4.32-1.69-6.48-3.29-6.48
	c-1.18,0-4.17,7.44-8.98,22.33c-3.53,10.91-6.45,20.57-8.77,28.98c-1.99,0.9-2.98,2.94-2.98,6.12c0,1.34,0.17,2.52,0.52,3.54
	c-3.07,12.45-4.6,19.61-4.6,21.5c0,1.68,0.32,3.1,0.96,4.24s1.36,1.7,2.17,1.7c1.12,0,2-1.09,2.65-3.29
	c2.46-9.9,4.19-17.42,5.21-22.56l8.1-3.24c3.35-1.42,6.05-2.4,8.12-2.95c0.8,8.84,1.46,15.02,1.98,18.56
	c1.38,9.26,3.01,13.9,4.87,13.9c0.82,0,1.54-0.57,2.17-1.71c0.62-1.14,0.94-2.55,0.94-4.24
	C382.02,378.98,381.72,376.86,381.14,373.68z M359.46,345.82l8.71-27.16l2.46,22.74C365.64,343.13,361.92,344.6,359.46,345.82z"/>
<path class="st2" d="M441.69,374.74c-3.13-7.27-7.85-14.18-14.16-20.74c3.37-1.92,6.18-4.73,8.43-8.42c2.8-4.59,4.2-9.88,4.2-15.85
	c0-12.17-4.11-22.48-12.33-30.92c-1.9-1.96-4.25-3.28-7.03-3.95l-7.33-1.11c-1.36-0.2-2.43,0.74-3.2,2.82
	c-0.65,1.69-0.97,3.65-0.97,5.89c0,2.01,0.09,4.97,0.28,8.9c0.2,3.92,0.29,6.89,0.29,8.89c0,3.57-0.2,8.94-0.61,16.08
	c-0.4,7.15-0.6,12.53-0.6,16.14c0,3.1,0.07,7.73,0.22,13.87c0.16,6.15,0.23,10.77,0.23,13.88c0,1.72,0.29,3.17,0.87,4.32
	c0.58,1.16,1.3,1.74,2.18,1.74c0.87,0,1.59-0.58,2.17-1.74c0.58-1.15,0.87-2.6,0.87-4.32l-0.15-11.61l-0.25-11.54
	c8.22,4.43,15.69,13.07,22.41,25.91c0.67,1.26,1.39,1.89,2.16,1.89c0.83,0,1.56-0.61,2.18-1.83c0.62-1.21,0.93-2.65,0.93-4.3
	C442.48,377.33,442.21,375.99,441.69,374.74z M417.64,344.11c-0.31,0-0.76-0.02-1.36-0.06c-0.6-0.04-1.04-0.06-1.32-0.06l0.64-11.72
	c0.26-4.67,0.39-8.58,0.39-11.72c0-1.85-0.07-4.22-0.21-7.13l-0.31-7.13l4.51,0.71c3.23,0.67,6.31,3.16,9.25,7.48
	c3.21,4.71,4.81,9.8,4.81,15.25c0,1.54-0.53,3.4-1.61,5.6c-0.97,1.96-2.03,3.55-3.17,4.77
	C426.69,342.77,422.81,344.11,417.64,344.11z"/>
<path class="st2" d="M448.54,361.07c0,12.6,0.97,20.66,2.92,24.15c1.79,3.22,5.82,4.83,12.12,4.83c6.35,0,10.48-0.37,12.39-1.12
	c1.72-0.67,2.59-2.65,2.59-5.95c0-4.08-1.08-6.12-3.23-6.12c-0.39,0-0.97,0.13-1.77,0.38c-0.79,0.26-1.39,0.38-1.8,0.38
	c-1.28,0-3.18,0.07-5.71,0.21c-2.53,0.14-4.42,0.21-5.68,0.21c-2.7,0-4.29-0.55-4.78-1.65c-0.65-1.53-0.97-6.63-0.97-15.31
	c0-2.16,0.03-4.49,0.08-6.98c0.05-2.49,0.12-5.13,0.2-7.92l14.06-2.47l7.25-1.24c1.87-0.43,2.8-2.43,2.8-6.01
	c0-1.85-0.3-3.32-0.91-4.42c-0.61-1.1-1.36-1.65-2.25-1.65c-0.89,0-3.3,0.39-7.22,1.18l-13.33,2.47c0.34-9.54,0.52-17.04,0.52-22.5
	c0-1.53-0.09-3.57-0.27-6.12c2.27-1.22,4.39-2.12,6.36-2.71c1.97-0.59,3.78-0.88,5.45-0.88c3.19,0,6.49,0.94,9.92,2.83
	c0.34,0.2,0.66,0.29,0.94,0.29c0.87,0,1.6-0.67,2.19-2c0.53-1.22,0.79-2.61,0.79-4.18c0-2.71-0.68-4.6-2.04-5.66
	c-2.94-2.28-6.88-3.42-11.81-3.42c-1.91,0-3.94,0.31-6.1,0.94c-2.16,0.63-4.46,1.57-6.9,2.83c-0.61-1.14-1.34-1.71-2.19-1.71
	c-2.03,0-3.04,2.34-3.04,7.01c0,1.45,0.1,3.58,0.3,6.39c0.2,2.81,0.3,4.94,0.3,6.39c0,5.42-0.2,13.8-0.61,25.15
	c-0.39,1.06-0.58,2.26-0.58,3.59c0,1.02,0.11,1.98,0.34,2.89c-0.1,3.46-0.18,6.68-0.24,9.66
	C448.57,355.81,448.54,358.56,448.54,361.07z"/>
<path class="st2" d="M487.69,322.14c0,2.59,0.03,6.51,0.09,11.75s0.09,9.16,0.09,11.75c0,2.43-0.04,6.08-0.12,10.93
	c-0.08,4.85-0.12,8.49-0.12,10.93c0,1.65-0.07,4.14-0.2,7.48c-0.13,3.34-0.2,5.83-0.2,7.48c0,1.69,0.29,3.14,0.88,4.36
	c0.65,1.37,1.53,2.06,2.65,2.06c2.11,0,3.17-5.28,3.17-15.84c0-3.3-0.04-8.21-0.11-14.73c-0.07-6.52-0.11-11.41-0.11-14.67
	l0.09-13.43l0.15-13.37c10.69,28.51,20.17,50.32,28.43,65.44c1.54,2.83,2.87,4.24,3.99,4.24c1.85,0,2.93-1.98,3.26-5.95
	c0.32-4.4,0.49-7.54,0.49-9.42c0-4.36,0.03-10.87,0.09-19.53c0.06-8.66,0.09-15.17,0.09-19.53c0-25.49-1.77-38.23-5.3-38.23
	c-2.15,0-3.23,2.28-3.23,6.83c0,1.49,0.2,3.57,0.61,6.24c0.47,3.1,0.74,5.16,0.82,6.19c0.69,10.21,1.04,23.93,1.04,41.17l0.09,7.42
	c0.06,3.3,0.06,5.79,0,7.48c-5.74-10.48-11.02-21.48-15.83-32.98c-4.04-9.7-8.58-21.87-13.64-36.52c-1.58-4.55-2.91-6.83-3.99-6.83
	c-1.02,0-1.92,0.75-2.72,2.24c-0.8,1.49-1.2,3.14-1.2,4.95c0,2.47,0.12,6.16,0.36,11.04S487.69,319.66,487.69,322.14z"/>
<path class="st2" d="M567.62,318.96c-4.05-7.9-8.97-13.75-14.73-17.56c-0.49-0.31-2.29-1.94-5.42-4.89
	c-2.76-2.63-4.38-3.94-4.87-3.94c-0.85,0-1.7,0.88-2.56,2.65c-0.85,1.76-1.27,3.45-1.27,5.06c0,4.6,0.04,11.46,0.13,20.59
	c0.09,9.13,0.14,15.99,0.14,20.59c0,4.12-0.1,10.3-0.29,18.52c-0.19,8.23-0.29,14.4-0.29,18.53c0,1.69,0.3,3.12,0.88,4.3
	c0.59,1.17,1.32,1.76,2.2,1.76h0.3c1.16,1.69,2.88,3.07,5.18,4.13c1.9,0.9,3.6,1.35,5.08,1.35c5.88,0,10.4-2.08,13.55-6.24
	c2.82-3.73,5.04-8.68,6.68-14.85c1.63-6.16,2.45-12.6,2.45-19.32C574.78,338.49,572.39,328.26,567.62,318.96z M566.88,363.63
	c-1.17,4.38-2.74,7.87-4.7,10.46c-2.12,2.75-5.48,4.12-10.11,4.12c-2.72,0-4.97-1.16-6.76-3.47c-0.28-0.4-0.5-0.65-0.64-0.77
	l0.49-32.16l-0.09-16.9l-0.15-16.97c7.48,6.4,12.26,10.92,14.33,13.55c6.25,7.89,9.38,17.37,9.38,28.45
	C568.63,354.69,568.05,359.26,566.88,363.63z"/>
<path class="st2" d="M583.25,308.77l3.96-0.18l3.96-0.24c-0.57,13.59-0.85,24.92-0.85,33.99c0,2.67,0.07,5.96,0.2,9.87
	c0.13,3.91,0.2,7.22,0.2,9.93c0,4.08-0.1,7.72-0.3,10.9c-3.04,0.82-5.23,1.24-6.55,1.24c-0.85,0-1.57,0.59-2.15,1.77
	c-0.58,1.18-0.87,2.61-0.87,4.3c0,1.69,0.29,3.11,0.87,4.27c0.58,1.16,1.29,1.74,2.15,1.74c1.36,0,3.37-0.36,6.04-1.09
	c2.67-0.73,4.67-1.09,6.01-1.09c1.14,0,2.84-0.05,5.11-0.15c2.27-0.1,3.98-0.15,5.11-0.15c0.85,0,1.57-0.58,2.15-1.74
	c0.58-1.16,0.87-2.6,0.87-4.33c0-1.69-0.29-3.11-0.87-4.27c-0.58-1.16-1.29-1.74-2.15-1.74l-9.59,0.24
	c0.14-3.02,0.21-6.38,0.21-10.07c0-2.75-0.04-6.14-0.12-10.19c-0.08-4.05-0.12-7.44-0.12-10.19c0-10.41,0.23-21.32,0.7-32.75
	l4.9,1.24c1.97,0.51,3.6,0.77,4.9,0.77c0.79,0,1.49-0.45,2.1-1.35c0.69-1.1,1.04-2.57,1.04-4.42c0-3.69-0.9-5.79-2.71-6.3
	c-6.09-1.69-11.15-2.53-15.19-2.53c-4.51,0-7.58,0.16-9.22,0.47c-1.91,0.35-2.86,2.36-2.86,6.01c0,1.77,0.29,3.22,0.88,4.36
	C581.64,308.2,582.37,308.77,583.25,308.77z"/>
<path class="st2" d="M648.54,374.74c-3.13-7.27-7.84-14.18-14.16-20.74c3.37-1.92,6.18-4.73,8.44-8.42c2.8-4.59,4.2-9.88,4.2-15.85
	c0-12.17-4.11-22.48-12.33-30.92c-1.91-1.96-4.25-3.28-7.03-3.95l-7.34-1.11c-1.36-0.2-2.43,0.74-3.2,2.82
	c-0.65,1.69-0.97,3.65-0.97,5.89c0,2.01,0.1,4.97,0.29,8.9c0.19,3.92,0.29,6.89,0.29,8.89c0,3.57-0.21,8.94-0.61,16.08
	c-0.41,7.15-0.61,12.53-0.61,16.14c0,3.1,0.08,7.73,0.23,13.87c0.15,6.15,0.23,10.77,0.23,13.88c0,1.72,0.29,3.17,0.86,4.32
	c0.58,1.16,1.31,1.74,2.18,1.74c0.87,0,1.6-0.58,2.18-1.74c0.58-1.15,0.87-2.6,0.87-4.32l-0.16-11.61l-0.24-11.54
	c8.22,4.43,15.69,13.07,22.41,25.91c0.66,1.26,1.39,1.89,2.16,1.89c0.83,0,1.55-0.61,2.17-1.83c0.62-1.21,0.93-2.65,0.93-4.3
	C649.33,377.33,649.07,375.99,648.54,374.74z M624.49,344.11c-0.3,0-0.76-0.02-1.35-0.06c-0.6-0.04-1.04-0.06-1.33-0.06l0.64-11.72
	c0.26-4.67,0.4-8.58,0.4-11.72c0-1.85-0.07-4.22-0.22-7.13l-0.3-7.13l4.51,0.71c3.22,0.67,6.31,3.16,9.25,7.48
	c3.21,4.71,4.81,9.8,4.81,15.25c0,1.54-0.54,3.4-1.61,5.6c-0.98,1.96-2.03,3.55-3.17,4.77
	C633.54,342.77,629.67,344.11,624.49,344.11z"/>
<path class="st2" d="M657.13,306.94c2.54,1.26,6.03,1.88,10.47,1.88l2.77-0.06c0.06,4.79,0.34,12.69,0.82,23.68
	c0.47,10.17,0.7,18.06,0.7,23.68c0,1.96,0.07,4.87,0.2,8.72c0.13,3.85,0.2,6.74,0.2,8.66c0,0.59-0.05,1.47-0.15,2.65
	c-0.1,1.18-0.15,2.06-0.15,2.65c0,1.73,0.32,3.14,0.97,4.24c0.65,1.1,1.38,1.65,2.19,1.65c1.2,0,2.08-1.3,2.65-3.89
	c0.45-1.92,0.67-4.22,0.67-6.89c0-1.41-0.07-3.51-0.21-6.3c-0.14-2.79-0.21-4.87-0.21-6.24c0-6.28-0.22-15.1-0.67-26.45
	c-0.49-12.17-0.76-20.97-0.82-26.39h2.16c1.58-0.04,3.9,0.16,6.94,0.59c3.13,0.47,5.44,0.71,6.94,0.71c0.87,0,1.6-0.58,2.19-1.74
	c0.59-1.16,0.88-2.58,0.88-4.27c0-1.73-0.29-3.17-0.88-4.33c-0.59-1.16-1.32-1.74-2.19-1.74c-1.56,0-3.88-0.22-6.96-0.65
	c-3.07-0.43-5.39-0.65-6.96-0.65c-1.22,0-3.06,0.05-5.54,0.15c-2.48,0.1-4.32,0.15-5.54,0.15c-1.26,0-2.9-0.24-4.93-0.71
	c-2.54-0.63-4.16-0.98-4.87-1.06c-0.95-0.12-1.74,0.51-2.34,1.89c-0.53,1.22-0.79,2.63-0.79,4.24
	C654.66,304.17,655.49,306.12,657.13,306.94z"/>
<path class="st2" d="M697.77,361.07c0,12.6,0.97,20.66,2.92,24.15c1.79,3.22,5.82,4.83,12.12,4.83c6.35,0,10.48-0.37,12.39-1.12
	c1.72-0.67,2.59-2.65,2.59-5.95c0-4.08-1.08-6.12-3.23-6.12c-0.39,0-0.97,0.13-1.77,0.38c-0.79,0.26-1.39,0.38-1.8,0.38
	c-1.28,0-3.18,0.07-5.71,0.21c-2.53,0.14-4.42,0.21-5.68,0.21c-2.7,0-4.29-0.55-4.78-1.65c-0.65-1.53-0.97-6.63-0.97-15.31
	c0-2.16,0.03-4.49,0.08-6.98c0.05-2.49,0.12-5.13,0.2-7.92l14.06-2.47l7.25-1.24c1.87-0.43,2.8-2.43,2.8-6.01
	c0-1.85-0.3-3.32-0.91-4.42c-0.61-1.1-1.36-1.65-2.25-1.65c-0.89,0-3.3,0.39-7.22,1.18l-13.33,2.47c0.34-9.54,0.52-17.04,0.52-22.5
	c0-1.53-0.09-3.57-0.27-6.12c2.27-1.22,4.39-2.12,6.36-2.71c1.97-0.59,3.78-0.88,5.45-0.88c3.19,0,6.49,0.94,9.92,2.83
	c0.34,0.2,0.66,0.29,0.94,0.29c0.87,0,1.6-0.67,2.19-2c0.53-1.22,0.79-2.61,0.79-4.18c0-2.71-0.68-4.6-2.04-5.66
	c-2.94-2.28-6.88-3.42-11.81-3.42c-1.91,0-3.94,0.31-6.1,0.94c-2.16,0.63-4.46,1.57-6.9,2.83c-0.61-1.14-1.34-1.71-2.19-1.71
	c-2.03,0-3.04,2.34-3.04,7.01c0,1.45,0.1,3.58,0.3,6.39c0.2,2.81,0.3,4.94,0.3,6.39c0,5.42-0.2,13.8-0.61,25.15
	c-0.39,1.06-0.58,2.26-0.58,3.59c0,1.02,0.11,1.98,0.34,2.89c-0.1,3.46-0.18,6.68-0.24,9.66
	C697.8,355.81,697.77,358.56,697.77,361.07z"/>
<g>
	<path class="st2" d="M154.4,617.85l-21.08-62.74c-0.13-0.51-0.48-0.77-1.06-0.77H108.3c-0.58,0-0.93,0.26-1.06,0.77l-19.82,62.74
		c-0.13,0.33-0.1,0.65,0.09,0.97c0.2,0.32,0.52,0.48,0.97,0.48h18.48c0.64,0,1.02-0.29,1.15-0.87c0.58-2.37,1.2-4.76,1.88-7.17
		c0.67-2.4,1.3-4.82,1.87-7.26h16.36l4.53,14.43c0.06,0.26,0.2,0.47,0.43,0.63c0.22,0.16,0.43,0.24,0.62,0.24h19.54
		c0.45,0,0.77-0.16,0.96-0.48C154.5,618.5,154.53,618.18,154.4,617.85z M114.94,588.98c0.52-1.86,0.97-3.46,1.35-4.81
		s0.8-2.95,1.25-4.81h-0.1c0.33-0.9,0.61-1.84,0.87-2.84c0.26-0.99,0.51-2.03,0.77-3.13c0.06-0.32,0.14-0.7,0.24-1.15
		c0.1-0.45,0.18-0.83,0.24-1.16c0.13,0.33,0.23,0.58,0.29,0.77c-0.06,0-0.08,0.05-0.05,0.15c0.03,0.1,0.11,0.37,0.24,0.82l-0.09-0.1
		c0.32,1.09,0.69,2.21,1.1,3.37c0.42,1.15,0.79,2.24,1.11,3.27c0.51,1.54,0.99,3.13,1.44,4.76c0.45,1.64,0.93,3.26,1.45,4.86H114.94
		z"/>
	<path class="st2" d="M184.33,619.3h44.65c0.77,0,1.15-0.39,1.15-1.15v-14.63c0-0.77-0.39-1.15-1.15-1.15H203v-46.87
		c0-0.77-0.35-1.15-1.06-1.15h-17.61c-0.77,0-1.16,0.38-1.16,1.15v62.65C183.18,618.91,183.56,619.3,184.33,619.3z"/>
	<path class="st2" d="M304.09,573.2c-1.57-4.04-3.85-7.54-6.83-10.49c-2.99-2.95-6.64-5.26-10.97-6.93
		c-4.33-1.66-9.23-2.5-14.68-2.5c-5.32,0-10.17,0.85-14.53,2.55c-4.36,1.7-8.08,4.06-11.16,7.07c-3.08,3.02-5.47,6.61-7.17,10.78
		c-1.7,4.17-2.55,8.73-2.55,13.67c0,4.68,0.78,9.04,2.35,13.09c1.58,4.04,3.84,7.54,6.79,10.49s6.56,5.27,10.83,6.97
		c4.26,1.7,9.06,2.55,14.38,2.55c5.52,0,10.49-0.85,14.92-2.55c4.43-1.7,8.19-4.05,11.31-7.07c3.11-3.02,5.5-6.59,7.17-10.73
		c1.66-4.14,2.5-8.68,2.5-13.62C306.45,581.67,305.66,577.24,304.09,573.2z M284.51,593.94c-0.64,2.15-1.58,4.01-2.79,5.58
		c-1.22,1.57-2.72,2.81-4.48,3.71s-3.77,1.34-6.01,1.34c-2.19,0-4.16-0.44-5.92-1.34c-1.77-0.9-3.26-2.14-4.48-3.71
		c-1.22-1.57-2.16-3.43-2.84-5.58c-0.67-2.15-1.01-4.47-1.01-6.98c0-2.56,0.34-4.94,1.01-7.12c0.68-2.18,1.62-4.07,2.84-5.68
		c1.22-1.6,2.71-2.85,4.48-3.75c1.76-0.9,3.73-1.35,5.92-1.35c2.18,0,4.15,0.45,5.92,1.35c1.76,0.9,3.25,2.15,4.47,3.75
		c1.22,1.61,2.17,3.5,2.84,5.68s1.01,4.56,1.01,7.12C285.47,589.47,285.15,591.79,284.51,593.94z"/>
	<path class="st2" d="M337.15,603.9c-3.53,0-6.83-0.45-9.91-1.35c-3.08-0.9-5.65-1.86-7.7-2.89c-0.32-0.19-0.62-0.21-0.91-0.05
		c-0.29,0.16-0.5,0.43-0.63,0.82l-3.66,14.34c-0.06,0.19-0.03,0.42,0.1,0.67c0.13,0.26,0.32,0.45,0.58,0.58
		c1.02,0.51,2.28,1.03,3.75,1.54c1.48,0.51,3.13,0.99,4.96,1.44c1.83,0.45,3.77,0.8,5.82,1.06c2.05,0.26,4.14,0.39,6.25,0.39
		c5.2,0,9.66-0.59,13.38-1.78c3.72-1.19,6.77-2.77,9.14-4.76c2.37-1.99,4.12-4.27,5.25-6.83c1.12-2.56,1.68-5.23,1.68-7.99
		c0-5-1.52-9.14-4.57-12.41c-3.05-3.27-7.75-5.9-14.1-7.89c-3.91-1.22-6.8-2.2-8.66-2.94c-1.86-0.74-2.79-1.75-2.79-3.03
		c0-1.09,0.61-1.91,1.83-2.45c1.22-0.54,2.95-0.82,5.2-0.82c3.46,0,6.46,0.37,9,1.11c2.53,0.74,4.54,1.43,6.01,2.07
		c0.77,0.32,1.28,0.07,1.54-0.77l4.04-13.76c0.19-0.64-0.03-1.09-0.67-1.35c-2.44-1.09-5.21-1.96-8.32-2.6
		c-3.11-0.64-6.88-0.96-11.31-0.96c-4.23,0-8.05,0.51-11.45,1.54c-3.4,1.03-6.3,2.47-8.71,4.33c-2.41,1.86-4.25,4.06-5.53,6.59
		c-1.28,2.53-1.93,5.31-1.93,8.32c0,2.82,0.55,5.33,1.64,7.51c1.09,2.18,2.58,4.11,4.48,5.77c1.89,1.67,4.07,3.1,6.54,4.28
		c2.47,1.19,5.05,2.17,7.75,2.94c6.42,1.8,9.62,3.63,9.62,5.48C344.85,602.62,342.28,603.9,337.15,603.9z"/>
	<path class="st2" d="M445.99,565.74c-1.61-2.85-3.53-5.11-5.77-6.78c-2.25-1.54-5.11-2.79-8.57-3.75
		c-3.46-0.97-7.6-1.45-12.41-1.45c-5.65,0-10.32,0.15-14.01,0.43c-3.69,0.29-6.75,0.63-9.19,1.02c-0.64,0.12-0.96,0.48-0.96,1.05
		v61.88c0,0.77,0.39,1.16,1.16,1.16h17.41c0.71,0,1.06-0.39,1.06-1.16v-19.63c0.52,0.07,1.09,0.1,1.73,0.1h1.93
		c4.87,0,9.3-0.59,13.28-1.78c3.98-1.19,7.38-2.97,10.2-5.34c2.12-1.86,3.74-4.24,4.86-7.13c1.12-2.88,1.69-5.87,1.69-8.95
		C448.4,571.82,447.59,568.6,445.99,565.74z M425.78,581.14c-1.99,1.32-4.52,1.97-7.6,1.97h-2.02c-0.45,0-0.93-0.03-1.45-0.09
		v-13.76c0.52-0.13,1.16-0.2,1.93-0.2h2.79c3.14,0,5.48,0.58,7.02,1.74c1.54,1.15,2.31,2.72,2.31,4.71
		C428.76,577.95,427.77,579.83,425.78,581.14z"/>
	<path class="st2" d="M457.44,554.34c-0.71,0-1.06,0.38-1.06,1.15v62.65c0,0.77,0.35,1.15,1.06,1.15h17.61
		c0.71,0,1.06-0.39,1.06-1.15v-62.65c0-0.77-0.35-1.15-1.06-1.15H457.44z"/>
	<path class="st2" d="M484.58,555.49v62.65c0,0.77,0.35,1.15,1.06,1.15h46.1c0.71,0,1.06-0.39,1.06-1.15V604
		c0-0.71-0.35-1.06-1.06-1.06h-27.33v-8.47h24.35c0.71,0,1.06-0.39,1.06-1.15v-14.15c0-0.71-0.35-1.06-1.06-1.06h-24.35v-7.41h25.89
		c0.77,0,1.15-0.35,1.15-1.06v-14.15c0-0.77-0.39-1.15-1.15-1.15h-44.65C484.93,554.34,484.58,554.72,484.58,555.49z"/>
	<path class="st2" d="M563.3,603.9c-3.53,0-6.83-0.45-9.91-1.35c-3.08-0.9-5.65-1.86-7.7-2.89c-0.32-0.19-0.62-0.21-0.91-0.05
		c-0.29,0.16-0.5,0.43-0.63,0.82l-3.66,14.34c-0.06,0.19-0.03,0.42,0.1,0.67c0.13,0.26,0.32,0.45,0.58,0.58
		c1.02,0.51,2.28,1.03,3.75,1.54c1.48,0.51,3.13,0.99,4.96,1.44c1.83,0.45,3.77,0.8,5.82,1.06c2.05,0.26,4.14,0.39,6.25,0.39
		c5.2,0,9.66-0.59,13.38-1.78c3.72-1.19,6.77-2.77,9.14-4.76c2.37-1.99,4.12-4.27,5.25-6.83c1.12-2.56,1.68-5.23,1.68-7.99
		c0-5-1.52-9.14-4.57-12.41c-3.05-3.27-7.75-5.9-14.1-7.89c-3.91-1.22-6.8-2.2-8.66-2.94c-1.86-0.74-2.79-1.75-2.79-3.03
		c0-1.09,0.61-1.91,1.83-2.45c1.22-0.54,2.95-0.82,5.2-0.82c3.46,0,6.46,0.37,9,1.11c2.53,0.74,4.54,1.43,6.01,2.07
		c0.77,0.32,1.28,0.07,1.54-0.77l4.04-13.76c0.19-0.64-0.03-1.09-0.67-1.35c-2.44-1.09-5.21-1.96-8.32-2.6
		c-3.11-0.64-6.88-0.96-11.31-0.96c-4.23,0-8.05,0.51-11.45,1.54c-3.4,1.03-6.3,2.47-8.71,4.33c-2.41,1.86-4.25,4.06-5.53,6.59
		c-1.28,2.53-1.93,5.31-1.93,8.32c0,2.82,0.55,5.33,1.64,7.51c1.09,2.18,2.58,4.11,4.48,5.77c1.89,1.67,4.07,3.1,6.54,4.28
		c2.47,1.19,5.05,2.17,7.75,2.94c6.42,1.8,9.62,3.63,9.62,5.48C571,602.62,568.44,603.9,563.3,603.9z"/>
	<path class="st2" d="M682.77,569.78c-2.4-4.13-5.53-7.42-9.38-9.86c-1.73-1.09-3.58-2.04-5.53-2.84c-1.96-0.8-4.09-1.44-6.4-1.92
		c-2.31-0.48-4.86-0.84-7.65-1.06c-2.79-0.22-5.86-0.34-9.19-0.34c-4.11,0-8.07,0.12-11.89,0.34c-3.82,0.22-7.26,0.59-10.34,1.11
		c-0.58,0.12-0.87,0.48-0.87,1.05v61.59c0,0.58,0.29,0.94,0.87,1.06c1.73,0.32,4.1,0.6,7.12,0.82c3.01,0.23,6.93,0.34,11.74,0.34
		c6.67,0,12.89-0.69,18.67-2.07c5.77-1.38,10.62-3.54,14.53-6.5c1.54-1.22,3.03-2.66,4.47-4.33c1.45-1.67,2.73-3.61,3.85-5.82
		c1.13-2.21,2.01-4.68,2.65-7.41c0.64-2.73,0.96-5.73,0.96-9C686.38,578.98,685.18,573.92,682.77,569.78z M663.82,594.23
		c-1.06,2.34-2.54,4.27-4.43,5.77c-1.89,1.51-4.12,2.62-6.69,3.32c-2.57,0.71-5.39,1.03-8.47,0.97h-1.44c-0.45,0-0.93-0.04-1.45-0.1
		v-34.55c1.03-0.19,2.7-0.29,5.01-0.29c2.69,0,5.2,0.28,7.51,0.82c2.31,0.55,4.31,1.48,6.01,2.79c1.7,1.32,3.05,3.03,4.04,5.15
		c1,2.12,1.49,4.71,1.49,7.79C665.4,589.11,664.88,591.89,663.82,594.23z"/>
	<path class="st2" d="M695.91,555.49v62.65c0,0.77,0.35,1.15,1.06,1.15h46.1c0.71,0,1.06-0.39,1.06-1.15V604
		c0-0.71-0.35-1.06-1.06-1.06h-27.33v-8.47h24.35c0.71,0,1.06-0.39,1.06-1.15v-14.15c0-0.71-0.35-1.06-1.06-1.06h-24.35v-7.41h25.89
		c0.77,0,1.15-0.35,1.15-1.06v-14.15c0-0.77-0.39-1.15-1.15-1.15h-44.65C696.27,554.34,695.91,554.72,695.91,555.49z"/>
</g>
<g>
	<path class="st2" d="M194.29,781.8c0,10.61-5.06,15.99-13.05,15.99c-7.02,0-12.24-3.92-17.79-10.61l-20.4,19.25
		c7.99,10.93,20.23,19.25,40.14,19.25c13.05,0,23.82-4.08,31.33-11.59c7.67-7.67,11.26-17.79,11.26-32.14v-72.45h-31.49V781.8z"/>
	<polygon class="st2" points="275.86,778.7 330.68,778.7 330.68,753.74 275.86,753.74 275.86,736.44 336.39,736.44 336.39,709.52 
		244.53,709.52 244.53,823.74 337.21,823.74 337.21,796.81 275.86,796.81 	"/>
	<path class="st2" d="M401.81,752.6c-15.83-3.59-19.74-5.87-19.74-11.09v-0.33c0-4.08,3.75-7.34,11.42-7.34
		c10.12,0,21.54,3.92,31.98,11.26l15.83-22.36c-12.4-9.95-27.58-15.17-46.99-15.17c-27.41,0-44.22,15.34-44.22,36.55v0.33
		c0,23.5,18.76,30.35,43.08,35.9c15.5,3.59,19.25,6.2,19.25,10.93v0.33c0,4.89-4.57,7.83-13.05,7.83
		c-13.22,0-25.78-4.73-37.04-13.71l-17.62,21.05c14.03,12.56,33.29,18.93,53.52,18.93c27.74,0,46.18-13.87,46.18-37.2v-0.33
		C444.39,766.79,428.07,758.31,401.81,752.6z"/>
	<path class="st2" d="M532.49,773.81c0,15.99-8.32,23.5-21.05,23.5c-12.73,0-21.05-7.83-21.05-24.31v-63.47h-32.15v64.12
		c0,35.73,20.4,52.21,52.87,52.21s53.52-16.15,53.52-53.03v-63.31h-32.15V773.81z"/>
	<polygon class="st2" points="544.56,681.78 515.68,672.48 498.71,702.67 520.57,702.67 	"/>
	<path class="st2" d="M631.84,752.6c-15.83-3.59-19.74-5.87-19.74-11.09v-0.33c0-4.08,3.75-7.34,11.42-7.34
		c10.12,0,21.54,3.92,31.98,11.26l15.83-22.36c-12.4-9.95-27.58-15.17-46.99-15.17c-27.41,0-44.22,15.34-44.22,36.55v0.33
		c0,23.5,18.76,30.35,43.08,35.9c15.5,3.59,19.25,6.2,19.25,10.93v0.33c0,4.89-4.57,7.83-13.05,7.83
		c-13.22,0-25.78-4.73-37.04-13.71l-17.62,21.05c14.03,12.56,33.29,18.93,53.52,18.93c27.74,0,46.18-13.87,46.18-37.2v-0.33
		C674.42,766.79,658.11,758.31,631.84,752.6z"/>
</g>
<path class="st2" d="M272.83,446.36c0-5.84-2.02-10.59-6.06-14.26s-9.27-5.51-15.67-5.51c-7.62,0-14.23,2.67-19.84,8
	c-3.46,3.31-6.3,7.57-8.51,12.75c-2.22,5.19-3.33,10.24-3.33,15.15c0,5.32,1.55,9.77,4.66,13.35c3.1,3.57,7,5.36,11.67,5.36
	c3.37,0,6.31-1,8.83-3.01l-14.44,35.54c-1.31,3.22-1.96,5.77-1.96,7.64c0,2.57,0.98,4.65,2.94,6.24c1.97,1.59,4.54,2.38,7.71,2.38
	h12.97c3.79,0,6.72-0.78,8.8-2.35c2.08-1.56,3.12-3.77,3.12-6.62c0-4.21-2.97-6.31-8.9-6.31h-7.71l22.99-56.78
	C271.92,453.49,272.83,449.63,272.83,446.36z M255.73,450.71l-4.84,11.98c-0.33,0.75-1.23,1.46-2.7,2.11
	c-1.47,0.65-2.93,0.98-4.38,0.98c-4.86,0-7.29-2.29-7.29-6.87c0-4.07,1.43-7.92,4.28-11.57c2.85-3.64,5.86-5.46,9.04-5.46
	c1.87,0,3.45,0.47,4.73,1.43c1.29,0.96,1.93,2.14,1.93,3.54C256.5,448.11,256.24,449.4,255.73,450.71z"/>
<path class="st2" d="M292.74,481.2h10.23c3.88,0,7.1-1.52,9.67-4.56c1.31,3.04,3.93,4.56,7.85,4.56h12.55
	c3.74,0,6.65-0.81,8.73-2.42s3.12-3.84,3.12-6.69c0-2.2-0.68-3.77-2.03-4.73c-1.36-0.96-3.65-1.44-6.87-1.44h-8.13l10.16-24.96
	c1.22-3.04,1.82-5.28,1.82-6.73c0-1.82-0.7-3.39-2.1-4.7c-1.4-1.31-3.08-1.96-5.05-1.96c-4.77,0-8.46,3.27-11.08,9.81l-8.76,21.59
	c-1.92,4.67-5.77,7.01-11.57,7.01c-2.8,0-4.16-1.05-4.06-3.15c0.04-0.61,0.28-1.52,0.7-2.73l0.77-2.1l7.36-18.02l0.77-1.89
	c0.75-1.82,1.12-3.43,1.12-4.84c0-1.87-0.7-3.45-2.1-4.73c-1.4-1.28-3.11-1.93-5.12-1.93c-4.63,0-8.27,3.25-10.94,9.75l-9.53,23.41
	c-1.22,2.99-1.82,5.61-1.82,7.85c0,3.93,1.35,7.18,4.07,9.75C285.22,479.92,288.63,481.2,292.74,481.2z"/>
<path class="st2" d="M393.06,465.92h-20.82c-5.29,0-7.93-1.75-7.93-5.26h14.02c5.66,0,9.91-0.86,12.76-2.59
	c5.14-3.04,7.71-7.71,7.71-14.02c0-5.23-1.85-9.45-5.57-12.65c-3.71-3.2-8.63-4.81-14.75-4.81c-8.42,0-15.67,3.28-21.77,9.82
	c-6.1,6.54-9.15,14.32-9.15,23.34c0,7.01,1.93,12.34,5.78,15.98c3.86,3.65,9.48,5.47,16.86,5.47h19.84c3.74,0,6.65-0.79,8.73-2.38
	c2.08-1.59,3.12-3.81,3.12-6.66C401.89,468,398.94,465.92,393.06,465.92z M377.84,440.89c3.09,0,4.7,1.24,4.84,3.72
	c0.14,2.2-2.29,3.29-7.29,3.29h-7.71C370.16,443.23,373.54,440.89,377.84,440.89z"/>
<path class="st2" d="M448.54,454.88c1.52,1.33,3.24,2,5.15,2c3.78,0,6.7-2.31,8.76-6.94l1.33-3.22l3.08,6.03
	c1.22,2.34,1.82,4.37,1.82,6.1c0,4.72-3.25,7.08-9.74,7.08h-8.13c-3.69,0-6.59,0.81-8.69,2.42c-2.1,1.61-3.16,3.85-3.16,6.7
	c0,4.11,2.97,6.17,8.9,6.17h14.65c6.54,0,12.01-1.97,16.4-5.92c4.39-3.95,6.59-8.87,6.59-14.76c0-5.28-2.03-10.75-6.1-16.4l-4-5.54
	c-2.2-3.09-3.29-6.1-3.29-9.04c0-0.79,0.09-1.71,0.28-2.73c0.28-1.4,0.42-2.31,0.42-2.73c0-1.63-0.65-3.05-1.96-4.24
	s-2.87-1.79-4.7-1.79c-3.41,0-6.26,2.27-8.55,6.8l-9.32,18.93c-1.36,2.71-2.03,4.88-2.03,6.52
	C446.26,452.02,447.02,453.55,448.54,454.88z"/>
<path class="st2" d="M536.13,465.92h-20.82c-5.28,0-7.92-1.75-7.92-5.26h14.02c5.65,0,9.91-0.86,12.76-2.59
	c5.14-3.04,7.71-7.71,7.71-14.02c0-5.23-1.86-9.45-5.57-12.65c-3.72-3.2-8.64-4.81-14.76-4.81c-8.41,0-15.67,3.28-21.77,9.82
	c-6.1,6.54-9.14,14.32-9.14,23.34c0,7.01,1.92,12.34,5.78,15.98c3.85,3.65,9.47,5.47,16.86,5.47h19.83c3.74,0,6.65-0.79,8.73-2.38
	c2.08-1.59,3.12-3.81,3.12-6.66C544.96,468,542.02,465.92,536.13,465.92z M520.92,440.89c3.08,0,4.69,1.24,4.84,3.72
	c0.13,2.2-2.3,3.29-7.3,3.29h-7.71C513.23,443.23,516.62,440.89,520.92,440.89z"/>
<path class="st2" d="M603.22,465.92h-7.72l10.1-24.95l0.77-1.9c0.75-1.82,1.12-3.39,1.12-4.69c0-1.92-0.69-3.53-2.07-4.84
	c-1.37-1.31-3.09-1.97-5.15-1.97c-3.78,0-6.85,1.76-9.18,5.26c-2.76-4.16-7.13-6.24-13.11-6.24c-7.81,0-14.8,3.54-21,10.62
	c-6.19,7.08-9.28,15.11-9.28,24.08c0,5.94,1.57,10.74,4.73,14.41c3.15,3.67,7.3,5.5,12.44,5.5h7.99c3.27,0,6.66-1.56,10.17-4.7
	c1.45,3.14,4.18,4.7,8.2,4.7h8.97c3.69,0,6.59-0.8,8.69-2.42c2.11-1.61,3.16-3.84,3.16-6.69
	C612.05,467.98,609.1,465.92,603.22,465.92z M584.36,449.45l-4.91,12.12c-1.26,3.14-3.81,4.7-7.64,4.7h-1.75
	c-3.88,0-5.82-2.41-5.82-7.22c0-4.25,1.61-8.37,4.84-12.34c3.22-3.97,6.54-5.96,9.95-5.96c1.73,0,3.21,0.47,4.45,1.41
	c1.24,0.93,1.86,2.03,1.86,3.29C585.34,446.53,585.01,447.86,584.36,449.45z"/>
<path class="st2" d="M205.02,446.12c2.04,0,3.7-1.66,3.7-3.7v-9.48c0-2.04-1.66-3.7-3.7-3.7h-70.73c-2.04,0-3.7,1.66-3.7,3.7v9.48
	c0,2.04,1.66,3.7,3.7,3.7H205.02z"/>
<path class="st2" d="M107.04,470.93v9.48c0,2.04,1.66,3.7,3.7,3.7h70.73c2.04,0,3.7-1.66,3.7-3.7v-9.48c0-2.04-1.66-3.7-3.7-3.7
	h-70.73C108.69,467.23,107.04,468.88,107.04,470.93z"/>
<path class="st2" d="M622.75,432.94v9.48c0,2.04,1.66,3.7,3.7,3.7h70.73c2.04,0,3.7-1.66,3.7-3.7v-9.48c0-2.04-1.66-3.7-3.7-3.7
	h-70.73C624.41,429.24,622.75,430.89,622.75,432.94z"/>
<path class="st2" d="M724.43,480.41v-9.48c0-2.04-1.66-3.7-3.7-3.7H650c-2.04,0-3.7,1.66-3.7,3.7v9.48c0,2.04,1.66,3.7,3.7,3.7
	h70.73C722.78,484.11,724.43,482.45,724.43,480.41z"/>
</svg>
