<?xml version="1.0" encoding="utf-8"?>
<!-- Generator: Adobe Illustrator 25.3.0, SVG Export Plug-In . SVG Version: 6.00 Build 0)  -->
<svg version="1.1" id="Layer_1" xmlns="http://www.w3.org/2000/svg" xmlns:xlink="http://www.w3.org/1999/xlink" x="0px" y="0px"
	 viewBox="0 0 841.89 1190.55" style="enable-background:new 0 0 841.89 1190.55;" xml:space="preserve">
<style type="text/css">
	.st0{fill:#848484;}
	.st1{fill:#A5A4A4;}
	.st2{fill:#FFFFFF;}
</style>
<rect width="841.89" height="1190.55"/>
<g>
	<path class="st2" d="M111.01,183.79H93.24v-16.08h55.65v16.08h-17.88v57.97h-19.99V183.79z"/>
	<path class="st2" d="M150.9,193.63c0-1.97,0.67-3.7,2.01-5.18c1.34-1.48,2.89-2.22,4.65-2.22h38.93l-6.66,16.08h-18.94v39.46H150.9
		V193.63z"/>
	<path class="st2" d="M200.62,215.84c0-1.9,0.67-3.6,2.01-5.08c1.34-1.48,2.89-2.22,4.65-2.22h24.44v-6.24h-31.1v-16.08h44.43
		c1.76,0,3.31,0.74,4.65,2.22c1.34,1.48,2.01,3.21,2.01,5.18v48.13h-44.43c-1.76,0-3.32-0.74-4.65-2.22
		c-1.34-1.48-2.01-3.21-2.01-5.18V215.84z M231.72,225.68v-4.87h-11.11v4.87H231.72z"/>
	<path class="st2" d="M258.48,186.22h44.43c1.76,0,3.31,0.74,4.65,2.22c1.34,1.48,2.01,3.21,2.01,5.18v48.13h-19.99V202.3h-11.11
		v39.46h-19.99V186.22z"/>
	<path class="st2" d="M316.03,225.68h31v-4.87H322.7c-1.83,0-3.4-0.74-4.71-2.22c-1.31-1.48-1.96-3.21-1.96-5.18v-19.78
		c0-1.97,0.65-3.7,1.96-5.18c1.3-1.48,2.87-2.22,4.71-2.22h44.33v16.08h-31v6.24h24.33c1.76,0,3.31,0.74,4.65,2.22
		c1.34,1.48,2.01,3.17,2.01,5.08v18.51c0,1.98-0.67,3.7-2.01,5.18c-1.34,1.48-2.89,2.22-4.65,2.22H322.7L316.03,225.68z"/>
	<path class="st2" d="M378.23,210.87h-5.5V198.6h5.5v-23.48c0-1.97,0.67-3.7,2.01-5.18c1.34-1.48,2.89-2.22,4.65-2.22h31
		l-6.67,16.08h-11v14.81h11v12.27h-11v30.89h-19.99V210.87z"/>
	<path class="st2" d="M417.16,193.63c0-1.97,0.67-3.7,2.01-5.18c1.34-1.48,2.89-2.22,4.65-2.22h37.77c1.76,0,3.31,0.74,4.65,2.22
		c1.34,1.48,2.01,3.21,2.01,5.18v40.73c0,1.98-0.67,3.7-2.01,5.18c-1.34,1.48-2.89,2.22-4.65,2.22h-37.77
		c-1.76,0-3.32-0.74-4.65-2.22c-1.34-1.48-2.01-3.21-2.01-5.18V193.63z M448.27,225.68V202.3h-11.11v23.38H448.27z"/>
	<path class="st2" d="M475.03,193.63c0-1.97,0.67-3.7,2.01-5.18c1.34-1.48,2.89-2.22,4.65-2.22h38.93l-6.66,16.08h-18.94v39.46
		h-19.99V193.63z"/>
	<path class="st2" d="M524.75,186.22h75.64c1.69,0,3.23,0.74,4.6,2.22c1.38,1.48,2.06,3.21,2.06,5.18v48.13h-19.99V202.3h-11.11
		v39.46h-19.99V202.3h-11.21v39.46h-19.99V186.22z"/>
	<path class="st2" d="M613.82,215.84c0-1.9,0.67-3.6,2.01-5.08c1.34-1.48,2.89-2.22,4.65-2.22h24.44v-6.24h-31.1v-16.08h44.43
		c1.76,0,3.31,0.74,4.65,2.22c1.34,1.48,2.01,3.21,2.01,5.18v48.13h-44.43c-1.76,0-3.32-0.74-4.65-2.22
		c-1.34-1.48-2.01-3.21-2.01-5.18V215.84z M644.93,225.68v-4.87h-11.11v4.87H644.93z"/>
	<path class="st2" d="M670.21,193.63c0-1.97,0.67-3.7,2.01-5.18c1.34-1.48,2.89-2.22,4.65-2.22h24.33v-18.51h19.99v74.05h-44.33
		c-1.76,0-3.32-0.74-4.65-2.22c-1.34-1.48-2.01-3.21-2.01-5.18V193.63z M701.21,225.68V202.3h-11v23.38H701.21z"/>
	<path class="st2" d="M728.08,193.63c0-1.97,0.67-3.7,2.01-5.18c1.34-1.48,2.89-2.22,4.65-2.22h37.77c1.76,0,3.31,0.74,4.65,2.22
		c1.34,1.48,2.01,3.21,2.01,5.18v40.73c0,1.98-0.67,3.7-2.01,5.18c-1.34,1.48-2.89,2.22-4.65,2.22h-37.77
		c-1.76,0-3.32-0.74-4.65-2.22c-1.34-1.48-2.01-3.21-2.01-5.18V193.63z M759.18,225.68V202.3h-11.11v23.38H759.18z"/>
</g>
<g>
	<path class="st2" d="M190.95,952.38h46.6c1.61,0,3.07,0.7,4.38,2.11c1.31,1.41,1.96,3.05,1.96,4.93v31.71
		c0,1.95-0.65,3.61-1.96,4.98c-1.31,1.38-2.77,2.06-4.38,2.06h-27.58v24.66h-19.02V952.38z M224.87,986.5v-18.82h-14.9v18.82H224.87
		z"/>
	<path class="st2" d="M248.42,977.04c0-1.88,0.64-3.52,1.91-4.93c1.27-1.41,2.75-2.11,4.43-2.11h35.93c1.68,0,3.15,0.7,4.43,2.11
		c1.27,1.41,1.91,3.05,1.91,4.93v38.75c0,1.88-0.64,3.52-1.91,4.93c-1.28,1.41-2.75,2.11-4.43,2.11h-35.93
		c-1.68,0-3.15-0.7-4.43-2.11c-1.28-1.41-1.91-3.05-1.91-4.93V977.04z M278.01,1007.54V985.3h-10.57v22.24H278.01z"/>
	<path class="st2" d="M303.48,977.04c0-1.88,0.64-3.52,1.91-4.93c1.27-1.41,2.75-2.11,4.43-2.11h37.04l-6.34,15.3H322.5v37.54
		h-19.02V977.04z"/>
	<path class="st2" d="M387.02,977.04c0-1.88,0.64-3.52,1.91-4.93c1.27-1.41,2.75-2.11,4.43-2.11h42.27l-6.34,15.3h-23.25v22.24
		h29.59l-6.34,15.3h-35.93c-1.68,0-3.15-0.7-4.43-2.11c-1.28-1.41-1.91-3.05-1.91-4.93V977.04z"/>
	<path class="st2" d="M441.47,977.04c0-1.88,0.64-3.52,1.91-4.93c1.27-1.41,2.75-2.11,4.43-2.11h37.04l-6.34,15.3h-18.02v37.54
		h-19.02V977.04z"/>
	<path class="st2" d="M488.77,952.38h19.02v11.68h-19.02V952.38z M488.77,970h19.02v52.84h-19.02V970z"/>
	<path class="st2" d="M514.14,1007.54h29.49v-4.63h-23.15c-1.75,0-3.24-0.7-4.48-2.11c-1.24-1.41-1.86-3.05-1.86-4.93v-18.82
		c0-1.88,0.62-3.52,1.86-4.93c1.24-1.41,2.73-2.11,4.48-2.11h42.17v15.3h-29.49v5.94h23.15c1.68,0,3.15,0.71,4.43,2.11
		c1.27,1.41,1.91,3.02,1.91,4.83v17.61c0,1.88-0.64,3.52-1.91,4.93c-1.28,1.41-2.75,2.11-4.43,2.11h-35.83L514.14,1007.54z"/>
	<path class="st2" d="M573.32,981.67h-5.23V970h5.23v-17.61h19.02V970h10.47v11.68h-10.47v25.87h10.47l6.34,15.3h-29.49
		c-1.68,0-3.15-0.71-4.43-2.12c-1.28-1.41-1.91-3.06-1.91-4.95V981.67z"/>
	<path class="st2" d="M610.46,977.04c0-1.88,0.64-3.52,1.91-4.93c1.27-1.41,2.75-2.11,4.43-2.11h35.93c1.68,0,3.15,0.7,4.43,2.11
		c1.27,1.41,1.91,3.05,1.91,4.93v38.75c0,1.88-0.64,3.52-1.91,4.93c-1.28,1.41-2.75,2.11-4.43,2.11H616.8
		c-1.68,0-3.15-0.7-4.43-2.11c-1.28-1.41-1.91-3.05-1.91-4.93V977.04z M640.05,1007.54V985.3h-10.57v22.24H640.05z"/>
</g>
<path class="st2" d="M377.2,588.17v-86.48l-55.7-4.56l-19.07-74.24l-62.03-28.52l-13.21-66.03l-92.63-0.73l45.57,174.32L267,572
	L377.2,588.17z M184.84,387.6l97.83,54.06l5.46,27.03l-97.83-54.06L184.84,387.6z M195.68,436.88l97.83,54.06l5.46,27.03
	l-97.83-54.06L195.68,436.88z"/>
<path class="st2" d="M605.71,572l86.88-70.08l45.57-174.32l-92.63,0.73l-13.21,66.03l-62.03,28.52l-19.07,74.24l-55.7,4.56v86.48
	L605.71,572z M682.42,414.63l-97.83,54.06l5.46-27.03l97.83-54.06L682.42,414.63z M671.58,463.91l-97.83,54.06l5.46-27.03
	l97.83-54.06L671.58,463.91z"/>
<path class="st2" d="M248.43,327.6l7.58,45.16l71.12,27.56h54.07v-77.8h111.11v81.35h61.38l64.7-28.11l9-48.17
	C495.42,280.97,375.25,284.16,248.43,327.6z"/>
<polygon class="st2" points="256.67,588.17 196.54,541.69 212.79,743.99 301.44,843.03 302.43,638.7 249.16,602.61 "/>
<polygon class="st2" points="615.03,588.17 675.16,541.69 658.92,743.99 570.27,843.03 569.27,638.7 622.54,602.61 "/>
<polygon class="st2" points="497.02,743.99 376.5,743.99 376.5,624.67 325.17,646.54 325.17,850.66 347.48,863.45 377.11,792.09 
	492.35,792.09 522.94,862.52 548.35,851.44 548.35,647.65 497.02,624.54 "/>
<polygon class="st2" points="393.54,811.66 370.84,871.48 500.86,871.48 474.98,811.66 "/>
<polygon class="st2" points="474.03,420.75 474.03,346.77 399.63,346.77 399.63,420.75 326.17,420.75 339.2,479.73 399.63,479.73 
	399.63,713.05 474.03,713.05 474.03,479.73 536.32,479.73 549.35,420.75 "/>
</svg>
