<?xml version="1.0" encoding="utf-8"?>
<!-- Generator: Adobe Illustrator 25.3.0, SVG Export Plug-In . SVG Version: 6.00 Build 0)  -->
<svg version="1.1" id="Layer_1" xmlns="http://www.w3.org/2000/svg" xmlns:xlink="http://www.w3.org/1999/xlink" x="0px" y="0px"
	 viewBox="0 0 841.89 1190.55" style="enable-background:new 0 0 841.89 1190.55;" xml:space="preserve">
<style type="text/css">
	.st0{fill:#FFED00;}
	.st1{fill:#FFFFFF;}
</style>
<rect width="841.89" height="1190.55"/>
<g>
	<path class="st0" d="M308.3,519.54c-8.1,6.36-14.28,14.21-18.44,23.58c-8.31,18.75-9,37.58,0.79,55.95
		c8.76,16.42,22.51,27.27,40.31,32.55c4.3,1.27,8.55,2.05,12.72,2.29V508.34C330.88,507.38,319.03,511.1,308.3,519.54z
		 M306.35,581.13c-1.61,0.57-2.6-0.14-3.33-1.53c-2.38-4.57-3.8-9.39-4.08-14.55c-0.43-6.6,0.73-12.98,2.68-19.26
		c0.61-1.96,1.92-2.88,3.83-2.37c2.15,0.56,1.91,2.22,1.37,3.91c-2.32,7.4-3.41,14.9-1.73,22.63c0.53,2.47,1.56,4.71,2.66,6.96
		C308.62,578.72,307.96,580.55,306.35,581.13z M321.55,605c-1.08,1.1-2.5,1.48-3.69,0.4c-2.54-2.32-4.42-5.17-5.13-8.55
		c-0.34-1.55,0.9-2.41,2.34-2.72c1.26-0.07,2.26,0.2,2.73,1.48c0.86,2.29,2.25,4.27,3.77,6.14C322.48,602.88,322.52,604,321.55,605z
		"/>
	<path class="st1" d="M280.54,553.37c-1.43,5.48-2.24,11.05-2.16,16.73c0.01,1.29-0.54,1.84-1.74,2.19
		c-23.35,6.89-46.02,15.75-68.9,23.99c-19.88,7.16-39.97,13.58-60.53,18.53c-5.28,1.27-10.29,1.13-15.47-0.33
		c-16.08-4.56-28.91-13.61-38.34-27.42c-4.61-6.73-7.89-16.14-8.53-25.43c-0.34-9.32,2.41-19.43,6.93-29.12
		c3.54-7.61,8.17-14.41,14.62-19.95c7.77-6.68,16.68-9.11,26.55-6.74c3.92,0.92,7.46,3.4,11.23,5.04
		c27.48,11.92,55.79,21.53,84.65,29.56c16.55,4.6,33.23,8.55,50.3,10.76C280.65,551.38,280.92,551.93,280.54,553.37z"/>
	<path class="st1" d="M288.83,608.98c-10.08,11.34-19.54,23.19-28.68,35.29c-6.33,8.37-12.96,16.51-19.48,24.72
		c-10.7,13.47-21.99,26.4-34.11,38.63c-3.24,3.27-7.17,4.89-11.3,6.16c-18.67,5.74-36.56,3.69-53.32-6.31
		c-12.68-7.56-19.61-19.26-22.68-33.47c-0.84-3.86-1.54-7.75-1.94-12.59c-0.36-9.14,0.23-18.98,5.51-27.94
		c3.38-5.72,8.15-9.87,14.51-11.72c2.77-0.81,5.85-0.57,8.76-1.24c15.73-3.59,31.17-8.13,46.46-13.28
		c19.78-6.66,39.24-14.21,58.97-21.03c8.38-2.9,16.72-5.92,25.27-8.31c1.41-0.4,1.82-0.26,2.01,1.17
		c1.4,10.12,4.62,19.59,10.31,28.14C289.63,607.97,289.42,608.33,288.83,608.98z"/>
	<path class="st1" d="M321.58,705.92c-1.52,16.95-3.9,33.77-7.31,50.46c-1.38,6.79-2.85,13.57-4.77,20.22
		c-2.85,9.84-9.68,16.22-18.89,20.11c-12.82,5.4-26.26,6.19-39.93,4.88c-8.33-0.79-16.41-2.44-23.96-6.2
		c-13.81-6.87-21.76-18.03-24.25-33.18c-0.26-1.59-0.44-3.2-0.66-4.8c-0.06-0.48-0.08-0.97-0.11-1.45
		c-0.6-12.44,1.26-24.56,4.37-36.58c0.96-3.68,2.61-6.51,5.33-9.15c9.96-9.67,19.18-20.04,27.79-30.95
		c8.76-11.07,17.56-22.09,26.28-33.19c8.46-10.8,16.93-21.59,25.94-31.95c1.13-1.3,1.6-1.45,2.81-0.05
		c7.43,8.63,16.33,15.35,26.76,19.93c1.68,0.73,2.17,1.67,2.24,3.44C324.02,660.32,323.63,683.14,321.58,705.92z"/>
	<path class="st1" d="M343.68,639.48v175.03c-6.57-2.2-12.79-5.52-18.59-10.24c-7.62-6.21-11.3-14.53-10.7-24.29
		c0.28-4.41,2.16-8.72,3.16-13.11c4.49-19.84,7.23-39.95,9-60.21c1.05-11.88,1.91-23.79,2.2-35.72c0.24-9.84,0.3-19.69-0.02-29.53
		c-0.03-0.89,0-1.78-0.07-2.67c-0.13-1.5,0.39-1.73,1.84-1.34C334.89,638.57,339.27,639.3,343.68,639.48z"/>
	<path class="st1" d="M343.68,314.81v188.08c-2.54-0.15-5.09-0.13-7.68,0.08c-1.28,0.1-1.55-0.43-1.91-1.49
		c-6.6-18.95-13.23-37.88-19.88-56.81c-8.7-24.79-17.52-49.53-26.09-74.36c-2.87-8.33-1.44-16.4,3.06-23.91
		c5.67-9.43,14.13-15.83,23.5-21.13C323.8,320.12,333.41,316.32,343.68,314.81z"/>
	<path class="st1" d="M326.8,504.42c-10.24,2.53-19.15,7.54-26.61,15.01c-1.24,1.24-1.9,0.91-2.84-0.23
		c-12.5-15.17-26.82-28.56-41.04-42.04c-12.88-12.2-25.78-24.38-37.7-37.52c-6.07-6.69-11.68-13.79-16.69-21.31
		c-1.51-2.27-1.85-4.98-2.5-7.54c-1.25-4.92-2.07-9.95-2.42-15.74c-0.71-7.65-0.29-15.93,2.38-23.93
		c4.6-13.78,14.21-22.45,28.04-26.31c12.03-3.36,24.1-3.3,35.85,1.37c10.56,4.19,16.94,11.8,18.95,23.17
		c0.94,5.3,3.3,10.27,5.08,15.35c8.59,24.57,17.2,49.12,25.83,73.68c5.04,14.36,10.1,28.71,15.25,43.03
		C329.05,503.28,328.81,503.93,326.8,504.42z"/>
	<path class="st1" d="M294.1,526.04c-4.64,5.67-8.24,11.94-10.84,18.76c-0.55,1.48-1.53,1.37-2.71,1.21
		c-12.94-1.81-25.71-4.5-38.38-7.7c-18.37-4.64-36.48-10.16-54.4-16.33c-15.58-5.36-30.81-11.52-45.93-18.05
		c-8.21-3.55-14.89-8.73-18.97-16.79c-3.17-6.25-4.94-12.95-5.31-19.98c-0.6-11.28,0.59-22.3,5.93-32.43
		c6.1-11.59,15.75-19.12,28.39-22.4c12.68-3.3,24.73-0.14,36.61,4.37c5.72,2.16,9.87,5.62,13.33,10.75
		c5.92,8.76,13.16,16.52,20.54,24.11c11.98,12.33,24.51,24.09,36.99,35.9c9.89,9.39,19.65,18.91,28.7,29.12
		c2.04,2.3,3.97,4.68,6.01,6.96C294.87,524.45,294.84,525.13,294.1,526.04z"/>
	<g>
		<path class="st1" d="M405.81,327.64c0,13.33-2.76,51.68-21.45,51.68c-3.33,0-5.69-1.22-7.8-3.66c-0.81-0.89-1.62-1.95-1.71-3.25
			c0.24-0.49,0.65-0.89,1.22-0.89c2.03,0,3.25,4.63,7.8,4.63c12.35,0,14.14-36.65,14.14-45.58c0-2.19,0-4.39-0.33-6.58
			c-5.12,0.73-10.4,0.98-15.52,1.79c-2.03,0.33-9.18,1.38-9.18,4.14c0,5.2,4.47,8.69,4.47,9.91c0,0.73-0.49,0.89-1.06,0.89
			c-0.57,0-1.14-0.16-1.63-0.49c-3.17-2.11-6.09-6.83-6.09-10.73c0-6.66,9.26-7.96,14.22-8.69c9.59-1.38,19.58-1.54,29.01-3.98
			c1.46-0.41,4.71-1.79,5.93-1.79s1.22,1.71,1.22,2.52c0,1.3-0.49,1.95-1.54,2.6c-2.36,1.38-8.78,1.95-11.86,2.93
			C405.81,324.63,405.81,326.09,405.81,327.64z"/>
		<path class="st1" d="M431.97,343.56c6.01,0,7.64,6.26,7.64,11.13c0,7.15-2.52,14.95-8.69,19.09c-1.87,1.22-4.06,2.11-6.34,2.11
			c-5.85,0-7.8-5.93-7.8-10.81C416.77,356.97,422.3,343.56,431.97,343.56z M422.62,365.26c0,2.6,0.73,6.66,4.06,6.66
			c1.38,0,2.68-0.73,3.74-1.54c4.06-3.17,5.77-9.18,5.77-14.14c0-2.68-0.73-7.31-4.23-7.31
			C425.88,348.92,422.62,360.38,422.62,365.26z"/>
		<path class="st1" d="M450.58,373.63c-3.49,0-4.88-4.88-4.88-7.64c0-8.78,6.66-20.15,15.11-20.15c1.62,0,3.09,0.65,4.14,1.87
			c0-11.62,6.42-38.51,15.52-38.51c3.9,0,4.55,5.93,4.55,8.78c0,11.38-8.37,30.71-13.65,40.95c0,2.36,0.16,12.59,3.49,12.59
			c7.48,0,12.84-13.81,15.03-13.81c0.98,0,1.38,0.57,1.38,1.3c0,1.14-0.98,2.6-1.62,3.58c-3.66,5.44-9.1,13.16-16.09,13.16
			c-5.61,0-7.48-8.04-8.21-12.35C462.36,366.72,455.29,373.63,450.58,373.63z M450.25,368.43c0,0.57,0,1.62,0.81,1.62
			c3.41,0,12.35-9.02,13.81-11.78c-0.16-2.36-0.16-4.63-0.16-6.99C457.4,351.28,450.25,361.68,450.25,368.43z M470.89,352.17
			c4.31-9.18,10.64-25.19,10.64-35.26c0-0.41,0-2.28-0.81-2.28c-4.55,0-9.83,29.17-9.83,36.73V352.17z"/>
		<path class="st1" d="M502.98,343.56c6.01,0,7.64,6.26,7.64,11.13c0,7.15-2.52,14.95-8.69,19.09c-1.87,1.22-4.06,2.11-6.34,2.11
			c-5.85,0-7.8-5.93-7.8-10.81C487.79,356.97,493.31,343.56,502.98,343.56z M493.64,365.26c0,2.6,0.73,6.66,4.06,6.66
			c1.38,0,2.68-0.73,3.74-1.54c4.06-3.17,5.77-9.18,5.77-14.14c0-2.68-0.73-7.31-4.23-7.31
			C496.89,348.92,493.64,360.38,493.64,365.26z"/>
	</g>
	<g>
		<path class="st1" d="M386.04,472.3c0.44,0.33,0.7,0.89,0.7,1.46c0.06,0.57-0.13,1.22-0.51,1.54c-0.82,0.81-2.03,0.49-2.98,0.49
			c-1.4,0-2.6,0.24-4-0.41c-0.44-0.16-0.89-0.41-1.33-0.24c-1.08,0.41-0.89,2.36-1.27,3.66c-0.44,1.38-1.78,2.03-2.85,1.79
			c-1.14-0.32-2.09-1.38-2.66-2.68c-0.95-2.19-1.01-4.79-1.01-7.31c-0.13-13.16-0.06-26.33,0.13-39.49
			c0.06-3.9,0.06-7.72,0.13-11.62c0-1.95,0.06-3.98,0.13-5.93c0-1.46-0.25-3.74,0.25-5.04c0.19-0.65,0.7-1.14,1.2-0.98
			c0.38,0.08,0.63,0.49,0.89,0.89c3.55,6.26,3.74,14.46,3.74,22.18c0.06,12.11,0.06,24.29,0.13,36.48c0,0.65,0,1.3,0.25,1.87
			c0.25,0.57,0.82,0.89,1.27,1.14c1.33,0.73,2.73,1.3,4.19,1.54c0.63,0.16,1.46,0.08,2.22,0.16
			C385.15,471.82,385.66,471.98,386.04,472.3z"/>
		<path class="st1" d="M388.83,452.24c0.57-13.81,2.54-28.03,9.26-39.33c0.63-1.06,1.33-2.11,2.22-2.76
			c1.46-1.14,2.85-0.73,4.12,0.41c1.33,1.22,2.6,2.28,3.11,4.31c3.61,13.57,4.25,28.44,1.59,42.33c-0.44,2.44-1.01,4.96-2.03,7.15
			c-0.95,2.03-2.22,3.82-3.49,5.61c-1.27,1.71-2.6,3.58-4.44,4.06c-1.27,0.33-2.54-0.08-3.68-0.73c-2.92-1.71-4.88-5.28-5.83-9.1
			c-0.82-3.41-0.95-6.99-0.82-10.56C388.83,453.13,388.83,452.72,388.83,452.24z M408.55,438.75c-0.44-7.88-1.59-15.76-3.49-23.32
			c-0.82,0.41-0.38,1.95-0.25,3.09c0.13,1.62-0.63,3.09-1.33,4.47c-3.74,7.48-6.66,16.01-7.61,24.86
			c-0.63,5.52-0.76,21.04,7.17,15.76c1.59-1.06,2.73-2.92,3.49-4.96c2.22-5.77,2.35-12.68,2.03-19.01
			C408.55,439.4,408.55,439.07,408.55,438.75z"/>
		<path class="st1" d="M440.82,438.83c0,1.54,0.06,3.01,0.06,4.55c0.06,4.06,0,8.04,0,12.03c0,6.42,0.06,12.84,0.06,19.26
			c0,0.08,0,0.16,0,0.32c0,1.38-0.25,2.84-0.44,4.23c-0.25,1.38-1.14,1.71-2.16,1.06c-2.54-1.71-3.74-4.06-3.61-7.88
			c0.7-19.18-0.19-38.27,0.32-57.45c0-0.89,0-1.79,0.06-2.68c0.06-0.57,0.13-1.54,0.38-1.62c0.57-0.24,1.2,0,1.84,0
			c0.44,0.08,1.01,0.16,1.27-0.08c3.36-3.82,6.47-3.98,10.08-0.81c0.7,0.65,1.4,1.79,1.71,2.93c1.08,4.14,2.35,8.12,0.95,12.43
			c-1.01,3.01-2.54,5.93-5.07,6.99c-1.27,0.49-2.54,0.41-3.87,0.32c-1.08-0.08-1.14-0.49-1.52,0.73c-0.25,0.65-0.25,1.38-0.25,2.19
			C440.7,436.55,440.82,437.77,440.82,438.83z M445.26,411.69c-1.97,0.41-3.87,1.22-5.64,2.11c-0.44,0.24-1.27,1.14-0.57,2.52
			c1.65,3.17,2.03,6.74,1.4,10.56c-0.19,1.3,0.7,2.6,1.71,2.76c3.61,0.41,6.53-2.84,7.42-7.15c0.13-0.73,0.19-1.62,0.19-2.68
			C449.64,416,448.31,411.12,445.26,411.69z"/>
		<path class="st1" d="M485.65,426.07c-0.32,1.87-0.76,3.66-1.08,5.61c-0.38,2.76-0.44,5.61-0.44,8.45
			c0.06,2.84-0.44,5.53-0.63,8.29c-0.32,3.9-0.32,7.8-0.13,11.62c0.19,3.49,0.51,6.91,2.16,9.75c0.63,1.14,1.59,2.03,2.22,3.25
			c0.63,1.14,0.95,2.84,0.38,4.06c-0.7,1.38-2.35,1.46-3.55,0.81c-1.97-1.14-3.11-3.74-3.87-6.26c0-0.98-0.63-2.36-0.89-3.33
			c-0.25-1.14-0.44-2.36-0.63-3.58c-0.32-2.27-0.32-4.71-0.51-7.07c0,0.32-0.82,1.3-0.95,1.62c-1.52,3.33-2.73,6.83-4.69,9.67
			c-1.01,1.54-1.78,3.33-2.73,4.96c-0.95,1.54-2.03,3.17-3.11,4.63c-0.7,0.89-1.4,1.79-2.35,2.19c-1.33,0.57-2.79,0-3.87-1.14
			c-1.01-1.06-1.71-2.68-2.28-4.31c-1.59-4.71-1.9-9.99-1.97-15.19c-0.19-15.28,1.46-30.47,2.73-45.66
			c0.13-1.38,0.19-2.76,0.32-4.14c0.06-0.65,0-2.11,0.63-2.36c0.25-0.16,0.51-0.08,0.76-0.08c0.82,0.08,1.65,0.16,2.47,0.24
			c0.76,0,1.52,0.08,2.09,0.65c1.46,1.3,0.89,3.66,1.01,5.53c0.13,2.11,0.25,4.06,0.13,6.18c-0.25,5.36-0.95,10.64-1.4,16.01
			c-0.89,10.08-0.95,20.31-0.25,30.39c0,0.73,0.13,1.46,0.51,1.95c0.76,0.65,1.71-0.08,2.41-0.81c6.15-6.91,10.02-16.74,11.67-27.06
			c0.57-3.58,0.89-7.23,1.27-10.89c0.19-1.87,0.38-3.74,0.63-5.53c0.19-1.3-0.06-3.98,1.01-4.55c0.44-0.16,0.89-0.16,1.33-0.08
			c0.51,0,1.14,0.08,1.59,0.49c0.38,0.41,0.63,0.98,0.7,1.62c0,0.24,0,0.57-0.06,0.89C486.23,423.96,485.78,425.18,485.65,426.07z"
			/>
		<path class="st1" d="M494.34,434.52c0.44-7.56,0.95-15.19,1.39-22.75c0.32-4.63,3.74-2.03,6.15-2.68
			c2.03-0.57,4.31-1.22,6.28,0.16c0.76,0.49,1.65,1.71,1.33,2.92c-0.13,0.57-0.44,0.89-0.82,1.06c-0.38,0.24-0.76,0.24-1.2,0.24
			c-1.01,0.08-2.16,0.24-3.17,0.73c-0.19,0.08-2.35,1.46-2.28,1.38c-0.51,6.5-0.19,13-0.06,19.5c0,0.41,0,0.81,0.13,1.22
			c0.25,0.49,0.82,0.33,1.2,0.41c0.95,0,1.84-0.33,2.79-0.49c1.14-0.16,2.28-0.08,3.36-0.16c0.51-0.08,1.08-0.08,1.4,0.41
			c0.32,0.32,0.44,0.89,0.38,1.46c-0.06,0.49-0.25,0.98-0.38,1.46c-0.06,0-0.38,0.89-0.44,0.98c-0.25,0.33-0.57,0.33-0.89,0.41
			c-0.44,0-0.82,0-1.27,0.16c-1.33,0.49-2.73,1.14-4.06,1.71c-0.38,0.16-0.76,0.32-1.08,0.65c-0.44,0.49-0.38,1.22-0.57,1.95
			c-0.19,0.81-0.32,1.54-0.44,2.44c-0.32,2.52-0.38,4.96-0.44,7.56c-0.19,5.04-0.32,10.08-0.44,15.19c0,0.16,0,0.41,0.13,0.57
			c0.13,0.08,0.32,0,0.51-0.08c0.76-0.57,1.59-1.14,2.41-1.79c0.44-0.33,0.82-0.98,1.33-1.3c1.08-0.81,3.11-0.49,4,0.73
			c0.19,0.24,0.32,0.57,0.32,0.89c0,0.49-0.38,0.89-0.7,1.14c-2.47,1.87-4.95,3.82-7.42,5.69c-1.46,1.14-3.17,2.36-4.82,1.79
			c-1.33-0.41-2.41-2.11-2.92-3.82c-0.51-1.79-0.63-3.74-0.7-5.69c0-0.65,0-1.38,0-2.03C493.14,455.81,493.71,445.17,494.34,434.52z
			"/>
		<path class="st1" d="M535.88,413.72c3.23,4.63,6.6,8.21,8.81,13.81c0.95,2.52,1.84,5.2,2.35,7.96c0.82,4.31,1.01,8.78-0.19,13.08
			c-1.01,3.74-1.65,7.64-3.17,10.97c-2.03,4.63-3.68,9.59-6.85,13.49c-2.28,2.84-4.95,4.23-7.8,5.77c-1.9,0.98-5.71,2.36-7.8,1.71
			c-1.52-0.49-3.42-3.41-4.06-5.2c-0.7-2.11-0.32-4.39-0.06-6.58c0.51-3.82,1.01-7.56,1.46-11.38c1.4-13,2.35-26.08,3.42-39.08
			c0.06-1.06,0.63-3.09-1.52-1.87c-1.59,0.89-4.69-0.65-5.64-2.6c-0.19-0.32,0.06-1.46,0.44-1.87c2.92-3.09,6.34-4.55,10.46-4.39
			C529.53,407.71,533.28,409.98,535.88,413.72z M542.47,431.35c-0.95-2.6-1.84-5.44-3.36-7.64c-1.52-2.19-3.87-3.82-5.64-5.77
			c-0.51-0.57-0.95-1.06-1.52-1.54c-0.95-0.81-2.09-1.3-3.17-1.46c-0.06-0.08-0.7,12.51-0.7,13.41c-0.19,5.93-0.82,11.86-1.27,17.79
			c-0.44,5.77-0.89,11.62-1.27,17.47c-0.13,1.95-0.19,3.9-0.38,5.85c-0.19,1.46-1.08,3.33-0.19,4.71c1.27,2.11,4.63,0.81,6.21-0.08
			c2.47-1.38,4.44-4.23,5.71-7.15c2.54-6.09,5.39-13,6.59-19.74c0.38-2.03,0.57-4.47,0.51-6.91
			C543.93,437.12,543.42,433.79,542.47,431.35z"/>
		<path class="st1" d="M551.09,452.24c0.57-13.81,2.54-28.03,9.26-39.33c0.63-1.06,1.33-2.11,2.22-2.76
			c1.46-1.14,2.85-0.73,4.12,0.41c1.33,1.22,2.6,2.28,3.11,4.31c3.61,13.57,4.25,28.44,1.59,42.33c-0.44,2.44-1.01,4.96-2.03,7.15
			c-0.95,2.03-2.22,3.82-3.49,5.61c-1.27,1.71-2.6,3.58-4.44,4.06c-1.27,0.33-2.54-0.08-3.68-0.73c-2.92-1.71-4.88-5.28-5.83-9.1
			c-0.82-3.41-0.95-6.99-0.82-10.56C551.09,453.13,551.09,452.72,551.09,452.24z M570.81,438.75c-0.44-7.88-1.59-15.76-3.49-23.32
			c-0.82,0.41-0.38,1.95-0.25,3.09c0.13,1.62-0.63,3.09-1.33,4.47c-3.74,7.48-6.66,16.01-7.61,24.86
			c-0.63,5.52-0.76,21.04,7.17,15.76c1.59-1.06,2.73-2.92,3.49-4.96c2.22-5.77,2.35-12.68,2.03-19.01
			C570.81,439.4,570.81,439.07,570.81,438.75z"/>
		<path class="st1" d="M599.09,434.52c0.44-7.56,0.95-15.19,1.4-22.75c0.32-4.63,3.74-2.03,6.15-2.68c2.03-0.57,4.31-1.22,6.28,0.16
			c0.76,0.49,1.65,1.71,1.33,2.92c-0.13,0.57-0.44,0.89-0.82,1.06c-0.38,0.24-0.76,0.24-1.2,0.24c-1.01,0.08-2.16,0.24-3.17,0.73
			c-0.19,0.08-2.35,1.46-2.28,1.38c-0.51,6.5-0.19,13-0.06,19.5c0,0.41,0,0.81,0.13,1.22c0.25,0.49,0.82,0.33,1.2,0.41
			c0.95,0,1.84-0.33,2.79-0.49c1.14-0.16,2.28-0.08,3.36-0.16c0.51-0.08,1.08-0.08,1.4,0.41c0.32,0.32,0.44,0.89,0.38,1.46
			c-0.06,0.49-0.25,0.98-0.38,1.46c-0.06,0-0.38,0.89-0.44,0.98c-0.25,0.33-0.57,0.33-0.89,0.41c-0.44,0-0.82,0-1.27,0.16
			c-1.33,0.49-2.73,1.14-4.06,1.71c-0.38,0.16-0.76,0.32-1.08,0.65c-0.44,0.49-0.38,1.22-0.57,1.95c-0.19,0.81-0.32,1.54-0.44,2.44
			c-0.32,2.52-0.38,4.96-0.44,7.56c-0.19,5.04-0.32,10.08-0.44,15.19c0,0.16,0,0.41,0.13,0.57c0.13,0.08,0.32,0,0.51-0.08
			c0.76-0.57,1.59-1.14,2.41-1.79c0.44-0.33,0.82-0.98,1.33-1.3c1.08-0.81,3.11-0.49,4,0.73c0.19,0.24,0.32,0.57,0.32,0.89
			c0,0.49-0.38,0.89-0.7,1.14c-2.47,1.87-4.95,3.82-7.42,5.69c-1.46,1.14-3.17,2.36-4.82,1.79c-1.33-0.41-2.41-2.11-2.92-3.82
			c-0.51-1.79-0.63-3.74-0.7-5.69c0-0.65,0-1.38,0-2.03C597.89,455.81,598.46,445.17,599.09,434.52z"/>
		<path class="st1" d="M622.81,464.67c-0.32-10.89-0.82-21.78-1.4-32.75c-0.32-5.44-0.63-10.89-1.01-16.41
			c-0.13-1.79-1.9-12.76,2.03-9.83c1.01,0.73,1.59,2.19,2.03,3.49c5.26,14.14,11.79,27.79,19.4,40.38
			c0.06-13.89-0.44-27.95-1.59-42.01c-0.25-3.49,2.98-5.53,4.82-2.03c2.09,3.9,1.27,8.21,1.71,12.43c0.19,1.62,0.76,3.01,0.89,4.63
			c0.44,4.55,0.38,8.94,0.63,13.41c0.44,9.43,2.09,19.01,1.59,28.19c-0.13,1.79-0.44,3.74-1.71,4.31c-1.01,0.49-2.35-0.33-3.17-1.46
			c-0.82-1.14-1.33-2.6-1.84-3.98c-4.06-11.7-9.83-22.75-16.93-32.18c0.7,10.16,1.46,20.31,2.09,30.47
			c0.19,2.52,0.19,5.12,0.51,7.72c0.19,1.79,0.89,3.25,1.14,4.96c0.32,1.87,0.25,1.63-0.89,2.03c-1.2,0.49-3.36,0.97-4.69,0.89
			c-3.23-0.16-3.3-6.09-3.49-8.94C622.87,466.86,622.81,465.8,622.81,464.67z"/>
	</g>
	<g>
		<path class="st1" d="M421.4,577.88c-0.39,1.18-0.78,2.28-1.17,3.31c-0.39,1.03-0.88,2.18-1.46,3.45
			c-0.59,1.27-1.33,2.65-2.22,4.12c-0.9,1.47-1.89,2.92-2.98,4.34c-1.09,1.42-2.38,2.77-3.86,4.04c-1.48,1.27-3.04,2.4-4.68,3.38
			c-1.64,0.98-3.51,1.76-5.62,2.35c-2.11,0.59-4.33,0.83-6.67,0.73c-3.98,0.1-7.65-0.83-11-2.79c-3.36-1.96-6.19-4.65-8.49-8.08
			c-2.3-3.43-4.27-7.42-5.91-11.98c-1.64-4.56-2.85-9.33-3.63-14.33c-0.78-5-1.21-10.14-1.29-15.43
			c0.23-15.29,3.18-27.68,8.84-37.19c5.66-9.5,13.48-14.26,23.47-14.26c3.82-0.39,7.76,0.64,11.82,3.09
			c4.06,2.45,7.45,5.51,10.18,9.19c2.73,3.67,4.64,7.33,5.73,10.95c0.86,1.47,0.33,3.38-1.58,5.73c-1.91,2.35-4.08,4.29-6.5,5.81
			c-2.42,1.52-3.79,2.08-4.1,1.69c-2.97-3.43-5.78-5.61-8.43-6.54c-2.65-0.93-4.9-0.76-6.73,0.52c-1.83,1.27-3.42,3.11-4.74,5.51
			c-1.33,2.4-2.32,5-2.98,7.79c-0.66,2.79-0.99,5.42-0.99,7.86c0,4.61,0.35,8.67,1.05,12.2c0.7,3.53,1.72,6.27,3.04,8.23
			c1.33,1.96,2.85,3.11,4.56,3.45c1.72,0.34,3.71-0.42,5.97-2.28c2.26-1.86,4.6-4.75,7.02-8.67c1.25-1.67,3.1-1.64,5.56,0.07
			c2.46,1.72,4.52,4.04,6.2,6.98C421.5,574.05,422.02,576.31,421.4,577.88z"/>
		<path class="st1" d="M432.17,533.34c0.31-1.57,2.79-2.37,7.43-2.43c4.64-0.05,8.02,0.42,10.12,1.4c-0.08,4.21-0.2,7.3-0.35,9.26
			c0.47-0.39,1.17-1,2.11-1.84c0.94-0.83,1.83-1.64,2.69-2.42c0.86-0.78,1.83-1.64,2.93-2.57c1.09-0.93,2.15-1.71,3.16-2.35
			c1.01-0.64,2.03-1.15,3.04-1.54c1.01-0.39,2.01-0.54,2.99-0.44c0.97,0.1,1.85,0.44,2.63,1.03c2.89,2.45,5.93,6.25,9.13,11.39
			c3.2,5.14,4.29,8.84,3.28,11.1c-1.33,3.14-2.63,5.19-3.92,6.17c-1.29,0.98-2.56,1.1-3.8,0.37c-1.25-0.73-2.52-1.69-3.8-2.87
			c-1.29-1.18-2.83-2.2-4.62-3.09c-1.8-0.88-3.59-1.03-5.38-0.44c-2.65,0.69-4.78,2.52-6.38,5.51c-1.6,2.99-2.62,6.59-3.04,10.8
			c-0.43,4.21-0.66,8.28-0.7,12.2c-0.04,3.92,0.02,7.81,0.18,11.69c0.16,3.87,0.19,6.3,0.12,7.28c-0.08,1.37-1.54,2.23-4.39,2.57
			c-2.85,0.34-5.72,0.12-8.6-0.66c-2.89-0.79-4.49-1.76-4.8-2.94c-0.78-3.72-1.11-15.11-0.99-34.17
			C431.29,547.28,431.62,536.28,432.17,533.34z"/>
		<path class="st1" d="M508.72,534.37c0.94,2.35,1.46,8.6,1.58,18.74s-0.02,19.99-0.41,29.54c-0.39,9.55-0.78,15.8-1.17,18.74
			c-0.16,1.47-3.14,2.4-8.95,2.79c-5.81,0.39-8.99-0.1-9.54-1.47c-1.25-3.53-1.83-14.94-1.76-34.25c0.08-19.3,0.66-30.67,1.76-34.1
			c0.39-0.98,1.5-1.74,3.34-2.28c1.83-0.54,3.8-0.78,5.91-0.73c2.11,0.05,4.1,0.34,5.97,0.88
			C507.31,532.78,508.4,533.49,508.72,534.37z M508.72,522.76c-0.39,1.67-1.97,2.77-4.74,3.31c-2.77,0.54-5.48,0.57-8.13,0.07
			c-2.65-0.49-4.17-1.18-4.56-2.06c-1.33-1.67-1.33-8.97,0-21.9c1.17-1.47,4.25-2.25,9.25-2.35c4.99-0.1,7.69,0.83,8.08,2.79
			C509.85,511.73,509.89,518.45,508.72,522.76z"/>
		<path class="st1" d="M564.78,582.58c-0.08,4.51-0.74,8.33-1.99,11.46c-1.25,3.14-2.99,5.49-5.21,7.06
			c-2.22,1.57-4.53,2.69-6.91,3.38c-2.38,0.68-5.09,1.03-8.13,1.03c-1.72-0.29-3.47-0.71-5.27-1.25c-1.8-0.54-3.84-1.3-6.14-2.28
			c-2.3-0.98-4.29-2.15-5.97-3.53c-1.68-1.37-3.1-2.91-4.27-4.63c-1.17-1.71-1.7-3.77-1.58-6.17c0.12-2.4,0.95-4.97,2.52-7.72
			c1.17-2.06,2.73-3.11,4.68-3.16c1.95-0.05,3.92,0.59,5.91,1.91c1.99,1.32,4.06,2.65,6.2,3.97c2.14,1.32,3.96,2.33,5.44,3.01
			c1.48,0.69,2.77,0.44,3.86-0.73c0.55-0.78,0.47-1.57-0.23-2.35c-0.7-0.78-1.85-1.59-3.45-2.43c-1.6-0.83-3.45-1.76-5.56-2.79
			c-2.11-1.03-4.21-2.2-6.32-3.53c-2.11-1.32-4.1-2.79-5.97-4.41c-1.87-1.62-3.32-3.58-4.33-5.88c-1.02-2.3-1.52-4.83-1.52-7.57
			c0-2.74,0.88-5.98,2.63-9.7c1.76-3.72,4.39-7.69,7.9-11.91c3.9-3.62,8.37-5.05,13.4-4.26c5.03,0.79,9.4,3.23,13.11,7.35
			c3.7,4.12,4.74,7.99,3.1,11.61c-1.09,2.45-2.4,4.04-3.92,4.78s-3.03,0.79-4.51,0.15c-1.48-0.64-2.98-1.4-4.51-2.28
			c-1.52-0.88-2.87-1.74-4.04-2.57c-1.17-0.83-2.17-1.1-2.98-0.81c-0.82,0.29-1.31,1.32-1.46,3.09c-0.16,1.67,0.62,3.31,2.34,4.92
			c1.72,1.62,3.84,3.19,6.38,4.7c2.53,1.52,5.09,3.21,7.67,5.07c2.58,1.86,4.74,4.21,6.5,7.06
			C563.9,576.02,564.78,579.15,564.78,582.58z"/>
		<path class="st1" d="M609.73,560.09c-0.16,0.39-0.37,0.71-0.64,0.96c-0.27,0.25-0.59,0.42-0.94,0.51
			c-0.35,0.1-0.74,0.17-1.17,0.22c-0.43,0.05-0.94,0.07-1.52,0.07s-1.13-0.02-1.64-0.07c-0.51-0.05-1.11-0.1-1.81-0.15
			c-0.7-0.05-1.37-0.07-1.99-0.07c0,0.1-0.04,0.71-0.12,1.84c-0.08,1.13-0.16,2.26-0.23,3.38c-0.08,1.13-0.1,2.45-0.06,3.97
			c0.04,1.52,0.16,2.89,0.35,4.12c0.19,1.23,0.55,2.33,1.05,3.31c0.51,0.98,1.15,1.62,1.93,1.91c0.78,0.29,1.81,0.15,3.1-0.44
			c1.29-0.59,2.79-1.71,4.51-3.38c0.7-0.68,1.79,0.42,3.28,3.31c1.48,2.89,2.58,5.86,3.28,8.89c0.7,3.04,0.62,5.19-0.23,6.47
			c-2.19,1.86-4.53,3.55-7.02,5.07c-2.5,1.52-5.13,2.79-7.9,3.82c-2.77,1.03-5.44,1.37-8.02,1.03c-2.58-0.34-4.72-1.45-6.44-3.31
			c-1.87-2.15-3.45-5.02-4.74-8.6c-1.29-3.58-2.15-7.18-2.58-10.8c-0.43-3.62-0.72-7.4-0.88-11.32c-0.16-3.92-0.08-7.3,0.23-10.14
			c-0.86-0.1-1.95-0.15-3.28-0.15c-1.33,0-2.32-0.02-2.98-0.07c-0.66-0.05-1.29-0.27-1.87-0.66c-0.59-0.39-0.99-0.98-1.23-1.76
			c-0.08-0.59-0.12-1.64-0.12-3.16c0-1.52,0.06-2.94,0.18-4.26c0.12-1.32,0.23-2.96,0.35-4.92c0.12-1.96,0.18-3.62,0.18-5
			c0-0.98,0.66-1.64,1.99-1.98c1.33-0.34,3.28-0.61,5.85-0.81c0.7,0,1.25,0,1.64,0c0.08-1.67-0.04-7.5-0.35-17.49
			c-0.31-10-0.31-15.68,0-17.05c0.31-2.35,2.11-3.77,5.38-4.26c3.28-0.49,6.53-0.22,9.77,0.81c3.24,1.03,5.05,2.18,5.44,3.45
			c0.62,1.96,0.72,7.59,0.29,16.9c-0.43,9.31-0.45,14.99-0.06,17.05c0,0.1,1.46,0.1,4.39,0c2.93-0.1,4.47,0.2,4.62,0.88
			c0.47,2.26,0.7,6.13,0.7,11.61C610.43,555.29,610.19,558.72,609.73,560.09z"/>
		<path class="st1" d="M681.01,568.91c0.47,12.94-3.24,22.69-11.12,29.25c-6.63,5.39-14.28,7.2-22.94,5.44
			c-8.74-1.76-15.29-6.66-19.66-14.7c-3.28-6.17-4.68-13.42-4.21-21.75c-0.08-8.82,1.81-16.31,5.68-22.49
			c3.86-6.17,8.58-10.02,14.16-11.54c5.58-1.52,11.18-1.57,16.8-0.15c5.62,1.42,10.49,5.34,14.63,11.76
			C678.47,551.15,680.69,559.21,681.01,568.91z M653.38,583.76c2.65-0.68,4.93-2.52,6.85-5.51c1.91-2.99,2.44-7.08,1.58-12.27
			c-0.08-0.29-0.2-1.13-0.35-2.5c-0.16-1.37-0.31-2.55-0.47-3.53c-0.16-0.98-0.53-2.15-1.11-3.53c-0.59-1.37-1.29-2.47-2.11-3.31
			c-0.82-0.83-1.99-1.47-3.51-1.91c-1.52-0.44-3.34-0.56-5.44-0.37c-1.8,0.29-3.3,1.23-4.51,2.79c-1.21,1.57-1.99,3.31-2.34,5.22
			c-0.35,1.91-0.63,3.8-0.82,5.66c-0.2,1.86-0.18,3.19,0.06,3.97c0.55,5.19,1.95,9.21,4.21,12.05
			C647.69,583.37,650.34,584.44,653.38,583.76z"/>
	</g>
	<g>
		<path class="st1" d="M399.96,699.18c-0.41-0.57-0.73-1.22-1.22-1.79c-0.49-0.33-0.98-0.73-1.46-1.06
			c-0.49-0.33-0.89-0.49-1.22-0.65c0,0.08,0,0.08,0,0.08c0,0.08,0,0.24-0.08,0.41c-0.33,0.49-0.65,1.06-1.14,1.46
			c-2.03,1.79-4.14,3.58-6.5,5.12c-1.06,0.73-2.6,0.81-3.9,0.65c-1.95-0.33-3.98-0.65-5.85-1.3c-1.79-0.57-2.93-1.87-3.9-3.33
			c-2.36-3.66-3.9-7.64-5.04-11.54c-1.14-3.82-1.54-7.8-2.44-11.78c-0.33-4.96,0.65-9.59,0.73-14.38
			c0.24-8.94,4.23-15.84,8.37-22.59c2.03-3.33,4.96-5.69,8.77-6.99c1.46-0.49,2.36-0.32,3.58,0.33c2.76,1.54,5.85,3.33,5.69,7.48
			c-0.08,1.22,0.65,2.11,1.62,3.01c3.41,3.01,4.63,6.66,5.04,10.73c0.24,2.03,1.06,4.14,1.3,6.18c0.41,2.76,0.32,5.53,0.08,8.21
			s-0.65,5.28-0.89,7.96c-0.33,4.23-1.22,8.21-2.68,12.11c-0.57,1.46-0.49,2.6,0.81,3.66c1.54,1.3,3.17,2.68,4.55,4.06
			c0.73,0.81,1.46,1.95,1.38,2.84c0,1.22-1.14,2.11-1.87,2.52C402.07,701.37,400.69,700.07,399.96,699.18z M397.36,661.56
			c-0.57-2.84-0.89-5.61-1.62-8.45c-0.57-2.19-1.22-4.23-2.44-6.01c-0.57-0.81-1.22-1.62-1.71-2.44c-0.57-0.89-1.06-1.79-1.46-2.84
			c-0.24-0.73-0.57-1.38-0.98-1.95c-0.33-0.65-0.73-1.3-1.22-1.95c-0.65-0.89-0.98-0.89-1.54-0.49c-0.89,0.81-2.03,1.54-3.01,2.27
			c-0.98,0.73-1.79,1.46-2.36,2.28c-3.49,5.28-6.42,10.81-7.39,17.23c-0.24,1.87-0.41,3.74-0.49,5.69
			c-0.24,3.41-0.24,6.74-0.41,9.91c0.81,6.34,2.84,12.11,5.36,17.88c0.57,1.3,1.54,2.44,2.6,3.66c1.54,1.62,3.74,2.27,4.79,1.71
			c2.28-1.3,4.71-2.52,5.77-5.12c0.49-1.06,0.41-1.46-0.49-2.11c-0.81-0.65-1.62-1.22-2.44-1.87c-0.81-0.57-1.62-1.22-2.36-1.95
			c-1.79-1.62-1.54-2.76-0.24-4.55c0.73-0.89,1.46-1.14,2.36-0.98c0.65,0.08,1.22,0.49,1.79,0.81c0.57,0.33,0.98,0.73,1.38,1.14
			c0.41,0.33,0.81,0.65,1.22,1.06c1.38,1.06,1.46,1.14,1.87-0.16c0.98-3.41,1.54-6.91,1.95-10.4c0.49-3.66,0.73-7.23,1.22-10.81
			c0-0.24,0-0.49-0.08-0.73C397.44,662.13,397.36,661.8,397.36,661.56z"/>
		<path class="st1" d="M432.95,695.52c-0.81-1.71-0.65-3.57-0.57-5.2c0.41-6.74,0.73-13.08,1.06-19.99l1.46,0.49
			c-0.57,0.73-0.73,0.98-0.81,1.3c0,0.16-0.08,0.32-0.08,0.49c0,0.24-0.08,0.49-0.16,0.81c-0.41,2.11-0.41,4.31-1.14,6.34
			c-1.22,3.33-2.68,6.26-3.98,9.51c-2.11,5.28-8.37,7.88-13.98,6.91c-2.11-0.33-3.49-1.71-4.14-3.49c-0.89-2.27-1.54-4.71-1.95-7.07
			c-0.57-3.01-0.49-6.18-1.14-9.18c-0.81-3.41-0.89-6.99-0.89-10.24s0.16-6.26,0.08-8.78c-0.32-6.18-0.08-10.48,0-15.03
			c0-0.89,0.16-1.79,0.33-2.68c0.16-0.89,0.33-1.62,0.33-2.36c0-0.81-0.24-1.54-0.08-2.36c0.24-1.06,0.98-1.71,2.36-1.79
			c2.44-0.24,3.09,1.95,3.33,3.82c0.41,2.6,0.08,5.2-0.24,7.72c-0.32,2.44-0.73,4.96-0.41,7.39c0.33,2.76,0.24,5.52,0.08,8.29
			c-0.08,2.76-0.08,5.44,0.49,8.04c0.16,0.73,0.16,1.46,0.16,2.11c0,0.57-0.08,1.22,0,1.87c0.73,4.88,1.3,9.91,2.19,14.79
			c0.16,0.81,0.33,1.62,0.65,2.36c0.33,0.57,0.81,1.06,1.62,1.14c2.52,0.41,4.71-0.24,5.77-2.19c2.93-5.53,5.69-10.73,6.18-17.06
			c0.33-3.66,1.06-7.31,1.79-11.05c0.08-0.57,0.16-1.14,0.24-1.71c0.08-0.57,0.08-1.14,0.08-1.79c-0.41-4.55-0.33-8.86-0.33-13.33
			c0-2.76,0.57-5.28,2.52-7.56c2.11-2.52,4.23-0.49,4.31,1.79c0.08,1.87-0.32,3.66-0.32,5.53c0,3.17,0.16,6.18,0,9.34
			c-0.08,1.79,0.16,3.49,0.32,5.2c0.16,1.79,0.24,3.66-0.08,5.44c-0.24,1.62-0.08,3.17,0.08,4.96c0.16,1.87,0.41,3.74,0.33,5.93
			c-0.16,4.06-0.57,6.83-0.89,10.32c-0.08,0.65-0.32,2.19-0.32,3.58c-0.08,1.46,0.16,2.68,0.81,2.92c0.41,0.16,1.14,0,1.62,0
			c0.65-0.16,1.54,0,2.36,0.57c2.19,2.36,0,4.88-2.03,5.85C437.74,698.53,434.33,698.61,432.95,695.52z"/>
		<path class="st1" d="M466.5,642.63c-1.06-0.08-1.79-1.14-2.44-1.95c-0.33-0.32-0.41-0.81-0.49-1.14c0-0.24,0.08-0.49,0.08-0.73
			c0-0.49-0.16-0.73-1.14-0.73c-0.89,0.08-1.62,0-2.52,0c-2.36,0.24-4.71,0.49-6.91,0.73c-2.28,0.33-2.68,1.06-2.52,2.11
			c0.65,3.66,0.89,7.31,0.81,11.05c0,3.58-0.32,7.23-0.16,10.81c0,0.89,0.08,1.22,0.33,1.38c0.16,0.08,0.33,0.16,0.65,0.16
			c0.33,0.08,0.73,0,1.22,0c0.24,0,0.57,0,0.89,0c0.32,0,0.65,0,0.98,0.08c1.38,0,1.46-0.33,1.38-1.06c-0.16-0.89,0-2.93,2.27-2.52
			c1.14,0.16,2.19,1.3,2.52,2.11c0.16,0.73,0.24,1.38,0.24,2.03c0,0.57,0,1.06,0.08,1.62c0.33,1.79,0.33,3.49,0.57,5.36
			c0.16,1.79-0.49,3.17-2.44,3.25c-0.98,0-1.62-0.33-2.11-0.89c-0.32-0.41-0.57-0.89-0.73-1.38c-0.24-0.33-0.24-0.73-0.24-0.89
			s0-0.24,0-0.33c0-0.08,0-0.08,0-0.08c-0.32-1.54-0.73-1.95-2.44-2.19c-2.68-0.41-3.41,0.24-3.74,1.95
			c-0.32,1.79-0.24,3.41-0.24,5.2v7.64h-0.08v9.83c0,0.98,0.16,1.14,0.98,0.98c3.66-0.57,7.39-1.06,11.05-1.71
			c1.14-0.16,1.38-0.57,1.38-1.14c-0.08-0.33-0.16-0.81,0.16-1.22c0.08-0.24,0.16-0.49,0.24-0.89s0.08-0.89,0.24-1.3
			c0.33-0.98,0.98-1.95,2.6-1.71c1.62,0.16,1.79,1.46,1.79,2.36c-0.08,0.33-0.16,0.81-0.16,1.22c-0.08,0.33-0.08,0.57,0,0.81
			l0.73,3.49c0.33,1.46-0.41,2.84-2.27,3.01c-5.53,0.32-11.05,1.3-16.66,1.79c-0.81,0.08-1.87,0.24-2.84,0.32
			c-1.06,0.08-2.19,0-3.09-0.57c-1.22-0.73-1.38-1.87-1.3-2.92c0-0.41,0.16-0.89,0.24-1.38c0.08-0.41,0.24-0.73,0.33-1.14
			c0.24-1.54,0.33-2.92,0.49-4.47c0.41-3.17,0.57-6.09,0.57-9.1c0-6.5,0.81-12.68,1.22-19.18c0.16-3.09-0.32-5.93-0.41-9.1
			l-0.24-8.21c0-0.89,0-1.79-0.08-2.76c-0.16-0.73-0.41-1.46-0.57-2.19c-0.24-0.73-0.41-1.71,0-2.68c1.14-3.01,6.83-2.44,9.34-2.76
			c3.17-0.49,6.5-0.73,9.75-1.22c3.82-0.65,5.44,0,5.77,3.74c0.08,1.38,0.24,3.01-0.16,4.47
			C469.1,641.57,467.56,642.63,466.5,642.63z"/>
		<path class="st1" d="M536.7,692.27c-0.33,0-0.65-0.08-1.06-0.08c-2.6,0.08-5.28,0-7.88,0.32c-2.03,0.33-2.68-0.89-3.17-1.87
			c-0.81-1.87,0.65-2.68,1.95-3.01c0.89-0.24,1.06-0.41,1.06-1.06c-0.24-4.88,0-9.83-0.24-14.71c-0.24-4.47-0.98-9.02-1.38-13.65
			c-0.41-5.44-0.65-10.64-0.89-16.25c-0.08-0.24-0.08-0.49-0.08-0.81c-2.27,3.17-2.84,6.99-3.98,10.64
			c-0.49,1.71-0.89,3.41-1.38,5.2c-0.24,0.98-0.57,1.87-0.81,2.84c-0.24,0.89-0.33,1.79-0.24,2.68c0.24,1.62-0.32,2.92-2.03,3.25
			c-1.87,0.41-3.01-0.65-3.49-2.19c-0.41-1.22-0.81-2.19-1.3-3.25c-1.71-3.82-3.9-7.23-6.66-10.48c-1.3-1.54-2.6-3.01-3.9-4.55
			h-0.08v-0.24l0.08,0.08l0.16,0.08c0.49,4.79,0.81,9.51,1.46,14.38c0.65,5.2,1.54,10.4,2.19,15.6c0.57,4.14,0.57,8.04,0.89,12.19
			c0.08,1.06,0.16,2.03,0.41,3.09c0.24,0.81,0.57,1.14,1.3,1.06c1.3-0.24,2.68-0.16,3.9,0c1.3,0.24,3.09,1.71,2.11,3.41
			c-0.49,0.81-1.71,1.71-2.76,1.62c-3.82-0.24-7.56,0.65-11.29,1.38c-0.49,0.08-0.89,0.24-1.38,0.16c-0.49,0-0.98-0.16-1.46-0.57
			c-0.65-0.73-1.06-1.62-1.06-2.52c0-0.65,0.81-1.46,1.62-1.87c0.41-0.16,0.81-0.16,1.3-0.16c0.24,0,0.49,0,0.73-0.08
			c0.89-0.24,1.14-0.41,1.14-1.06c-0.33-4.55-0.33-8.94-0.65-13.49c-0.24-3.01-0.65-6.01-0.97-9.02c-0.33-3.49-0.49-7.07-0.89-10.56
			c-0.65-4.88-1.54-9.51-2.19-14.38c-0.24-1.71,0-3.41-0.24-5.12c-0.24-1.22-0.41-1.38-1.54-1.22c-0.57,0.16-1.22,0.41-1.87,0.49
			c-2.03,0.41-3.41-0.41-3.74-2.52c-0.24-2.03,0.89-3.17,2.76-3.49c0.65-0.16,1.3-0.16,1.87-0.24c0.57,0,1.06-0.08,1.54-0.24
			c3.33-1.14,4.96,0.49,6.09,2.68c2.44,4.88,6.09,9.02,9.18,13.57l4.88,7.15c0.08,0.16,0.24,0.24,0.41,0.41
			c-0.08-0.16,0-0.32,0.08-0.49c1.3-3.58,2.28-7.23,3.58-10.81c1.87-4.96,4.23-9.51,7.23-13.73c0.98-1.38,2.44-1.71,4.06-1.22
			c0.57,0.16,1.14,0.16,1.71,0.24c0.65,0,1.38,0.08,2.11,0.33c0.89,0.33,2.27,1.79,2.11,2.27c-0.16,0.65-0.49,1.14-0.73,1.54
			c-0.33,0.41-0.65,0.81-0.98,1.3c-0.24,0.24-0.41,0.33-0.57,0.33c-0.08,0-0.24,0-0.33,0c-0.57,0.08-1.22,0-1.87,0
			c-0.08,0-0.24,0-0.41-0.08c-0.24,0.49-0.33,1.06-0.41,1.62c-0.08,0.65,0,1.22-0.08,1.87c-0.16,7.39,0.57,14.38,1.46,21.61
			c0.65,5.44,0.49,10.73,0.89,16.25l0.81,10.16c0.16,0.41,0.33,0.49,0.73,0.24c1.79-0.81,3.41-0.57,4.79,0.89
			c1.22,1.3,0.98,3.49-1.14,3.9C537.6,692.27,537.19,692.27,536.7,692.27z"/>
		<path class="st1" d="M563.11,642.63c-1.06-0.08-1.79-1.14-2.44-1.95c-0.33-0.32-0.41-0.81-0.49-1.14c0-0.24,0.08-0.49,0.08-0.73
			c0-0.49-0.16-0.73-1.14-0.73c-0.89,0.08-1.62,0-2.52,0c-2.36,0.24-4.71,0.49-6.91,0.73c-2.28,0.33-2.68,1.06-2.52,2.11
			c0.65,3.66,0.89,7.31,0.81,11.05c0,3.58-0.32,7.23-0.16,10.81c0,0.89,0.08,1.22,0.33,1.38c0.16,0.08,0.33,0.16,0.65,0.16
			c0.33,0.08,0.73,0,1.22,0c0.24,0,0.57,0,0.89,0c0.32,0,0.65,0,0.98,0.08c1.38,0,1.46-0.33,1.38-1.06c-0.16-0.89,0-2.93,2.27-2.52
			c1.14,0.16,2.19,1.3,2.52,2.11c0.16,0.73,0.24,1.38,0.24,2.03c0,0.57,0,1.06,0.08,1.62c0.33,1.79,0.33,3.49,0.57,5.36
			c0.16,1.79-0.49,3.17-2.44,3.25c-0.98,0-1.62-0.33-2.11-0.89c-0.32-0.41-0.57-0.89-0.73-1.38c-0.24-0.33-0.24-0.73-0.24-0.89
			s0-0.24,0-0.33c0-0.08,0-0.08,0-0.08c-0.32-1.54-0.73-1.95-2.44-2.19c-2.68-0.41-3.41,0.24-3.74,1.95
			c-0.33,1.79-0.24,3.41-0.24,5.2v7.64h-0.08v9.83c0,0.98,0.16,1.14,0.98,0.98c3.66-0.57,7.39-1.06,11.05-1.71
			c1.14-0.16,1.38-0.57,1.38-1.14c-0.08-0.33-0.16-0.81,0.16-1.22c0.08-0.24,0.16-0.49,0.24-0.89s0.08-0.89,0.24-1.3
			c0.33-0.98,0.98-1.95,2.6-1.71c1.62,0.16,1.79,1.46,1.79,2.36c-0.08,0.33-0.16,0.81-0.16,1.22c-0.08,0.33-0.08,0.57,0,0.81
			l0.73,3.49c0.33,1.46-0.41,2.84-2.27,3.01c-5.53,0.32-11.05,1.3-16.66,1.79c-0.81,0.08-1.87,0.24-2.84,0.32
			c-1.06,0.08-2.19,0-3.09-0.57c-1.22-0.73-1.38-1.87-1.3-2.92c0-0.41,0.16-0.89,0.24-1.38c0.08-0.41,0.24-0.73,0.33-1.14
			c0.24-1.54,0.33-2.92,0.49-4.47c0.41-3.17,0.57-6.09,0.57-9.1c0-6.5,0.81-12.68,1.22-19.18c0.16-3.09-0.32-5.93-0.41-9.1
			l-0.24-8.21c0-0.89,0-1.79-0.08-2.76c-0.16-0.73-0.41-1.46-0.57-2.19c-0.24-0.73-0.41-1.71,0-2.68c1.14-3.01,6.83-2.44,9.34-2.76
			c3.17-0.49,6.5-0.73,9.75-1.22c3.82-0.65,5.44,0,5.77,3.74c0.08,1.38,0.24,3.01-0.16,4.47
			C565.71,641.57,564.16,642.63,563.11,642.63z"/>
	</g>
	<g>
		<path class="st1" d="M373.63,721.13h45.5v23.73H389.4v16.61h26.89v22.47H389.4v34.89h-15.76V721.13z"/>
		<path class="st1" d="M422.38,781.43v-0.28c0-21.49,10.24-39.5,24.38-39.5c14.06,0,24.21,17.73,24.21,39.22v0.28
			c0,21.5-10.24,39.5-24.38,39.5C432.54,820.65,422.38,802.92,422.38,781.43z M455.94,781.43v-0.28c0-9.21-3.9-17.03-9.34-17.03
			c-5.61,0-9.18,7.68-9.18,16.75v0.28c0,9.21,3.9,17.03,9.34,17.03C452.36,798.18,455.94,790.5,455.94,781.43z"/>
		<path class="st1" d="M477.47,743.32h15.44v15.21c2.52-10.33,6.58-17.03,13.89-16.47v27.92h-1.3c-8.04,0-12.59,7.96-12.59,25.4
			v23.45h-15.44V743.32z"/>
		<path class="st1" d="M514.93,795.38v-30.71h-5.2v-21.36h5.2V724.2h15.44v19.12h10.24v21.36h-10.24v25.54
			c0,5.3,1.38,7.54,4.23,7.54c2.03,0,3.98-0.98,5.85-2.51v20.8c-2.76,2.65-6.42,4.33-10.73,4.33
			C520.45,820.37,514.93,813.39,514.93,795.38z"/>
		<path class="st1" d="M545.07,797.2v-0.28c0-15.63,6.91-23.73,17.23-23.73c4.06,0,8.04,1.4,10.56,2.93v-1.26
			c0-7.82-2.84-12.28-8.78-12.28c-4.63,0-8.21,1.54-12.11,4.19l-3.17-18.7c4.96-3.49,10.24-5.86,17.79-5.86
			c7.88,0,13.24,3.21,16.74,9.21c3.33,5.58,4.71,13.4,4.71,24.01v43.41h-15.28v-7.82c-3.01,5.72-7.15,9.49-12.92,9.49
			C551.49,820.51,545.07,812.27,545.07,797.2z M573.02,791.48v-3.49c-1.54-1.12-3.74-1.95-6.01-1.95c-4.47,0-7.07,3.77-7.07,9.35
			v0.28c0,5.16,2.27,8.24,5.44,8.24C569.85,803.9,573.02,799.01,573.02,791.48z"/>
		<path class="st1" d="M596.26,716.94h15.44v101.89h-15.44V716.94z"/>
		<path class="st1" d="M618.52,781.43v-0.28c0-22.05,9.18-39.5,22.18-39.5c15.19,0,22.18,19.12,22.18,41.32c0,1.67,0,3.63-0.08,5.44
			h-29.41c1.22,8.24,4.71,12.42,9.51,12.42c3.66,0,6.58-2.37,9.75-7.68l8.53,12.14c-4.23,9.21-10.32,15.35-19.09,15.35
			C628.27,820.65,618.52,804.88,618.52,781.43z M648.42,774.87c-0.57-8.37-3.41-13.68-7.64-13.68c-4.06,0-6.83,5.44-7.64,13.68
			H648.42z"/>
		<path class="st1" d="M667.68,781.43v-0.28c0-21.36,9.67-39.36,23.56-39.36c9.02,0,15.03,6.7,18.77,16.89l-10.48,13.4
			c-2.11-5.03-4.47-7.96-8.21-7.96c-4.96,0-8.61,7.54-8.61,16.75v0.28c0,9.77,3.58,17.17,8.78,17.17c3.66,0,6.01-2.93,8.45-7.82
			l10.32,12.84c-4.06,10.33-9.91,17.31-19.58,17.31C677.43,820.65,667.68,802.78,667.68,781.43z"/>
		<path class="st1" d="M712.69,781.43v-0.28c0-22.05,9.18-39.5,22.18-39.5c15.19,0,22.18,19.12,22.18,41.32c0,1.67,0,3.63-0.08,5.44
			h-29.41c1.22,8.24,4.71,12.42,9.51,12.42c3.66,0,6.58-2.37,9.75-7.68l8.53,12.14c-4.23,9.21-10.32,15.35-19.09,15.35
			C722.44,820.65,712.69,804.88,712.69,781.43z M742.59,774.87c-0.57-8.37-3.41-13.68-7.64-13.68c-4.06,0-6.83,5.44-7.64,13.68
			H742.59z"/>
	</g>
	<g>
		<path class="st1" d="M444.33,326.88c-0.29-0.25-0.37-0.59-0.52-0.9c-1.65-3.26-3.95-5.96-6.81-8.25c-2.32-1.86-4.28-4.07-5.4-6.89
			c-1.41-3.56,0.21-6.9,3.86-8.03c3.79-1.17,6.72,0.07,8.54,3.59c0.07,0.14,0.15,0.27,0.28,0.49c0.28-0.49,0.5-0.93,0.76-1.35
			c1.44-2.41,3.78-3.48,6.65-3.06c2.94,0.43,5.05,2.17,5.63,4.7c0.4,1.77-0.16,3.38-0.98,4.9c-1.25,2.31-2.98,4.23-5.02,5.83
			c-3,2.36-5.26,5.26-6.84,8.72C444.44,326.72,444.38,326.8,444.33,326.88z"/>
	</g>
	<g>
		<path class="st1" d="M607.07,679.95c-0.29-0.25-0.37-0.59-0.52-0.9c-1.65-3.26-3.95-5.96-6.81-8.25c-2.32-1.86-4.28-4.07-5.4-6.89
			c-1.41-3.56,0.21-6.9,3.86-8.03c3.79-1.17,6.72,0.07,8.54,3.59c0.07,0.14,0.15,0.27,0.28,0.49c0.28-0.49,0.5-0.93,0.76-1.35
			c1.44-2.41,3.78-3.48,6.65-3.06c2.94,0.43,5.05,2.17,5.63,4.7c0.4,1.77-0.16,3.38-0.98,4.9c-1.25,2.31-2.98,4.23-5.02,5.83
			c-3,2.36-5.26,5.26-6.84,8.72C607.18,679.79,607.12,679.87,607.07,679.95z"/>
	</g>
	<g>
		<path class="st1" d="M648.48,710.38c-0.29-0.25-0.37-0.59-0.52-0.9c-1.65-3.26-3.95-5.96-6.81-8.25c-2.32-1.86-4.28-4.07-5.4-6.89
			c-1.41-3.56,0.21-6.9,3.86-8.03c3.79-1.17,6.72,0.07,8.54,3.59c0.07,0.14,0.15,0.27,0.28,0.49c0.28-0.49,0.5-0.93,0.76-1.35
			c1.44-2.41,3.78-3.48,6.65-3.06c2.94,0.43,5.05,2.17,5.63,4.7c0.4,1.77-0.16,3.38-0.98,4.9c-1.25,2.31-2.98,4.23-5.02,5.83
			c-3,2.36-5.26,5.26-6.84,8.72C648.59,710.22,648.53,710.29,648.48,710.38z"/>
	</g>
	<g>
		<path class="st1" d="M501.88,327.66c-0.15-0.35-0.07-0.7-0.07-1.04c-0.04-3.65-0.89-7.09-2.44-10.41
			c-1.25-2.69-2.02-5.55-1.78-8.57c0.31-3.82,3.25-6.09,7.03-5.48c3.91,0.64,5.99,3.04,6.05,7.01c0,0.16,0.02,0.31,0.03,0.56
			c0.47-0.32,0.86-0.61,1.28-0.88c2.36-1.52,4.93-1.45,7.32,0.21c2.44,1.69,3.56,4.19,2.96,6.71c-0.43,1.76-1.64,2.96-3.06,3.96
			c-2.14,1.51-4.55,2.46-7.09,3c-3.74,0.78-7.05,2.38-10,4.78C502.05,327.56,501.97,327.6,501.88,327.66z"/>
	</g>
	<g>
		<path class="st1" d="M539.6,356.36c-0.15-0.35-0.07-0.7-0.07-1.04c-0.04-3.65-0.89-7.09-2.44-10.41
			c-1.25-2.69-2.02-5.55-1.78-8.57c0.31-3.82,3.25-6.09,7.03-5.48c3.91,0.64,5.99,3.04,6.05,7.01c0,0.16,0.02,0.31,0.03,0.56
			c0.47-0.32,0.86-0.61,1.28-0.88c2.36-1.52,4.93-1.45,7.32,0.21c2.44,1.69,3.56,4.19,2.96,6.71c-0.43,1.76-1.64,2.96-3.06,3.96
			c-2.14,1.51-4.55,2.46-7.09,3c-3.74,0.78-7.05,2.38-10,4.78C539.77,356.27,539.68,356.31,539.6,356.36z"/>
	</g>
	<g>
		<path class="st1" d="M269.8,898.55c0.26-2.77,0.43-4.99,0.51-6.67c0.16-2.81,0.32-6.83,0.49-12.07c0.13-3.87,0.19-6.6,0.19-8.19
			v-1.97c4.05,0.03,7.59,0.04,10.63,0.04l5.93-0.02l3.54-0.02c-0.16,2.1-0.24,3.63-0.25,4.57l-3.03-0.11l-1.23-0.02h-1.65h-3.22
			l-4.38,0.02l-0.26,7.6l3.6,0.06c2.74,0,4.5-0.01,5.27-0.02l2.88-0.04c-0.1,1.64-0.16,3.13-0.19,4.49
			c-2.46-0.06-4.41-0.08-5.86-0.08c-1.83,0-3.82,0.03-5.95,0.08l-0.23,9.36l-0.02,1.91v1.08l-3.24-0.04
			C273.14,898.51,271.97,898.53,269.8,898.55z"/>
		<path class="st1" d="M294.17,898.55c0.22-2.12,0.37-3.89,0.45-5.31c0.14-2.26,0.27-4.86,0.38-7.81c0.11-2.95,0.18-5.75,0.23-8.41
			c1.38,0.03,2.41,0.04,3.09,0.04c0.63,0,1.66-0.01,3.07-0.04c-0.19,2.46-0.34,4.8-0.46,7.03c-0.12,2.23-0.2,4.79-0.26,7.67
			c-0.05,2.88-0.08,5.16-0.08,6.84c-1.29-0.03-2.32-0.04-3.1-0.04C296.76,898.51,295.65,898.53,294.17,898.55z M295.33,873.33
			c0.06-1.45,0.08-2.57,0.08-3.35v-0.68c1.28,0.03,2.33,0.04,3.13,0.04c1.1,0,2.12-0.01,3.07-0.04c-0.04,0.35-0.07,0.76-0.08,1.21
			l-0.11,2.82c-1.07-0.03-2.06-0.04-2.96-0.04C297.56,873.29,296.51,873.31,295.33,873.33z"/>
		<path class="st1" d="M305.75,898.55c0.21-2.39,0.47-6.67,0.77-12.86c0.3-6.19,0.49-11.54,0.56-16.04
			c1.47,0.03,2.52,0.04,3.14,0.04c0.83,0,1.85-0.01,3.05-0.04l-0.51,7.73l-0.74,17.24l-0.08,3.94c-1.16-0.03-2.14-0.04-2.95-0.04
			C308.73,898.51,307.65,898.53,305.75,898.55z"/>
		<path class="st1" d="M317.23,898.55c0.22-2.12,0.37-3.89,0.45-5.31c0.14-2.26,0.27-4.86,0.38-7.81c0.11-2.95,0.18-5.75,0.23-8.41
			c1.38,0.03,2.41,0.04,3.09,0.04c0.63,0,1.66-0.01,3.07-0.04c-0.19,2.46-0.34,4.8-0.46,7.03c-0.12,2.23-0.2,4.79-0.26,7.67
			c-0.05,2.88-0.08,5.16-0.08,6.84c-1.29-0.03-2.32-0.04-3.1-0.04C319.82,898.51,318.71,898.53,317.23,898.55z M318.39,873.33
			c0.06-1.45,0.08-2.57,0.08-3.35v-0.68c1.28,0.03,2.33,0.04,3.13,0.04c1.1,0,2.12-0.01,3.07-0.04c-0.04,0.35-0.07,0.76-0.08,1.21
			l-0.11,2.82c-1.07-0.03-2.06-0.04-2.96-0.04C320.62,873.29,319.57,873.31,318.39,873.33z"/>
		<path class="st1" d="M328.26,908.27c0.35-3.94,0.67-9.04,0.96-15.31c0.28-6.27,0.42-11.36,0.42-15.27
			c2.68-0.48,4.76-0.8,6.22-0.95c1.47-0.15,2.93-0.23,4.38-0.23c1.91,0,3.65,0.23,5.24,0.68c1.59,0.45,2.86,1.21,3.81,2.27
			c0.95,1.06,1.66,2.29,2.12,3.68c0.46,1.4,0.69,2.86,0.69,4.38c0,1.54-0.22,3.02-0.66,4.45c-0.44,1.43-1.11,2.71-2.01,3.84
			c-0.9,1.14-1.95,1.96-3.14,2.48c-1.19,0.52-2.49,0.77-3.9,0.77c-0.83,0-1.65-0.1-2.47-0.3c-0.81-0.2-1.52-0.46-2.14-0.78
			c-0.61-0.32-1.12-0.65-1.51-0.98c-0.4-0.33-0.9-0.83-1.5-1.49l-0.32,9.21l-0.02,1.44c-0.01,0.18-0.02,0.89-0.02,2.12
			c-1.3-0.01-2.3-0.02-3.01-0.02L328.26,908.27z M335.48,881.59c-0.1,0.76-0.17,1.42-0.21,1.97l-0.13,2.35
			c-0.06,1.01-0.08,1.76-0.08,2.24c0,0.86,0.09,1.68,0.27,2.47c0.18,0.79,0.53,1.51,1.06,2.18c0.53,0.66,1.16,1.17,1.89,1.51
			c0.73,0.35,1.48,0.52,2.26,0.52c1.08,0,2.06-0.31,2.94-0.92c0.88-0.61,1.57-1.51,2.05-2.7c0.48-1.18,0.72-2.45,0.72-3.78
			c0-1.48-0.27-2.73-0.8-3.75c-0.53-1.02-1.24-1.77-2.13-2.23c-0.89-0.47-1.9-0.7-3.03-0.7
			C338.81,880.75,337.21,881.03,335.48,881.59z"/>
		<path class="st1" d="M374.97,893.75c-0.18,0.83-0.44,2.33-0.78,4.49c-1.52,0.32-2.81,0.54-3.85,0.66
			c-1.04,0.11-2.1,0.17-3.16,0.17c-1.85,0-3.5-0.18-4.97-0.55c-1.46-0.37-2.74-1.04-3.84-2.02c-1.1-0.98-1.91-2.18-2.44-3.61
			c-0.52-1.42-0.78-2.92-0.78-4.49c0-1.73,0.3-3.42,0.91-5.05c0.61-1.63,1.46-2.96,2.55-4c1.09-1.04,2.34-1.77,3.74-2.2
			c1.4-0.43,2.86-0.65,4.38-0.65c1.44,0,2.81,0.18,4.11,0.54c1.3,0.36,2.39,0.95,3.27,1.76c0.88,0.82,1.56,1.8,2.03,2.95
			c0.47,1.15,0.71,2.43,0.71,3.84c0,0.66-0.07,1.35-0.21,2.05l-15.52,0.02c-0.03,0.52-0.04,0.94-0.04,1.25
			c0,0.95,0.16,1.81,0.49,2.6c0.32,0.79,0.8,1.46,1.42,2.01c0.62,0.55,1.36,0.96,2.22,1.22c0.86,0.26,1.71,0.39,2.54,0.39
			c0.97,0,2.03-0.11,3.17-0.32C372.05,894.62,373.41,894.26,374.97,893.75z M361.29,885.19l9.91,0.02c0-0.67-0.02-1.17-0.06-1.5
			c-0.04-0.32-0.14-0.69-0.29-1.11c-0.15-0.41-0.35-0.78-0.6-1.1s-0.55-0.58-0.89-0.79c-0.34-0.21-0.73-0.37-1.18-0.49
			s-0.92-0.17-1.43-0.17c-0.59,0-1.17,0.09-1.73,0.27c-0.56,0.18-1.07,0.45-1.54,0.8s-0.84,0.75-1.13,1.18
			c-0.29,0.44-0.51,0.85-0.65,1.26C361.58,883.98,361.44,884.52,361.29,885.19z"/>
		<path class="st1" d="M379.91,898.55c0.32-3.2,0.59-6.8,0.81-10.8c0.22-4,0.34-7.57,0.37-10.74c1.3,0.03,2.34,0.04,3.12,0.04
			c0.92,0,1.89-0.01,2.93-0.04l-0.24,3.6c0.44-0.62,0.82-1.12,1.15-1.48c0.33-0.37,0.76-0.73,1.27-1.08
			c0.52-0.35,1.07-0.64,1.65-0.85c0.59-0.21,1.24-0.38,1.97-0.51c0.73-0.13,1.49-0.19,2.28-0.19c1.26,0,2.46,0.16,3.61,0.48
			c1.15,0.32,2.08,0.82,2.78,1.51c0.71,0.69,1.17,1.45,1.4,2.27c0.23,0.82,0.34,1.69,0.34,2.6c0,0.38-0.02,0.99-0.06,1.82
			l-0.44,9.25c-0.06,1.28-0.09,2.65-0.1,4.11c-1.12-0.03-2.07-0.04-2.86-0.04c-1.07,0-2.16,0.01-3.24,0.04
			c0.11-1.23,0.26-3.37,0.43-6.43c0.17-3.06,0.26-5.08,0.26-6.07c0-1.11-0.18-2.01-0.53-2.69s-0.9-1.19-1.64-1.55
			c-0.74-0.35-1.54-0.53-2.4-0.53c-0.85,0-1.64,0.16-2.37,0.49c-0.73,0.33-1.37,0.8-1.9,1.42c-0.56,0.64-1,1.42-1.31,2.35
			c-0.32,0.99-0.56,2.62-0.72,4.89c-0.14,2.02-0.26,4.72-0.34,8.11c-1.09-0.03-2.07-0.04-2.95-0.04
			C382.26,898.51,381.18,898.53,379.91,898.55z"/>
		<path class="st1" d="M407.24,898.15l-0.47-4.66c1.38,0.56,2.55,0.96,3.52,1.18c0.96,0.22,1.84,0.33,2.65,0.33s1.48-0.1,2.03-0.29
			c0.55-0.19,0.96-0.47,1.23-0.85c0.27-0.37,0.4-0.77,0.4-1.18c0-0.18-0.02-0.35-0.05-0.51c-0.04-0.16-0.1-0.32-0.19-0.49
			c-0.09-0.17-0.2-0.33-0.32-0.48c-0.12-0.15-0.29-0.32-0.5-0.51c-0.21-0.19-0.52-0.43-0.91-0.73l-1.14-0.91
			c-1.1-0.86-1.94-1.54-2.52-2.03c-0.58-0.49-1.07-1-1.46-1.51c-0.4-0.52-0.7-1.06-0.9-1.63c-0.2-0.57-0.31-1.15-0.31-1.75
			c0-1.03,0.31-2.01,0.94-2.94c0.63-0.93,1.54-1.61,2.74-2.04c1.2-0.43,2.61-0.65,4.24-0.65c1.85,0,3.98,0.22,6.39,0.66l0.28,4.43
			c-1.64-0.66-3.21-1-4.72-1c-0.82,0-1.54,0.08-2.15,0.24c-0.61,0.16-1.06,0.41-1.32,0.74c-0.27,0.33-0.4,0.7-0.4,1.11
			c0,0.24,0.04,0.48,0.13,0.71c0.08,0.23,0.23,0.48,0.44,0.73c0.21,0.25,0.46,0.49,0.73,0.72c0.28,0.23,0.85,0.67,1.73,1.33
			c0.88,0.66,1.64,1.26,2.3,1.8c0.66,0.54,1.2,1.08,1.62,1.62c0.42,0.54,0.75,1.13,0.97,1.75c0.23,0.62,0.34,1.25,0.34,1.88
			c0,1.06-0.32,2.04-0.97,2.94c-0.65,0.9-1.63,1.61-2.94,2.12c-1.31,0.51-2.78,0.76-4.4,0.76c-0.85,0-1.88-0.07-3.09-0.2
			C409.93,898.73,408.63,898.49,407.24,898.15z"/>
		<path class="st1" d="M446.06,893.75c-0.18,0.83-0.44,2.33-0.78,4.49c-1.52,0.32-2.81,0.54-3.85,0.66
			c-1.04,0.11-2.1,0.17-3.16,0.17c-1.85,0-3.5-0.18-4.97-0.55c-1.46-0.37-2.74-1.04-3.84-2.02c-1.1-0.98-1.91-2.18-2.44-3.61
			c-0.52-1.42-0.78-2.92-0.78-4.49c0-1.73,0.3-3.42,0.91-5.05c0.61-1.63,1.46-2.96,2.55-4c1.09-1.04,2.34-1.77,3.74-2.2
			c1.4-0.43,2.86-0.65,4.38-0.65c1.44,0,2.81,0.18,4.11,0.54c1.3,0.36,2.39,0.95,3.27,1.76c0.88,0.82,1.56,1.8,2.03,2.95
			c0.47,1.15,0.71,2.43,0.71,3.84c0,0.66-0.07,1.35-0.21,2.05l-15.52,0.02c-0.03,0.52-0.04,0.94-0.04,1.25
			c0,0.95,0.16,1.81,0.49,2.6c0.32,0.79,0.8,1.46,1.42,2.01c0.62,0.55,1.36,0.96,2.22,1.22c0.86,0.26,1.71,0.39,2.54,0.39
			c0.97,0,2.03-0.11,3.17-0.32C443.14,894.62,444.49,894.26,446.06,893.75z M432.38,885.19l9.91,0.02c0-0.67-0.02-1.17-0.06-1.5
			c-0.04-0.32-0.14-0.69-0.29-1.11c-0.15-0.41-0.35-0.78-0.6-1.1c-0.25-0.32-0.55-0.58-0.89-0.79c-0.34-0.21-0.73-0.37-1.18-0.49
			s-0.92-0.17-1.43-0.17c-0.59,0-1.17,0.09-1.73,0.27c-0.56,0.18-1.07,0.45-1.54,0.8s-0.84,0.75-1.13,1.18
			c-0.29,0.44-0.51,0.85-0.65,1.26C432.66,883.98,432.52,884.52,432.38,885.19z"/>
		<path class="st1" d="M450.57,898.15l-0.47-4.66c1.38,0.56,2.55,0.96,3.52,1.18c0.96,0.22,1.84,0.33,2.65,0.33
			c0.8,0,1.48-0.1,2.03-0.29s0.96-0.47,1.23-0.85c0.27-0.37,0.4-0.77,0.4-1.18c0-0.18-0.02-0.35-0.05-0.51
			c-0.04-0.16-0.1-0.32-0.19-0.49c-0.09-0.17-0.2-0.33-0.32-0.48c-0.12-0.15-0.29-0.32-0.5-0.51s-0.52-0.43-0.91-0.73l-1.14-0.91
			c-1.1-0.86-1.94-1.54-2.52-2.03c-0.58-0.49-1.07-1-1.46-1.51c-0.4-0.52-0.7-1.06-0.9-1.63c-0.2-0.57-0.31-1.15-0.31-1.75
			c0-1.03,0.31-2.01,0.94-2.94c0.63-0.93,1.54-1.61,2.74-2.04c1.2-0.43,2.61-0.65,4.24-0.65c1.85,0,3.98,0.22,6.39,0.66l0.28,4.43
			c-1.64-0.66-3.21-1-4.72-1c-0.82,0-1.54,0.08-2.15,0.24c-0.61,0.16-1.06,0.41-1.32,0.74c-0.27,0.33-0.4,0.7-0.4,1.11
			c0,0.24,0.04,0.48,0.13,0.71s0.23,0.48,0.44,0.73s0.46,0.49,0.73,0.72c0.28,0.23,0.85,0.67,1.73,1.33c0.88,0.66,1.64,1.26,2.3,1.8
			c0.66,0.54,1.2,1.08,1.62,1.62c0.42,0.54,0.75,1.13,0.97,1.75c0.23,0.62,0.34,1.25,0.34,1.88c0,1.06-0.32,2.04-0.97,2.94
			c-0.65,0.9-1.63,1.61-2.94,2.12c-1.31,0.51-2.78,0.76-4.4,0.76c-0.85,0-1.88-0.07-3.09-0.2
			C453.25,898.73,451.95,898.49,450.57,898.15z"/>
		<path class="st1" d="M492.28,898.55c0.27-2.84,0.45-5.75,0.55-8.72h-4.28l-7.79,0.13c0.03-0.18,0.07-0.97,0.14-2.37
			c0.06-1.4,0.1-2.35,0.1-2.86l1.59-2.01c0.4-0.52,1.01-1.35,1.84-2.47l4.57-6.26c0.42-0.61,0.85-1.23,1.28-1.86
			c0.43-0.63,0.98-1.46,1.64-2.47c1.71,0.03,3.11,0.04,4.21,0.04c1.07,0,2.31-0.01,3.71-0.04c-0.42,6.02-0.69,11.26-0.79,15.73
			c0.68,0.01,1.48,0.02,2.42,0.02c1.1,0,1.84-0.01,2.22-0.02c-0.04,1.1-0.06,2.36-0.06,3.79v0.72c-0.86-0.04-2.44-0.06-4.75-0.06
			c-0.04,0.65-0.07,1.24-0.1,1.77s-0.04,1.48-0.06,2.83c-0.02,1.35-0.03,2.32-0.03,2.92v1.2c-1.09-0.03-2.12-0.04-3.11-0.04
			C494.68,898.51,493.58,898.53,492.28,898.55z M493.64,885.6c0.04-0.82,0.06-1.29,0.06-1.42l0.4-10.25
			c-2.15,3.11-3.56,5.12-4.24,6.02l-4.11,5.64H493.64z"/>
		<path class="st1" d="M507.57,898.55c0.06-1.02,0.13-2.91,0.23-5.7l3.22,0.04c0.28,0,1.21-0.01,2.77-0.04
			c-0.07,1.03-0.13,2.07-0.17,3.11l-0.13,2.58l-2.77-0.04C510.62,898.51,509.56,898.53,507.57,898.55z M508.27,882.72
			c0.06-1,0.13-2.9,0.23-5.7l3.22,0.04c0.28,0,1.21-0.01,2.8-0.04c-0.07,0.82-0.13,1.86-0.19,3.13l-0.13,2.56
			c-1.34-0.03-2.27-0.04-2.77-0.04C510.95,882.67,509.9,882.69,508.27,882.72z"/>
		<path class="st1" d="M527.29,898.55c0.2-2.17,0.36-4.64,0.48-7.41l0.4-8.47c0.14-2.88,0.23-5.36,0.27-7.43
			c-0.63,0.4-1.12,0.7-1.45,0.92c-0.33,0.22-1.15,0.78-2.46,1.68c0.07-0.89,0.13-1.89,0.18-3c0.05-1.11,0.07-1.96,0.07-2.55
			c0.49-0.28,1.13-0.66,1.92-1.13c0.79-0.48,1.28-0.78,1.48-0.91c0.2-0.13,0.47-0.33,0.8-0.6c0.83,0.03,1.84,0.04,3.03,0.04
			c1.16,0,2.25-0.01,3.29-0.04l-0.23,2.88c-0.06,0.66-0.12,1.62-0.19,2.86l-0.84,16.83l-0.06,2.52c-0.01,0.52-0.02,1.05-0.02,1.59
			l0.02,2.22c-0.96-0.03-2.01-0.04-3.14-0.04C529.53,898.51,528.35,898.53,527.29,898.55z"/>
		<path class="st1" d="M545.65,897.96c-0.11-1.92-0.25-3.58-0.42-4.98c2.93,1.06,5.65,1.59,8.14,1.59c1.24,0,2.36-0.2,3.37-0.59
			c1.01-0.39,1.8-0.96,2.39-1.7c0.58-0.74,0.88-1.61,0.88-2.61c0-0.84-0.24-1.59-0.73-2.23c-0.49-0.64-1.25-1.12-2.28-1.44
			c-1.04-0.32-2.37-0.48-4-0.48c-1.04,0-2.12,0.06-3.23,0.19c0.14-1.63,0.25-3.18,0.34-4.64c0.83,0.14,1.65,0.21,2.46,0.21
			c1.24,0,2.42-0.12,3.55-0.36c1.12-0.24,1.99-0.73,2.62-1.47c0.62-0.74,0.93-1.55,0.93-2.42c0-0.35-0.05-0.69-0.16-1.03
			c-0.11-0.33-0.25-0.64-0.44-0.91s-0.43-0.52-0.72-0.73c-0.29-0.21-0.61-0.38-0.96-0.52c-0.35-0.13-0.83-0.24-1.44-0.33
			c-0.61-0.08-1.26-0.13-1.95-0.13c-0.93,0-1.9,0.06-2.89,0.18c-1,0.12-2.26,0.35-3.8,0.69l0.4-1.76l0.51-2.77
			c1.62-0.23,2.99-0.38,4.11-0.47c1.11-0.08,2.32-0.13,3.62-0.13c1.48,0,2.92,0.12,4.31,0.36c1.39,0.24,2.58,0.66,3.57,1.25
			c0.99,0.59,1.72,1.36,2.19,2.31c0.47,0.95,0.71,1.98,0.71,3.12c0,0.73-0.11,1.46-0.32,2.17c-0.21,0.71-0.53,1.37-0.94,1.98
			c-0.42,0.61-0.88,1.11-1.4,1.5c-0.52,0.4-1.02,0.71-1.51,0.95c-0.49,0.24-1.21,0.52-2.16,0.85c1.02,0.16,1.79,0.33,2.33,0.52
			c0.54,0.19,1.07,0.48,1.59,0.87c0.52,0.39,0.97,0.84,1.33,1.35c0.37,0.51,0.64,1.11,0.83,1.78c0.18,0.67,0.28,1.37,0.28,2.11
			c0,1.33-0.31,2.58-0.94,3.76c-0.63,1.18-1.54,2.15-2.73,2.93c-1.19,0.78-2.55,1.32-4.08,1.64c-1.52,0.32-3.11,0.48-4.76,0.48
			c-1.21,0-2.47-0.08-3.77-0.23C549.13,898.67,547.54,898.39,545.65,897.96z"/>
	</g>
</g>
</svg>
