<?xml version="1.0" encoding="utf-8"?>
<!-- Generator: Adobe Illustrator 25.3.0, SVG Export Plug-In . SVG Version: 6.00 Build 0)  -->
<svg version="1.1" id="Layer_1" xmlns="http://www.w3.org/2000/svg" xmlns:xlink="http://www.w3.org/1999/xlink" x="0px" y="0px"
	 viewBox="0 0 841.89 1190.55" style="enable-background:new 0 0 841.89 1190.55;" xml:space="preserve">
<style type="text/css">
	.st0{fill:#FAEA26;}
</style>
<g>
	<path d="M175.48,301.4l13.37,20.01l13.19-20.01h25.58l-28.27,41.02v23.78h-21.18v-23.78l-15.08-21.72h-13.46v-19.3H175.48z"/>
	<path d="M296.64,334.16c0,7.09-1.48,13.13-4.44,18.13c-2.96,5-7.25,8.75-12.86,11.26c-5.61,2.51-12.3,3.77-20.08,3.77
		c-7.78,0-14.46-1.26-20.04-3.79c-5.58-2.53-9.81-6.27-12.68-11.22c-2.87-4.95-4.31-11-4.31-18.15c0-5.41,0.82-10.18,2.47-14.29
		c1.64-4.11,4.05-7.58,7.22-10.39c3.17-2.81,7.06-4.94,11.67-6.39c4.61-1.45,9.83-2.18,15.66-2.18c7.75,0,14.43,1.28,20.06,3.84
		c5.62,2.56,9.92,6.33,12.88,11.31C295.16,321.03,296.64,327.07,296.64,334.16z M245.26,334.34c0,4.16,0.93,7.78,2.8,10.86
		c1.87,3.08,5.56,4.62,11.06,4.62c4.25,0,7.43-0.81,9.54-2.42c2.11-1.62,3.43-3.46,3.95-5.54c0.52-2.08,0.88-4.58,1.05-7.52
		c-0.18-4.16-1.18-7.79-3.01-10.88c-1.82-3.1-5.67-4.64-11.53-4.64C249.88,318.81,245.26,323.99,245.26,334.34z"/>
	<path d="M413.23,346.9v19.3l-38.55,1.12c-5.54-0.15-10.42-0.94-14.65-2.38c-4.23-1.44-7.85-3.58-10.84-6.44
		c-2.99-2.86-5.25-6.35-6.78-10.48c-1.53-4.13-2.29-8.86-2.29-14.18c0-5.44,0.79-10.12,2.38-14.02c1.59-3.9,3.9-7.29,6.96-10.16
		c3.05-2.87,6.73-5.03,11.04-6.46c4.31-1.44,9.81-2.33,16.51-2.69c6.82,0.36,12.83,1.5,18.04,3.41c5.21,1.91,9.45,5.09,12.74,9.51
		c3.29,4.43,4.76,11.01,4.4,19.75c-0.72,3.95-2.13,7.39-4.24,10.32c-2.11,2.93-0.98,4.07,3.39,3.41H413.23z M363.33,334.7
		c0,4.16,0.93,7.78,2.8,10.86c1.87,3.08,5.56,4.62,11.06,4.62v-3.19c8.26,0.84,12.7-0.26,13.33-3.3c0.63-3.04,1.03-6.04,1.21-9
		c-0.18-4.1-1.18-7.7-3.01-10.79c-1.82-3.1-5.67-4.64-11.53-4.64C367.95,319.26,363.33,324.41,363.33,334.7z"/>
	<path d="M434.77,301.4v38.32c-0.18,4.37,0.66,7.4,2.51,9.11c1.85,1.71,4.76,2.62,8.71,2.74c3.17-0.06,5.82-0.99,7.94-2.78
		c2.12-1.8,3.13-4.82,3.01-9.06V301.4h21.09v38.01c-0.09,5.39-0.98,9.69-2.67,12.9c-1.69,3.22-3.83,5.9-6.42,8.06
		c-2.59,2.15-5.83,3.83-9.74,5.03c-3.9,1.2-8.25,1.85-13.04,1.97c-3.98-0.09-8.03-0.64-12.14-1.64c-4.11-1-7.7-2.58-10.77-4.73
		c-3.07-2.15-5.43-4.92-7.09-8.3c-1.66-3.38-2.49-7.79-2.49-13.24V301.4H434.77z"/>
	<path d="M480.27,301.4h21.09v64.8h-21.09V301.4z"/>
	<path d="M505.85,366.2v-64.8h55.56v19.3h-34.46v7.45h22.26v11.31h-22.26v7.45h39.94v19.3H505.85z"/>
	<path d="M566.88,366.2v-64.8h42.18c5.21,0.48,9.48,1.86,12.83,4.13c3.35,2.27,5.8,5.33,7.36,9.15c1.2,5.74,1.26,10.17,0.18,13.28
		c-1.08,3.11-2.96,5.71-5.65,7.81c-2.69,2.09-6.55,3.74-11.58,4.94l4.85,6.19h19.39v19.3h-25.58l-20.55-21.41v21.41H566.88z
		 M590.31,317.55v11.94h16.33c0.87,0,1.81-0.32,2.83-0.96c1.02-0.64,1.56-2.27,1.62-4.87c-0.15-2.48-0.76-4.12-1.82-4.91
		c-1.06-0.79-1.95-1.19-2.67-1.19H590.31z"/>
	<path d="M708.6,334.16c0,7.09-1.48,13.13-4.44,18.13c-2.96,5-7.25,8.75-12.86,11.26c-5.61,2.51-12.3,3.77-20.08,3.77
		c-7.78,0-14.46-1.26-20.04-3.79c-5.58-2.53-9.81-6.27-12.68-11.22c-2.87-4.95-4.31-11-4.31-18.15c0-5.41,0.82-10.18,2.47-14.29
		c1.64-4.11,4.05-7.58,7.22-10.39c3.17-2.81,7.06-4.94,11.67-6.39c4.61-1.45,9.83-2.18,15.66-2.18c7.75,0,14.43,1.28,20.06,3.84
		c5.62,2.56,9.92,6.33,12.88,11.31C707.12,321.03,708.6,327.07,708.6,334.16z M657.22,334.34c0,4.16,0.93,7.78,2.8,10.86
		c1.87,3.08,5.56,4.62,11.06,4.62c4.25,0,7.43-0.81,9.54-2.42c2.11-1.62,3.43-3.46,3.95-5.54c0.52-2.08,0.88-4.58,1.05-7.52
		c-0.18-4.16-1.18-7.79-3.01-10.88c-1.82-3.1-5.67-4.64-11.53-4.64C661.84,318.81,657.22,323.99,657.22,334.34z"/>
</g>
<g>
	<path d="M383.62,385.13h-162.5h-8.77h-88.6c-22.74,0-36.25,11.04-40.53,33.12c-4.28,22.08,7.91,46.3,36.58,72.66
		c17.38,13.68,14.42,20.19-8.9,19.53H73.32v53.14h94.91c25.7-4.28,38.8-17.47,39.3-39.54c0.49-22.08-12.6-44.82-39.3-68.21
		c-14.91-12.36-11.78-18.21,9.39-17.55h34.72h8.77h47.82v125.31h58.08V438.27h56.6V385.13z"/>
	<path d="M715.18,510.44l-13.35-17.05c13.84-3.29,24.47-7.83,31.88-13.59c7.41-5.77,12.6-12.93,15.57-21.5
		c2.97-8.57,2.8-20.76-0.49-36.58c-4.28-10.55-11.04-18.95-20.27-25.21c-9.23-6.26-21.01-10.05-35.34-11.37H577.02v171.06
		l-57.22-171.06h-88.6l-58.7,178.44h64.01l11.25-32.13h53.01l11.25,32.13h65h2.47h62.04v-58.95l56.6,58.95h70.44v-53.14H715.18z
		 M450.11,495.36l25.58-70.69l23.6,70.69H450.11z M694.3,459.84c-2.8,1.77-5.4,2.66-7.79,2.66h-44.98v-32.87h44.86
		c1.98,0,4.43,1.09,7.35,3.27c2.92,2.18,4.59,6.69,5,13.53C698.58,453.59,697.1,458.06,694.3,459.84z"/>
</g>
<g>
	<path d="M383.21,621.13h13.45v12.79h-19.04c-4.66,0-8.88-0.83-12.64-2.48c-3.77-1.66-6.74-4.14-8.91-7.45
		c-2.17-3.31-3.26-7.37-3.26-12.17c0-3.37,0.65-6.38,1.95-9.03c1.3-2.65,3.1-4.85,5.4-6.6c2.3-1.76,4.94-3.06,7.93-3.93
		c2.98-0.86,6.16-1.29,9.54-1.29h11.78h7.26v12.79h-13.45c-3.02,0-5.25,0.09-6.69,0.27c-1.45,0.18-2.74,0.48-3.87,0.89
		s-2.13,1.14-3,2.17c-0.87,1.03-1.38,2.86-1.52,5.47c0.1,2.54,0.6,4.35,1.52,5.44c0.91,1.09,2.02,1.81,3.33,2.17
		s2.66,0.61,4.05,0.74C378.41,621.06,380.47,621.13,383.21,621.13z"/>
	<path d="M446.28,612.68c0,4.7-0.98,8.71-2.95,12.02c-1.96,3.31-4.8,5.8-8.52,7.47c-3.72,1.67-8.16,2.5-13.31,2.5
		c-5.16,0-9.58-0.84-13.28-2.51c-3.7-1.68-6.5-4.15-8.4-7.44c-1.9-3.28-2.86-7.29-2.86-12.03c0-3.59,0.55-6.75,1.64-9.48
		c1.09-2.73,2.69-5.02,4.79-6.89c2.1-1.86,4.68-3.28,7.74-4.24c3.05-0.96,6.52-1.44,10.38-1.44c5.14,0,9.57,0.85,13.3,2.54
		c3.73,1.7,6.57,4.19,8.54,7.5C445.3,603.98,446.28,607.98,446.28,612.68z M412.21,612.8c0,2.76,0.62,5.16,1.86,7.2
		c1.24,2.04,3.68,3.06,7.33,3.06c2.82,0,4.92-0.54,6.32-1.61c1.4-1.07,2.27-2.3,2.62-3.67c0.35-1.38,0.58-3.04,0.7-4.98
		c-0.12-2.76-0.78-5.16-1.99-7.21c-1.21-2.05-3.76-3.08-7.65-3.08C415.28,602.51,412.21,605.94,412.21,612.8z"/>
	<path d="M448.33,633.93v-42.96h13.98l12.79,16.07v-16.07h13.98v42.96h-13.98l-12.79-16.07v16.07H448.33z"/>
</g>
<g>
	<path d="M148.21,660.9c-10.18,0-19.77,1.3-28.78,3.91c-9.01,2.6-16.99,6.55-23.93,11.85c-6.95,5.3-12.38,11.94-16.3,19.93
		c-3.92,7.99-5.88,17.08-5.88,27.25c0,14.49,3.28,26.73,9.83,36.72c6.55,10,15.52,17.5,26.89,22.49c11.37,5,24.09,7.5,38.16,7.5
		h57.47v-38.61h-40.58c-8.26,0-14.49-0.21-18.68-0.63c-4.19-0.42-8.26-1.17-12.21-2.24c-3.95-1.08-7.3-3.26-10.06-6.55
		c-2.75-3.29-4.28-8.77-4.58-16.43c0.42-7.9,1.94-13.41,4.58-16.52c2.63-3.11,5.66-5.3,9.07-6.55c3.41-1.26,7.3-2.15,11.67-2.69
		c4.37-0.54,11.1-0.81,20.2-0.81h40.58V660.9h-21.91H148.21z"/>
	<path d="M348.44,751.95h-36.99l-9.7-12.39c10.06-2.39,17.78-5.69,23.17-9.88c5.39-4.19,9.16-9.4,11.31-15.62
		c2.15-6.23,2.03-15.08-0.36-26.58c-3.11-7.66-8.02-13.77-14.73-18.32c-6.7-4.55-15.26-7.3-25.68-8.26h-84.4v129.66h46.87v-42.83
		l41.12,42.83h49.38h1.8h40.41V660.9h-42.2V751.95z M296.27,715.18c-2.04,1.29-3.92,1.93-5.66,1.93h-32.68v-23.88h32.59
		c1.44,0,3.22,0.79,5.34,2.38c2.12,1.59,3.34,4.86,3.64,9.83C299.38,710.65,298.31,713.89,296.27,715.18z"/>
	<path d="M619.69,660.9H501.62h-6.38h-64.38c-16.52,0-26.34,8.02-29.45,24.06c-3.11,16.04,5.75,33.64,26.58,52.8
		c12.63,9.94,10.47,14.67-6.46,14.19h-27.3v38.61h68.96c18.68-3.11,28.19-12.69,28.55-28.73c0.36-16.04-9.16-32.56-28.55-49.56
		c-10.83-8.98-8.56-13.23,6.82-12.75h25.23h6.38h34.75v91.05h42.2v-91.05h41.12V660.9z"/>
	<path d="M759.68,690.22c-5.93-9.97-14.52-17.51-25.77-22.63c-11.25-5.12-24.63-7.68-40.14-7.68c-11.67,0-22.12,1.45-31.34,4.35
		c-9.22,2.9-17,7.17-23.35,12.79c-6.35,5.63-11.17,12.56-14.46,20.79c-3.29,8.23-4.94,17.76-4.94,28.6
		c0,14.31,2.87,26.41,8.62,36.32c5.75,9.91,14.2,17.39,25.37,22.45c11.16,5.06,24.53,7.59,40.09,7.59c15.56,0,28.96-2.51,40.18-7.54
		c11.22-5.03,19.8-12.54,25.72-22.54c5.93-10,8.89-22.09,8.89-36.27S765.6,700.19,759.68,690.22z M720.48,741.85
		c-1.05,4.16-3.68,7.86-7.9,11.09c-4.22,3.23-10.58,4.85-19.08,4.85c-11.01,0-18.39-3.08-22.13-9.25
		c-3.74-6.16-5.61-13.41-5.61-21.73c0-20.71,9.25-31.07,27.74-31.07c11.73,0,19.42,3.1,23.08,9.29c3.65,6.2,5.66,13.45,6.02,21.77
		C722.23,732.68,721.53,737.69,720.48,741.85z"/>
</g>
<rect x="73.32" y="595.25" width="226.18" height="27.38"/>
<rect x="541.37" y="595.25" width="226.18" height="27.38"/>
</svg>
