<?xml version="1.0" encoding="utf-8"?>
<!-- Generator: Adobe Illustrator 25.3.0, SVG Export Plug-In . SVG Version: 6.00 Build 0)  -->
<svg version="1.1" id="Layer_1" xmlns="http://www.w3.org/2000/svg" xmlns:xlink="http://www.w3.org/1999/xlink" x="0px" y="0px"
	 viewBox="0 0 841.89 1190.55" style="enable-background:new 0 0 841.89 1190.55;" xml:space="preserve">
<style type="text/css">
	.st0{fill:#FAEA26;}
</style>
<rect width="841.89" height="1190.55"/>
<g>
	<path class="st0" d="M175.17,343.35v25.84h27.18v-25.85l30.98-44.95h-32.91l-11.59,17.59l-11.75-17.59h-30.45v25.3h14.89
		L175.17,343.35z M152.63,304.4h21.25l14.99,22.44l14.79-22.44h18.25l-25.56,37.08v21.72h-15.18v-21.72l-16.51-23.78h-12.03V304.4z"
		/>
	<path class="st0" d="M259.13,352.82c4.97,0,8.69-1,11.36-3.04c2.65-2.03,4.34-4.45,5.03-7.19c0.57-2.25,0.95-4.96,1.14-8.07
		l0.01-0.16l-0.01-0.16c-0.2-4.63-1.35-8.76-3.42-12.28c-2.39-4.06-7.14-6.12-14.12-6.12c-10.88,0-16.87,6.58-16.87,18.53
		c0,4.7,1.09,8.87,3.24,12.42C247.94,350.78,252.53,352.82,259.13,352.82z M259.13,321.81c4.7,0,7.71,1.07,8.95,3.17
		c1.54,2.62,2.41,5.76,2.59,9.33c-0.17,2.67-0.49,4.96-0.96,6.81c-0.36,1.42-1.29,2.69-2.86,3.89c-1.56,1.2-4.16,1.8-7.71,1.8
		c-4.36,0-7.22-1.07-8.5-3.18c-1.57-2.59-2.37-5.72-2.37-9.3C248.26,323.23,254.07,321.81,259.13,321.81z"/>
	<path class="st0" d="M221.92,318.75c-1.78,4.45-2.68,9.63-2.68,15.41c0,7.65,1.59,14.27,4.71,19.66c3.18,5.48,7.9,9.67,14.03,12.45
		c5.94,2.69,13.1,4.06,21.27,4.06c8.17,0,15.34-1.36,21.31-4.03c6.16-2.76,10.94-6.96,14.21-12.47c3.23-5.44,4.86-12.06,4.86-19.66
		c0-7.6-1.64-14.21-4.86-19.64c-3.27-5.49-8.05-9.7-14.22-12.51c-5.99-2.72-13.16-4.11-21.3-4.11c-6.11,0-11.69,0.78-16.56,2.32
		c-4.99,1.57-9.28,3.93-12.76,7.01C226.43,310.34,223.73,314.22,221.92,318.75z M233.92,311.72c2.84-2.52,6.4-4.46,10.58-5.78
		c4.29-1.35,9.26-2.04,14.76-2.04c7.28,0,13.61,1.2,18.82,3.57c5.1,2.32,8.88,5.63,11.54,10.11c2.67,4.49,4.02,10.07,4.02,16.57
		c0,6.51-1.35,12.1-4.02,16.6c-2.66,4.49-6.42,7.78-11.5,10.06c-5.2,2.33-11.54,3.51-18.86,3.51c-7.31,0-13.64-1.19-18.8-3.52
		c-5.04-2.29-8.75-5.55-11.32-9.99c-2.59-4.46-3.9-10.06-3.9-16.65c0-5.01,0.76-9.44,2.25-13.18
		C228.96,317.32,231.12,314.21,233.92,311.72z"/>
	<path class="st0" d="M377.2,353.18h3v-2.94c4.86,0.23,12.1-0.29,13.27-5.94c0.65-3.16,1.08-6.33,1.27-9.42l0.01-0.16l-0.01-0.16
		c-0.2-4.58-1.35-8.68-3.42-12.18c-2.39-4.06-7.14-6.12-14.12-6.12c-10.88,0-16.87,6.55-16.87,18.44c0,4.69,1.09,8.87,3.24,12.42
		C366.01,351.14,370.6,353.18,377.2,353.18z M377.2,322.26c4.7,0,7.71,1.07,8.95,3.17c1.54,2.62,2.41,5.73,2.59,9.25
		c-0.18,2.76-0.56,5.59-1.14,8.41c-0.08,0.38-2.12,1.73-10.09,0.92l-3.3-0.33v3.3c-2.7-0.4-4.54-1.4-5.5-2.98
		c-1.57-2.59-2.37-5.72-2.37-9.3C366.33,323.67,372.14,322.26,377.2,322.26z"/>
	<path class="st0" d="M347.12,360.67c3.3,3.15,7.32,5.54,11.95,7.11c4.5,1.53,9.72,2.38,15.53,2.54l0.08,0l41.55-1.21V358.4
		c1.5,1.92,3.27,3.61,5.3,5.04c3.36,2.36,7.33,4.11,11.78,5.19c4.3,1.05,8.6,1.63,12.78,1.72l0.07,0l0.07,0
		c5.03-0.13,9.69-0.83,13.84-2.11c4.27-1.31,7.89-3.19,10.78-5.59c2.51-2.09,4.66-4.66,6.41-7.63v14.16h25.58h1.51h59.52h6h23.42
		v-16.95l16.27,16.95h29.86v-10.55c2.82,3.16,6.33,5.72,10.5,7.61c5.94,2.69,13.1,4.06,21.28,4.06c8.17,0,15.33-1.36,21.31-4.03
		c6.16-2.76,10.94-6.96,14.21-12.47c3.23-5.44,4.86-12.06,4.86-19.66c0-7.6-1.64-14.21-4.86-19.64c-3.27-5.49-8.05-9.7-14.22-12.51
		c-5.99-2.72-13.16-4.11-21.3-4.11c-6.11,0-11.69,0.78-16.56,2.32c-4.99,1.57-9.28,3.93-12.76,7.01c-3.51,3.11-6.21,6.99-8.02,11.52
		c-0.27,0.67-0.51,1.36-0.74,2.06c-0.12-2.04-0.43-4.27-0.95-6.74l-0.16-0.52c-1.77-4.37-4.62-7.9-8.45-10.51
		c-3.76-2.55-8.55-4.11-14.25-4.63l-44.93-0.01v0h-60.04h-1.51h-21.82h-3.76h-23.34l0,41.41c0.09,3.27-0.56,5.52-1.94,6.69
		c-1.58,1.34-3.54,2.01-5.99,2.07c-3.15-0.1-5.4-0.76-6.69-1.94c-1.15-1.06-1.68-3.4-1.55-6.78l0-41.45h-27.09v13.96
		c-0.16-0.24-0.3-0.49-0.47-0.72c-3.63-4.88-8.38-8.43-14.12-10.54c-5.47-2.01-11.83-3.22-18.92-3.59l-0.16-0.01l-0.16,0.01
		c-6.94,0.37-12.76,1.33-17.3,2.84c-4.7,1.57-8.79,3.96-12.15,7.12c-3.35,3.16-5.94,6.93-7.68,11.22c-1.72,4.24-2.6,9.34-2.6,15.15
		c0,5.66,0.83,10.78,2.47,15.22C341.28,353.61,343.81,357.51,347.12,360.67z M639.45,320.98c1.46-3.66,3.63-6.77,6.43-9.26
		c2.84-2.52,6.4-4.46,10.58-5.78c4.29-1.35,9.26-2.04,14.76-2.04c7.28,0,13.61,1.2,18.82,3.57c5.1,2.32,8.88,5.63,11.54,10.11
		c2.67,4.49,4.02,10.06,4.02,16.57c0,6.51-1.35,12.1-4.02,16.6c-2.66,4.49-6.42,7.78-11.5,10.06c-5.2,2.33-11.54,3.51-18.85,3.51
		c-7.31,0-13.64-1.19-18.8-3.52c-5.04-2.29-8.75-5.55-11.32-9.99c-0.63-1.09-1.18-2.24-1.66-3.46v-3.44h-1.09
		c-0.76-2.95-1.15-6.2-1.15-9.74C637.2,329.15,637.96,324.72,639.45,320.98z M631.28,331.29c-0.05,0.94-0.09,1.89-0.09,2.87
		c0,3.47,0.34,6.72,0.99,9.74h-13.67l-1.2-1.53c3.38-1.14,6.12-2.54,8.31-4.23C628.08,336.24,629.97,333.94,631.28,331.29z
		 M569.88,304.4h39.04c4.61,0.44,8.41,1.65,11.29,3.61c2.8,1.9,4.82,4.38,6.16,7.56c1.03,5.05,1.1,8.89,0.23,11.42
		c-0.89,2.58-2.42,4.68-4.66,6.42c-2.34,1.82-5.85,3.3-10.43,4.39l-4.55,1.08l8.63,11.03h17.85v13.3h-21.3l-24.83-25.86v25.86
		h-17.42v-19.3V304.4z M563.88,343.9h-33.94v-1.45h22.26v-17.31h-22.26v-1.45h33.94V343.9z M508.85,304.4h49.56v13.3h-34.46v13.45
		h22.26v5.31h-22.26v13.45h39.94v13.3h-55.03V304.4z M483.27,304.4h15.09v58.8h-15.09V304.4z M416.68,304.4h15.09v35.26
		c-0.21,5.31,0.93,9.03,3.48,11.38c2.39,2.2,5.97,3.39,10.65,3.53l0.07,0l0.07,0c3.86-0.07,7.17-1.25,9.82-3.49
		c2.85-2.4,4.22-6.25,4.07-11.36V304.4h15.09v34.96c-0.08,4.89-0.86,8.77-2.33,11.56c-1.5,2.85-3.41,5.25-5.68,7.15
		c-2.27,1.89-5.2,3.39-8.7,4.46c-3.61,1.11-7.7,1.73-12.16,1.84c-3.72-0.09-7.57-0.61-11.43-1.55c-3.73-0.91-7.01-2.35-9.76-4.27
		c-2.67-1.88-4.67-4.22-6.12-7.17c-1.45-2.95-2.18-6.96-2.18-11.92V304.4z M345.29,320.95c1.42-3.48,3.51-6.55,6.23-9.11
		c2.72-2.56,6.06-4.51,9.93-5.8c4-1.33,9.24-2.19,15.57-2.53c6.42,0.35,12.14,1.43,17,3.22c4.69,1.72,8.41,4.5,11.37,8.49
		c2.83,3.81,4.11,9.73,3.82,17.62c-0.65,3.41-1.89,6.4-3.69,8.9c-1.72,2.39-2.05,4.47-1,6.18c1.27,2.08,3.86,2.26,5.71,2.13v13.23
		l-35.55,1.04c-5.18-0.15-9.78-0.89-13.69-2.22c-3.8-1.29-7.07-3.23-9.73-5.77c-2.64-2.53-4.67-5.67-6.03-9.35
		c-1.4-3.78-2.1-8.2-2.1-13.14C343.13,328.81,343.85,324.47,345.29,320.95z"/>
	<path class="st0" d="M611.08,331.06c2.88-1.82,2.98-5.97,3.01-7.33l0-0.13l-0.01-0.12c-0.21-3.44-1.19-5.78-3.02-7.14
		c-1.61-1.2-3.07-1.78-4.46-1.78h-19.29v17.94h19.33C608.08,332.49,609.57,332.01,611.08,331.06z M593.31,320.55h13.18
		c0.11,0.04,0.42,0.17,0.97,0.58c0,0,0.48,0.52,0.62,2.58c-0.05,1.52-0.28,2.17-0.37,2.37c-0.63,0.37-0.97,0.4-1.07,0.4h-13.33
		V320.55z"/>
	<path class="st0" d="M671.09,352.82c4.97,0,8.69-1,11.36-3.04c2.65-2.03,4.34-4.45,5.03-7.19c0.57-2.26,0.95-4.97,1.14-8.07
		l0.01-0.16l-0.01-0.16c-0.2-4.63-1.35-8.76-3.42-12.28c-2.39-4.06-7.14-6.12-14.12-6.12c-10.88,0-16.87,6.58-16.87,18.53
		c0,4.7,1.09,8.87,3.24,12.42C659.9,350.78,664.49,352.82,671.09,352.82z M671.09,321.81c4.7,0,7.71,1.07,8.95,3.17
		c1.54,2.62,2.41,5.76,2.59,9.33c-0.17,2.66-0.49,4.95-0.96,6.81c-0.36,1.42-1.29,2.69-2.86,3.89c-1.56,1.2-4.16,1.81-7.71,1.81
		c-4.36,0-7.22-1.07-8.5-3.18c-1.57-2.59-2.37-5.72-2.37-9.3C660.22,323.23,666.03,321.81,671.09,321.81z"/>
	<path class="st0" d="M168.72,566.54c27.21-4.53,41.28-18.81,41.8-42.44c0.51-22.9-13.05-46.63-40.38-70.59
		c-8.93-7.4-8.14-9.86-8.13-9.88c0.01-0.03,1.22-2.81,15.61-2.36h88.32v125.31h64.08V441.27h56.6v-59.14H123.74
		c-24.27,0-38.9,11.96-43.48,35.55c-4.47,23.07,8.14,48.45,37.49,75.44l0.17,0.15c10.86,8.55,9.96,11.47,9.95,11.5
		c-0.05,0.13-1.31,3.12-17,2.67H70.32v59.14h97.91L168.72,566.54z M76.32,560.58v-47.14l34.48,0c13.91,0.38,20.92-1.65,22.72-6.63
		c1.73-4.78-1.91-10.39-11.79-18.18c-27.66-25.46-39.63-48.94-35.58-69.81c4.01-20.65,16.3-30.69,37.59-30.69h256.88v47.14h-56.6
		v125.31h-52.08V435.27l-94.23,0c-12.96-0.4-19.53,1.52-21.31,6.23c-1.67,4.43,1.38,9.56,9.85,16.57
		c25.87,22.68,38.75,44.85,38.28,65.89c-0.46,20.55-12.42,32.52-36.55,36.61H76.32z"/>
	<path class="st0" d="M445.83,498.36h57.62l-27.65-82.82L445.83,498.36z M454.39,492.36l21.19-58.55l19.55,58.55H454.39z"/>
	<path class="st0" d="M701.74,446.5l0-0.13l-0.01-0.12c-0.47-7.84-2.5-12.99-6.21-15.75c-3.49-2.6-6.48-3.87-9.15-3.87h-47.86v38.87
		h47.98c2.96,0,6.12-1.05,9.39-3.12v0C699.64,460,701.55,454.81,701.74,446.5z M692.69,457.3c-2.3,1.45-4.38,2.19-6.18,2.19h-41.98
		v-26.87h41.86c0.73,0,2.43,0.35,5.56,2.68c2.12,1.59,3.43,5.45,3.8,11.18C695.53,454.63,693.54,456.76,692.69,457.3z"/>
	<path class="st0" d="M716.64,507.44l-9.61-12.28c12.06-3.28,21.64-7.64,28.53-13c7.85-6.1,13.42-13.8,16.56-22.89
		c3.17-9.17,3.05-21.66-0.39-38.17l-0.16-0.52c-4.49-11.05-11.68-19.99-21.36-26.56c-9.61-6.52-21.98-10.51-36.75-11.87
		l-119.44-0.01v155.63l-52.06-155.63h-92.94l-60.67,184.44h70.29l11.25-32.13h48.76l11.25,32.13h67.44l2.69,8.04v-8.04h64.51v-54.49
		l52.32,54.49h74.72v-59.14H716.64z M514.15,560.58l-11.25-32.13h-57.27l-11.25,32.13h-57.74l56.72-172.44h84.27l57.68,172.44
		H514.15z M765.56,560.58H699.4l-60.88-63.4v63.4h-58.51V388.13h113.02c13.69,1.28,25.06,4.93,33.8,10.85
		c8.61,5.85,15.03,13.79,19.07,23.61c3.11,15.08,3.3,26.76,0.54,34.72c-2.76,7.97-7.66,14.74-14.58,20.12
		c-7.04,5.48-17.38,9.87-30.73,13.04l-4.55,1.08l17.13,21.89h51.85V560.58z"/>
	<path class="st0" d="M377.61,587.97c-3.64,0-7.13,0.48-10.37,1.41c-3.33,0.96-6.33,2.45-8.91,4.42c-2.66,2.03-4.77,4.61-6.27,7.67
		c-1.5,3.05-2.25,6.53-2.25,10.35c0,5.37,1.26,10.02,3.75,13.81c2.49,3.79,5.92,6.67,10.21,8.55c4.13,1.82,8.79,2.74,13.85,2.74
		h22.04v-7.35c1.97,2.21,4.41,4,7.32,5.32c4.07,1.85,8.96,2.78,14.52,2.78c5.56,0,10.45-0.93,14.54-2.76
		c3.93-1.76,7.05-4.38,9.29-7.77v9.79h19.98v-10.48l8.35,10.48h18.43v-48.96h-19.98v10.48l-8.35-10.48h-18.43v10.28
		c-2.25-3.38-5.36-6.01-9.29-7.8c-4.1-1.87-9-2.81-14.54-2.81c-4.16,0-7.95,0.53-11.28,1.58c-3.45,1.09-6.42,2.72-8.82,4.86
		c-0.61,0.54-1.19,1.12-1.73,1.73v-7.84H377.61z M451.33,593.97h9.54l17.24,21.65v-21.65h7.98v36.96h-9.54l-17.24-21.65v21.65h-7.98
		V593.97z M393.65,630.93h-16.04c-4.22,0-8.07-0.75-11.44-2.23c-3.26-1.43-5.74-3.51-7.61-6.35c-1.84-2.8-2.77-6.34-2.77-10.52
		c0-2.89,0.55-5.49,1.64-7.71c1.1-2.25,2.58-4.06,4.53-5.54c1.99-1.52,4.33-2.67,6.94-3.43c2.7-0.78,5.63-1.18,8.7-1.18h16.04v6.79
		h-10.45c-3.16,0-5.47,0.09-7.06,0.29c-1.67,0.21-3.2,0.56-4.54,1.06c-1.62,0.6-3.05,1.62-4.26,3.05c-1.32,1.56-2.05,3.93-2.22,7.25
		l-0.01,0.14l0,0.14c0.13,3.25,0.85,5.62,2.21,7.25c1.31,1.56,2.94,2.62,4.85,3.14c1.47,0.4,3,0.68,4.53,0.83
		c1.5,0.15,3.62,0.22,6.49,0.22h10.45V630.93z M394.48,606.76c-0.35,1.86-0.52,3.83-0.52,5.93c0,1.91,0.15,3.73,0.44,5.45h-11.18
		c-2.63,0-4.61-0.07-5.89-0.19c-1.21-0.12-2.4-0.34-3.55-0.65c-0.72-0.2-1.3-0.58-1.82-1.2c-0.16-0.2-0.7-1.02-0.82-3.5
		c0.16-2.72,0.74-3.48,0.8-3.56c0.54-0.63,1.11-1.06,1.75-1.29c0.91-0.33,1.99-0.58,3.2-0.73c1.33-0.16,3.46-0.25,6.33-0.25H394.48z
		 M401.37,604.32c0.92-2.31,2.23-4.19,4-5.76c1.77-1.57,4.01-2.79,6.65-3.62c2.75-0.87,5.94-1.3,9.48-1.3
		c4.68,0,8.74,0.77,12.06,2.27c3.19,1.45,5.54,3.51,7.2,6.3c1.67,2.82,2.52,6.34,2.52,10.47c0,4.13-0.85,7.66-2.53,10.49
		c-1.65,2.79-4,4.84-7.17,6.26c-3.31,1.48-7.38,2.24-12.09,2.24c-4.7,0-8.76-0.76-12.05-2.25c-3.14-1.42-5.45-3.46-7.05-6.21
		c-1.63-2.8-2.45-6.35-2.45-10.53C399.95,609.5,400.43,606.68,401.37,604.32z"/>
	<path class="st0" d="M421.41,626.07c3.53,0,6.19-0.73,8.15-2.22c1.94-1.49,3.19-3.28,3.7-5.32c0.39-1.55,0.65-3.41,0.78-5.53
		l0.01-0.16l-0.01-0.16c-0.14-3.24-0.95-6.13-2.41-8.61c-1.78-3.02-5.22-4.56-10.23-4.56c-7.75,0-12.19,4.85-12.19,13.29
		c0,3.3,0.77,6.25,2.29,8.75C413.32,624.55,416.65,626.07,421.41,626.07z M421.41,605.51c1.88,0,4.28,0.28,5.06,1.6
		c0.93,1.58,1.46,3.49,1.57,5.67c-0.11,1.68-0.31,3.12-0.6,4.27c-0.18,0.71-0.68,1.37-1.53,2.02c-0.59,0.45-1.85,0.99-4.5,0.99
		c-2.51,0-4.12-0.54-4.77-1.62c-0.96-1.58-1.42-3.42-1.42-5.64C415.21,606.75,417.69,605.51,421.41,605.51z"/>
	<path class="st0" d="M302.5,705.51l0-0.12l-0.01-0.13c-0.36-5.95-1.94-9.89-4.84-12.05c-2.68-2-5.02-2.98-7.14-2.98h-35.59v29.88
		h35.68c2.31,0,4.75-0.81,7.26-2.39C300.84,715.84,302.36,711.85,302.5,705.51z M294.67,712.64L294.67,712.64
		c-1.54,0.97-2.9,1.47-4.05,1.47h-29.68v-17.88h29.59c0.27,0,1.33,0.13,3.55,1.78c0.77,0.57,2.1,2.3,2.43,7.48
		C296.35,711.29,294.95,712.47,294.67,712.64z"/>
	<path class="st0" d="M735.15,664.86c-11.59-5.27-25.52-7.95-41.38-7.95c-11.93,0-22.77,1.51-32.24,4.49
		c-9.58,3.02-17.8,7.53-24.43,13.41c-6.16,5.46-10.98,12.17-14.4,19.96V657.9H430.87c-17.83,0-29.04,9.16-32.4,26.49
		c-3.31,17.06,5.94,35.76,27.49,55.58l0.17,0.15c6.05,4.76,6.83,6.94,6.93,7.42c-0.4,0.33-2.6,1.66-11.54,1.41h-27.89V657.9h-48.2
		v91.05h-32.53l-5.98-7.64c8.31-2.37,14.97-5.48,19.83-9.26c5.83-4.53,9.97-10.25,12.31-17.01c2.36-6.81,2.27-16.02-0.26-28.17
		l-0.16-0.52c-3.33-8.19-8.65-14.8-15.82-19.67c-7.1-4.82-16.21-7.77-27.09-8.77l-87.06-0.01v0h-60.46
		c-10.41,0-20.37,1.35-29.61,4.02c-9.32,2.69-17.7,6.85-24.92,12.35c-7.29,5.56-13.06,12.62-17.17,21
		c-4.11,8.37-6.19,17.98-6.19,28.57c0,15.01,3.47,27.92,10.32,38.37c6.85,10.45,16.33,18.38,28.19,23.59
		c11.7,5.14,24.95,7.75,39.37,7.75h59.85h0.61h52.26v-38.37l36.84,38.37h93.46h2.41h69.55l0.49-0.04
		c20.22-3.37,30.67-14.01,31.06-31.62c0.38-16.9-9.57-34.35-29.64-51.94c-4.63-3.84-5.45-5.72-5.6-6.24
		c0.5-0.34,2.72-1.44,10.51-1.2h63.35v91.05h48.2v-91.05h38.31c-2.1,7.18-3.18,15.19-3.18,23.94c0,14.77,3.04,27.5,9.03,37.83
		c6.04,10.41,15.03,18.38,26.72,23.67c11.5,5.21,25.41,7.85,41.33,7.85c15.92,0,29.85-2.63,41.41-7.8
		c11.75-5.26,20.86-13.25,27.08-23.74c6.18-10.42,9.31-23.14,9.31-37.81s-3.13-27.37-9.31-37.76
		C756.04,678.23,746.92,670.21,735.15,664.86z M202.67,787.56h-54.46c-13.59,0-26.02-2.44-36.95-7.25
		c-10.78-4.73-19.39-11.93-25.59-21.39c-6.2-9.45-9.34-21.25-9.34-35.08c0-9.67,1.88-18.39,5.57-25.93
		c3.69-7.53,8.88-13.88,15.42-18.87c6.62-5.05,14.34-8.87,22.94-11.36c8.7-2.51,18.1-3.79,27.95-3.79h54.46v32.61h-37.58
		c-9.31,0-16.04,0.27-20.57,0.83c-4.58,0.56-8.73,1.52-12.34,2.86c-3.89,1.43-7.36,3.93-10.32,7.43c-3.1,3.66-4.83,9.65-5.29,18.3
		l-0.01,0.14l0,0.14c0.33,8.42,2.06,14.39,5.28,18.24c3.14,3.76,7.03,6.29,11.57,7.52c4.1,1.12,8.37,1.9,12.7,2.34
		c4.27,0.43,10.66,0.64,18.97,0.64h37.58V787.56z M165.09,748.95c-8.12,0-14.3-0.21-18.38-0.61c-4-0.4-7.94-1.12-11.72-2.15
		c-3.38-0.92-6.17-2.75-8.54-5.58c-2.29-2.74-3.59-7.61-3.88-14.49c0.49-8.87,2.37-12.83,3.87-14.6c2.28-2.7,4.91-4.61,7.82-5.68
		c3.18-1.17,6.88-2.02,11-2.53c4.23-0.52,10.9-0.79,19.83-0.79h42.97v46.44H165.09z M387.64,787.56h-87.31l-45.4-47.29v47.29h-40.87
		V663.9h81.26c9.79,0.92,17.91,3.52,24.13,7.74c6.1,4.14,10.65,9.76,13.53,16.72c2.22,10.77,2.35,19.09,0.41,24.71
		c-1.95,5.64-5.42,10.43-10.32,14.24c-5.02,3.91-12.43,7.05-22.02,9.33l-4.55,1.08l13.48,17.23h41.46V663.9h36.2V787.56z
		 M616.69,696.51h-41.12v91.05h-36.2v-91.05l-69.26,0c-9.8-0.3-14.84,1.26-16.28,5.06c-1.74,4.61,3.06,9.37,7.38,12.95
		c18.61,16.31,27.87,32.2,27.53,47.24c-0.32,14.45-8.76,22.9-25.8,25.8h-65.71v-32.61l24.21,0c10.52,0.3,15.85-1.35,17.3-5.36
		c1.78-4.93-3.75-10.12-8.81-14.12c-19.86-18.28-28.46-35.08-25.58-49.94c2.82-14.56,11.49-21.63,26.51-21.63h185.83V696.51z
		 M757.1,761.2c-5.57,9.41-13.77,16.58-24.37,21.33c-10.78,4.83-23.89,7.28-38.95,7.28c-15.06,0-28.14-2.46-38.85-7.32
		c-10.53-4.77-18.61-11.91-24.01-21.22c-5.45-9.4-8.21-21.11-8.21-34.82c0-10.4,1.59-19.65,4.72-27.48
		c3.1-7.75,7.7-14.37,13.66-19.66c6-5.32,13.48-9.41,22.26-12.18c8.88-2.8,19.12-4.22,30.44-4.22c15,0,28.08,2.49,38.89,7.41
		c10.63,4.84,18.85,12.05,24.43,21.43c5.62,9.45,8.47,21.12,8.47,34.7C765.56,740.02,762.72,751.71,757.1,761.2z"/>
	<path class="st0" d="M719.16,703.51c-4.21-7.15-12.85-10.77-25.66-10.77c-14.03,0-30.75,5.91-30.75,34.07
		c0,8.84,2.03,16.68,6.05,23.29c4.3,7.09,12.61,10.69,24.7,10.69c9.14,0,16.17-1.84,20.9-5.47c4.75-3.64,7.77-7.92,8.99-12.74v0
		c1.09-4.33,1.83-9.57,2.2-15.59l0.01-0.16l-0.01-0.16C725.21,717.9,723.05,710.11,719.16,703.51z M717.57,741.12
		c-0.89,3.52-3.12,6.6-6.82,9.44c-3.66,2.81-9.47,4.23-17.26,4.23c-9.84,0-16.43-2.63-19.57-7.8c-3.43-5.66-5.18-12.45-5.18-20.17
		c0-19.15,7.86-28.07,24.75-28.07c10.54,0,17.43,2.63,20.49,7.82c3.36,5.7,5.24,12.51,5.6,20.22
		C719.24,732.36,718.56,737.18,717.57,741.12z"/>
	<path class="st0" d="M302.5,592.25H70.32v33.38H302.5V592.25z M296.5,619.63H76.32v-21.38H296.5V619.63z"/>
	<path class="st0" d="M770.55,592.25H538.37v33.38h232.18V592.25z M764.55,619.63H544.37v-21.38h220.18V619.63z"/>
</g>
</svg>
