<?xml version="1.0" encoding="utf-8"?>
<!-- Generator: Adobe Illustrator 25.3.0, SVG Export Plug-In . SVG Version: 6.00 Build 0)  -->
<svg version="1.1" id="Capa_1" xmlns="http://www.w3.org/2000/svg" xmlns:xlink="http://www.w3.org/1999/xlink" x="0px" y="0px"
	 viewBox="0 0 566.9 566.9" style="enable-background:new 0 0 566.9 566.9;" xml:space="preserve">
<style type="text/css">
	.st0{fill:#020203;}
</style>
<path class="st0" d="M522.8,375.2c-4.7-1.6-14.2-12.7-17.1-17.7c-0.6-1-1.8-1.4-2.9-0.9c-1,0.5-1.5,1.7-1.1,2.8
	c1.5,3.9,2.3,14.2,1.1,15.5c-0.8,0.2-1.6,0.2-2.2,0.2c0.4-0.7,0.3-1.6-0.2-2.3c-0.6-0.9-1.9-1.2-2.9-0.7c-1.1,0.6-1.9,1.2-2.6,1.8
	c-1.1-7.9-2.1-16.2-3.2-24.8c-2.1-17.5-4.3-35.6-7.7-51.8c-0.2-1.1-1.3-1.9-2.4-1.8c-1.1,0.1-2,1-2,2.1l-0.8,22.3
	c-0.8,20.5-1.6,42.9-2.7,64.1c-0.4-3.2-0.7-6.2-1-9.1c-0.5-4.5-1-8.9-1.5-13.4c-0.1-1.1-1.1-2-2.2-2h0c-1.1,0-2.1,0.8-2.2,2
	c-0.1,1.1-0.2,2.3-0.3,3.5c-0.1,2-0.3,4.7-0.9,6.2c-0.8-1.6-1.9-3.8-2.7-5.8c-2-4.5-3.3-7.3-4.6-8.7c-0.5-0.6-1.3-0.9-2-0.7
	c-0.8,0.1-1.4,0.6-1.7,1.4c-1.1,2.9-2.8,6.1-4.4,9.2c-1.6,3.1-3.1,6-4,8.4c-4.1-3.1-7-4.9-16.4-5c-5.9-0.1-14.1-9.2-15.2-15.3
	c-0.2-1-1.1-1.8-2.1-1.8c0,0,0,0-0.1,0c-1,0-1.9,0.7-2.2,1.7c-0.9,4.1-1.6,10.7-1.5,16.8c-0.2-0.2-0.3-0.3-0.5-0.5
	c-0.9-0.9-1.7-1.7-2.4-2.4c-0.6-0.7-1.6-0.9-2.5-0.5c-0.3,0.1-0.5,0.3-0.7,0.4c-2.2-25.4-6.7-52.4-10.5-74.7c-0.2-1.1-1.2-2-2.3-1.8
	c-1.1,0.1-2,1-2.1,2.1c-0.5,14.4-1.2,29.5-2,45.5c-0.6,12.6-1.3,25.4-1.8,38.8c-0.7-7-1.5-13.5-2.3-18.6c-0.2-1.1-1.1-1.9-2.2-1.9
	c0,0,0,0,0,0c-1.1,0-2,0.8-2.2,1.9c-0.6,4.7-2,6.4-2.6,6.7c-0.3,0.1-0.9-0.2-1.2-0.5c-2.4-1.9-5.1-5.5-5.4-8
	c-0.1-0.8,0.2-1.2,0.4-1.5c0.8-0.9,0.7-2.3-0.2-3.1c-0.9-0.8-2.3-0.8-3.1,0.1c-4.3,4.5-7,11.5-8.7,17.6c-4.2-3.2-9.2-3.6-14.3-4
	l-2.6-0.2c-6.3-0.6-14.7-7.4-15-13.9c-0.1-1-0.8-1.9-1.8-2.1c-1-0.3-2,0.3-2.4,1.2c-2.2,4.7-2.4,11.7-1.7,17.6
	c-0.9-0.7-1.5-1.5-1.9-2.2c-0.3-0.7-1-1.1-1.7-1.2c-0.7-0.1-1.5,0.2-2,0.7c-0.3,0.3-0.5,0.6-0.7,1c-3.4-33.6-5.8-54-10.8-75.8
	c-0.3-1.1-1.3-1.8-2.3-1.7c-1.1,0.1-2,1-2,2.1c-0.8,15.5-1.5,36.3-2.1,56.3c-0.3,8.1-0.5,16.1-0.8,23.5c-0.5-3.6-1.3-7-2.7-10.4
	c-0.4-1-1.5-1.6-2.6-1.3c-2.4,0.7-3.5,3.5-3.7,6.4c-1.3-1.7-2-3.5-2.6-5.3c-0.9-2.5-2-5.6-5.4-5.6c0,0,0,0-0.1,0
	c-3.2,0-4.2,3.6-5,6.8c-0.3,1.3-0.9,3.4-1.3,3.8c-1,0.5-2.2,0.8-3.5,1.1c0.7-0.9,1.2-2,1.2-3.3V226.4h48c2.9,0,5.3-2.4,5.3-5.3V212
	c0-2.9-2.4-5.3-5.3-5.3h-48V173c0-2.9-2.4-5.3-5.3-5.3h-9.1c-2.9,0-5.3,2.4-5.3,5.3v33.7h-48c-2.9,0-5.3,2.4-5.3,5.3v9.1
	c0,2.9,2.4,5.3,5.3,5.3h48v138.3c0,1.4,0.6,2.7,1.5,3.7l-222.9,0.9c-1.2,0-2.2,1-2.2,2.2c0,1.2,1,2.2,2.2,2.2h0l237.7-0.9
	c2.5-0.1,5.4-0.8,7.5-1.9c2.1-1,2.8-3.8,3.6-6.6c0.3-1,0.7-2.6,1.1-3.3c0.3,0.5,0.7,1.6,1,2.4c1.1,3.1,2.7,7.7,8.2,10.6
	c0.8,0.4,1.7,0.3,2.4-0.2c0.3-0.3,0.6-0.6,0.7-1c0.8,5.3,0.8,10.8,0.9,16.3c0.1,6.8,0.1,13.9,1.7,20.2c0.3,1,1.3,1.7,2.3,1.7
	c1.1-0.1,1.9-0.9,2.1-1.9c1-7.8,1.8-33.1,2.7-59.8c0.4-13,0.9-26.3,1.3-38.3c3.2,18.2,5.2,38.1,8.4,70c0.1,1.1,1,1.9,2,2
	c1.3,0.2,2-0.6,2.3-1.6c0.3-1.2,0.6-2.7,0.8-4.2c0.2-1.3,0.5-2.9,0.8-4.2c1.8,1.7,4,2.8,5.4,3.4c0.7,0.3,1.6,0.2,2.3-0.3
	c0.6-0.5,1-1.4,0.8-2.2c-0.7-3.7-1.2-8.5-0.8-12.7c3.7,5.6,10.5,9.9,16.3,10.4l2.6,0.2c6.2,0.5,10.7,0.9,14.2,5.3
	c0.5,0.7,1.4,1,2.2,0.8c0.8-0.2,1.5-0.8,1.7-1.7c1.2-5.5,2.9-10.3,4.8-14c1.3,2.9,3.8,5.8,6,7.5c2.5,1.9,4.6,1.5,5.6,1.1
	c0.8-0.3,1.5-0.8,2.1-1.5c0.8,6.9,1.6,15.1,2.3,23c0.7,7.4,1.4,14.5,2,20.2c0.1,1.2,1.2,1.9,2.3,2c1.2-0.1,2.1-1,2.1-2.2
	c0.6-26,1.8-49.5,2.9-72.2c0.4-8.2,0.8-16.2,1.2-23.9c3.4,21.5,6.8,45.1,7.8,66.6c0.1,1,0.8,1.8,1.7,2c1,0.2,2-0.2,2.4-1.1
	c1.5-2.8,2.5-5.5,2.9-8.4c1.1,1.1,2.3,2.3,3.5,3.6c0.6,0.7,1.7,1,2.6,0.6c0.9-0.4,1.4-1.3,1.3-2.3c-0.6-4.2-0.5-9.4-0.1-13.9
	c3.9,6,10.5,11.4,16.2,11.4c8.5,0.1,10.3,1.5,14.4,4.6l2,1.5c0.6,0.4,1.5,0.6,2.2,0.2c0.7-0.3,1.2-1,1.3-1.7
	c0.3-2.2,2.4-6.4,4.5-10.4c1-1.9,1.9-3.7,2.8-5.6c0.6,1.3,1.3,2.8,1.9,4.2c2,4.5,3.3,7.3,4.6,8.7c0.5,0.6,1.3,0.8,2,0.7
	c1.2-0.2,2.1-0.7,2.8-1.4c0,0.1,0,0.2,0,0.2c1.2,10,2.5,21.4,3.8,38c0.1,1.2,1,2,2.2,2h0c1.2,0,2.1-0.9,2.2-2.1
	c1.9-28.6,3.2-63,4.3-93.3l0.1-1.4c1.5,10.2,2.8,20.6,4.1,30.9c1.6,12.9,3.1,25.1,5,36.4c0.2,1.1,1.1,1.9,2.2,1.9c0,0,0.1,0,0.1,0
	c1.1,0,2-0.9,2.1-2c0.1-1.4,0.1-2.7,0.1-3.9c0-1.5,0-2.6,0.3-3.4c1.7,1,4.4,1,6.7,0.5c0.8-0.2,1.9-0.8,2.8-2.3
	c1.1-2.1,1.3-5.8,1-9.3c4.3,5.1,9.8,10.5,13.7,11.8c1.2,0.4,2.4-0.2,2.8-1.4C524.6,376.9,524,375.6,522.8,375.2z"/>
</svg>
