<?xml version="1.0" encoding="utf-8"?>
<!-- Generator: Adobe Illustrator 25.3.0, SVG Export Plug-In . SVG Version: 6.00 Build 0)  -->
<svg version="1.1" id="Capa_1" xmlns="http://www.w3.org/2000/svg" xmlns:xlink="http://www.w3.org/1999/xlink" x="0px" y="0px"
	 viewBox="0 0 566.9 566.9" style="enable-background:new 0 0 566.9 566.9;" xml:space="preserve">
<style type="text/css">
	.st0{fill:#010202;}
</style>
<g>
	<path class="st0" d="M121.8,191.9v14.5c0,0.9,0.8,1.7,1.7,1.7h43.3c0.9,0,1.7,0.8,1.7,1.7v27.8c0,0.9-0.8,1.7-1.7,1.7l-24.7,0
		c-0.7,0-1.3-0.4-1.6-1.1l-4.5-11.6c-0.3-0.7-0.9-1.1-1.6-1.1l-11.9,0c-1.2,0-2,1.3-1.5,2.4l12.4,27.7c0.3,0.6,0.9,1,1.5,1h43.9
		c0.9,0,1.7-0.8,1.7-1.7v-62.9c0-0.9-0.8-1.7-1.7-1.7h-55.4C122.5,190.2,121.8,190.9,121.8,191.9z"/>
	<path class="st0" d="M324.3,239.3l-5.2-3.5l0-45c0-0.9-0.8-1.7-1.7-1.7l-8.8,0c-0.9,0-1.7-0.8-1.7-1.7V90.3c0-0.9-0.8-1.7-1.7-1.7
		h-62.4c-0.9,0-1.7,0.8-1.7,1.7l-0.1,98.8c0,0.9-0.8,1.7-1.7,1.7h-52.3c-0.9,0-1.7,0.8-1.7,1.7v62.3c0,0.9,0.8,1.7,1.7,1.7h52.3
		c0.9,0,1.7-0.8,1.7-1.7v-13.9c0-0.9-0.8-1.7-1.7-1.7l-43.3-0.2l0-8.5l43.3-0.2c0.9,0,1.7-0.8,1.7-1.7v-12.1c0-0.9-0.8-1.7-1.7-1.7
		l-43.3-0.1l0-6.7l47.7-0.2c0.5,0,0.9,0.2,1.3,0.5l44.1,48.2c0.3,0.3,0.5,0.7,0.4,1.1c-0.3,13.6-1.6,248.7-1.8,270.4
		c0,0.9-0.8,1.6-1.7,1.6l-25.9,0.1c-0.9,0-1.7-0.8-1.7-1.7l1.6-263.1c0-0.9-0.8-1.7-1.7-1.7h-15.7c-0.9,0-1.7,0.8-1.7,1.7l1.7,280.5
		c0,0.9,0.8,1.7,1.7,1.7h59c0.9,0,1.7-0.8,1.7-1.7l-0.1-305.8c0-0.4-0.2-0.8-0.5-1.1l-44-47.4c-0.3-0.3-0.5-0.7-0.5-1.1l0-82.5
		c0-0.9,0.8-1.7,1.7-1.7l24.4,0c0.9,0,1.7,0.8,1.7,1.7l-0.1,81.4c0,0.9,0.7,1.7,1.7,1.7l15.7,0.1c0.9,0,1.7,0.8,1.7,1.7l0,46.2
		c0,0.3,0.1,0.6,0.2,0.9l9.8,16.2c0.3,0.5,0.9,0.8,1.5,0.8l32.5-0.1c0.6,0,1.1-0.3,1.4-0.7l11.4-16.4c0.2-0.3,0.3-0.6,0.3-1v-47.9
		c0-0.9-0.8-1.7-1.7-1.7l-8.7,0.1c-0.9,0-1.7,0.8-1.7,1.7v45l-5.2,3.5L324.3,239.3z"/>
	<path class="st0" d="M424.1,189H369c-0.9,0-1.7,0.8-1.7,1.7v38.1c0,0.9,0.8,1.7,1.7,1.7l43.5,0l0,8.6l-43.5,0
		c-0.9,0-1.7,0.8-1.7,1.7v14.3c0,0.9,0.8,1.7,1.7,1.7h55.1c0.9,0,1.7-0.8,1.7-1.7v-38.6c0-0.9-0.8-1.7-1.7-1.7l-44.5,0.1v-8.6
		l44.5-0.1c0.9,0,1.7-0.8,1.7-1.7v-13.9C425.7,189.8,425,189,424.1,189z"/>
</g>
</svg>
