<?xml version="1.0" encoding="utf-8"?>
<!-- Generator: Adobe Illustrator 25.3.0, SVG Export Plug-In . SVG Version: 6.00 Build 0)  -->
<svg version="1.1" id="Capa_1" xmlns="http://www.w3.org/2000/svg" xmlns:xlink="http://www.w3.org/1999/xlink" x="0px" y="0px"
	 viewBox="0 0 566.9 566.9" style="enable-background:new 0 0 566.9 566.9;" xml:space="preserve">
<style type="text/css">
	.st0{fill:none;stroke:#FFFFFF;stroke-width:2;stroke-miterlimit:10;}
	.st1{fill:none;stroke:#FFFFFF;stroke-miterlimit:10;}
	.st2{fill:#010202;}
	.st3{fill:#CFA30C;}
</style>
<g>
	<path class="st0" d="M283.5,196.3"/>
</g>
<g>
	<path class="st1" d="M283.5,196.3"/>
</g>
<path class="st2" d="M493.4,191.3v-35.9L283.5,34.3L73.5,155.5v35.9H29.7V362h43.8v35.9l209.9,121.2l209.9-121.2V362h43.8V191.3
	H493.4z M83.4,161.2l200-115.5l200,115.5v30.1h-15.1v-21.4L283.5,63.2L98.6,169.9v21.4H83.4V161.2z M463.4,191.3H103.5v-18.5
	L283.5,68.9l179.9,103.9V191.3z M483.5,392.2l-200,115.5l-200-115.5V362h15.1v21.4l184.9,106.7l183.7-106l1.2-0.7V362h15.1V392.2z
	 M103.5,380.6V362h359.9v18.5L283.5,484.5L103.5,380.6z M527.3,352.1H39.7V201.2h487.6V352.1z"/>
<g>
	<g>
		<path class="st3" d="M213.9,381.7v8.5h-3.7v-19.7h7c3.2,0,5.6,1.1,5.6,4.7c0,2.2-0.6,4.4-3,4.8v0.1c2.2,0.3,2.8,1.7,2.8,3.6
			c0,0.8-0.1,5.6,0.8,6.2v0.4h-4c-0.4-1.3-0.4-3.7-0.4-5c0-1.2,0-2.9-1.3-3.2c-1-0.3-2.1-0.3-3.1-0.3H213.9z M213.9,378.8h2.9
			c1.2-0.1,2.2-0.9,2.2-2.8c0-2.2-0.9-2.6-2.3-2.6h-2.7V378.8z"/>
	</g>
	<g>
		<path class="st3" d="M239.2,390.2v-19.7h10.3v2.9h-6.7v5h6.1v2.9h-6.1v6.1h6.7v2.9H239.2z"/>
	</g>
	<g>
		<path class="st3" d="M270,375.6c0.4,1,0.7,2,0.9,3h0.1c0.3-1.5,0.8-2.6,1.2-3.7l1.8-4.5h4l-5.2,11.3v8.4h-3.7v-8.4l-5.1-11.3h4
			L270,375.6z"/>
	</g>
	<g>
		<path class="st3" d="M321.2,390.2v-19.7h7.7c0.9,0,2.7,0.4,3.8,2.2c0.8,1.4,1.1,3.5,1.1,6.8c0,3.9,0,8.4-3,10.1
			c-0.8,0.5-1.8,0.5-2.7,0.5H321.2z M326.5,387.3c3.3,0,3.5-1.7,3.5-7.4c0-4.6-0.5-6.5-2.7-6.5h-2.4v13.9H326.5z"/>
	</g>
	<g>
		<path class="st3" d="M346.4,390.2v-19.7h10.3v2.9H350v5h6.1v2.9H350v6.1h6.7v2.9H346.4z"/>
	</g>
</g>
<g>
	<g>
		<path class="st2" d="M203.6,416c0.3-8.8,1-15.3,11.2-15.3c5.5,0,9.3,1.5,10.8,7.4c0.3,1.4,0.3,2.8,0.3,4.2h-6.4
			c-0.1-3.5-0.3-6.2-4.7-6.4c-5,0-4.6,6-4.6,8.7v9.5c0,2.8,0.2,7.5,4.6,7.5c3.7,0,4.9-3.9,4.7-9.1h-4.5v-5h10.7V436H221V432h-0.1
			c-1.3,3.6-3.7,4.6-6.1,4.8c-10.6,0-11.2-6.7-11.2-15.9V416z"/>
	</g>
	<g>
		<path class="st2" d="M235.7,436v-34.4h6.4v29.4h11.9v5H235.7z"/>
	</g>
	<g>
		<path class="st2" d="M261.8,416c0.3-8.8,1-15.3,11.2-15.3c10.3,0,11,6.5,11.2,15.3v4.9c0,9.2-0.7,15.9-11.2,15.9
			s-11.2-6.7-11.2-15.9V416z M268.4,424.1c0,2.8,0.2,7.5,4.6,7.5c4.6,0,4.6-4.7,4.6-8v-8.8c0-2.8,0.1-8.9-4.6-8.9
			c-5.1,0-4.6,6-4.6,8.7V424.1z"/>
	</g>
	<g>
		<path class="st2" d="M299.9,421.1V436h-6.4v-34.4h12.2c5.6,0,9.8,1.9,9.8,8.3c0,3.8-1,7.7-5.3,8.3v0.1c3.8,0.5,5,2.9,5,6.2
			c0,1.4-0.2,9.9,1.4,10.9v0.6h-7.1c-0.8-2.2-0.6-6.4-0.7-8.7c0-2.1,0-5-2.2-5.6c-1.7-0.5-3.6-0.5-5.5-0.5H299.9z M299.9,416.1h5
			c2.1-0.1,3.8-1.5,3.8-5c0-3.9-1.6-4.5-4-4.5h-4.8V416.1z"/>
	</g>
	<g>
		<path class="st2" d="M325.1,436v-34.4h6.4V436H325.1z"/>
	</g>
	<g>
		<path class="st2" d="M338.6,436l8.2-34.4h8.7l7.8,34.4h-6.9l-1.7-8.7h-7.5l-1.7,8.7H338.6z M348.2,422.2h5.5l-1.7-9.8
			c-0.3-1.6-0.5-3.2-0.6-4.8c0-0.8-0.1-1.6-0.2-2.3H351c-0.1,0.7-0.2,1.5-0.2,2.3c-0.2,1.6-0.3,3.2-0.6,4.8L348.2,422.2z"/>
	</g>
</g>
<g>
	<g>
		<path class="st3" d="M176.2,240.6v69c0,12.7-4.2,25.3-27.3,25.3c-8.4,0-27-2.7-27-22.6v-14.9h21.6v13.4c0,4-0.1,9.4,5.6,9.4
			c5.7,0,5.6-5.3,5.6-9.4v-70.1H176.2z"/>
	</g>
	<g>
		<path class="st3" d="M192.3,333.1v-92.5H237v14h-23.1v20.3h22.3v14h-22.3V319H237v14H192.3z"/>
	</g>
	<g>
		<path class="st3" d="M283.4,273.7v-13c0-4.5-1.4-7.1-5.7-7.1c-4.7,0-5.7,2.6-5.7,7.1c0,15.6,33,20.1,33,48.7
			c0,17.4-9.4,25.5-27.4,25.5c-13.8,0-27.1-4.7-27.1-20.7v-17.1H272v16c0,5.5,1.7,7,5.7,7c3.5,0,5.7-1.6,5.7-7
			c0-20.9-33-21.3-33-51.2c0-16.8,11-23.1,27.7-23.1c14.5,0,26.9,4.9,26.9,20.4v14.5H283.4z"/>
	</g>
	<g>
		<path class="st3" d="M375,306.7c-0.5,19.6-7.3,28.2-27.4,28.2c-26.6,0-27.1-18.6-27.1-30.3v-64H342v66.6c0,7.4,0,12.9,5.6,12.9
			c5.8,0,5.8-5.5,5.8-12.9v-66.6H375V306.7z M338.3,235.1l12.7-18.3H366l-19,18.3H338.3z"/>
	</g>
	<g>
		<path class="st3" d="M423.4,273.7v-13c0-4.5-1.4-7.1-5.7-7.1c-4.7,0-5.7,2.6-5.7,7.1c0,15.6,33,20.1,33,48.7
			c0,17.4-9.4,25.5-27.4,25.5c-13.8,0-27.1-4.7-27.1-20.7v-17.1H412v16c0,5.5,1.7,7,5.7,7c3.5,0,5.7-1.6,5.7-7
			c0-20.9-33-21.3-33-51.2c0-16.8,11-23.1,27.7-23.1c14.5,0,26.9,4.9,26.9,20.4v14.5H423.4z"/>
	</g>
</g>
<g>
	
		<rect x="76.1" y="275.5" transform="matrix(0.7071 0.7071 -0.7071 0.7071 225.2594 23.4677)" class="st2" width="16.4" height="16.4"/>
</g>
<g>
	
		<rect x="474.4" y="282.8" transform="matrix(0.7071 0.7071 -0.7071 0.7071 347.0995 -256.0464)" class="st2" width="16.4" height="16.4"/>
</g>
<g>
	<g>
		<polygon class="st2" points="215.3,152 219,159.5 227.3,160.7 221.3,166.5 222.7,174.7 215.3,170.8 207.9,174.7 209.3,166.5 
			203.3,160.7 211.6,159.5 		"/>
	</g>
	<g>
		<polygon class="st2" points="351.6,152 355.3,159.5 363.6,160.7 357.6,166.5 359,174.7 351.6,170.8 344.2,174.7 345.6,166.5 
			339.7,160.7 347.9,159.5 		"/>
	</g>
	<g>
		<path class="st2" d="M285.1,88.9c0.7,0.2,1.4,0.4,2,0.7c1.5,0.7,2.7,1.8,3.5,3.3c0.3,0.5,0.8,1.1,1.3,1.4c3,1.7,4.5,4.4,3.9,7.8
			c-0.4,2.4-2,4-4.1,5c-1,0.5-1.3,1-1.2,2.1c0.1,2.6,0,5.2,0,8.1c1.5,0,3,0,4.4,0c1.3,0,2.6,0,3.9,0.1c0.9,0.1,1.3-0.2,1.7-1
			c0.4-0.9,1-1.7,1.7-2.4c3.2-3.2,8.1-2.7,10.7,1.1c0.4,0.5,1,1,1.5,1.3c2.5,1.4,4.2,3.4,4.3,6.3c0.1,2.8-1.4,4.9-3.7,6.4
			c-0.5,0.3-1,0.8-1.2,1.4c-1.3,2.7-3.2,4.6-6.3,4.9c-2.8,0.3-5.7-1.6-7-4.5c-0.3-0.7-0.7-1-1.5-1c-2.5,0.1-4.9,0-7.4,0
			c-0.4,0-0.7,0-1.1,0c0,0.4-0.1,0.7-0.1,1.1c0,10.9,0,21.7,0,32.6c0,0.7,0.2,1.1,0.9,1.4c1,0.5,1.9,1.2,2.7,1.9
			c3.1,3.1,2.4,8.4-1.9,10.9c-0.6,0.3-1.1,0.9-1.5,1.5c-1.4,2.2-3.2,3.8-5.9,4c-3,0.2-5-1.4-6.6-3.7c-0.5-0.7-1.1-1.3-1.8-1.8
			c-2.3-1.6-4-3.6-3.8-6.5c0.2-3,1.9-5.1,4.6-6.3c0.5-0.2,0.8-0.4,0.8-1c0-11.2,0-22.3,0-33.5c0-0.1,0-0.3,0-0.5c-0.3,0-0.7,0-1,0
			c-3,0-6,0-9.1,0c-0.8,0-1.1,0.3-1.4,1c-1.3,2.7-3.3,4.4-6.4,4.5c-2.8,0.1-5.8-2.2-6.8-4.9c-0.2-0.5-0.5-1-1-1.3
			c-2.3-1.3-3.6-3.2-4-5.8c0-0.1-0.1-0.2-0.1-0.4c0-0.1,0-0.1,0-0.2c0.1-0.3,0.1-0.5,0.2-0.8c0.5-2.6,2-4.4,4.3-5.7
			c0.6-0.3,1.1-0.8,1.5-1.3c2.9-3.9,8.3-4.4,11.4-0.3c0.5,0.6,0.9,1.3,1.2,2c0.2,0.5,0.6,0.7,1.1,0.7c3.1,0,6.3,0,9.4,0
			c0.2,0,0.5-0.1,0.8-0.1c0-2.8-0.1-5.5,0-8.2c0-1-0.3-1.5-1.2-1.9c-3-1.3-4.8-4.7-4.1-7.7c0.5-2.1,1.9-3.6,3.7-4.8
			c0.5-0.3,1-0.6,1.3-1c1.2-2.2,2.9-3.7,5.3-4.6C283.7,88.9,284.4,88.9,285.1,88.9z M287.5,146.9
			C287.5,146.9,287.5,146.9,287.5,146.9c0-6.1,0-12.3,0-18.4c0-1.4,0.5-1.9,1.9-1.9c4,0,7.9,0,11.9,0c1.2,0,1.6,0.3,1.9,1.5
			c0.1,0.3,0.1,0.6,0.2,1c0.5,2.1,1.8,3.1,4.1,3c2-0.1,3.3-1.3,3.5-3.3c0.1-1.3,0.7-2.1,2-2.4c1.5-0.3,2.4-1.4,2.7-2.9
			c0.4-2.2-0.8-4-2.9-4.6c-0.9-0.2-1.7-0.5-2-1.5c-0.8-2-2.2-2.8-4.4-2.5c-1.8,0.3-3.2,1.7-3.2,3.6c0,1.1-0.6,1.8-1.6,1.8
			c-4.2,0-8.3,0-12.5,0c-1.2,0-1.6-0.5-1.6-1.7c0-4,0-8,0-12c0-1.4,0.5-1.9,2-2.1c2.1-0.3,3.3-1.5,3.5-3.6c0.1-1.9-0.9-3.4-2.7-3.9
			c-1.2-0.3-1.9-1-2.2-2.2c-0.5-1.8-1.8-2.7-3.6-2.7c-1.9,0-3.3,1-3.8,2.9c-0.3,1-0.7,1.7-1.9,1.9c-2,0.5-3,1.9-2.9,3.9
			c0.1,2.2,1.1,3.3,3.3,3.7c1.7,0.3,2.1,0.6,2.1,2.4c0.1,4,0,7.9,0,11.9c0,0.8-0.7,1.5-1.5,1.5c-4.6,0-9.1,0-13.7,0
			c-1.6,0-2-0.5-2.1-2c-0.1-1.6-1.3-2.9-2.9-3.3c-1.8-0.4-3.7,0.3-4.3,1.8c-0.5,1.3-1.4,1.9-2.7,2.3c-1.7,0.4-2.7,2-2.6,3.7
			c0,1.7,1.1,3.2,2.8,3.6c1.3,0.3,1.9,1.1,2,2.4c0.2,2,1.4,3.2,3.5,3.3c2.1,0.1,3.5-0.8,4.1-2.8c0.1-0.4,0.2-0.9,0.3-1.3
			c0.2-0.9,0.7-1.3,1.7-1.3c4.5,0,9,0,13.5,0c1.4,0,1.9,0.5,1.9,1.9c0,12.2,0,24.4,0,36.6c0,1.8-0.3,2.1-2.1,2.4
			c-1.2,0.2-2.4,0.6-3,1.9c-1.2,2.5,0,5.2,2.6,5.8c1,0.2,1.5,0.8,1.7,1.7c0.1,0.3,0.2,0.6,0.3,0.9c0.7,1.4,2.2,2.3,3.9,2.1
			c1.6-0.1,2.9-1,3.3-2.6c0.3-1.2,1-2,2.3-2.3c0.3,0,0.5-0.2,0.7-0.3c1.3-0.6,2.2-2.3,1.9-3.9c-0.3-1.9-1.5-3.2-3.1-3.4
			c-2.1-0.3-2.3-0.5-2.4-2.6C287.5,158.9,287.5,152.9,287.5,146.9z"/>
	</g>
</g>
<g>
	<g>
		<path class="st2" d="M267.2,458.4c0.1-0.4,0.2-0.8,0.3-1.2c0-0.1,0-0.1-0.1-0.2c-0.2-0.2-0.3-0.5-0.1-0.7c0.2-0.2,0.5-0.2,0.7,0
			c0.1,0.1,0.2,0.3,0.1,0.5c-0.1,0.1,0,0.2,0.1,0.3c0.3,0.2,0.6,0.4,0.8,0.5c0.1,0.1,0.1,0.1,0.1,0.2c-0.2,0.3-0.3,0.6-0.3,1
			c0,0.1,0,0.1,0,0.2c0.2,0.3,0.5,0.6,0.8,0.7c0.5,0.2,1.1-0.1,1.3-0.7c0.1-0.3,0.1-0.6,0.1-0.9c0-0.3-0.2-0.5-0.5-0.7
			c-0.3-0.2-0.7-0.4-1-0.6c0.1-0.5,0.2-0.9,0.4-1.4c-0.4-0.2-0.5-0.4-0.4-0.7c0.1-0.3,0.4-0.3,0.6-0.2c0.3,0.1,0.3,0.4,0.1,0.8
			c0.3,0.3,0.7,0.6,1.1,0.8c0.1,0.1,0.1,0.1,0.1,0.2c-0.2,0.4-0.4,0.8-0.4,1.3c0,0,0,0.1,0,0.1c0.3,0.5,0.6,1,1.1,1.3
			c0.6,0.3,1.3,0.1,1.6-0.5c0.1-0.3,0.2-0.6,0.2-1c0.1-0.7,0-1.4-0.1-2.1c0-0.1-0.2-0.3-0.3-0.4c-0.3-0.3-0.7-0.5-1.1-0.6
			c-0.1,0-0.2,0-0.1-0.2c0.1-0.5,0.2-1,0.4-1.5c0-0.1,0-0.1-0.1-0.2c-0.2-0.1-0.3-0.3-0.3-0.5c0-0.2,0.2-0.4,0.4-0.4
			c0.3,0,0.5,0.1,0.5,0.3c0.1,0.2,0.1,0.4-0.1,0.6c0.3,0.2,0.6,0.4,0.8,0.6c0.2,0.1,0.3,0.2,0.5,0.3c0.1,0.1,0.1,0.1,0.1,0.3
			c-0.2,0.4-0.3,0.8-0.4,1.2c0,0.3,0.1,0.5,0.2,0.8c0.3,0.4,0.5,0.8,0.9,1.2c0.3,0.4,0.8,0.7,1.3,0.8c0.7,0,1-0.2,1.2-0.9
			c0.1-0.5,0.1-1,0.1-1.5c-0.1-0.7-0.2-1.3-0.3-2c0-0.2-0.3-0.4-0.4-0.5c-0.4-0.3-0.8-0.5-1.3-0.6c0.1-0.3,0.2-0.6,0.2-0.8
			c0.1-0.3,0.1-0.6,0.2-0.9c0,0-0.1-0.1-0.1-0.2c-0.4-0.2-0.4-0.5-0.3-0.7c0.1-0.3,0.4-0.4,0.7-0.3c0.3,0.1,0.4,0.5,0.2,0.7
			c-0.1,0.2,0,0.3,0.1,0.3c0.4,0.3,0.8,0.6,1.3,0.8c0.1,0.1,0.1,0.1,0,0.2c-0.3,0.5-0.5,1-0.5,1.6c0,0.1,0,0.1,0,0.2
			c0.4,0.7,0.8,1.4,1.5,2c0.4,0.4,0.9,0.6,1.5,0.6c0.5,0,1-0.3,1.3-0.7c0.5-0.7,0.7-1.4,0.8-2.2c0.1-0.8,0.3-1.5,0.4-2.3
			c0-0.1-0.1-0.2-0.1-0.3c-0.5-0.6-1.1-1.2-1.8-1.6c0,0,0,0-0.1-0.1c0.7-0.6,1.4-1.3,2-2.1c-0.5-0.3-0.7-0.6-0.7-1.2
			c0-0.3,0.2-0.6,0.4-0.8c0.5-0.4,1.3-0.4,1.7,0.2c0.3,0.4,0.4,1.3-0.4,1.8c0.5,0.8,1.2,1.5,1.9,2.1c-0.2,0.1-0.4,0.3-0.6,0.4
			c-0.5,0.3-1,0.8-1.3,1.3c-0.1,0.1-0.1,0.2-0.1,0.3c0.2,0.9,0.3,1.8,0.5,2.7c0.1,0.6,0.3,1.1,0.6,1.6c0.5,0.8,1.5,1,2.4,0.5
			c0.6-0.4,1.1-1,1.5-1.6c0.1-0.2,0.2-0.4,0.3-0.5c0.2-0.3,0.2-0.6,0.1-0.9c-0.1-0.4-0.3-0.8-0.4-1.2c0.5-0.3,1.1-0.6,1.5-1.1
			c-0.2-0.4-0.2-0.7,0.1-0.9c0.3-0.2,0.6,0,0.8,0.3c0.1,0.3,0,0.6-0.4,0.8c0,0.7,0.2,1.3,0.4,1.9c-0.6,0.2-1.2,0.5-1.6,1
			c-0.1,0.1-0.1,0.3-0.2,0.5c-0.2,0.8-0.3,1.7-0.3,2.5c0,0.2,0,0.4,0.1,0.6c0.1,0.7,0.6,0.9,1.2,0.9c0.4,0,0.7-0.2,1-0.5
			c0.6-0.5,1-1.2,1.3-1.9c0.1-0.1,0-0.3,0-0.5c-0.1-0.4-0.2-0.8-0.4-1.1c-0.1-0.1,0-0.1,0-0.2c0.3-0.2,0.7-0.4,1-0.6
			c0.1-0.1,0.3-0.2,0.4-0.3c-0.2-0.4-0.1-0.7,0.2-0.8c0.2-0.1,0.6,0.1,0.6,0.3c0.1,0.3,0,0.6-0.4,0.7c0,0.6,0.2,1.2,0.4,1.7
			c-0.3,0.1-0.5,0.2-0.8,0.4c-0.3,0.2-0.5,0.4-0.7,0.6c-0.1,0.1-0.2,0.4-0.2,0.6c0,0.6-0.1,1.2,0,1.9c0,0.4,0.2,0.8,0.4,1.1
			c0.3,0.4,0.9,0.5,1.4,0.3c0.5-0.3,0.9-0.7,1.1-1.2c0-0.1,0-0.1,0-0.2c0-0.4-0.1-0.9-0.4-1.2c-0.1-0.1-0.1-0.2,0.1-0.3
			c0.3-0.2,0.7-0.4,1-0.7c0.1-0.1,0.1-0.1,0.1-0.2c0,0,0-0.1,0-0.1c-0.1-0.2,0.1-0.5,0.3-0.6c0.3-0.1,0.5,0,0.6,0.3
			c0.1,0.2,0,0.5-0.2,0.6c-0.2,0.1-0.1,0.2-0.1,0.3c0,0.2,0.1,0.4,0.1,0.6c0.1,0.2,0.1,0.4,0.2,0.6c0,0-0.1,0.1-0.1,0.1
			c-0.5,0.2-0.9,0.4-1.3,0.9c0,0-0.1,0.1-0.1,0.2c0,0.4,0,0.9,0.2,1.3c0.2,0.4,0.8,0.6,1.2,0.5c0.4-0.1,0.6-0.4,0.8-0.7
			c0-0.1,0-0.2,0-0.2c-0.1-0.3-0.2-0.7-0.4-1c-0.1-0.1,0-0.1,0.1-0.2c0.3-0.2,0.6-0.4,1-0.6c0-0.1-0.1-0.2-0.1-0.4
			c0-0.2,0.1-0.4,0.3-0.4c0.2-0.1,0.4,0,0.5,0.2c0.1,0.2,0.1,0.4-0.1,0.5c-0.2,0.1-0.2,0.3-0.1,0.4c0.1,0.3,0.2,0.6,0.2,0.9
			c0,0.1,0,0.2-0.1,0.2c-0.3,0.1-0.6,0.3-0.9,0.5c-0.2,0.2-0.3,0.4-0.3,0.7c-0.2,0.9-0.5,1.8-1,2.6c-0.1,0.2-0.3,0.4-0.4,0.6
			c-0.1,0.1-0.1,0.1-0.2,0.1c-0.9-0.4-1.8-0.7-2.7-0.9c-0.9-0.2-1.7-0.4-2.6-0.5c-0.8-0.1-1.5-0.3-2.3-0.3c-0.7-0.1-1.4-0.1-2.1-0.2
			c-1-0.1-1.9-0.1-2.9-0.1c-1,0-2,0-3.1,0c-1,0-1.9,0.1-2.9,0.2c-0.5,0-1,0.1-1.5,0.2c-0.7,0.1-1.4,0.2-2,0.3
			c-0.7,0.1-1.5,0.3-2.2,0.5c-0.7,0.2-1.3,0.4-2,0.7c-0.2,0.1-0.3,0.1-0.5,0.2c-0.1,0-0.2,0-0.2-0.1c-0.3-0.4-0.5-0.8-0.8-1.3
			c-0.3-0.7-0.6-1.4-0.7-2.2c0-0.3-0.2-0.4-0.4-0.6c-0.2-0.1-0.5-0.2-0.7-0.3C267.3,458.5,267.2,458.4,267.2,458.4z M284.6,458.5
			c0-0.6-0.5-1.2-1.1-1.2c-0.7,0-1.2,0.5-1.2,1.2c0,0.7,0.5,1.2,1.2,1.2C284.1,459.6,284.6,459.1,284.6,458.5z M287.5,458.6
			c0-0.6-0.5-1.1-1-1.1c-0.6,0-1.1,0.5-1.1,1.1c0,0.6,0.4,1,1.1,1.1C287,459.7,287.5,459.1,287.5,458.6z M280.4,457.5
			c-0.6,0-1.1,0.5-1,1.1c0,0.6,0.5,1,1,1c0.6,0,1.1-0.4,1.1-1C281.5,458,281,457.5,280.4,457.5z M277.9,459.8c0.4,0,0.8-0.3,0.8-0.7
			c0-0.4-0.3-0.7-0.7-0.8c-0.4,0-0.8,0.3-0.8,0.7C277.2,459.4,277.4,459.8,277.9,459.8z M289,458.3c-0.4,0-0.8,0.3-0.8,0.7
			c0,0.4,0.3,0.8,0.8,0.8c0.4,0,0.7-0.3,0.7-0.7C289.8,458.6,289.4,458.3,289,458.3z M291.7,459.5c0-0.3-0.3-0.6-0.6-0.7
			c-0.3,0-0.6,0.3-0.7,0.6c0,0.3,0.3,0.7,0.6,0.7C291.4,460.1,291.7,459.9,291.7,459.5z M276.5,459.5c0-0.3-0.3-0.7-0.6-0.7
			c-0.3,0-0.7,0.3-0.7,0.7c0,0.4,0.3,0.6,0.6,0.6C276.2,460.2,276.5,459.8,276.5,459.5z M274.6,460.1c0-0.3-0.2-0.5-0.5-0.5
			c-0.3,0-0.5,0.2-0.5,0.5c0,0.3,0.3,0.5,0.5,0.5C274.3,460.6,274.6,460.4,274.6,460.1z M293.3,460.1c0-0.3-0.3-0.5-0.5-0.5
			c-0.3,0-0.5,0.2-0.5,0.5c0,0.3,0.3,0.5,0.5,0.5C293.1,460.6,293.3,460.4,293.3,460.1z M294.2,461.1c0.2,0,0.4-0.2,0.4-0.4
			c0-0.2-0.2-0.4-0.4-0.4c-0.2,0-0.4,0.2-0.4,0.4C293.7,460.9,293.9,461.1,294.2,461.1z M272.8,460.3c-0.2,0-0.4,0.2-0.4,0.4
			c0,0.3,0.2,0.4,0.4,0.4c0.2,0,0.4-0.2,0.4-0.4C273.2,460.5,273,460.3,272.8,460.3z"/>
	</g>
	<g>
		<path class="st2" d="M285.1,464.4c-0.8,0-1.6,0-2.4,0c-0.9,0-1.8,0.1-2.7,0.1c-0.8,0.1-1.6,0.2-2.4,0.3c-1.1,0.2-2.3,0.4-3.4,0.6
			c-0.9,0.2-1.8,0.4-2.7,0.7c-0.6,0.1-1.3-0.1-1.6-0.7c-0.3-0.6-0.2-1.2,0.3-1.7c0.3-0.3,0.7-0.4,1.1-0.5c0.8-0.2,1.5-0.4,2.3-0.5
			c0.9-0.2,1.9-0.4,2.9-0.5c0.7-0.1,1.3-0.2,2-0.3c0.5-0.1,1-0.1,1.4-0.1c1.3-0.1,2.5-0.1,3.8-0.1c0.9,0,1.9,0,2.8,0.1
			c0.9,0.1,1.9,0.2,2.8,0.3c0.8,0.1,1.7,0.3,2.5,0.4c1,0.2,1.9,0.4,2.9,0.6c0.5,0.1,1,0.2,1.4,0.4c0.6,0.3,0.9,0.9,0.8,1.5
			c-0.2,0.6-0.7,1.1-1.4,1c-0.3,0-0.6-0.1-0.9-0.2c-0.5-0.1-1-0.3-1.4-0.4c-0.8-0.2-1.7-0.4-2.5-0.5c-0.6-0.1-1.1-0.2-1.7-0.3
			c-1-0.1-2-0.2-3-0.3C285.8,464.5,285.5,464.4,285.1,464.4C285.1,464.4,285.1,464.4,285.1,464.4z"/>
	</g>
	<g>
		<path class="st2" d="M283.3,466c-1,0-1.8,0.1-2.6,0.1c-1.4,0.1-2.7,0.2-4.1,0.5c-1.3,0.3-2.6,0.5-3.9,0.8c-0.2,0-0.4,0.1-0.6,0.2
			c-0.3,0.1-0.6-0.1-0.6-0.3c-0.1-0.3,0.1-0.5,0.4-0.6c0.8-0.2,1.6-0.4,2.5-0.6c0.7-0.2,1.4-0.3,2.1-0.4c0.7-0.1,1.5-0.2,2.3-0.3
			c1-0.1,2-0.2,3-0.2c0.9,0,1.8,0,2.7,0c0.7,0,1.4,0,2.1,0.1c0.7,0,1.3,0.1,2,0.2c0.7,0.1,1.4,0.2,2.1,0.3c0.9,0.2,1.7,0.3,2.5,0.5
			c0.6,0.1,1.1,0.3,1.7,0.4c0.2,0.1,0.4,0.1,0.6,0.3c0.1,0.2,0.1,0.4,0,0.5c-0.1,0.2-0.3,0.2-0.5,0.2c-0.9-0.2-1.9-0.5-2.8-0.7
			c-0.5-0.1-0.9-0.2-1.4-0.3c-0.7-0.1-1.4-0.2-2.2-0.3c-0.7-0.1-1.4-0.2-2.1-0.2C285.3,466,284.2,466,283.3,466z"/>
	</g>
</g>
</svg>
