<?xml version="1.0" encoding="utf-8"?>
<!-- Generator: Adobe Illustrator 25.3.0, SVG Export Plug-In . SVG Version: 6.00 Build 0)  -->
<svg version="1.1" id="Capa_1" xmlns="http://www.w3.org/2000/svg" xmlns:xlink="http://www.w3.org/1999/xlink" x="0px" y="0px"
	 viewBox="0 0 566.9 566.9" style="enable-background:new 0 0 566.9 566.9;" xml:space="preserve">
<style type="text/css">
	.st0{fill:#020203;}
</style>
<g>
	<path class="st0" d="M204.5,266c4.5,2.7,10.1,4.1,16.7,4.1c2,0,3.7-0.2,5.1-0.6c1.3-0.4,2.6-1.1,3.8-2.2c1.2-1.1,1.8-2,1.8-2.8
		c0-0.7-0.6-1.3-1.8-1.7c-0.8-0.2-1.6-0.3-2.3-0.3c-1.9,0-3.5,0.7-4.8,2l-1.4,1.6l-2.9-1.4c-5.2-2.8-9.5-9.8-12.8-20.8
		c-3.3-11-5-24-5.1-38.8c0-4.9,0.2-10.2,0.6-15.9c0.4-5.8,0.8-10.8,1.3-15c0.5-4.3,1-6.6,1.4-7c0.5-0.3,1.5-1,3.2-2.3
		c1.7-1.2,3.4-2.6,5.3-4c1.9-1.5,3.4-2.7,4.7-3.7c12.4-10.4,21.7-20.8,28-31.4c5-8.4,7.5-16.1,7.5-22.9c0-1.7-0.1-3.3-0.4-4.9
		c-1.9-7.8-7.6-11.7-17.1-11.7c-3.3,0-6.5,0.5-9.6,1.4c-11.7,3.4-21.2,12.9-28.7,28.6c-3.1,7.1-6.1,15.9-8.8,26.3
		c-2.9,11.4-5,22.2-6,32.5c-7.5,4.8-13.1,8.2-16.7,10.5l-0.4-8.8c-1.1-20.7-4.8-38.2-11-52.4c-7.1-15-17-22.5-29.6-22.5
		c-13.6,0-24.4,8.5-32.3,25.5c-2.1,4.4-3.6,8.3-4.6,11.9c-1.2,4.8-1.9,10-1.9,15.6c0,7.6,2,14.4,6.1,20.4c3.5,5.6,7.4,8.3,11.8,8.3
		c2,0,3.1-0.5,3.1-1.4c0-0.5-0.5-1-1.5-1.5c-1.6-0.8-3.2-2.7-4.9-5.6c-1.7-2.9-3-6.3-4.1-10.1c-0.6-2.4-0.9-5.5-0.9-9.1
		c0-4.5,0.4-8.8,1.3-12.7c1.5-6.6,4-12.9,7.5-18.8c3.5-5.9,7.3-10.4,11.5-13.5c2.8-2.1,4.9-3.1,6.1-3.1c0.7,0,1.5,0.3,2.2,0.8
		c8.2,5.8,14.3,24,18.2,54.6c1.6,12.7,2.4,22.6,2.4,29.7c0,3.7-0.3,5.9-0.9,6.4c-1.9,0.9-5.7,3.6-11.5,8.2
		c-11.2,8.8-18.3,18.1-21.4,27.9c-1.4,4.2-2,7.9-2,11.1c0,6.6,2.7,11.4,8.1,14.4c2.5,1.1,5.3,1.7,8.5,1.7
		c15.7,0,27.1-12.6,34.2-37.7c1.5-5.2,2.8-10.4,3.7-15.6c1-5.2,1.5-9.4,1.5-12.6c0-1.3,0.1-2.5,0.3-3.5c0.4-0.9,5.8-4.4,16.2-10.6
		l-0.4,18.5c0,20.8,3.3,37.4,10,49.8c1.7,3.4,4.1,6.6,7.1,9.7C200,262.8,202.3,264.7,204.5,266z M205.2,155.4
		c2.2-12.5,5.4-24.8,9.5-36.7c4.6-12.5,10.1-20.9,16.5-25.2c1.6-1.1,2.9-1.6,3.8-1.6c2.2,0.1,4.2,1.6,5.9,4.7c0.6,1.1,1,2.2,1.3,3.1
		c0.3,1.5,0.4,3.6,0.4,6.4c0,3.5-0.9,7.4-2.8,11.9c-4.1,9.4-11.4,19.2-21.8,29.5l-6.1,5.6c-2.2,2-4.6,4.1-7.4,6.3L205.2,155.4z
		 M143.7,210c-1.9,25.4-6.9,41-15,46.7c-1.4,1-2.5,1.4-3.4,1.4c-3.2-0.3-5.7-3-7.6-8.2c-0.5-1.4-0.8-3-0.8-4.8c0-2.9,0.7-6.4,2-10.4
		c2.8-8.8,8.8-16.9,18-24.5c3.9-3.1,6.1-4.7,6.7-4.7c0.1,0,0.1,0.7,0.1,2.1L143.7,210z"/>
	<path class="st0" d="M247,236.4c-0.4-5.4-0.6-9.1-0.6-11.1c0-6.9,0.8-17.6,2.5-32.3c1.4-12.1,2-20.1,2-24c0-2.7-0.3-4.5-0.8-5.3
		c-1.6-2.4-4.4-3.6-8.3-3.6c-3.7,0-6.9,1.1-9.4,3.2c-1.1,1.1-2.1,2.8-3.2,5.3c-1,2.4-1.9,5.1-2.4,7.9c-0.8,4.3-1.2,10.3-1.2,17.8
		l0.1,8.8c0.1,10,1.6,19.2,4.3,27.6c1.1,3.6,2.3,6.3,3.4,8.2c2.3,4.3,5.9,6.4,10.7,6.4c2.8,0,5.2-0.9,7-2.6
		c3.3-3,8.4-11.1,15.4-24.3c0.2-0.5,0.4-0.9,0.7-1.4c0.1,3,0.1,5.9,0.1,8.5c0,4.6-0.1,9.1-0.3,13.5c-0.2,4.3-0.9,9-2,14
		c-1.9,9.9-4.9,17.1-9.1,21.7c-2.9,3.3-5.6,4.9-8,4.9l-0.7-0.1c-2.6-0.5-4.8-0.7-6.5-0.7c-2.7,0-4.1,0.6-4.1,1.9c0,1.3,2,2.7,6,4.2
		c2.2,0.7,4.8,1,8.1,1c2.5,0,4.7-0.2,6.7-0.7c9.5-2.7,16.8-9.7,22.1-20.8c3.7-7.9,6.3-17,7.8-27.3c1.1-8.3,1.7-18,1.7-29.1l-0.1-9.1
		c-0.4-23.7-1.2-36.3-2.4-37.9c-1-2.7-3.4-4.1-7.2-4.1h-1c-6,0-9.7,4.2-11,12.7c-0.5,3.1-0.8,9-0.8,17.8c0,4.2,0.1,9.3,0.2,15.1
		c-1,1.8-2.4,4.5-4.3,8.1C257.3,221.5,252.1,230,247,236.4z"/>
	<path class="st0" d="M242.3,151.9h1.7c1-0.1,2.1-0.3,3.4-0.8c1.3-0.5,2-1.2,2-2c0-0.9-1-1.8-2.9-2.6c-1.6-0.9-3.3-1.3-4.9-1.3
		c-3.5,0-5.8,0.4-6.7,1.3c-0.7,0.7-1.1,1.2-1.1,1.4c0,0.5,0.4,1,1.3,1.7C236.8,151.1,239.3,151.9,242.3,151.9z"/>
	<path class="st0" d="M274.7,150c1.1,0.2,2.2,0.3,3.1,0.3c4,0,5.9-0.9,5.9-2.8c0-1.8-2.3-2.7-6.8-3h-0.4c-4.6,0-6.9,0.9-6.9,2.7
		C269.6,148.4,271.3,149.4,274.7,150z"/>
	<path class="st0" d="M311.6,242.2c3.2,0,5.8-0.6,7.9-1.9c2.1-1.2,4.4-3.6,6.8-7.1l2.8-3.7c0.6,2.4,1.1,4.3,1.5,5.5
		c1.2,3.6,2.3,6,3.2,7.2c1.1,1.6,2.9,2.5,5.4,2.5c2,0,3.5-0.5,4.7-1.4c0.3-0.3,0.5-1.3,0.5-3c0-1.9,0.2-4.1,0.6-6.6
		c2.7-20.1,4.1-35.5,4.1-46.2c0-13.3-3.1-22.7-9.3-28.2c-3.7-3.3-8.2-5-13.5-5c-1.4,0-2.8,0.1-4.2,0.3c-7.9,1.5-13.9,6-17.9,13.7
		c-1.8,3.5-2.7,6.9-2.7,10.2c0,2.9,0.4,4.8,1.1,5.9c0.7,1,2.1,1.5,4.2,1.5c2.2,0,3.3-1.4,3.3-4.3c0.3-4.5,1.6-8.6,3.7-12.3
		c2.1-3.7,4.8-6.5,8-8.2c1.1-0.6,1.9-0.9,2.5-0.9c0.2,0,0.5,0.1,0.9,0.3c0.4,0.2,1,1.1,1.7,2.6c1.1,2,1.8,4.4,2.2,7.3
		c0.3,2.5,0.4,6.9,0.4,13.1c0,7.2-0.1,11-0.3,11.6c-0.5,0-1.5-0.5-3.2-1.5l-2.4-1.2c-1.6-0.6-3.9-0.9-6.8-0.9
		c-3.1,0-5.6,0.3-7.6,0.9c-6.9,2.3-11.6,8.6-14.3,19c-0.7,3.1-1.1,6.5-1.1,10.3c0,3,0.3,5.5,0.9,7.4
		C297.5,237.9,303.1,242.2,311.6,242.2z M313.3,211.9c1.1-4.4,2.4-7.9,3.8-10.4l1.2-2l2.7,2.5c1.7,1.6,3.3,3.6,4.7,5.9
		c1.7,2.8,2.5,4.9,2.5,6.4c0,1.6-2.9,5.8-8.7,12.8c-1.1,1.4-3.2,3.5-6.2,6.5c-1.1-4.9-1.7-8.2-1.7-10.1
		C311.7,220.2,312.2,216.4,313.3,211.9z"/>
	<path class="st0" d="M288.8,338.5c-8.6-2.5-17.1-3.8-25.7-3.8c-6,0-14.2,1.1-24.6,3.3c-10.3,2.2-20.4,8-30.1,17.4
		c-8,7.9-12.6,17.1-14,27.5c-0.6,2.5-0.9,5.5-0.9,8.8c0,5.3,0.7,9.9,2.1,13.9c2.2,6.4,7.2,9.6,15,9.6c5.8-0.1,8.7-1.1,8.7-3.3
		c0-1-1.4-1.7-4.3-2.1c-1.1-0.1-1.9-0.3-2.3-0.6c-0.4-0.3-0.9-0.8-1.4-1.7c-1.5-3-2.4-6.3-2.6-9.7l-0.2-3.9c0-8,1.8-16.1,5.4-24.3
		c4.8-9.9,12.1-17.5,21.9-22.8c8.3-4.4,17.2-6.6,26.9-6.6c1.9,0,3.8,0.1,5.7,0.2c11.2,1.1,20.8,4.1,29,8.9
		c8.2,4.9,14.3,11.2,18.4,19.1c1.5,2.9,2.6,5.7,3.2,8.4c0.8,3.7,1.2,9.9,1.2,18.5c0,2.6-0.3,5.4-0.9,8.3
		c-2.2,11.8-6.2,23.9-11.8,36.4c-4.3,9-9.6,17.8-15.9,26.2c-6.3,8.4-12,14.6-17.4,18.5l-2.6,1.9l-1-1.1c-1.5-1.9-2.7-5.7-3.6-11.5
		c-0.6-3.3-0.9-7.2-0.9-11.8c0-10.2,1.5-23.2,4.5-39c1.2-6.9,3.5-17.4,6.7-31.4c0.9-4.3,1.4-7.5,1.4-9.6c0-3.6-2.5-5.3-7.4-5.3
		l-1.8,0.1c-4.1,0.1-7.4,1.5-9.9,4.3c-2.5,2.8-5,7.9-7.5,15.3c-3.6,10.5-6.3,21.8-8.1,34.1c-1.1,7.9-1.7,14.8-1.7,21
		c0,3.8,0.2,6.9,0.5,9.5c3.2,21.5,11.6,32.3,25.3,32.3c5.6,0,11.2-2.1,16.7-6.3c5.8-4.6,12-12,18.7-22.1
		c6.7-10.1,12.2-20.4,16.6-31.1c6.7-16.4,10-30.9,10-43.4c0-9.3-1.9-17.5-5.5-24.6C318,353.1,306,343.9,288.8,338.5z"/>
	<path class="st0" d="M350.9,382.2c-1.5-0.8-3-1.2-4.5-1.2c-3.2,0-5.2,0.4-6.1,1.2c-0.7,0.7-1,1.1-1,1.2c0,0.4,0.4,0.9,1.2,1.5
		c1.7,1.4,3.9,2.2,6.7,2.2h1.5c0.9,0,1.9-0.3,3.1-0.8c1.2-0.5,1.8-1.1,1.8-1.8C353.5,383.7,352.7,382.9,350.9,382.2z"/>
	<path class="st0" d="M480.7,424.2c-0.7-0.3-1.5-0.4-2.4-0.4c-3.9,0-10,1.7-18.3,5.2c-2.8,1.2-4.7,2.1-5.7,2.8
		c-4.2-6.7-6.5-11.2-6.7-13.6c-0.4-2-0.5-3.5-0.5-4.7c0-0.9,0.1-1.9,0.2-2.9c0.6-4.7,2-8.7,4.3-12.1c2.3-3.4,4.3-5,6.1-5
		c1,0,1.9-0.2,2.6-0.7c0.7-0.5,1-0.9,1-1.4c-0.9-3-4.6-4.6-10.9-4.6c-2.5,0-4.9,0.3-7,0.9c-2.1,0.6-4.4,1.8-6.8,3.5
		c-6.6,4.9-9.8,12.8-9.8,23.7v0.7c-2.4,0.5-6.5,1.4-12.5,3l-2.2,0.5c-0.1,0-0.3-0.8-0.7-2.5c-1.8-8.1-4.4-13.9-8-17.3
		c-4.2-4.2-9-6.3-14.4-6.3c-1.8,0-3.7,0.2-5.6,0.7c-5.3,1.5-9.3,4.3-12.2,8.4c-2,2.7-2.9,5.5-2.9,8.2c0,1.3,0.2,2.6,0.7,3.9
		c0.8,2.2,2.8,4.2,6,6.1l2.8,1.7l-1.5,0.6c-3.2,1.3-5.3,4.5-6.3,9.5c-0.9,1.6-2.4,4.4-4.5,8.5c-4.8,9.7-9.5,17.4-14.2,23.3
		c-0.4-4.9-0.5-8.3-0.5-10.1c0-6.2,0.8-16.1,2.3-29.4c1.2-11,1.9-18.3,1.9-21.8c0-2.5-0.2-4.1-0.7-4.8c-1.4-2.2-4-3.3-7.6-3.3
		c-3.4,0-6.3,1-8.6,2.9c-1,1-2,2.6-2.9,4.8c-1,2.2-1.7,4.6-2.2,7.2c-0.7,3.9-1.1,9.3-1.1,16.3l0.1,8.1c0.1,9.1,1.4,17.5,4,25.2
		c1,3.3,2.1,5.8,3.1,7.5c2.1,3.9,5.4,5.8,9.8,5.8c2.6,0,4.7-0.8,6.4-2.3c3-2.7,7.7-10.1,14-22.2c0.1-0.3,0.3-0.6,0.4-0.8
		c0.4,5.5,1.5,10.2,3.2,14.1c2.3,5.2,5.4,8.5,9.3,9.8c1.6,0.5,3.3,0.7,5.1,0.7c3.7,0,7-0.9,10-2.7c4.2-3,7.8-8.3,10.7-15.8
		c2.9-7.6,4.5-15.6,4.7-24.1V424l1.9-0.5c5.6-1.5,9.8-2.8,12.6-4c0.9,5.7,3.7,11.3,8.5,16.9l4.3,5.1l-5,5.1
		c-9,9.3-13.5,17.9-13.5,26c0,2.5,0.6,4.8,1.9,6.9c1.9,3,4.6,5.1,8.3,6.3c1.7,0.5,3.9,0.7,6.8,0.7c8.1,0,14.8-2.6,20.1-7.8
		c4.8-4.6,7.2-10,7.2-16.2c0-3.6-0.5-7-1.5-10.3c-0.8-2.5-2.2-5.6-4.1-9.5c-1.9-3.8-2.9-5.8-2.9-6c0-0.5,2.6-1.9,7.8-4.4
		c4.8-2.3,8.5-3.8,11.1-4.5c0.6-0.2,1.2-0.3,1.9-0.5c0.7-0.2,1.4-0.4,1.9-0.5c1-0.3,1.5-0.6,1.5-1.1
		C481.6,425.3,481.3,424.8,480.7,424.2z M378.4,409.2c0-3.5,1.5-6.7,4.5-9.7c1.8-1.8,3.5-2.7,5-2.7c1.8,0,3.8,0.8,6.1,2.3
		c2.3,1.5,4.2,3.7,5.7,6.4c0.8,1.5,1.5,3.4,2.3,5.7c1.3,4.1,2,7,2,8.6c0,0.4-0.1,0.6-0.2,0.8c-0.2,0.2-0.8,0.3-2,0.4h-4.4
		c-3,0-6.1-0.6-9.2-1.7C381.6,416.9,378.4,413.6,378.4,409.2z M404.2,430.6c-0.6,9.7-3,18.5-7.2,26.5c-1.6,2.9-3,5.2-4.3,6.7
		c-1.3,1.5-2.2,2.3-2.6,2.3c-0.4,0-0.9-0.8-1.5-2.5c-0.6-1.7-1.1-3.7-1.6-5.9c-0.6-2.6-0.9-8.3-0.9-17.1c0-8.5,0.1-13.3,0.4-14.4
		c0.2-0.7,0.4-1.1,0.8-1.1c0.4,0,1.1,0.1,1.9,0.2c1.9,0.3,4.9,0.4,8.8,0.4l6.4-0.1L404.2,430.6z M450.3,470.7
		c-0.5,2.7-2,5.2-4.6,7.7c-1.6,1.4-3.1,2.5-4.7,3c-1.3,0.5-2.2,0.7-2.6,0.7c-0.5,0-1.2-0.3-2.2-0.8c-1.5-0.8-2.8-2.1-3.8-4
		c-1-1.9-1.5-4-1.5-6.3c0-6.8,4.2-14.8,12.6-24.1c2.7,4.4,4.8,8.6,6.1,12.5c0.6,1.5,0.9,3.9,0.9,7.1
		C450.5,468.5,450.4,469.9,450.3,470.7z"/>
	<path class="st0" d="M347.1,281.8c-0.2,0-0.6-0.1-1.1-0.2c-0.8-0.2-1.6-0.3-2.6-0.3c-0.6,0-1.6,0.1-2.8,0.3
		c-4.7,0.7-8.2,4.3-10.7,10.5c-1.7,4.4-2.6,9.5-2.6,15.3c0,3.9,0.7,7.3,2.1,10c2,4,4.9,6.4,8.7,7.3c0.9,0.2,2.3,0.4,4.2,0.4
		c1.6,0,3-0.2,4.1-0.6c1.1-0.4,2.3-1.2,3.6-2.5l2.1-2l1.3,2c2.2,3.3,4.1,5.2,5.7,5.9c0.8,0.3,1.5,0.4,2.2,0.4c0.7,0,1.4-0.1,2-0.4
		c0.9-0.3,1.3-0.7,1.3-1.3c0-0.3-0.1-0.6-0.3-0.9c-0.4-0.6-1.1-4.2-2.3-10.9l-2-17.2l1.1-3.8c3.1-11.3,4.6-21.2,4.6-29.8V263
		c0-7-1.1-10.9-3.4-11.6c-0.7-0.3-1.7-0.4-2.8-0.4c-1.1,0-2,0.2-2.7,0.5c-0.7,0.3-1.5,0.9-2.4,1.9c-0.8,1-1.5,2.1-2.1,3.3
		c-0.9,2.1-1.8,4.8-2.7,8.2c-0.9,3.4-1.5,6.8-1.9,10.1C347.6,278.3,347.3,280.6,347.1,281.8z M359.1,257.1c0.4-1.3,0.7-1.9,0.9-1.9
		l0.1,0.1c0.6,1.2,0.9,3.7,0.9,7.5c0,2.8-0.2,5.5-0.5,8c-0.2,1.6-0.6,4.1-1.3,7.4c-0.5,3-0.9,4.5-1.1,4.5c-0.4,0-0.6-3.3-0.6-10
		C357.5,266.2,358,261,359.1,257.1z M349,310.6c0,0.4-0.2,1-0.6,1.9c-0.4,0.9-1.1,2.1-2.1,3.5c-0.8,1.1-1.3,1.8-1.6,2h-0.1
		c-0.2,0-0.4-0.7-0.7-2.2c-0.7-3.5-1.1-7-1.1-10.8c0-0.7,0-1.9,0.1-3.7c0-1.8,0.2-3.9,0.5-6.3c0.2-1.7,0.5-3.3,0.9-4.7
		c0.3-1.4,0.6-2.1,0.7-2.1c0.1,0,0.3,0.2,0.5,0.7c0.5,1.2,0.9,2.4,1,3.7c0.1,0.9,0.2,1.7,0.4,2.3c0.2,0.6,0.5,2.7,0.8,6.2
		c0.3,3.7,0.6,6.3,1,7.7C348.9,309.6,349,310.2,349,310.6z"/>
	<path class="st0" d="M372,314.8c2.2,5.7,5,9.2,8.4,10.4c0.9,0.3,2,0.4,3.4,0.4h0.9c1.8,0,3.2-0.3,4.1-1c0.9-0.6,1.8-1.9,2.7-3.7
		c1.1-2.3,1.7-3.8,1.7-4.4c0-0.8-0.8-1.2-2.4-1.2c-0.5,0-0.9,0.1-1.2,0.2c-0.3,0.1-0.8,0.8-1.5,2c-0.6,1.2-1.3,2.5-2.2,3.7
		c-1-2.6-1.7-5.1-2.2-7.6c-0.5-2.5-0.9-5.5-1.2-9c1.5,0.4,2.6,0.5,3.3,0.5c4.8,0,8.2-4.1,10.4-12.2c0.9-3.7,1.3-7,1.3-10.1
		c0-0.9-0.1-2.5-0.3-4.8c-0.2-2.3-1.2-4.4-3-6.3c-2-1.8-4.5-2.7-7.4-2.7c-6.1,0-10.6,3.4-13.6,10.2c-2.3,5.5-3.5,12.9-3.5,22.3
		c0,2.7,0.2,5,0.5,6.9C370.3,310.1,371,312.3,372,314.8z M383.8,285.2c0.5-3,1.1-5.6,1.8-7.7c1-2.8,1.7-4.3,2.2-4.3
		c0.2,0,0.6,0.5,1.2,1.3c1,1.5,1.7,3.1,2.1,4.6c0.2,0.8,0.3,2.4,0.3,4.9c0,6.8-1.4,12.3-4.2,16.5c-0.7,1.2-1.3,1.8-1.7,1.8
		c-0.3,0-0.6-0.3-1-0.8c-0.4-0.5-0.7-1.2-1.1-1.9c-0.3-0.8-0.6-1.5-0.7-2.2c-0.1-0.7-0.2-1.4-0.2-2.2
		C382.6,293.5,383,290.2,383.8,285.2z"/>
</g>
</svg>
