<?xml version="1.0" encoding="utf-8"?>
<!-- Generator: Adobe Illustrator 25.3.0, SVG Export Plug-In . SVG Version: 6.00 Build 0)  -->
<svg version="1.1" id="Capa_1" xmlns="http://www.w3.org/2000/svg" xmlns:xlink="http://www.w3.org/1999/xlink" x="0px" y="0px"
	 viewBox="0 0 566.9 566.9" style="enable-background:new 0 0 566.9 566.9;" xml:space="preserve">
<style type="text/css">
	.st0{fill:#C01818;}
</style>
<g>
	<path d="M239.7,512.8h-6.2v-40.9h6.2V512.8z"/>
	<path d="M262.8,480.5v1l-6,0.6v-1.5c0-2.3-1.1-3.6-3.2-3.6s-3.2,1.2-3.2,3.6v0.5c0,2.4,1.1,4.4,5.2,7.9c5.7,4.8,7.8,8.2,7.8,13.1
		v2.1c0,5.8-3.4,9.2-9.6,9.2c-6.1,0-9.6-3.3-9.6-9.2v-2.7l6-0.6v2.9c0,2.6,1.2,3.9,3.5,3.9c2.3,0,3.5-1.3,3.5-3.9v-1.3
		c0-2.6-1.2-4.6-5.4-8.1c-5.7-4.8-7.6-8.2-7.6-13v-0.9c0-5.8,3.3-9.2,9.2-9.2C259.5,471.3,262.8,474.7,262.8,480.5z"/>
	<path d="M274.3,512.8h-6.5v-6.5h6.5V512.8z"/>
	<path d="M279.6,503.6V502l6-0.3v1.1c0,3.3,1.3,4.8,3.7,4.8c2.6,0,3.9-1.7,3.9-4.7V496c0-3-1.3-4.7-3.9-4.7c-2.1,0-3.4,1.2-3.7,3.4
		l-0.1,0.8l-5.7-0.2l1.3-23.4h16.7v5.8h-11.3l-0.5,9.6h0.1c0.9-1,2.4-1.8,4.8-1.8c5.1,0,8.3,3.6,8.3,10v7.7c0,6.3-3.7,10-9.9,10
		S279.6,509.7,279.6,503.6z"/>
	<path d="M302.9,503.6V502l6-0.3v1.1c0,3.3,1.3,4.8,3.7,4.8c2.6,0,3.9-1.7,3.9-4.7V496c0-3-1.3-4.7-3.9-4.7c-2.1,0-3.4,1.2-3.7,3.4
		l-0.1,0.8l-5.7-0.2l1.3-23.4h16.7v5.8h-11.3l-0.5,9.6h0.1c0.9-1,2.4-1.8,4.8-1.8c5.1,0,8.3,3.6,8.3,10v7.7c0,6.3-3.7,10-9.9,10
		S302.9,509.7,302.9,503.6z"/>
	<path d="M334.2,489.4h-6.5v-6.5h6.5V489.4z M334.2,512.8h-6.5v-6.5h6.5V512.8z"/>
	<path d="M359.4,481.4v2.3c0,3.9-1.5,6.4-4.4,7.6v0.1c3.2,1.3,4.8,4.3,4.8,8.8v3.1c0,6.3-3.8,10-10.2,10c-6.4,0-10.2-3.7-10.2-10
		v-3.1c0-4.4,1.6-7.4,4.8-8.8v-0.1c-3-1.2-4.4-3.8-4.4-7.6v-2.3c0-6.3,3.7-10,9.9-10C355.7,471.3,359.4,475.1,359.4,481.4z
		 M345.5,499.2v3.7c0,3,1.5,4.7,4,4.7c2.5,0,4-1.7,4-4.7v-3.7c0-3-1.5-4.7-4-4.7C347,494.5,345.5,496.2,345.5,499.2z M345.8,481.4v3
		c0,2.8,1.3,4.4,3.7,4.4c2.3,0,3.7-1.6,3.7-4.4v-3c0-2.8-1.3-4.4-3.7-4.4C347.2,477,345.8,478.6,345.8,481.4z"/>
</g>
<g>
	<path d="M198.4,345.4c1.6,0.3,2.7,0.1,3.3-0.5s0.8-1.3,0.6-2.2c-0.2-0.9-0.7-1.7-1.5-2.6c-0.8-0.8-1.8-1.3-3-1.5
		c-9.4-1.1-18.3-1.6-26.8-1.5c-8.5,0.1-16.5,0.7-24,1.7c-7.5,1-14.5,2.4-21,4.2c-6.5,1.8-12.5,3.7-17.9,5.9
		c-5.4,2.1-10.2,4.4-14.5,6.7c-4.3,2.3-7.9,4.6-10.9,6.7c-3,2.2-5.4,4.2-7.1,6c-1.7,1.8-2.8,3.3-3.1,4.4c-0.7,2-0.9,3.7-0.7,4.9
		c0.2,1.3,0.6,2.2,1.3,2.9c0.6,0.7,1.4,1.1,2.1,1.2c0.8,0.2,1.5,0.1,2,0c0,0,0.1-0.2,0.1-0.5c0-0.3,0.1-0.7,0.3-1.2
		c0.2-0.5,0.5-1.1,0.9-1.7c0.4-0.7,1.1-1.4,2-2.1c5.9-4.9,12.1-9,18.5-12.5c6.4-3.5,12.9-6.4,19.4-8.8c6.5-2.4,12.9-4.3,19.3-5.7
		c6.4-1.4,12.4-2.5,18.2-3.2c5.8-0.7,11.2-1.2,16.1-1.4c5-0.2,9.4-0.3,13.1-0.2c3.8,0.1,6.8,0.2,9.1,0.4
		C196.6,345.2,198,345.3,198.4,345.4z"/>
	<path d="M130.9,377.6c3.1-4.1,5.9-7.7,8.5-10.9c2.6-3.2,4.8-5.8,6.6-7.8c1.8-2,3.1-3.2,3.7-3.6c0.9-0.5,1.1-1.1,0.7-1.7
		c-0.4-0.6-1.2-1.1-2.2-1.6c-1.1-0.4-2.3-0.7-3.7-0.9c-1.4-0.2-2.7,0-3.8,0.4c-0.5,0.2-1.6,1.2-3.3,2.9c-1.7,1.7-3.6,4-6,6.8
		c-2.3,2.8-4.9,6.1-7.7,9.8c-2.8,3.7-5.7,7.7-8.6,11.9c-2.9,4.2-5.7,8.6-8.5,13.1c-2.8,4.5-5.3,9-7.6,13.4
		c-2.3,4.4-4.2,8.7-5.8,12.8c-1.6,4.1-2.6,7.8-3.1,11.2c-0.3,2.1-0.1,3.9,0.6,5.5c0.7,1.5,1.6,2.6,2.5,3.4c1,0.7,1.9,1,2.8,0.9
		c0.9-0.2,1.3-0.8,1.3-2.1c0-2.9,0.7-6.2,2.1-10.2c1.4-3.9,3.2-8.1,5.5-12.5c2.3-4.4,4.9-9,7.8-13.8c2.9-4.7,5.9-9.4,9-13.9
		C124.8,386.1,127.9,381.7,130.9,377.6z"/>
	<path d="M169.9,403.1c-0.6,0.1-1.1,0.4-1.7,1.2c-0.8,1.1-1.9,2.4-3.2,3.9c-1.3,1.4-2.7,2.9-4.2,4.3c-1.5,1.5-3,2.9-4.5,4.2
		c-1.5,1.3-2.9,2.5-4,3.3c-0.5,0.4-0.9,0.7-1.4,1c-0.4,0.2-0.7,0.3-0.9,0.2c-0.2-0.1-0.3-0.4-0.2-1c0.1-0.5,0.3-1.4,0.8-2.5
		c0.5-1.4,1.2-3.1,2.1-5c0.9-1.9,1.8-4,2.9-6.2c1.1-2.2,2.3-4.4,3.5-6.6c1.2-2.3,2.5-4.4,3.7-6.5c1.3-2.1,2.5-4,3.6-5.7
		c1.2-1.7,2.3-3.2,3.3-4.3c0.3-0.4,0.2-0.7-0.3-1.1c-0.5-0.4-1.2-0.6-2.2-0.7c-1-0.1-2.1,0.1-3.4,0.4c-1.3,0.4-2.5,1.1-3.7,2.1
		c-1.8,1.9-3.6,4.2-5.4,6.9c-1.8,2.7-3.5,5.6-5.1,8.6c-1.4,2.2-2.9,4.3-4.7,6.6c-1.8,2.2-3.5,4.3-5.3,6.2c-1.8,1.9-3.5,3.6-5.1,5.1
		c-1.6,1.5-3,2.5-4.1,3.1c-1.1,0.6-1.9,0.7-2.3,0.3c-0.4-0.4-0.3-1.5,0.3-3.2c0.5-1.4,1.2-3.1,2.1-5c0.9-1.9,1.8-4,2.9-6.2
		c1.1-2.2,2.3-4.4,3.5-6.6c1.2-2.3,2.5-4.4,3.7-6.5c1.3-2.1,2.5-4,3.7-5.7c1.2-1.7,2.3-3.2,3.2-4.3c0.3-0.4,0.2-0.7-0.3-1.1
		c-0.5-0.4-1.2-0.6-2.2-0.7c-1-0.1-2.1,0.1-3.4,0.4c-1.3,0.4-2.5,1.1-3.7,2.1c-1.9,2-3.8,4.4-5.7,7.4c-1.9,2.9-3.7,6-5.3,9.3
		c-1.6,3.2-3,6.5-4.2,9.7c-1.2,3.2-2,6.1-2.4,8.7c-0.3,2.2-0.3,4.1,0.3,5.7c0.5,1.6,1.7,2.6,3.6,3c1.5,0.4,3.1,0.3,4.7-0.1
		c1.6-0.4,3.2-1.1,4.8-2c1.6-0.9,3.1-2,4.7-3.3c1.5-1.3,3-2.7,4.3-4.1c-0.1,0.4-0.1,0.6-0.1,0.8c-0.4,2.2-0.3,4.1,0.3,5.7
		c0.5,1.6,1.7,2.6,3.6,3c1.7,0.4,3.4,0.2,5.3-0.5c1.9-0.7,3.7-1.7,5.5-3c1.8-1.3,3.5-2.8,5.1-4.4c1.6-1.6,3.1-3.2,4.3-4.8
		c1.3-1.5,2.3-2.9,3.1-4.1c0.8-1.2,1.3-1.9,1.5-2.3c0.5-1.1,0.8-2.2,0.7-3.1c0-0.9-0.2-1.6-0.6-2.1C171,403.2,170.5,403,169.9,403.1
		z"/>
	<path d="M276.7,396.4c1.1,0.1,1.8-0.2,2.3-0.7c0.5-0.5,0.7-1.2,0.6-2c-0.1-0.8-0.5-1.6-1.2-2.4c-0.7-0.8-1.7-1.5-3-2
		c4.8-7.7,10.4-15.7,16.9-24c6.5-8.3,14-16.8,22.7-25.4c0.5-0.5,0.7-0.9,0.5-1.4c-0.1-0.4-0.5-0.8-1-1.1c-0.5-0.3-1.2-0.5-2-0.7
		c-0.8-0.2-1.6-0.3-2.4-0.3c-0.8,0-1.5,0-2.2,0.1c-0.7,0.1-1.2,0.3-1.5,0.6c-9.3,9-17.3,17.8-24.1,26.4
		c-6.8,8.6-12.6,16.8-17.4,24.7c-4.2,0.2-9,0.7-14.4,1.6c-5.4,0.9-10.9,2-16.6,3.4c3.2-4.8,6.6-9.5,10-14.1c3.5-4.6,6.8-8.9,10-12.9
		c3.2-4,6.2-7.6,8.9-10.9c2.7-3.2,5-5.9,6.8-7.9c0.1-0.1,0.3-0.3,0.5-0.6h0.1c1.5-1.9,2.5-3.3,2.9-4.5c0.4-1.1,0.4-2,0.1-2.6
		c-0.4-0.6-1-1-1.8-1.2c-0.8-0.2-1.7-0.3-2.6-0.3c-0.9,0-1.7,0.1-2.5,0.2c-0.7,0.1-1.2,0.2-1.3,0.2c-5.2,0.4-10.6,1.3-16.3,2.7
		c-5.7,1.3-11.4,3-17,5.1c-5.6,2-11,4.4-16.1,7.1c-5.1,2.7-9.7,5.5-13.7,8.6c-4,3-7.3,6.2-9.8,9.6c-2.5,3.3-3.9,6.7-4.2,10.2
		c-0.1,1.5,0.1,2.8,0.8,3.7c0.6,0.9,1.4,1.6,2.3,2.1c0.9,0.5,1.8,0.8,2.7,1c0.9,0.2,1.5,0.2,1.9,0.2c0.4,0,0.5-0.1,0.6-0.4
		c0-0.2,0-0.6-0.1-1c-0.1-0.4-0.2-1-0.2-1.6c-0.1-0.6,0-1.4,0.3-2.2c0.8-2.7,2.4-5.5,4.7-8.2c2.3-2.7,5.1-5.3,8.4-7.8
		c3.3-2.5,6.9-4.8,11-7c4-2.2,8.2-4.2,12.4-6c4.3-1.8,8.6-3.3,12.9-4.5c4.3-1.3,8.3-2.2,12.1-2.8c-1.8,2-4.2,4.7-7.2,8
		c-3,3.4-6.2,7.2-9.7,11.6c-3.5,4.4-7.1,9.1-10.9,14.3c-3.7,5.2-7.3,10.5-10.6,16.1c-3,0.9-5.8,1.8-8.5,2.7c-2.7,1-5.2,1.9-7.5,2.9
		c-2.3,1-4.3,1.9-6.1,2.8c-1.8,1-3.2,1.8-4.3,2.7c-0.7,0.5-1.3,1.3-1.8,2.2c-0.6,0.9-1,1.9-1.3,2.8c-0.3,1-0.4,1.9-0.4,2.8
		c0,0.9,0.3,1.6,0.7,2c0.4,0.5,1.1,0.6,2.1,0.5c1-0.1,2.2-0.7,3.8-1.7c1.4-0.9,3.6-2.1,6.4-3.4c2.9-1.3,6.3-2.8,10.2-4.3
		c-1.9,3.8-3.5,7.6-4.9,11.3c-1.4,3.7-2.5,7.4-3.2,11c-0.5,2.5-0.5,4.4,0,5.9c0.5,1.4,1.2,2.5,2.1,3.3c0.9,0.8,1.8,1.3,2.6,1.5
		c0.9,0.2,1.4,0.4,1.7,0.4c0.8,0.1,1.3,0.1,1.6-0.2c0.3-0.3,0.4-0.7,0.5-1.3c0-0.6,0-1.2,0-2c-0.1-0.7-0.1-1.4,0-2.1
		c0.7-4.7,2.3-9.8,4.8-15.4c2.5-5.6,5.6-11.4,9.2-17.4c5.2-1.6,10.6-3,16.2-4.3c5.6-1.3,11.3-2.3,16.9-2.9
		c-3.4,6.3-6.2,12.1-8.3,17.6c-2.2,5.5-3.8,10.3-5,14.7c-1.1,4.3-1.9,8-2.1,11.1c-0.3,3.1-0.2,5.4,0.2,6.9c0.5,1.9,1.1,3.4,1.8,4.5
		c0.7,1,1.3,1.7,2,2c0.6,0.3,1.2,0.3,1.6-0.1c0.4-0.4,0.6-1.1,0.5-2c-0.1-1,0.2-3.1,0.7-6.3c0.6-3.2,1.6-7.2,3.2-12
		c1.6-4.8,3.7-10.4,6.4-16.7c2.7-6.3,6.1-13.1,10.3-20.4c0.9,0,1.9,0,2.8,0C274.9,396.3,275.8,396.3,276.7,396.4z"/>
	<path d="M304,365.9c-0.7,0-1.4,0.2-2.1,0.5c-0.7,0.3-1.4,0.8-2,1.4c-0.6,0.6-1.1,1.3-1.6,2.1c-0.5,0.8-0.8,1.6-1,2.4
		c-0.2,0.8-0.2,1.6-0.1,2.4c0.1,0.7,0.3,1.4,0.7,2c0.4,0.6,0.8,1.1,1.5,1.4c0.6,0.4,1.3,0.5,2,0.5c0.7,0,1.4-0.1,2.1-0.4
		c0.7-0.3,1.3-0.7,2-1.3c0.6-0.6,1.2-1.3,1.6-2.1c0.9-1.6,1.3-3.2,1.1-4.9c-0.2-1.6-1-2.8-2.2-3.5
		C305.4,366.1,304.8,365.9,304,365.9z"/>
	<path d="M319.6,389.4c0.4-1.7,1.1-3.3,2.2-4.6c1.1-1.3,2.3-2.5,3.5-3.4c1.3-1,2.5-1.7,3.6-2.3c1.1-0.5,1.9-0.9,2.4-1
		c0.4-0.1,0.6-0.6,0.6-1.4c0-0.8-0.3-1.6-0.8-2.4c-0.5-0.8-1.2-1.5-2.1-2.1c-0.9-0.6-2-0.8-3.3-0.6c-0.5,0.1-1.2,0.4-2.1,0.8
		c-0.9,0.4-1.9,1-2.9,1.8c-1.1,0.8-2.1,1.7-3.2,2.7c-1.1,1.1-2.1,2.3-3,3.6c-0.9,1.3-1.7,2.8-2.4,4.4c-0.6,1.6-1,3.3-1.2,5.1
		c-0.1,1.5-0.1,3.3,0.1,5.4c0.2,2.1,0.5,4.3,0.7,6.6c0.2,2.3,0.4,4.6,0.5,7c0.1,2.3-0.1,4.4-0.5,6.4c-0.2,1.1-0.6,2-1.1,3
		c-0.5,0.9-1.1,1.7-1.8,2.4c-0.7,0.7-1.5,1.2-2.3,1.5c-0.9,0.4-1.8,0.5-2.7,0.4c-1.9-0.1-3.2-0.9-3.8-2.3c-0.6-1.4-0.7-3.1-0.2-5
		c0.5-1.9,1.5-3.7,3-5.5c1.5-1.8,3.5-3.2,5.9-4c0.6-0.2,0.7-0.7,0.4-1.4c-0.3-0.7-0.9-1.4-1.7-2.1c-0.8-0.7-1.7-1.2-2.8-1.6
		c-1.1-0.4-2-0.3-2.9,0.1c-1.4,0.7-2.7,1.7-3.9,2.9c-1.2,1.2-2.3,2.6-3.2,4.1c-0.3,0.5-0.5,1.1-0.7,1.6c-1,1-1.9,2-3,3.1
		c-1.5,1.5-3,2.9-4.5,4.2c-1.5,1.3-2.9,2.5-4,3.3c-0.5,0.4-0.9,0.7-1.4,1c-0.4,0.2-0.7,0.3-0.9,0.2c-0.2-0.1-0.3-0.4-0.2-1
		c0.1-0.5,0.3-1.4,0.8-2.5c0.5-1.4,1.2-3.1,2.1-5c0.9-1.9,1.8-4,2.9-6.2c1.1-2.2,2.3-4.4,3.5-6.6c1.2-2.3,2.5-4.4,3.7-6.5
		c1.3-2.1,2.5-4,3.7-5.7c1.2-1.7,2.3-3.2,3.2-4.3c0.3-0.4,0.2-0.7-0.3-1.1c-0.5-0.4-1.2-0.6-2.2-0.7c-1-0.1-2.1,0.1-3.4,0.4
		c-1.3,0.4-2.5,1.1-3.7,2.1c-1.9,2-3.8,4.4-5.7,7.4c-1.9,2.9-3.7,6-5.3,9.3c-1.6,3.2-3,6.5-4.2,9.7c-1.2,3.2-2,6.1-2.4,8.7
		c-0.3,2.2-0.3,4.1,0.3,5.7c0.5,1.6,1.7,2.6,3.6,3c1.7,0.4,3.4,0.2,5.3-0.5c1.9-0.7,3.7-1.7,5.5-3c1.6-1.1,3.1-2.5,4.5-3.9
		c0,0.2,0,0.4,0.1,0.5c0.4,1.1,0.9,2.2,1.6,3.2c0.7,1,1.6,1.9,2.6,2.8c1.1,0.8,2.3,1.5,3.7,1.9c1.1,0.4,2.5,0.6,3.9,0.6
		c1.5,0,3-0.2,4.5-0.7c1.5-0.4,3-1.1,4.4-2c1.4-0.9,2.7-2,3.8-3.4c1.1-1.4,2-3,2.7-4.8c0.7-1.9,1-4,0.9-6.4c0-0.6,0-1.5-0.1-2.8
		c-0.1-1.2-0.1-2.5-0.2-4c-0.1-1.5-0.2-3-0.3-4.6c-0.1-1.6-0.2-3.2-0.2-4.7c0-1.5,0-2.8,0-4.1C319.4,391,319.5,390.1,319.6,389.4z"
		/>
	<path d="M447.8,378.1c0.6,0.4,1.3,0.5,2,0.5c0.7,0,1.4-0.1,2.1-0.4c0.7-0.3,1.3-0.7,2-1.3c0.6-0.6,1.2-1.3,1.6-2.1
		c0.9-1.6,1.3-3.2,1.1-4.9c-0.2-1.6-1-2.8-2.2-3.5c-0.6-0.4-1.3-0.5-2-0.5c-0.7,0-1.4,0.2-2.1,0.5c-0.7,0.3-1.4,0.8-2,1.4
		c-0.6,0.6-1.1,1.3-1.6,2.1c-0.5,0.8-0.8,1.6-1,2.4c-0.2,0.8-0.2,1.6-0.1,2.4c0.1,0.7,0.3,1.4,0.7,2S447.1,377.8,447.8,378.1z"/>
	<path d="M494.5,403.7c-0.4-0.5-0.8-0.7-1.4-0.6c-0.6,0.1-1.1,0.4-1.7,1.2c-0.8,1.1-1.9,2.4-3.2,3.9c-1.3,1.4-2.7,2.9-4.2,4.3
		c-1.5,1.5-3,2.9-4.5,4.2c-1.5,1.3-2.9,2.5-4,3.3c-0.5,0.4-1,0.7-1.4,1c-0.5,0.2-0.8,0.3-1.1,0.2c-0.2-0.1-0.3-0.4-0.3-1
		c0.1-0.5,0.4-1.4,0.9-2.5c0.4-0.9,0.9-2,1.5-3.2c0.6-1.2,1.2-2.5,1.9-3.8c0.7-1.3,1.3-2.6,2-3.9c0.7-1.3,1.3-2.5,1.9-3.6
		c0.6-1.1,1.1-2.1,1.7-2.8c0.5-0.8,0.9-1.3,1.3-1.7c0.4-0.3,0.3-0.6-0.1-1c-0.4-0.4-1.1-0.6-2-0.8c-0.9-0.1-2,0-3.2,0.3
		c-1.2,0.3-2.4,1-3.6,2.1c-0.6,0.5-1.3,1.4-2,2.6c-1.5,2-3.2,4-4.9,6c-1.7,2-3.4,3.8-5,5.5c-1.7,1.7-3.2,3.1-4.7,4.2
		c-1.5,1.2-2.8,1.9-3.8,2.2c-1.1,0.3-1.9,0.2-2.5-0.5c-0.6-0.7-0.7-2-0.5-4.1c0.2-1.6,0.6-3.3,1.4-5.2c0.7-1.9,1.7-3.8,2.8-5.7
		c1.1-1.9,2.5-3.8,3.9-5.5c1.5-1.8,3-3.3,4.6-4.7c1.6-1.4,3.3-2.5,4.9-3.3c1.7-0.8,3.3-1.2,4.8-1.2c1.4,0.1,2.4,0.4,3.1,1
		c0.7,0.6,1.3,1.3,1.8,1.9c0.5,0.7,1,1.2,1.6,1.6c0.6,0.4,1.4,0.4,2.5,0.1c0.4-0.1,0.8-0.5,1-1.2c0.2-0.6,0.3-1.4,0.2-2.3
		c-0.1-0.9-0.3-1.9-0.7-2.8c-0.4-1-1-1.9-1.8-2.8c-0.8-0.9-1.8-1.6-3-2.2c-1.2-0.6-2.7-0.9-4.4-1c-1.5,0-3.2,0.3-5.3,1.2
		c-2.1,0.8-4.3,2-6.6,3.5c-2.3,1.5-4.6,3.4-6.9,5.6c-2.3,2.2-4.3,4.7-6.2,7.5c-0.8,1.3-1.6,2.6-2.2,3.9c-0.1,0.1-0.3,0.2-0.4,0.4
		c-0.8,1.1-1.9,2.4-3.2,3.9c-1.3,1.4-2.7,2.9-4.2,4.3c-1.5,1.5-3,2.9-4.5,4.2c-1.5,1.3-2.9,2.5-4,3.3c-0.5,0.4-0.9,0.7-1.4,1
		c-0.4,0.2-0.7,0.3-0.9,0.2c-0.2-0.1-0.3-0.4-0.2-1c0.1-0.5,0.3-1.4,0.8-2.5c0.5-1.4,1.2-3.1,2.1-5c0.9-1.9,1.8-4,2.9-6.2
		c1.1-2.2,2.3-4.4,3.5-6.6c1.2-2.3,2.5-4.4,3.7-6.5c1.3-2.1,2.5-4,3.7-5.7c1.2-1.7,2.3-3.2,3.2-4.3c0.3-0.4,0.2-0.7-0.3-1.1
		c-0.5-0.4-1.2-0.6-2.2-0.7c-1-0.1-2.1,0.1-3.4,0.4c-1.3,0.4-2.5,1.1-3.7,2.1c-1.9,2-3.8,4.4-5.7,7.4c-1.9,2.9-3.7,6-5.3,9.3
		c-1,2.1-1.9,4.1-2.8,6.1c-0.4,0.4-0.7,0.8-1.1,1.3c-1.3,1.4-2.7,2.9-4.2,4.3c-1.5,1.5-3,2.9-4.5,4.2c-1.5,1.3-2.9,2.5-4,3.3
		c-0.5,0.4-1,0.7-1.4,1c-0.5,0.2-0.8,0.3-1.1,0.2c-0.2-0.1-0.3-0.4-0.3-1c0.1-0.5,0.4-1.4,0.9-2.5c0.6-1.5,1.4-3.3,2.4-5.2
		c1.1-1.9,2.2-3.8,3.5-5.8c1.3-2,2.5-3.9,3.8-5.8c1.3-1.9,2.5-3.6,3.6-5.1c1.1-1.5,2-2.7,2.7-3.6c0.7-0.9,1.1-1.5,1.1-1.5
		c0.1-0.1,0.1-0.4-0.1-0.9c-0.2-0.5-0.4-1-0.8-1.5c-0.4-0.5-0.8-0.9-1.3-1.3c-0.5-0.3-1.1-0.4-1.8-0.3c-0.7,0.2-1.5,0.3-2.6,0.4
		c-1.1,0.1-2.2,0.2-3.2,0.3c-1.2,0.1-2.6,0.2-4,0.3c0.6-1.1,1.3-2.2,2.2-3.4c0.7-1,1.7-2.1,2.7-3.4c1.1-1.2,2.3-2.5,3.7-3.8
		c0.4-0.4,0.5-0.9,0.2-1.5c-0.3-0.7-0.7-1.3-1.4-1.9c-0.6-0.6-1.4-1.1-2.2-1.5c-0.8-0.4-1.6-0.5-2.3-0.3c-1.3,0.4-2.7,1.1-4.1,2.2
		c-1.4,1.1-2.6,2.5-3.8,4c-1.1,1.5-2,3.2-2.6,5c-0.6,1.8-0.8,3.5-0.6,5.2c-1.1,1.3-2.3,2.8-3.7,4.7c-1.4,1.9-2.8,3.8-4.3,5.9
		c-0.7,1.1-1.4,2.2-2.1,3.3c-0.3,0.1-0.5,0.3-0.7,0.6c-0.9,1.4-2,2.7-3.2,3.9c-1.2,1.2-2.5,2.2-3.8,3.1c-1.3,0.9-2.6,1.5-3.8,1.9
		c-1.2,0.4-2.3,0.5-3.2,0.2c-0.3-0.1-0.3-0.4-0.1-1c0.2-0.6,0.5-1.3,0.9-2.2s0.9-1.8,1.5-2.8c0.6-1,1.2-2,1.8-2.9
		c0.6-0.9,1.1-1.7,1.6-2.5c0.4-0.7,0.7-1.2,0.9-1.4c0.5-0.9,0.5-1.7,0-2.6c-0.5-0.8-1.3-1.5-2.3-2c-1-0.5-2.1-0.8-3.4-0.9
		c-1.2-0.1-2.3,0.2-3.1,0.8c-1.1,0.7-2.1,1.7-2.9,2.9c-0.9,1.2-1.6,2.4-2.2,3.8c-0.6,1.4-1,2.8-1.3,4.3c-0.3,1.5-0.4,2.9-0.3,4.3
		c-1.2,1.5-2.4,2.9-3.7,4.3c-1.3,1.4-2.5,2.7-3.8,3.8c-1.3,1.1-2.5,2-3.7,2.7c-1.2,0.7-2.3,1-3.3,1.1c-0.4,0-0.9-0.1-1.4-0.2
		c-0.5-0.1-1-0.4-1.5-0.8c-0.5-0.4-0.8-0.9-1.1-1.6c-0.3-0.7-0.4-1.5-0.3-2.6c0-0.7,0.3-1.8,0.8-3.2c0.5-1.4,1.2-3,2-4.8
		c0.9-1.8,1.9-3.6,3.2-5.5c1.3-1.9,2.7-3.7,4.4-5.4c1.7-1.7,3.5-3.3,5.6-4.6c2-1.3,4.3-2.3,6.7-2.9c1.4-0.4,2.8-0.3,4.2,0
		c1.4,0.4,2.5,1.2,3.4,2.3c0.3,0.4,0.6,0.5,1.1,0.3c0.5-0.1,0.9-0.4,1.4-0.9c0.4-0.5,0.8-1.1,1.1-1.8c0.3-0.7,0.4-1.5,0.4-2.3
		c0-0.7-0.3-1.4-0.7-2.1c-0.4-0.7-1-1.3-1.9-1.9c-0.8-0.5-1.9-1-3.2-1.3c-1.3-0.3-2.9-0.4-4.7-0.3c-2.6,0.1-5.1,0.8-7.6,2
		c-2.5,1.2-4.9,2.7-7.1,4.6c-2.2,1.9-4.3,4-6.3,6.3c-1.9,2.3-3.6,4.7-5.1,7.1c-0.8,1.4-1.5,2.7-2.2,4.1c-0.5,0.6-1,1.2-1.7,1.9
		c-1.3,1.4-2.7,2.9-4.2,4.3c-1.5,1.5-3,2.9-4.5,4.2c-1.5,1.3-2.9,2.5-4,3.3c-0.5,0.4-0.9,0.7-1.2,1c-0.3,0.3-0.6,0.4-0.8,0.3
		c-0.2-0.1-0.3-0.4-0.2-0.9c0-0.5,0.1-1.4,0.4-2.7c0.4-2.1,1.5-5,3.3-8.9c1.9-3.9,4.3-8.2,7.4-13c3.1-4.8,6.7-9.9,10.8-15.3
		c4.1-5.4,8.6-10.6,13.5-15.7l10.7-0.7c0.6-0.1,1.3-0.4,2.1-0.9c0.9-0.6,1.6-1.2,2.3-1.9c0.6-0.7,1-1.4,1.2-2c0.2-0.7-0.2-1.1-1-1.3
		c-0.4-0.1-1.3-0.1-2.8-0.1c-1.5,0-3.4,0.1-5.5,0.2c0.8-0.8,1.7-1.6,2.5-2.4c0.9-0.8,1.7-1.6,2.6-2.3c0.9-0.8,1.4-1.6,1.5-2.3
		c0.1-0.7-0.2-1.4-0.8-1.9c-0.6-0.5-1.4-0.8-2.5-0.9c-1.1-0.1-2.4,0.1-3.8,0.7c-0.9,0.4-2.4,1.4-4.3,3c-1.9,1.7-4.2,3.8-6.8,6.5
		c-1.8,0.1-3.5,0.2-5.2,0.3c-1.7,0.1-3.1,0.2-4.5,0.3c-1.3,0.1-2.4,0.1-3.4,0.2c-0.9,0.1-1.5,0.1-1.8,0.2c-1.1,0.1-2,0.5-2.7,1.3
		c-0.7,0.7-1.2,1.5-1.6,2.3c-0.3,0.8-0.5,1.5-0.5,2.2c0,0.6,0.2,1,0.6,1c0.1,0,0.6,0,1.3,0c0.7,0,1.7-0.1,2.8-0.1
		c1.1-0.1,2.5-0.1,3.9-0.2c1.5-0.1,3-0.2,4.6-0.3c-2.5,2.8-5,5.9-7.5,9.1c-2.6,3.2-5,6.6-7.4,10c-2.4,3.4-4.7,6.8-6.8,10.3
		c-2.1,3.5-3.9,6.9-5.5,10.1c-1.5,3.3-2.7,6.4-3.5,9.3c-0.8,3-1.1,5.6-0.9,8c0.1,1.5,0.4,2.8,0.9,3.8c0.5,1,1.3,1.7,2.6,2
		c1.7,0.4,3.4,0.2,5.3-0.5c1.9-0.7,3.7-1.7,5.5-3c1.8-1.3,3.5-2.8,5.1-4.4c0.6-0.6,1-1.1,1.6-1.7c0,1,0.1,1.9,0.3,2.7
		c0.4,1.5,0.9,2.7,1.6,3.6c0.7,0.9,1.5,1.6,2.4,2.1c0.9,0.5,1.8,0.8,2.7,1c0.9,0.2,1.8,0.3,2.6,0.3c0.8,0,1.5-0.1,2-0.1
		c1.6-0.2,3.1-0.6,4.7-1.3c1.5-0.7,3-1.6,4.5-2.6c1.5-1.1,2.9-2.3,4.3-3.6c1.4-1.3,2.7-2.7,3.9-4.1c0.8,0.6,1.6,1.1,2.5,1.4
		c2.1,0.7,4.3,0.8,6.5,0.2c1.4-0.3,2.7-0.9,4-1.5c-0.1,0.3-0.4,0.7-0.5,1c-0.7,1.7-1,3.1-0.9,4.3c0,1.6,0.3,2.9,0.7,3.8
		c0.4,1,0.9,1.6,1.5,1.9c0.6,0.3,1.1,0.4,1.7,0.1c0.6-0.3,1-0.8,1.4-1.7c1.5-3.8,3-7.3,4.6-10.5c1.6-3.1,3.2-6,4.7-8.6
		c1.6-2.6,3.1-4.9,4.6-7c1.5-2.1,2.9-4,4.2-5.8c0.5,0.2,1.1,0.4,1.6,0.4c0.6,0.1,1.1,0.1,1.5,0c0.5-0.1,0.9-0.1,1.2-0.1
		c0.4,0,0.6-0.1,0.9-0.1c-2.5,3.4-4.7,6.6-6.7,9.7c-0.9,1.3-1.7,2.7-2.5,4.2c-0.8,1.5-1.6,2.9-2.3,4.3c-0.7,1.4-1.3,2.7-1.7,4
		c-0.5,1.3-0.8,2.5-0.9,3.5c-0.3,2.4,0,4.2,0.8,5.4c0.8,1.2,2.1,2,3.8,2.4c1.7,0.4,3.5,0.2,5.5-0.5c1.9-0.7,3.8-1.7,5.7-3
		c1.9-1.3,3.7-2.8,5.4-4.4c0.2-0.2,0.4-0.4,0.7-0.7c-0.3,2.1-0.2,4,0.3,5.6c0.5,1.6,1.7,2.6,3.6,3c1.7,0.4,3.4,0.2,5.3-0.5
		c1.9-0.7,3.7-1.7,5.5-3c1.8-1.3,3.5-2.8,5.1-4.4c0.9-1,1.7-1.9,2.5-2.8c0,0.6-0.2,1.3-0.2,1.9c0,1.2,0.2,2.3,0.6,3.4
		c0.4,1.1,0.9,2,1.7,2.8c0.7,0.8,1.6,1.5,2.7,2c1.1,0.5,2.2,0.8,3.6,0.8c1.1,0,2.2-0.2,3.4-0.6c1.2-0.4,2.4-1,3.5-1.7
		c1.2-0.7,2.4-1.6,3.6-2.5c1.2-1,2.4-2,3.5-3c-0.2,1.9,0,3.6,0.6,5c0.6,1.4,1.7,2.3,3.4,2.7c1.7,0.4,3.4,0.2,5.3-0.5
		c1.9-0.7,3.7-1.7,5.5-3c1.8-1.3,3.5-2.8,5.1-4.4c1.6-1.6,3.1-3.2,4.3-4.8c1.3-1.5,2.3-2.9,3.1-4.1c0.8-1.2,1.3-1.9,1.4-2.3
		c0.5-1.1,0.8-2.2,0.7-3.1C495,404.8,494.8,404.1,494.5,403.7z"/>
</g>
<g>
	<path class="st0" d="M140.4,160h39.3c9.4,0,17.7,1.8,24.9,5.4c7.2,3.6,12.8,8.6,16.8,15.2c4,6.5,6,14.1,6,22.8s-2,16.2-6,22.8
		c-4,6.5-9.6,11.6-16.8,15.1c-7.2,3.6-15.5,5.4-24.9,5.4h-39.3V160z M178.8,230.2c8.7,0,15.6-2.4,20.7-7.2
		c5.2-4.8,7.7-11.4,7.7-19.6s-2.6-14.8-7.7-19.6c-5.2-4.8-12.1-7.2-20.7-7.2h-18.3v53.7H178.8z"/>
	<path class="st0" d="M242.6,160h20v86.6h-20V160z"/>
	<path class="st0" d="M300.8,242.3c-7.2-3.9-12.9-9.2-16.9-16c-4.1-6.8-6.1-14.5-6.1-23c0-8.5,2-16.1,6.1-23
		c4.1-6.8,9.7-12.1,16.9-16c7.2-3.9,15.3-5.8,24.3-5.8s17.1,1.9,24.2,5.8c7.2,3.9,12.8,9.2,16.9,16c4.1,6.8,6.2,14.5,6.2,23
		c0,8.5-2.1,16.1-6.2,23c-4.1,6.8-9.8,12.1-16.9,16c-7.2,3.9-15.3,5.8-24.2,5.8S308,246.2,300.8,242.3z M339,227.5
		c4.1-2.3,7.4-5.6,9.7-9.8c2.4-4.2,3.5-9,3.5-14.4c0-5.4-1.2-10.2-3.5-14.4c-2.3-4.2-5.6-7.5-9.7-9.8c-4.1-2.4-8.7-3.5-13.9-3.5
		s-9.7,1.2-13.8,3.5c-4.1,2.3-7.4,5.6-9.7,9.8c-2.3,4.2-3.5,9-3.5,14.4c0,5.4,1.2,10.1,3.5,14.4c2.4,4.2,5.6,7.5,9.7,9.8
		c4.1,2.3,8.7,3.5,13.8,3.5S334.9,229.9,339,227.5z"/>
	<path class="st0" d="M396.2,245.3c-6.4-1.9-11.5-4.3-15.4-7.2l6.8-15.1c3.7,2.7,8.1,4.9,13.2,6.6s10.2,2.5,15.3,2.5
		c5.7,0,9.9-0.9,12.6-2.5c2.7-1.7,4.1-3.9,4.1-6.7c0-2.1-0.8-3.8-2.4-5.1c-1.6-1.4-3.7-2.5-6.2-3.3c-2.5-0.8-5.9-1.7-10.2-2.7
		c-6.6-1.6-12-3.1-16.2-4.7c-4.2-1.6-7.8-4.1-10.8-7.5c-3-3.5-4.5-8.1-4.5-13.9c0-5,1.4-9.6,4.1-13.7c2.7-4.1,6.8-7.3,12.3-9.7
		c5.5-2.4,12.2-3.6,20.1-3.6c5.5,0,10.9,0.7,16.2,2c5.3,1.3,9.9,3.2,13.9,5.7l-6.2,15.2c-8-4.5-16-6.8-24-6.8
		c-5.6,0-9.8,0.9-12.4,2.7c-2.7,1.8-4,4.2-4,7.2s1.6,5.2,4.6,6.6c3.1,1.5,7.8,2.9,14.2,4.3c6.6,1.6,12,3.1,16.2,4.7
		c4.2,1.6,7.8,4,10.8,7.4c3,3.4,4.5,8,4.5,13.7c0,4.9-1.4,9.5-4.2,13.5c-2.8,4.1-6.9,7.3-12.4,9.7c-5.5,2.4-12.3,3.6-20.2,3.6
		C409.2,248.1,402.6,247.2,396.2,245.3z"/>
</g>
<g>
	<path d="M162.4,272.5h-14.1V287h11.4v7.2h-11.4v15.3h14.1v7.2h-21.9v-51.5h21.9V272.5z"/>
	<path d="M210.3,276.1v1.3l-7.5,0.7v-1.9c0-2.9-1.4-4.5-4-4.5c-2.6,0-4,1.5-4,4.5v0.7c0,3,1.3,5.6,6.5,10c7.1,6,9.8,10.3,9.8,16.5
		v2.6c0,7.4-4.3,11.5-12.1,11.5s-12.1-4.2-12.1-11.5v-3.5l7.5-0.7v3.7c0,3.2,1.5,4.9,4.4,4.9c2.9,0,4.4-1.6,4.4-4.9v-1.7
		c0-3.2-1.5-5.8-6.8-10.2c-7.1-6-9.6-10.3-9.6-16.3v-1.1c0-7.4,4.2-11.5,11.6-11.5C206.1,264.5,210.3,268.7,210.3,276.1z"/>
	<path d="M259.9,276.9v4.6l-7.5,0.4v-4.2c0-4.1-1.5-6-4.4-6s-4.4,1.8-4.4,5.2v28.1c0,3.4,1.5,5.2,4.4,5.2s4.4-1.8,4.4-6v-5.7
		l7.5,0.4v6.2c0,7.8-4.5,12.4-12.1,12.4c-7.6,0-12-4.6-12-12.4v-28.2c0-7.8,4.4-12.4,12-12.4C255.4,264.5,259.9,269.1,259.9,276.9z"
		/>
	<path d="M305.4,316.8l-6.2-21.8h-3.6v21.8h-7.8v-51.5h11.3c8.4,0,12.9,4.6,12.9,13v3.7c0,5.4-1.9,9.3-5.5,11.3l7.1,23.5H305.4z
		 M295.6,272.5v15.3h3.2c3.8,0,5.4-2,5.4-6.3v-2.6c0-4.3-1.7-6.3-5.4-6.3H295.6z"/>
	<path d="M347.4,316.8h-7.8v-51.5h7.8V316.8z"/>
	<path d="M400.4,278.3v1c0,5.7-1.7,9.1-5.8,10.5v0.1c4.9,1.5,6.9,5.3,6.9,12.1v1.8c0,8.5-4.6,13-12.9,13h-11.5v-51.5H388
		C396.1,265.3,400.4,269.8,400.4,278.3z M384.9,272.5v14h2.4c3.8,0,5.3-1.9,5.3-6.3v-1.7c0-4.2-1.5-6.1-4.9-6.1H384.9z M384.9,293.7
		v15.8h3.4c3.7,0,5.4-2,5.4-6.3v-2.9c0-4.6-1.7-6.6-5.8-6.6H384.9z"/>
	<path d="M452.8,316.8h-7.9l-1.7-11.7h-8.6l-1.7,11.7h-7.8l8.9-51.5h9.9L452.8,316.8z M438.8,276.3l-3.2,21.7h6.5l-3.2-21.7H438.8z"
		/>
</g>
<g>
	<path d="M161.1,105v21.8c0,7.3-3.9,11.2-11.1,11.2h-9.6V93.8h9.6C157.2,93.8,161.1,97.7,161.1,105z M147.1,100v31.8h2.6
		c3.2,0,4.7-1.7,4.7-5.4v-20.9c0-3.7-1.4-5.4-4.7-5.4H147.1z"/>
	<path d="M204.7,100h-12.1v12.5h9.8v6.2h-9.8v13.1h12.1v6.2h-18.8V93.8h18.8V100z"/>
	<path d="M240.8,127.7c0,7.1-3.3,10.9-10.3,10.9c-1.6,0-3.1-0.2-4.5-0.6l0.4-6.1c0.8,0.3,2,0.5,3.3,0.5c3.1,0,4.4-1.5,4.4-4.9V93.8
		h6.7V127.7z"/>
	<path d="M286.7,137.9h-6.8l-1.4-10H271l-1.4,10h-6.7l7.6-44.1h8.5L286.7,137.9z M274.6,103.3l-2.7,18.6h5.6l-2.7-18.6H274.6z"/>
	<path d="M360.2,104.4v23.1c0,2.7-0.6,5-1.8,6.9c0.8,0.8,2,1.1,3.4,1.1l-0.6,6.2c-3.3,0-5.8-1.1-7.4-3.7c-1.3,0.4-2.8,0.7-4.3,0.7
		c-6.7,0-10.8-4.2-10.8-11.2v-23.1c0-6.9,4.1-11.2,10.8-11.2C356.1,93.2,360.2,97.4,360.2,104.4z M345.4,104.4v22.9
		c0,3.3,1.4,5,4.1,5s4.1-1.8,4.1-5v-22.9c0-3.3-1.4-5-4.1-5S345.4,101.1,345.4,104.4z"/>
	<path d="M405.3,128.1c0,6.9-4,10.5-10.4,10.5c-6.3,0-10.3-3.6-10.3-10.5V93.8h6.4v34c0,3.2,1.4,4.4,3.8,4.4c2.3,0,3.8-1.2,3.8-4.4
		v-34h6.7V128.1z"/>
	<path d="M449.2,100h-12.1v12.5h9.8v6.2h-9.8v13.1h12.1v6.2h-18.8V93.8h18.8V100z"/>
</g>
</svg>
