<?xml version="1.0" encoding="utf-8"?>
<!-- Generator: Adobe Illustrator 25.3.0, SVG Export Plug-In . SVG Version: 6.00 Build 0)  -->
<svg version="1.1" id="Capa_1" xmlns="http://www.w3.org/2000/svg" xmlns:xlink="http://www.w3.org/1999/xlink" x="0px" y="0px"
	 viewBox="0 0 566.9 566.9" style="enable-background:new 0 0 566.9 566.9;" xml:space="preserve">
<g>
	<path d="M155.4,131.3c3.3,0,6.5-0.4,9.4-1.2c3-0.8,5.5-2.1,7.8-4c2.2-1.8,3.9-4.2,5.2-7.1c1.3-2.9,1.9-6.4,1.9-10.6V80.1h4.9V66.7
		h-36.8v13.4h9.1v29c0,2.8-0.6,4.7-1.7,5.9c-1.1,1.2-2.6,1.8-4.4,1.8c-1,0-2.2-0.1-3.6-0.2c-1.4-0.2-2.6-0.4-3.8-0.7v13.7
		c1,0.4,2.7,0.8,5,1.2C150.6,131.1,153,131.3,155.4,131.3z"/>
	<polygon points="246.9,103.9 228.6,103.9 228.6,116.8 218.7,116.8 218.7,102.2 225.9,102.2 225.9,92.9 218.7,92.9 218.7,80.1 
		228.6,80.1 228.6,91.3 246.9,91.3 246.9,66.7 191,66.7 191,80.1 195.9,80.1 195.9,116.8 191,116.8 191,130.1 246.9,130.1 	"/>
	<path d="M260.6,99.3c2,1.7,4.5,3.2,7.5,4.6c3,1.4,6.5,2.8,10.6,4.4c1.9,0.8,3.2,1.4,3.8,2c0.6,0.6,0.9,1.2,0.9,2
		c0,1.1-0.4,1.9-1.1,2.4c-0.8,0.5-2,0.8-3.8,0.8c-2.1,0-3.4-0.4-4.1-1.2c-0.7-0.8-1-2-1-3.6h-17.9v16.2c2.8,1.2,6.5,2.2,11.1,3.1
		c4.6,0.9,9.4,1.3,14.4,1.3c8.8,0,15.5-1.7,20.1-5.2c4.6-3.5,6.9-8.7,6.9-15.8c0-3.5-0.6-6.4-1.8-8.8c-1.2-2.4-2.9-4.4-5-6.1
		c-2.1-1.7-4.6-3.1-7.4-4.2c-2.8-1.1-5.8-2.2-8.9-3.3c-1.7-0.5-3-1-3.8-1.5c-0.8-0.4-1.3-1.1-1.3-2c0-1.1,0.4-1.9,1.2-2.4
		c0.8-0.5,2.1-0.7,3.9-0.7c1.3,0,2.3,0.3,3.2,0.9c0.9,0.6,1.3,1.6,1.3,3.2h17.1V70.8c-2.8-1.6-6.3-2.8-10.4-3.8
		c-4.2-1-8.6-1.4-13.4-1.4c-5.2,0-9.6,0.4-13.2,1.3c-3.6,0.9-6.4,2.2-8.6,3.9c-2.1,1.7-3.7,3.8-4.7,6.2c-1,2.4-1.4,5.2-1.4,8.2
		c0,3.2,0.5,5.9,1.5,8.2C257.2,95.7,258.7,97.6,260.6,99.3z"/>
	<path d="M319.7,107.4c0,4.4,0.6,8.1,1.9,11.1c1.3,3,3.1,5.5,5.4,7.4c2.3,1.9,5.1,3.3,8.4,4.1c3.3,0.8,7,1.3,11.1,1.3
		c4,0,7.6-0.4,10.8-1.3c3.2-0.8,6-2.2,8.3-4.1c2.3-1.9,4-4.4,5.3-7.4c1.2-3,1.8-6.7,1.8-11.1V80.1h4.9V66.7h-28.8v13.4h3.3v31.5
		c0,1.8-0.4,3.2-1.2,4c-0.8,0.8-2,1.2-3.5,1.2c-1.6,0-2.8-0.4-3.5-1.2c-0.8-0.8-1.2-2.1-1.2-4V80.1h3.3V66.7h-31v13.4h4.9V107.4z"/>
	<polygon points="367.6,54.6 367.6,52.5 347.2,52.5 338.3,60.3 338.3,61.5 354.3,61.5 	"/>
	<path d="M389.6,99.3c2,1.7,4.5,3.2,7.5,4.6c3,1.4,6.5,2.8,10.6,4.4c1.9,0.8,3.2,1.4,3.8,2c0.6,0.6,0.9,1.2,0.9,2
		c0,1.1-0.4,1.9-1.1,2.4c-0.8,0.5-2,0.8-3.8,0.8c-2.1,0-3.4-0.4-4.1-1.2c-0.7-0.8-1-2-1-3.6h-17.9v16.2c2.8,1.2,6.5,2.2,11.1,3.1
		c4.6,0.9,9.4,1.3,14.4,1.3c8.8,0,15.5-1.7,20.1-5.2c4.6-3.5,6.9-8.7,6.9-15.8c0-3.5-0.6-6.4-1.8-8.8c-1.2-2.4-2.9-4.4-5-6.1
		c-2.1-1.7-4.6-3.1-7.4-4.2c-2.8-1.1-5.8-2.2-8.9-3.3c-1.7-0.5-3-1-3.8-1.5c-0.8-0.4-1.3-1.1-1.3-2c0-1.1,0.4-1.9,1.2-2.4
		c0.8-0.5,2.1-0.7,3.9-0.7c1.3,0,2.3,0.3,3.2,0.9c0.9,0.6,1.3,1.6,1.3,3.2h17.1V70.8c-2.8-1.6-6.3-2.8-10.4-3.8
		c-4.2-1-8.6-1.4-13.4-1.4c-5.2,0-9.6,0.4-13.2,1.3c-3.6,0.9-6.4,2.2-8.6,3.9c-2.1,1.7-3.7,3.8-4.7,6.2c-1,2.4-1.4,5.2-1.4,8.2
		c0,3.2,0.5,5.9,1.5,8.2C386.2,95.7,387.6,97.6,389.6,99.3z"/>
	<polygon points="264.9,163.5 252.8,163.5 252.8,156.8 263.2,156.8 263.2,154.3 252.8,154.3 252.8,147.9 264.5,147.9 264.5,145.3 
		249.8,145.3 249.8,166.1 264.9,166.1 	"/>
	<path d="M275.8,163.8c-1.3,0-2.6-0.2-3.8-0.7c-1.2-0.4-2.3-1-3.1-1.7l-1.1,2.3c0.8,0.8,2,1.4,3.4,1.9c1.5,0.5,3,0.7,4.5,0.7
		c1.8,0,3.3-0.3,4.5-0.8c1.2-0.5,2.1-1.2,2.7-2.1c0.6-0.9,0.9-1.9,0.9-3c0-1.3-0.3-2.4-1-3.1c-0.7-0.8-1.5-1.4-2.5-1.7
		c-1-0.4-2.2-0.8-3.8-1.1c-1.2-0.3-2.2-0.5-2.9-0.8c-0.7-0.2-1.3-0.6-1.8-1c-0.5-0.4-0.7-1-0.7-1.7c0-1,0.4-1.8,1.3-2.4
		c0.8-0.6,2.1-0.9,3.8-0.9c1,0,1.9,0.1,2.9,0.4c1,0.3,1.9,0.7,2.8,1.3l1-2.4c-0.9-0.6-1.9-1.1-3.1-1.4c-1.2-0.3-2.4-0.5-3.6-0.5
		c-1.8,0-3.2,0.3-4.4,0.8c-1.2,0.5-2.1,1.3-2.7,2.1c-0.6,0.9-0.9,1.9-0.9,3c0,1.3,0.3,2.4,1,3.2c0.7,0.8,1.5,1.4,2.5,1.7
		c1,0.4,2.2,0.8,3.8,1.1c1.3,0.3,2.2,0.6,2.9,0.8c0.7,0.2,1.3,0.6,1.7,1c0.5,0.4,0.7,1,0.7,1.7c0,1-0.4,1.8-1.3,2.3
		C278.8,163.5,277.5,163.8,275.8,163.8z"/>
	<polygon points="311,147.9 311,145.3 296.3,145.3 296.3,166.1 311.4,166.1 311.4,163.5 299.2,163.5 299.2,156.8 309.7,156.8 
		309.7,154.3 299.2,154.3 299.2,147.9 	"/>
	<polygon points="316.2,145.3 316.2,166.1 330.5,166.1 330.5,163.5 319.2,163.5 319.2,145.3 	"/>
	<path d="M180,260.7c0-0.1,0-0.1,0.1-0.1l-0.1-0.1V260.7z"/>
	<polygon points="215.7,173.7 215.9,173.5 215.7,173.4 	"/>
	<polygon points="185.1,261.9 184.6,261.5 183.1,261.8 	"/>
	<path d="M195.9,256.8h0.7c0-0.1,0-0.2,0.1-0.2c0,0,0.1-0.1,0.1-0.2l0.3-0.3c-0.2,0.2-0.4,0.3-0.6,0.4
		C196.2,256.5,196.1,256.6,195.9,256.8z"/>
	<polygon points="163.1,189.4 163,189.7 163.3,189.9 163.3,189.6 	"/>
	<path d="M144.2,235.1c0.1,0,0.3-0.1,0.4-0.1h0.1c-0.1,0,0.1,0.1,0.4,0.3l0.3,0.4l-0.3,0.7c-0.2,0-0.5-0.1-0.9-0.3l-0.3-0.1
		c1.1,6.7,3.7,12.4,7.8,17c3.1,3.3,6.6,5.7,10.6,7.3c4,1.6,8.3,2.3,12.9,2.2c2.8-0.2,5.4-0.5,7.9-0.9l0.1-0.7h0.9l0.4,0.4
		c2-0.5,3.9-1.1,5.8-1.9c1.8-0.8,3.7-1.7,5.5-2.7c-0.5-0.4-0.4-0.8,0.1-1.3l0.6-0.1l0.6,0.3c-0.1,0.2-0.1,0.3-0.1,0.4
		c6.3-3.8,11.9-8.8,16.7-15c0.7-0.9,1.2-1.8,1.9-2.7c0,0.1,0,0.2,0.1,0.3c0.3,0.6,0.8,1.2,1.6,1.8c0.8,0.6,1.6,1.1,2.5,1.6
		c0.9,0.4,1.8,0.8,2.7,1.2c0.9,0.3,1.6,0.6,2.2,0.7c1.9,0.5,3.7,0.1,5.4-1.2c1.7-1.3,3.2-2.9,4.6-4.7c1.3-1.8,2.5-3.7,3.4-5.5
		c0.9-1.8,1.6-3.2,1.9-4c0.2,1.9,0.5,3.8,0.9,5.6c0.4,1.8,1,3.5,1.8,4.9c0.8,1.4,1.9,2.6,3.4,3.6c1.4,0.9,3.3,1.4,5.6,1.4
		c4.8,0.1,8.9-2.5,12.3-7.7c0.3-0.5,0.6-1.1,0.9-1.6c1,1,2.1,1.8,3.3,2.4c1.3,0.7,2.5,1.1,3.6,1.3c1.1,0.2,1.8,0,2.2-0.6v0.1
		c2.3-7.1,4.5-12.9,6.7-17.3c2.2-4.5,4.1-7.7,5.8-9.6l0.6,0.1c-0.6,2-1.1,4.1-1.6,6.2c-0.5,2.1-1,4.2-1.4,6.2
		c-0.4,2-0.8,3.8-1.1,5.3c-0.3,1.5-0.5,2.7-0.6,3.5c-0.1,1.1,0.4,2.1,1.6,2.9c1.1,0.8,2.5,1.5,4,2c1.5,0.5,3,0.8,4.5,0.9
		c1.5,0.1,2.5-0.1,3.1-0.6c1.1-2.5,2.2-5,3.3-7.5c1.1-2.5,2.2-5,3.2-7.3c1-2.3,2-4.4,2.8-6.4c0.8-1.9,1.6-3.5,2.2-4.7
		c0.4-0.9,0.8-1.7,1.3-2.5c0.5-0.8,0.9-1.4,1.3-1.9c0.4-0.4,0.7-0.7,1-0.7c0.2,0,0.3,0.4,0.2,1.2c0,0.9-0.3,2.4-0.9,4.6
		c-2,6.2-3.2,11.9-3.6,17c-0.5,5.7-0.1,10.5,1.3,14.5c1.4,4,3.9,6.7,7.6,8.1c2.2,0.9,4.2,1,6.1,0.4c1.8-0.6,3.5-1.5,4.9-2.7
		c1.4-1.2,2.5-2.5,3.4-3.9c0.7-1.1,1.1-2,1.4-2.8c0,0,0,0,0,0c1.4,0.4,3.1,0.7,5.1,0.7c3.1,0,5.9-1,8.4-2.9c2.2-1.7,4.2-3.8,5.9-6.1
		c0.9,0.6,1.8,1.3,2.8,1.7c1.5,0.6,3,1,4.5,1.1c1.5,0.1,2.5-0.1,3.1-0.7v0.1c1.8-4.1,3.3-7.6,4.6-10.7c1.3-3,2.4-5.6,3.4-7.8
		c1-2.1,1.9-3.9,2.6-5.4c0.7-1.4,1.4-2.6,2-3.5v0.3c1-1.8,1.5-2.3,1.6-1.6c0,0.7-0.2,2-0.7,3.7c-0.4,2-0.8,4.4-1.3,7.2
		c-0.4,2.8-0.9,5.8-1.3,9.1c-0.7,6.9-0.1,12.6,1.8,17.2c2.4,4.5,5.9,6.7,10.5,6.7c4.9,0,8.4-1.4,10.6-4.2c1.8-2.3,2.6-3.5,2.4-3.7
		c-1.5,1-2.9,1.7-4.1,2.2c-1.2,0.5-2.5,0.7-3.7,0.7c-0.8,0-1.5-0.2-2.2-0.5c-0.7-0.3-1.4-0.8-2.2-1.3c-1.1-1.1-1.9-3-2.5-5.6
		c-0.5-2.6-0.7-6.1-0.5-10.2c0.1-4.2,0.7-8.4,1.8-12.8c1.1-4.3,2.6-8.8,4.6-13.4c1-1.5,1-2.9-0.1-4.3c-1-1.3-2.5-2.4-4.3-3.1
		c-1.8-0.7-3.8-1.2-5.8-1.3c-2-0.1-3.4,0.3-4.3,1.2c-0.9,1.4-1.9,3.2-2.9,5.3c-1,2.1-2.1,4.5-3.1,7c-1,2.5-2,5-3,7.6
		c-1,2.5-1.8,4.9-2.6,7c-0.8,2.1-1.5,4-2.2,5.6c-0.7,1.6-1.2,2.7-1.5,3.1c0.1-1.1,0.3-2.7,0.5-4.9c0.2-2.2,0.8-4.9,1.6-8.2
		c0.5-1.9,1-3.9,1.6-5.9c0.5-2,1.1-4,1.8-5.8c0.6-1.8,1.3-3.4,2.1-4.8c0.7-1.4,1.6-2.3,2.5-2.8c1.2-0.7,1.4-1.5,0.7-2.5
		c-0.7-0.9-1.8-1.7-3.4-2.2c-1.6-0.5-3.3-0.6-5.2-0.4c-1.9,0.3-3.4,1.2-4.5,2.8c-0.8,1.2-1.7,3.3-2.6,6.4c-0.9,3-1.8,6.3-2.7,9.9
		c-0.8,3.5-1.6,7-2.2,10.2c-0.5,2.6-0.8,4.6-1.1,6.2c-0.6,1-1.2,2-1.8,3c-1.3,1.9-2.7,3.4-4.2,4.5c-1.5,1.1-3.1,1.4-4.8,1
		c-1.5-0.3-2.5-1.3-3-2.9c-0.5-1.6-0.6-3.6-0.4-5.9c0.2-2.4,0.7-5,1.4-7.8c0.7-2.8,1.5-5.6,2.3-8.2c0.8-2.6,1.6-4.9,2.4-6.9
		c0.8-2,1.3-3.4,1.6-4.2c0.7-1.3,0.3-2.2-1.2-2.8s-3.1-0.9-4.8-0.9c-1.3,0-2.5,0.1-3.7,0.4c-1.1,0.3-1.8,0.8-2,1.5
		c-0.6,1.2-1.3,2.7-1.9,4.6c-0.7,1.9-1.3,4-1.9,6.2c-0.6,2.2-1.1,4.6-1.6,7c-0.5,2.4-0.8,4.7-1,6.9c-0.2,3.2,0,6.2,0.4,9
		c0.5,2.8,1.6,5.1,3.3,6.7c1.3,1.1,2.5,1.8,3.8,2.3l-0.2,0.1h0.1c-1.8,1.2-3.7,2.2-5.6,3.1c-1.9,0.8-3.8,0.6-5.5-0.7
		c-1.4-1.2-2.3-3.3-2.8-6.2c-0.5-2.9-0.6-6.3-0.3-10.1c0.2-2.8,0.6-5.6,1.3-8.5c0.7-2.9,1.5-5.6,2.4-8.2l3.3-8.5
		c0.6-1.2,0.7-2.2,0.3-3.1c-0.4-0.9-1.1-1.7-2.1-2.4c-1-0.7-2.2-1.2-3.6-1.6c-1.4-0.3-2.7-0.5-4-0.5c-2.3,0-4,0.5-5.1,1.6v-0.1
		c-0.9,1.4-2,3.5-3.4,6.4c-1.4,2.8-2.8,5.9-4.3,9.3c-1.5,3.3-2.9,6.7-4.3,9.9c-1.3,3.3-2.4,6-3.1,8.2c-0.2,0.4-0.3,0.7-0.4,0.9
		c-0.1,0.2-0.1,0.4-0.2,0.6l-0.1,0.3c0,0.1,0,0.2-0.1,0.4c0,0.1-0.1,0.3-0.1,0.4c-0.4-0.3-0.5-1.7-0.3-4.2c0.2-2.5,0.6-5.3,1.3-8.5
		c0.7-3.2,1.6-6.4,2.8-9.6c1.1-3.2,2.5-5.8,4.1-7.5c1.1-1.3,1.4-2.7,1-4.1c-0.4-1.4-1.3-2.6-2.5-3.6c-1.2-0.9-2.7-1.5-4.3-1.8
		c-1.6-0.2-3.1,0.2-4.4,1.3c-1.2,1.4-2.5,3.2-4,5.5c-1.5,2.3-3,4.8-4.6,7.6c-1.6,2.8-3.1,5.8-4.6,9c-1.4,3.2-2.8,6.4-4,9.7h-0.3
		c0.4-2.5,1.1-5.8,2.2-10c1-4.2,2.3-8.2,3.8-12.1l-0.9,0.7l-0.3-0.1l0.3-0.6l0.9-0.1c0.6-1.6,1.2-3.1,1.9-4.4c0.6-1.3,1.3-2.6,2-3.7
		c0.2-0.3,0.1-0.6-0.1-1c-0.3-0.3-0.8-0.6-1.4-0.9c-0.7-0.2-1.4-0.5-2.3-0.7c-0.9-0.2-1.8-0.3-2.8-0.3c-1.2,0-2.4,0.3-3.7,0.8
		c-1.3,0.5-2.2,1.4-2.8,2.5c-0.4,1.3-1,3.5-1.8,6.5c-0.8,3-1.6,6.3-2.4,9.8c-0.8,3.5-1.5,6.8-2,9.9c-0.1,0.6-0.1,1-0.2,1.5
		c0,0.1,0,0.1-0.1,0.2c-0.8,2.1-1.8,4.1-2.8,6.1c-1,1.9-2,3.4-3,4.4c-1,0.9-1.9,1.3-2.6,1.3c-0.7,0-1.3-0.3-1.8-1
		c-0.4-0.7-0.7-1.7-0.8-3c-0.1-1.3,0-2.7,0.3-4.3c0.4-2.1,0.9-4.4,1.4-6.8c0.5-2.4,1.3-4.6,2.2-6.4c0.5-1.4,0.7-2.7,0.6-4
		c-0.1-1.3-1.2-2.3-3.4-3c-2.1-0.2-4.1,0-6,0.6c-1.9,0.6-3.7,2.3-5.4,5.1l-2.1,3.7l-7.3,13c-2.2,3.5-4,5.5-5.3,6.1
		c-1.3,0.5-1.9-0.6-1.7-3.4c0.1-0.8,0.2-1.7,0.4-2.7c0.1-1,0.4-2.1,0.8-3.3c0.6-1.9,1.3-4,2.2-6.4c0.9-2.3,1.9-4.7,3-7
		c1.1-2.3,2.2-4.5,3.4-6.5c1.2-2,2.4-3.8,3.7-5.2c2.7-2.7,5.2-4,7.5-4c1.7,0,3,0.5,3.9,1.6c0.9,1.1,1.3,2.3,1.3,3.6
		c0,0.8,0.2,1.4,0.7,1.9c0.5,0.5,1,0.8,1.6,0.8c0.6,0,1.2-0.2,1.7-0.9c0.5-0.6,0.9-1.8,1-3.5c0-2.9-1.1-5-3.2-6.3
		c-2.1-1.3-4.7-1.9-7.5-1.9c-2.2,0-4.5,0.3-6.9,1c-2.4,0.7-4.6,1.7-6.6,3c-2.1,1.3-4.1,3.2-6.1,5.8c-2,2.6-3.8,5.5-5.4,8.6
		c-1.6,3.1-2.9,6.4-4,9.6c-0.8,2.3-1.3,4.5-1.6,6.5c-1.1,1.7-2.3,3.4-3.5,5c-3.6,4.7-7.4,8.7-11.2,12.2c-3.8,3.4-7.7,6.1-11.4,8
		c-3.8,1.9-7.3,2.8-10.5,2.8c-4.8,0-8.7-1.1-11.9-3.3c-3.1-2.2-5.6-5-7.3-8.4c-1.7-3.4-2.8-7.3-3.3-11.7c-0.4-4.3-0.4-8.6,0.2-12.8
		c1.1-6.9,3.2-14,6.2-21.3c3-7.3,6.7-14.1,10.8-20.4c1.3-2.1,2.8-4,4.5-5.8h-0.4l-0.6,0.3l0.4-0.6l0.3-0.4h0.3l0.1,0.4
		c4.1-4.5,8.5-8.1,13.2-10.9c4.7-2.8,8.9-4.2,12.6-4.2c2.9,0,5.2,1,6.8,3c1.6,2,2.3,5.3,1.9,9.9c-0.2,1.3-0.4,2.7-0.7,4.3
		c-0.2,1.5-0.6,3.2-1.1,4.9c-0.8,2.4-1.8,4.8-3,7.1c-1.2,2.3-2.6,4.5-4.3,6.4c-1.6,1.9-3.5,3.4-5.5,4.6c-2,1.2-4.2,1.8-6.6,1.8
		c-2.2,0-4-0.4-5.5-1.2c-1.4-0.8-2.5-2.4-3.2-4.8c0.1,0.6,0,1.6-0.2,2.9c-0.3,1.3-0.3,2.8-0.1,4.3c0.2,1.5,0.8,2.9,1.9,4.2
		c1.1,1.3,3,2.2,5.8,2.7c3.5,0.3,6.9-0.5,10.3-2.3c3.4-1.8,6.5-4.3,9.2-7.5c2.7-3.1,5-6.7,6.8-10.8c1.8-4,2.8-8,3.1-12
		c0.2-2.5,0.1-4.9-0.3-7.3c-0.4-2.3-1.2-4.5-2.4-6.4c-1.2-1.9-2.8-3.6-4.7-5.1c-1.9-1.4-4.3-2.5-7.1-3.2c-1.3-0.3-2.6-0.5-3.8-0.7
		c-1.2-0.2-2.5-0.3-3.8-0.3c-6.5,0-13,2.2-19.4,6.6c-6.5,4.4-12.6,10.5-18.4,18.2c-2,2.9-3.9,6.1-5.8,9.6c-1.8,3.5-3.5,7.1-5,10.9
		c-1.5,3.8-2.7,7.7-3.7,11.6c-1,3.9-1.6,7.9-1.9,11.7c-0.2,2.5-0.3,4.9-0.3,7.1c0,2.2,0.1,4.5,0.4,6.8
		C143.9,235.2,144,235.1,144.2,235.1z M374.2,237.7l-0.9-1l0.1-0.7l0.7,0.3l0.4,0.4L374.2,237.7z M377.4,224.1
		c0-0.2,0.1-0.3,0.4-0.3l0.4,0.4l0.1,0.4c0,0.1,0.1,0.2,0.3,0.4l0.1-1.2l0.7,0.7h-0.1c0.2,0.1,0.3,0.2,0.3,0.2
		c0,0.1-0.1,0.3-0.3,0.8l-0.6-0.3c0,0.1,0,0.1,0.1,0.1c0,0,0.1,0.1,0.1,0.1v0.1l-0.3,0.4l-0.6-0.1l-0.3,0.1c-0.8,0.4-1.2,0.4-1,0
		l-0.6-0.4c-0.1,0.1-0.2,0.1-0.4,0.1c-0.1,0-0.2,0-0.3,0.1c-0.2-0.4-0.2-0.7,0-0.9V225l0.7-0.1c0.1,0,0.2,0,0.2-0.1
		c0-0.1,0.2-0.2,0.4-0.3v0.1C377,224.1,377.2,224,377.4,224.1z M377.2,222v-0.9l1,0.1l-0.1,1C377.8,222.3,377.5,222.2,377.2,222z
		 M381.4,243.4h-1.5l0.3-1.2l-0.9,0.3l0.1-0.9l0.7-0.3l0.4,0.1l-0.4,0.7L381.4,243.4z M377.4,229.3l-0.7,0.1l0.3-0.9l0.4-0.6
		l0.6-0.3l0.7,0.3l-0.3,1.2L377.4,229.3z M376.8,231.9l-0.4-0.3v-1.3l0.7,0.1l0.3,0.6v-0.1C377.9,231.5,377.7,231.9,376.8,231.9z
		 M379,236.4l-0.6,0.1v-0.6h0.3L379,236.4z M379.6,239.3l-0.1,0.7h-0.9l-0.1-0.7H379.6z M376.3,240.7c-0.6,0.9-0.9,1.1-0.9,0.6
		l-0.1-0.7L376.3,240.7z M376.6,243.4l-0.9-0.3l-0.3-0.7c0.6-0.3,0.9-0.2,1,0.1C377,242.5,377,242.8,376.6,243.4z M378.3,241.3
		l0.1,0.9h-0.7l-0.1-0.6L378.3,241.3z M379.6,245h-1.5l-0.4-0.1l0.3-0.4c0-0.1,0-0.3,0.1-0.6l0.6-0.7l1,0.3l0.9,0.1
		c0.3,0,0.3,0.4,0,1h-0.6L379.6,245z M380.5,246.2v-0.9h1l-0.1,0.9l-0.4,0.4l-0.6,0.1L380.5,246.2z M381,217.2l0.3-0.4h0.3v0.7
		L381,217.2z M381.9,248.3H381v-1l0.6,0.3C382.2,247.8,382.3,248,381.9,248.3z M384.1,210.5l1,0.1l-0.7,0.7l-0.1,0.3H384
		L384.1,210.5z M382.9,214.2l-0.7,0.3l-0.6-0.3l0.3-1L382.9,214.2z M380.8,207.5l0.7-0.1v1.3l-0.9,0.3L380.8,207.5z M379.9,221.5
		l1.2,1h-0.7l-0.1,0.4c-0.1,0.2-0.3,0.3-0.7,0.3l-0.6-0.1l0.1-0.9l0.9,0.1V221.5z M379,212.3h0.3l-0.3,0.6h-0.3L379,212.3z
		 M379.2,216.5l0.3,1.5l-0.9-0.1c0,0.1,0,0.2-0.1,0.3c-0.1,0.1-0.2,0.2-0.3,0.4c-0.8-0.3-1.2-0.5-1.2-0.6l0.1-1l0.6,0.1
		c0.1,0.1,0.2,0.1,0.4,0.1v-0.7l-0.1,0.3l-0.6-0.1l1-0.9l-0.3,0.7H379.2z M377.1,209l0.3,1.3c-0.3,0.2-0.4,0.4-0.4,0.6l-0.9-0.1
		L377.1,209z M375.9,214.4c0-0.2,0.1-0.4,0.1-0.7h1l0.3,0.6v0.9l-1.5,0.3V214.4z M376.2,218l1.2,1.2l-1,0.1l-0.4-0.4L376.2,218z
		 M376,221.8c0.3,0.3,0.2,0.6-0.1,0.9h-1.2v-0.9l0.4-0.7C375.7,221.1,376,221.4,376,221.8z M357.9,206.9c0-0.1,0.1-0.2,0.1-0.4h0.9
		v1l-0.6,0.1c0,0.1-0.1,0.1-0.1,0.1h0.1l0.1,0.4c0.1,0.1,0.1,0.4,0.1,0.9l-0.6,0.3l-0.3,1h-1l1.2-1c-0.1,0-0.1-0.1-0.1-0.4l-0.1-0.4
		l0.1-0.1c-0.1,0.1-0.2,0.1-0.3,0.1h-0.1v0.9l-1.2,0.4h0.1l-0.4,0.3l-0.7-0.3l0.3-0.6c0.2-0.5,0.4-0.8,0.7-0.9h1l-0.1-0.4l0.9-0.6
		C357.8,207.1,357.8,207,357.9,206.9z M357.8,204.4v-0.3l0.6,0.1l-0.1,0.3L357.8,204.4z M356.5,211.4l0.6-0.6l0.4,0.3l-0.1,0.3
		H356.5z M358.7,210.8l0.3-1.9l0.4,1L358.7,210.8z M356,206.6l0.1-1.3l0.9,0.3L356,206.6z M356.3,207l-0.1,0.9l-0.6,0.1H355
		c-0.3,0-0.4-0.1-0.2-0.2c0.1-0.1,0.3-0.3,0.5-0.5L356.3,207z M355.8,226.3c0.2-0.4,0.4-0.8,0.6-1.3c0-0.1,0-0.1,0.1-0.2
		c0.1,0,0.3,0,0.4,0l-0.6,1.9L355.8,226.3z M357.6,226.9c0,0.1,0,0.2-0.1,0.3c-0.1,0.1-0.1,0.2-0.1,0.3c-0.4-0.2-0.6-0.5-0.6-0.9
		l0.4-1l1,1.2L357.6,226.9z M358.4,225.3c0,0.2-0.2,0.3-0.7,0.3l0.4-0.9l0.9,0.1L358.4,225.3z M358.1,221.7l-0.4,0.1l0.6,0.6
		l-0.3,0.9c-0.1,0.1-0.6,0.1-0.9,0.1c0.5-1.2,0.9-2.4,1.3-3.4c0,0,0.1,0,0.1,0v0.7l0.7,0.7L358.1,221.7z M359.1,210.8l0.6-0.4
		l0.3,0.7L359.1,210.8z M360,206.6h-0.3v-0.4l0.7-0.3L360,206.6z M360.9,206.6c0,0.8-0.2,0.8-0.7,0.1l0.3-0.6L360.9,206.6z
		 M360.3,208.7l-0.3-0.3l0.6-0.7l1.2-0.3L360.3,208.7z M362,210.2c0,0.2,0,0.3-0.1,0.4c0,0.1-0.1,0.2-0.1,0.3l-0.9-0.7l0.3-0.7
		l0.1-0.4h0.7c0.4,0.2,0.5,0.5,0.4,0.9L362,210.2z M362.7,207.5h-0.3l0.1-0.7h0.3L362.7,207.5z M362.7,201.1h0.7v1l-0.7-0.4v0.3
		l-0.7,0.1l0.1-1.8L362.7,201.1z M361.8,200.6l0.1,0.7l-0.6,0.3c-0.1,0.1-0.1,0.2-0.1,0.3c0,0.1-0.1,0.1-0.1,0.1l-0.9-0.1
		c-0.1-0.2-0.1-0.5-0.1-0.9l0.6-0.4H361.8z M359.6,199.6l0.1-0.1l0.7,0.1v0.3h-0.9V199.6z M359.9,204.2l-0.1,0.3l-0.3-0.1l-0.3,0.1
		l-0.3-0.1v-0.3h0.6L359.9,204.2z M358.5,203.2l-0.3-0.6l-0.1-0.6l0.9,0.3L358.5,203.2z M357.5,200l0.4-0.3l0.1,0.3h0.4
		c0.2,0,0.2,0.4,0.1,1l-1.6-0.3L357.5,200z M357,201.7h1l-1,1l-0.6-0.1l-0.1-0.6C356.5,201.7,356.8,201.6,357,201.7z M356.5,203.5
		v0.6l-0.6,0.3l-0.1-0.7L356.5,203.5z M355.3,205.7v1.2h-0.4c-0.2,0-0.3,0-0.3-0.1C354.5,206.6,354.8,206.3,355.3,205.7z
		 M341.5,238.4h0.3l-0.3,0.6h-0.3L341.5,238.4z M341.2,240.7l0.7-0.3l-0.1,0.9c-0.2,0.2-0.4,0.3-0.6,0.4c-0.2,0.1-0.2,0-0.1-0.1
		c-0.4-0.2-0.7-0.3-0.9-0.3l0.4-0.6H341.2z M339.3,239.6c0-0.3,0-0.5,0.1-0.6l1-0.1l-0.3,0.6c0.3,0.3,0,0.4-0.9,0.4V239.6z
		 M339,240.4c0,0.1,0.1,0.2,0.3,0.4l0.1,0.9l-0.7,0.7c-0.2-0.4-0.4-0.6-0.6-0.7l-0.1-0.7v0.1c-0.4-0.2-0.4-0.4,0.1-0.7
		C338.8,240.2,339.1,240.2,339,240.4z M337.2,238.6h0.6l0.4,0.3v0.3l-0.6,0.1l-0.4-0.1V238.6z M336,239.8c0.4,0,0.6,0.2,0.7,0.6
		l-0.7,0.3l-0.4-0.3C335.6,240,335.8,239.8,336,239.8z M336.1,206.7l0.3-0.6h0.3l0.3,0.6c0,0.5-0.4,0.7-1.2,0.4L336.1,206.7z
		 M331.9,228.3l-0.3,0.6l-0.1,0.4h-0.3l0.1-1h0.1H331.9z M331.8,225.7c0-0.1,0.2-0.4,0.7-1l-0.3,1.2
		C331.9,225.9,331.8,225.8,331.8,225.7z M331.3,230.8l0.3,0.6h-0.3l-0.3-0.6H331.3z M332.7,241.6l-0.4,0.3h0.1
		c-0.2,0.1-0.3,0.2-0.4,0.2c-0.1,0.1-0.3,0.1-0.6,0.1l0.1-0.7c0.1-0.1,0.5-0.1,1.2-0.1V241.6z M332.5,223.5l-0.4,1.5
		c-0.3,0-0.5-0.1-0.7-0.3l-0.1-0.6c0.3-0.5,0.6-0.7,0.9-0.6H332.5l-0.7-0.3l0.3-0.4h0.9L332.5,223.5z M331,221.4l0.4-0.4h0.1
		l0.6,0.3l-0.4,0.9L331,221.4z M333.9,240.2l0.9,0.1v0.3l-0.6,0.3l-0.3-0.1V240.2z M333.9,241.4l1.3,0.1v0.6
		c-0.1,0.2-0.1,0.4-0.1,0.7c-0.3,0.2-0.6,0.2-0.8,0.1c-0.3-0.1-0.5-0.2-0.7-0.3l-0.4-0.1v-0.7L333.9,241.4z M334.3,223l-0.6,0.1
		l-0.4-0.1l0.1-0.4c-0.5,0-0.7-0.2-0.7-0.7l0.1-1.2l0.9,0.7h-0.1v0.9c0.3,0,0.4,0.1,0.4,0.3c0.1,0,0.1,0,0.1,0.1
		c0,0.1,0.1,0.1,0.1,0.1V223z M332.2,216.9l0.1-0.6l0.6,0.3v0.3H332.2z M333.1,219.9l1,0.4l-0.3,0.3L333.1,219.9z M334.6,216.5h-0.3
		c-0.3,0.1-0.5-0.2-0.6-0.9l0.3-0.3l-0.7-0.1V215c-0.2,0.1-0.4,0.1-0.7,0.1l-0.3-0.3l0.1-0.3h0.9v-0.4l0.3,0.4h0.3
		c-0.1,0.1-0.2,0.1-0.3,0.1l0.4,0.6l0.4-0.4l0.6,0.7L334.6,216.5z M333.7,209.4c0.2,0,0.4,0.2,0.6,0.7l0.3,0.7h-1l-0.1-0.7
		L333.7,209.4z M333.7,212.1l0.4,0.4l0.6,0.1c-0.2,0.2-0.4,0.5-0.6,0.8c-0.2,0.3-0.2,0.4-0.1,0.2h-0.3c0-0.1,0-0.1-0.1-0.1
		c-0.2,0-0.3,0-0.4-0.1l-0.1-0.7C333,212.6,333.2,212.4,333.7,212.1z M332.4,207.8l0.4,0.3l-0.1,1c-0.5,0-0.7-0.2-0.7-0.6
		C331.6,208,331.8,207.8,332.4,207.8z M331.3,217.5l0.6-0.1l-0.3,0.7l-0.3-0.3V217.5z M330.6,221.5h-0.3l-0.1-0.7h1.2L330.6,221.5z
		 M330.6,224.5c0,0.1,0,0.2,0.1,0.3l-0.6-0.1c-0.4,0.4-0.7,0.6-0.9,0.6l0.3-0.6v-0.3h-0.9l0.9-1v-0.1l1.2,0.1l0.1,0.9h-0.4
		C330.4,224.3,330.5,224.4,330.6,224.5z M331.2,213.3l-0.3,0.6l-0.9-0.7L331.2,213.3z M329.5,215.6l0.9-0.1l-0.1,1h-0.9L329.5,215.6
		z M329.4,220.8c0.2,0.2,0.4,0.3,0.7,0.3l-1.2,1v-0.4l-0.4-0.6C329.1,220.5,329.4,220.4,329.4,220.8z M328.5,222.9l-0.1-0.3l0.7-0.3
		l0.1,0.7l-0.1,0.7l-0.7-0.3l0.4-0.6H328.5z M327.1,230.7H327v-0.6h0.3L327.1,230.7z M327,229.9l-0.1-0.1l0.1-0.3h0.3L327,229.9z
		 M327.4,228.3c-0.4,0.3-0.6,0.1-0.6-0.7h0.1l0.1-0.4h0.3l0.3,0.4C327.7,228,327.6,228.3,327.4,228.3z M328.5,232h-0.3v-0.7l0.1-0.4
		h0.3L328.5,232z M328.3,227.1c0-0.3,0-0.5,0.1-0.6l-0.6-0.7h1l0.4,0.7l-0.1,0.7h0.3l0.3,0.6l-0.7-0.1l0.1-0.4L328.3,227.1z
		 M330.3,230.4c0,0.1,0,0.2-0.1,0.3c0,0.1-0.1,0.2-0.1,0.3l-0.6-0.3l0.3-0.3c-0.2-0.2-0.3-0.3-0.1-0.4l0.7-0.7l0.1,0.7l0.1,0.3
		L330.3,230.4z M330.3,226.8l-0.6-0.9l1-0.1l0.7,0.7l-0.6,0.1l0.1,0.1l0.7,0.1l-0.1,0.7h-0.9l0.1-1L330.3,226.8z M319.1,209.7l0.1-1
		l0.6,0.4v0.3l-0.4,0.1h0.1l-0.1,0.6h-0.3l0.1-0.4H319.1z M310.8,216.9h0.3l0.3,1l-0.7-0.4L310.8,216.9z M312.2,222.4l0.6,0.1
		l-0.1,0.6c0,0.1,0.1,0.3,0.4,0.6V223l1-0.3l-0.3,0.4c0.2,0.2,0.2,0.5,0,0.9h-0.4v0.7l-1,0.3l0.1-0.4l-0.6,0.3
		c-0.7,0.3-0.9,0.2-0.7-0.1c-0.1,0-0.2,0-0.3-0.1c-0.1,0-0.1,0-0.1-0.1l-0.7,0.1c-0.2-0.4-0.2-0.6-0.1-0.7v-0.3l0.6-0.3
		c0.1,0,0.3-0.1,0.7-0.3H311C311.2,222.8,311.6,222.7,312.2,222.4z M311.7,220.5v-0.9l1,0.1l-0.1,1.2
		C312.3,221,312,220.8,311.7,220.5z M311.4,226.6l1-0.7l0.1,0.9l-0.1,0.9l-1,0.1l-0.6,0.1l0.1-1l0.6-0.3H311.4z M312.6,234.9
		l-0.4,0.6l-0.7-1l1-0.3L312.6,234.9z M311.9,237.8h1.3l-0.4,0.7h-0.9V237.8z M312.9,240.1l0.6-0.1l0.7-0.7l-0.3,0.7v0.3
		c-0.1,0.2-0.2,0.3-0.2,0.4c0,0.1-0.3,0.1-0.8,0.2V240.1z M309.3,220.4l0.4-0.7c0.4,0,0.6,0.1,0.7,0.2c0,0.1,0.1,0.4,0.2,0.6
		c0.1,0.3,0.1,0.5-0.1,0.8h-1.2V220.4z M309.8,239.3c-0.3,0.5-0.5,0.7-0.7,0.7c-0.1,0-0.2-0.1-0.2-0.3l-0.1-0.7L309.8,239.3z
		 M308.2,235.9h-0.3l-0.6-1.5l0.9,0.1c0,0.2,0,0.4,0.1,0.6L308.2,235.9z M309.8,242l-0.6-0.1l-0.1-0.4l-0.3-0.6
		c0.4-0.1,0.7-0.1,0.9-0.1c0.2,0,0.3,0.2,0.4,0.7L309.8,242z M310.7,228.7h0.3l0.1,0.4c0.1,0.1,0.2,0.1,0.4,0.1
		c0.2,0.6-0.1,1-0.9,1.2l-0.4-0.1L310.7,228.7z M310.5,240.5l0.1-0.3l0.4-0.1l0.7-0.1c0.1,0.1,0.1,0.2,0.1,0.4
		c-0.1,0.1-0.1,0.3-0.1,0.5h-0.7L310.5,240.5z M311.4,243.5l-0.1-0.4c0-0.2,0.1-0.4,0.1-0.6c0-0.2,0.2-0.4,0.7-0.7l0.9,0.1l0.4-1
		l1,1.2h-0.9l0.6,0.4l-0.3,0.7l-0.4-0.1c0,0.1,0,0.2-0.1,0.2c0,0-0.1,0.1-0.1,0.2c-0.4,0.2-0.7,0.2-0.9,0H311.4z M313.4,245.5
		l0.3-0.6c0-0.2-0.1-0.3-0.1-0.3l0.1-0.7h1l-0.1,0.9l-0.6,0.6L313.4,245.5z M315,246.8h-0.9v-0.9l0.6,0.1
		C315.3,246.3,315.4,246.5,315,246.8z M316.5,216.2l-0.6-0.3v-0.3l0.6-0.3V216.2z M317.6,212.7l-0.7,0.4l-0.4-0.6l0.9-0.9
		L317.6,212.7z M315.9,206.1l0.9-0.3v1.3l-1,0.7L315.9,206.1z M314.9,221.1l-0.3,0.4c0,0.2-0.2,0.3-0.6,0.3
		c-0.1,0.1-0.2,0.1-0.4,0.1c-0.1,0-0.2,0.1-0.3,0.1l0.1-0.6l0.1-0.7l0.9,0.1v-0.9l1.2,1H314.9z M314.1,210.8h0.3l-0.4,0.6h-0.3
		L314.1,210.8z M314.1,214.8l-0.1,1.6l-0.7-0.1l-0.4,0.7c-0.9-0.3-1.3-0.5-1.3-0.7l0.4-0.7l0.9,0.1v-0.1l-0.7-0.1l1.2-1l-0.1,0.6
		L314.1,214.8z M312.5,207.8l0.3,1l-0.6,0.6l-0.9-0.3L312.5,207.8z M312.2,212.6l0.1,1.2l-1.3,0.1l-0.1-0.9c0.1-0.1,0.1-0.2,0.1-0.3
		c0-0.1,0.1-0.2,0.3-0.4L312.2,212.6z M288.9,227.2v0.3l-0.6,0.3v-0.4L288.9,227.2z M288.3,225.3h0.3v-0.1l0.1,0.6h-0.3L288.3,225.3
		z M288,224.5l-0.3-0.1l0.3-0.4v-1l0.9,1.3L288,224.5z M287.2,228.4l-0.1,0.1c0.1,0.1,0.1,0.6,0.1,1.3l-0.9-0.3v-0.7l0.9-1.2
		l0.6-0.6c0,0.5,0,0.8-0.1,0.9C287.6,228.1,287.4,228.2,287.2,228.4z M287.7,230.7l-0.6,0.4l-0.3-0.3l0.3-0.3l0.3-0.9L287.7,230.7z
		 M287.4,225.4v-0.3l0.4,0.3v0.3L287.4,225.4z M287.4,223.9h-0.3l-0.3-0.7l0.7-0.1l0.1,0.1L287.4,223.9z M286.3,224.8h0.7l-0.4,0.6
		l-0.4-0.3L286.3,224.8z M286.2,227.7l-0.3,1.2h-0.3C285.1,228.9,285.3,228.5,286.2,227.7z M286,232l-0.4-0.1l0.1-0.3l0.4,0.1
		L286,232z M286.2,230.4v0.3h-0.4l-0.7-0.1l0.3-0.4c0.1-0.1,0.2-0.2,0.2-0.3c0.1-0.1,0.2-0.2,0.5-0.4l0.6,0.9H286L286.2,230.4z
		 M288,231.7l-1.2-0.3l1.2-0.6V231.7z M288.4,229.3l0.1-0.7l1-0.1l-1.6,1.8L288.4,229.3z M289.5,230.8l-0.9,0.3l0.1-0.6v-0.3
		l0.9-0.3c0,0.2,0,0.4,0.1,0.4C289.7,230.5,289.7,230.6,289.5,230.8z M289.9,228.6h-0.3l0.4-0.6h0.3L289.9,228.6z M291.6,223.3h-0.3
		l-0.1-0.1v0.3l-0.7,0.1l-0.1-0.3l-0.7,0.1l0.4-1l0.7-0.3l0.7,0.4l0.4,0.1L291.6,223.3z M289.5,221.7l0.3-0.6c0-0.2,0-0.3,0.1-0.3
		c0.1,0,0.2,0.3,0.3,0.9H289.5z M292,214.2l-0.9-0.9l1-0.4L292,214.2z M291.1,212.9c0.1-0.1,0.1-0.2,0.1-0.3l0.1-0.9l0.6,1l-0.7,0.4
		L291.1,212.9z M292.3,207l-0.4-0.3v-0.3l0.4,0.3V207z M294.8,210.5l-0.3-0.3l0.7-0.7l0.1,0.3L294.8,210.5z M294.5,202.3l0.1-0.4
		c0-0.2,0.1-0.3,0.2-0.2c0.1,0,0.3,0.3,0.5,0.8h-0.9V202.3z M294.5,203.2l0.7,0.1h0.6l0.7,0.4l0.6-0.1l0.4,0.4l-0.6,0.9l-0.4-0.6
		c-0.1,0.1-0.1,0.2-0.1,0.3c0,0.1,0,0.2-0.1,0.3c-0.1,0.1-0.1,0.3-0.1,0.7l-0.7-1.2h0.3v-0.6l-0.7,0.7l-0.6-0.3L294.5,203.2z
		 M294.5,212.9l-0.7,0.3h-0.9l0.4-1.2h1C294.5,212.1,294.5,212.4,294.5,212.9z M292.6,212.4v-1.2l0.4-0.7l1-0.3L292.6,212.4z
		 M293.2,205.4l-0.6,0.1v-1.2l0.7,0.3L293.2,205.4z M293.3,207h-0.3l-0.1-0.4h0.3L293.3,207z M292.9,209.6v-0.7l1-0.1L292.9,209.6z
		 M292.6,202.7l0.1-0.6h0.3v0.1h0.6c0.4,0,0.3,0.4-0.1,1.2l-1.3-0.4L292.6,202.7z M291.4,204.1l0.6-0.1l0.4,0.1l-0.3,1.2l-1-0.3
		L291.4,204.1z M291.4,205.7l-0.7,0.7h-0.3l-0.1-0.6L291.4,205.7z M290.7,207.8h0.3l-0.3,0.6h-0.4L290.7,207.8z M289.8,209.3
		l0.1,0.3l-0.4,0.9l-0.4-0.7L289.8,209.3z M288.9,211.7c0-0.3,0.2-0.5,0.7-0.6l0.4,0.1v-0.7l0.7-0.6l0.6-0.7l0.9-0.3
		c-0.1,0.7-0.2,1-0.2,1s-0.2,0.1-0.4,0.3l-0.4,0.1l-0.1,0.1c0.1,0.1,0.1,0.3,0.1,0.6c0,0.4-0.1,0.7-0.1,0.9l-0.6,0.3l-0.3,0.9
		l-1,0.1l1.2-1c-0.1,0-0.2-0.1-0.4-0.3v0.1h-0.1c0.3,0.3,0.3,0.4,0,0.4h-0.4l-0.6-0.1l-0.3-0.6L288.9,211.7z M288.7,221.5
		c0.3,0,0.3,0.3,0.1,0.9l-1.6-0.1l1-1.2L288.7,221.5z M272.2,216.5c0.2,0.2,0.5,0.3,0.8,0.3l-1.1,0.5
		C272,217,272.1,216.8,272.2,216.5z M272.6,210.3l-0.7-0.6l0.1-0.3l0.9-0.1L272.6,210.3z M270.6,222.7l-0.4,0.1
		c0.1-0.4,0.3-0.7,0.4-1l0.2,0.2L270.6,222.7z M271.4,221l-0.5,0.1c0.1-0.3,0.2-0.5,0.2-0.8l0.7,0.1L271.4,221z M271.6,218.6
		c0.1-0.2,0.1-0.5,0.2-0.7c0,0,0.1,0,0.1,0c0.1,0.1,0.3,0.1,0.4,0.1L271.6,218.6z M272.7,231.7h0.3l0.1,0.6L272.7,231.7z M273.2,209
		H272l1.3-1L273.2,209z M275.1,209.7l-0.7-0.3l0.4-0.6h0.3V209.7z M273.8,208.8l0.9-1v0.7L273.8,208.8z M275.1,203v-0.3l0.7-0.1
		l0.3,0.6l-0.3,0.3l-0.3-0.3L275.1,203z M274.8,201.7l0.1-0.9l1,0.3l-0.7,0.7L274.8,201.7z M275.9,207l0.3-0.4l1.2-0.3l-1.8,1.6
		L275.9,207z M277.7,208.8l-0.9,0.9v-0.1l-0.4-0.6l0.1-0.6l0.3-0.4h0.7C277.9,208.1,277.9,208.4,277.7,208.8z M278.8,199.7h1.2
		l-0.1,0.3l0.4-0.1l0.3,0.6l-0.4,0.9l-0.4-0.6l-0.3,0.3l-0.7,0.1v-0.9l-0.9,0.7l-0.7-0.3l0.3-1.2h0.9L278.8,199.7z M276.8,198.5
		l0.1,0.1l0.3-0.4v0.1c0.1,0.3,0.2,0.4,0.4,0.4h-0.9V198.5z M276.5,205v0.3l-0.6,0.3v-0.4L276.5,205z M274.2,199.3l0.4-0.1
		c0-0.1,0-0.2,0.1-0.2c0,0,0.1-0.1,0.1-0.2v-0.3l0.4,0.3h0.6c0.2,0,0.3,0.1,0.3,0.2c0,0.1-0.1,0.5-0.3,1l-1.6-0.3V199.3z
		 M273.5,200.5l0.6-0.1l0.6,0.3l-0.7,0.7l-0.7-0.1L273.5,200.5z M274.8,202.9v0.3l-0.6-0.1v-0.3L274.8,202.9z M272.3,202.1l0.9-0.1
		v0.6l-0.9,0.3V202.1z M272.4,203.9h0.4l0.1,0.7h-0.7L272.4,203.9z M271.1,205l0.9-0.3l-1,1L271.1,205z M271.1,205.8l1.6-0.3l-1.2,1
		h-0.6c-0.2,0-0.3,0-0.3-0.1C270.6,206.5,270.8,206.3,271.1,205.8z M270.9,207.6l0.4-0.6h0.1c0.1,0,0.1,0,0.1-0.1
		c0,0,0.1-0.1,0.3-0.1l0.7,0.1l-0.1-0.6l0.9-0.3h-0.1l0.6-0.6c0-0.1,0-0.2,0.1-0.2c0,0,0.1-0.1,0.1-0.2h0.9c0,0.4-0.2,0.7-0.6,1
		l-0.6,0.3l0.3,0.4c0.1,0.2,0.1,0.5,0,0.9c-0.4,0.1-0.7,0.1-1-0.1c0.1,0,0.1-0.2,0.1-0.6c-0.1,0-0.1,0-0.1,0.1c0,0,0,0.1-0.1,0.1
		h-0.1l-0.3,0.7h-0.3c0.2,0.1,0.3,0.2,0.3,0.3c0,0.1-0.1,0.1-0.3,0.1h-0.4l-0.4,0.1l-0.6-0.1L270.9,207.6z M244.3,231.3l-0.4,1.3
		l-0.9-0.4C243,232,243.4,231.7,244.3,231.3z M244.2,229.8c0.1,0,0.1-0.1,0.1-0.1c0-0.1,0-0.2,0.1-0.3h0.4l0.1,0.6L244.2,229.8z
		 M245.8,235.5v1h-1.2l1-1l-0.3,0.1l0.3-1.3l0.3,1L245.8,235.5z M246.5,233.8c-0.5,0.2-0.9,0.1-1.2-0.1c0.3-0.2,0.3-0.4,0.1-0.6
		l-0.1-0.1l-0.1,1.3l-0.4,0.1l0.3,0.1v0.4h-1.6c-0.4-0.5-0.5-0.8-0.3-1v0.1c0.1-0.3,0.2-0.5,0.4-0.7c0.1-0.1,0.3-0.3,0.4-0.4
		l0.7-0.1h0.7l-0.3-0.4l0.7-0.7c0-0.2,0-0.4,0.1-0.5c0-0.1,0.1-0.3,0.1-0.5h0.9l-0.1,1.2l-0.7,0.3l0.1,0.1h0.3
		c0.1,0.1,0.1,0.2,0.1,0.4C246.7,233,246.7,233.3,246.5,233.8z M246.4,227.1l-0.4-0.4l-0.6-1l1.2,0.1L246.4,227.1z M246.5,228.4
		l-0.9,0.1c-0.2,0-0.3-0.3-0.1-0.9L246.5,228.4z M247.3,234.7c-0.2,0.2-0.4,0.3-0.6,0.4l0.4-1.5l0.3,0.9L247.3,234.7z M247.4,228.4
		l-0.3-0.1h-0.3l-0.3-0.6h0.9V228.4z M247.9,236.1l-0.3-0.4l0.1-0.4h0.3l0.1,0.9H247.9z M248,230.8h-0.3l-0.1-0.4l0.9-0.7L248,230.8
		z M248.9,230.4v0.7c0,0.4-0.2,0.3-0.7-0.1l0.1-0.4L248.9,230.4z M248.3,233.5l-0.1-0.4l0.4-0.9l0.4-0.1l-0.4,1.5H248.3z
		 M250.4,234.4c-0.2,0.2-0.3,0.3-0.3,0.4l-0.3,1l-1-1.3c0-0.1,0-0.1,0.1-0.1c0.2,0,0.3,0,0.3-0.1v-0.6h0.7
		C250.5,234,250.6,234.2,250.4,234.4z M250.7,232l-0.7,0.1l0.1-0.9l0.6-0.1V232z M249.4,224.5l0.1-0.9l0.7,0.9l0.7-0.1l-0.1,1.2
		l-0.7-0.7l-0.1,0.7c-0.2,0.2-0.5,0.3-0.9,0.3l0.3-0.6v-0.4l-0.4,0.1c0,0.1,0,0.2-0.1,0.2c-0.1,0.1-0.1,0.1-0.1,0.2l-0.9-0.1
		l-0.1-0.9l0.4-0.4l1-0.1L249.4,224.5z M247.1,222.3l1-0.1v0.9H247L247.1,222.3z M244.9,223.2l0.6-0.3v0.3h0.4
		c0.2,0,0.4,0.4,0.6,1.2l-1.9-0.3L244.9,223.2z M244.6,225l0.7,0.1l-0.1,1l-0.7-0.3l-0.6,0.3l-0.1-0.9
		C244.1,224.9,244.4,224.8,244.6,225z M244,227.1v0.6l-0.3,0.9l-0.9-1.2L244,227.1z M243.1,229.9v1.3h-0.6
		C242.1,231.3,242.3,230.8,243.1,229.9z M237.4,201.8c-0.2,0.2-0.3,0.4-0.3,0.7l-0.1-0.4c-0.4,0-0.5-0.3-0.3-0.9l0.9,0.3
		C237.6,201.6,237.5,201.7,237.4,201.8z M244.5,197.5l0.7-0.4l0.1,0.3l-0.6,0.3c-0.1,0.1-0.1,0.2-0.1,0.3c0,0.1-0.1,0.1-0.1,0.1
		h-0.3L244.5,197.5z M242.2,196h0.3l0.3,0.4l-0.3,0.6l-0.6-0.6C242.1,196.2,242.2,196.1,242.2,196z M240.9,198.8v-0.9l1.5,0.3
		l-1.8,1.5L240.9,198.8z M239.5,199.3l0.3,0.7l-0.3,0.1c-0.2,0.2-0.4,0.1-0.6,0c-0.1,0-0.2,0-0.2-0.1c0,0-0.1-0.1-0.2-0.1v-0.3
		L239.5,199.3z M238.5,198.2l0.1,0.4h-0.3l-0.1-0.4H238.5z M237.3,200.6l0.6-0.1v0.3l-0.6,0.1V200.6z M236.5,199.3v0.3l-0.4,0.1
		l-0.1-0.3L236.5,199.3z M236.5,200.6l0.3,0.3l-0.7,0.6l-0.3-0.3l-0.1,0.3H235v-0.3l0.9-0.3l-0.1,0.3L236.5,200.6z M233.8,202.4
		v-0.7l0.4,0.1l0.1-0.4c-0.2-0.3,0.2-0.6,1.2-0.9l-0.9,0.9l0.1,0.7c-0.2,0.2-0.5,0.4-1,0.6V202.4z M230.7,201.2h0.9l0.1,0.9h-1.3
		L230.7,201.2z M231.4,203.6l0.3,0.7l-1,0.9l-0.6-0.9L231.4,203.6z M218.4,237.1h-1.3c-0.2-0.2-0.3-0.2-0.4-0.2
		c0.4-0.6,0.9-1.2,1.3-1.9h0.9L218.4,237.1z M220.5,235.3l-0.6-0.3l0.3-0.1c-0.1-0.2-0.1-0.4-0.1-0.6h0.9L220.5,235.3z M220.8,232.5
		l0.3,0.4l-0.4,0.7h-0.7v-0.9l-0.3-0.1c0.4-0.6,0.8-1.1,1.1-1.6l0.3,0.3l-0.9,0.6c0,0.2,0,0.3-0.1,0.4c0,0.1-0.1,0.1-0.1,0.2H220.8z
		 M221.7,229.3l0.2-0.2l1.2,0.3l-1,0.7l-0.7-0.1C221.4,229.9,221.6,229.6,221.7,229.3z M223.1,231.4l-0.6,0.1l-0.9-0.1l0.7-0.9
		l0.9,0.1L223.1,231.4z M222.6,227.8l0.1-0.4c0,0,0,0,0-0.1l0.6-0.3l0.1,0.6l-0.3,0.9L222.6,227.8z M224.6,237.1
		c-0.1,0.1-0.1,0.3-0.2,0.6l-0.6,0.3c-0.2,0-0.3-0.2-0.3-0.6c0-0.4,0.1-0.6,0.4-0.6h0.7C224.7,236.9,224.7,237,224.6,237.1z
		 M227.9,210.9h-0.1c-0.8,0.2-0.9-0.2-0.4-1.3l0.7,0.3C228,210,228,210.3,227.9,210.9z M227.4,209.1v-0.3l1-0.1L227.4,209.1z
		 M228.7,206.3c0.2,0,0.5,0.1,0.9,0.3v0.7c-0.1,0.1-0.4,0.1-0.9,0.1l-0.9-0.1L228.7,206.3z M227,206h0.7l-0.1,0.3h-0.7L227,206z
		 M226.8,209.4l-0.9,1.5v-1.3L226.8,209.4z M225.9,207.5l-0.3,1l-0.6-0.3L225.9,207.5z M225.6,209.9l-0.1,1.2l-1,0.1L225.6,209.9z
		 M205.6,245.9h0.9l0.3-0.1c0-0.1,0-0.1,0.1-0.1c0,0,0.1,0,0.1-0.1c0-0.2,0.3-0.4,0.9-0.6l-0.3,0.7l-0.3,1c-0.1,0.1-0.3,0.1-0.6,0.1
		c-0.3,0.2-0.6,0.1-1-0.1V245.9z M201.1,247.9h0.7l0.1,0.1c0.1,0.1,0.1,0.2,0.1,0.2c0,0,0,0.1,0.1,0.2c-0.1,0.2-0.2,0.4-0.3,0.5
		c-0.1,0.1-0.1,0.4,0,0.7l-0.7,0.3l-0.6-1L201.1,247.9z M197.8,251.3c0.2-0.2,0.3-0.3,0.3-0.4h0.9l0.3,0.4c0.1,0.1,0.1,0.3,0.1,0.6
		l-0.1,0.7c-0.1,0.1-0.5,0.1-1.3,0.1l-0.1-0.6V251.3z M196.2,253.1l0.4,0.1v0.3l-0.4-0.1V253.1z M196.2,253.7l1.6-0.1l-1,0.7h-0.9
		L196.2,253.7z M194.1,254.6l0.1,0.9h-0.3L194.1,254.6z M191.7,255.6l0.9,0.3v0.3c-0.2,0.4-0.5,0.4-0.9,0.1V255.6z M182.2,258.9
		l1-0.3c0.2,0,0.3,0,0.4,0.1c0,0.1,0.1,0.1,0.2,0.1l0.7,0.3l-0.1,0.3l-2.4-0.1L182.2,258.9z M178.8,259.1l1,0.1v0.3h-0.6l-0.6-0.1
		L178.8,259.1z M179,259.8h1l0.6,0.6c-0.1,0-0.2,0-0.3,0.1h-0.1l0.1,0.3l0.9-0.6l0.6,0.9l-0.6,0.6h-0.7c-0.2,0-0.3,0-0.3-0.1
		c0-0.1-0.1-0.4-0.1-0.9h-0.1l-0.3,0.3c-0.1,0.1-0.1,0.2-0.1,0.3l-1-0.9L179,259.8z M176.7,259.8v0.3l-0.3,0.3h-0.3l-0.1-0.6H176.7z
		 M176.7,261.3v-0.4l0.7-0.4c0.3,0,0.5,0.4,0.7,1.2l-0.1,0.1h-0.7c-0.2,0.3-0.4,0.4-0.6,0.4l-0.7-1L176.7,261.3z M173.1,259.8h1.2
		l1,0.7l-0.4,0.9l-0.6,0.3h-1.2l-0.6-0.6L173.1,259.8z M170.7,256.7l0.7,0.6c-0.4,0.1-0.7,0.4-0.9,0.9c-0.9-0.2-1.3-0.5-1.2-0.9
		C169.4,257.1,169.8,256.9,170.7,256.7z M169.2,258.3h0.7c0.3,0,0.4,0.3,0.3,0.9h0.1l0.3-0.1h0.3c0,0.1,0.1,0.1,0.3,0.1l0.3-0.3
		l0.3,0.3v0.3l-0.3-0.1c0.1,0.1,0.1,0.2,0.1,0.3c0,0.1,0.1,0.2,0.3,0.4l-0.4,0.4c-0.7-0.2-1.2-0.6-1.5-1.3h-1.3L169.2,258.3z
		 M167.7,259.1l1.2,0.7h-1.2V259.1z M165.3,260.3c0-0.1,0-0.2,0.1-0.2c0-0.1,0.1-0.1,0.1-0.2l0.6-0.3c0.4,0,0.7,0.1,0.9,0.3l0.1,0.7
		v-0.1l0.1-0.9l0.7,0.9v0.9c-0.4-0.1-0.7,0-1,0.3l0.1-1l-0.3-0.1v0.1l-0.6,0.1h0.1l-0.3,0.1c0,0.5-0.4,0.6-1,0.3l-0.4-0.7
		L165.3,260.3z M198.7,203.2h-0.6v-0.3h0.6V203.2z M199.4,202.6c-0.2,0-0.3,0-0.4-0.1l-0.3,0.3h-0.3l0.3-0.6c0.2-0.5,0.5-0.6,1-0.4
		l0.3,0.7L199.4,202.6z M207.1,192.5h0.3c0.6,0,0.8,0.2,0.6,0.7c-0.2,0.2-0.3,0.3-0.3,0.4h-0.3l-0.3-0.4V192.5z M206.9,194.3
		l0.6,0.1l0.3,0.3l-1.2,0.6L206.9,194.3z M202.9,199.6l0.3-0.3l0.3-0.9l0.4,1.3l-0.1,0.7l-0.9,0.1V199.6z M203.8,203.5
		c-0.1,0.1-0.4,0.1-1,0.1v-1h1.5C203.8,202.9,203.7,203.2,203.8,203.5z M206.3,197.6c-0.5,0.2-0.8,0.2-1,0c-0.2-0.5-0.2-0.8,0-1
		v-0.1c0-0.2,0.1-0.3,0.4-0.3c0.2-0.4,0.3-0.6,0.3-0.7l0.6,0.9c0,0.4,0,0.7,0.1,0.9L206.3,197.6z M207.8,195.1l0.3,0.6l-0.6-0.6
		H207.8z M208.9,198.4l-0.7-0.3v-0.3h0.1l0.7-0.3L208.9,198.4z M209.9,194l-0.4-0.1l0.3-0.4h0.3L209.9,194z M211.3,195.8
		c0,0.1-0.3,0.4-0.7,0.9l-0.1-1.3h0.9C211.4,195.6,211.4,195.7,211.3,195.8z M212.8,185.1c-0.3,0.3-0.4,0.4-0.1,0.4l-0.4,0.6v0.4
		c0.3,0.3,0,0.7-0.7,1.3v-1c-0.1-0.1-0.2-0.2-0.4-0.4c-0.1-0.1-0.2-0.3-0.2-0.4c0-0.3,0.1-0.5,0.4-0.6c0.1-0.1,0.3-0.2,0.5-0.4
		c0.2-0.1,0.6-0.3,1.1-0.4C212.9,184.9,212.8,185,212.8,185.1z M215,181.6c-0.4,0-0.6,0-0.7-0.1c-0.1,0-0.2,0-0.4-0.1
		c-0.1,0-0.3-0.1-0.5-0.1c0.3-0.3,0.4-0.6,0.3-1l-0.3-1l0.7,0.3l0.1,0.4c0.1,0,0.2,0,0.3,0.1c0.1,0.1,0.2,0.1,0.3,0.1l0.1,0.7V181.6
		z M214.7,177.3v-0.4l-0.4-0.3c-0.2-0.2-0.1-0.6,0.4-1.2l0.9,0.3l0.6,0.7l-0.7,0.7L214.7,177.3z M216.3,184.3l-0.4-0.6
		c0-0.1,0-0.2,0-0.4c0-0.1,0.1-0.5,0.3-1l0.6,0.6h-0.1c0.4,0.2,0.6,0.4,0.6,0.6C217.2,184,216.9,184.2,216.3,184.3z M219.5,171.6
		c0.5,0,0.4,0.3-0.3,0.9v-0.7l-0.1-0.4L219.5,171.6z M219.5,175.9l-1.3,0.1v-0.3l0.3-0.9L219.5,175.9z M217.1,169.1
		c0-0.4,0.1-0.6,0.3-0.6c0-0.5,0.3-0.4,0.9,0.3l-1.2,0.9V169.1z M216,171.5l0.3-0.1v-0.7h0.3l-0.1,0.4l0.3,0.6l-0.7,0.1V171.5z
		 M215.3,172.8l0.9,0.3l-0.3,0.4l0.3,0.1v0.3l-0.6,0.4l0.1-0.7l-0.7,0.7l-0.6-1.6l0.7,0.3L215.3,172.8z M213.3,171.6l0.1-0.6
		l0.6-0.1c0.5,0,0.7,0.2,0.7,0.7l-0.3,0.7l-0.6,0.1l-0.6-0.1c-0.1-0.2-0.1-0.3-0.1-0.4C213.3,171.9,213.3,171.8,213.3,171.6z
		 M180.9,167.3l-0.1,0.6l-0.1,0.9l-0.7,0.1l0.3-0.7c-0.1-0.1-0.2-0.2-0.4-0.4c-0.1-0.1-0.2-0.3-0.2-0.4l1-0.3L180.9,167.3z
		 M179.7,166.8v0.3l-0.6,0.3l-0.1-0.3L179.7,166.8z M166.7,184.6c-0.1,0-0.2,0.1-0.3,0.1l-0.1,0.4c-0.7-0.7-0.7-1.1-0.1-1.2l0.6,0.3
		V184.6z M168.2,181.9c-0.1,0-0.2,0-0.4,0.1c-0.1,0-0.3,0.1-0.5,0.1l-0.1-0.7v0.1c-0.2-0.1-0.3-0.2-0.2-0.4c0-0.1,0.2-0.3,0.5-0.4
		c0.3-0.1,0.6,0.1,0.9,0.6L168.2,181.9z M166.8,178.3l0.1-0.9l1,0.3l0.1,0.7H168l-0.9,0.7C167.1,178.7,167,178.4,166.8,178.3z
		 M168.2,177.7l0.6-0.4l0.3,0.7L168.2,177.7z M169.4,181.5l-0.7-0.9l0.7-0.6c0.3-0.3,0.6-0.1,0.9,0.6L169.4,181.5z M171,179.1
		l-0.1,0.4h-0.3l-0.1-0.4l0.3-0.4h0.3V179.1z M176.7,172.2h0.3l0.3,0.9L176.7,172.2z M178.4,164.6l-0.1,0.3c0.1,0.1,0,0.4-0.1,0.9
		h-1c-0.2-0.2-0.2-0.4-0.1-0.6c0.1-0.2,0.3-0.3,0.4-0.4c0-0.1,0-0.2,0.1-0.2c0,0,0.1-0.1,0.1-0.2l0.7-0.4L178.4,164.6z M176.3,163.1
		h1c0.1,0.1,0.1,0.3,0.1,0.7l-0.7,0.1c-0.4,0-0.6,0-0.7-0.1C175.5,163.8,175.6,163.6,176.3,163.1z M172.8,171l0.7-0.3l-0.1,0.9
		l-0.6-0.3V171z M173,174l0.7-0.1l0.4,0.4l-0.6,0.6h-0.9L173,174z M173.6,177.9l-1.2-0.1l0.3-0.9L173.6,177.9z M170.6,172.5h0.7
		l0.7,0.3v0.4c0.3,0,0.4,0.2,0.4,0.7l-0.1,1l-0.7-0.7H171l-0.9-0.7L170.6,172.5z M168.8,168l0.1-0.1c0.2,0.1,0.5,0.1,1,0.1l-0.1,0.7
		c0,0.3-0.2,0.4-0.7,0.4l-0.7-0.3C168.4,168.3,168.6,168,168.8,168z M168.8,174.6c0,0.3-0.1,0.6-0.4,0.9c0,0.2,0,0.4,0.1,0.4
		c0,0.1,0,0.2,0.1,0.3l-0.7-0.7c-0.1,0-0.2,0-0.2,0.1c0,0-0.1,0.1-0.2,0.1c-0.4,0-0.6-0.1-0.6-0.4l1.3-1.3L168.8,174.6z
		 M166.8,172.1l-0.3,0.7l-0.9-0.7H166.8z M165.7,176.5c0.1,0,0.2,0,0.4-0.1l0.1-0.3h0.3l0.3,0.6l-0.6,0.4l-0.6-0.1
		C165.6,176.7,165.7,176.5,165.7,176.5z M166.5,186l-0.3,0.3l-0.6-0.7L166.5,186z M163.9,189.9h-0.6v0.1l-0.7,0.3
		c-0.3-0.3-0.2-0.7,0.1-1.3l0.4,0.4l0.3-0.6l0.4,0.3V189.9z M163.6,185.8c-0.3,0.1-0.5,0-0.6-0.4l0.7,0.1L163.6,185.8z M162.1,181.3
		l0.3-0.9l0.9,0.9c-0.3,0.3-0.3,0.5-0.1,0.6l-1,0.3C162.3,182,162.3,181.7,162.1,181.3z M148,211.7l0.6-0.6h1c0.1,0.5,0,1-0.1,1.5
		c0,0.2-0.1,0.4-0.3,0.6l-1.5-0.1c-0.3-0.2-0.2-0.5,0.1-0.9v0.1L148,211.7z M150.4,216.3l-0.3,0.9l-0.9-0.3c0-0.4,0.1-0.6,0.4-0.6
		H150.4z M148.9,228.1l-0.3,0.9c-0.3,0-0.5,0.1-0.7,0.3c-0.4,0-0.6-0.1-0.7-0.4l0.1-0.9h0.9L148.9,228.1z M148.6,226.9v-0.3l0.4,0.3
		v0.3L148.6,226.9z M147.9,234.6l0.7,0.1l-0.9,1L147.9,234.6z M149.3,239.5l-1.2-0.3l0.1-0.6l1.2-0.3L149.3,239.5z M149,221.5
		c-0.1,0-0.2,0-0.4,0.1c-0.1,0-0.3,0.1-0.4,0.1c-0.4,0-0.6,0-0.7-0.1l0.3-1.3c0-0.2,0.3-0.3,0.9-0.3l0.7,0.1h0.1
		c0-0.3,0.5-0.4,1.5-0.4c-0.1,0.3-0.1,0.5,0,0.7L151,221l-0.6,0.1c-0.2,0-0.3,0-0.3,0.1c0,0-0.1,0.1-0.1,0.1h-0.1
		C149.7,221.5,149.4,221.5,149,221.5z M150.2,231.1c0.1-0.1,0.1-0.2,0.1-0.4c0.2-0.4,0.4-0.6,0.5-0.5c0.1,0,0.4,0.3,0.7,0.8l-0.3,1
		c-0.3,0-0.5,0.1-0.6,0.1l-0.7,0.1L150.2,231.1z M151.4,236.2H151c-0.2,0-0.3-0.3-0.3-1l1,0.1C151.7,235.5,151.6,235.8,151.4,236.2z
		 M152,236.7c-0.1,0.5-0.4,0.7-0.7,0.7l0.4-0.7H152z M151.3,244.4c-0.4,0-0.7,0-0.7-0.1c-0.1,0-0.1-0.3,0-0.8h1.2L151.3,244.4z
		 M152.3,243.4h-0.9v-1.2h0.7l0.4,0.3L152.3,243.4z M152.5,237.1h-0.3l0.3-1l0.4,0.6L152.5,237.1z M152.9,229.3c0,0.3,0,0.5-0.1,0.6
		h-0.9v-0.7l0.1-0.4c0.1-0.3,0.4-0.3,0.9-0.1V229.3z M152.8,227.2l-0.9-0.1l0.3-1l0.7,0.3L152.8,227.2z M156.5,219.6h-0.3
		c0-0.2,0-0.3,0.1-0.4c0-0.1,0.1-0.2,0.1-0.3v-0.3h0.3L156.5,219.6z M157,215.9l-0.3,0.6h-0.3l0.1-0.9l-0.3-0.3
		c0-0.1,0.2-0.3,0.7-0.6V215.9z M155.3,206.4l0.4,0.3c0.2,0,0.4,0.1,0.6,0.3v0.6c0.2,0.2,0.4,0.3,0.7,0.3l-0.7,1h-0.9l0.1-1
		c-0.3,0-0.4,0-0.4-0.1l-0.1-1.3H155.3z M155.5,215.1h-1.2l0.1-1.2L155.5,215.1z M153.8,207.3l0.7,0.3c-0.2,0.4-0.4,0.6-0.7,0.6
		l-0.3-0.1L153.8,207.3z M154.7,222.6l0.1,0.9l-0.9,0.1l-0.7-1H154.7z M152.3,219.1c0-0.1,0.1-0.3,0.1-0.4l0.7,0.1l-0.1,0.9l-1,0.6
		c0,0.1,0,0.1-0.1,0.1c0,0-0.1,0-0.1,0.1h-0.3l0.1-0.9l0.6-0.3C152.2,219.4,152.2,219.2,152.3,219.1z M149.5,205.8l0.4-0.3l0.6,0.3
		v0.4c0.3,0,0.5,0.2,0.7,0.6l0.3,0.9c-0.4,0-0.9,0.1-1.3,0.1c-0.4-0.3-0.6-0.5-0.6-0.7c-0.3-0.3-0.4-0.6-0.4-0.9L149.5,205.8z
		 M147.9,205.5l0.9,0.1l-0.4,0.9c0,0.3-0.2,0.4-0.7,0.4c-0.3,0-0.4-0.3-0.4-0.9L147.9,205.5z M145.9,216h0.9l-0.1,0.9H145L145.9,216
		z M145.8,225.1c0.1-0.2,0.1-0.4,0.1-0.7c-0.1-0.2,0-0.4,0.1-0.5h1.2c0,0.2,0,0.3,0.1,0.4l-0.1,1c-0.7,0.4-1.2,0.6-1.5,0.6
		c-0.3,0-0.5-0.1-0.6-0.4L145.8,225.1z M145.3,227.5h0.3v1.5l-0.6-0.7L145.3,227.5z"/>
	<path d="M178.5,173.5l-0.1-0.1c0,0.1,0,0.2-0.1,0.3L178.5,173.5z"/>
	<polygon points="171.6,259.4 171.5,259.2 171.3,259.2 171.3,259.4 	"/>
	<polygon points="250.1,224.8 250.1,224.7 250.4,224.5 250.3,224.5 249.8,224.5 	"/>
	<polygon points="245.6,235.5 245.8,235.5 245.8,235.3 	"/>
	<path d="M219.9,232.8c0-0.1,0-0.2,0.1-0.3h-0.1V232.8z"/>
	<path d="M234.7,201.4h-0.3c0,0.1,0,0.1,0.1,0.1L234.7,201.4z"/>
	<polygon points="249.5,224.7 249.4,224.5 249.4,224.8 	"/>
	<polygon points="279.3,205.7 279.1,205.7 279.1,205.8 	"/>
	<polygon points="289.9,211.8 289.9,212 290.1,211.8 	"/>
	<polygon points="313.1,215.7 313.1,215 312.8,215.7 	"/>
	<polygon points="313.7,242 313.1,241.9 313.1,242 	"/>
	<polygon points="319.2,209.6 319.2,209.7 319.4,209.6 	"/>
	<path d="M313.4,224.1c0-0.1,0-0.1-0.1-0.1s-0.1,0-0.1-0.1h-0.1v0.1L313.4,224.1z"/>
	<path d="M290.2,211.2l-0.1,0.6c0.1-0.1,0.1-0.2,0.1-0.3V211.2z"/>
	<polygon points="290.4,212.3 290.5,212.3 290.5,212.1 	"/>
	<polygon points="272.9,207 272.7,207 272.7,207.2 	"/>
	<polygon points="331.5,228.9 331.6,228.9 331.5,228.3 	"/>
	<polygon points="333.6,214.5 333.3,214.5 333.3,215 333.6,214.7 	"/>
	<path d="M342.8,172c-1.5,0.4-2.9,1.2-4,2.2c-1.1,1-2,2.3-2.6,3.7c-0.6,1.4-1,2.9-1.1,4.4c-0.1,1.3-0.1,2.5,0.1,3.6
		c0.2,1.1,0.4,2,0.7,2.8c0.5,1.4,1.2,2.2,2.1,2.3c0.9,0.1,1.7-0.3,2.4-1.4c0.8-1.3,1.4-2.3,1.7-3c0.3-0.7,1.1-1.7,2.3-3.1
		c1-1.1,2-2.2,3-3.4c1-1.2,1.7-2.3,2.2-3.4c0.5-1.1,0.7-2.1,0.5-2.9c-0.1-0.8-0.9-1.5-2.2-1.9C346.1,171.5,344.3,171.5,342.8,172z
		 M343,175.3l0.1,0.6l0.1-0.7l0.7,0.7l-0.3,0.1l-0.1,0.6c-0.2,0.2-0.4,0.3-0.7,0.3l0.3-0.4v-0.4l-0.4,0.1v0.3h-0.7l-0.1-0.7l0.3-0.3
		L343,175.3z M342.2,180.4l0.4-0.1v0.6c0,0.1-0.2,0-0.6-0.1L342.2,180.4z M341.8,180.6l-0.1-0.3l0.7-0.6l-0.3,0.9H341.8z
		 M341.4,174.3l0.7-0.1v0.6h-0.9L341.4,174.3z M339.4,174.9l0.6-0.1v0.1h0.3c0.2,0,0.3,0.3,0.4,0.9l-1.5-0.1L339.4,174.9z
		 M340.3,177.4l-0.4-0.7l0.9,0.1v1L340.3,177.4z M340.8,178.8l-0.6,0.1c-0.2,0-0.2-0.2-0.1-0.6L340.8,178.8z M339.3,176.2l0.6,0.1
		l-0.1,0.7l-0.6-0.1l-0.4,0.1l-0.1-0.6C338.8,176.1,339.1,176,339.3,176.2z M339.6,180l-0.7-0.1c0.1,0,0.1,0,0.1-0.1l0.1-0.1h0.3
		L339.6,180z M338.8,177.9v0.4l-0.3,0.6l-0.7-0.9L338.8,177.9z M338.1,180v0.9h-0.6C337.3,180.9,337.5,180.6,338.1,180z M339,180.9
		l-0.3,1l-0.7-0.3C337.9,181.5,338.3,181.3,339,180.9z M339.6,183.4v0.3h-1.3c-0.3-0.4-0.4-0.6-0.1-0.7v0.1c0.1-0.3,0.3-0.6,0.6-0.9
		h1.2l-0.1,0.9l-0.3,0.1L339.6,183.4z M339.9,184.2l0.3-1l0.1,0.9L339.9,184.2z M340.8,182.1c0.2,0.2,0.2,0.4,0,0.7
		c-0.4,0.2-0.7,0.1-0.9-0.1c0.3-0.1,0.3-0.2,0.1-0.4l-0.4-0.4l0.6-0.4c0-0.2,0-0.3,0.1-0.4c0-0.1,0.1-0.2,0.1-0.4h0.7l-0.1,0.9
		l-0.6,0.3l0.1,0.1h0.3V182.1z M341.4,183.6c-0.1,0.1-0.2,0.1-0.2,0.1c-0.1,0-0.1,0.1-0.2,0.1l0.4-1.2l0.1,0.7
		C341.5,183.5,341.5,183.6,341.4,183.6z M341.5,178.8h-0.4l-0.3-0.4h0.7V178.8z M342.1,184.5h-0.1l-0.3-0.3l0.1-0.3h0.3V184.5z
		 M342.2,182.7l-0.1-0.4l0.4-0.6l0.3-0.1l-0.3,1.2H342.2z M343.7,183.6l-0.3,0.9l-0.7-1c0-0.1,0.1-0.1,0.1-0.1l0.1-0.1v-0.4h0.6
		c0.3,0.3,0.4,0.4,0.4,0.5c0,0.1,0,0.1-0.1,0.1C343.8,183.4,343.7,183.5,343.7,183.6z M344.2,181.5l-0.6,0.1l0.1-0.7h0.4V181.5z"/>
	<path d="M329.5,223.3v1c0.2,0,0.3-0.1,0.3-0.3L329.5,223.3z"/>
	<polygon points="343.3,176.1 343.1,175.9 343.1,176.1 	"/>
	<polygon points="334,215.3 334,215.3 334,215.3 	"/>
	<polygon points="357.8,209.4 357.9,209.4 357.9,209.3 	"/>
	<polygon points="357,208.4 357.2,208.5 357.2,208.4 	"/>
	<path d="M378.9,225.4v-0.1c-0.1,0-0.1,0-0.1-0.1v0.1L378.9,225.4z"/>
	<polygon points="384.4,211.2 384.1,211.2 384,211.7 384.4,211.4 	"/>
	<polygon points="395.6,238.9 395.6,239.1 395.6,239 	"/>
	<path d="M435,216.5c-0.5,0-1.1,0-1.8,0.3c-0.6,0.3-1.2,0.7-1.6,1.4c-1.1,2.8-2.6,4.8-4.6,6.1c-2,1.2-3.9,1.9-5.8,1.9L421,226
		c0.7-2.2,1.3-5.1,1.9-8.7c0.5-3.6,0.7-7.1,0.4-10.5c-0.3-3.4-1.2-6.5-2.8-9.1c-1.5-2.6-4.1-4.2-7.6-4.7c-4.2-0.2-7.8,0.9-11,3.4
		c-3.1,2.5-5.8,5.6-7.8,9.3c-2.1,3.7-3.7,7.8-4.7,12.1c-1,4.3-1.6,8.3-1.6,11.9c0,2.1,0.5,4,1.4,5.8c0.9,1.7,2.1,3.3,3.5,4.6
		c1.4,1.3,2.9,2.3,4.6,3c1.7,0.7,3.4,1,5.1,1c1.7,0,3.2-0.2,4.4-0.7c1.2-0.4,2.4-1.2,3.6-2.2c1.1-1,2.3-2.3,3.5-3.8
		c1.2-1.5,2.5-3.4,4-5.5c1.4,0,3.1-0.2,5.2-0.7c2.1-0.4,4.1-1.2,6.1-2.2c1.9-1,3.6-2.4,5.1-4.2c1.4-1.8,2.3-4,2.5-6.7
		c0-0.4-0.2-0.8-0.5-1.1C436,216.8,435.6,216.6,435,216.5z M408,197.8l0.7-0.1l1.2,0.3l-1,0.9l-0.9-0.1l-0.6-0.3L408,197.8z
		 M405.9,199.7l1.2-1l-0.3,1.2c0.1,0.4-0.2,0.6-0.9,0.6V199.7z M403.6,201.4h0.6l0.7,0.1l0.4,0.6h0.4v0.9H405l-0.6,0.4v-0.1
		c-0.3,0.5-0.5,0.6-0.7,0.3c-0.1,0.2-0.3,0.3-0.4,0.3v-0.4c-0.4,0-0.4-0.2,0-0.6l-0.1-0.6C402.7,201.9,402.9,201.6,403.6,201.4z
		 M405,205.3l-0.7,1.5c-0.4-0.2-0.6-0.4-0.7-0.5c0-0.1,0-0.3,0.2-0.5c-0.1-0.1,0.1-0.3,0.7-0.6L405,205.3z M402.8,208.1l-0.3,0.6
		h-0.3l-0.3-0.6l0.9-1l-0.1,0.9L402.8,208.1z M402.2,206.6l-0.1-1c0.1-0.1,0.1-0.2,0.1-0.4c0.3,0,0.6,0.2,1,0.6L402.2,206.6z
		 M402.7,201.8v1.3C402.4,202.8,402.4,202.3,402.7,201.8z M401.2,204.4c0-0.3,0.2-0.4,0.6-0.4h0.6v0.3l-0.6,0.3l-0.9,0.3
		L401.2,204.4z M399.5,208.7l0.9,0.3c0-0.2,0.1-0.4,0.3-0.6l0.7,0.1l0.6,0.7l-1,0.6h-0.1l-0.6-0.3c-0.1,0.1-0.1,0.2-0.1,0.3l0.3,0.3
		l-0.3,0.4h-0.3l0.1-0.4h-0.9L399.5,208.7z M401.8,211.5l-0.7,1c-0.1,0.1-0.1,0.2-0.1,0.2c0,0,0,0.1-0.1,0.2
		c-0.1,0.1-0.1,0.2-0.1,0.3l-0.7-0.7l0.3-1H401.8z M399.2,215.4l0.1,0.3l-1.3,1.5l0.1-1.3c0.1,0,0.2,0,0.4-0.1L399.2,215.4z
		 M398,213.3l0.3,0.3l-0.7,0.9L398,213.3z M397.7,235.5l0.3,0.6h-0.3l-0.3-0.6H397.7z M396.7,211.2l-0.1,1h-0.3l-0.3-0.7
		L396.7,211.2z M397.4,236.8v1.3l-0.9-0.7c0-0.2,0-0.3,0.1-0.3C396.7,237.1,396.9,237,397.4,236.8z M395.8,236.5h0.3l0.1,0.6
		l-0.4-0.1V236.5z M394.9,216.6l0.7-0.1v0.9l-0.7,0.1V216.6z M395,231.7h0.3l0.1,0.6l-0.7,0.6v0.4c0,0.1,0,0.2,0.1,0.3l-1,0.3
		l0.1-0.7l0.1-0.4l0.1-0.1l0.4-0.4C394.7,232.1,394.8,231.9,395,231.7z M393.7,213.9l0.7-0.3l-0.1,0.9l-0.9,0.3L393.7,213.9z
		 M393.1,232.9h0.3l-0.3,0.4h-0.1L393.1,232.9z M393.1,234.6l-0.3,1.2h-0.3l-0.1-0.6L393.1,234.6z M392.9,238.1h-0.1l0.1-0.4h0.1
		L392.9,238.1z M392.8,237h-0.3l0.3-0.6l0.3-0.3v-0.3l0.9,0.1v0.3l-0.9-0.1L392.8,237z M394.6,241l-0.3-0.1c-0.2,0-0.4-0.3-0.4-0.9
		l0.7-0.7l0.1,1L394.6,241z M394.6,236.5l-0.4-0.1l0.7-0.4l0.1,0.3c-0.1,0-0.2,0.1-0.2,0.1C394.8,236.5,394.7,236.5,394.6,236.5z
		 M396.1,241l-0.4,0.3l-0.7-0.7v-0.6c0.3,0,0.6,0.2,0.9,0.6l-0.1,0.3c0.1-0.1,0.2-0.1,0.4-0.1V241z M395.5,239.8l0.1-0.7l-0.3,0.4
		H395l0.1-0.7l0.1-0.6h0.3l0.1,0.6v-0.1l0.6,0.4l-0.1,1L395.5,239.8z M396.7,241.4h-0.3l0.1-0.6h0.3L396.7,241.4z M397.7,239.5h-0.3
		l0.1,0.3c-0.5,0-0.8,0-0.9-0.1l0.1-1l0.6,0.4v0.4l0.3-0.4h0.3L397.7,239.5z M398.9,237.8l-1.2,0.4l0.6-0.6l-0.6-0.3l1-0.7l-0.3,0.7
		c0.1,0,0.2,0,0.2,0.1c0,0.1,0.1,0.1,0.2,0.1V237.8z M404.2,242l-0.4-0.1v-0.3l0.6,0.1L404.2,242z M405,241.9l-0.6-0.3v-0.3l0.9-0.3
		L405,241.9z M407.3,241.3h-0.4V241l-0.4-0.1v0.3l0.3,0.1h-0.1l-0.1-0.1l-0.1-0.1l0.1-0.3v0.1l0.9,0.1V241.3z M407.7,241l0.1-0.3
		l-0.7-0.7l1.2-0.1c0-0.1,0.1-0.3,0.4-0.6l0.1,1.2L407.7,241z M411.2,238.7c-0.6,0.3-1,0.6-1,0.9l-0.9-0.9h0.4v-0.1l1-0.3l1.2-0.1
		L411.2,238.7z M412.1,237.7h-0.9l-0.6-0.6l1-0.9l0.1,0.9h-0.1l0.4,0.3V237.7z M417.9,212c-0.3,4.2-1,8-2.2,11.5
		c-1.1,3.5-2.5,6.4-4,8.7c-1.5,2.3-3.2,4.1-5.1,5.2c-1.8,1.1-3.6,1.4-5.3,0.9c-1.2-0.5-2-1.6-2.5-3.2c-0.5-1.6-0.6-3.7-0.4-6.2
		c0.3-2.9,0.8-6.1,1.6-9.5c0.7-3.4,2.1-6.8,4.1-10.1c1.8-2.9,3.6-5.1,5.4-6.7c1.8-1.5,3.4-2.3,4.7-2.2c1.3,0.1,2.4,1.1,3.1,2.9
		C418,205.2,418.2,208.1,417.9,212z"/>
	<polygon points="400,210.2 400.1,210.2 400.1,209.9 400.1,209.7 	"/>
	<path d="M200,294.4l-0.3-0.1c-0.1,0-0.5,0.6-1.2,1.7c-0.7,1.2-1.6,2.4-2.7,3.6c-1.2,1.2-2.4,1.9-3.6,2.1h-5.5c-0.8,0-1.1-0.4-1-1.2
		c0.6-3.5,2.1-12.2,4.5-26.1c0.2-1.3,0.6-2.3,1.1-3c0.5-0.7,1-1.1,1.5-1.4c0.4-0.2,0.7-0.3,0.7-0.4l0.1-0.4c0.1-0.2,0-0.2-0.2-0.2
		h-13.7c-0.2,0-0.3,0.1-0.4,0.2l-0.1,0.4c0,0.1,0.1,0.2,0.3,0.3c0.2,0.1,0.5,0.3,0.7,0.6c0.3,0.3,0.5,0.7,0.6,1.4
		c0.1,0.7,0.1,1.6-0.1,2.8l-4.4,25.2c-0.2,1.3-0.6,2.3-1.1,3c-0.5,0.7-1,1.2-1.5,1.4c-0.5,0.2-0.7,0.3-0.7,0.4l0.1,0.4
		c-0.1,0.1-0.1,0.1,0,0.2c0.1,0.1,0.1,0.1,0.2,0.1h24.2l1-3.7h-0.1l1.9-7.1C200.2,294.5,200.1,294.4,200,294.4z"/>
	<path d="M215.4,303.9c1,1.1,2.3,1.7,3.9,1.7c1,0,2-0.2,2.9-0.6c0.9-0.4,1.5-0.9,1.8-1.5c0.1-0.2,0.1-0.3-0.1-0.3
		c-0.4-0.1-0.6-0.5-0.7-1.1c-0.1-0.6-0.1-1.5,0.1-2.6c0.2-1.1,0.3-2.2,0.5-3.1c0.2-0.9,0.5-2.1,0.8-3.7c0.1-0.4,0.2-0.9,0.4-1.7
		c0.2-0.7,0.3-1.3,0.3-1.7c0.6-2.9,0.3-5.2-1.1-7c-1.7-2.1-4.5-3.2-8.6-3.2c-2.4,0-4.8,0.5-7.2,1.5c-2.3,1-3.8,2.6-4.4,4.7
		c-0.3,1-0.1,1.9,0.5,2.7c0.7,1,1.8,1.5,3.5,1.5c1.2,0,2.2-0.3,3.1-0.9c0.9-0.6,1.5-1.2,1.7-1.9c0-0.2-0.1-0.3-0.2-0.3
		c-0.8-0.2-1.1-0.7-1-1.7c0.1-0.6,0.4-1.1,0.9-1.5c0.5-0.6,1.2-0.9,2.2-0.9c0.8,0,1.4,0.2,1.9,0.7c0.4,0.7,0.4,1.4,0.2,2.2
		c-0.5,1.7-2.5,3.3-6.2,4.7l-1.2,0.5c-3.1,1.2-5.3,2.4-6.8,3.5c-1.5,1.1-2.5,2.7-2.9,4.6c-0.5,2.2-0.1,3.9,1.2,5.2
		c1.3,1.3,3.1,2,5.3,2.1c1.2,0,2.5-0.3,3.9-0.9c1.4-0.6,2.4-1.4,3-2.3c0.2-0.2,0.2-0.3,0.1-0.5c-0.1-0.1-0.3-0.2-0.5-0.2h-0.2
		c-0.5,0.1-0.9,0.2-1.1,0.2c-0.1,0-0.2,0-0.3,0c-0.1,0-0.2,0-0.2,0c-1.5-0.5-2.1-1.8-1.7-3.9c0.4-2.2,2.1-4.4,5.3-6.4
		c0.6-0.4,1-0.7,1.2-0.9l-1.5,8.2C214,301.2,214.4,302.8,215.4,303.9z"/>
	<path d="M258.6,270c0.5-0.2,0.7-0.3,0.7-0.3l0.1-0.2c0-0.3-0.1-0.5-0.4-0.5h-13.2c-0.4,0-0.5,0.2-0.5,0.5l-0.1,0.2
		c0,0.1,0.1,0.2,0.3,0.3c0.2,0.1,0.4,0.3,0.7,0.6c0.3,0.3,0.5,0.7,0.6,1.1l6,33.6c0,0.1,0.1,0.2,0.2,0.2h4.7c0,0,0.1-0.1,0.2-0.2
		c0.3-0.5,1.8-3.5,4.8-9c2.9-5.5,5.8-10.8,8.6-16.1c2.8-5.2,4.3-8.1,4.5-8.5c0.3-0.5,0.6-0.8,0.9-1.1c0.4-0.3,0.7-0.5,0.9-0.6
		c0.3-0.1,0.4-0.2,0.4-0.3l0.1-0.4c0.1-0.2,0-0.2-0.2-0.2l-8.5-0.1c-0.1,0-0.2,0.1-0.3,0.2l-0.2,0.4c0,0.1,0.1,0.1,0.2,0.2
		c0.1,0.1,0.2,0.1,0.3,0.2c0.1,0.1,0.3,0.1,0.4,0.2c0.2,0.1,0.3,0.3,0.4,0.5c0.1,0.2,0.2,0.5,0.2,0.8c0,0.3-0.1,0.7-0.2,1.2
		c-0.2,0.5-0.4,1-0.8,1.7l-1.5,2.9c-1,1.9-2.4,4.4-4,7.4c-1.6,3.1-2.8,5.3-3.6,6.7c-0.1,0.1-0.2,0.2-0.2,0.2c-0.1,0-0.2-0.1-0.2-0.2
		l-2.7-17c-0.3-1.4-0.3-2.4,0-3.1C257.7,270.6,258.1,270.2,258.6,270z"/>
	<path d="M294,297.1c0.4-1.1,0-1.8-0.9-2.1c-0.1-0.1-0.3-0.1-0.5-0.1c-0.9,0-1.7,0.5-2.3,1.5c-1.2,2.3-3,3.5-5.5,3.6
		c-1.6,0.1-2.8-0.6-3.6-1.9c-0.9-1.3-1.2-3.1-1-5.4v-0.2l14.2-0.1h0.3c0.5,0,0.7-0.2,0.8-0.5c0.7-3.8,0.1-6.9-1.8-9.1
		c-1.9-2.4-4.7-3.6-8.5-3.6c-3.8,0-7.1,1.3-9.9,3.8c-2.8,2.5-4.6,5.7-5.3,9.5c-0.7,4,0,7.3,2.1,9.8c2,2.4,5,3.6,9.1,3.6
		c2.8,0,5.5-0.8,8-2.5C291.6,301.8,293.3,299.7,294,297.1z M282.5,284.6c0.8-1.3,1.6-2,2.4-2c0.9,0,1.5,0.6,1.9,1.9
		c0.4,1.2,0.4,2.9,0,5h-6.2C281,287.5,281.6,285.9,282.5,284.6z"/>
	<path d="M297.5,300.1c-0.2,1.3-0.6,2.3-1.1,3c-0.5,0.7-1,1.2-1.5,1.4c-0.5,0.2-0.7,0.3-0.7,0.4l0.1,0.4c-0.1,0.1-0.1,0.1,0,0.2
		c0.1,0.1,0.1,0.1,0.2,0.1h13.4c0.2,0,0.3-0.1,0.4-0.3v-0.3c0.1-0.1,0-0.2-0.3-0.3c-0.2-0.1-0.5-0.3-0.8-0.6
		c-0.3-0.3-0.5-0.8-0.6-1.5c-0.1-0.7-0.1-1.6,0.1-2.8c0-0.1,0.1-0.5,0.3-1.5c0.2-0.9,0.4-2.3,0.7-4c0.3-1.7,0.6-3.2,0.8-4.5
		c0.4-1.3,1-2.6,1.9-3.8c0.9-1.3,2-1.9,3.1-1.9c0.6,0,1.1,0.2,1.3,0.7c0.4,0.5,0.4,1.1,0.2,1.9c-0.3,1.1-0.9,1.8-1.8,1.9
		c-0.2,0.1-0.3,0.2-0.3,0.3c0,0.8,0.4,1.5,1.2,2.2c0.8,0.7,1.8,1,3.1,1c1.4,0,2.6-0.4,3.6-1.2c1-0.8,1.7-1.5,2.1-2.2
		c0.4-0.7,0.6-1.3,0.6-1.9c0.4-2.2,0-4-1.2-5.3c-1.1-1.3-2.9-2-5.2-2h-0.9c-2.5,0.2-4.7,1.2-6.6,3v-0.3c0.5-1.8,0.3-2.7-0.5-2.7
		c-0.3,0-0.5,0-0.6,0.1c-0.2,0.1-0.8,0.2-1.7,0.6c-0.9,0.3-1.7,0.6-2.3,0.8c-0.6,0.2-1.5,0.4-2.6,0.5c-1.1,0.2-2.2,0.3-3.2,0.3
		c-0.3,0-0.4,0.2-0.5,0.5L298,283c0,0.2,0.1,0.3,0.2,0.3c0.6,0,1.1,0.2,1.5,0.6c0.4,0.4,0.5,1,0.3,1.7L297.5,300.1z"/>
	<path d="M342.1,280.9c-1.3-0.9-2.7-1.4-4-1.5c-0.2,0-0.3,0-0.6,0c-0.2,0-0.4,0-0.5,0c-3.9,0-7.1,1.4-9.4,4.1
		c-2.4,2.7-3.8,5.6-4.4,8.8c-0.7,3.7-0.3,6.9,1.1,9.6c1.4,2.7,3.9,4.1,7.3,4.1h1c2-0.2,4.1-1.3,6.4-3.5c0.7,2,2.2,3,4.7,3
		c1,0,2.1-0.2,3.1-0.7c1-0.4,1.6-0.9,1.9-1.4c0.1-0.1,0.1-0.2-0.2-0.3c-0.6-0.2-0.8-0.9-0.8-2.1c0-1.2,0.3-3.3,0.9-6.3
		c0-0.1,0.3-1.8,1-5.3c0.6-3.5,1.3-7.3,2.1-11.3c0.7-4,1.2-6.3,1.3-6.9c0.5-1.8,0.3-2.7-0.5-2.7c-0.3,0-0.5,0-0.7,0.1
		c-0.1,0.1-0.6,0.2-1.6,0.6c-1,0.3-1.8,0.6-2.4,0.8c-0.6,0.2-1.4,0.4-2.6,0.5c-1.1,0.2-2.2,0.3-3.2,0.3c-0.3,0-0.4,0.2-0.5,0.5
		l-0.2,0.9c0,0.2,0.1,0.2,0.2,0.2c0.6,0,1,0.2,1.4,0.7c0.4,0.4,0.5,1,0.4,1.8L342.1,280.9z M340.5,289.6l-0.7,4
		c-0.6,2.6-1.3,4.7-2.1,6.3c-0.8,1.6-1.7,2.3-2.6,2.2c-1-0.1-1.7-1-2.1-2.8c-0.4-1.8-0.3-4.1,0.3-6.8c0.6-2.7,1.4-4.9,2.5-6.7
		c1.1-1.8,2.1-2.6,3.2-2.6C340.6,283.3,341.1,285.5,340.5,289.6z"/>
	<path d="M373.9,296.4c0.2-0.9,0.5-2.1,0.8-3.7c0.1-0.4,0.2-0.9,0.4-1.7c0.2-0.7,0.3-1.3,0.3-1.7c0.6-2.9,0.3-5.2-1.1-7
		c-1.7-2.1-4.5-3.2-8.6-3.2c-2.4,0-4.8,0.5-7.2,1.5c-2.3,1-3.8,2.6-4.4,4.7c-0.3,1-0.1,1.9,0.5,2.7c0.7,1,1.8,1.5,3.5,1.5
		c1.2,0,2.2-0.3,3.1-0.9c0.9-0.6,1.5-1.2,1.7-1.9c0-0.2-0.1-0.3-0.2-0.3c-0.8-0.2-1.1-0.7-1-1.7c0.1-0.6,0.4-1.1,0.9-1.5
		c0.5-0.6,1.2-0.9,2.2-0.9c0.8,0,1.4,0.2,1.9,0.7c0.4,0.7,0.4,1.4,0.2,2.2c-0.5,1.7-2.5,3.3-6.2,4.7l-1.2,0.5
		c-3.1,1.2-5.3,2.4-6.8,3.5c-1.5,1.1-2.5,2.7-2.9,4.6c-0.5,2.2-0.1,3.9,1.2,5.2c1.3,1.3,3.1,2,5.3,2.1c1.2,0,2.5-0.3,3.9-0.9
		c1.4-0.6,2.4-1.4,3-2.3c0.2-0.2,0.2-0.3,0.1-0.5c-0.1-0.1-0.3-0.2-0.5-0.2h-0.2c-0.5,0.1-0.9,0.2-1.1,0.2c-0.1,0-0.2,0-0.3,0
		c-0.1,0-0.2,0-0.2,0c-1.5-0.5-2.1-1.8-1.7-3.9c0.4-2.2,2.1-4.4,5.3-6.4c0.6-0.4,1-0.7,1.2-0.9l-1.5,8.2c-0.4,2.1,0,3.7,1,4.8
		c1,1.1,2.3,1.7,3.9,1.7c1,0,2-0.2,2.9-0.6c0.9-0.4,1.5-0.9,1.8-1.5c0.1-0.2,0.1-0.3-0.1-0.3c-0.4-0.1-0.6-0.5-0.7-1.1
		c-0.1-0.6-0.1-1.5,0.1-2.6C373.6,298.4,373.8,297.3,373.9,296.4z"/>
	<path d="M403.7,289.3c0.6-3.5,1.3-7.3,2.1-11.3c0.7-4,1.2-6.3,1.3-6.9c0.5-1.8,0.3-2.7-0.5-2.7c-0.3,0-0.5,0-0.7,0.1
		c-0.1,0.1-0.6,0.2-1.6,0.6c-1,0.3-1.8,0.6-2.4,0.8c-0.6,0.2-1.4,0.4-2.6,0.5c-1.1,0.2-2.2,0.3-3.2,0.3c-0.3,0-0.4,0.2-0.5,0.5
		l-0.2,0.9c0,0.2,0.1,0.2,0.2,0.2c0.6,0,1,0.2,1.4,0.7c0.4,0.4,0.5,1,0.4,1.8l-1.1,6.1c-1.3-0.9-2.7-1.4-4-1.5c-0.2,0-0.3,0-0.6,0
		c-0.2,0-0.4,0-0.5,0c-3.9,0-7.1,1.4-9.4,4.1c-2.4,2.7-3.8,5.6-4.4,8.8c-0.7,3.7-0.3,6.9,1.1,9.6c1.4,2.7,3.9,4.1,7.3,4.1h1
		c2-0.2,4.1-1.3,6.4-3.5c0.7,2,2.2,3,4.7,3c1,0,2.1-0.2,3.1-0.7c1-0.4,1.6-0.9,1.9-1.4c0.1-0.1,0.1-0.2-0.2-0.3
		c-0.6-0.2-0.8-0.9-0.8-2.1c0-1.2,0.3-3.3,0.9-6.3C402.7,294.6,403.1,292.9,403.7,289.3z M394.6,289.6l-0.7,4
		c-0.6,2.6-1.3,4.7-2.1,6.3c-0.8,1.6-1.7,2.3-2.6,2.2c-1-0.1-1.7-1-2.1-2.8c-0.4-1.8-0.3-4.1,0.3-6.8c0.6-2.7,1.4-4.9,2.5-6.7
		c1.1-1.8,2.1-2.6,3.2-2.6C394.7,283.3,395.2,285.5,394.6,289.6z"/>
	<path d="M242.4,323.6c-0.5,0-0.9,0.2-1.3,0.5c-0.4,0.4-0.6,0.8-0.6,1.3c0,0.4,0.1,0.7,0.3,1l10.6,15.9v15.8c0,1.2,0.6,1.8,1.8,1.8
		c1.2,0,1.8-0.6,1.8-1.8v-15.8l10.6-15.9c0.2-0.3,0.3-0.7,0.3-1c0-0.5-0.2-0.9-0.6-1.3c-0.4-0.4-0.8-0.5-1.3-0.5
		c-0.6,0-1.1,0.3-1.4,0.8l-9.4,14.1l-9.4-14.1C243.5,323.8,243,323.6,242.4,323.6z"/>
	<path d="M289.4,359.9h19.4c1.2,0,1.8-0.6,1.8-1.8c0-1.2-0.6-1.8-1.8-1.8h-17.6v-30.9c0-1.2-0.6-1.8-1.8-1.8c-1.2,0-1.8,0.6-1.8,1.8
		v32.8C287.6,359.3,288.2,359.9,289.4,359.9z"/>
	<path d="M327,323.6c-0.9,0-1.5,0.5-1.8,1.5l-10.8,32.4c-0.1,0.2-0.1,0.4-0.1,0.7c0,1.2,0.6,1.7,1.9,1.7c0.8,0,1.4-0.4,1.7-1.3
		l3.2-9.7h12l3.2,9.7c0.3,0.8,0.8,1.3,1.7,1.3c1.3,0,1.9-0.6,1.9-1.8c0-0.2,0-0.4-0.1-0.7l-10.8-32.4
		C328.5,324.1,327.9,323.6,327,323.6z M322.2,345.4l4.8-14.3l4.8,14.3H322.2z"/>
	<path d="M259.9,513.3c-0.3,0-0.5,0.2-0.5,0.5c0,0.3,0.2,0.5,0.5,0.5h4.6v8.1c0,0.7-0.2,1.2-0.7,1.7c-0.5,0.5-1,0.7-1.7,0.7
		c-0.6,0-1.3-0.3-1.9-0.9c-0.1-0.1-0.2-0.2-0.4-0.2c-0.1,0-0.2,0-0.3,0.1c-0.1,0.1-0.1,0.2-0.1,0.3c0,0.1,0,0.2,0.1,0.3
		c0.3,0.4,0.6,0.7,1.1,0.9c0.5,0.2,1,0.3,1.4,0.3c0.9,0,1.7-0.3,2.4-1c0.7-0.7,1-1.4,1-2.4v-8.6c0-0.3-0.2-0.5-0.5-0.5H259.9z"/>
	<path d="M271.7,513.7v6c0,0.6-0.2,1.1-0.6,1.5c-0.4,0.4-0.9,0.6-1.5,0.6c-0.6,0-1.1-0.2-1.5-0.6c-0.4-0.4-0.6-0.9-0.6-1.5v-6
		c0-0.3-0.2-0.5-0.5-0.5s-0.5,0.2-0.5,0.5v6c0,0.8,0.3,1.5,0.9,2.1c0.6,0.6,1.3,0.9,2.1,0.9c0.8,0,1.5-0.3,2.1-0.9
		c0.6-0.6,0.9-1.3,0.9-2.1v-6c0-0.3-0.2-0.5-0.5-0.5S271.7,513.4,271.7,513.7z"/>
	<path d="M276.9,513.7c-0.1-0.3-0.2-0.4-0.5-0.4c-0.2,0-0.4,0.1-0.5,0.4l-2.8,8.5c0,0.1,0,0.1,0,0.2c0,0.3,0.2,0.5,0.5,0.5
		c0.2,0,0.4-0.1,0.4-0.3l0.8-2.5h3.1l0.8,2.5c0.1,0.2,0.2,0.3,0.4,0.3c0.3,0,0.5-0.2,0.5-0.5c0-0.1,0-0.1,0-0.2L276.9,513.7z
		 M275.2,519l1.3-3.8l1.3,3.8H275.2z"/>
	<path d="M285,513.7v6.6l-3.5-6.8c-0.1-0.2-0.3-0.3-0.4-0.3c-0.3,0-0.5,0.2-0.5,0.5v8.6c0,0.3,0.2,0.5,0.5,0.5
		c0.3,0,0.5-0.2,0.5-0.5v-6.6l3.5,6.8c0.1,0.2,0.3,0.3,0.4,0.3c0.3,0,0.5-0.2,0.5-0.5v-8.6c0-0.3-0.2-0.5-0.5-0.5
		C285.2,513.3,285,513.4,285,513.7z"/>
	<path d="M297.8,521.8v-6.6c0-0.4-0.2-0.6-0.5-0.6c-0.1,0-0.3,0.1-0.4,0.2l-2.3,2.3c-0.1,0.1-0.1,0.2-0.1,0.3c0,0.1,0,0.2,0.1,0.3
		c0.1,0.1,0.2,0.1,0.3,0.1c0.1,0,0.2-0.1,0.3-0.2l1.6-1.6v5.5h-1.3c-0.3,0-0.5,0.2-0.5,0.5c0,0.3,0.2,0.5,0.5,0.5h3.5
		c0.3,0,0.5-0.2,0.5-0.5c0-0.3-0.2-0.5-0.5-0.5H297.8z"/>
	<path d="M305.2,520.4v-5.2c0-0.4-0.1-0.6-0.4-0.6c-0.2,0-0.3,0.1-0.4,0.3l-3.8,5.7c-0.1,0.1-0.1,0.2-0.1,0.3c0,0.3,0.2,0.4,0.5,0.4
		h3.3v2.4c0,0.3,0.2,0.5,0.5,0.5c0.3,0,0.5-0.2,0.5-0.5v-2.4h1.4c0.3,0,0.5-0.2,0.5-0.5c0-0.3-0.2-0.5-0.5-0.5H305.2z M304.3,520.4
		h-2.4l2.4-3.7V520.4z"/>
	<path d="M310.7,516.1c-0.2,0-0.4,0.1-0.5,0.2c-0.1,0.1-0.2,0.3-0.2,0.5c0,0.2,0.1,0.4,0.2,0.5c0.1,0.1,0.3,0.2,0.5,0.2
		c0.2,0,0.4-0.1,0.5-0.2c0.1-0.1,0.2-0.3,0.2-0.5c0-0.2-0.1-0.4-0.2-0.5C311,516.2,310.9,516.1,310.7,516.1z"/>
	<path d="M310.7,521.4c-0.2,0-0.4,0.1-0.5,0.2c-0.1,0.1-0.2,0.3-0.2,0.5c0,0.2,0.1,0.4,0.2,0.5c0.1,0.1,0.3,0.2,0.5,0.2
		c0.2,0,0.4-0.1,0.5-0.2c0.1-0.1,0.2-0.3,0.2-0.5c0-0.2-0.1-0.4-0.2-0.5C311,521.4,310.9,521.4,310.7,521.4z"/>
	<path d="M320.4,514.2c0.3,0,0.5-0.2,0.5-0.5c0-0.3-0.2-0.5-0.5-0.5c-1.7,0-3.2,0.6-4.4,1.8c-1.2,1.2-1.8,2.7-1.8,4.4
		c0,0.9,0.3,1.7,1,2.4c0.7,0.7,1.4,1,2.4,1c0.9,0,1.7-0.3,2.4-1c0.7-0.7,1-1.4,1-2.4c0-0.9-0.3-1.7-1-2.4c-0.7-0.7-1.4-1-2.4-1
		c-0.5,0-1,0.1-1.4,0.3c0.5-0.7,1.1-1.2,1.9-1.6C318.7,514.4,319.5,514.2,320.4,514.2z M317.5,517.1c0.7,0,1.2,0.2,1.7,0.7
		c0.5,0.5,0.7,1,0.7,1.7c0,0.7-0.2,1.2-0.7,1.7c-0.5,0.5-1,0.7-1.7,0.7c-0.7,0-1.2-0.2-1.7-0.7c-0.5-0.5-0.7-1-0.7-1.7
		c0-0.7,0.2-1.2,0.7-1.7C316.3,517.3,316.8,517.1,317.5,517.1z"/>
	<path d="M353.2,489.7c-8.2,0.5-15.9-1.5-23-5.6c-3.7-2.1-6.7-5.1-9.2-8.6c-0.6-0.9-0.6-1.5-0.1-2.5c1.1-2.1,2.1-4.3,3.1-6.5
		c0.5-1,0.8-2.2,1.1-3.3c0.5-2,0-3.7-1.2-5.2c-1.4-1.7-3.3-2.2-5.3-1.3c-2,0.8-3.2,2.3-3.9,4.2c-1.3,3.5-1.2,7,0.4,10.3
		c0.9,1.9,0.8,3.4-0.4,4.9c0,0-0.1,0.1-0.1,0.2c-3,5.5-7.8,8.5-13.7,10.1c-2.7,0.8-5.5,1.3-8.6,2.1c0.1-0.7,0.1-1.4,0.4-1.9
		c0.5-0.8,1-1.6,1.7-2.3c1.5-1.5,3.1-3.1,4.7-4.5c3.5-2.9,5.3-6.8,6.2-11.1c0.2-0.8,0.1-1.8-0.1-2.7c-0.4-1.4-1.4-2-2.7-1.5
		c-1.5,0.6-3.1,1.2-4.3,2.2c-3.1,2.5-5.7,5.6-7.1,9.4c-0.2,0.5-0.5,1.1-0.7,1.6c-0.2-0.1-0.3-0.1-0.3-0.1c-0.1-0.2-0.2-0.4-0.3-0.6
		c-1.2-3.7-3.6-6.6-6.3-9.3c-1.5-1.5-3.3-2.6-5.4-3.2c-1.5-0.4-2.5,0.2-2.8,1.7c-0.1,0.8-0.2,1.6,0,2.3c0.7,3.5,2,6.8,4.5,9.5
		c1.8,2,3.9,3.7,5.8,5.6c0.8,0.8,1.6,1.8,2.3,2.7c0.5,0.6,0.6,1.3,0.2,2c-2.6-0.6-5.2-1.2-7.7-1.8c-6.5-1.7-11.7-5.1-14.9-11.3
		c-0.6-1.2-0.9-2.2-0.2-3.5c0.4-0.7,0.6-1.6,0.9-2.4c1.1-3.1,0.8-6-0.4-9c-0.7-1.8-2-3.1-3.8-3.9c-2-0.8-3.8-0.4-5.2,1.2
		c-0.9,1.1-1.5,2.4-1.4,3.8c0.1,1.2,0.3,2.4,0.7,3.5c1.1,2.6,2.2,5.2,3.5,7.7c0.6,1.1,0.5,1.8-0.2,2.8c-2.6,3.4-5.5,6.4-9.3,8.5
		c-7.7,4.3-15.9,6.4-24.8,5.3c-0.7-0.1-1.5,0-2.5,0c0.8,1.2,1.8,1.3,2.7,1.6c4.4,1.3,8.9,1.2,13.4,0.4c8.8-1.6,16.4-5.4,22.2-12.4
		c0.3-0.4,0.6-0.7,1.1-1.2c0.4,0.7,0.8,1.2,1.1,1.8c1.2,2.1,2.8,4,4.7,5.5c5.5,4.3,11.8,6.4,18.8,6.4c0.9,0,1.7-0.1,2.6,0.5
		c0.6,0.4,1.7,0.5,2.5-0.1c0.4-0.3,1-0.4,1.5-0.4c2.9,0.3,5.7-0.2,8.4-0.9c6.9-1.8,12.6-5.2,16.2-11.6c0.2-0.3,0.5-0.6,0.8-1
		c0.4,0.5,0.7,0.8,1,1.2c3.3,4,7.2,7,11.9,9.2c5,2.3,10.4,3.5,15.9,3.7c3,0.1,5.9-0.4,8.7-1.4c0.5-0.2,1.2-0.2,1.4-1.2
		c-0.7,0-1.4-0.1-2.1,0C354.6,489.5,353.9,489.6,353.2,489.7z M262.2,469.8c-0.5-1-1-1.7-1.3-2.4c-0.6-1.4-1.3-2.9-1.8-4.3
		c-0.2-0.4-0.4-1-0.3-1.4c0.1-0.6,0.4-1.3,0.8-1.7c0.6-0.5,1.3,0,1.8,0.4c0.3,0.3,0.6,0.6,0.8,1
		C263.5,464.1,263.6,466.7,262.2,469.8z M288,481.9c-2.1-2-4.3-3.9-6.3-5.9c-2-2-3.5-5.6-3.7-8.2c4.2,0.4,10.4,8.6,11,14.7
		C288.5,482.2,288.2,482.1,288,481.9z M291.4,482.4c0-6,6.8-13.9,10.7-14.7c0,0.1,0.2,0.3,0.1,0.5c-0.6,2.9-1.7,5.6-3.7,7.7
		c-2,2.1-4.3,4.1-6.4,6.1C292,482.1,291.7,482.2,291.4,482.4z M318.1,469.3c-1.6-2.4-1.4-6.5,0.4-8.5c0.3-0.3,0.6-0.6,1-0.8
		c0.8-0.4,1.4-0.1,1.8,0.7c0.1,0.4,0.2,0.8,0.2,1.2C321.4,463.4,319.2,468.1,318.1,469.3z"/>
	<path d="M430.8,479.4c-3.7-2.7-7.8-4.3-12.3-4.6c-4.4-0.3-8.8,0.1-13.1,0.9c-3.1,0.5-6.3,1.1-9.3,2.3c-4.2,1.7-8.4,3.3-12.5,5.2
		c-3.5,1.5-7,3.3-10.4,5c-0.2,0.1-0.3,0.3-0.5,0.4c0.9,0.2,1.7,0.3,2.5,0c1.7-0.5,3.3-1,5-1.6c4.7-1.6,9.4-3.1,14-4.7
		c3-1.1,6-2.2,9.2-2.7c5.4-0.8,10.8-1.7,16.3-0.9c3.8,0.6,7.1,2.1,10,4.7c1.3,1.2,2.1,2.6,2.7,4.2c1.7,5.3,1,10.2-2.3,14.7
		c-0.9,1.3-2.1,2.3-3.6,2.9c-3.4,1.4-6.9,2.1-10.6,2c-3.9-0.1-7-1.8-8.6-5.5c-0.5-1.1-0.9-2.2-1.2-3.4c-0.6-2.5,0.3-4.8,2.5-6.2
		c1.3-0.8,2.7-1.4,4-2c2.9-1.2,5.5-0.6,8,1.2c1.6,1.2,2.7,2.7,3.5,4.5c0.5,1.1,1.2,2.1,1.8,3.1c0.2-0.1,0.4-0.1,0.6-0.2
		c-0.1-0.7-0.1-1.4-0.2-2.1c-0.8-3.5-2.6-6.4-5.4-8.7c-2.6-2.1-5.6-2.9-8.8-1.7c-2,0.7-4,1.6-5.9,2.8c-2.9,1.8-4.4,4.6-4.3,8
		c0,2.8,1,5.4,2.4,7.9c2.2,3.9,5.7,5.8,10,6.3c4.6,0.4,9-0.4,13.2-2.2c2.3-1,4.1-2.5,5.5-4.5c3.3-4.7,4.4-9.8,3.4-15.4
		C435.8,485.2,434.1,481.9,430.8,479.4z"/>
	<path d="M194.7,482.4c-2.4-1.1-4.8-1.8-7.2-2.9c-8.3-3.8-17-5-26.1-4.6c-4.7,0.2-8.8,2-12.4,4.9c-1.9,1.5-3.4,3.3-4.2,5.6
		c-2.4,6.8-1.9,13.2,2.3,19.2c1.4,2,3.2,3.5,5.5,4.5c4.2,1.8,8.7,2.6,13.2,2.1c4.1-0.4,7.6-2.3,9.8-6c1.2-2,2.1-4.2,2.4-6.6
		c0.6-4-0.7-7.3-4.1-9.5c-1.8-1.2-3.9-2.1-6-2.9c-2.7-1-5.4-0.6-7.8,1c-3.2,2.1-5.2,5.1-6.2,8.8c-0.2,0.9-0.3,1.8-0.4,2.7
		c0.1,0,0.3,0.1,0.4,0.1c1-0.7,1.4-1.8,1.9-2.9c0.9-1.9,2.1-3.6,3.9-4.9c2.3-1.6,4.8-2.2,7.5-1.1c1.4,0.6,2.9,1.2,4.2,2
		c2.2,1.3,3.1,3.3,2.6,5.9c-0.3,1.4-0.8,2.8-1.4,4.1c-1.5,3.4-4.4,5-8,5.2c-3.8,0.2-7.4-0.5-10.9-2c-1.5-0.6-2.6-1.6-3.6-2.9
		c-3.3-4.6-3.9-9.6-2.2-14.9c0.5-1.5,1.2-2.7,2.3-3.8c2.4-2.2,5.1-3.9,8.3-4.6c3.9-0.8,7.8-0.9,11.7-0.4c4.7,0.6,9.4,1.2,13.9,2.9
		c6.5,2.4,13.1,4.5,19.6,6.8c1.1,0.4,2.3,0.5,3.5,0.7c0-0.2,0.1-0.3,0.1-0.5c-0.2-0.2-0.5-0.3-0.7-0.5
		C202.8,486.2,198.7,484.3,194.7,482.4z"/>
	<path d="M395.5,474.9c3.2-4.4,4.6-9.4,3.9-14.7c-0.8-6.1-4.2-10.7-10.4-12.6c-1-0.3-2-0.6-3-0.8c-5.2-1-9,0.6-11.3,4.9
		c-1.3,2.4-1.6,5-0.3,7.5c1.8,3.5,7.1,6.1,11.9,4.3c1.3-0.5,2.2-1.4,2.5-2.9c0.3-1.5-0.1-3-0.8-4.4c-0.2-0.3-0.7-0.7-0.9-0.7
		c-0.4,0.1-0.8,0.5-0.9,0.9c-0.2,0.7-0.3,1.5-0.4,2.3c-0.1,0.8-0.5,1.2-1.4,1.5c-2.1,0.6-5.4-0.6-6.6-2.4c-0.2-0.3-0.4-0.8-0.4-1.2
		c-0.5-2.8,1.9-6.4,5.1-6.5c1.9-0.1,3.7,0.3,5.5,0.8c5.4,1.4,8.9,7.6,7.9,12.8c-0.3,1.4-0.6,2.7-0.9,4c-1,3.9-3.4,6.5-7.3,7.8
		c-4.9,1.6-9.7,3.2-14.9,3.5c-4.7,0.2-9.4,0.4-14-0.4c-6.4-1.1-12.6-3.2-18.8-5.2c-0.8-0.2-1.5-0.7-2.6-0.1c0.9,1.5,2.2,2.2,3.5,2.8
		c1.8,0.9,3.6,1.6,5.5,2.4c8,3.2,16.2,4.9,24.8,4.5c6.7-0.3,13-1.9,19.1-4.3C392.3,477.9,394.2,476.8,395.5,474.9z"/>
	<path d="M242.3,474.3c0.3-0.2,0.4-0.6,0.6-0.8c-0.1-0.1-0.1-0.3-0.2-0.4c-0.6,0.1-1.2,0.1-1.7,0.2c-3,0.9-6.1,1.9-9.1,2.9
		c-7.4,2.3-15,3.5-22.8,3c-6.2-0.4-12-2-17.7-4.2c-2.6-1-4.4-2.9-5.4-5.5c-1-2.4-1.6-4.8-1.7-7.4c-0.1-1.3,0.2-2.8,0.7-4
		c2-5.1,5.3-7.6,12.1-8c2.6-0.2,4.4,1.2,5.4,3.5c0.6,1.4,1,3-0.1,4.3c-1.6,1.9-3.7,2.8-6.3,2.4c-1-0.2-1.5-0.7-1.6-1.7
		c-0.1-0.5-0.1-1.1-0.2-1.6c-0.1-0.7-0.2-1.5-1-1.4c-0.4,0-0.9,0.6-1.2,1.1c-0.3,0.6-0.4,1.2-0.6,1.9c-0.5,2.8,0.5,4.4,3.2,5.1
		c4.6,1.3,9.1-1.3,10.9-4.2c0.4-0.6,0.7-1.4,0.8-2.2c0.8-4.8-3-10.4-8.3-10.7c-3-0.2-5.7,0.5-8.4,1.6c-5.2,2.1-9.1,8.1-9.1,13.7
		c0,3.5,0.8,6.8,2.2,10c1.3,3,3.4,5.2,6.4,6.6c1.4,0.6,2.8,1.1,4.2,1.6c8.3,3,16.9,3.7,25.6,2.6c7.3-0.9,14.2-3.5,20.9-6.7
		C240.8,475.5,241.6,474.9,242.3,474.3z"/>
	<path d="M319.4,490.7c-1.7,0-3.4,1.2-3.8,2.6c-0.4,1.3,0.4,2.9,1.8,3.8c1.4,1,3.3,0.9,4.6-0.1c1-0.8,1.6-2.4,1.3-3.5
		C322.8,491.9,321.1,490.7,319.4,490.7z M319.9,495.5c-0.8,0-1.8-0.8-1.8-1.4c0-0.5,0.9-1.2,1.6-1.2c0.7,0,1.5,0.7,1.5,1.5
		C321.2,495,320.6,495.5,319.9,495.5z"/>
	<path d="M264.5,494.9c0.5-1.5-0.3-3.1-2.1-3.8c-0.5-0.2-1-0.3-1.3-0.4c-2.3,0-4.1,1.5-4.3,3.2c-0.2,1.7,1.1,3.4,3,3.8
		C261.7,498.1,263.9,496.8,264.5,494.9z M259.1,494.5c-0.1-0.7,0.8-1.7,1.5-1.7c0.7,0,1.6,0.7,1.6,1.2c0,0.6-0.8,1.4-1.6,1.4
		C259.9,495.6,259.2,495.1,259.1,494.5z"/>
	<path d="M210.4,467c-1.9-0.1-3.6,1.2-3.6,2.8c0,1.6,1.4,3.1,3.1,3.2c1.6,0.1,2.7-1,2.7-2.7C212.7,468.6,211.6,467,210.4,467z
		 M210.2,471.2c-0.5,0-1.1-0.3-1.3-0.6c-0.2-0.3,0-1,0.2-1.4c0.2-0.3,0.8-0.5,1.4-0.9c0.2,0.7,0.4,1.2,0.5,1.7
		C211.1,470.6,210.9,471.2,210.2,471.2z"/>
	<path d="M370.1,473c1.7,0.1,3.2-1.3,3.2-3c0.1-1.7-1.3-2.9-3.3-3c-1.3,0-2.3,1.3-2.4,3.1C367.6,471.8,368.5,472.9,370.1,473z
		 M369.7,468.3c0.6,0.3,1.1,0.5,1.4,0.8c0.5,0.3,0.6,0.8,0.3,1.4c-0.3,0.6-0.8,0.9-1.5,0.7c-0.7-0.1-0.8-0.7-0.7-1.2
		C369.3,469.5,369.5,469,369.7,468.3z"/>
	<path d="M148.1,436.5H207c2.6,0,4.7-2.1,4.7-4.7V377c0-2.6-2.1-4.7-4.7-4.7h-58.9c-2.6,0-4.7,2.1-4.7,4.7v54.8
		C143.4,434.4,145.5,436.5,148.1,436.5z M173.6,386.6l4.1,27.1l4-27.1h5.4l-6,35.6h-7l-6-35.6H173.6z"/>
	<path d="M223.2,436.5H282c2.6,0,4.7-2.1,4.7-4.7V377c0-2.6-2.1-4.7-4.7-4.7h-58.9c-2.6,0-4.7,2.1-4.7,4.7v54.8
		C218.4,434.4,220.5,436.5,223.2,436.5z M249.9,386.6h5.4v35.6h-5.4V386.6z"/>
	<path d="M298.2,436.5h58.9c2.6,0,4.7-2.1,4.7-4.7V377c0-2.6-2.1-4.7-4.7-4.7h-58.9c-2.6,0-4.7,2.1-4.7,4.7v54.8
		C293.5,434.4,295.6,436.5,298.2,436.5z M319.3,386.6c0,0,8.7,0,8.6,0c13.7-0.4,15.9,35.1,0.1,35.5l-8.7,0V386.6z"/>
	<path d="M432.2,372.2h-58.9c-2.6,0-4.7,2.1-4.7,4.7v54.8c0,2.6,2.1,4.7,4.7,4.7h58.9c2.6,0,4.7-2.1,4.7-4.7V377
		C436.9,374.4,434.8,372.2,432.2,372.2z M406.8,422.2l-1.2-8.1l-5.9,0l-1.2,8.1h-5.4l6.1-35.6h6.9l6.1,35.6L406.8,422.2z"/>
	<polygon points="400.4,409.2 404.9,409.2 402.7,394.2 	"/>
</g>
</svg>
