<?xml version="1.0" encoding="utf-8"?>
<!-- Generator: Adobe Illustrator 25.3.0, SVG Export Plug-In . SVG Version: 6.00 Build 0)  -->
<svg version="1.1" id="Capa_1" xmlns="http://www.w3.org/2000/svg" xmlns:xlink="http://www.w3.org/1999/xlink" x="0px" y="0px"
	 viewBox="0 0 566.9 566.9" style="enable-background:new 0 0 566.9 566.9;" xml:space="preserve">
<style type="text/css">
	.st0{fill:#020203;}
	.st1{fill:#E52520;}
</style>
<g>
	<path class="st0" d="M41.5,232.9c0,4.9,3.1,8.7,8.4,9.8l0.3,32.1c0,2.2-0.2,4.1-0.5,5.4c-0.3,1.3-0.7,1.9-1,2.2
		c-0.3,0.3-0.5,0.5-1,0.7c-1.5,0.6-4.4,0.3-4.7,0.3c-5.8-1.5-9,0.4-10.7,1.9c-1.7,1.6-2.7,3.7-2.9,6.1l-1.2,13.9l5.5,1.4
		c2.2,0.5,4.3,0.9,6.3,1.2c2,0.3,4.1,0.4,6.2,0.4c4.9,0,9.3-0.8,13.1-2.4c4-1.7,7.4-4.1,10.1-7.2c2.6-3.1,4.6-6.7,5.9-10.9
		c1.2-4,1.8-8.4,1.8-13.2v-31.9c4.7-1.1,7.7-4.9,7.7-9.7v-12.7H41.5V232.9z"/>
	<path class="st0" d="M97.9,232.9c0,4.9,3,8.7,7.7,9.7v42.5c-4.7,1.1-7.7,4.9-7.7,9.7v12.7h67.7v-26.2l-0.4-6.7h-7.3V253h7.8v-32.8
		l-67.7,0V232.9z M132.9,251.7v-7.1H144c0.1,0.6,0.1,1,0.2,1.3c0.6,2.6,2,4.6,4,5.8H132.9z M148.9,275.6c-2.4,1.2-4.1,3.4-4.8,6.5
		c0,0.2-0.1,0.6-0.1,1.1h-11.1v-7.6H148.9z"/>
	<path class="st0" d="M491.7,220.2h-43.1v12.7c0,4.9,3,8.7,7.8,9.8l0.4,28.6c0,2.1-0.3,4-0.8,5.5c-0.5,1.4-1.1,2.5-1.9,3.5
		c-0.8,0.9-1.8,1.6-2.9,2.1c-2.6,1.1-6.6,1.1-9.1,0c-1.2-0.5-2.1-1.2-2.9-2c-0.8-0.9-1.5-2.1-2-3.5c-0.5-1.6-0.8-3.5-0.8-5.6v-28.4
		l0.4-0.1c4.8-1,7.8-4.8,7.8-9.7v-12.7h-43.1v12.7c0,4.9,3,8.7,7.7,9.7v28.6c0,5.2,0.9,10.1,2.6,14.6c1.7,4.6,4.3,8.6,7.5,12
		c3.3,3.4,7.3,6,11.9,7.9c4.6,1.8,9.7,2.8,15.3,2.8c5.6,0,10.7-0.9,15.3-2.8c4.6-1.9,8.6-4.5,11.9-7.9c3.3-3.4,5.9-7.4,7.6-12
		c1.7-4.5,2.6-9.4,2.6-14.6v-28.6c4.7-1.1,7.7-4.9,7.7-9.7V220.2z"/>
	<path class="st0" d="M550.5,267.2c-1.3-3-3.2-5.5-5.4-7.6c-1.5-1.4-3.1-2.6-4.9-3.6H551v-30.1l-4.2-1.7c-7.7-3.1-15.6-4.7-23.7-4.7
		c-4.7,0-9,0.8-12.7,2.3c-3.8,1.5-7.1,3.6-9.8,6.1c-2.7,2.6-4.8,5.6-6.2,9c-1.4,3.4-2.1,6.9-2.1,10.5c0,4.3,0.7,8,2,11.1
		c1.3,3.1,3.1,5.8,5.4,8c2.1,2,4.6,3.7,7.3,5c2.3,1.1,4.6,2,7,2.8c2.2,0.7,4.3,1.4,6.5,2c1.6,0.4,3,1,4.2,1.6
		c0.8,0.4,1.3,0.8,1.7,1.9c0,2.2-0.7,2.7-0.9,3c-1.1,1-3.2,1.2-4.7,1.2c-3.4,0-6-0.1-7.8-0.3c-0.2-2.1-0.4-3.4-0.5-4.2
		c-1-4.3-4.5-7.1-8.9-7.1h-12.6v30.5l4.5,1.5c8.2,2.8,16.1,4.3,23,4.3c0,0,0,0,0.1,0l1.8,0c4.9,0,9.4-0.8,13.3-2.3
		c4-1.6,7.4-3.8,10.3-6.6c2.8-2.8,5-6.2,6.5-9.9c1.4-3.7,2.2-7.7,2.2-11.8C552.6,273.7,551.9,270.1,550.5,267.2z M524.6,249.8
		c-1.7-0.5-3.1-1.1-4.4-1.8c-0.8-0.4-1.4-0.9-1.7-1.4c0-0.4,0.1-0.8,0.5-1.5c0.3-0.3,0.8-0.5,1.3-0.7c0.5-0.2,1.4-0.4,2.9-0.4
		c2.5,0,4.3,0.1,5.7,0.3c0.2,2.2,0.4,3.6,0.6,4.4c0.2,1.1,0.7,2.2,1.2,3.1C528.6,251.1,526.6,250.4,524.6,249.8z"/>
</g>
<g>
	<path class="st1" d="M78.1,227v5.9c0,1.7-0.8,2.8-2.5,3.2c-0.2,0-0.4,0.1-0.6,0.1c-0.3,0-0.8,0.1-1.5,0.3c-0.7,0.1-1.7,0.3-3,0.5
		v37.1c0,4.1-0.5,7.8-1.5,11.1s-2.5,6.1-4.5,8.4c-2,2.3-4.5,4.1-7.5,5.4c-3,1.2-6.5,1.9-10.5,1.9c-1.8,0-3.6-0.1-5.4-0.3
		c-1.8-0.2-3.6-0.6-5.5-1l0.7-8.1c0.1-0.7,0.3-1.3,0.8-1.8c0.5-0.5,1.2-0.7,2.1-0.7c0.6,0,1.3,0.1,2.2,0.4c0.9,0.2,2.1,0.4,3.5,0.4
		c1.9,0,3.6-0.3,5.1-0.8c1.5-0.6,2.7-1.4,3.7-2.7c1-1.2,1.7-2.8,2.2-4.7c0.5-1.9,0.8-4.3,0.8-7V237c-1.3-0.2-2.3-0.4-3.2-0.5
		c-0.9-0.1-1.5-0.2-2-0.3c-0.4,0-0.7-0.1-0.9-0.1c-1.7-0.4-2.5-1.4-2.5-3.2V227h8.6h13.6H78.1z"/>
</g>
<g>
	<path class="st1" d="M158.6,227v7v3.8v8.4h-0.4H157h-4.2c-1.3,0-2.1-0.6-2.4-1.9c-0.1-0.8-0.4-3-0.7-6.5h-23.5V258H151v10.5h-24.7
		v20.7h23.5c0.4-3.6,0.6-5.7,0.7-6.5c0.3-1.3,1.1-1.9,2.4-1.9h4.2h1.2h0.4v8.4v3.8v7.1h-46.1h-7.7v-5.9c0-1.7,0.8-2.8,2.5-3.2
		c0.1,0,0.4-0.1,0.6-0.1c0.3,0,0.8-0.1,1.5-0.3c0.7-0.1,1.7-0.3,3-0.5v-53c-1.3-0.2-2.3-0.4-3-0.5c-0.7-0.1-1.2-0.2-1.5-0.3
		c-0.3,0-0.5-0.1-0.6-0.1c-1.7-0.4-2.5-1.4-2.5-3.2V227h7.7L158.6,227z"/>
</g>
<g>
	<path class="st1" d="M484.5,227v5.9c0,1.7-0.8,2.8-2.5,3.2c-0.2,0-0.4,0.1-0.6,0.1c-0.3,0-0.8,0.1-1.5,0.3c-0.7,0.1-1.7,0.3-3,0.5
		v33.7c0,4.3-0.7,8.4-2.1,12c-1.4,3.7-3.4,6.9-6,9.5c-2.6,2.7-5.8,4.8-9.5,6.3c-3.7,1.5-7.9,2.2-12.6,2.2c-4.7,0-8.9-0.7-12.6-2.2
		c-3.7-1.5-6.9-3.6-9.5-6.3c-2.6-2.7-4.6-5.9-6-9.5c-1.4-3.7-2.1-7.7-2.1-12V237c-1.3-0.2-2.3-0.4-3-0.5c-0.7-0.1-1.2-0.2-1.5-0.3
		c-0.3,0-0.5-0.1-0.6-0.1c-1.7-0.4-2.5-1.4-2.5-3.2V227h7.6h13.6h8.1v5.9c0,1.7-0.8,2.8-2.5,3.2c-0.2,0-0.4,0.1-0.7,0.1
		c-0.3,0-0.9,0.1-1.7,0.3c-0.8,0.1-1.8,0.3-3.1,0.5v33.7c0,2.8,0.4,5.3,1.1,7.6c0.8,2.3,1.8,4.2,3.3,5.8c1.4,1.6,3.2,2.8,5.2,3.7
		c2.1,0.9,4.4,1.3,7,1.3c2.6,0,5-0.4,7.1-1.3c2.1-0.9,3.8-2.1,5.3-3.7c1.4-1.6,2.5-3.5,3.3-5.8c0.8-2.3,1.1-4.8,1.1-7.6V237
		c-1.3-0.2-2.3-0.4-3.1-0.5c-0.8-0.1-1.4-0.2-1.7-0.3c-0.3,0-0.6-0.1-0.7-0.1c-1.7-0.4-2.5-1.4-2.5-3.2V227h8.1h13.6H484.5z"/>
</g>
<g>
	<path class="st1" d="M545.6,277.1c0,3.3-0.6,6.4-1.7,9.3c-1.1,2.9-2.8,5.4-4.9,7.5c-2.2,2.1-4.8,3.8-8,5.1
		c-3.1,1.2-6.7,1.8-10.8,1.8c-0.4,0-0.9,0-1.5,0c-6.5,0-13.5-1.3-21-3.9v-1.8v-17h0.4h1.2h4.2c1.3,0,2.1,0.6,2.4,1.9
		c0.2,0.9,0.5,3.7,0.9,8.3c2.9,0.9,7.5,1.3,13.8,1.3c3.9,0,6.9-0.9,9-2.8c2.1-1.8,3.2-4.5,3.2-7.9c0-1.9-0.5-3.5-1.4-4.7
		c-1-1.2-2.2-2.2-3.8-3.1c-1.6-0.8-3.4-1.5-5.4-2.1c-2-0.6-4.1-1.2-6.2-1.9c-2.1-0.7-4.1-1.5-6.2-2.4c-2-0.9-3.8-2.2-5.4-3.7
		c-1.6-1.5-2.9-3.4-3.8-5.7c-1-2.3-1.4-5.1-1.4-8.4c0-2.7,0.5-5.3,1.6-7.8c1.1-2.5,2.6-4.8,4.6-6.7c2-2,4.5-3.5,7.5-4.7
		c3-1.2,6.3-1.8,10.1-1.8c7.2,0,14.2,1.4,21,4.1V249h-0.4h-1.2h-4.2c-1.3,0-2.1-0.6-2.4-1.9c-0.2-0.9-0.5-3.6-0.9-8.2
		c-2.5-1.1-6.5-1.7-11.7-1.7c-1.9,0-3.5,0.2-4.9,0.7c-1.4,0.5-2.6,1.1-3.5,1.9c-1,0.8-1.7,1.8-2.1,2.9c-0.5,1.1-0.7,2.4-0.7,3.7
		c0,1.7,0.5,3.1,1.4,4.3c1,1.1,2.2,2.1,3.8,2.9c1.6,0.8,3.4,1.5,5.4,2.2c2,0.6,4.1,1.3,6.2,2c2.1,0.7,4.2,1.6,6.2,2.5
		c2,1,3.8,2.2,5.4,3.6c1.6,1.5,2.9,3.3,3.8,5.4C545.1,271.5,545.6,274.1,545.6,277.1z"/>
</g>
<image style="overflow:visible;" width="900" height="720" xlink:href="230B1E81.png"  transform="matrix(0.344 0 0 0.344 134.9309 146.1964)">
</image>
</svg>
