<?xml version="1.0" encoding="utf-8"?>
<!-- Generator: Adobe Illustrator 25.3.0, SVG Export Plug-In . SVG Version: 6.00 Build 0)  -->
<svg version="1.1" id="Capa_1" xmlns="http://www.w3.org/2000/svg" xmlns:xlink="http://www.w3.org/1999/xlink" x="0px" y="0px"
	 viewBox="0 0 566.9 566.9" style="enable-background:new 0 0 566.9 566.9;" xml:space="preserve">
<style type="text/css">
	.st0{fill:#E52520;}
	.st1{fill:#B51917;}
	.st2{fill:#020203;}
</style>
<g>
	<path d="M269.6,136.3c0.7-0.1,1.2-0.3,1.7-0.7c0.5-0.2,0.8-0.5,1.2-0.9c0.3-0.4,0.4-0.9,0.3-1.4c0-0.7-0.2-1.5-0.5-2.6
		c-0.3-1.1-0.8-2.1-1.3-3.1c-0.6-1-1.3-1.9-2.1-2.6c-0.8-0.7-1.8-1.1-2.8-1.1c-1,0.1-2.8,0.5-5.4,1.1c-2.6,0.6-5.8,1-9.7,1.3
		c4.1-7,7.9-12.7,11.3-16.9c3.4-4.2,5.5-7.1,6.4-8.7c4.9,0.9,9.9,1.5,14.8,1.9c5,0.4,9.6,0.2,13.9-0.6c4.3-0.8,8.1-2.2,11.3-4.4
		c3.2-2.1,5.6-5.2,7-9.4c0.3-1.2,0.6-2.5,0.7-3.7c0.1-1.1,0.1-2.3,0.1-3.7c-0.1-1.3-0.4-2.7-0.9-4.2c-0.6-1.2-1.3-2-2.2-2.4
		c-0.9-0.4-1.8-0.5-2.7-0.3c-1,0.3-1.8,1-2.3,2c-0.3,0.5-0.6,1-0.8,1.5c-1.2,1.8-2.9,3.3-5,4.7c-1.9,1.2-4.3,2.3-7.3,3.1
		c-3,0.8-6.7,1.1-11.3,0.9c-5.5-0.3-10.6-0.9-15.4-1.8c-4.8-0.8-9.5-1.6-14-2.3c-4.5-0.7-9-1.1-13.6-1.2c-4.5-0.1-9.2,0.5-14,1.7
		c-3.2,0.9-5.6,2.1-7.1,3.7c-1.5,1.6-2.4,2.6-2.8,3.2c-0.3,0.7-0.7,1.4-1,2.2c-0.3,0.8-0.6,1.6-0.8,2.5c-0.5,1.9-0.5,3.6-0.1,5.2
		c0.4,1.6,0.9,3,1.7,4.2c0.7,1.2,1.6,2.3,2.6,3.2c1,0.9,1.9,1.6,2.7,2c0.3,0.2,0.8,0.4,1.4,0.6c0.6,0.2,1.3,0.2,1.9,0.1
		c1.1-0.2,2.5-0.7,4-1.5c1.6-0.8,3-2.3,4.4-4.5c0.1-0.2,0.2-0.6,0.2-1c0-0.4-0.3-0.8-0.8-1.2c-0.5-0.3-0.9-0.6-1.3-0.8
		c-0.9-0.7-1.3-1.5-1.1-2.3c0.2-0.9,0.3-1.5,0.4-1.7c0.3-0.6,0.9-1,1.6-1.4c0.7-0.4,1.8-0.7,3.1-0.9c1.1-0.2,2.9-0.1,5.4,0.4
		s5.5,1.2,9,2.1c-1.6,2.6-3.4,5.7-5.4,9.3c-2.1,3.6-4.2,7.8-6.4,12.5c-0.3,0.8-0.8,1.8-1.4,3c-0.6,1.2-1.3,2.6-2.1,4.2
		c-2.1-0.2-4.3-0.3-6.4-0.1c-2.2,0.2-3.5,0.6-4.1,1.3c-1.1,1.3-1.2,2.8-0.3,4.4c0.9,1.6,3.2,2.8,6.9,3.4c-2.1,4.8-4.1,9.9-5.9,15.3
		c-1.8,5.4-3.1,10.5-3.8,15.1c-0.7,4.7-0.7,9.2-0.2,13.7c0.6,4.4,2.3,8.4,5.2,12c1.2,1.6,2.7,3,4.4,4.4c1.8,1.1,3.5,1.8,5,2.2
		c1.6,0.3,2.8-0.1,3.8-1.2c0.9-1.1,1.3-2.5,0.9-4c-2.7-10.4-3.5-20-2.4-28.9c1.1-8.9,3.7-17.8,7.8-26.9h1.2c3.6,0.5,6.7,0.7,9.5,0.7
		c2.7,0,5.1-0.1,7.1-0.2C265.6,136.7,267.7,136.5,269.6,136.3z"/>
	<path d="M351.9,118.8c-0.3-1.4-0.8-2.7-1.5-3.9c-0.7-1.2-1.6-2.3-2.5-3.3c-1-1-1.8-1.7-2.4-2.2c-0.8-0.6-1.5-0.8-2-0.6
		c-0.6,0.2-1.1,0.5-1.7,0.9c-0.6,0.4-1.1,1.1-1.7,1.8l-1,1.5c-0.3,0.6-0.8,1.2-1.3,1.8c-0.5,0.7-1,1.5-1.6,2.3
		c-0.6,1-1.1,2.4-1.5,4.3c-0.4,1.8-0.1,3.4,1.2,4.8c0.6,0.7,1.3,1.3,2.2,2c0.9,0.7,1.8,1.3,2.8,1.8c1,0.5,2,0.8,2.8,0.8
		c0.9,0.1,1.6-0.3,2.2-0.9c1.5-1.9,2.6-3.4,3.4-4.5c0.8-1.1,1.5-2,1.9-2.7C351.9,121.5,352.1,120.2,351.9,118.8z"/>
	<path d="M348.9,157.3c-1.2-0.1-2.2,0.2-3,1c-0.5,0.5-0.7,0.9-0.8,1.3c-0.7,1.2-1.5,2.8-2.6,4.8c-1.1,2-2.3,3.8-3.6,5.5
		c-1.3,1.7-2.7,3.2-4.1,4.4c-1.4,1.2-2.7,1.5-3.9,1.1c-1.1-0.3-1.7-1.2-1.8-2.7c-0.1-1.5,0.1-3.2,0.7-5.3c0.6-2.1,1.3-4.3,2.3-6.7
		c1-2.4,2-4.7,3.1-6.9c1.1-2.2,2-4.1,2.9-5.8c0.9-1.7,1.6-2.9,2-3.7c0.7-1.2,1.1-2.3,1.3-3.2c0.2-0.9,0.2-1.6,0.1-2.2
		c-0.1-0.7-0.4-1.2-0.8-1.7c-1.5-1.7-3-3-4.7-4c-1.7-1-3-1.7-4-2c-0.6-0.2-1.1-0.2-1.5,0.2c-0.5,0.3-0.8,0.7-1.2,1.2
		c-0.4,0.4-0.8,1-1,1.7c-4,8.6-7.1,16.4-9.2,23.4c-0.1,0.5-0.2,0.9-0.4,1.4c0,0.1-0.1,0.2-0.2,0.3c-0.7,1.2-1.5,2.8-2.6,4.8
		c-1.1,2-2.3,3.8-3.6,5.6c-1.3,1.8-2.7,3.2-4.1,4.4c-1.4,1.1-2.8,1.5-4.1,1.2c-1.1-0.3-1.7-1.2-1.8-2.7c-0.1-1.5,0.2-3.2,0.7-5.3
		c0.5-2.1,1.3-4.3,2.3-6.7c1-2.4,2-4.7,3.1-6.9c1.1-2.2,2-4.1,2.9-5.8c0.9-1.7,1.6-2.9,2-3.7c0.7-1.2,1.1-2.3,1.3-3.2
		c0.2-0.9,0.2-1.6,0.1-2.2c-0.1-0.7-0.3-1.3-0.7-1.8c-1.6-1.6-3.2-2.8-4.9-3.9c-1.7-1-3-1.7-3.9-2c-0.6-0.2-1.1-0.2-1.5,0.2
		c-0.5,0.3-0.8,0.7-1.2,1.2c-0.4,0.4-0.8,1-1,1.7c-0.9,1.8-1.8,3.7-2.7,5.7c-0.8,1.8-1.6,3.8-2.5,6.1c-0.9,2.3-1.8,4.7-2.7,7.3
		c-0.3,0.9-1.1,2.6-2.3,5.2c-1.2,2.6-2.5,5.2-4,7.9c-1.5,2.7-3.1,5-4.9,7c-1.7,2-3.4,2.9-4.9,2.7c-0.4,0.1-0.8,0-1.2-0.3
		c-0.8-0.3-1.2-1.3-1.3-3c-0.2-1.2-0.1-2.7,0.3-4.5c0.4-1.8,0.8-3.1,1.1-4c0.8-2.6,1.5-5,2.3-7.3c0.7-2.3,1.5-4.5,2.3-6.6
		c0.3-0.7,0.7-1.5,1.1-2.5c0.4-1,0.8-2,1.3-2.8c0.4-0.9,0.9-1.9,1.4-3.1c0.5-1.2,0.9-1.9,1.1-2.1c0-0.1,0-0.2,0.1-0.2
		c0.1-0.1,0.1-0.1,0.1-0.2c0.8-1.5,1.2-2.7,1.2-3.9c0-0.4-0.1-0.8-0.2-1.2c-0.1-0.3-0.2-0.6-0.3-0.8c-0.2-0.3-0.4-0.6-0.5-0.7
		c-1.3-1.6-2.8-2.8-4.4-3.6c-1.6-0.8-2.9-1.4-3.8-1.6c-0.7-0.2-1.3-0.1-1.8,0.3c-0.5,0.4-0.9,0.9-1.1,1.3c-0.2,0.5-0.3,0.7-0.3,0.8
		c-0.1,0.1-0.2,0.2-0.2,0.3c-0.5,1.2-1,2.5-1.5,3.8c-0.6,1.2-1.1,2.7-1.8,4.3c-0.6,1.6-1.2,3.3-1.8,5.1c-0.2,0.4-0.4,0.9-0.4,1.3
		c-0.1,0.4-0.2,0.8-0.4,1.3c-0.3,1-0.8,2.2-1.3,3.7c-0.5,1.5-1,3-1.6,4.5c-0.4,1.6-0.9,3.3-1.3,5.1c-0.4,1.8-0.9,3.8-1.5,5.8
		c-0.3,1.3-0.6,3-0.9,4.9c-0.3,2-0.3,3.9-0.1,5.8c0.2,2.3,0.9,4.6,2.2,6.7c1.2,2.1,3.4,3.4,6.4,3.8h0.5c3.4,0.4,6.6-0.5,9.6-2.8
		c3.1-2.3,5.9-5.3,8.5-8.9c0.1,2.7,0.6,5.1,1.4,7.1c0.8,2.1,2.3,3.5,4.3,4.4c1,0.3,2.1,0.6,3.3,0.7c1,0.1,2.1,0.1,3.4-0.1
		c1.2-0.2,2.5-0.6,3.7-1.3c2-1.1,4-2.8,5.9-5c1.7-2,3.3-4.2,4.8-6.4c0,0.3-0.1,0.7,0,1.1c0.1,2.6,0.5,4.9,1.4,6.9
		c0.9,2,2.3,3.5,4.4,4.4c1,0.3,2.1,0.6,3.3,0.7c1,0.1,2.1,0.1,3.4-0.1c1.2-0.2,2.5-0.6,3.7-1.4c2-1.1,3.9-2.8,5.8-4.9
		c1.8-2.2,3.6-4.5,5.2-6.9c1.6-2.5,3.1-4.9,4.4-7.3c1.3-2.4,2.3-4.3,2.9-5.8c0.2-0.6,0.3-1.1,0.3-1.5
		C350.6,158.3,350.1,157.6,348.9,157.3z"/>
</g>
<g>
	<path d="M277.5,286.3c-1.1-0.6-2.3-0.9-3.7-1c-1.4-0.1-2.5-0.1-3.4,0c-1.4,0.2-3.6,0.6-6.6,1.3c-3,0.7-6.5,1.9-10.5,3.7
		c-4,1.8-8.3,4.2-12.8,7.2c-4.6,3.1-9.1,7-13.7,12c-3.4-0.6-6.6-1.4-9.5-2.3c-2.9-0.9-5.5-1.9-7.9-3c-2.4-1.1-4.4-2.1-6.1-3.1
		c-1.7-1-3-1.8-4-2.4c-1.4-0.8-2.6-0.9-3.5-0.4c-1,0.5-1.7,1.4-2.2,2.6c-0.4,1.4-0.5,2.5-0.3,3.4c0,0.5,0.1,1,0.3,1.5
		c0.6,2.9,1.6,5.4,2.9,7.5c1.4,2,3.1,3.7,5.1,5.1c2,1.4,4.3,2.4,6.8,3.1c2.5,0.7,5.1,1.2,7.9,1.5c-1.1,1.6-2.1,3.2-3,4.9
		c-0.9,1.7-1.9,3.5-2.9,5.4c-3.8,7.7-6.3,14.4-7.3,20.1c-1,5.7-1,10.6,0.1,14.5c1.1,4,3,7.2,5.8,9.6c2.8,2.4,5.9,4.2,9.5,5.2
		c3.6,1.1,7.4,1.6,11.5,1.5c4.1,0,8-0.6,11.7-1.5c0.8-0.2,1.5-0.4,2.2-0.6c0.7-0.2,1.4-0.4,2.2-0.7c3.2-1.2,6.2-2.6,8.9-4.3
		c2.7-1.7,5-3.4,7.2-5.2c2.1-1.8,3.9-3.6,5.5-5.4c1.5-1.8,2.8-3.5,3.9-4.9c0.2-0.4,0.4-0.7,0.7-1c0.3-0.3,0.5-0.6,0.7-1
		c1.5-2.4,2.7-4.6,3.5-6.9c0.9-2.2,1.6-4.2,2.1-6.1c0.5-1.8,0.8-3.3,1-4.6c0.1-1.2,0.2-2,0.2-2.3V339v-0.3c0.1-0.8,0-1.7-0.4-2.7
		c-0.3-1-1-1.5-2-1.4c-0.9,0.1-1.9,0.3-2.9,0.7c-1.1,0.3-2.1,0.8-3.1,1.4c-1,0.6-1.8,1.3-2.6,2.1c-0.7,0.8-1.2,1.7-1.4,2.7v1.2
		c0,0.4,0,0.8-0.1,1.3c-0.1,0.5-0.1,1-0.1,1.6c-0.1,0.7-0.2,1.5-0.4,2.4c-0.2,0.8-0.4,1.6-0.7,2.5c-0.3,0.9-0.7,1.9-1.2,2.9
		c-0.4,0.6-0.6,1-0.7,1.3c-2.9,5.2-5.9,9.3-9.2,12.2c-3.3,2.9-6.5,5-9.5,6.4c-3,1.4-5.8,2.2-8.3,2.4c-2.5,0.2-4.3,0.3-5.6,0.2
		c-0.8,0-2-0.1-3.7-0.4c-1.7-0.3-3.4-0.9-5.2-1.8c-1.8-0.9-3.5-2.3-5-4.1c-1.5-1.8-2.5-4.1-2.9-6.9c-0.4-2.9-0.2-6.4,0.8-10.6
		c1-4.2,3.1-9.2,6.3-15c1.4-2.7,2.9-5.2,4.5-7.5c1.6-2.4,3.3-4.6,4.9-6.8c2.9-0.3,5.5-0.7,8-1.2c2.5-0.5,4.7-1,6.6-1.5
		c2.3-0.5,4.4-1,6.3-1.6c4.9-1.6,9.1-3.3,12.5-5.3c3.4-2,6.2-4,8.5-6.1c0.4-0.4,0.8-0.8,1.2-1.1c0.4-0.3,0.7-0.7,1-1.1
		c0.1-0.2,0.3-0.4,0.6-0.7c2-2.6,3.3-5.2,4.1-7.8c0.8-2.7,0.8-5,0-6.9C279.5,288,278.6,287,277.5,286.3z M271.6,294.3
		c-0.5,0.8-1,1.6-1.6,2.4c-0.6,0.7-1.1,1.4-1.6,1.9c-0.5,0.5-0.8,0.9-0.9,1c-2,1.9-4.5,3.6-7.6,5.2c-3.1,1.6-6.9,2.9-11.4,3.9
		c-0.9,0.2-1.8,0.4-2.7,0.5c-0.9,0.1-1.8,0.3-2.7,0.5c3.8-3.6,7.5-6.7,11.1-9.2c3.5-2.5,6.7-4.4,9.4-5.9c2.8-1.5,4.9-2.4,6.5-2.9
		c1.6-0.4,2.3-0.4,2.2,0.1C272.3,292.7,272,293.5,271.6,294.3z"/>
	<path d="M372.2,352.1c-1.2-0.1-2.1,0.1-2.7,0.7c-0.4,0.4-0.6,0.8-0.7,1.2c-0.5,1.1-1.2,2.5-2.2,4.2c-1,1.7-2,3.4-3.2,4.9
		c-1.1,1.6-2.3,2.9-3.6,3.8c-1.3,1-2.5,1.3-3.5,1c-1-0.3-1.5-1.1-1.5-2.4c-0.1-1.3,0.1-2.8,0.6-4.6c0.4-1.8,1.1-3.8,2-5.9
		c0.9-2.1,1.8-4.1,2.7-6.1c0.9-1.9,1.8-3.6,2.6-5.1c0.8-1.5,1.4-2.6,1.8-3.3c0.6-1.1,1-2,1.1-2.8c0.1-0.8,0.2-1.4,0.1-1.9
		c-0.1-0.6-0.3-1.1-0.7-1.6c-1.1-1.3-2.3-2.3-3.5-3.1c-1.3-0.8-2.4-1.4-3.4-1.8c-1.8-0.9-3.7-0.7-5.8,0.7c-2.1,1.3-4.3,3.3-6.6,5.8
		c-2.3,2.6-4.5,5.5-6.7,8.8c-2.2,3.3-4.3,6.6-6.1,9.8c0.5-1.6,1-3,1.5-4.4c0.5-1.4,1-2.8,1.5-4.1c0.2-0.6,0.5-1.3,0.9-2.2
		c0.4-0.9,0.8-1.7,1.2-2.5c0.4-0.8,0.8-1.7,1.3-2.7c0.4-1,0.8-1.6,1-1.8c0-0.1,0-0.2,0.1-0.2c0,0,0.1-0.1,0.1-0.2
		c0.7-1.3,1-2.4,1-3.4c0-0.4-0.1-0.7-0.1-1c-0.1-0.3-0.2-0.5-0.3-0.7c-0.2-0.3-0.3-0.5-0.4-0.6c-1.2-1.4-2.5-2.4-3.9-3.2
		c-1.4-0.7-2.5-1.2-3.3-1.4c-0.6-0.2-1.1-0.1-1.6,0.3c-0.4,0.4-0.8,0.8-1,1.2c-0.2,0.4-0.3,0.6-0.3,0.7c-0.1,0.1-0.1,0.2-0.1,0.3
		c-0.4,1.1-0.8,2.2-1.3,3.4c-0.5,1.1-1,2.3-1.6,3.8c-0.5,1.4-1.1,2.9-1.5,4.5c-0.4,1-0.6,1.7-0.7,2.2c-0.2,0.7-0.6,1.6-0.9,2.6
		c-1.6,0.9-3.3,1.7-5.2,2.3c0.4-1.6,0.7-3.5,1-5.8c0.3-2.3,0.3-4.4,0.1-6.5c-0.2-2.1-0.9-3.9-2-5.5c-1.1-1.6-2.7-2.5-4.9-2.8
		c-1.4-0.2-2.7,0-3.9,0.4c-1.2,0.5-2.3,1.2-3.3,2.2c-2.6-1.6-5-1.9-7.2-0.9c-2.3,1-4.2,2.4-5.9,4.1c-2,2.1-3.8,4.7-5.5,7.8
		c-0.9,1.8-1.7,3.7-2.5,5.8c-0.7,1.8-1.3,3.8-1.9,6.1c-0.6,2.3-1,4.7-1.2,7.3c-0.2,2-0.2,4,0,6c0.2,2,0.6,3.9,1.3,5.6
		c0.6,1.7,1.5,3.2,2.6,4.4c1.1,1.2,2.5,2.1,4.3,2.6c3.2,0.9,6.1,0.5,8.9-1.1c2.8-1.6,5.3-3.8,7.6-6.6c2.3-2.8,4.3-5.7,6-8.9
		c1.7-3.2,3.1-6,4.2-8.3c1.8-0.3,3.6-0.8,5.3-1.4c-0.3,1.1-0.6,2.1-0.9,3.3c-0.5,2.1-1.1,4.2-1.6,6.4c-0.5,2.2-0.9,4.4-1.3,6.6
		c-0.4,2.2-0.6,4.3-0.7,6.1c-0.1,0.2-0.1,0.5,0,0.9c0,0.7,0.2,1.3,0.7,1.8c0.6,0.8,1.5,1.5,2.7,2.2c1.2,0.7,2.8,1.1,4.7,1.3
		c0.2,0,0.5-0.1,0.8-0.2c0.3-0.1,0.6-0.5,0.7-1.1c2.3-6.3,4.7-11.8,7.3-16.6c2.6-4.8,5.1-8.8,7.5-12c2.7-3.8,5.4-7.1,8.3-9.7
		l0.1-0.1c-1.2,3.1-2.4,6.5-3.7,10.3c-1.3,3.8-2.2,7.5-2.7,11.1c-0.5,3.6-0.5,6.9,0.1,9.7c0.5,2.9,2,4.8,4.5,5.9
		c0.9,0.3,1.9,0.5,2.9,0.6c0.9,0.1,1.9,0.1,3-0.1c1.1-0.1,2.2-0.5,3.2-1.1c1.8-1,3.5-2.5,5.1-4.4c1.6-2,3.2-4,4.6-6.2
		c1.4-2.2,2.7-4.3,3.8-6.3c1.1-2.1,2-3.7,2.6-5c0.2-0.6,0.3-1.1,0.3-1.5C373.7,352.8,373.2,352.2,372.2,352.1z M306.3,360
		c-1.2,2.4-2.5,4.4-3.9,6.2c-1.4,1.8-2.8,3.1-4.3,4.1c-1.5,1-2.9,1.3-4.1,0.9c-0.8-0.2-1.4-0.8-1.8-1.8c-0.4-0.8-0.6-2-0.7-3.5
		c-0.1-1.6,0.2-3.7,1-6.3c0.8-2.9,1.7-5.7,2.7-8.3c0.8-2.3,1.7-4.5,2.8-6.6c1.1-2.2,2.3-3.9,3.5-5.2c-0.2,2.1,0,4.1,0.7,6.1
		c0.6,2,1.8,3.6,3.5,5c1.3,1.1,2.6,1.8,4,2.2C308.7,355.2,307.6,357.6,306.3,360z M311.6,347.4c-0.4-0.1-0.9-0.3-1.5-0.7
		c-0.6-0.3-1.1-0.8-1.6-1.4c-0.5-0.6-0.9-1.3-1.2-2.1c-0.3-0.8-0.4-1.8-0.3-3c0.2-1.5,0.6-2.6,1.1-3.3c0.5-0.7,1.1-1.1,1.8-1.3
		c0.6-0.1,1.3,0,1.8,0.3c0.6,0.4,1,0.9,1.2,1.6C313.4,339.7,312.9,343,311.6,347.4z"/>
</g>
<g>
	<g>
		<path class="st0" d="M54.5,247.8c0-3.6,0.8-7.4,2.4-11.3c1.6-3.9,3.8-7.4,6.5-10.5c2.7-3.1,5.9-5.7,9.4-7.7c3.6-2,7.4-3,11.4-3
			h46.9c-2.2,2.9-4.4,5.6-6.7,8.1c-2.2,2.5-4.7,4.9-7.3,7.2H87.6c-1,0-2,0.3-3.1,1c-1.1,0.6-2.2,1.5-3.2,2.6c-1,1.1-2,2.3-2.8,3.6
			c-0.8,1.3-1.5,2.6-1.9,3.9c-0.6,2-0.9,3.5-0.9,4.7c0,1.4,0.4,3,1.1,4.6c0.8,1.6,1.7,3.1,2.9,4.5c1.2,1.4,2.5,2.5,3.9,3.4
			c1.4,0.9,2.7,1.4,4,1.4h27.2c-1.7,2.6-3.7,5.2-5.9,7.9c-2.2,2.7-4.7,5.2-7.6,7.4h-9.1c-4.7,0-9.3-0.4-13.8-1.3
			c-4.5-0.8-8.5-2.3-12-4.4c-3.6-2.1-6.4-4.9-8.6-8.5c-2.2-3.6-3.2-8.1-3.2-13.5V247.8z"/>
	</g>
	<g>
		<path class="st0" d="M137,215.4h50.7c2.6,0,4.7,0.6,6.3,1.7c1.6,1.1,2.9,2.6,3.8,4.3c0.9,1.7,1.5,3.6,1.9,5.7
			c0.3,2,0.5,3.9,0.5,5.7c0,3.9-0.9,7-2.8,9.5c-1.9,2.5-4.3,4.5-7.1,6c-2.8,1.5-6,2.5-9.4,3.2c-3.5,0.6-6.7,1.1-9.7,1.3l22.3,22.8
			H169l-23.4-21.6l-1.2,0.9l-7.5,20.7H115L137,215.4z M178.1,232.8c0-0.6-0.1-1.1-0.3-1.5c-0.2-0.4-0.8-0.6-1.7-0.6h-22.8l-6.5,17.7
			l10-10.1h18.2c1.1,0,1.9-0.5,2.4-1.5c0.5-1,0.7-1.9,0.7-2.7V232.8z"/>
	</g>
	<g>
		<path class="st0" d="M280.5,215.4c-0.5,1.1-1.4,2.4-2.7,4.1c-1.2,1.7-2.6,3.4-4,5.1s-2.8,3.1-4.1,4.3c-1.3,1.2-2.3,1.8-2.9,1.8
			h-35l-6.5,17.9l10.8-10.5h26.3l-16.3,15.3h-22.6l-2.5,6.8h43.5c-0.1,0.2-0.3,0.5-0.6,1c-0.3,0.5-0.6,1-0.9,1.5
			c-0.3,0.5-0.6,1-0.9,1.5c-0.3,0.5-0.5,0.7-0.6,0.8c-0.7,0.9-1.6,2-2.8,3.2c-1.2,1.2-2.3,2.4-3.5,3.5s-2.1,2-3,2.8
			c-0.9,0.8-1.3,1.1-1.4,1.1h-57.2l21.9-60.2H280.5z"/>
	</g>
	<g>
		<path class="st0" d="M324.1,275.7l-2.4-12.8c-0.2,0.5-0.7,1.3-1.6,2.6c-0.9,1.3-2,2.7-3.2,4.1c-1.2,1.4-2.3,2.8-3.5,4
			c-1.1,1.2-2,1.9-2.5,2.2h-48.1c0.2-0.6,0.2-0.9,0.2-0.8v-0.3l40.9-52.3c0.2-0.4,0.7-1.1,1.4-1.8c0.7-0.8,1.4-1.5,2.2-2.2
			c0.8-0.7,1.6-1.4,2.4-1.9c0.8-0.6,1.5-0.9,2-0.9H331c0.8,0,1.5,0.4,2.1,1.2c0.6,0.8,1.2,1.9,1.6,3.1c0.5,1.2,0.9,2.5,1.2,3.8
			c0.3,1.3,0.6,2.4,0.9,3.4l7.5,48.8H324.1z M298.6,260.4h23.1l-4-26.7l-19.1,25.6V260.4z"/>
	</g>
	<g>
		<path class="st0" d="M426.9,248.3c-3.1,4.9-6.3,9.1-9.6,12.6c-3.3,3.5-6.9,6.3-10.7,8.5c-3.9,2.2-8.1,3.8-12.8,4.8
			c-4.7,1-10,1.5-15.9,1.5h-28.3l21.9-60.2h49.4c4.5,0,7.8,1.2,9.9,3.8c2,2.5,3.1,5.7,3.1,9.5c0,3-0.6,6.2-1.7,9.6
			C431,241.8,429.3,245.1,426.9,248.3z M387.9,230.8l-10.8,29.6h3c1.8,0,3.9-0.4,6.4-1.2c2.4-0.8,4.9-1.8,7.3-3.1
			c2.4-1.3,4.7-2.7,6.7-4.4c2-1.6,3.6-3.3,4.7-4.9c0.4-0.6,0.9-1.3,1.5-2c0.6-0.8,1.1-1.6,1.5-2.6c0.5-1.2,0.9-2.4,1.4-3.5
			c0.5-1.1,0.7-2.2,0.7-3.2c0-1.3-0.3-2.4-0.9-3.2c-0.6-0.9-1.6-1.3-3-1.3H387.9z"/>
	</g>
	<g>
		<path class="st0" d="M507.3,255.7c-2.3,3.9-5.1,7.4-8.5,10.3c-3.4,3-7.2,5.3-11.4,7c-4.2,1.7-8.5,2.6-13,2.6h-11.4
			c-4.2,0-8-0.3-11.6-1c-3.6-0.7-6.6-1.8-9.2-3.5s-4.6-3.8-6.1-6.7c-1.5-2.8-2.2-6.3-2.2-10.6c0-0.9,0-1.9,0.1-2.8
			c0.1-1,0.2-2,0.3-3.1c0.6-4.2,2-8.3,4.2-12.3c2.2-3.9,4.9-7.4,8.2-10.4c3.3-3,6.8-5.4,10.7-7.2c3.9-1.8,7.9-2.7,11.9-2.7h15
			c9.2,0,16.1,1.6,20.9,4.7c4.7,3.1,7.1,8.4,7.1,15.6c0,2.3-0.2,4.7-0.7,7.3C511,247.5,509.6,251.7,507.3,255.7z M455.7,247.2v0.7
			c0,1.4,0.3,2.8,0.8,4.3c0.5,1.5,1.3,2.8,2.2,4c0.9,1.2,2,2.2,3.2,3c1.2,0.8,2.5,1.1,3.9,1.1h7.5c0.8,0,1.8-0.3,3.2-1
			c1.4-0.6,2.9-1.5,4.4-2.6c1.5-1.1,3-2.3,4.3-3.6c1.4-1.3,2.4-2.6,3.1-3.9c0.7-1.1,1.1-1.9,1.3-2.5l0.4-1.1c0.2-0.8,0.2-1.1,0.2-1
			c0.1-0.6,0.1-1.2,0.2-1.9c0-0.6,0.1-1.3,0.1-2c0-1.2-0.1-2.4-0.3-3.6c-0.2-1.2-0.7-2.3-1.4-3.2c-0.7-0.9-1.6-1.7-2.8-2.3
			c-1.2-0.6-2.7-0.9-4.6-0.9H472c-1.2,0-2.5,0.3-3.9,1c-1.4,0.6-2.8,1.5-4.1,2.6c-1.4,1.1-2.6,2.3-3.8,3.6c-1.2,1.3-2.1,2.6-2.8,3.9
			c-0.4,0.9-0.7,1.8-1,2.6c-0.3,0.8-0.5,1.5-0.6,2.1C455.7,246.5,455.7,246.8,455.7,247.2z"/>
	</g>
</g>
<g>
	<g>
		<path d="M262.6,469.2c0.1-0.5,0.2-1,0.4-1.5c0-0.1,0-0.1-0.1-0.2c-0.3-0.2-0.4-0.6-0.2-0.9c0.2-0.3,0.6-0.3,0.9,0
			c0.2,0.2,0.2,0.4,0.1,0.6c-0.1,0.2,0,0.2,0.1,0.3c0.4,0.2,0.7,0.5,1.1,0.7c0.1,0.1,0.2,0.1,0.1,0.3c-0.2,0.4-0.4,0.8-0.4,1.3
			c0,0.1,0,0.2,0.1,0.2c0.3,0.4,0.6,0.7,1,0.9c0.6,0.3,1.5-0.1,1.7-0.9c0.1-0.4,0.1-0.8,0.1-1.1c0-0.4-0.3-0.7-0.6-0.9
			c-0.4-0.3-0.9-0.5-1.3-0.8c0.1-0.6,0.3-1.2,0.5-1.8c-0.5-0.2-0.6-0.5-0.5-0.9c0.1-0.4,0.5-0.4,0.8-0.3c0.3,0.1,0.4,0.5,0.2,1
			c0.4,0.4,0.9,0.7,1.4,1c0.2,0.1,0.2,0.2,0.1,0.3c-0.3,0.5-0.5,1.1-0.5,1.7c0,0.1,0,0.1,0,0.2c0.4,0.6,0.8,1.2,1.4,1.6
			c0.8,0.4,1.7,0.1,2-0.7c0.2-0.4,0.3-0.8,0.3-1.2c0.1-0.9,0-1.8-0.2-2.7c0-0.2-0.3-0.4-0.4-0.5c-0.4-0.4-0.9-0.6-1.4-0.8
			c-0.1,0-0.2-0.1-0.1-0.3c0.2-0.6,0.3-1.3,0.5-1.9c0-0.1,0-0.2-0.1-0.2c-0.3-0.1-0.4-0.4-0.4-0.7c0-0.3,0.2-0.5,0.5-0.5
			c0.3,0,0.6,0.1,0.7,0.4c0.1,0.2,0.1,0.5-0.2,0.7c0.4,0.3,0.7,0.5,1.1,0.8c0.2,0.1,0.4,0.3,0.6,0.4c0.2,0.1,0.2,0.2,0.1,0.3
			c-0.3,0.5-0.4,1-0.5,1.6c-0.1,0.4,0.1,0.7,0.3,1c0.3,0.5,0.7,1.1,1.1,1.5c0.4,0.5,1,0.9,1.7,1c0.9,0.1,1.3-0.3,1.6-1.1
			c0.2-0.6,0.2-1.2,0.1-1.9c-0.1-0.9-0.2-1.7-0.4-2.6c-0.1-0.3-0.3-0.5-0.6-0.7c-0.5-0.4-1-0.7-1.6-0.8c0.1-0.4,0.2-0.7,0.3-1.1
			c0.1-0.4,0.2-0.8,0.2-1.2c0-0.1-0.1-0.2-0.2-0.2c-0.5-0.2-0.5-0.6-0.4-1c0.1-0.3,0.6-0.5,0.9-0.3c0.3,0.1,0.5,0.6,0.3,0.9
			c-0.1,0.2,0,0.4,0.1,0.4c0.5,0.4,1.1,0.7,1.6,1.1c0.1,0.1,0.1,0.1,0.1,0.3c-0.4,0.6-0.6,1.3-0.6,2c0,0.1,0,0.1,0,0.2
			c0.5,0.9,1.1,1.9,1.9,2.6c0.5,0.5,1.2,0.8,1.9,0.8c0.7,0,1.2-0.4,1.6-0.9c0.6-0.9,0.8-1.9,1-2.9c0.2-1,0.3-1.9,0.5-2.9
			c0-0.1-0.1-0.3-0.2-0.4c-0.6-0.8-1.4-1.5-2.3-2c0,0,0,0-0.1-0.1c0.9-0.8,1.8-1.7,2.5-2.7c-0.6-0.3-0.9-0.8-0.9-1.5
			c0-0.4,0.2-0.8,0.5-1c0.6-0.5,1.6-0.5,2.2,0.3c0.4,0.6,0.5,1.7-0.6,2.3c0.7,1,1.6,1.9,2.5,2.7c-0.3,0.2-0.5,0.3-0.8,0.5
			c-0.7,0.4-1.2,1-1.7,1.7c-0.1,0.1-0.1,0.3-0.1,0.4c0.2,1.2,0.4,2.3,0.6,3.4c0.2,0.7,0.4,1.5,0.8,2.1c0.7,1.1,1.9,1.3,3,0.7
			c0.8-0.5,1.4-1.3,1.9-2.1c0.1-0.2,0.2-0.5,0.4-0.7c0.3-0.4,0.3-0.7,0.1-1.1c-0.2-0.5-0.4-1-0.6-1.6c0.7-0.4,1.4-0.8,1.9-1.4
			c-0.3-0.5-0.2-0.9,0.2-1.1c0.4-0.2,0.8,0,1,0.3c0.2,0.4,0,0.8-0.6,1c0,0.8,0.3,1.6,0.5,2.4c-0.8,0.2-1.5,0.6-2.1,1.3
			c-0.1,0.2-0.2,0.4-0.2,0.6c-0.2,1.1-0.4,2.1-0.4,3.2c0,0.3,0,0.5,0.1,0.8c0.2,0.8,0.8,1.2,1.6,1.1c0.5,0,0.9-0.3,1.3-0.6
			c0.8-0.7,1.3-1.6,1.7-2.5c0.1-0.2,0-0.4,0-0.6c-0.1-0.5-0.2-1-0.5-1.5c-0.1-0.1-0.1-0.2,0.1-0.2c0.4-0.3,0.8-0.5,1.2-0.8
			c0.2-0.1,0.3-0.3,0.5-0.4c-0.3-0.5-0.2-0.9,0.2-1.1c0.3-0.1,0.7,0.1,0.8,0.4c0.1,0.4,0,0.8-0.5,0.9c0,0.8,0.3,1.5,0.5,2.2
			c-0.3,0.2-0.7,0.3-1,0.5c-0.3,0.2-0.7,0.5-0.9,0.8c-0.1,0.2-0.2,0.5-0.2,0.7c0,0.8-0.1,1.6-0.1,2.4c0,0.5,0.2,1,0.6,1.5
			c0.4,0.5,1.2,0.6,1.7,0.3c0.7-0.4,1.1-0.9,1.5-1.6c0-0.1,0-0.2,0-0.3c0-0.6-0.2-1.1-0.5-1.6c-0.1-0.1-0.1-0.2,0.1-0.3
			c0.4-0.3,0.9-0.6,1.3-0.9c0.1-0.1,0.1-0.2,0.1-0.3c0,0,0-0.1,0-0.1c-0.1-0.3,0.1-0.6,0.4-0.7c0.3-0.1,0.7,0,0.8,0.3
			c0.1,0.3,0,0.6-0.3,0.8c-0.2,0.1-0.2,0.2-0.1,0.4c0,0.3,0.1,0.5,0.2,0.8c0.1,0.3,0.2,0.5,0.3,0.8c-0.1,0-0.1,0.1-0.2,0.1
			c-0.7,0.2-1.2,0.6-1.6,1.1c0,0.1-0.1,0.1-0.1,0.2c0,0.6,0,1.1,0.2,1.6c0.3,0.6,1,0.8,1.6,0.6c0.5-0.2,0.8-0.5,1-1
			c0-0.1,0-0.2,0-0.3c-0.1-0.4-0.2-0.9-0.5-1.2c-0.1-0.2,0-0.2,0.1-0.3c0.4-0.3,0.8-0.5,1.2-0.8c0-0.2-0.1-0.3-0.1-0.5
			c0-0.3,0.1-0.5,0.4-0.6c0.3-0.1,0.5,0,0.7,0.3c0.1,0.2,0.1,0.5-0.1,0.7c-0.2,0.2-0.2,0.3-0.2,0.6c0.1,0.4,0.2,0.7,0.3,1.1
			c0,0.1,0.1,0.2-0.1,0.2c-0.4,0.1-0.8,0.3-1.1,0.6c-0.3,0.2-0.3,0.5-0.4,0.9c-0.2,1.2-0.7,2.3-1.3,3.3c-0.2,0.3-0.3,0.5-0.5,0.8
			c-0.1,0.1-0.1,0.2-0.3,0.1c-1.1-0.5-2.3-0.9-3.4-1.2c-1.1-0.3-2.2-0.5-3.3-0.7c-1-0.2-2-0.3-2.9-0.4c-0.9-0.1-1.8-0.2-2.7-0.2
			c-1.2-0.1-2.5-0.1-3.7-0.2c-1.3,0-2.6,0-3.9,0c-1.2,0-2.5,0.2-3.7,0.2c-0.7,0.1-1.3,0.1-2,0.2c-0.9,0.1-1.7,0.3-2.6,0.4
			c-0.9,0.2-1.9,0.4-2.8,0.6c-0.9,0.2-1.7,0.6-2.6,0.9c-0.2,0.1-0.4,0.2-0.6,0.3c-0.1,0.1-0.2,0-0.3-0.1c-0.3-0.6-0.7-1.1-1-1.6
			c-0.4-0.9-0.8-1.8-0.9-2.8c0-0.4-0.3-0.6-0.6-0.7c-0.3-0.2-0.6-0.3-0.9-0.4C262.7,469.2,262.6,469.2,262.6,469.2z M285,469.2
			c0-0.8-0.7-1.5-1.5-1.5c-0.8,0-1.5,0.7-1.6,1.5c0,0.8,0.7,1.5,1.5,1.5C284.3,470.7,285,470,285,469.2z M288.7,469.4
			c0-0.7-0.6-1.4-1.3-1.4c-0.8,0-1.4,0.6-1.4,1.4c0,0.7,0.6,1.3,1.4,1.3C288,470.7,288.7,470.1,288.7,469.4z M279.6,468
			c-0.7,0-1.3,0.6-1.3,1.4c0,0.7,0.6,1.3,1.3,1.3c0.8,0,1.4-0.6,1.4-1.3C281,468.6,280.3,468,279.6,468z M276.3,470.9
			c0.5,0,1-0.4,1-0.9c0-0.5-0.4-0.9-0.9-1c-0.5,0-1,0.4-1,0.9C275.4,470.4,275.7,470.9,276.3,470.9z M290.6,469c-0.5,0-1,0.4-1,0.9
			c0,0.5,0.4,1,1,1c0.5,0,0.9-0.4,1-1C291.5,469.4,291.1,469,290.6,469z M294,470.5c0-0.4-0.4-0.8-0.8-0.8c-0.4,0-0.8,0.3-0.9,0.8
			c0,0.4,0.4,0.8,0.8,0.8C293.6,471.4,294,471,294,470.5z M274.5,470.5c0-0.4-0.4-0.8-0.8-0.8c-0.4,0-0.9,0.4-0.8,0.8
			c0,0.5,0.3,0.8,0.8,0.8C274.1,471.4,274.5,471,274.5,470.5z M272.1,471.3c0-0.4-0.3-0.6-0.6-0.7c-0.3,0-0.7,0.3-0.7,0.7
			c0,0.3,0.3,0.7,0.7,0.7C271.8,472,272.1,471.7,272.1,471.3z M296.1,471.3c0-0.3-0.3-0.7-0.6-0.7c-0.4,0-0.7,0.3-0.7,0.7
			c0,0.3,0.3,0.6,0.7,0.6C295.8,472,296.1,471.6,296.1,471.3z M297.2,472.6c0.3,0,0.5-0.2,0.5-0.5c0-0.3-0.2-0.6-0.5-0.6
			c-0.3,0-0.6,0.2-0.6,0.5C296.6,472.4,296.9,472.6,297.2,472.6z M269.7,471.5c-0.3,0-0.5,0.3-0.5,0.5c0,0.4,0.3,0.6,0.5,0.6
			c0.3,0,0.5-0.3,0.5-0.6C270.3,471.8,270,471.5,269.7,471.5z"/>
	</g>
	<g>
		<path d="M285.6,476.8c-1,0-2.1,0-3.1,0c-1.2,0-2.3,0.1-3.5,0.2c-1,0.1-2,0.2-3,0.4c-1.5,0.2-2.9,0.5-4.4,0.8
			c-1.1,0.2-2.3,0.6-3.4,0.8c-0.8,0.2-1.7-0.1-2-0.8c-0.4-0.7-0.2-1.6,0.4-2.1c0.4-0.4,0.9-0.5,1.4-0.6c1-0.2,1.9-0.5,2.9-0.7
			c1.2-0.3,2.4-0.5,3.7-0.7c0.9-0.1,1.7-0.3,2.6-0.4c0.6-0.1,1.2-0.1,1.9-0.2c1.6-0.1,3.2-0.1,4.9-0.2c1.2,0,2.4,0,3.6,0.1
			c1.2,0.1,2.4,0.2,3.6,0.4c1.1,0.1,2.2,0.3,3.2,0.5c1.2,0.2,2.5,0.5,3.7,0.8c0.6,0.1,1.3,0.3,1.8,0.6c0.8,0.3,1.2,1.2,1,1.9
			c-0.2,0.8-0.9,1.4-1.8,1.3c-0.4,0-0.8-0.1-1.2-0.2c-0.6-0.1-1.2-0.3-1.9-0.5c-1.1-0.2-2.1-0.5-3.2-0.7c-0.7-0.1-1.4-0.2-2.1-0.3
			c-1.3-0.1-2.6-0.3-3.9-0.4C286.5,476.9,286,476.9,285.6,476.8C285.6,476.8,285.6,476.8,285.6,476.8z"/>
	</g>
	<g>
		<path d="M283.3,478.8c-1.3,0.1-2.3,0.1-3.3,0.1c-1.8,0.1-3.5,0.3-5.2,0.6c-1.7,0.3-3.3,0.7-5,1c-0.3,0.1-0.5,0.1-0.8,0.2
			c-0.4,0.1-0.7-0.1-0.8-0.4c-0.1-0.3,0.1-0.6,0.5-0.7c1.1-0.3,2.1-0.6,3.2-0.8c0.9-0.2,1.8-0.4,2.7-0.5c1-0.2,1.9-0.3,2.9-0.4
			c1.3-0.1,2.5-0.3,3.8-0.3c1.1-0.1,2.3,0,3.4,0c0.9,0,1.8,0,2.7,0.1c0.9,0.1,1.7,0.2,2.6,0.3c0.9,0.1,1.8,0.2,2.6,0.4
			c1.1,0.2,2.2,0.4,3.3,0.7c0.7,0.2,1.5,0.3,2.2,0.5c0.3,0.1,0.6,0.1,0.7,0.4c0.1,0.2,0.1,0.5,0,0.6c-0.2,0.2-0.4,0.3-0.6,0.2
			c-1.2-0.3-2.4-0.6-3.6-0.9c-0.6-0.1-1.2-0.2-1.8-0.3c-0.9-0.2-1.8-0.3-2.8-0.4c-0.9-0.1-1.8-0.2-2.7-0.3
			C285.8,478.9,284.4,478.9,283.3,478.8z"/>
	</g>
</g>
<g>
	<path class="st0" d="M381.3,455.5c-7.6-1.8-15.3-3.3-23-4.7C363.2,451.9,375.4,454.3,381.3,455.5z"/>
	<path class="st0" d="M483.5,441.4c-22.2-11.1-40.2-18.5-58.8-24c-4.7,15.3-9.5,30.7-14.2,46l-56.7-0.2
		c42.1,7.1,64.1,12.5,102.7,31.9l-13.3-39.7L483.5,441.4z"/>
	<polygon class="st0" points="356,450.5 353.9,463.2 356,450.5 	"/>
	<path class="st0" d="M156.2,463.4c-4.7-15.3-9.4-30.7-14.2-46c-18.5,5.6-36.6,12.9-58.7,24l40.2,14l-13.3,39.7
		c38.6-19.4,60.6-24.7,102.8-31.9C213.1,463.2,156.1,464.7,156.2,463.4z"/>
	<path class="st0" d="M184.8,455.7c5.8-1.2,19.9-4,24.5-5C201.2,452.1,193,453.8,184.8,455.7z"/>
	<polygon class="st0" points="213.1,463.2 210.9,450.5 210.9,450.5 	"/>
	<path class="st1" d="M381.3,455.5c-5.9-1.2-18.1-3.7-23-4.7c-0.7-0.1-1.5-0.2-2.2-0.4l-2.1,12.7l56.7,0.2
		C400.9,460.4,391.1,457.8,381.3,455.5z"/>
	<path class="st1" d="M209.4,450.7c-4.6,0.9-18.8,3.7-24.5,5c-9.6,2.2-19.2,4.8-28.6,7.7c-0.1,1.3,56.9-0.2,56.9-0.2l-2.1-12.7
		C210.4,450.5,209.9,450.6,209.4,450.7z"/>
	<path class="st0" d="M358.3,450.9c7.7,1.4,15.4,2.9,23,4.7c9.8,2.3,19.6,4.9,29.3,7.9c4.7-15.3,9.4-30.7,14.2-46
		c1.2-3.8,2.3-7.6,3.5-11.3c-94.4-29-195.3-29-289.7,0c1.2,3.8,2.3,7.6,3.5,11.4c4.7,15.3,9.4,30.7,14.2,46c9.5-2.9,19-5.4,28.6-7.7
		c8.1-1.9,16.3-3.5,24.5-5c0.5-0.1,1-0.2,1.5-0.3c0,0,0,0,0,0c48-8.2,97.1-8.2,145.1,0c0,0,0,0,0,0
		C356.8,450.6,357.5,450.7,358.3,450.9z"/>
</g>
<g>
	<g>
		<path class="st2" d="M179.4,445.1c-3.5-12.7-5.2-19-8.7-31.7c5.3-1.5,8-2.1,13.4-3.4c6.3-1.5,9.2,2.7,10.2,7.2
			c0.6,2.7,0.5,6-1.5,8.3c-1.7,1.9-4.2,3-6.6,3.6c-1.7,0.4-2.5,0.6-4.2,1.1c1.4,5.3,2.1,8,3.4,13.3
			C183,444.1,181.8,444.5,179.4,445.1z M180.8,425.5c1.4-0.3,2-0.5,3.4-0.9c2.8-0.7,4.4-2.2,3.5-6.1c-0.9-3.7-2.6-3.9-6.2-2.9
			c-1.2,0.3-1.8,0.4-3,0.7C179.4,420,179.9,421.9,180.8,425.5z"/>
		<path class="st2" d="M206.9,424.2c1.1,5.6,1.6,8.3,2.7,13.9c-2.4,0.5-3.7,0.7-6.1,1.2c-2.7-12.9-4-19.3-6.7-32.2
			c5-1,7.5-1.5,12.5-2.4c5.7-1,10.4,0.2,11.3,6.1c0.5,3.5,0.1,7.4-4.1,8.7c0,0,0,0.1,0,0.1c3.9-0.2,5.4,2,5.8,5.1
			c0.2,1.3,1.2,9.3,2.9,10.1c0,0.2,0.1,0.4,0.1,0.6c-2.7,0.4-4.1,0.6-6.8,1.1c-1.1-1.9-1.6-5.9-2-8.1c-0.4-2-0.8-4.7-3.1-4.9
			c-1.8-0.2-3.7,0.2-5.5,0.5C207.5,424.1,207.3,424.2,206.9,424.2z M206,419.5c2-0.4,3-0.6,5-0.9c2.1-0.5,3.5-2.1,3-5.3
			c-0.6-3.6-2.4-4-4.8-3.6c-1.9,0.3-2.9,0.5-4.9,0.9C204.9,414.2,205.3,415.9,206,419.5z"/>
		<path class="st2" d="M227.4,415.9c-0.9-8.3-1-14.7,9.7-15.9s12,5.1,12.9,13.4c0.2,1.9,0.2,2.8,0.4,4.7c0.7,8.7,0.6,15-9.6,16.1
			c-10.1,1.1-11.6-5-12.8-13.7C227.7,418.7,227.6,417.8,227.4,415.9z M234.9,422.7c0.3,2.7,1.1,7,5.4,6.6c4.5-0.5,4.1-5,3.8-8.1
			c-0.3-3.3-0.5-5-0.8-8.4c-0.3-2.6-0.7-8.5-5.6-7.9c-5.2,0.6-4.1,6.2-3.8,8.8C234.3,417.3,234.5,419.1,234.9,422.7z"/>
		<path class="st2" d="M257.2,432c-0.9-13.1-1.3-19.7-2.2-32.8c5.5-0.4,8.2-0.5,13.7-0.7c6.4-0.2,8.5,4.5,8.5,9.1
			c0,2.8-0.7,6-3.1,7.9c-2,1.6-4.7,2.1-7.1,2.2c-1.7,0.1-2.6,0.1-4.3,0.2c0.3,5.5,0.4,8.2,0.7,13.7
			C260.9,431.7,259.7,431.8,257.2,432z M262.4,413.1c1.4-0.1,2.1-0.1,3.5-0.2c2.8-0.1,4.7-1.3,4.6-5.3c-0.1-3.8-1.8-4.3-5.5-4.1
			c-1.2,0.1-1.8,0.1-3,0.1C262.1,407.4,262.2,409.3,262.4,413.1z"/>
		<path class="st2" d="M281.4,412c0.2-8.4,0.9-14.7,11.7-14.5c10.8,0.2,11.2,6.6,11.1,15c-0.1,1.9-0.1,2.8-0.2,4.7
			c-0.4,8.7-1.4,15-11.6,14.8c-10.2-0.2-10.9-6.5-10.9-15.2C281.4,414.9,281.4,413.9,281.4,412z M288,419.8c0,2.7,0.2,7.1,4.4,7.2
			c4.5,0.1,4.7-4.4,4.8-7.5c0.1-3.5,0.2-5.3,0.3-8.8c0.1-2.8,0.1-8-4.5-8.1c-4.5-0.1-4.8,4.2-4.9,7c0,0.5,0,0.7,0,1.2
			C288.1,414.3,288,416.2,288,419.8z M293.7,389.1c3,0.1,4.6,0.1,7.6,0.2c-3,2.4-4.5,3.7-7.4,6.2c-1.9,0-2.9-0.1-4.9-0.1
			C290.9,392.9,291.8,391.6,293.7,389.1z"/>
		<path class="st2" d="M323.7,410.1c0.3-2.9,0.3-5.8-3.3-6.1c-2.2-0.2-3.7,0.5-3.9,2.8c-0.2,2.5,1.4,3.6,3.4,5
			c2,1.5,5.7,4.3,7.3,6.1c2,2.3,2.4,4.3,2.1,7.1c-0.7,6.2-5.2,8.9-11.2,8.4c-7.4-0.6-9.8-4.8-9.4-10.7c0.1-1,0.1-1.4,0.1-2.4
			c2.5,0.2,3.8,0.2,6.4,0.4c-0.1,0.8-0.1,1.2-0.1,1.9c-0.4,3.2,0.4,5.6,3.5,5.8c2.6,0.2,4-1,4.3-3.5c0.2-1.9-0.6-3.3-2.1-4.6
			c-3.1-2.8-7.1-4.9-9.6-8.3c-1-1.6-1.5-3.4-1.4-5.1c0.3-5.6,4-8.5,11.1-7.9c10.7,0.9,9.6,8.5,9.2,11.7
			C327.4,410.5,326.2,410.4,323.7,410.1z"/>
		<path class="st2" d="M333.4,434.2c1.6-13,2.5-19.6,4.1-32.6c2.7,0.3,4,0.5,6.7,0.9c-1.8,13-2.8,19.5-4.6,32.5
			C337.1,434.7,335.9,434.5,333.4,434.2z"/>
		<path class="st2" d="M348.3,403.1c8.9,1.3,13.3,2.1,22.1,4c-0.4,1.9-0.6,2.8-1,4.7c-3-0.6-4.6-0.9-7.6-1.5
			c-2.1,11-3.1,16.5-5.2,27.5c-2.4-0.5-3.7-0.7-6.1-1.1c1.9-11.1,2.8-16.6,4.7-27.6c-3.1-0.5-4.6-0.8-7.7-1.2
			C347.9,406,348,405,348.3,403.1z"/>
		<path class="st2" d="M371.2,421.3c2-8.1,4.1-14.2,14.6-11.6c10.5,2.6,9.6,8.9,7.6,17c-0.5,1.8-0.7,2.7-1.2,4.5
			c-2.3,8.4-4.6,14.3-14.6,11.9c-9.9-2.4-9.3-8.7-7.4-17.3C370.6,424.1,370.8,423.1,371.2,421.3z M376,430.3c-0.6,2.6-1.4,7,2.8,8
			c4.4,1.1,5.5-3.3,6.3-6.3c0.8-3.3,1.3-4.9,2.1-8.1c0.7-2.5,2.2-8.2-2.6-9.4c-5.1-1.2-6,4.5-6.6,6.9
			C377.2,425,376.8,426.8,376,430.3z"/>
	</g>
</g>
<g>
	<g>
		<path d="M423.5,362.5c0,4.2-9.9,8.1-16.1,8.1c-12.8,0-15.7-3.2-15.7-6.4s6.4-5.2,15.9-5.2C417.1,359.1,423.5,360.4,423.5,362.5z"
			/>
	</g>
	<g>
		<path d="M409,343.4c-0.6-0.2-8.4,1.4-11.7,5.5c-4.8,6-7.4,11.3-5.8,12.8c1.8,1.8,13.6-4,14.5-5.4
			C406.7,355.3,410.4,343.9,409,343.4z"/>
	</g>
	<g>
		<path d="M421.6,330.9c-1.3-0.4-5.1,3.4-8.4,7.5c-2.2,2.7-3.9,15-3,15.7c2,1.5,9.9-4,11.7-8.3C424.4,340,423,331.3,421.6,330.9z"/>
	</g>
	<g>
		<path d="M428.2,314.5c-1.4,0-3.7,6.6-4.7,11.8c-1.3,7.1,1.7,16.1,2.7,16.3c2.5,0.6,7-7.2,7-14C433.2,319.2,430,314.5,428.2,314.5z
			"/>
	</g>
	<g>
		<path d="M440.4,307.3c-1.4,0-2.7,3.5-3.6,8.7c-1.3,7.1-1.2,11.5-0.2,11.8c2.5,0.6,6.9-3.9,6.9-10.7
			C443.5,311.6,442.2,307.3,440.4,307.3z"/>
	</g>
	<g>
		<path d="M451.9,321.4c1,1.4-0.4,9.1-7.5,18.1c-4.4,5.5-15.4,5.6-15.8,4.7c-0.3-0.6,2.7-7.9,9.4-14.8
			C446.7,320.5,451.9,321.4,451.9,321.4z"/>
	</g>
	<g>
		<path d="M440.7,345.2c0.5,1.6-1.5,5.4-10.8,12.1c-5.1,3.7-18.1,2.1-18.1,1.2c-0.1-0.7,1.7-4.9,10.1-9.5
			C432.7,343.1,440.7,345.2,440.7,345.2z"/>
	</g>
</g>
<g>
	<g>
		<path d="M157.6,363.2c0,4.2,9.9,8.1,16.1,8.1c12.8,0,15.7-3.2,15.7-6.4c0-3.1-6.4-5.2-15.9-5.2C164,359.8,157.6,361.1,157.6,363.2
			z"/>
	</g>
	<g>
		<path d="M172.2,344.2c0.6-0.2,8.4,1.4,11.7,5.5c4.8,6,7.4,11.3,5.8,12.8c-1.8,1.8-13.6-4-14.5-5.4
			C174.5,356,170.8,344.6,172.2,344.2z"/>
	</g>
	<g>
		<path d="M159.6,331.6c1.3-0.4,5.1,3.4,8.4,7.5c2.2,2.7,3.9,15,3,15.7c-2,1.5-9.9-4-11.7-8.3C156.8,340.7,158.2,332,159.6,331.6z"
			/>
	</g>
	<g>
		<path d="M153,315.2c1.4,0,3.7,6.6,4.7,11.8c1.3,7.1-1.7,16.1-2.7,16.3c-2.5,0.6-7-7.2-7-14C147.9,319.9,151.1,315.2,153,315.2z"/>
	</g>
	<g>
		<path d="M140.8,308c1.4,0,2.7,3.5,3.6,8.7c1.3,7.1,1.2,11.5,0.2,11.8c-2.5,0.6-6.9-3.9-6.9-10.7C137.7,312.3,139,308,140.8,308z"
			/>
	</g>
	<g>
		<path d="M129.3,322.1c-1,1.4,0.4,9.1,7.5,18.1c4.4,5.5,15.4,5.6,15.8,4.7c0.3-0.6-2.7-7.9-9.4-14.8
			C134.5,321.2,129.3,322.1,129.3,322.1z"/>
	</g>
	<g>
		<path d="M140.5,345.9c-0.5,1.6,1.5,5.4,10.8,12.1c5.1,3.7,18.1,2.1,18.1,1.2c0.1-0.7-1.7-4.9-10.1-9.5
			C148.5,343.8,140.5,345.9,140.5,345.9z"/>
	</g>
</g>
<g>
	<g>
		<polygon points="259,495.9 261.2,500.4 266.3,501.1 262.6,504.7 263.5,509.7 259,507.3 254.5,509.7 255.3,504.7 251.7,501.1 
			256.7,500.4 		"/>
	</g>
	<g>
		<polygon points="283.5,495.9 285.7,500.4 290.7,501.1 287.1,504.7 288,509.7 283.5,507.3 279,509.7 279.8,504.7 276.2,501.1 
			281.2,500.4 		"/>
	</g>
	<g>
		<polygon points="234.5,495.9 236.8,500.4 241.8,501.1 238.1,504.7 239,509.7 234.5,507.3 230,509.7 230.9,504.7 227.2,501.1 
			232.3,500.4 		"/>
	</g>
	<g>
		<polygon points="307.9,495.9 310.2,500.4 315.2,501.1 311.6,504.7 312.4,509.7 307.9,507.3 303.4,509.7 304.3,504.7 300.7,501.1 
			305.7,500.4 		"/>
	</g>
	<g>
		<polygon points="332.4,495.9 334.7,500.4 339.7,501.1 336.1,504.7 336.9,509.7 332.4,507.3 327.9,509.7 328.8,504.7 325.1,501.1 
			330.2,500.4 		"/>
	</g>
</g>
<g>
	<g>
		<path d="M395.7,118.8c0,0-0.1,0-0.1,0c-0.6-0.1-1-0.6-0.9-1.2l4.3-31.8c0.1-0.6,0.6-1,1.2-0.9c0.6,0.1,1,0.6,0.9,1.2l-4.3,31.8
			C396.7,118.4,396.3,118.8,395.7,118.8z"/>
	</g>
	<g>
		<path d="M409,123.5c-0.2,0-0.4-0.1-0.6-0.2c-0.5-0.3-0.6-1-0.3-1.5l15.8-24.3c0.3-0.5,1-0.6,1.5-0.3c0.5,0.3,0.6,1,0.3,1.5
			L410,123C409.7,123.3,409.4,123.5,409,123.5z"/>
	</g>
	<g>
		<path d="M415.4,128.4c-0.3,0-0.5-0.1-0.8-0.3c-0.4-0.4-0.5-1.1,0-1.5l21.5-22.4c0.4-0.4,1.1-0.4,1.5,0c0.4,0.4,0.5,1.1,0,1.5
			l-21.5,22.4C415.9,128.3,415.6,128.4,415.4,128.4z"/>
	</g>
	<g>
		<path d="M420.6,134.9c-0.3,0-0.7-0.2-0.9-0.5c-0.3-0.5-0.2-1.2,0.3-1.5l21-15c0.5-0.4,1.2-0.2,1.5,0.3c0.3,0.5,0.2,1.2-0.3,1.5
			l-21,15C421,134.9,420.8,134.9,420.6,134.9z"/>
	</g>
	<g>
		<path d="M423.1,140.4c-0.4,0-0.8-0.3-1-0.7c-0.2-0.6,0-1.2,0.6-1.4l27.3-11.2c0.5-0.2,1.2,0,1.4,0.6c0.2,0.6,0,1.2-0.6,1.4
			l-27.3,11.2C423.4,140.4,423.3,140.4,423.1,140.4z"/>
	</g>
	<g>
		<path d="M425.9,147.1c-0.5,0-1-0.4-1.1-0.9c-0.1-0.6,0.3-1.2,0.9-1.3l31.2-5.2c0.6-0.1,1.2,0.3,1.3,0.9c0.1,0.6-0.3,1.2-0.9,1.3
			l-31.2,5.2C426,147.1,426,147.1,425.9,147.1z"/>
	</g>
	<g>
		<path d="M451.5,156.8C451.5,156.8,451.4,156.8,451.5,156.8l-27.3-1.3c-0.6,0-1.1-0.5-1-1.1c0-0.6,0.5-1,1.1-1c0,0,0,0,0.1,0
			l27.3,1.3c0.6,0,1.1,0.5,1,1.1C452.5,156.4,452.1,156.8,451.5,156.8z"/>
	</g>
	<g>
		<path d="M453.9,169.7c-0.1,0-0.2,0-0.3,0l-30-7.9c-0.6-0.2-0.9-0.8-0.8-1.3c0.2-0.6,0.8-0.9,1.3-0.8l30,7.9
			c0.6,0.2,0.9,0.8,0.8,1.3C454.8,169.4,454.4,169.7,453.9,169.7z"/>
	</g>
	<g>
		<path d="M451.4,183.2c-0.2,0-0.3,0-0.5-0.1L421,168.2c-0.5-0.3-0.8-0.9-0.5-1.5c0.3-0.5,0.9-0.8,1.5-0.5l29.9,14.9
			c0.5,0.3,0.8,0.9,0.5,1.5C452.2,183,451.8,183.2,451.4,183.2z"/>
	</g>
	<g>
		<path d="M438.2,192.3c-0.2,0-0.5-0.1-0.7-0.3l-20.7-17.2c-0.5-0.4-0.5-1.1-0.1-1.5c0.4-0.5,1.1-0.5,1.5-0.1l20.7,17.2
			c0.5,0.4,0.5,1.1,0.1,1.5C438.9,192.2,438.6,192.3,438.2,192.3z"/>
	</g>
	<g>
		<path d="M433.1,203.9c-0.3,0-0.6-0.1-0.8-0.4l-20.4-23.9c-0.4-0.5-0.3-1.1,0.1-1.5c0.5-0.4,1.1-0.3,1.5,0.1l20.4,23.9
			c0.4,0.5,0.3,1.1-0.1,1.5C433.6,203.8,433.3,203.9,433.1,203.9z"/>
	</g>
	<g>
		<path d="M403.4,121.4c-0.1,0-0.3,0-0.4-0.1c-0.6-0.2-0.8-0.8-0.6-1.4l9.1-24c0.2-0.6,0.8-0.8,1.4-0.6c0.6,0.2,0.8,0.8,0.6,1.4
			l-9.1,24C404.3,121.1,403.9,121.4,403.4,121.4z"/>
	</g>
</g>
<g>
	<g>
		<path d="M185,117.9c-0.5,0-1-0.4-1.1-0.9l-4.5-31.8c-0.1-0.6,0.3-1.2,0.9-1.2c0.6-0.1,1.1,0.3,1.2,0.9l4.5,31.8
			c0.1,0.6-0.3,1.2-0.9,1.2C185.1,117.9,185.1,117.9,185,117.9z"/>
	</g>
	<g>
		<path d="M171.1,122.5c-0.3,0-0.7-0.2-0.9-0.5l-16.5-24.3c-0.3-0.5-0.2-1.2,0.3-1.5c0.5-0.3,1.2-0.2,1.5,0.3l16.5,24.3
			c0.3,0.5,0.2,1.2-0.3,1.5C171.5,122.4,171.3,122.5,171.1,122.5z"/>
	</g>
	<g>
		<path d="M164.5,127.5c-0.3,0-0.6-0.1-0.8-0.3l-22.5-22.4c-0.4-0.4-0.4-1.1,0-1.5c0.4-0.4,1.1-0.4,1.5,0l22.5,22.4
			c0.4,0.4,0.4,1.1,0,1.5C165.1,127.4,164.8,127.5,164.5,127.5z"/>
	</g>
	<g>
		<path d="M159,134c-0.2,0-0.4-0.1-0.6-0.2l-22-15c-0.5-0.3-0.6-1-0.3-1.5c0.3-0.5,1-0.6,1.5-0.3l22,15c0.5,0.3,0.6,1,0.3,1.5
			C159.7,133.8,159.4,134,159,134z"/>
	</g>
	<g>
		<path d="M156.4,139.5c-0.1,0-0.3,0-0.4-0.1l-28.6-11.2c-0.6-0.2-0.8-0.9-0.6-1.4c0.2-0.6,0.9-0.8,1.4-0.6l28.6,11.2
			c0.6,0.2,0.8,0.9,0.6,1.4C157.2,139.2,156.8,139.5,156.4,139.5z"/>
	</g>
	<g>
		<path d="M153.5,146.2c-0.1,0-0.1,0-0.2,0l-32.6-5.2c-0.6-0.1-1-0.7-0.9-1.3c0.1-0.6,0.7-1,1.3-0.9l32.6,5.2c0.6,0.1,1,0.7,0.9,1.3
			C154.5,145.8,154,146.2,153.5,146.2z"/>
	</g>
	<g>
		<path d="M126.7,155.9c-0.6,0-1.1-0.5-1.1-1c0-0.6,0.4-1.1,1-1.1l28.5-1.3c0,0,0,0,0,0c0.6,0,1.1,0.5,1.1,1c0,0.6-0.4,1.1-1,1.1
			L126.7,155.9C126.7,155.9,126.7,155.9,126.7,155.9z"/>
	</g>
	<g>
		<path d="M124.2,168.8c-0.5,0-0.9-0.3-1.1-0.8c-0.1-0.6,0.2-1.2,0.8-1.3l31.4-7.9c0.6-0.2,1.2,0.2,1.3,0.8c0.1,0.6-0.2,1.2-0.8,1.3
			l-31.4,7.9C124.4,168.7,124.3,168.8,124.2,168.8z"/>
	</g>
	<g>
		<path d="M126.8,182.3c-0.4,0-0.8-0.2-1-0.6c-0.3-0.5,0-1.2,0.5-1.5l31.3-14.9c0.5-0.3,1.2,0,1.5,0.5c0.3,0.5,0,1.2-0.5,1.5
			l-31.3,14.9C127.1,182.3,126.9,182.3,126.8,182.3z"/>
	</g>
	<g>
		<path d="M140.6,191.4c-0.3,0-0.6-0.1-0.9-0.4c-0.4-0.5-0.3-1.2,0.2-1.5l21.6-17.2c0.5-0.4,1.2-0.3,1.5,0.2
			c0.4,0.5,0.3,1.2-0.2,1.5l-21.6,17.2C141,191.3,140.8,191.4,140.6,191.4z"/>
	</g>
	<g>
		<path d="M146,203c-0.3,0-0.5-0.1-0.7-0.3c-0.5-0.4-0.5-1.1-0.1-1.5l21.4-23.9c0.4-0.5,1.1-0.5,1.5-0.1c0.5,0.4,0.5,1.1,0.1,1.5
			l-21.4,23.9C146.6,202.9,146.3,203,146,203z"/>
	</g>
	<g>
		<path d="M177,120.4c-0.4,0-0.8-0.3-1-0.7l-9.5-24c-0.2-0.6,0-1.2,0.6-1.4c0.6-0.2,1.2,0.1,1.4,0.6l9.5,24c0.2,0.6,0,1.2-0.6,1.4
			C177.2,120.4,177.1,120.4,177,120.4z"/>
	</g>
</g>
</svg>
