<?xml version="1.0" encoding="utf-8"?>
<!-- Generator: Adobe Illustrator 25.3.0, SVG Export Plug-In . SVG Version: 6.00 Build 0)  -->
<svg version="1.1" id="Capa_1" xmlns="http://www.w3.org/2000/svg" xmlns:xlink="http://www.w3.org/1999/xlink" x="0px" y="0px"
	 viewBox="0 0 566.9 566.9" style="enable-background:new 0 0 566.9 566.9;" xml:space="preserve">
<style type="text/css">
	.st0{fill:#E0358B;}
	.st1{fill:#020203;}
</style>
<g>
	<g>
		<g>
			<path class="st0" d="M314.7,67.8c-0.9,0-1.4-0.4-1.6-1.3c-1.3-8.5-4.6-16-9.9-22.3c-0.7-0.8-1.4-1.5-2.1-2.3l-1.8-1.9l1.2-0.6
				c1.5-0.7,4.1-0.6,5.8,0.3c1.1,0.5,2,1.3,2.8,2.3c0.9-2.3,3.1-3.4,5.7-2.9c0.6,0.1,1.2,0.3,1.9,0.6c1.1,0.5,1.9,1.4,2.1,2.6
				c0.3,1.9-0.3,3.6-1,4.9l-0.4,0.8l-1.2-0.5l-0.3-0.4c-0.4-0.8-0.7-1-1.6-0.8c-1.1,0.2-1.3,0.7-1.4,1.4c0,1.8,0.7,3.3,2.2,4.9
				c1.3,1.3,2.7,1.9,4.3,1.8c0.9,0,1.6-0.4,2.2-1.2c1-1.3,1.3-3,1.5-4.5c0.1-0.6,0.1-1.2,0.1-1.8l0.3-4.6l1.9,3.9
				c1.2,2.6,2.5,4.5,4.1,5.9c0.9,0.8,1.8,1.3,2.7,1.5c1.7,0.4,3.1,0,4.2-1.2c2.1-2.5,2.6-5.4,1.5-8.5c-0.6-1.8-2-2.8-4.3-3
				c-0.8-0.1-1.6,0-2.4,0.1c-0.3,0-0.6,0-0.9,0.1l-0.5,0.3l-1-1L329,40l-0.2-0.8l0.5,0c0.8-2.2,2.7-3.6,5.1-3.6c0.1,0,0.2,0,0.3,0
				c0.6,0,1.2,0.1,1.9,0.3c-0.8-2.1-1.1-4-1-5.9c0.1-1.9,0.8-3.7,2-5.2c0.8-1,2-1.6,3.3-1.6c0,0,0,0,0,0c1.3,0,2.5,0.6,3.3,1.7
				c2,2.6,2.5,5.7,1.6,9.2c-0.2,0.6-0.4,1.3-0.6,1.9c0.9-0.3,2-0.4,3.2-0.3c2.2,0.3,4.1,2.3,4.3,4.4l0.2,1.3l-1.6-0.3
				c-0.3-0.1-0.6-0.1-0.9-0.1c-1.4-0.2-2.5-0.1-3.6,0.2c-1.6,0.5-2.6,1.5-3,3c-0.9,2.9-0.4,5.7,1.4,8.1c1.3,1.8,3.4,2.2,5.6,1
				c1.4-0.8,2.6-1.9,3.7-3.6c0.5-0.8,1-1.6,1.4-2.5l2.4-4.5l0.3,4.2c0,0.7,0.1,1.3,0.1,2c0.1,1.3,0.4,2.4,0.9,3.4
				c0.9,2,2.4,2.6,4.5,2c2.4-0.7,4.6-3.5,4.8-6l0-0.3c0-0.6-0.3-1-0.7-1.3c-0.4-0.3-1-0.4-1.6-0.2c-0.2,0.1-0.5,0.2-0.7,0.8
				l-0.3,0.8l-1.4-0.2l-0.3-0.5c-0.9-1.7-1.2-3.1-1-4.6c0.1-1.2,0.7-2.1,1.7-2.6c1.4-0.8,2.9-1.1,4.4-0.9c1.7,0.3,3,1.3,3.6,2.9
				c2.1-2.6,5-3.6,8.6-2.7l1.7,0.4l-1.3,1.2c-3.6,3.3-6.4,7.2-8.8,11.9c-2.2,4.3-3.6,9.1-4.3,14.1l-0.1,0.8l-0.8,0
				c-0.3,0-0.4,0-0.5,0L314.7,67.8z M302.8,40.9c0.6,0.7,1.3,1.4,1.9,2.1c5.4,6.5,8.9,14.2,10.3,22.9h52.2c0.8-4.9,2.2-9.6,4.4-13.8
				c2.1-4.3,4.7-7.9,7.8-11.1c-0.1,0-0.1,0-0.2,0c-2.5,0-4.3,1.3-5.8,3.9l-1.3,2.4l-0.5-3.2c0-0.2-0.1-0.4-0.1-0.6
				c-0.3-1.4-1.2-2.4-2.4-2.5c-1.1-0.2-2.1,0.1-3.2,0.7c-0.4,0.2-0.6,0.6-0.7,1.2c-0.1,0.7,0,1.4,0.2,2.1c0.2-0.2,0.5-0.3,0.8-0.4
				c1.1-0.4,2.3-0.3,3.3,0.4c0.9,0.6,1.5,1.7,1.5,2.9c0,0.2,0,0.3,0,0.5c-0.2,3.4-2.9,6.8-6.1,7.7c-3,0.9-5.5-0.2-6.8-3
				c-0.5-1.1-0.9-2.3-1-3.7c-0.3,0.4-0.5,0.9-0.8,1.3c-1.2,1.9-2.7,3.3-4.3,4.2c-3,1.6-6.1,1-8-1.5c-2.2-2.9-2.8-6.3-1.7-9.8
				c0.6-2.1,2.1-3.5,4.3-4.2c1.2-0.4,2.6-0.5,4.1-0.3c-0.5-0.8-1.4-1.3-2.2-1.5c-1.1-0.2-2.2,0-3.6,0.6l-2.9,1.2l1.2-2.5
				c0-0.1,0.1-0.2,0.1-0.2c0.1-0.3,0.3-0.7,0.4-1c0.3-0.7,0.5-1.4,0.7-2.1c0.8-2.9,0.4-5.4-1.3-7.5c-0.5-0.6-1.1-0.9-1.8-0.9h0
				c-0.7,0-1.4,0.3-1.8,0.9c-1,1.2-1.5,2.6-1.6,4.2c-0.1,2,0.3,4,1.4,6.4l1.2,2.9l-2.2-1c-1.4-0.6-2.4-0.9-3.3-1
				c-1.3-0.1-2.4,0.5-3.1,1.6c0.8-0.1,1.6-0.1,2.4,0c3,0.2,5.1,1.8,5.9,4.3c1.2,3.7,0.6,7.3-1.9,10.3c-1.5,1.9-3.6,2.5-6.1,1.9
				c-1.3-0.3-2.4-1-3.5-2c-1.3-1.1-2.3-2.5-3.3-4.1c-0.2,1.6-0.6,3.4-1.8,5c-0.9,1.2-2.2,1.9-3.6,2c-0.1,0-0.2,0-0.3,0
				c-2,0-3.9-0.8-5.4-2.4c-1.8-1.9-2.7-3.9-2.7-6.2c0-1.3,0.5-2.9,2.9-3.3c1.1-0.2,2,0,2.7,0.6c0.2-0.7,0.3-1.5,0.2-2.3
				c-0.1-0.6-0.4-0.9-0.9-1.2c-0.5-0.2-1-0.4-1.5-0.5c-2.1-0.4-3.4,0.6-3.8,2.6l-0.6,3.7l-1.3-2.4c-0.9-1.7-1.9-2.7-3.2-3.4
				C304.7,41.1,303.7,40.8,302.8,40.9z"/>
		</g>
		<g>
			<path class="st0" d="M368.1,76.2h-54.5l-0.4-8.1h55.4L368.1,76.2z M315.4,74.3h50.9l0.2-4.3h-51.4L315.4,74.3z"/>
		</g>
	</g>
	<g>
		<g>
			<path class="st1" d="M368.6,176.9l-17.6-25c-2.2,0.1-3.9,0.2-5.1,0.2h-20.1v24.8h-11.6V95.5h31.8c10.5,0,18.9,2.5,24.9,7.6
				c6.1,5,9.1,12,9.1,20.8c0,6.3-1.5,11.6-4.7,16.1c-3.1,4.4-7.5,7.6-13.3,9.7l19.3,27.3H368.6z M362.4,137.5
				c3.9-3.2,5.8-7.7,5.8-13.6c0-5.9-1.9-10.4-5.8-13.6c-3.9-3.1-9.5-4.7-16.9-4.7h-19.8v36.7h19.8
				C352.9,142.3,358.5,140.7,362.4,137.5z"/>
		</g>
		<g>
			<path class="st1" d="M376.5,290.2v10.1h-59.1v-81.4h57.5V229h-45.8v25h40.8v9.9h-40.8v26.3H376.5z"/>
		</g>
		<g>
			<path class="st1" d="M350,395.6v28.2h-11.5v-28.4l-32.3-53.1h12.4l26.1,42.9l26.2-42.9h11.5L350,395.6z"/>
		</g>
	</g>
	<g>
		<g>
			<path class="st0" d="M242.3,155.9c-0.5,0-0.8-0.3-0.8-0.9v-26.2h-49.5V155c0,0.6-0.3,0.9-0.9,0.9h-6c-0.6,0-0.9-0.3-0.9-0.9V96.4
				c0-0.6,0.3-1,0.9-1h6c0.6,0,0.9,0.3,0.9,1v24.4h49.5V96.4c0-0.6,0.3-1,0.8-1h6.1c0.5,0,0.8,0.3,0.8,1V155c0,0.6-0.3,0.9-0.8,0.9
				H242.3z"/>
		</g>
		<g>
			<path class="st0" d="M214.3,257.1c-0.5,0-0.8-0.3-0.8-0.9v-58.6c0-0.6,0.3-1,0.8-1h4.7c0.4,0,0.7,0.3,0.7,1v58.6
				c0,0.6-0.2,0.9-0.7,0.9H214.3z"/>
		</g>
		<g>
			<path class="st0" d="M243.4,346.7c-0.9,2.9-2.2,5.1-3.9,6.8c-1.7,1.5-3.9,2.7-6.6,3.5s-6.1,1.2-10,1.2h-15.7
				c-8.1,0-13.8-1.4-17.1-4.2c-3.4-3.1-5.1-8.5-5.1-16.3c0-0.5,0.3-0.8,0.8-0.8h6c0.6,0,0.9,0.3,0.9,0.8c0,5.2,1,8.7,3.1,10.5
				c1,0.7,2.4,1.2,4.3,1.6c1.8,0.4,4.2,0.6,7.1,0.6h15.7c2.2,0,4.2-0.2,5.9-0.5c1.7-0.3,3.1-0.8,4.2-1.5c2.5-1.6,3.8-4.6,3.8-9
				v-40.6c0-0.6,0.3-1,0.9-1h6.1c0.6,0,1,0.3,1,1v37.9C244.7,340.5,244.3,343.9,243.4,346.7z"/>
		</g>
		<g>
			<path class="st0" d="M244.6,459.5H244c0-0.1,0-0.2-0.1-0.3l0.1,0.1l-7.2-14h-40.2l-7.1,14v-0.1c0,0.1,0,0.2,0,0.3h-0.5h-6.7
				c-0.6,0-0.9-0.3-0.9-0.9v-0.1c0-0.1,0.1-0.3,0.2-0.4v0.2l30-59.1c0.1-0.1,0.3-0.2,0.6-0.2h9.3c0.2,0,0.3,0,0.3,0
				c0,0,0.1,0.1,0.1,0.1l30.1,59.1v-0.2c0.1,0.1,0.1,0.3,0.1,0.4v0.1c0,0.6-0.3,0.9-0.8,0.9H244.6z M200.7,437.7h32.2L216.9,406
				L200.7,437.7z"/>
		</g>
	</g>
	<g>
		<rect x="275.2" y="95.5" class="st1" width="9.7" height="401.7"/>
	</g>
	<g>
		<g>
			<path class="st1" d="M196.7,467h6c1.5,0,2.9,0.3,4,0.9c1.2,0.6,2.1,1.4,2.7,2.5c0.6,1.1,1,2.3,1,3.7c0,1.4-0.3,2.6-1,3.7
				c-0.6,1.1-1.6,1.9-2.7,2.5c-1.2,0.6-2.5,0.9-4,0.9h-6V467z M202.7,479.5c1.2,0,2.2-0.2,3.1-0.7s1.6-1.1,2-1.9
				c0.5-0.8,0.7-1.7,0.7-2.8c0-1.1-0.2-2-0.7-2.8c-0.5-0.8-1.2-1.4-2-1.9c-0.9-0.4-1.9-0.7-3.1-0.7h-3.9v10.7H202.7z"/>
		</g>
		<g>
			<path class="st1" d="M224,479.5v1.8h-10.4V467h10.1v1.8h-8.1v4.4h7.2v1.7h-7.2v4.6H224z"/>
		</g>
		<g>
			<path class="st1" d="M227.3,467h2v12.5h7.7v1.8h-9.8V467z"/>
		</g>
	</g>
	<g>
		<g>
			<path class="st1" d="M231.4,524.1v12.3c0,2.5-0.6,4.3-1.9,5.5c-1.2,1.2-3.1,1.8-5.5,1.8c-1.3,0-2.6-0.2-3.9-0.6
				c-1.2-0.4-2.2-0.9-3-1.6l1.2-2c0.7,0.6,1.5,1,2.5,1.4c1,0.3,2,0.5,3,0.5c1.7,0,2.9-0.4,3.7-1.2c0.8-0.8,1.2-2,1.2-3.6v-1.1
				c-0.6,0.7-1.4,1.3-2.2,1.7c-0.9,0.4-1.9,0.6-2.9,0.6c-1.4,0-2.6-0.3-3.7-0.9c-1.1-0.6-2-1.4-2.6-2.5c-0.6-1-0.9-2.2-0.9-3.6
				s0.3-2.5,0.9-3.6c0.6-1,1.5-1.9,2.6-2.4c1.1-0.6,2.3-0.9,3.7-0.9c1.1,0,2.1,0.2,3,0.6c0.9,0.4,1.7,1,2.3,1.8v-2.2H231.4z
				 M226.4,534.9c0.7-0.4,1.3-0.9,1.8-1.7c0.4-0.7,0.6-1.5,0.6-2.4c0-1.4-0.5-2.5-1.4-3.4c-0.9-0.9-2.1-1.3-3.5-1.3
				c-1.5,0-2.6,0.4-3.6,1.3c-0.9,0.9-1.4,2-1.4,3.4c0,0.9,0.2,1.7,0.6,2.4c0.4,0.7,1,1.3,1.7,1.7c0.7,0.4,1.6,0.6,2.5,0.6
				C224.9,535.5,225.7,535.3,226.4,534.9z"/>
		</g>
		<g>
			<path class="st1" d="M246,525.4c1.1,1,1.6,2.4,1.6,4.3v8.6h-2.4v-1.9c-0.4,0.7-1,1.2-1.8,1.5c-0.8,0.3-1.7,0.5-2.8,0.5
				c-1.6,0-2.9-0.4-3.8-1.2c-1-0.8-1.4-1.8-1.4-3c0-1.3,0.5-2.3,1.4-3c0.9-0.8,2.4-1.1,4.4-1.1h4.1v-0.5c0-1.1-0.3-2-1-2.6
				c-0.6-0.6-1.6-0.9-2.9-0.9c-0.8,0-1.7,0.1-2.5,0.4c-0.8,0.3-1.5,0.7-2,1.1l-1.1-1.9c0.7-0.6,1.6-1,2.6-1.4c1-0.3,2.1-0.5,3.3-0.5
				C243.5,523.9,245,524.4,246,525.4z M243.4,535.9c0.7-0.4,1.2-1.1,1.6-1.9v-2h-4c-2.2,0-3.3,0.7-3.3,2.2c0,0.7,0.3,1.3,0.8,1.7
				c0.6,0.4,1.3,0.6,2.3,0.6C241.9,536.5,242.7,536.3,243.4,535.9z M243.3,518.5h3.3l-4.5,3.5h-2.4L243.3,518.5z"/>
		</g>
		<g>
			<path class="st1" d="M252.4,518.4h2.6v20h-2.6V518.4z"/>
		</g>
		<g>
			<path class="st1" d="M269.6,525.4c1.1,1,1.6,2.4,1.6,4.3v8.6h-2.4v-1.9c-0.4,0.7-1,1.2-1.8,1.5c-0.8,0.3-1.7,0.5-2.8,0.5
				c-1.6,0-2.9-0.4-3.8-1.2c-1-0.8-1.4-1.8-1.4-3c0-1.3,0.5-2.3,1.4-3c0.9-0.8,2.4-1.1,4.4-1.1h4.1v-0.5c0-1.1-0.3-2-1-2.6
				c-0.6-0.6-1.6-0.9-2.9-0.9c-0.8,0-1.7,0.1-2.5,0.4c-0.8,0.3-1.5,0.7-2,1.1l-1.1-1.9c0.7-0.6,1.6-1,2.6-1.4c1-0.3,2.1-0.5,3.3-0.5
				C267.1,523.9,268.6,524.4,269.6,525.4z M267.1,535.9c0.7-0.4,1.2-1.1,1.6-1.9v-2h-4c-2.2,0-3.3,0.7-3.3,2.2
				c0,0.7,0.3,1.3,0.8,1.7c0.6,0.4,1.3,0.6,2.3,0.6C265.5,536.5,266.3,536.3,267.1,535.9z"/>
		</g>
		<g>
			<path class="st1" d="M284,537.5c-0.4,0.3-0.8,0.6-1.4,0.7c-0.6,0.2-1.1,0.3-1.7,0.3c-1.4,0-2.6-0.4-3.3-1.2
				c-0.8-0.8-1.2-1.9-1.2-3.3v-7.8H274v-2.1h2.4V521h2.6v3.1h4.1v2.1H279v7.7c0,0.8,0.2,1.4,0.6,1.8c0.4,0.4,0.9,0.6,1.7,0.6
				c0.8,0,1.5-0.2,2-0.7L284,537.5z"/>
		</g>
		<g>
			<path class="st1" d="M296.9,525.4c1.1,1,1.6,2.4,1.6,4.3v8.6H296v-1.9c-0.4,0.7-1,1.2-1.8,1.5c-0.8,0.3-1.7,0.5-2.8,0.5
				c-1.6,0-2.9-0.4-3.8-1.2c-1-0.8-1.4-1.8-1.4-3c0-1.3,0.5-2.3,1.4-3c0.9-0.8,2.4-1.1,4.4-1.1h4.1v-0.5c0-1.1-0.3-2-1-2.6
				c-0.6-0.6-1.6-0.9-2.9-0.9c-0.8,0-1.7,0.1-2.5,0.4c-0.8,0.3-1.5,0.7-2,1.1l-1.1-1.9c0.7-0.6,1.6-1,2.6-1.4c1-0.3,2.1-0.5,3.3-0.5
				C294.3,523.9,295.8,524.4,296.9,525.4z M294.3,535.9c0.7-0.4,1.2-1.1,1.6-1.9v-2h-4c-2.2,0-3.3,0.7-3.3,2.2
				c0,0.7,0.3,1.3,0.8,1.7c0.6,0.4,1.3,0.6,2.3,0.6C292.7,536.5,293.6,536.3,294.3,535.9z"/>
		</g>
		<g>
			<path class="st1" d="M304,538c-1.1-0.3-1.9-0.7-2.5-1.2l1.1-2c0.6,0.4,1.4,0.8,2.3,1.1c0.9,0.3,1.8,0.4,2.7,0.4
				c2.3,0,3.4-0.6,3.4-1.9c0-0.4-0.2-0.8-0.5-1c-0.3-0.3-0.7-0.4-1.1-0.6c-0.5-0.1-1.1-0.2-2-0.4c-1.2-0.2-2.1-0.4-2.8-0.6
				c-0.7-0.2-1.4-0.6-1.9-1.2c-0.5-0.6-0.8-1.3-0.8-2.3c0-1.3,0.5-2.3,1.6-3.1c1.1-0.8,2.5-1.2,4.3-1.2c1,0,1.9,0.1,2.9,0.4
				c1,0.2,1.7,0.5,2.3,0.9l-1.1,2c-1.2-0.8-2.5-1.1-4.1-1.1c-1.1,0-1.9,0.2-2.5,0.5c-0.6,0.4-0.9,0.8-0.9,1.4c0,0.5,0.2,0.8,0.5,1.1
				c0.3,0.3,0.7,0.5,1.2,0.6c0.5,0.1,1.1,0.3,2,0.4c1.1,0.2,2.1,0.4,2.8,0.6c0.7,0.2,1.3,0.6,1.8,1.1c0.5,0.5,0.8,1.3,0.8,2.3
				c0,1.3-0.6,2.3-1.7,3.1c-1.1,0.8-2.6,1.1-4.5,1.1C306.2,538.5,305.1,538.4,304,538z"/>
		</g>
		<g>
			<path class="st1" d="M339.2,533.7h-3.6v4.6H333v-4.6h-10.5v-1.9l9.6-12.3h2.9l-9.2,11.9h7.2v-4.1h2.5v4.1h3.6V533.7z"/>
		</g>
		<g>
			<path class="st1" d="M341.5,527.1c-0.4-0.3-0.5-0.8-0.5-1.3c0-0.5,0.2-1,0.5-1.3c0.4-0.4,0.8-0.5,1.3-0.5c0.5,0,0.9,0.2,1.3,0.5
				c0.3,0.3,0.5,0.8,0.5,1.3c0,0.5-0.2,1-0.5,1.3c-0.4,0.4-0.8,0.5-1.3,0.5C342.3,527.6,341.9,527.5,341.5,527.1z M341.5,538
				c-0.4-0.4-0.5-0.8-0.5-1.3c0-0.5,0.2-1,0.5-1.3c0.4-0.3,0.8-0.5,1.3-0.5c0.5,0,0.9,0.2,1.3,0.5c0.3,0.3,0.5,0.8,0.5,1.3
				c0,0.5-0.2,1-0.5,1.3c-0.4,0.3-0.8,0.5-1.3,0.5C342.3,538.5,341.9,538.3,341.5,538z"/>
		</g>
		<g>
			<path class="st1" d="M361.1,519.5v1.8l-7.6,17h-2.9l7.5-16.5h-8.6v3.4h-2.6v-5.7H361.1z"/>
		</g>
	</g>
</g>
</svg>
