<?xml version="1.0" encoding="utf-8"?>
<!-- Generator: Adobe Illustrator 25.3.0, SVG Export Plug-In . SVG Version: 6.00 Build 0)  -->
<svg version="1.1" id="Capa_1" xmlns="http://www.w3.org/2000/svg" xmlns:xlink="http://www.w3.org/1999/xlink" x="0px" y="0px"
	 viewBox="0 0 566.9 566.9" style="enable-background:new 0 0 566.9 566.9;" xml:space="preserve">
<style type="text/css">
	.st0{fill:#221F23;}
</style>
<g>
	<g>
		<path class="st0" d="M446.2,336.2c-1-8.7-2.1-16.7-2.9-24.7c-0.1-0.8,0.7-1.7,1.3-2.5c15.8-21.1,10.8-49.1-10.6-64.3
			c-13.9-9.9-27-21-40.4-31.6c-1.7-1.4-3.1-2.1-5.2-1.3c-5.4,2.1-10.9,4.1-16.3,6.3c-3.1,1.3-6.1,2.8-10.1,4.6
			c1.4-3.1,2.4-5.3,3.3-7.5c2.5-6,5-12,7.4-18c1-2.5,0.3-4.4-1.5-6.7c-10.3-12.8-20.9-25.5-30.4-38.9c-15.6-22-42.9-27-64.7-11
			c-0.9,0.6-2.2,1.3-3.2,1.1c-7.7-0.8-15.4-1.8-23.8-2.9c1-1.5,1.6-2.4,2.3-3.3c9.7-12.4,22.2-20.5,37.6-23.9
			c2.7-0.6,4.4-1.8,5.4-4.4c1.7-4.7,3.5-9.3,5.3-14c0.8-2.1,1.6-4.2,2.8-7.2c1.6,4.4,2.9,8,4.2,11.4c1.4,3.6,2.7,7.3,4.4,10.8
			c0.5,1.1,2,2.1,3.3,2.5c6.9,2.5,13.8,4.9,20.8,7.2c1.3,0.4,3,0.7,4.2,0.2c3-1.2,5.9-2.8,8.7-4.2c1.9-1,3.8-2,6.4-3.4
			c-1.3,4.5-2.3,8.2-3.3,11.9c-1.2,4.1-0.8,7.3,2.3,10.9c5.5,6.3,10,13.6,15,20.4c21.6,28.7,47.3,52.9,77,73.1
			c4.4,3,8.1,6.9,12.3,10.1c1.4,1.1,3.4,2,5.1,1.9c4.9-0.4,9.8-1.3,15.4-2.2c-0.8,1.4-1.4,2.4-2,3.4c-1.5,2.2-2.9,4.3-4.5,6.4
			c-2.5,3.4-3.9,6.8-1.2,10.9c1.1,1.7,1.8,3.8,2,5.8c0.4,4.7,3.4,7,7.3,8.6c4.5,1.8,9.1,3.5,13.6,5.2c2.4,0.9,4.8,1.8,7.3,3.5
			c-2.5,0.9-4.9,1.9-7.4,2.8c-5.2,2.1-10.4,4.2-15.6,6.3c-2.3,0.9-3.3,2.6-3.8,5.1c-3.2,15.9-11.3,28.9-24.1,38.9
			C448.8,334.4,447.8,335.1,446.2,336.2z"/>
		<path class="st0" d="M163.4,421.5c1.4-3,2.9-6,4.1-9c2.2-5.3,4.3-10.6,6.2-16c0.4-1.1,0-2.8-0.6-3.9c-1.8-3.8-3.7-7.6-5.9-11.2
			c-0.6-1-2.2-2.1-3.3-2.2c-4.4-0.3-8.8-0.1-13.7-0.1c0.8-0.9,1.5-1.7,2.3-2.5c1.7-1.5,3.4-3,5.1-4.5c3.7-3.3,5.4-6.8,5.3-12.3
			c-0.1-9,1.6-18.1,3-27c3.8-24.7,5.2-49.6,3.1-74.5c-0.2-2.8,0.4-4.8,2.7-6.3c5.6-3.9,11.1-7.9,17.3-12.3
			c0.7,9.8,1.8,18.8,1.8,27.8c0,5.4,2,8.2,6.7,9.8c4.3,1.5,8.5,3.2,12.8,4.8c1.5,0.6,2.9,1.2,5.4,2.1c-4,1.5-7.1,2.5-10.2,3.8
			c-4.2,1.7-8.4,3.5-12.4,5.6c-1,0.5-2,2.3-2.1,3.5c-0.9,17.7-3.2,35.1-6.5,52.5c-5.7,30,21.7,56.3,52.1,51
			c16.4-2.9,33-4.4,49.6-6.3c2.2-0.3,3.7-0.9,4.6-2.8c2.5-5.4,5-10.8,7.3-16.2c1.4-3.3,2.5-6.6,4.4-10c1.3,3.6,2.5,7.3,4,10.8
			c2.3,5.3,4.7,10.4,7.2,15.6c0.9,1.9,2.3,2.4,4.4,2.5c8.8,0.5,17.7,1.3,27.4,2c-5,6.8-9.4,12.9-14,18.8c-0.6,0.8-2.5,1-3.8,1
			c-15.8,0-31.7-0.7-47.4,0.2c-13.6,0.8-27.1,3.2-40.6,5.3c-16.3,2.6-31.5,0-45.6-8.5c-2.1-1.3-4.1-1.8-6.4-0.9
			c-5.2,2.1-10.4,4.2-15.6,6.3c-2.8,1.2-5.5,2.5-8.2,3.8C163.9,422,163.6,421.7,163.4,421.5z"/>
		<path class="st0" d="M456.6,372.3c-3.6-0.2-7.3-0.3-10.9-0.6c-2.3-0.2-3.3,0.5-4.1,2.8c-2,5.6-4.7,10.9-6.9,16.4
			c-0.6,1.5-1.2,3.4-0.8,4.8c2,5.9,4.4,11.7,6.7,17.5c1.1,2.8,2.5,5.5,4.1,9.1c-2.1-0.8-3.5-1.3-4.9-1.9c-7-2.9-14-5.8-21-8.6
			c-2.2-0.9-4.1-0.3-6.1,0.9c-13.4,8.2-28,11.2-43.6,9c-0.8-0.1-1.6-0.4-3-0.7c5.1-6.6,9.9-12.9,14.9-18.9c0.8-1,2.7-1.2,4.1-1.4
			c23.8-3.7,40.5-25.6,37.3-49.4c-1.3-10-3.3-19.9-4.6-29.8c-1-7.5-1.5-15.1-1.9-22.7c-0.1-2.9-1.1-4.8-3.6-5.9
			c-5.2-2.2-10.3-4.4-15.5-6.5c-1.7-0.7-3.4-1.3-6-2.4c3.4-1.3,6-2.1,8.6-3.2c4.7-2,9.4-4,13.8-6.3c1.2-0.6,2.1-2.6,2.3-4.1
			c0.9-10,1.5-20.1,2.2-31.1c6.9,5.1,13,9.6,19.1,14.2c0.6,0.5,1,1.7,1,2.5c-2.6,30.9-0.2,61.4,5.7,91.8c0.3,1.5,0.6,3,0.4,4.5
			c-0.6,5.2,1.9,8.9,5.5,12.1c2.6,2.3,5,4.7,7.5,7.1C456.8,371.8,456.7,372.1,456.6,372.3z"/>
		<path class="st0" d="M160.4,336.2c-11.3-7.9-19.2-17.6-24-29.7c-1.4-3.6-2.5-7.4-3.4-11.2c-0.5-2.2-1.3-3.8-3.4-4.7
			c-5.6-2.4-11.1-4.8-16.7-7.1c-2.6-1.1-5.2-2-7.8-3.7c2.6-1,5.1-1.9,7.7-2.9c6-2.5,12-5,17.8-7.8c1.4-0.7,2.6-2.6,3.1-4.1
			c4.5-15.7,13.3-28.3,26.9-37.5c24.2-16.3,46-35.5,64.9-57.7c1.4-1.7,2.9-2.5,5-2.1c7,1.1,14,2.2,22,3.5c-7.4,8.4-14.2,16.2-21,24
			c-0.3,0.3-0.6,0.6-0.9,0.9c-5.6,5.8-5.6,5.8-2.3,13.2c2.4,5.4,5,10.8,8,17.1c-3.4-1.5-5.9-2.7-8.5-3.7c-5-2.1-9.9-4.4-15-6.3
			c-1.1-0.4-3,0-4,0.8c-12.4,9.4-24.5,19.3-37.2,28.4c-20.3,14.7-24.9,43.1-9.8,63.1c1,1.4,1.6,3.5,1.4,5.2
			C162.5,321.1,161.4,328.3,160.4,336.2z"/>
		<path class="st0" d="M357.8,451.7c-4.9-2.6-8.9-4.7-12.9-6.9c-3.3-1.7-6.2-1.7-9.7,0.3c-4.7,2.6-10,4.1-14.9,6.3
			c-1.7,0.8-3.8,1.9-4.6,3.5c-2.8,5.8-5.2,11.9-7.7,17.8c-1,2.3-1.8,4.8-3.1,8.1c-1.6-4.2-2.7-7.6-4-10.8c-2-4.8-4-9.6-6.1-14.3
			c-0.9-2-2.4-3-4.7-3.5c-15.3-3.2-27.9-10.9-37.8-23c-1-1.2-1.9-2.6-3.4-4.5c8.7-1.1,16.7-2.1,24.7-3c0.8-0.1,1.8,0.7,2.5,1.2
			c21.1,15.8,49.4,11.2,64.2-10.6c10-14.8,21-28.9,33.3-42c1.5-1.6,1.9-3,1.1-4.9c-2-4.5-3.9-9-6.2-14.3c2.4,1.1,4.1,1.9,5.8,2.6
			c2.2,1,4.3,2,6.5,3c2.9,1.4,5,1.1,7.7-1.4c7.4-7,15.2-13.5,22.9-20.2c0.7-0.6,1.6-1.1,2.8-2c1.2,7.8,2.4,15.3,3.5,22.8
			c0.1,0.9-0.7,2.3-1.5,2.9c-22.9,19.7-42.7,42.1-59.4,67.3c-0.5,0.7-0.9,1.5-1.6,2.1c-4.3,3.3-3.5,7.4-1.9,11.6
			C354.7,443.5,356,447.1,357.8,451.7z"/>
		<path class="st0" d="M163.8,219.2c-2.9-17.2-0.1-32.5,8.5-46.7c1.3-2.1,1.7-4,0.9-6.1c-2.1-5.4-4.3-10.9-6.5-16.2
			c-1.2-2.8-2.5-5.5-4.2-9.2c2.9,1.3,4.9,2.2,7,3c6.3,2.6,12.5,5.3,18.9,7.6c1.5,0.5,3.9,0.1,5.4-0.8c7-4,14.4-7,22.3-8.6
			c1.3-0.3,2.9-1.5,3.4-2.7c1.8-3.9,3.1-8,5-12.9c1.5,4.1,2.9,7.4,3.9,10.8c0.9,2.6,2.2,3.7,5.2,4.1c11.2,1.4,22.2,3.5,33.4,4.9
			c20.1,2.5,40.2,2.7,60.3,1.2c2.4-0.2,4.2,0.3,5.6,2.3c4,5.7,8,11.3,12.5,17.4c-5.8,0.6-11.2,1.2-16.5,1.6
			c-5.9,0.4-11.9,0.7-17.9,0.8c-2.4,0-3.5,0.9-4.3,3c-1.3,3.8-2.7,7.5-4.4,12.1c-1.6-4.4-3-8-4.3-11.6c-0.8-2.4-2.1-3.5-4.9-3.5
			c-19.9-0.3-39.4-3.3-59-6.6c-23.6-4-46.8,14-49.9,37.8c-0.2,1.6-1.2,3.5-2.5,4.5C176.1,209.9,170.2,214.3,163.8,219.2z"/>
		<path class="st0" d="M366,142.4c10.5-2.1,20.2-1.7,29.6,1.1c5.5,1.7,10.9,4.2,16.1,6.8c2.3,1.1,4.1,1.6,6.4,0.6
			c6-2.7,12.1-5.3,18.1-7.9c1.2-0.5,2.5-1,4.7-1.9c-1.9,4.1-3.4,7.3-4.9,10.5c-0.6,1.4-1.3,2.8-2,4.1c-3.4,6.1-4.4,11.5,0.6,17.9
			c3.6,4.6,5.1,10.9,7.1,16.6c0.8,2.4,1.9,3.9,4.3,4.6c4.5,1.3,9.1,2.6,14.5,4.1c-2.3,1.2-4,2-5.7,2.8c-0.9,0.4-1.8,0.8-2.7,1.2
			c-5.2,2.1-9.8,4.7-8.7,11.7c0.2,1.2-0.4,2.5-0.7,4.1c-0.9-0.5-1.7-0.9-2.3-1.3c-2.9-2.1-5.7-4.4-8.6-6.3
			c-5.8-3.9-9.1-8.6-11.1-15.9c-4.7-18-17.3-28.8-35.7-32c-2.7-0.5-4.5-1.5-6.1-3.6C375,153.8,370.7,148.4,366,142.4z"/>
		<path class="st0" d="M236.4,348.8c-2.1,4.8-4,9-5.8,13.2c-1.2,2.7-0.8,4.8,1.4,7.2c6.8,7.4,13.3,15,20.5,23.3
			c-8.3,1.3-15.6,2.5-22.9,3.4c-1.1,0.1-2.7-0.7-3.5-1.6c-11.8-11.7-23.6-23.5-35.3-35.3c-1-1-1.8-2.8-1.6-4.1
			c0.9-7.1,2.2-14.1,3.4-21.5c1,0.7,1.8,1.1,2.5,1.7c7.3,6.3,14.6,12.5,21.8,18.9c1.5,1.3,2.8,1.8,4.6,1.1
			C226.3,353,231,351.1,236.4,348.8z"/>
	</g>
	<g>
		<path class="st0" d="M222.6,270.3h5.4l4.9,9.5l4.9-9.5h5.3l-7.7,14.9v11.4h-5v-11.4L222.6,270.3z"/>
		<path class="st0" d="M259.6,269.7c3.7,0,6.9,1.3,9.6,4c2.7,2.7,4,6,4,9.8c0,3.8-1.3,7.1-4,9.7c-2.6,2.7-5.8,4-9.6,4
			c-3.9,0-7.2-1.4-9.8-4.1c-2.6-2.7-3.9-6-3.9-9.7c0-2.5,0.6-4.8,1.8-6.9c1.2-2.1,2.9-3.8,5-5C254.9,270.3,257.2,269.7,259.6,269.7z
			 M259.6,274.6c-2.4,0-4.5,0.8-6.1,2.5c-1.7,1.7-2.5,3.8-2.5,6.5c0,2.9,1,5.2,3.1,6.9c1.6,1.3,3.5,2,5.6,2c2.4,0,4.4-0.9,6.1-2.6
			c1.7-1.7,2.5-3.8,2.5-6.3c0-2.5-0.8-4.6-2.5-6.4C264,275.4,262,274.6,259.6,274.6z"/>
		<path class="st0" d="M312.4,274.9l-3.5,3.3c-2.4-2.5-5.1-3.8-8-3.8c-2.5,0-4.6,0.9-6.4,2.6c-1.7,1.7-2.6,3.8-2.6,6.4
			c0,1.8,0.4,3.3,1.1,4.7c0.8,1.4,1.8,2.4,3.2,3.2c1.4,0.8,2.9,1.2,4.6,1.2c1.5,0,2.8-0.3,4-0.8c1.2-0.5,2.5-1.5,4-3l3.4,3.5
			c-1.9,1.9-3.8,3.2-5.5,3.9c-1.7,0.7-3.7,1.1-5.9,1.1c-4.1,0-7.4-1.3-10-3.9c-2.6-2.6-3.9-5.9-3.9-10c0-2.6,0.6-5,1.8-7
			c1.2-2,2.9-3.7,5.1-4.9c2.2-1.2,4.6-1.9,7.1-1.9c2.2,0,4.3,0.5,6.3,1.4C309.2,271.9,310.9,273.3,312.4,274.9z"/>
		<path class="st0" d="M317.1,270.3h5.3c2.9,0,5,0.3,6.2,0.8c1.2,0.5,2.2,1.4,3,2.6c0.8,1.2,1.1,2.6,1.1,4.3c0,1.7-0.4,3.2-1.2,4.3
			c-0.8,1.2-2.1,2-3.7,2.6l6.2,11.7h-5.5l-5.9-11.1h-0.5v11.1h-5V270.3z M322.1,280.6h1.6c1.6,0,2.7-0.2,3.3-0.6
			c0.6-0.4,0.9-1.1,0.9-2.1c0-0.6-0.1-1.1-0.4-1.5c-0.3-0.4-0.7-0.7-1.2-0.9c-0.5-0.2-1.4-0.3-2.7-0.3h-1.4V280.6z"/>
		<path class="st0" d="M338,270.3h14.4v4.9H343v4.8h9.4v4.8H343v6.9h9.4v4.9H338V270.3z"/>
		<path class="st0" d="M369.4,269.7c3.7,0,6.9,1.3,9.6,4c2.7,2.7,4,6,4,9.8c0,3.8-1.3,7.1-4,9.7c-2.6,2.7-5.8,4-9.6,4
			c-3.9,0-7.2-1.4-9.8-4.1c-2.6-2.7-3.9-6-3.9-9.7c0-2.5,0.6-4.8,1.8-6.9c1.2-2.1,2.9-3.8,5-5C364.7,270.3,367,269.7,369.4,269.7z
			 M369.4,274.6c-2.4,0-4.5,0.8-6.1,2.5c-1.7,1.7-2.5,3.8-2.5,6.5c0,2.9,1,5.2,3.1,6.9c1.6,1.3,3.5,2,5.6,2c2.4,0,4.4-0.9,6.1-2.6
			c1.7-1.7,2.5-3.8,2.5-6.3c0-2.5-0.8-4.6-2.5-6.4C373.8,275.4,371.8,274.6,369.4,274.6z"/>
	</g>
</g>
</svg>
