<?xml version="1.0" encoding="utf-8"?>
<!-- Generator: Adobe Illustrator 25.3.0, SVG Export Plug-In . SVG Version: 6.00 Build 0)  -->
<svg version="1.1" id="Capa_1" xmlns="http://www.w3.org/2000/svg" xmlns:xlink="http://www.w3.org/1999/xlink" x="0px" y="0px"
	 viewBox="0 0 566.9 566.9" style="enable-background:new 0 0 566.9 566.9;" xml:space="preserve">
<style type="text/css">
	.st0{fill:#A8A7A7;}
</style>
<g>
	<path class="st0" d="M262.2,164.9c-5.2-11.7-12.2-21.6-20.9-29.7c-8.7-8.1-18.6-14.2-29.7-18.5c-11.1-4.2-22.5-6.3-34.3-6.3
		c-15.7,0-29.8,1.7-42.5,5.2c-12.7,3.5-23.5,8-32.4,13.6c-8.9,5.6-15.8,12-20.6,19.2c-4.8,7.2-7.3,14.4-7.3,21.8
		c0,5.2,1.3,9.6,3.8,13.3c2.5,3.7,5.8,6.7,10,9.1c4.1,2.4,8.8,4.2,14.1,5.3c5.3,1.1,10.6,1.7,16,1.7h19.2l-21,50.2
		c-4.5,10.7-8.6,20.3-12.1,28.7c-3.6,8.5-7,15.9-10.2,22.4c-4-3.3-8-6.1-12.1-8.3c-4-2.2-8.3-3.2-12.9-3.2c-5.2,0-10,0.9-14.3,2.6
		c-4.4,1.7-8.1,4.1-11.3,7c-3.2,3-5.7,6.4-7.4,10.3c-1.8,3.9-2.7,7.9-2.7,12.1c0,4.1,0.8,7.6,2.3,10.6c1.5,3,3.5,5.4,5.9,7.3
		c2.4,1.9,5.1,3.3,8.1,4.2c3,0.9,5.9,1.4,8.8,1.4c8,0,15.4-1.9,22.3-5.6c6.9-3.7,13.4-9.6,19.8-17.6c3.1,2.9,6.5,5.8,10,8.7
		c3.6,2.9,7.4,5.4,11.5,7.6c4.1,2.2,8.5,4,13.3,5.3c4.7,1.3,9.9,2,15.5,2c11.1,0,21.8-2,32-6.1c10.2-4,19.7-9.5,28.5-16.4
		c8.8-6.9,16.8-15,24-24.3c7.2-9.3,13.4-19.1,18.4-29.5c5.1-10.4,9-21,11.8-32c2.8-11,4.2-21.7,4.2-32.2
		C270,190,267.4,176.6,262.2,164.9z M81.7,322.5c-2.4,3.2-4.9,5.9-7.4,8.1c-2.5,2.2-5.2,3.8-7.9,4.8c-2.7,1-5.7,1.5-9,1.5
		c-5,0-8.8-1.4-11.6-4.3c-2.8-2.9-4.2-6.7-4.2-11.6c0-2.5,0.5-5,1.6-7.7c1.1-2.6,2.7-5.1,4.9-7.3c2.2-2.2,4.8-4,7.9-5.4
		c3.1-1.4,6.7-2.1,10.8-2.1c4,0,7.8,1.2,11.4,3.6c3.6,2.4,7.3,5.3,11.1,8.7C86.6,315.3,84.2,319.2,81.7,322.5z M244,230.1
		c-2.2,10.7-5.3,21.1-9.4,31.2c-4,10.1-9,19.6-14.8,28.6c-5.8,9-12.3,16.9-19.5,23.7c-7.2,6.8-14.9,12.2-23.3,16.1
		c-8.4,3.9-17.2,5.9-26.5,5.9c-4.3,0-8.4-0.6-12.3-1.9c-3.9-1.3-7.6-3-11.2-5.2c-3.6-2.2-7-4.6-10.2-7.4c-3.2-2.8-6.4-5.6-9.5-8.5
		c6.6-9.9,13.1-22.6,19.6-38l31.4-74.9h52.1l6-14.6h-52.1l23.8-56.6h-20.7l-23.8,56.6h-19.7c-6.1,0-11.2-0.5-15.2-1.5
		c-4-1-7.2-2.4-9.6-4.2c-2.4-1.8-4.1-3.9-5.1-6.5c-1-2.5-1.5-5.3-1.5-8.3c0-5.8,1.9-11.6,5.8-17.3c3.9-5.7,9.4-10.8,16.6-15.4
		c7.2-4.5,15.8-8.2,26-11.1c10.1-2.9,21.4-4.3,33.8-4.3c12.6,0,23.5,2.2,32.6,6.5c9.1,4.3,16.6,10.2,22.6,17.6
		c5.9,7.4,10.3,16.2,13.2,26.2c2.9,10,4.3,20.8,4.3,32.2C247.4,209,246.3,219.4,244,230.1z"/>
	<path class="st0" d="M343.5,188.6c2.1,0,3.9-0.5,5.4-1.4c1.6-0.9,2.9-2.1,4-3.5c1.1-1.4,2-3,2.6-4.8c0.6-1.8,0.9-3.5,0.9-5.3
		c0-3.1-0.9-5.9-2.7-8.2c-1.8-2.3-4.4-3.5-7.6-3.5c-1.5,0-3,0.3-4.6,1.1c-1.6,0.7-3,1.7-4.2,3c-1.2,1.3-2.3,2.8-3.1,4.6
		c-0.8,1.8-1.2,3.8-1.2,6.1c0,3,1,5.7,2.9,8.2C337.8,187.4,340.4,188.6,343.5,188.6z"/>
	<path class="st0" d="M533.8,279.3c-9.3,11.8-18.4,21.4-27.4,29c-9,7.6-17.5,13.5-25.6,18c4.1-3.9,7.9-8.3,11.5-13.3
		c3.6-5,6.6-10.2,9.2-15.8c2.6-5.5,4.6-11.3,6.1-17.3c1.5-6,2.3-12,2.3-18c0-4.8-0.4-9.2-1.1-13.2c-0.7-3.9-1.5-7.4-2.3-10.4
		c-0.8-3-1.6-5.5-2.3-7.4c-0.7-1.9-1.1-3.3-1.1-4.2c0-0.8,0.4-1.8,1.1-3.1c0.8-1.3,1.6-2.6,2.5-4c0.9-1.4,1.8-2.8,2.5-4
		c0.8-1.3,1.1-2.3,1.1-3.1c0-2.3-0.8-3.8-2.3-4.5c-1.5-0.7-2.9-1.1-4.2-1.1c-2.5,0-5,0.7-7.7,2c-2.6,1.4-5,3.1-7.2,5.3
		c-2.2,2.2-3.9,4.6-5.3,7.2c-1.4,2.7-2.1,5.2-2.1,7.7c0,1.1,0.2,2.1,0.6,3.2c0.4,1,0.8,2.1,1.4,3.3c-4.4,6.4-9.7,13.6-15.9,21.6
		c-5.7,7.4-12.5,16.2-20.3,26.1c-2.2,2.6-4.3,5-6.2,7c-2.5,2.6-4.9,4.8-7.1,6.6c-2.2,1.7-4.3,3.1-6.3,4c-2,1-4,1.7-5.9,2.1
		c4.3-7.4,7.7-15,10.2-22.7c2.5-7.7,3.7-15,3.7-21.9c0-5.2-0.6-9.5-1.9-12.9c-1.3-3.5-2.9-6.2-4.8-8.3c-1.9-2.1-4-3.5-6.3-4.4
		c-2.3-0.9-4.4-1.3-6.3-1.3c-3.7,0-7.4,1.3-11.3,3.8c-3.9,2.5-7.4,5.9-10.7,10.1c-3.2,4.2-5.9,9-7.9,14.5c-2.1,5.5-3.1,11-3.1,16.8
		c0,6.1,1.1,11.8,3.4,17.1c2.3,5.2,6,9.3,11.2,12.1c-2.9,4.3-5.9,8.4-9,12.1c-3.1,3.8-6.1,7-9.1,9.8c-3,2.8-6,4.9-8.8,6.6
		c-2.9,1.6-5.5,2.4-7.8,2.4c-1.8,0-3.4-0.4-4.7-1.3c-1.3-0.9-2.4-2-3.3-3.5c-0.9-1.5-1.6-3.1-2-5c-0.4-1.9-0.7-3.9-0.7-5.9
		c0-6.4,1-13.4,2.8-21.2c1.9-7.8,4.8-15.8,8.7-24c3.9-8.3,8.8-16.5,14.8-24.7c6-8.2,13.1-15.9,21.4-23.1l-1.5-2.3
		c-9.5,3.6-18.2,8.3-26.1,14.2c-7.9,5.9-14.6,12.6-20.2,20.1c-5.3,7-9.4,14.6-12.4,22.5l-26.6,32.8c-2.4,2.9-4.6,5.1-6.8,6.6
		c-2.2,1.5-4,2.3-5.5,2.3c-1,0-1.8-0.2-2.3-0.7c-0.6-0.4-0.9-1.3-0.9-2.6c0-0.8,0.2-1.6,0.5-2.7c0.3-1,0.7-2.1,1.1-3.2l27.2-65.5
		c1.2-2.8,2.2-5.5,2.9-8.1c0.8-2.6,1.1-4.9,1.1-7c0-2-0.7-3.9-2.1-5.6c-1.4-1.7-3.7-2.5-6.8-2.5c-3.3,0-6.6,1.3-9.6,4
		c-3.1,2.6-6,5.7-8.8,9.1l-36.4,45l4,3.2l32-39.6c0.9-1.2,1.8-1.8,2.9-1.8c0.5,0,1,0.1,1.4,0.4c0.4,0.3,0.6,0.7,0.6,1.4
		c0,0.4-0.2,1-0.5,1.8l-25.9,59.9c-2.3,5.3-4,9.8-5.3,13.4c-1.3,3.7-1.9,6.9-1.9,9.5c0,2.9,1.1,5.3,3.2,7.2c2.2,1.9,4.8,2.8,8.1,2.8
		c2,0,4.1-0.3,6.1-0.8c2-0.5,4-1.4,6-2.7c2-1.2,4.1-2.9,6.4-5.1c2.3-2.2,4.7-4.9,7.3-8.1l24.8-30.6c-1,4.8-1.5,9.6-1.5,14.4
		c0,5.6,0.9,10.5,2.7,14.6c1.8,4.2,4.2,7.6,7.1,10.4c3,2.8,6.3,4.8,10.1,6.1c3.8,1.4,7.7,2,11.7,2c5,0,9.9-0.9,14.7-2.7
		c4.9-1.8,9.5-4.2,13.8-7.3c4.4-3.1,8.5-6.7,12.5-10.8c3.9-4.2,7.5-8.6,10.8-13.4c2.8-0.3,5.6-1,8.3-1.9c2.8-1,5.6-2.4,8.5-4.4
		c2.9-1.9,5.9-4.4,8.9-7.5c1.8-1.8,3.8-4,5.8-6.4l0.1,0c0.7-0.9,1.4-1.8,2.1-2.7c0.6-0.7,1.2-1.4,1.8-2.1l0,0
		c7.3-9.4,13.6-17.4,18.6-23.9c5.9-7.7,10.7-14.1,14.3-19.4c1.5,2.8,2.9,6.2,4.1,10.1c1.2,3.9,1.9,9,1.9,15.1
		c0,7.1-0.8,14.4-2.4,21.9c-1.6,7.5-3.9,14.3-6.7,20.3c-2.9,6-6.2,11-10.1,14.9c-3.9,3.9-8.1,5.8-12.6,5.8c-1.6,0-2.4-0.7-2.4-2
		c0-1.3,0.1-2.8,0.2-4.4c0.2-1.6,0.1-3.1-0.3-4.4c-0.4-1.4-1.7-2-3.8-2c-1.7,0-3.7,0.7-5.8,2.2c-2.2,1.5-4.2,3.2-6.1,5.2
		c-1.9,2-3.6,4.1-4.9,6.4c-1.3,2.3-1.9,4.2-1.9,5.8c0,1.5,0.3,2.7,1,3.6c0.7,0.9,1.5,1.6,2.6,2.2c1.1,0.5,2.3,0.9,3.6,1.1
		c1.3,0.2,2.5,0.2,3.7,0.2c1.8,0,3.6-0.1,5.4-0.4c1.8-0.3,3.6-0.7,5.4-1.2c6.1-1.6,12.6-4,19.3-7.2c6.7-3.2,13.6-7.2,20.5-12.1
		c6.9-4.8,13.8-10.5,20.7-17c6.9-6.5,13.6-13.9,20.1-22.2L533.8,279.3z M420.2,258.1c-1.1,4.4-2.5,9-4.4,13.8
		c-1.8,4.8-4,9.7-6.5,14.7c-2.5,5-5.2,9.8-8.1,14.4c-4-2.2-6.9-5.4-8.8-9.7c-1.9-4.3-2.8-9.4-2.8-15.2c0-4.8,0.9-9.6,2.7-14.2
		c1.8-4.6,3.9-8.6,6.5-12.1c2.5-3.5,5.2-6.3,8-8.4c2.8-2.1,5.2-3.2,7.3-3.2c0.6,0,1.4,0.1,2.3,0.3c0.9,0.2,1.8,0.6,2.6,1.2
		c0.8,0.6,1.5,1.4,2,2.5c0.5,1.1,0.8,2.5,0.8,4.2C421.8,249.9,421.3,253.8,420.2,258.1z"/>
</g>
<g>
	<path d="M257.7,163.7c-5.2-11.7-12.2-21.6-20.9-29.7c-8.7-8.1-18.6-14.2-29.7-18.5c-11.1-4.2-22.5-6.3-34.3-6.3
		c-15.7,0-29.8,1.7-42.5,5.2c-12.7,3.5-23.5,8-32.4,13.6c-8.9,5.6-15.8,12-20.6,19.2c-4.8,7.2-7.3,14.4-7.3,21.8
		c0,5.2,1.3,9.6,3.8,13.3c2.5,3.7,5.8,6.7,10,9.1c4.1,2.4,8.8,4.2,14.1,5.3c5.3,1.1,10.6,1.7,16,1.7h19.2l-21,50.2
		c-4.5,10.7-8.6,20.3-12.1,28.7c-3.6,8.5-7,15.9-10.2,22.4c-4-3.3-8-6.1-12.1-8.3c-4-2.2-8.3-3.2-12.9-3.2c-5.2,0-10,0.9-14.3,2.6
		c-4.4,1.7-8.1,4.1-11.3,7c-3.2,3-5.7,6.4-7.4,10.3c-1.8,3.9-2.7,7.9-2.7,12.1c0,4.1,0.8,7.6,2.3,10.6c1.5,3,3.5,5.4,5.9,7.3
		c2.4,1.9,5.1,3.3,8.1,4.2c3,0.9,5.9,1.4,8.8,1.4c8,0,15.4-1.9,22.3-5.6c6.9-3.7,13.5-9.6,19.8-17.6c3.1,2.9,6.5,5.8,10,8.7
		c3.6,2.9,7.4,5.4,11.5,7.6c4.1,2.2,8.5,4,13.3,5.3c4.7,1.3,9.9,2,15.5,2c11.1,0,21.8-2,32-6.1c10.2-4,19.7-9.5,28.5-16.4
		c8.8-6.9,16.8-15,24-24.3c7.2-9.3,13.4-19.1,18.4-29.5c5.1-10.4,9-21,11.8-32c2.8-11,4.2-21.7,4.2-32.2
		C265.5,188.7,262.9,175.4,257.7,163.7z M77.2,321.2c-2.4,3.2-4.9,5.9-7.4,8.1c-2.5,2.2-5.2,3.8-7.9,4.8c-2.7,1-5.7,1.5-9,1.5
		c-5,0-8.8-1.4-11.6-4.3c-2.8-2.9-4.2-6.7-4.2-11.6c0-2.5,0.5-5,1.6-7.7c1.1-2.6,2.7-5.1,4.9-7.3c2.2-2.2,4.8-4,7.9-5.4
		c3.1-1.4,6.7-2.1,10.8-2.1c4,0,7.8,1.2,11.4,3.6c3.6,2.4,7.3,5.3,11.1,8.7C82.1,314.1,79.6,318,77.2,321.2z M239.5,228.8
		c-2.2,10.7-5.3,21.1-9.4,31.2c-4,10.1-9,19.6-14.8,28.6c-5.8,9-12.3,16.9-19.5,23.7c-7.2,6.8-14.9,12.2-23.3,16.1
		c-8.4,3.9-17.2,5.9-26.5,5.9c-4.3,0-8.4-0.6-12.3-1.9c-3.9-1.3-7.6-3-11.2-5.2c-3.6-2.2-7-4.6-10.2-7.4c-3.2-2.8-6.4-5.6-9.5-8.5
		c6.6-9.9,13.1-22.6,19.6-38l31.4-74.9H206l6-14.6h-52.1l23.8-56.6h-20.7l-23.8,56.6h-19.7c-6.1,0-11.2-0.5-15.2-1.5
		c-4-1-7.2-2.4-9.6-4.2c-2.4-1.8-4.1-3.9-5.1-6.5c-1-2.5-1.5-5.3-1.5-8.3c0-5.8,1.9-11.6,5.8-17.3c3.9-5.7,9.4-10.8,16.6-15.4
		c7.2-4.5,15.8-8.2,26-11.1c10.1-2.9,21.4-4.3,33.8-4.3c12.6,0,23.5,2.2,32.6,6.5c9.1,4.3,16.6,10.2,22.6,17.6
		c5.9,7.4,10.3,16.2,13.2,26.2c2.9,10,4.3,20.8,4.3,32.2C242.9,207.8,241.7,218.1,239.5,228.8z"/>
	<path d="M339,187.4c2.1,0,3.9-0.5,5.4-1.4c1.6-0.9,2.9-2.1,4-3.5c1.1-1.4,2-3,2.6-4.8c0.6-1.8,0.9-3.5,0.9-5.3
		c0-3.1-0.9-5.9-2.7-8.2c-1.8-2.3-4.4-3.5-7.6-3.5c-1.5,0-3,0.4-4.6,1.1c-1.6,0.7-3,1.7-4.2,3c-1.2,1.3-2.3,2.8-3.1,4.6
		c-0.8,1.8-1.2,3.8-1.2,6.1c0,3,1,5.7,2.9,8.2C333.3,186.2,335.9,187.4,339,187.4z"/>
	<path d="M529.3,278c-9.3,11.8-18.4,21.4-27.4,29c-9,7.6-17.5,13.5-25.6,18c4.1-3.9,7.9-8.3,11.5-13.3c3.6-5,6.6-10.2,9.2-15.8
		c2.6-5.5,4.6-11.3,6.1-17.3c1.5-6,2.3-12,2.3-18c0-4.8-0.4-9.2-1.1-13.2c-0.7-3.9-1.5-7.4-2.3-10.4c-0.8-3-1.6-5.5-2.3-7.4
		c-0.7-1.9-1.1-3.3-1.1-4.2c0-0.8,0.4-1.8,1.1-3.1c0.8-1.3,1.6-2.6,2.5-4c0.9-1.4,1.8-2.8,2.5-4c0.8-1.3,1.1-2.3,1.1-3.1
		c0-2.3-0.8-3.8-2.3-4.5c-1.5-0.7-2.9-1.1-4.2-1.1c-2.5,0-5,0.7-7.7,2c-2.6,1.4-5,3.1-7.2,5.3c-2.2,2.2-3.9,4.6-5.3,7.2
		c-1.4,2.7-2.1,5.2-2.1,7.7c0,1.1,0.2,2.1,0.6,3.2c0.4,1,0.8,2.1,1.4,3.3c-4.4,6.4-9.7,13.6-15.9,21.6c-5.7,7.4-12.5,16.2-20.3,26.2
		c-2.2,2.6-4.3,5-6.2,7c-2.5,2.6-4.9,4.8-7.1,6.6c-2.2,1.7-4.3,3.1-6.3,4c-2,1-4,1.7-5.9,2.1c4.3-7.4,7.7-15,10.2-22.7
		c2.5-7.7,3.7-15,3.7-21.9c0-5.2-0.6-9.5-1.9-12.9c-1.3-3.5-2.9-6.2-4.8-8.3c-1.9-2.1-4-3.5-6.3-4.4c-2.3-0.9-4.4-1.3-6.3-1.3
		c-3.7,0-7.4,1.3-11.3,3.8c-3.9,2.5-7.4,5.9-10.7,10.1c-3.2,4.2-5.9,9-7.9,14.5c-2.1,5.5-3.1,11-3.1,16.8c0,6.1,1.1,11.8,3.4,17.1
		c2.3,5.2,6,9.3,11.2,12.1c-2.9,4.3-5.9,8.4-9,12.1c-3.1,3.8-6.1,7-9.1,9.8c-3,2.8-6,4.9-8.8,6.6c-2.9,1.6-5.5,2.4-7.8,2.4
		c-1.8,0-3.4-0.4-4.7-1.3c-1.3-0.9-2.4-2-3.3-3.5c-0.9-1.5-1.6-3.1-2-5c-0.4-1.9-0.7-3.9-0.7-5.9c0-6.4,1-13.4,2.8-21.2
		c1.9-7.8,4.8-15.8,8.7-24c3.9-8.3,8.8-16.5,14.8-24.7c6-8.2,13.1-15.9,21.4-23.1l-1.5-2.3c-9.5,3.6-18.2,8.3-26.1,14.2
		c-7.9,5.9-14.6,12.6-20.2,20.1c-5.3,7-9.4,14.6-12.4,22.5l-26.6,32.8c-2.4,2.9-4.6,5.1-6.8,6.6c-2.2,1.5-4,2.3-5.5,2.3
		c-1,0-1.8-0.2-2.3-0.7c-0.6-0.4-0.9-1.3-0.9-2.6c0-0.8,0.2-1.6,0.5-2.7c0.3-1,0.7-2.1,1.1-3.2l27.2-65.5c1.2-2.8,2.2-5.5,2.9-8.1
		c0.8-2.6,1.1-4.9,1.1-7c0-2-0.7-3.9-2.1-5.6c-1.4-1.7-3.7-2.5-6.8-2.5c-3.3,0-6.5,1.3-9.6,4c-3.1,2.6-6,5.7-8.8,9.1l-36.4,45l4,3.2
		l32-39.6c0.9-1.2,1.8-1.8,2.9-1.8c0.5,0,1,0.1,1.4,0.4c0.4,0.3,0.6,0.7,0.6,1.4c0,0.4-0.2,1-0.5,1.8l-25.9,59.9
		c-2.3,5.3-4,9.8-5.3,13.4c-1.3,3.7-1.9,6.9-1.9,9.5c0,2.9,1.1,5.3,3.2,7.2c2.2,1.9,4.8,2.8,8.1,2.8c2,0,4.1-0.3,6.1-0.8
		c2-0.5,4-1.4,6-2.7c2-1.2,4.1-2.9,6.4-5.1c2.3-2.2,4.7-4.9,7.3-8.1l24.8-30.6c-1,4.8-1.5,9.6-1.5,14.4c0,5.6,0.9,10.5,2.7,14.6
		c1.8,4.2,4.2,7.6,7.1,10.4c3,2.8,6.3,4.8,10.1,6.1c3.8,1.4,7.7,2,11.7,2c5,0,9.9-0.9,14.7-2.7c4.9-1.8,9.5-4.2,13.8-7.3
		c4.4-3.1,8.5-6.7,12.5-10.8c3.9-4.2,7.5-8.6,10.8-13.3c2.8-0.3,5.6-1,8.3-1.9c2.8-1,5.6-2.4,8.5-4.4c2.9-1.9,5.9-4.4,8.9-7.5
		c1.8-1.8,3.8-4,5.8-6.4l0.1,0c0.7-0.9,1.4-1.8,2.1-2.7c0.6-0.7,1.2-1.4,1.8-2.1l0,0c7.3-9.4,13.6-17.4,18.6-23.9
		c5.9-7.7,10.7-14.1,14.3-19.4c1.5,2.8,2.9,6.2,4.1,10.1c1.2,3.9,1.9,9,1.9,15.1c0,7.1-0.8,14.4-2.4,21.9
		c-1.6,7.5-3.9,14.3-6.7,20.3c-2.9,6-6.2,11-10.1,14.9c-3.9,3.9-8.1,5.8-12.6,5.8c-1.6,0-2.4-0.7-2.4-2c0-1.3,0.1-2.8,0.2-4.4
		c0.2-1.6,0.1-3.1-0.3-4.4c-0.4-1.4-1.7-2-3.8-2c-1.7,0-3.7,0.7-5.8,2.2c-2.2,1.5-4.2,3.2-6.1,5.2c-1.9,2-3.6,4.1-4.9,6.4
		c-1.3,2.3-1.9,4.2-1.9,5.8c0,1.5,0.3,2.7,1,3.6c0.7,0.9,1.5,1.6,2.6,2.2c1.1,0.5,2.3,0.9,3.6,1.1c1.3,0.2,2.5,0.2,3.7,0.2
		c1.8,0,3.6-0.1,5.4-0.4c1.8-0.3,3.6-0.7,5.4-1.2c6.1-1.6,12.6-4,19.3-7.2c6.7-3.2,13.6-7.2,20.5-12.1c6.9-4.8,13.8-10.5,20.7-17
		c6.9-6.5,13.6-13.9,20.1-22.2L529.3,278z M415.7,256.9c-1.1,4.4-2.5,9-4.4,13.7c-1.8,4.8-4,9.7-6.5,14.7c-2.5,5-5.2,9.8-8.1,14.4
		c-4-2.2-6.9-5.4-8.8-9.7c-1.9-4.3-2.8-9.4-2.8-15.2c0-4.8,0.9-9.6,2.7-14.2c1.8-4.6,3.9-8.6,6.5-12.1c2.5-3.5,5.2-6.3,8-8.4
		c2.8-2.1,5.2-3.2,7.3-3.2c0.6,0,1.4,0.1,2.3,0.3c0.9,0.2,1.8,0.6,2.6,1.2c0.8,0.6,1.5,1.4,2,2.5c0.5,1.1,0.8,2.5,0.8,4.2
		C417.3,248.6,416.8,252.5,415.7,256.9z"/>
</g>
<g>
	<path d="M152.7,456.9h-26.5v-49.9h25.3v5.3H132v16.6h18v5.3h-18v17.5h20.6V456.9z"/>
	<path d="M159.9,454.9V448c0.8,0.7,1.7,1.3,2.8,1.9c1.1,0.6,2.3,1,3.5,1.4c1.2,0.4,2.4,0.7,3.7,0.9c1.2,0.2,2.4,0.3,3.4,0.3
		c3.6,0,6.3-0.7,8.1-2c1.8-1.3,2.7-3.3,2.7-5.8c0-1.3-0.3-2.5-0.9-3.5c-0.6-1-1.4-1.9-2.5-2.7c-1-0.8-2.3-1.6-3.7-2.4
		c-1.4-0.8-3-1.6-4.6-2.4c-1.7-0.9-3.4-1.8-4.9-2.7c-1.5-0.9-2.8-1.9-3.9-3s-2-2.3-2.6-3.7c-0.6-1.4-1-3-1-4.9
		c0-2.3,0.5-4.3,1.5-5.9c1-1.7,2.3-3.1,3.9-4.2c1.6-1.1,3.5-1.9,5.5-2.4c2.1-0.5,4.2-0.8,6.4-0.8c4.9,0,8.5,0.6,10.8,1.8v6.6
		c-3-2-6.7-3.1-11.4-3.1c-1.3,0-2.6,0.1-3.8,0.4c-1.3,0.3-2.4,0.7-3.4,1.3c-1,0.6-1.8,1.4-2.4,2.3c-0.6,0.9-0.9,2.1-0.9,3.5
		c0,1.3,0.2,2.4,0.7,3.3c0.5,0.9,1.2,1.8,2.1,2.5c0.9,0.8,2.1,1.5,3.4,2.2c1.3,0.7,2.9,1.5,4.6,2.4c1.8,0.9,3.5,1.8,5.1,2.8
		c1.6,1,3,2.1,4.2,3.2c1.2,1.2,2.2,2.5,2.9,3.9c0.7,1.4,1.1,3.1,1.1,4.9c0,2.5-0.5,4.5-1.4,6.3c-1,1.7-2.3,3.1-3.9,4.2
		c-1.6,1.1-3.5,1.8-5.7,2.3c-2.1,0.5-4.4,0.7-6.8,0.7c-0.8,0-1.8-0.1-2.9-0.2c-1.2-0.1-2.3-0.3-3.6-0.6c-1.2-0.2-2.4-0.5-3.4-0.9
		C161.4,455.7,160.6,455.3,159.9,454.9z"/>
	<path d="M270.6,456.9h-5.8v-33.5c0-2.6,0.2-5.9,0.5-9.7h-0.1c-0.6,2.3-1.1,3.9-1.5,4.8l-17.1,38.4h-2.9l-17-38.1
		c-0.5-1.1-1-2.8-1.5-5.1H225c0.2,2,0.3,5.3,0.3,9.8v33.4h-5.6v-49.9h7.7l15.3,34.8c1.2,2.7,1.9,4.7,2.3,6h0.2
		c1-2.7,1.8-4.8,2.4-6.1l15.6-34.7h7.3V456.9z"/>
	<path d="M294.4,406.9v5h-4.9v39.9h4.9v5h-15.6v-5h4.9V412h-4.9v-5H294.4z"/>
	<path d="M328.1,438v18.9h-5.8v-49.9h13.7c5.3,0,9.5,1.3,12.4,3.9c2.9,2.6,4.4,6.3,4.4,11c0,4.7-1.6,8.6-4.9,11.6
		c-3.3,3-7.7,4.5-13.2,4.5H328.1z M328.1,412.2v20.5h6.1c4,0,7.1-0.9,9.2-2.8c2.1-1.8,3.2-4.4,3.2-7.8c0-6.6-3.9-9.9-11.7-9.9H328.1
		z"/>
	<path d="M400.8,456.9h-6.5l-5.3-14h-21.2l-5,14h-6.5l19.2-49.9h6.1L400.8,456.9z M387.1,437.6l-7.8-21.3c-0.3-0.7-0.5-1.8-0.8-3.3
		h-0.1c-0.2,1.4-0.5,2.5-0.8,3.3l-7.8,21.3H387.1z"/>
	<path d="M440.7,408.3l-29.2,43.2H440v5.3h-37.3v-1.6l29-43h-26.7v-5.3h35.7V408.3z"/>
</g>
</svg>
