<?xml version="1.0" encoding="utf-8"?>
<!-- Generator: Adobe Illustrator 25.3.0, SVG Export Plug-In . SVG Version: 6.00 Build 0)  -->
<svg version="1.1" id="Capa_1" xmlns="http://www.w3.org/2000/svg" xmlns:xlink="http://www.w3.org/1999/xlink" x="0px" y="0px"
	 viewBox="0 0 566.9 566.9" style="enable-background:new 0 0 566.9 566.9;" xml:space="preserve">
<style type="text/css">
	.st0{fill:#020203;}
</style>
<g>
	<path class="st0" d="M393.1,249.4l-0.1-0.1h-0.3c-0.8,0-1.6,0.2-2.6,0.6c-1.1,0.5-4.1,2.9-9.1,7.2c-5,4.3-7.7,7-8.3,8
		c-0.2,0.3-0.3,0.7-0.3,1.3c0,0.9,0.3,1.9,0.8,2.8c0.5,0.9,1.2,1.5,2,1.9c0.5,0.2,1.1,0.3,1.6,0.3c1,0,2.6-0.6,4.7-1.9
		c2.1-1.2,6.2-3.8,12.3-7.8c2.9-1.8,4.3-3.8,4.3-6.2c0-0.5,0-1-0.1-1.3c-0.1-0.9-0.7-1.8-1.7-2.9
		C395.1,250.3,394.1,249.6,393.1,249.4z"/>
	<path class="st0" d="M510.5,303.5c-1.2,0-7,3.7-17.3,11.1c-10.3,7.4-18.9,14-25.8,19.8c-4.6,3.9-7.1,5.8-7.7,5.8h-0.1
		c0-0.5-1.8-4-5.3-10.6c-3.5-6.4-5.8-11.2-7-14.4c-1.2-3.2-1.8-6.3-1.9-9.3v-0.5c0-2.9,0.5-5.4,1.4-7.4c2.3-5,6.9-10,13.7-14.9
		c6.8-4.9,13.6-7.5,20.3-7.8c2-0.1,3.4-0.2,4-0.5c0.7-0.2,1.5-0.9,2.4-2c1.2-1.4,1.7-2.6,1.7-3.6c0-0.6,0-1.1-0.1-1.5
		c-0.3-2.9-1.6-5.1-4-6.7c-2.3-1.6-5.3-2.4-9-2.4c-0.5,0-1.1,0.1-2,0.2c-0.9,0.1-1.4,0.2-1.6,0.2c-9.2,1.2-18,6-26.4,14.4
		c-8.3,8.3-13,17.1-14,26.2c-0.2,1.4-0.2,2.4-0.2,3.1c0,2.2,0.4,4.7,1.1,7.2c-4.5,9-9.7,17.9-15.5,26.9
		c-5.9,9.1-10.5,15.2-13.7,18.3c-3.4,3.2-6,4.8-7.7,4.8c-0.5,0-0.9,0-1.2-0.1c-0.8-0.3-1.5-1.6-2-3.8c-0.6-2.2-0.9-4.8-0.9-7.6
		c0-1.2,0-2,0.1-2.6c0.5-6.6,1.7-13.5,3.8-20.6c2.1-7.2,5.6-17.3,10.8-30.3c4.5-11.6,6.7-18,6.7-19.2v-0.2c0-1.3-0.4-2.6-1.2-3.8
		c-0.8-1.2-1.7-2-2.8-2.4c-0.9-0.3-1.6-0.5-2.1-0.5c-2.6,0-4.7,1.1-6.3,3.4c-2.7,3.7-6,9.9-9.9,18.6c-1.9,4.3-6.1,10.6-12.4,18.9
		c-6.4,8.3-11.5,14.2-15.4,17.6c-3.7,3.3-6.6,5-8.5,5c-0.2,0-0.4,0-0.5-0.1c-0.3-0.2-0.5-0.9-0.5-1.9c0-2.2,0.7-5.7,2.2-10.5
		c1.5-4.8,3.3-9.8,5.6-14.8c1.8-4,2.7-7,2.7-8.8v-1.3c-0.2-3.1-1.3-5.5-3.1-7.2c-1.9-1.7-4.3-2.5-7.4-2.5h-0.1
		c-3.4,0.1-6.2,1.5-8.4,4.2c-2.2,2.8-3.9,7-5.1,12.9c-0.2,1-0.3,1.9-0.4,2.8c-2.9,1.7-7.5,4.9-13.8,9.4c-10.3,7.4-18.9,14-25.8,19.8
		c-4.6,3.9-7.1,5.8-7.7,5.8h-0.1c0-0.5-1.8-4-5.3-10.6c-3.5-6.4-5.8-11.2-7-14.4c-1.2-3.2-1.8-6.3-1.9-9.3v-0.5
		c0-2.9,0.5-5.4,1.4-7.4c2.3-5,6.9-10,13.7-14.9c6.8-4.9,13.6-7.5,20.3-7.8c2-0.1,3.4-0.2,4-0.5c0.7-0.2,1.5-0.9,2.4-2
		c1.2-1.4,1.7-2.6,1.7-3.6c0-0.6,0-1.1-0.1-1.5c-0.3-2.9-1.6-5.1-4-6.7c-2.3-1.6-5.3-2.4-9-2.4c-0.5,0-1.1,0.1-2,0.2
		c-0.9,0.1-1.4,0.2-1.6,0.2c-9.2,1.2-18,6-26.4,14.4s-13,17.1-14,26.2c-0.2,1.4-0.2,2.4-0.2,3.1c0,1.1,0.2,2.2,0.4,3.4
		c-2.2,2.2-5,5.1-8.6,8.9c-8.8,9.2-14.5,15-17.2,17.2c-3.1,2.6-6.5,4.9-10.1,6.7c-3.6,1.9-6.8,3-9.5,3.3c-0.2,0-0.3,0-0.6,0.1
		c-0.2,0-0.4,0.1-0.6,0.1c-3.3,0-5.7-1.5-7.2-4.4c-1.6-2.9-2.3-6.7-2.3-11.2c0-2.9,0.3-5.9,0.9-9l0.7-3.4l2.8,1.4
		c1.5,0.8,3.3,1.2,5.6,1.2c3.3,0,6.3-0.7,9.2-2.1c5-2.4,9.3-6.8,12.9-13.1c3.6-6.4,5.5-12.3,5.5-17.9c0-2.3-0.4-4.5-1.3-6.4
		c-2.4-5.2-6.4-7.8-12-7.8c-2.4,0-4.8,0.4-7.1,1.3c-8.3,2.9-15.4,8.9-21.2,18.2c-2.7,4.2-4.7,8.7-6.3,13.3c-4,0.9-10,2.6-17.9,5.1
		c-12.7,4-19.5,6-20.4,6c-0.2,0-0.4,0-0.4-0.1c0.6-1.6,1.9-6,3.9-13.3c2-7.3,3.4-12.6,4.1-15.9c3.4-15.2,5.1-30.1,5.1-44.8
		c0-5.5-0.4-11.1-1.2-16.8c-2.7-18.8-10.3-31.5-22.8-37.9c-4.3-2.2-10-3.4-17.1-3.4c-4.3,0-8,0.4-11.1,1.3
		c-9.2,2.3-18.5,7.4-28,15.4c-9.5,7.9-17.6,17.3-24.3,28c-5,8.1-8.9,16.5-11.9,25.2c-1.5,4.4-2.3,8.8-2.3,13.1
		c0,4.2,1.1,6.3,3.4,6.3c1,0,1.7-0.4,2.1-1.3c0.4-0.9,0.8-2.5,1-4.9c0.5-5.7,3.3-13.4,8.1-22.9c3-6,6-11,8.8-15
		c2.9-4,6.5-8.3,10.8-12.7c6.7-6.8,13.8-12.2,21.2-16.1c7.4-3.9,14.2-5.8,20.3-5.8c1.1,0,1.9,0,2.3,0.1c9.2,0.9,15.8,5.3,19.8,13.3
		c1.9,3.8,3.1,7.5,3.7,11.2c0.6,3.6,0.9,9.1,0.9,16.4v0.3c0,25.2-5.4,52.2-16.3,81l-3.4,8.7l-7.8,3.6c-11.5,5.4-23.7,11.9-36.8,19.5
		c-13,7.7-23.6,14.7-31.6,20.9c-3.4,2.6-7.3,6.1-11.6,10.4c-4.3,4.3-7.6,7.9-9.8,10.9c-6.7,8.8-10.1,17-10.1,24.6
		c0,2.9,0.5,5.4,1.6,7.4c3.3,6.5,9.2,9.8,17.7,9.8c10.5,0,23.2-4.9,37.8-14.7c14.7-9.7,27.9-22.2,39.6-37.6
		c11.7-15.4,21.2-32.2,28.3-50.6l2-5l11.2-3.8c13.2-4.5,22.7-7.5,28.7-9.2c-0.7,3.3-1.2,6.7-1.4,10.2c0,0.3,0,0.8-0.1,1.4
		c0,0.6-0.1,1.1-0.1,1.4c0,8.8,2,16,6,21.4c4,5.4,9.3,8.1,16,8.1c7.4,0,15.2-3.3,23.4-10c3.6-2.9,9.8-9.3,18.8-19.1
		c3-3.3,5.5-6.2,7.6-8.6c1.6,4.4,3.9,9.2,7.1,14.6c4.3,7.3,7,11.8,7.9,13.4l3.3,5.6l-4.9,5.4c-15,17-23.9,30.8-26.8,41.5
		c-0.5,2.2-0.8,4.4-0.8,6.7c0,5.1,1.5,9.4,4.4,12.7c2.9,3.3,6.8,5,11.6,5c3.3,0,6.9-0.9,10.8-2.8c3.1-1.5,6.3-3.9,9.6-7.2
		c3.3-3.3,5.8-6.6,7.5-9.9c3.4-6.7,5.1-14.1,5.1-22.3c0-7.2-1.4-15.1-4.1-23.7l-2-6.2l3-2.7c8.8-8,22.2-18.5,40.3-31.5
		c-0.1,1.6-0.3,3.2-0.3,4.7c0,10.2,1.9,17.4,5.8,21.5c2.3,2.5,5,3.7,8,3.7c6.6,0,14.6-6,24-17.9c2.7-3.5,4.2-5.2,4.5-5.2v0.2
		c0,0.8-0.3,2.9-0.8,6.3c-0.6,3.7-0.9,8-0.9,12.8c0,8.1,0.7,14.1,2,17.9c2.7,8.5,7.3,12.7,13.6,12.7h0.1c4.3,0,8.7-2.2,13.1-6.7
		c4.4-4.5,9.7-11.9,15.7-22.4c2.7-4.6,6.2-11.2,10.5-19.7c0.6-1.1,1-2,1.5-3c1.5,3.4,3.2,7,5.6,11c4.3,7.3,7,11.8,7.9,13.4l3.3,5.6
		l-4.9,5.4c-15,17-23.9,30.8-26.8,41.5c-0.5,2.2-0.8,4.4-0.8,6.7c0,5.1,1.5,9.4,4.4,12.7c2.9,3.3,6.8,5,11.6,5
		c3.3,0,6.9-0.9,10.8-2.8c3.1-1.5,6.3-3.9,9.6-7.2c3.3-3.3,5.8-6.6,7.5-9.9c3.4-6.7,5.1-14.1,5.1-22.3c0-7.2-1.4-15.1-4.1-23.7
		l-2-6.2l3-2.7c8.9-8.1,22.6-18.8,41-32c4.6-3.2,6.9-5.2,6.9-6.1c0-0.8-0.3-1.4-0.9-1.9C512.1,303.8,511.4,303.5,510.5,303.5z
		 M214.1,304.9c2-4,4.6-7.9,7.9-11.6c3.2-3.7,6.1-6.2,8.8-7.4l3-1.5c0.5,1.6,0.8,3,0.8,4.2c0,0.9-0.1,2-0.3,3.4
		c-1.6,8.3-5.2,13.9-10.9,16.8c-2.1,1-3.8,1.5-5.2,1.5c-1.5,0-3.3-0.9-5.4-2.6L214.1,304.9z M132.8,332.1c0,0.7-1.7,4.3-5.1,10.8
		c-6.7,12.9-12.8,22.9-18.3,30c-8.5,11.1-17.5,20.7-27.3,29c-9.7,8.2-18.7,13.8-27,16.9c-3.7,1.3-6.9,2-9.4,2c-3,0-5.4-0.8-7-2.4
		c-1.7-1.6-2.5-3.8-2.5-6.7c0-5.5,2.7-11.9,8-19.3c2.1-2.9,4.9-6.2,8.6-10c3.6-3.8,7-6.9,10.1-9.4c3.6-2.9,8.9-6.7,16-11.3
		c7.1-4.7,13.5-8.7,19.1-11.9c4.3-2.6,11.1-6.1,20.2-10.8c9.1-4.6,14-6.9,14.7-6.9V332.1z M281.4,404.3c-4.9,4.9-9.7,7.3-14.4,7.3
		c-2.1,0-3.9-0.7-5.4-2c-2.2-2-3.3-4.7-3.3-8c0-4.9,2.3-11.1,6.9-18.6c3-5,7.3-10.8,12.7-17.6c5.4-6.7,8.6-10.1,9.5-10.1h0.1
		c0.4,0.4,1.2,2.8,2.3,7.2c1.4,5.3,2.1,10.3,2.1,14.8C292,388.2,288.4,397.2,281.4,404.3z M448.9,404.3c-4.9,4.9-9.7,7.3-14.4,7.3
		c-2.1,0-3.9-0.7-5.4-2c-2.2-2-3.3-4.7-3.3-8c0-4.9,2.3-11.1,6.9-18.6c3-5,7.3-10.8,12.7-17.6c5.4-6.7,8.6-10.1,9.5-10.1h0.1
		c0.4,0.4,1.2,2.8,2.3,7.2c1.4,5.3,2.1,10.3,2.1,14.8C459.5,388.2,455.9,397.2,448.9,404.3z"/>
	<path class="st0" d="M225.2,387.4c-6.1-5.7-12.3-11.5-17.1-16.4c-4.1-4.2-9-10.3-14.5-18.2c-2.1-3.1-6.4-3.8-9.4-1.7
		c-3.1,2.1-3.8,6.4-1.7,9.4c6,8.6,11.2,15.2,15.9,19.9c5,5.1,11.4,11.1,17.5,16.9c3.9,3.6,7.7,7.2,10.9,10.3c1.3,1.3,3,1.9,4.7,1.9
		c1.8,0,3.5-0.7,4.9-2.1c2.6-2.7,2.5-7-0.1-9.6C233,394.7,229.1,391.1,225.2,387.4z"/>
	<path class="st0" d="M357.9,381.7c-3.5,4.8-6.8,9.8-9.7,14.9l-2.3,3.9c-23,39.8-35.6,61.7-41,93.2c-6.7-14.1-13.3-27-26.9-43.5
		c-2.4-2.9-6.7-3.3-9.5-0.9c-2.9,2.4-3.3,6.7-0.9,9.5c14.1,17.1,20,29.8,27.5,45.9c2,4.3,4.1,8.7,6.4,13.5c1.3,2.7,4.1,4.4,7,4.4
		c0.5,0,1,0,1.4-0.1c3.4-0.6,5.9-3.5,6.1-6.9c2.9-41,14.3-60.7,41.6-108.3l2.3-3.9c2.7-4.7,5.7-9.3,8.9-13.6c2.2-3,1.6-7.3-1.4-9.5
		C364.4,378.1,360.2,378.7,357.9,381.7z"/>
	<path class="st0" d="M100.8,157c0.1,0,0.1,0,0.2,0c3.7-0.1,6.7-3.2,6.6-7c-0.5-18.3,6.5-34.8,21-49.1
		c21.8-21.5,55.1-32.2,75.5-31.2c25.1,1.1,50.6,14.9,69.8,37.9c26,31,32.6,53.8,41.8,85.4l2,7c1,3.5,4.2,6,7.9,6.1
		c3.6,0.2,7-2.1,8.3-5.5c11.2-29.8,24.7-48.9,49.7-70.7c23.9-20.8,56.3-29.7,86.6-23.8c8.5,1.7,14.6,4,19.1,7.4
		c11.8,8.8,26.1,34.8,26.4,47.9c0.7,27-6,45-18.7,69c-1.8,3.3-0.5,7.4,2.8,9.2c1,0.5,2.1,0.8,3.2,0.8c2.4,0,4.8-1.3,6-3.6
		c13.5-25.4,21.1-45.9,20.3-75.7c-0.5-18.9-17.9-47.9-31.9-58.3c-8.1-6.1-17.9-8.5-24.6-9.8c-34.4-6.7-71,3.3-98.1,26.8
		c-22.6,19.7-36.9,38.1-48,62.8c-8.5-28.8-16.6-52.7-42.4-83.5c-21.6-25.9-50.6-41.4-79.6-42.7c-23.9-1-60.8,10.7-85.6,35.1
		c-17,16.8-25.7,37.2-25,59.1C94.1,154.1,97.1,157,100.8,157z"/>
</g>
</svg>
