<?xml version="1.0" encoding="utf-8"?>
<!-- Generator: Adobe Illustrator 25.3.0, SVG Export Plug-In . SVG Version: 6.00 Build 0)  -->
<svg version="1.1" id="Capa_1" xmlns="http://www.w3.org/2000/svg" xmlns:xlink="http://www.w3.org/1999/xlink" x="0px" y="0px"
	 viewBox="0 0 566.9 566.9" style="enable-background:new 0 0 566.9 566.9;" xml:space="preserve">
<style type="text/css">
	.st0{fill:#020203;}
	.st1{fill:#FFFFFF;}
</style>
<g>
	<path class="st0" d="M87.4,318.5H69.2l-3.5,6.7H52.4L78.3,277l25.9,48.2H90.9L87.4,318.5z M82.7,309.4l-4.4-8.5l-4.4,8.5H82.7z"/>
	<path class="st0" d="M157.8,314.8v10.4h-23.2h-0.1H123V277h11.6v37.8H157.8z"/>
	<path class="st0" d="M209.5,302.1c0,13.7-11.1,24.8-24.8,24.8c-13.7,0-24.8-11.1-24.8-24.8c0-13.7,11.1-24.8,24.8-24.8
		C198.4,277.2,209.5,288.4,209.5,302.1z M199.1,302.1c0-3.9-1.5-7.5-4.2-10.2c-2.7-2.7-6.4-4.2-10.2-4.2s-7.5,1.5-10.2,4.2
		c-2.7,2.7-4.2,6.4-4.2,10.2s1.5,7.5,4.2,10.2c2.7,2.7,6.4,4.2,10.2,4.2s7.5-1.6,10.2-4.2C197.6,309.6,199.1,305.9,199.1,302.1z"/>
	<path class="st0" d="M223.9,323.9c-2.4-1-4.3-2.4-6.1-3.9c-5.6-5.2-4.9-12.1-4.9-12.7l10.2,0.1v-0.1c0,0,0,2.7,1.2,4.5
		c1.5,2.2,4.2,3.3,8.2,3.3c6.7,0,9.6-1.7,9.6-4.5c0-3-3.8-4.8-9.9-5.5c-3.8-0.4-7.1-1.3-9.8-2.4c-2.5-1-4.6-2.4-6.2-4.1
		c-2.2-2.5-3.3-5.3-3.3-8.6c0-4.5,1.8-7.6,3.3-9.3c3.4-3.9,8.9-5.9,16.5-5.9c9.9,0,14.8,4.4,17.2,8c2.5,3.9,2.7,8.5,2.7,9.2h-10.2
		v0.1c0,0,0.1-2.2-1.1-3.8c-1.5-2.1-4.5-3.3-8.6-3.3c-4.3,0-9.3,1.1-9.3,4.4c0,3.1,3.3,5,9.9,5.7c7.3,0.8,12.8,3.1,16,6.9
		c2.1,2.5,3.3,5.5,3.3,8.7c0,1.6,0,5.5-3.2,9c-1.6,1.9-3.9,3.3-6.6,4.2c-2.8,1-6.2,1.4-10.3,1.4
		C229.3,325.3,226.4,324.8,223.9,323.9z"/>
	<path class="st0" d="M316.7,293.5c0,6.8-4.6,16.4-17.3,16.4c-4.3,0-8.2,0-11.4,0v15.3h-11.6v-15.3V277h11.6c1.5,0,4.7,0,11.6,0
		C311.3,277,316.7,286.1,316.7,293.5z M306.3,293.5c0-1.2-0.4-2.9-1.6-4.2c-1.2-1.3-2.9-1.9-5.3-1.9h-11.6v12.1h11.4
		c1.6,0,2.8-0.2,3.9-0.7c0.7-0.4,1.2-0.7,1.7-1.3C305.9,296.3,306.3,294.6,306.3,293.5z"/>
	<path class="st0" d="M331.6,277v48.2h-11.6V277H331.6z"/>
	<path class="st0" d="M346.5,314.8h22.1v10.4H335V277h33.7v10.4h-22.1v8.5h18.8v10.4h-18.8V314.8z"/>
	<path class="st0" d="M381.5,323.9c-2.4-1-4.3-2.4-6.1-3.9c-5.6-5.2-4.9-12.1-4.9-12.7l10.2,0.1v-0.1c0,0,0,2.7,1.2,4.5
		c1.5,2.2,4.2,3.3,8.2,3.3c6.7,0,9.6-1.7,9.6-4.5c0-3-3.8-4.8-9.9-5.5c-3.8-0.4-7.1-1.3-9.8-2.4c-2.5-1-4.6-2.4-6.2-4.1
		c-2.2-2.5-3.3-5.3-3.3-8.6c0-4.5,1.8-7.6,3.3-9.3c3.4-3.9,8.9-5.9,16.5-5.9c9.9,0,14.8,4.4,17.2,8c2.5,3.9,2.7,8.5,2.7,9.2h-10.2
		v0.1c0,0,0.1-2.2-1.1-3.8c-1.5-2.1-4.5-3.3-8.6-3.3c-4.3,0-9.3,1.1-9.3,4.4c0,3.1,3.3,5,9.9,5.7c7.3,0.8,12.8,3.1,16,6.9
		c2.1,2.5,3.3,5.5,3.3,8.7c0,1.6,0,5.5-3.2,9c-1.6,1.9-3.9,3.3-6.6,4.2c-2.8,1-6.2,1.4-10.3,1.4C387,325.3,384.1,324.8,381.5,323.9z
		"/>
	<path class="st0" d="M476.4,301.4c0,13.3-10.8,24.1-24.1,24.1h-17.7H434v-48.2h0.1h18.2C465.6,277.3,476.4,288.1,476.4,301.4z
		 M465.3,301.4c0-3.5-1.3-6.7-3.8-9.3c-2.4-2.5-5.8-3.8-9.3-3.8h-6.7v26h6.7c3.5,0,6.7-1.3,9.2-3.8
		C464,308.2,465.3,304.9,465.3,301.4z"/>
	<path class="st0" d="M492.5,314.8h22.1v10.4h-33.7V277h33.7v10.4h-22.1v8.5h18.8v10.4h-18.8V314.8z"/>
</g>
<polygon class="st0" points="498.1,430 514.6,355.1 52.4,355.1 67.9,430 52.4,505 514.6,505 "/>
<g>
	<path class="st1" d="M156.3,399.2h14.9v62c0,14.5-3.9,22.6-22.6,22.6v-14.9c4.4,0,7.7-2.4,7.7-7.7V399.2z"/>
	<path class="st1" d="M199,447.8h28.4v13.4h-43.3v-62h43.3v13.4H199v11h24.1v13.4H199V447.8z"/>
	<path class="st1" d="M251.3,459.5c-3.1-1.2-5.5-3-7.8-5.1c-7.3-6.7-6.3-15.6-6.3-16.4l13.1,0.2v-0.1c0,0,0,3.5,1.5,5.8
		c1.9,2.9,5.4,4.3,10.6,4.3c8.6,0,12.4-2.2,12.4-5.8c0-3.8-4.9-6.2-12.8-7.1c-4.9-0.6-9.2-1.6-12.6-3.1c-3.2-1.3-5.9-3.1-7.9-5.3
		c-2.9-3.2-4.3-6.9-4.3-11.1c0-5.8,2.3-9.7,4.3-12c4.4-5,11.5-7.5,21.2-7.5c12.8,0,19.1,5.6,22.1,10.3c3.2,5.1,3.4,10.9,3.4,11.8
		h-13.1v0.1c0,0,0.1-2.9-1.4-4.9c-1.9-2.7-5.7-4.3-11.1-4.3c-5.5,0-11.9,1.4-11.9,5.6c0,4,4.2,6.4,12.7,7.4c9.4,1,16.4,4,20.6,8.9
		c2.8,3.2,4.2,7.1,4.2,11.2c0,2,0,7.1-4.1,11.6c-2.1,2.4-5,4.2-8.5,5.4c-3.6,1.2-8,1.8-13.3,1.8
		C258.2,461.3,254.5,460.7,251.3,459.5z"/>
	<path class="st1" d="M354.2,399.2c0,11.2,0,25.7,0,35.8c0,16.6-14.6,26.2-26.6,26.2c-11.1,0-26.4-8.9-26.4-26.4
		c0-9.4,0-24.2,0-35.6H315v35.6c0,3.8,1.3,6.9,4.1,9.2c2.8,2.4,6.3,3.4,8.5,3.4c1.3,0,2.9-0.4,4.3-0.9c1.6-0.7,3.2-1.5,4.5-2.7
		c1.2-1.1,2.3-2.4,3-3.8c0.8-1.5,1-3.1,1-5.1v-35.8H354.2z M329.7,376.3l7,7l-11,11l-7-7L329.7,376.3z"/>
	<path class="st1" d="M381.4,459.5c-3.1-1.2-5.5-3-7.8-5.1c-7.3-6.7-6.3-15.6-6.3-16.4l13.1,0.2v-0.1c0,0,0,3.5,1.5,5.8
		c1.9,2.9,5.4,4.3,10.6,4.3c8.6,0,12.4-2.2,12.4-5.8c0-3.8-4.9-6.2-12.8-7.1c-4.9-0.6-9.2-1.6-12.6-3.1c-3.2-1.3-5.9-3.1-7.9-5.3
		c-2.9-3.2-4.3-6.9-4.3-11.1c0-5.8,2.3-9.7,4.3-12c4.4-5,11.5-7.5,21.2-7.5c12.8,0,19.1,5.6,22.1,10.3c3.2,5.1,3.4,10.9,3.4,11.8
		h-13.1v0.1c0,0,0.1-2.9-1.4-4.9c-1.9-2.7-5.7-4.3-11.1-4.3c-5.5,0-11.9,1.4-11.9,5.6c0,4,4.2,6.4,12.7,7.4c9.4,1,16.4,4,20.6,8.9
		c2.8,3.2,4.2,7.1,4.2,11.2c0,2,0,7.1-4.1,11.6c-2.1,2.4-5,4.2-8.5,5.4c-3.6,1.2-8,1.8-13.3,1.8
		C388.3,461.3,384.6,460.7,381.4,459.5z"/>
</g>
<g>
	<path class="st0" d="M73.7,108.3v33.8c0,2.9-3.6,6.2-6.6,6.2H52.4v-7h14.3l-2.5-27.7l-11.9-3.1V80c0-2.2,2-4.9,4.1-4.9h17.2v5.1
		l-14.7,2l1.5,22.8L73.7,108.3z"/>
	<path class="st0" d="M83.1,84.8l-1.9-5v-4.7h10.4l-0.9,73.3h-7.6V84.8z"/>
	<path class="st0" d="M122.9,75.1l6.2,70.7h0.5l6.9-69.6h6.8l-10,72.2h-10.8l-6.1-73.3H122.9z"/>
	<path class="st0" d="M163.8,120.9l-8.3,3.9l-2.3,23.5h-6.4l4.6-73.3h16.3l4.2,73.3h-4.5L163.8,120.9z M161.8,79.4l-4.4,1
		c-0.4,0.2-0.6,0.5-0.6,1v36.3c0,0.3,0.2,0.5,0.6,0.5l3.8-0.6c0.4,0,0.6-0.2,0.6-0.6l0.6-37C162.4,79.6,162.2,79.4,161.8,79.4z"/>
	<path class="st0" d="M201,108.3v33.8c0,2.9-3.6,6.2-6.6,6.2h-14.8v-7h14.3l-2.5-27.7l-11.9-3.1V80c0-2.2,2-4.9,4.1-4.9H201v5.1
		l-14.7,2l1.5,22.8L201,108.3z"/>
	<path class="st0" d="M241,119.7h-5.3l-4.7,28.7h-4.8l4.6-73.3h18.9v73.3h-6L241,119.7z M242.6,78.4h-4.4c-0.4,0-0.6,0.2-0.6,0.6
		v35.3c0,0.3,0.2,0.5,0.6,0.5h4.4c0.4,0,0.6-0.2,0.6-0.6V79C243.2,78.6,243,78.4,242.6,78.4z"/>
	<path class="st0" d="M278.4,148.4v-69l-2.3-1.2v-3h16.1c5.3,0,9.2,2.3,9.3,5.1l-1,28.6c0,1-0.7,5.4-6.5,7l6.1,11.3l2.2,21.3
		l-7.5,0.3l-1.6-20.2l-5.7-12.2h-3v32.1H278.4z M287.1,109.7h5.5c0.4,0,0.6-0.2,0.6-0.6l0.6-26.1c0-1.4-0.4-3.4-6.7-3.4
		c-0.8,0.3-1.2,0.7-1.2,1.2v28.1C285.8,109.1,286.4,109.7,287.1,109.7z"/>
	<path class="st0" d="M311.9,75.1h22.1v6.4l-12.9-0.6v23.4l12.9,2.4v5l-14.7-0.6v29.6l14.7-0.8v8.6h-22.1V75.1z"/>
	<path class="st0" d="M351.5,91.2h-0.4l-2,59.2h-5.3l3.3-75.3h6.3l10.4,59.7h0.7V75.1h6.1l-2.1,75.3h-7L351.5,91.2z"/>
	<path class="st0" d="M403.1,86.4l-3.1,56l-6.3,5.9H380V75.1h11.9C398.5,75.1,403.1,79.8,403.1,86.4z M393,81.9h-4.6
		c-0.3,0-0.9,0.3-0.9,0.6v58.4l0.9,0.6l3.8-0.5c0.6-0.4,0.9-0.8,0.9-1.3l1.1-57.2C394.3,82.1,393.8,81.9,393,81.9z"/>
	<path class="st0" d="M412.2,84.8l-1.9-5v-4.7h10.4l-0.9,73.3h-7.6V84.8z"/>
	<path class="st0" d="M443.2,75.1h4.4c2.2,0,3.7,1.9,3.8,4.4l1,29.7l-4.6,6.1l8.3,30.7l-2,2.3h-6.1l-5.3-32.1l-5.3,0.5l-2.2,31.6
		h-4.7V76.2C430.6,75.4,439.1,75.1,443.2,75.1z M445.5,108V82.3l-1.5-1.5l-7.1,0.7l0.3,27.5l7.7-0.4
		C445.3,108.6,445.5,108.4,445.5,108z"/>
	<path class="st0" d="M476.8,146.3h-8.7v-66L461,79l1-3.9h22.2V81h-7.4V146.3z"/>
	<path class="st0" d="M492.5,75.1h22.1v6.4l-12.9-0.6v23.4l12.9,2.4v5l-14.7-0.6v29.6l14.7-0.8v8.6h-22.1V75.1z"/>
</g>
<g>
	<path class="st0" d="M269.6,218.1c-2.1,1.8-4.4,3.3-7,4.6c-2.6,1.3-5.3,2.3-8.2,3.1c-2.9,0.7-5.7,1.1-8.5,1.1
		c-2.5,0-3.7-0.9-3.7-2.7c0-0.8,0.2-1.8,0.7-3.1c0.4-1.3,1.1-2.7,1.9-4.5c1.9-0.1,3.9-0.2,6.2-0.5c2.3-0.3,4.5-0.7,6.7-1.2
		c2.2-0.5,4.3-1.3,6.1-2.2c1.9-0.9,3.3-2.1,4.4-3.5c1.5-2,2.6-4.1,3.1-6.3c0.5-2.2,0.8-4.1,0.8-5.8c0-1-0.2-1.9-0.6-2.7
		c-0.4-0.8-1-1.5-2-2c-0.9-0.5-2.3-1-4-1.3c-1.7-0.3-3.9-0.5-6.5-0.5c-3.4,0-6.4,0.3-8.9,0.8c-2.5,0.5-4.7,1.4-6.7,2.6
		c-1.9,1.2-3.6,2.8-5,4.7c-1.4,1.9-2.7,4.3-3.9,7l-3.4,7.6c-0.5,0.7-1.1,1.5-2,2.3c-1.2,1.3-2.6,2.4-4,3.5c-1.5,1.1-3,2-4.5,2.7
		s-2.8,1.1-3.9,1.1c-1.2,0-1.8-0.5-1.8-1.5c0-0.7,0.1-1.3,0.4-1.8l10.7-24.1l-12.8-7l-14.9,33.7c-1.3,3-2.8,4.4-4.2,4.4
		c-0.9,0-1.4-0.5-1.4-1.6c0-1,0.3-2.2,0.8-3.4l13.1-29.4h-15.1l-9.3,21c-0.5,0.7-1.2,1.5-2,2.4c-1.2,1.3-2.6,2.4-4,3.5
		c-1.5,1.1-3,2-4.5,2.7c-1.5,0.7-2.8,1.1-3.9,1.1c-1.2,0-1.8-0.5-1.8-1.5c0-0.6,0.2-1.2,0.5-1.8l12.1-27.4h-12.6l-1,2.3
		c-0.5-1.1-1.4-2.1-2.7-2.9c-1.3-0.8-3.3-1.2-6.1-1.2c-1.8,0-3.6,0.3-5.4,1c-1.8,0.6-3.6,1.7-5.4,3.3c-1.8,1.5-3.6,3.6-5.4,6.2
		c-1.8,2.6-3.6,5.8-5.4,9.6c-0.9,2-1.7,3.8-2.4,5.4c-0.6,1.5-1.1,2.9-1.5,4.1c-0.4,1.2-0.6,2.2-0.8,3.1c-0.1,0.9-0.2,1.7-0.2,2.4
		c0,2.8,0.9,4.9,2.8,6.3c1.8,1.4,4.3,2.1,7.4,2.1c1.4,0,2.5,0,3.1-0.1c0.7-0.1,1.1-0.2,1.4-0.3l-8.1,18.3h15.7l9.7-21.6
		c0.8,0.6,1.8,0.9,3,0.9c1.5,0,3.4-0.5,5.5-1.4c2.1-0.9,4.2-2.1,6.3-3.6c0.6-0.4,1.2-0.9,1.8-1.4c-0.1,0.5-0.1,1.1-0.1,1.6
		c0,2.4,0.7,4.3,2.2,5.7c1.4,1.3,3.7,2,6.8,2c3.1,0,5.8-0.4,8-1.2c2.3-0.8,3.9-1.7,5.1-2.6c0.3,0.9,1,1.8,2,2.6
		c1,0.8,2.5,1.2,4.4,1.2c2.2,0,4.8-0.6,7.7-1.7c2.9-1.1,5.7-2.6,8.5-4.3c1.7-1.1,3.3-2.2,4.8-3.5c0,0.4,0,0.7,0,1
		c0,1.9,0.4,3.4,1.1,4.5c0.7,1.1,1.8,2,3.2,2.6c1.4,0.6,3.1,1,5.2,1.2c2.1,0.2,4.4,0.3,7.1,0.3c5,0,9.4-0.7,13.2-2.1
		c3.8-1.4,7.7-3.5,11.5-6.3c2.1-1.4,3.9-2.9,5.4-4.5c1.5-1.6,2.6-3.2,3.3-4.7l-3.1-3.9C273.3,214.5,271.7,216.4,269.6,218.1z
		 M251.3,201.8c0.7-1.6,1.4-2.7,2.1-3.2c0.6-0.5,1.4-0.8,2.2-0.8c1.3,0,1.9,0.4,1.9,1.3c0,1.6-0.3,3.1-0.8,4.5
		c-0.5,1.4-1.3,2.7-2.2,3.7c-0.9,1.1-2.1,1.9-3.4,2.6c-1.3,0.7-2.7,1.1-4.2,1.2L251.3,201.8z M158.7,201.1l-9.7,21.4
		c-1.3,3-2.8,4.4-4.2,4.4c-1.1,0-1.7-0.5-1.7-1.6c0-0.3,0.1-0.8,0.2-1.3c0.1-0.5,0.4-1.2,0.8-2.2l10-21.9c0.7-1.4,1.8-2.1,3.3-2.1
		c0.5,0,1,0.2,1.3,0.5c0.3,0.3,0.5,0.7,0.5,1.1C159.1,200,159,200.5,158.7,201.1z"/>
	<path class="st0" d="M431.5,215.9c-1.2,1.3-2.6,2.4-4,3.5c-1.5,1.1-3,2-4.5,2.7c-1.5,0.7-2.9,1.1-4,1.1c-1.1,0-1.7-0.5-1.7-1.5
		c0-0.5,0.2-1.2,0.5-1.9c0.3-0.7,0.8-1.9,1.6-3.6l10.6-23.7h-12l-1,2.3c-0.7-1.1-1.7-2.1-2.9-2.9c-1.2-0.8-3.1-1.2-5.9-1.2
		c-1.9,0-3.8,0.3-5.6,0.9c-1.8,0.6-3.6,1.6-5.5,3.1c-1.8,1.5-3.6,3.5-5.5,6.1c-1.9,2.6-3.8,5.9-5.8,9.9c-0.9,1.7-1.6,3.3-2.3,4.8
		c-0.8,0.9-1.6,1.7-2.6,2.5c-2.1,1.8-4.4,3.3-7,4.6c-2.6,1.3-5.3,2.3-8.2,3.1c-2.9,0.7-5.7,1.1-8.5,1.1c-2.5,0-3.7-0.9-3.7-2.7
		c0-0.8,0.2-1.8,0.7-3.1c0.4-1.3,1.1-2.7,1.9-4.5c1.9-0.1,3.9-0.2,6.2-0.5c2.3-0.3,4.5-0.7,6.7-1.2c2.2-0.5,4.3-1.3,6.1-2.2
		c1.9-0.9,3.3-2.1,4.4-3.5c1.5-2,2.6-4.1,3.1-6.3c0.5-2.2,0.8-4.1,0.8-5.8c0-1-0.2-1.9-0.6-2.7c-0.4-0.8-1-1.5-2-2
		c-0.9-0.5-2.3-1-4-1.3c-1.7-0.3-3.9-0.5-6.5-0.5c-3.4,0-6.4,0.3-8.9,0.8c-2.5,0.5-4.7,1.4-6.7,2.6c-1.9,1.2-3.6,2.8-5,4.7
		c-1.4,1.9-2.7,4.3-3.9,7l-3.1,7c-1.1,1.7-2.4,3.3-4,4.7c-1.8,1.6-3.6,3-5.7,4.1c-2,1.2-4.1,2.2-6.1,2.9c-2.1,0.8-4,1.3-5.7,1.6
		c3.6-1.3,6.2-3.3,7.8-5.7c1.6-2.5,2.5-5.5,2.5-8.9c0-3.8-2.7-9.1-8.2-15.9c1.5-1.4,2.8-2.7,3.7-3.8c0.9-1.1,1.7-2.2,2.2-3.1
		c0.5-0.9,0.8-1.7,1-2.5c0.1-0.7,0.2-1.4,0.2-2c0-1.9-0.5-3.3-1.6-4c-1.1-0.7-2.5-1.1-4.2-1.1c-1.9,0-3.6,0.4-5.2,1.3
		c-1.6,0.8-2.9,2-4.1,3.4c-1.1,1.4-2,3.1-2.7,5c-0.6,1.9-1,3.9-1,6c0,0.6,0,1.1,0,1.4c0,0.3,0.1,0.7,0.2,1.2
		c-1.3,1.2-2.6,2.3-3.7,3.4c-1.1,1-2.2,2.1-3.3,3.3c-1,1.1-2.1,2.4-3.1,3.7c-1,1.3-2.1,2.9-3.2,4.7c-1.2,2-2.4,3.7-3.7,5.3
		c-1.2,1.6-1.9,3.1-1.9,4.3c0,0.6,0.2,1.5,0.5,2.6c0.6-0.4,1.4-0.9,2.3-1.5c0.9-0.6,1.6-1.2,2.1-1.7v1.1c0,1.5,0.4,3,1.1,4.3
		c0.7,1.3,1.7,2.6,2.9,3.6c1.2,1.1,2.7,1.9,4.4,2.5c1.7,0.6,3.6,0.9,5.6,0.9c3.4,0,6.8-0.4,10.2-1.3c3.4-0.8,6.7-2.1,9.7-3.6
		c2.6-1.3,5-2.9,7.2-4.6c0,0.4,0,0.7,0,1.1c0,1.9,0.4,3.4,1.1,4.5c0.7,1.1,1.8,2,3.2,2.6c1.4,0.6,3.1,1,5.2,1.2
		c2.1,0.2,4.4,0.3,7.1,0.3c5,0,9.4-0.7,13.2-2.1c3.8-1.4,7.7-3.5,11.5-6.3c0.3-0.2,0.6-0.4,0.8-0.6c0,0.2,0,0.4,0,0.6
		c0,2.8,0.9,4.9,2.7,6.3c1.8,1.4,4.1,2.1,6.8,2.1c3.1,0,5.5-0.3,7.3-1c1.8-0.7,3.4-1.6,4.8-2.8c0.2,1.1,0.7,2.1,1.4,2.8
		c0.7,0.7,1.7,1.1,2.9,1.1c2.6,0,5.5-0.5,8.7-1.6c3.2-1,6.2-2.4,9.1-4.1c2.9-1.7,5.5-3.6,7.8-5.7c2.3-2.1,3.9-4.2,4.9-6.3l-3.1-3.9
		C433.5,213.5,432.7,214.6,431.5,215.9z M362.4,201.8c0.7-1.6,1.4-2.7,2.1-3.2c0.6-0.5,1.4-0.8,2.2-0.8c1.3,0,1.9,0.4,1.9,1.3
		c0,1.6-0.3,3.1-0.8,4.5c-0.5,1.4-1.3,2.7-2.2,3.7c-0.9,1.1-2.1,1.9-3.4,2.6c-1.3,0.7-2.7,1.1-4.2,1.2L362.4,201.8z M315.1,217.3
		c-0.4,1.2-1,2.2-1.7,3.2c-0.7,0.9-1.6,1.7-2.6,2.3c-1,0.6-2.1,0.9-3.2,0.9c-1.4,0-2.4-0.2-3-0.7c-0.6-0.5-0.9-1.3-0.9-2.5
		c0-1.2,0.2-2.5,0.6-3.8c0.4-1.3,1.1-2.9,2.3-4.6c1.1-1.8,2.4-3.3,3.7-4.5c1.3-1.2,2.5-2.1,3.6-2.9c0.5,0.9,1,2.2,1.3,3.8
		c0.3,1.6,0.5,3.4,0.5,5.3C315.7,214.9,315.5,216.1,315.1,217.3z M320.1,189.3c0-0.5-0.1-0.9-0.1-1.1c0-2,0.8-3,2.4-3
		c0.6,0,0.9,0.3,0.9,1c0,0.5-0.2,1.1-0.5,1.8c-0.3,0.7-1.2,1.5-2.6,2.4C320.2,190.2,320.2,189.8,320.1,189.3z M410.5,199.9
		c0,0.2-0.1,0.5-0.2,0.7l-9.7,21.9c-1.4,3-2.9,4.4-4.4,4.4c-0.9,0-1.4-0.5-1.4-1.6c0-1.1,0.3-2.2,0.9-3.4l9.2-20.7
		c0.5-1.1,1-2,1.6-2.5c0.6-0.5,1.4-0.8,2.4-0.8c0.7,0,1.1,0.2,1.4,0.5c0.2,0.3,0.4,0.6,0.4,1C410.5,199.5,410.5,199.7,410.5,199.9z"
		/>
	<rect x="62.9" y="198" class="st0" width="43" height="13.8"/>
	<rect x="52.4" y="219.5" class="st0" width="46.9" height="13.8"/>
	<rect x="460.3" y="198" class="st0" width="43" height="13.8"/>
	<rect x="467.7" y="219.5" class="st0" width="46.8" height="13.8"/>
</g>
</svg>
