<?xml version="1.0" encoding="utf-8"?>
<!-- Generator: Adobe Illustrator 25.3.0, SVG Export Plug-In . SVG Version: 6.00 Build 0)  -->
<svg version="1.1" id="Capa_1" xmlns="http://www.w3.org/2000/svg" xmlns:xlink="http://www.w3.org/1999/xlink" x="0px" y="0px"
	 viewBox="0 0 566.9 566.9" style="enable-background:new 0 0 566.9 566.9;" xml:space="preserve">
<style type="text/css">
	.st0{fill:#E54B10;}
</style>
<g>
	<g>
		<path d="M108.6,133.7H129c4,0,7.3,0.5,9.8,1.7c2.5,1.1,4.5,2.7,6.2,4.7s2.8,4.4,3.5,7.1c0.7,2.7,1.1,5.6,1.1,8.7
			c0,4.8-0.5,8.5-1.6,11.1c-1.1,2.6-2.6,4.8-4.5,6.6c-1.9,1.8-4,3-6.2,3.5c-3,0.8-5.8,1.2-8.2,1.2h-20.5V133.7z M122.4,143.8v24.4
			h3.4c2.9,0,4.9-0.3,6.1-1c1.2-0.6,2.2-1.7,2.9-3.3c0.7-1.6,1-4.2,1-7.7c0-4.7-0.8-8-2.3-9.7c-1.5-1.7-4.1-2.6-7.7-2.6H122.4z"/>
	</g>
	<g>
		<path d="M157.4,133.7h13.8v44.6h-13.8V133.7z"/>
	</g>
	<g>
		<path d="M179.4,156c0-7.3,2-13,6.1-17c4.1-4,9.7-6.1,17-6.1c7.4,0,13.1,2,17.2,6c4,4,6,9.6,6,16.8c0,5.2-0.9,9.5-2.6,12.8
			c-1.7,3.3-4.3,5.9-7.6,7.8c-3.3,1.9-7.5,2.8-12.4,2.8c-5,0-9.2-0.8-12.5-2.4c-3.3-1.6-6-4.1-8-7.6
			C180.4,165.6,179.4,161.2,179.4,156z M193.2,156.1c0,4.5,0.8,7.7,2.5,9.7c1.7,2,3.9,3,6.8,3c3,0,5.3-1,6.9-2.9
			c1.6-1.9,2.4-5.4,2.4-10.4c0-4.2-0.8-7.3-2.5-9.2c-1.7-1.9-4-2.9-6.9-2.9c-2.8,0-5,1-6.7,2.9C194,148.3,193.2,151.5,193.2,156.1z"
			/>
	</g>
	<g>
		<path d="M230.6,163.5l13.1-0.8c0.3,2.1,0.9,3.8,1.7,4.9c1.4,1.8,3.4,2.7,6.1,2.7c2,0,3.5-0.5,4.5-1.4c1.1-0.9,1.6-2,1.6-3.2
			c0-1.2-0.5-2.2-1.5-3.1c-1-0.9-3.4-1.8-7.1-2.6c-6-1.4-10.4-3.2-12.9-5.4c-2.6-2.2-3.9-5.1-3.9-8.6c0-2.3,0.7-4.5,2-6.5
			c1.3-2,3.3-3.7,6-4.8s6.3-1.7,11-1.7c5.7,0,10,1.1,13,3.2c3,2.1,4.8,5.5,5.3,10.1l-13,0.8c-0.3-2-1.1-3.5-2.2-4.4
			c-1.1-0.9-2.6-1.4-4.6-1.4c-1.6,0-2.8,0.3-3.6,1c-0.8,0.7-1.2,1.5-1.2,2.5c0,0.7,0.3,1.3,1,1.9c0.6,0.6,2.2,1.1,4.6,1.7
			c6,1.3,10.3,2.6,12.9,3.9c2.6,1.3,4.5,3,5.7,4.9c1.2,2,1.8,4.2,1.8,6.6c0,2.9-0.8,5.5-2.4,7.9c-1.6,2.4-3.8,4.2-6.6,5.5
			c-2.8,1.2-6.4,1.9-10.7,1.9c-7.6,0-12.8-1.5-15.8-4.4C232.7,171.7,231,168,230.6,163.5z"/>
	</g>
	<g>
		<path d="M295.7,133.7h41.9v11h-14.1v33.6h-13.8v-33.6h-14.1V133.7z"/>
	</g>
	<g>
		<path d="M344.4,133.7h13.8v44.6h-13.8V133.7z"/>
	</g>
	<g>
		<path d="M368,133.7H405v9.5h-23.1v7.1h21.4v9.1h-21.4v8.8h23.8v10.1H368V133.7z"/>
	</g>
	<g>
		<path d="M413.2,133.7H426l16.8,24.7v-24.7h13v44.6h-13l-16.7-24.5v24.5h-13V133.7z"/>
	</g>
	<g>
		<path d="M465,133.7h36.9v9.5h-23.1v7.1h21.5v9.1h-21.5v8.8h23.8v10.1H465V133.7z"/>
	</g>
</g>
<g>
	<g>
		<path d="M107.9,402.6h33.3v8.6h-20.8v6.4h19.3v8.2h-19.3v7.9h21.4v9.1h-33.9V402.6z"/>
	</g>
	<g>
		<path d="M148.4,402.6h12.4v30.3h19.4v9.9h-31.8V402.6z"/>
	</g>
	<g>
		<path d="M231.3,426.4l10.9,3.3c-0.7,3.1-1.9,5.6-3.4,7.7c-1.6,2-3.5,3.6-5.9,4.6c-2.3,1-5.3,1.6-8.9,1.6c-4.4,0-7.9-0.6-10.7-1.9
			c-2.8-1.3-5.2-3.5-7.2-6.7c-2-3.2-3-7.3-3-12.3c0-6.6,1.8-11.7,5.3-15.3c3.5-3.6,8.5-5.3,15-5.3c5.1,0,9,1,11.9,3.1
			c2.9,2,5,5.2,6.4,9.4l-11,2.4c-0.4-1.2-0.8-2.1-1.2-2.7c-0.7-0.9-1.5-1.7-2.6-2.2c-1-0.5-2.1-0.8-3.4-0.8c-2.8,0-5,1.1-6.5,3.4
			c-1.1,1.7-1.7,4.3-1.7,7.9c0,4.4,0.7,7.5,2,9.1c1.4,1.7,3.3,2.5,5.7,2.5c2.4,0,4.2-0.7,5.4-2C229.8,430.8,230.7,428.9,231.3,426.4
			z"/>
	</g>
	<g>
		<path d="M246.6,422.8c0-6.6,1.8-11.7,5.5-15.3c3.7-3.6,8.7-5.5,15.3-5.5c6.7,0,11.8,1.8,15.4,5.4c3.6,3.6,5.4,8.6,5.4,15.1
			c0,4.7-0.8,8.5-2.4,11.5c-1.6,3-3.9,5.3-6.8,7c-3,1.7-6.7,2.5-11.2,2.5c-4.5,0-8.3-0.7-11.2-2.2c-3-1.4-5.4-3.7-7.2-6.9
			C247.5,431.4,246.6,427.5,246.6,422.8z M259,422.8c0,4.1,0.8,7,2.3,8.7c1.5,1.8,3.6,2.7,6.2,2.7c2.7,0,4.7-0.9,6.2-2.6
			s2.2-4.8,2.2-9.3c0-3.8-0.8-6.5-2.3-8.3c-1.5-1.7-3.6-2.6-6.2-2.6c-2.5,0-4.5,0.9-6,2.6C259.8,415.8,259,418.7,259,422.8z"/>
	</g>
	<g>
		<path d="M295,402.6h11.6l15.1,22.2v-22.2h11.7v40.2h-11.7l-15-22.1v22.1H295V402.6z"/>
	</g>
	<g>
		<path d="M338.8,402.6h37.7v9.9h-12.7v30.2h-12.4v-30.2h-12.7V402.6z"/>
	</g>
	<g>
		<path d="M382.3,442.8v-40.2H403c3.8,0,6.8,0.3,8.8,1c2,0.7,3.7,1.9,4.9,3.7c1.2,1.8,1.9,4,1.9,6.5c0,2.2-0.5,4.1-1.4,5.8
			c-0.9,1.6-2.3,2.9-3.9,3.9c-1.1,0.6-2.5,1.2-4.4,1.6c1.5,0.5,2.6,1,3.2,1.5c0.5,0.3,1.1,1,2,2.1c0.9,1.1,1.4,1.9,1.7,2.5l6,11.6
			h-14l-6.6-12.3c-0.8-1.6-1.6-2.6-2.2-3.1c-0.9-0.6-1.9-0.9-3-0.9h-1.1v16.3H382.3z M394.7,418.9h5.2c0.6,0,1.7-0.2,3.3-0.6
			c0.8-0.2,1.5-0.6,2-1.3c0.5-0.7,0.8-1.4,0.8-2.3c0-1.3-0.4-2.3-1.2-3c-0.8-0.7-2.4-1.1-4.6-1.1h-5.5V418.9z"/>
	</g>
	<g>
		<path d="M423.2,422.8c0-6.6,1.8-11.7,5.5-15.3c3.7-3.6,8.7-5.5,15.3-5.5c6.7,0,11.8,1.8,15.4,5.4c3.6,3.6,5.4,8.6,5.4,15.1
			c0,4.7-0.8,8.5-2.4,11.5c-1.6,3-3.9,5.3-6.8,7c-3,1.7-6.7,2.5-11.2,2.5c-4.5,0-8.3-0.7-11.2-2.2c-3-1.4-5.4-3.7-7.2-6.9
			C424.1,431.4,423.2,427.5,423.2,422.8z M435.6,422.8c0,4.1,0.8,7,2.3,8.7c1.5,1.8,3.6,2.7,6.2,2.7c2.7,0,4.7-0.9,6.2-2.6
			s2.2-4.8,2.2-9.3c0-3.8-0.8-6.5-2.3-8.3c-1.5-1.7-3.6-2.6-6.2-2.6c-2.5,0-4.5,0.9-6,2.6C436.4,415.8,435.6,418.7,435.6,422.8z"/>
	</g>
	<g>
		<path d="M471.5,402.6h12.4v30.3h19.4v9.9h-31.8V402.6z"/>
	</g>
</g>
<path d="M212.9,260.7h-19.5v-19.6c0-2.7-2.2-4.9-4.9-4.9h-23.7c-2.7,0-4.9,2.2-4.9,4.9v19.6h-19.5c-2.7,0-4.9,2.2-4.9,4.9v19.2
	c0,2.7,2.2,4.9,4.9,4.9h19.5v53.4c0,2.7,2.2,4.9,4.9,4.9h23.7c2.7,0,4.9-2.2,4.9-4.9v-53.4h19.5c2.7,0,4.9-2.2,4.9-4.9v-19.2
	C217.9,262.9,215.7,260.7,212.9,260.7z"/>
<g>
	<path d="M495.3,386.8H115.9c-4,0-7.3-3.3-7.3-7.3V204.9c0-4,3.3-7.3,7.3-7.3h379.4c4,0,7.3,3.3,7.3,7.3v174.6
		C502.6,383.5,499.3,386.8,495.3,386.8z M123.2,372.1H488v-160H123.2V372.1z"/>
</g>
<g>
	<path d="M376.2,215.8V229c0,2.7-2.2,4.9-4.9,4.9H257c-2.7,0-4.9-2.2-4.9-4.9v-13.1c0-2.7,2.2-4.9,4.9-4.9h114.2
		C374,210.9,376.2,213.1,376.2,215.8z"/>
</g>
<g>
	<path d="M376.2,355.9V369c0,2.7-2.2,4.9-4.9,4.9H257c-2.7,0-4.9-2.2-4.9-4.9v-13.2c0-2.7,2.2-4.9,4.9-4.9h114.2
		C374,350.9,376.2,353.1,376.2,355.9z"/>
</g>
<g>
	<path d="M376.2,246.9v13.2c0,2.7-2.2,4.9-4.9,4.9H257c-2.7,0-4.9-2.2-4.9-4.9v-13.2c0-2.7,2.2-4.9,4.9-4.9h114.2
		C374,242,376.2,244.2,376.2,246.9z"/>
</g>
<g>
	<path d="M371.5,301.8H256.8c-2.6,0-4.7,2.2-4.7,4.9v33.5c0,2.7,2.1,4.9,4.7,4.9h114.7c2.6,0,4.7-2.2,4.7-4.9v-33.5
		C376.2,304,374.1,301.8,371.5,301.8z M294.8,331.2h-20.5c-9,0-9-14.6,0-14.6h20.5C303.8,316.5,303.8,331.2,294.8,331.2z
		 M354.4,332.2h-20.9c-9,0-9-14.6,0-14.6h20.9C363.4,317.6,363.4,332.2,354.4,332.2z"/>
</g>
<g>
	<path d="M376.2,278.1v13.1c0,2.7-2.2,4.9-4.9,4.9H257c-2.7,0-4.9-2.2-4.9-4.9v-13.1c0-2.7,2.2-4.9,4.9-4.9h114.2
		C374,273.1,376.2,275.3,376.2,278.1z"/>
</g>
<g>
	<g>
		<path class="st0" d="M268,282.4c0-1-0.1-2-1.2-2c-0.7,0-1.2,0.3-1.2,1c0,0.9,0.5,1.2,1.2,1.6c0.7,0.4,2,1.3,2.5,1.8
			c0.7,0.7,0.9,1.4,0.9,2.3c0,2.1-1.4,3.2-3.5,3.2c-2.5,0-3.4-1.4-3.4-3.4v-0.8h2.1v0.7c0,1.1,0.3,1.9,1.3,1.9
			c0.9,0,1.3-0.5,1.3-1.3c0-0.7-0.3-1.1-0.8-1.5c-1.1-0.9-2.5-1.5-3.3-2.6c-0.3-0.5-0.5-1.1-0.5-1.7c0-1.9,1.1-3,3.3-3
			c3.3,0,3.2,2.6,3.3,3.7H268z"/>
	</g>
	<g>
		<path class="st0" d="M273.1,290.2V279h5.9v1.6h-3.8v2.8h3.5v1.6h-3.5v3.5h3.8v1.6H273.1z"/>
	</g>
	<g>
		<path class="st0" d="M281.8,290.2V279h2.1v9.6h3.9v1.6H281.8z"/>
	</g>
	<g>
		<path class="st0" d="M290.3,290.2V279h5.9v1.6h-3.8v2.8h3.5v1.6h-3.5v3.5h3.8v1.6H290.3z"/>
	</g>
	<g>
		<path class="st0" d="M305.6,286.3c0,0.2,0,0.4,0,0.6c-0.1,2-0.8,3.6-3.1,3.6c-3.4,0-3.7-2.2-3.7-5.2v-1.6c0.1-2.9,0.3-5,3.7-5
			c1.9,0,2.9,1,3.1,2.9c0,0.3,0.1,0.6,0,0.9h-2.1c-0.1-0.7,0-2.1-1-2.1c-1.6,0-1.5,2-1.5,2.8v3.1c0,0.9,0.1,2.4,1.5,2.4
			c1.1,0,1-1.9,1.1-2.6H305.6z"/>
	</g>
	<g>
		<path class="st0" d="M307.7,279h7v1.6h-2.4v9.6h-2.1v-9.6h-2.5V279z"/>
	</g>
	<g>
		<path class="st0" d="M326.2,282.4c0-1-0.1-2-1.2-2c-0.7,0-1.2,0.3-1.2,1c0,0.9,0.5,1.2,1.2,1.6c0.7,0.4,2,1.3,2.5,1.8
			c0.7,0.7,0.9,1.4,0.9,2.3c0,2.1-1.4,3.2-3.5,3.2c-2.5,0-3.4-1.4-3.4-3.4v-0.8h2.1v0.7c0,1.1,0.3,1.9,1.3,1.9
			c0.9,0,1.3-0.5,1.3-1.3c0-0.7-0.3-1.1-0.8-1.5c-1.1-0.9-2.5-1.5-3.3-2.6c-0.3-0.5-0.5-1.1-0.5-1.7c0-1.9,1.1-3,3.3-3
			c3.3,0,3.2,2.6,3.3,3.7H326.2z"/>
	</g>
	<g>
		<path class="st0" d="M330.6,279h7v1.6h-2.4v9.6H333v-9.6h-2.5V279z"/>
	</g>
	<g>
		<path class="st0" d="M338.3,290.2l2.7-11.2h2.8l2.5,11.2h-2.2l-0.6-2.8h-2.5l-0.6,2.8H338.3z M341.4,285.8h1.8l-0.6-3.2
			c-0.1-0.5-0.2-1-0.2-1.6c0-0.3,0-0.5-0.1-0.7h0c0,0.2-0.1,0.5-0.1,0.7c-0.1,0.5-0.1,1-0.2,1.6L341.4,285.8z"/>
	</g>
	<g>
		<path class="st0" d="M350.6,285.4v4.8h-2.1V279h4c1.8,0,3.2,0.6,3.2,2.7c0,1.2-0.3,2.5-1.7,2.7v0c1.2,0.2,1.6,1,1.6,2
			c0,0.5-0.1,3.2,0.4,3.5v0.2h-2.3c-0.3-0.7-0.2-2.1-0.2-2.8c0-0.7,0-1.6-0.7-1.8c-0.6-0.2-1.2-0.1-1.8-0.1H350.6z M350.6,283.8h1.6
			c0.7,0,1.2-0.5,1.2-1.6c0-1.3-0.5-1.5-1.3-1.5h-1.6V283.8z"/>
	</g>
	<g>
		<path class="st0" d="M357.8,279h7v1.6h-2.4v9.6h-2.1v-9.6h-2.5V279z"/>
	</g>
</g>
<g>
	<g>
		<g>
			<path d="M390.2,249.2v-18.6h5.6l3.4,12.7l3.3-12.7h5.6v18.6h-3.5v-14.7l-3.7,14.7h-3.6l-3.7-14.7v14.7H390.2z"/>
		</g>
		<g>
			<path d="M428.8,249.2h-4.1L423,245h-7.4l-1.5,4.2h-4l7.3-18.6h4L428.8,249.2z M421.8,241.9l-2.6-6.9l-2.5,6.9H421.8z"/>
		</g>
		<g>
			<path d="M433,249.2v-15.5h-5.5v-3.2h14.8v3.2h-5.5v15.5H433z"/>
		</g>
		<g>
			<path d="M444.7,249.2v-18.6h13.8v3.2h-10v4.1h9.3v3.1h-9.3v5.1h10.4v3.1H444.7z"/>
		</g>
		<g>
			<path d="M461.3,240c0-1.9,0.3-3.5,0.9-4.8c0.4-0.9,1-1.8,1.7-2.6c0.7-0.8,1.5-1.3,2.4-1.7c1.2-0.5,2.5-0.7,4-0.7
				c2.7,0,4.9,0.9,6.6,2.5c1.6,1.7,2.5,4.1,2.5,7.1c0,3-0.8,5.4-2.5,7.1c-1.6,1.7-3.8,2.5-6.6,2.5c-2.8,0-5-0.8-6.6-2.5
				C462.1,245.3,461.3,243,461.3,240z M465.2,239.9c0,2.1,0.5,3.7,1.5,4.8c1,1.1,2.2,1.6,3.7,1.6c1.5,0,2.7-0.5,3.7-1.6
				c1-1.1,1.4-2.7,1.4-4.9c0-2.1-0.5-3.7-1.4-4.8c-0.9-1.1-2.2-1.6-3.7-1.6s-2.8,0.5-3.7,1.6C465.6,236.1,465.2,237.7,465.2,239.9z"
				/>
		</g>
	</g>
	<g>
		<g>
			<path d="M412.5,266.6l-6.4,0.7c-0.2-1.3-0.6-2.3-1.2-2.9c-0.7-0.6-1.5-0.9-2.6-0.9c-1.4,0-2.6,0.6-3.5,1.9
				c-1,1.3-1.6,3.8-1.8,7.8c1.6-1.9,3.7-2.9,6.1-2.9c2.7,0,5.1,1,7.1,3.1c2,2.1,2.9,4.8,2.9,8.1c0,3.5-1,6.3-3.1,8.4
				c-2.1,2.1-4.7,3.2-7.9,3.2c-3.5,0-6.3-1.3-8.5-4c-2.2-2.7-3.3-7.1-3.3-13.2c0-6.3,1.2-10.8,3.5-13.6c2.3-2.8,5.3-4.2,9.1-4.2
				c2.6,0,4.8,0.7,6.5,2.2C410.9,261.7,412,263.9,412.5,266.6z M397.6,281c0,2.1,0.5,3.8,1.5,5c1,1.2,2.1,1.7,3.4,1.7
				c1.2,0,2.2-0.5,3-1.4c0.8-1,1.2-2.5,1.2-4.7c0-2.2-0.4-3.9-1.3-4.9c-0.9-1-2-1.5-3.3-1.5c-1.3,0-2.3,0.5-3.2,1.5
				C398,277.6,397.6,279,397.6,281z"/>
		</g>
		<g>
			<path d="M418.3,292.5v-6.6h6.6v6.6H418.3z"/>
		</g>
		<g>
			<path d="M429.9,283.4l6.4-0.8c0.2,1.6,0.8,2.9,1.6,3.7c0.9,0.9,2,1.3,3.2,1.3c1.4,0,2.5-0.5,3.4-1.5c0.9-1,1.4-2.4,1.4-4.2
				c0-1.7-0.4-3-1.3-3.9c-0.9-1-2-1.4-3.3-1.4c-0.8,0-1.8,0.2-3,0.5l0.7-5.4c1.8,0,3.1-0.3,4.1-1.2c0.9-0.8,1.4-1.9,1.4-3.3
				c0-1.2-0.3-2.1-1-2.8c-0.7-0.7-1.6-1-2.7-1c-1.1,0-2.1,0.4-2.9,1.2c-0.8,0.8-1.3,1.9-1.5,3.4l-6.1-1c0.4-2.1,1.1-3.7,1.9-5
				c0.8-1.2,2-2.2,3.6-2.9c1.5-0.7,3.2-1.1,5.1-1.1c3.2,0,5.8,1,7.8,3.1c1.6,1.7,2.4,3.6,2.4,5.7c0,3-1.6,5.4-4.9,7.2
				c2,0.4,3.5,1.4,4.7,2.8c1.2,1.5,1.8,3.2,1.8,5.3c0,3-1.1,5.6-3.3,7.7c-2.2,2.1-4.9,3.2-8.2,3.2c-3.1,0-5.7-0.9-7.7-2.7
				C431.5,288.6,430.3,286.3,429.9,283.4z"/>
		</g>
		<g>
			<path d="M456.6,283.4l6.4-0.8c0.2,1.6,0.8,2.9,1.6,3.7c0.9,0.9,2,1.3,3.2,1.3c1.4,0,2.5-0.5,3.4-1.5c0.9-1,1.4-2.4,1.4-4.2
				c0-1.7-0.4-3-1.3-3.9c-0.9-1-2-1.4-3.3-1.4c-0.8,0-1.8,0.2-3,0.5l0.7-5.4c1.8,0,3.1-0.3,4.1-1.2c0.9-0.8,1.4-1.9,1.4-3.3
				c0-1.2-0.3-2.1-1-2.8c-0.7-0.7-1.6-1-2.7-1c-1.1,0-2.1,0.4-2.9,1.2c-0.8,0.8-1.3,1.9-1.4,3.4l-6.1-1c0.4-2.1,1.1-3.7,1.9-5
				c0.8-1.2,2-2.2,3.6-2.9c1.5-0.7,3.2-1.1,5.1-1.1c3.2,0,5.8,1,7.8,3.1c1.6,1.7,2.4,3.6,2.4,5.7c0,3-1.6,5.4-4.9,7.2
				c2,0.4,3.5,1.4,4.7,2.8s1.8,3.2,1.8,5.3c0,3-1.1,5.6-3.3,7.7c-2.2,2.1-4.9,3.2-8.2,3.2c-3.1,0-5.7-0.9-7.7-2.7
				C458.1,288.6,456.9,286.3,456.6,283.4z"/>
		</g>
	</g>
</g>
<g>
	<path d="M427.3,343.2H396c-3.2,0-5.7-2.6-5.7-5.7v-29.7c0-3.2,2.6-5.7,5.7-5.7h31.3c3.2,0,5.7,2.6,5.7,5.7v29.7
		C433,340.7,430.4,343.2,427.3,343.2z"/>
</g>
<g>
	<path class="st0" d="M428,322.7c0,9.1-7.3,16.4-16.4,16.4c-9.1,0-16.4-7.3-16.4-16.4c0-9.1,7.3-16.4,16.4-16.4
		C420.7,306.3,428,313.6,428,322.7z"/>
</g>
<g>
	<path d="M473.6,343.2h-31.3c-3.2,0-5.7-2.6-5.7-5.7v-29.7c0-3.2,2.6-5.7,5.7-5.7h31.3c3.2,0,5.7,2.6,5.7,5.7v29.7
		C479.4,340.7,476.8,343.2,473.6,343.2z"/>
</g>
<g>
	<path class="st0" d="M474.4,322.7c0,9.1-7.3,16.4-16.4,16.4s-16.4-7.3-16.4-16.4c0-9.1,7.3-16.4,16.4-16.4S474.4,313.6,474.4,322.7
		z"/>
</g>
<g>
	<g>
		<path class="st0" d="M409,353.2h3.4c0.7,0,1.2,0,1.5,0.1c0.3,0.1,0.6,0.2,0.9,0.3c0.3,0.2,0.5,0.4,0.6,0.7c0.2,0.3,0.3,0.6,0.3,1
			c0,0.4-0.1,0.8-0.3,1.1c-0.2,0.3-0.5,0.6-0.9,0.7c0.5,0.1,0.9,0.4,1.2,0.8c0.3,0.4,0.4,0.8,0.4,1.3c0,0.4-0.1,0.8-0.3,1.1
			c-0.2,0.4-0.4,0.7-0.7,0.9c-0.3,0.2-0.7,0.3-1.1,0.4c-0.3,0-1,0-2,0.1H409V353.2z M410.7,354.6v1.9h1.1c0.7,0,1.1,0,1.2,0
			c0.3,0,0.5-0.1,0.7-0.3c0.2-0.2,0.2-0.4,0.2-0.7c0-0.3-0.1-0.5-0.2-0.6c-0.1-0.2-0.4-0.3-0.6-0.3c-0.2,0-0.7,0-1.5,0H410.7z
			 M410.7,358v2.2h1.6c0.6,0,1,0,1.2-0.1c0.3,0,0.5-0.2,0.6-0.3c0.2-0.2,0.2-0.4,0.2-0.7c0-0.3-0.1-0.5-0.2-0.6
			c-0.1-0.2-0.3-0.3-0.5-0.4c-0.2-0.1-0.7-0.1-1.5-0.1H410.7z"/>
	</g>
</g>
<g>
	<g>
		<path class="st0" d="M462.3,361.7h-1.8l-0.7-1.9h-3.4l-0.7,1.9h-1.8l3.3-8.4h1.8L462.3,361.7z M459.1,358.3l-1.2-3.1l-1.1,3.1
			H459.1z"/>
	</g>
</g>
</svg>
