<?xml version="1.0" encoding="utf-8"?>
<!-- Generator: Adobe Illustrator 25.3.0, SVG Export Plug-In . SVG Version: 6.00 Build 0)  -->
<svg version="1.1" id="Capa_1" xmlns="http://www.w3.org/2000/svg" xmlns:xlink="http://www.w3.org/1999/xlink" x="0px" y="0px"
	 viewBox="0 0 566.9 566.9" style="enable-background:new 0 0 566.9 566.9;" xml:space="preserve">
<style type="text/css">
	.st0{fill:#D80F16;}
	.st1{fill:#FFFFFF;}
</style>
<g>
	<g>
		<rect x="173.2" y="47.8" class="st0" width="284" height="56"/>
		<g>
			<path class="st1" d="M224.7,66.5c-0.1-0.7-0.3-1.3-0.7-1.9c-0.4-0.6-0.8-1.1-1.4-1.5c-0.6-0.4-1.2-0.8-2-1
				c-0.7-0.2-1.5-0.4-2.3-0.4c-0.7,0-1.4,0.1-2,0.2c-0.6,0.2-1.2,0.4-1.6,0.7c-0.5,0.3-0.8,0.7-1.1,1.2c-0.3,0.5-0.4,1.1-0.4,1.8
				c0,0.9,0.2,1.5,0.6,2c0.4,0.5,0.8,0.9,1.4,1.2c0.6,0.3,1.2,0.6,1.9,0.8c0.7,0.2,1.4,0.4,2.1,0.6l7.9,2.6c1.1,0.4,2.1,0.9,3.1,1.6
				c1,0.7,1.8,1.5,2.5,2.4c0.7,1,1.2,2.1,1.6,3.3c0.4,1.2,0.6,2.6,0.6,4.2c0,2.1-0.4,4-1.2,5.8s-1.9,3.2-3.2,4.5
				c-1.4,1.2-3.1,2.2-5,2.9c-1.9,0.7-4.1,1-6.5,1c-1.7,0-3.2-0.2-4.7-0.6c-1.5-0.4-2.8-0.9-4.1-1.6c-1.2-0.7-2.3-1.6-3.2-2.5
				c-0.9-1-1.6-2.1-2.1-3.3h-2.9v-8.6h10.4v1.8c0,0.9,0.1,1.7,0.4,2.4c0.3,0.7,0.7,1.4,1.2,1.9c0.6,0.5,1.2,0.9,2.1,1.2
				c0.8,0.3,1.8,0.4,2.9,0.4c1.7,0,3-0.4,3.9-1.2c0.9-0.8,1.3-1.9,1.3-3.3c0-0.7-0.2-1.3-0.5-1.8c-0.3-0.5-0.7-0.9-1.2-1.2
				c-0.5-0.3-1-0.6-1.7-0.8s-1.2-0.4-1.8-0.6l-6.6-2.1c-1.2-0.4-2.4-0.9-3.6-1.6c-1.2-0.7-2.2-1.5-3.1-2.6s-1.6-2.2-2.1-3.6
				c-0.5-1.4-0.8-3-0.8-4.7c0-2.1,0.4-3.9,1.1-5.5c0.8-1.6,1.8-3,3.2-4.1c1.4-1.1,3-1.9,4.9-2.5c1.9-0.6,4-0.9,6.2-0.9
				c1.8,0,3.4,0.2,4.9,0.6c1.5,0.4,2.9,1,4.1,1.6c1.2,0.7,2.2,1.5,3,2.4c0.8,0.9,1.5,1.8,1.9,2.8h2.9v8.6h-10.4V66.5z"/>
			<path class="st1" d="M261.8,89.9h4.3l-1.9-6.2h-13.3l-1.9,6.2h4.6v7.8H237v-7.8h3.2l11.8-35.6h11.5l11.6,35.6h3.1v7.8h-16.5V89.9
				z M253.1,76.3h8.8l-4.4-14.1L253.1,76.3z"/>
			<path class="st1" d="M282.2,54.3h18.6v7.9h-4.6v27.7h9.4c0.2,0,0.5-0.1,0.7-0.2c0.2-0.1,0.4-0.3,0.6-0.6s0.3-0.5,0.4-0.7
				c0.1-0.3,0.2-0.5,0.2-0.8v-5.8h9.3v15.9h-34.7v-7.8h4.5V62.2h-4.5V54.3z"/>
			<path class="st1" d="M320.7,89.9h4V62.2h-4v-7.9h17.9l12.8,31.3l11.9-31.3h18.1v7.9h-4v27.7h4v7.8h-16.2v-7.8h3v-25l-13,32.3h-8
				l-13.2-31.4v24.1h3.2v7.8h-16.3V89.9z"/>
			<path class="st1" d="M407.5,98.5c-2,0-3.8-0.3-5.6-0.8c-1.8-0.5-3.5-1.3-5-2.3c-1.6-1-3-2.1-4.2-3.5c-1.3-1.4-2.4-2.9-3.2-4.6
				c-0.9-1.7-1.6-3.5-2.1-5.4c-0.5-1.9-0.7-3.9-0.7-6c0-2.1,0.2-4.1,0.7-6c0.5-1.9,1.2-3.7,2.1-5.4c0.9-1.7,2-3.2,3.2-4.6
				c1.3-1.4,2.7-2.5,4.2-3.5c1.6-1,3.2-1.7,5-2.3c1.8-0.5,3.7-0.8,5.6-0.8s3.9,0.3,5.7,0.8c1.8,0.5,3.5,1.3,5,2.3
				c1.6,1,3,2.1,4.2,3.5c1.3,1.4,2.4,2.9,3.3,4.6c0.9,1.7,1.6,3.5,2.1,5.4c0.5,1.9,0.7,3.9,0.7,6c0,2.1-0.2,4.1-0.7,6
				c-0.5,1.9-1.2,3.7-2.1,5.4c-0.9,1.7-2,3.2-3.3,4.6c-1.3,1.4-2.7,2.5-4.2,3.5c-1.6,1-3.2,1.7-5,2.3
				C411.3,98.2,409.4,98.5,407.5,98.5z M407.5,89.5c1.7,0,3.2-0.4,4.6-1.1c1.4-0.7,2.6-1.7,3.6-2.9s1.8-2.7,2.3-4.3
				c0.5-1.6,0.8-3.4,0.8-5.2c0-1.9-0.3-3.6-0.8-5.2c-0.6-1.6-1.3-3.1-2.3-4.3c-1-1.2-2.2-2.2-3.6-2.9c-1.4-0.7-2.9-1.1-4.5-1.1
				s-3.1,0.4-4.5,1.1c-1.4,0.7-2.6,1.7-3.5,2.9c-1,1.2-1.8,2.7-2.3,4.3c-0.6,1.6-0.8,3.4-0.8,5.2c0,1.8,0.3,3.6,0.8,5.2
				c0.6,1.6,1.3,3.1,2.3,4.3c1,1.2,2.2,2.2,3.5,2.9C404.3,89.1,405.8,89.5,407.5,89.5z"/>
		</g>
	</g>
	<g>
		<g>
			<path class="st0" d="M174.2,290.4l70.2-74.6c6.1-5.9,10.8-11.8,14.1-17.7c3.3-5.9,5-11.9,5-17.9c0-2.6-0.5-5.2-1.6-7.7
				c-1.1-2.5-2.6-4.8-4.6-6.8c-2-2-4.5-3.6-7.4-4.8c-2.9-1.2-6.2-1.8-9.8-1.8c-4.4,0-8.2,0.7-11.5,2.1c-3.3,1.4-6,3.3-8.2,5.7
				c-2.2,2.4-3.9,5.2-5,8.4c-1.2,3.2-1.8,6.6-1.9,10.2h-40.3c0-10.5,1.7-19.9,5.2-28.2c3.5-8.3,8.3-15.2,14.4-20.9
				c6.1-5.7,13.3-10,21.5-12.9c8.2-2.9,17-4.4,26.4-4.4c8.8,0,17.3,1.3,25.2,4c8,2.7,15,6.6,21.2,11.8c6.1,5.2,11,11.6,14.5,19.2
				c3.6,7.6,5.4,16.3,5.4,26.3c0,7.9-1.6,15.3-4.9,22s-7.7,13.2-13.2,19.4L231,284.2h75.7v41.1H174.2V290.4z"/>
			<path class="st0" d="M412.4,180.2c0-2.7-0.6-5.4-1.8-8c-1.2-2.7-2.9-5.1-5.2-7.2c-2.3-2.1-5-3.9-8.2-5.2c-3.2-1.3-6.7-2-10.5-2
				c-3.3,0-6.5,0.6-9.4,1.7c-3,1.1-5.6,2.6-7.9,4.5c-2.3,1.9-4.1,4-5.4,6.5c-1.3,2.5-2,6.6-2,12.5l-41.7-0.3
				c0.1-8.7,1.7-16.9,5-24.8c3.2-7.9,7.7-14.8,13.5-20.8c5.8-6,12.7-10.7,20.8-14.2c8.1-3.5,17.2-5.2,27.2-5.2
				c9.5,0,18.3,1.6,26.5,4.9c8.2,3.3,15.4,7.7,21.4,13.2c6.1,5.5,10.8,11.9,14.3,19.2s5.2,14.8,5.2,22.8c0,8.7-1.8,16.5-5.4,23.6
				c-3.6,7.1-8.4,12.8-14.6,17.2c3.2,1.8,6.2,4.2,9,7.1c2.8,2.9,5.2,6.3,7.3,10.2s3.8,8,5,12.6c1.2,4.6,1.8,9.3,1.8,14.3
				c0,8.8-1.8,17.1-5.4,24.9c-3.6,7.9-8.5,14.8-14.8,20.7c-6.3,5.9-13.7,10.6-22.3,14.1c-8.6,3.5-17.8,5.2-27.7,5.2
				c-9.4,0-18.1-1.5-26.2-4.4c-8.1-2.9-15.2-7-21.2-12.3c-6.1-5.2-11-11.4-14.7-18.5c-3.7-7.1-5.9-13-6.6-17.7
				c-0.7-4.7-1-9.6-1.1-14.7h42.1c0.5,9.4,3.2,16.3,8.1,20.7s11.6,6.6,20.2,6.6c3.8,0,7.4-0.6,10.8-1.9c3.3-1.3,6.3-3,8.8-5.2
				c2.5-2.2,4.5-4.8,6-7.7c1.5-2.9,2.2-6.1,2.2-9.5c0-3.6-0.6-6.9-1.9-10c-1.3-3.1-3.1-5.7-5.6-7.9c-2.4-2.2-5.4-3.9-8.8-5.2
				c-3.5-1.2-7.4-1.9-11.7-1.9h-18.8v-36.6h19c3.9,0,7.4-0.5,10.5-1.6s5.7-2.5,7.8-4.4c2.1-1.9,3.8-4.1,4.9-6.7
				C411.8,186.2,412.4,183.3,412.4,180.2z"/>
		</g>
		<g>
			<path class="st1" d="M247.7,300.2c-0.6-0.9-1.2-1.5-1.7-1.9c-0.5-0.4-1-0.6-1.6-0.8c-0.6-0.2-1.2-0.2-1.8-0.2
				c-0.9,0-1.8,0.2-2.6,0.6c-0.8,0.4-1.5,1-2,1.7c-0.6,0.7-1,1.5-1.4,2.5c-0.3,0.9-0.5,1.9-0.5,3c0,1.1,0.2,2.1,0.5,3
				c0.3,0.9,0.8,1.8,1.3,2.5c0.6,0.7,1.2,1.3,2,1.7c0.8,0.4,1.7,0.6,2.6,0.6c0.7,0,1.3-0.1,1.8-0.3c0.6-0.2,1.1-0.5,1.6-0.8
				c0.5-0.4,0.9-0.8,1.2-1.2c0.4-0.5,0.6-0.9,0.8-1.4l5.3,1.5c-0.3,1.1-0.8,2.1-1.5,3s-1.4,1.7-2.4,2.4c-0.9,0.7-2,1.2-3.1,1.6
				c-1.2,0.4-2.4,0.6-3.7,0.6c-1.1,0-2.2-0.2-3.2-0.5s-2-0.7-2.9-1.3c-0.9-0.6-1.7-1.2-2.4-2c-0.7-0.8-1.4-1.7-1.9-2.6
				c-0.5-1-0.9-2-1.2-3.1c-0.3-1.1-0.4-2.2-0.4-3.4c0-1.8,0.3-3.5,0.9-5c0.6-1.6,1.5-2.9,2.6-4.1c1.1-1.2,2.4-2.1,3.8-2.8
				c1.5-0.7,3-1,4.7-1c1.3,0,2.5,0.2,3.4,0.5c0.9,0.3,1.9,1,3,2h3.7v5.6H247.7z"/>
			<path class="st1" d="M265.4,318c-1.1,0-2.2-0.2-3.2-0.5s-2-0.7-2.9-1.3c-0.9-0.6-1.7-1.2-2.4-2c-0.7-0.8-1.4-1.7-1.9-2.6
				c-0.5-1-0.9-2-1.2-3.1c-0.3-1.1-0.4-2.2-0.4-3.4c0-1.2,0.1-2.3,0.4-3.4s0.7-2.1,1.2-3.1s1.1-1.8,1.9-2.6c0.7-0.8,1.5-1.5,2.4-2
				c0.9-0.6,1.9-1,2.9-1.3s2.1-0.5,3.2-0.5c1.1,0,2.2,0.2,3.2,0.5c1,0.3,2,0.7,2.9,1.3c0.9,0.6,1.7,1.2,2.4,2
				c0.7,0.8,1.4,1.7,1.9,2.6c0.5,1,0.9,2,1.2,3.1c0.3,1.1,0.4,2.2,0.4,3.4c0,1.2-0.1,2.3-0.4,3.4c-0.3,1.1-0.7,2.1-1.2,3.1
				c-0.5,1-1.1,1.8-1.9,2.6c-0.7,0.8-1.5,1.5-2.4,2c-0.9,0.6-1.9,1-2.9,1.3C267.6,317.8,266.5,318,265.4,318z M265.4,312.8
				c1,0,1.8-0.2,2.6-0.6c0.8-0.4,1.5-1,2-1.7c0.6-0.7,1-1.5,1.3-2.5c0.3-0.9,0.5-1.9,0.5-3c0-1.1-0.2-2.1-0.5-3
				c-0.3-0.9-0.8-1.8-1.3-2.5c-0.6-0.7-1.3-1.3-2-1.7c-0.8-0.4-1.7-0.6-2.6-0.6s-1.8,0.2-2.6,0.6c-0.8,0.4-1.5,1-2,1.7
				c-0.6,0.7-1,1.5-1.3,2.5c-0.3,0.9-0.5,1.9-0.5,3c0,1.1,0.2,2,0.5,3c0.3,0.9,0.8,1.8,1.3,2.5c0.6,0.7,1.2,1.3,2,1.7
				C263.6,312.6,264.5,312.8,265.4,312.8z"/>
			<path class="st1" d="M293.7,292.6h9.5v4.5h-2v20.4h-5.5l-10.4-16.1V313h2.1v4.5H278V313h2.1v-15.9h-2v-4.5h7.5l10.3,16.3v-11.8
				h-2.1V292.6z"/>
		</g>
	</g>
	<g>
		<path class="st0" d="M173.2,355.7h32.9c3.9,0,7.7,0.5,11.3,1.5c3.6,1,7,2.5,10.1,4.3c3.1,1.8,5.9,4.1,8.5,6.6
			c2.5,2.6,4.7,5.5,6.5,8.6c1.8,3.2,3.2,6.6,4.2,10.2c1,3.7,1.5,7.5,1.5,11.4c0,4-0.5,7.8-1.5,11.4s-2.4,7.1-4.2,10.3
			c-1.8,3.2-4,6.1-6.5,8.7s-5.4,4.9-8.5,6.7s-6.5,3.3-10.1,4.3c-3.6,1-7.4,1.5-11.3,1.5h-32.9v-15.5h6.8v-54.7h-6.8V355.7z
			 M198.8,371.3v54.7h7.2c3.1,0,5.9-0.7,8.7-2.1c2.7-1.4,5.1-3.4,7.1-5.9s3.6-5.4,4.8-8.7s1.8-6.9,1.8-10.8c0-3.8-0.6-7.4-1.8-10.7
			c-1.2-3.3-2.8-6.2-4.8-8.7c-2-2.5-4.4-4.4-7.1-5.8c-2.7-1.4-5.6-2.1-8.7-2.1H198.8z"/>
		<path class="st0" d="M258,355.7h36.7v15.5h-9.1v54.8h9.1v15.5H258v-15.5h8.9v-54.8H258V355.7z"/>
		<path class="st0" d="M342.6,443c-3.9,0-7.6-0.5-11.1-1.6c-3.5-1.1-6.9-2.5-9.9-4.5c-3.1-1.9-5.9-4.2-8.4-6.9
			c-2.5-2.7-4.6-5.7-6.4-9c-1.8-3.3-3.1-6.8-4.1-10.6c-1-3.8-1.5-7.7-1.5-11.8s0.5-8.1,1.5-11.9c1-3.8,2.4-7.3,4.1-10.6
			c1.8-3.3,3.9-6.3,6.4-9c2.5-2.7,5.3-5,8.4-6.9c3.1-1.9,6.4-3.4,9.9-4.5c3.5-1.1,7.3-1.6,11.1-1.6c3.9,0,7.6,0.5,11.2,1.6
			c3.6,1.1,6.9,2.5,10,4.5c3.1,1.9,5.9,4.2,8.4,6.9c2.5,2.7,4.7,5.7,6.4,9c1.8,3.3,3.2,6.8,4.2,10.6c1,3.8,1.5,7.7,1.5,11.9
			c0,4.1-0.5,8-1.5,11.8c-1,3.8-2.4,7.3-4.2,10.6c-1.8,3.3-3.9,6.3-6.4,9c-2.5,2.7-5.3,5-8.4,6.9c-3.1,1.9-6.4,3.4-10,4.5
			C350.2,442.4,346.5,443,342.6,443z M342.6,425.2c3.3,0,6.3-0.7,9-2.1c2.7-1.4,5.1-3.3,7-5.8c2-2.4,3.5-5.3,4.6-8.5
			s1.6-6.6,1.6-10.3c0-3.7-0.5-7.1-1.6-10.4s-2.6-6.1-4.6-8.5c-2-2.4-4.3-4.4-7-5.8c-2.7-1.4-5.7-2.1-8.9-2.1
			c-3.2,0-6.2,0.7-8.9,2.1c-2.7,1.4-5.1,3.3-7,5.8c-2,2.4-3.5,5.3-4.6,8.5c-1.1,3.2-1.7,6.7-1.7,10.4c0,3.6,0.6,7,1.7,10.3
			c1.1,3.2,2.6,6.1,4.6,8.5c2,2.4,4.3,4.4,7,5.8C336.4,424.5,339.3,425.2,342.6,425.2z"/>
		<path class="st0" d="M436.6,379.8c-0.2-1.3-0.7-2.6-1.4-3.7c-0.7-1.2-1.7-2.2-2.8-3c-1.2-0.8-2.5-1.5-3.9-2
			c-1.5-0.5-3-0.7-4.6-0.7c-1.4,0-2.8,0.2-4,0.5c-1.2,0.3-2.3,0.8-3.3,1.4c-0.9,0.6-1.7,1.4-2.2,2.4c-0.5,1-0.8,2.1-0.8,3.5
			c0,1.7,0.4,3,1.1,4c0.7,1,1.7,1.8,2.8,2.5c1.2,0.6,2.4,1.2,3.8,1.5c1.4,0.4,2.8,0.8,4.1,1.2l15.6,5.2c2.1,0.8,4.2,1.8,6.1,3.1
			c1.9,1.3,3.5,2.9,4.9,4.8s2.5,4.1,3.3,6.5c0.8,2.5,1.2,5.2,1.2,8.3c0,4.1-0.8,7.9-2.3,11.4c-1.5,3.4-3.7,6.4-6.4,8.8
			c-2.8,2.5-6.1,4.4-9.9,5.7s-8.1,2-12.8,2c-3.3,0-6.4-0.4-9.3-1.1c-2.9-0.7-5.6-1.8-8-3.2c-2.4-1.4-4.5-3.1-6.3-5
			c-1.8-1.9-3.2-4.1-4.2-6.6h-5.8v-17h20.5v3.5c0,1.7,0.3,3.3,0.8,4.7c0.5,1.4,1.4,2.7,2.5,3.7c1.1,1.1,2.5,1.9,4.1,2.5
			c1.7,0.6,3.6,0.9,5.8,0.9c3.4,0,6-0.8,7.7-2.3c1.8-1.6,2.7-3.7,2.7-6.5c0-1.4-0.3-2.6-0.9-3.6c-0.6-1-1.4-1.8-2.4-2.4
			s-2.1-1.2-3.3-1.7c-1.2-0.5-2.4-0.9-3.6-1.2l-13-4.2c-2.5-0.8-4.8-1.8-7.1-3.2c-2.3-1.4-4.3-3.1-6.1-5.1s-3.1-4.4-4.2-7.2
			s-1.6-5.9-1.6-9.4c0-4.1,0.8-7.7,2.3-10.9c1.5-3.2,3.6-5.9,6.3-8.1c2.7-2.2,5.9-3.8,9.7-5c3.7-1.1,7.8-1.7,12.3-1.7
			c3.5,0,6.7,0.4,9.7,1.2c3,0.8,5.6,1.9,8,3.3s4.4,2.9,6,4.7c1.6,1.8,2.9,3.6,3.8,5.5h5.7v17.1h-20.5V379.8z"/>
	</g>
	<rect x="173.2" y="460" class="st0" width="284" height="56"/>
	<g>
		<path class="st1" d="M190.6,480.9h7.7v3.7h-1.6v16.6h-4.4l-8.4-13.1v9.4h1.7v3.7h-7.7v-3.7h1.7v-12.9h-1.6v-3.7h6.1l8.4,13.3v-9.6
			h-1.7V480.9z"/>
		<path class="st1" d="M211,497.5h2l-0.9-2.9h-6.2l-0.9,2.9h2.1v3.7h-7.7v-3.7h1.5l5.5-16.6h5.4l5.4,16.6h1.5v3.7H211V497.5z
			 M206.9,491.2h4.1l-2.1-6.6L206.9,491.2z"/>
		<path class="st1" d="M220.1,480.9h7.8c0.9,0,1.8,0.1,2.7,0.4c0.9,0.2,1.6,0.6,2.4,1c0.7,0.4,1.4,1,2,1.6c0.6,0.6,1.1,1.3,1.5,2
			c0.4,0.7,0.8,1.6,1,2.4c0.2,0.9,0.3,1.8,0.3,2.7s-0.1,1.8-0.3,2.7c-0.2,0.9-0.6,1.7-1,2.4s-0.9,1.4-1.5,2.1
			c-0.6,0.6-1.3,1.2-2,1.6c-0.7,0.4-1.5,0.8-2.4,1c-0.9,0.2-1.7,0.4-2.7,0.4h-7.8v-3.7h1.6v-12.9h-1.6V480.9z M226.1,484.6v12.9h1.7
			c0.7,0,1.4-0.2,2-0.5c0.6-0.3,1.2-0.8,1.7-1.4c0.5-0.6,0.8-1.3,1.1-2.1c0.3-0.8,0.4-1.6,0.4-2.6c0-0.9-0.1-1.7-0.4-2.5
			c-0.3-0.8-0.7-1.5-1.1-2c-0.5-0.6-1-1-1.7-1.4c-0.6-0.3-1.3-0.5-2-0.5H226.1z"/>
		<path class="st1" d="M250.6,497.5h2l-0.9-2.9h-6.2l-0.9,2.9h2.1v3.7H239v-3.7h1.5l5.5-16.6h5.4l5.4,16.6h1.5v3.7h-7.7V497.5z
			 M246.5,491.2h4.1l-2.1-6.6L246.5,491.2z"/>
		<path class="st1" d="M265.6,497.5h1.9v-12.9h-1.9v-3.7h8.4l6,14.6l5.6-14.6h8.5v3.7h-1.9v12.9h1.9v3.7h-7.6v-3.7h1.4v-11.7
			l-6.1,15.1h-3.8l-6.2-14.7v11.3h1.5v3.7h-7.6V497.5z"/>
		<path class="st1" d="M297,480.9h16.1v6.9h-4.4v-2.9h-5.2v4h4v3.9h-4v4.7h5.2v-3.6h4.4v7.3H297v-3.7h2.1v-12.6H297V480.9z"/>
		<path class="st1" d="M320.9,480.9h15.7v6.9h-4.4V485h-4.8v4.3h4.2v3.9h-4.2v4.4h2.1v3.7h-8.7v-3.7h2.1V485h-2.1V480.9z"/>
		<path class="st1" d="M348.6,497.5h2l-0.9-2.9h-6.2l-0.9,2.9h2.1v3.7H337v-3.7h1.5l5.5-16.6h5.4l5.4,16.6h1.5v3.7h-7.7V497.5z
			 M344.5,491.2h4.1l-2.1-6.6L344.5,491.2z"/>
		<path class="st1" d="M358.1,480.9h8.7v3.7h-2.1v12.9h4.4c0.1,0,0.2,0,0.3-0.1c0.1-0.1,0.2-0.2,0.3-0.3c0.1-0.1,0.2-0.2,0.2-0.3
			c0.1-0.1,0.1-0.2,0.1-0.4v-2.7h4.3v7.5h-16.2v-3.7h2.1v-12.9h-2.1V480.9z"/>
		<path class="st1" d="M379.6,497.5h2.1v-13.1h-2.5v2.6h-4.4v-6.2h18.5v6.2h-4.4v-2.6h-2.8v13.1h2.1v3.7h-8.7V497.5z"/>
		<path class="st1" d="M404.4,497.5h2l-0.9-2.9h-6.2l-0.9,2.9h2.1v3.7h-7.7v-3.7h1.5l5.5-16.6h5.4l5.4,16.6h1.5v3.7h-7.7V497.5z
			 M400.3,491.2h4.1l-2.1-6.6L400.3,491.2z"/>
		<path class="st1" d="M413.9,480.9h10.7c1,0,2,0.2,2.8,0.5c0.8,0.3,1.5,0.7,2.1,1.3c0.6,0.5,1,1.1,1.3,1.8c0.3,0.7,0.4,1.4,0.4,2.2
			c0,0.7-0.1,1.3-0.2,1.8c-0.1,0.5-0.4,1-0.6,1.4c-0.3,0.4-0.6,0.8-1,1.1c-0.4,0.3-0.9,0.6-1.4,0.8c0.5,0.2,0.9,0.6,1.2,1.1
			s0.6,1.1,0.8,1.9l0.7,2.6h1.7l0,3.9h-5.9l-0.8-4.8c-0.1-0.6-0.2-1.1-0.4-1.5c-0.2-0.4-0.4-0.8-0.7-1c-0.3-0.3-0.6-0.5-1-0.6
			c-0.4-0.1-0.9-0.2-1.4-0.2h-1.7v4.4h1.9v3.7h-8.4v-3.7h2.1v-12.9h-2.1V480.9z M420.4,484.6v4.9h2.7c0.5,0,1,0,1.4-0.1
			c0.4-0.1,0.8-0.2,1-0.4c0.3-0.2,0.5-0.5,0.7-0.8c0.2-0.3,0.2-0.7,0.2-1.1c0-0.8-0.3-1.4-0.8-1.8c-0.6-0.4-1.4-0.7-2.5-0.7H420.4z"
			/>
		<path class="st1" d="M444.8,497.5h2l-0.9-2.9h-6.2l-0.9,2.9h2.1v3.7h-7.7v-3.7h1.5l5.5-16.6h5.4l5.4,16.6h1.5v3.7h-7.7V497.5z
			 M442.1,474.8h4.4v0.3l-4.1,3.8h-3.1L442.1,474.8z M440.7,491.2h4.1l-2.1-6.6L440.7,491.2z"/>
	</g>
</g>
</svg>
