<?xml version="1.0" encoding="utf-8"?>
<!-- Generator: Adobe Illustrator 25.3.0, SVG Export Plug-In . SVG Version: 6.00 Build 0)  -->
<svg version="1.1" id="Capa_1" xmlns="http://www.w3.org/2000/svg" xmlns:xlink="http://www.w3.org/1999/xlink" x="0px" y="0px"
	 viewBox="0 0 566.9 566.9" style="enable-background:new 0 0 566.9 566.9;" xml:space="preserve">
<style type="text/css">
	.st0{fill:#DF0928;}
	.st1{fill:#FFFFFF;}
</style>
<g>
	<path d="M285.5,197.7c-1.6-5.5-3.9-10.5-7-14.9c-3-4.4-6.5-8.1-10.5-11.1c-4-3-8.3-5.3-12.9-6.7c-4.6-1.4-9.3-2-14.1-1.6
		c-5.8,0.3-11.3,1.4-16.3,3.4c-5.1,2-9.7,4.6-13.9,7.8c-4.2,3.2-8,7-11.3,11.3c-3.3,4.3-6.2,8.9-8.5,13.9
		c-2.4,4.9-4.2,10.1-5.5,15.6c-1.3,5.5-2.1,10.9-2.4,16.4c-0.4,2-0.3,3.9,0.2,5.9c0.5,1.9,1.2,3.7,2.2,5.3c1,1.6,2.1,3,3.4,4.2
		c1.3,1.2,2.6,2,3.9,2.5c1.3,0.5,2.6,0.6,3.8,0.2c1.2-0.3,2.1-1.2,2.9-2.6c-1-3.8-1-8.5-0.2-14.2c0.8-5.7,2.4-11.6,4.8-17.8
		c2.3-6.2,5.3-12.2,8.8-18.1c3.5-5.9,7.6-10.9,12.1-15c-1.6,6.2-3.2,13-4.7,20.5c-1.5,7.4-2.8,15-4,22.7c-1.2,7.7-2.1,15.3-2.8,22.7
		c-0.7,7.4-1,14.2-0.9,20.3c0.1,0.9,0.8,2.1,2.2,3.7c1.4,1.6,2.8,3.1,4.4,4.4c1.6,1.4,3,2.4,4.4,3.1c1.3,0.7,2,0.5,2.1-0.3l-0.1,0.1
		c0.6-6.8,1.4-13.8,2.3-20.9c1-7.2,2.1-14.4,3.5-21.7c1.4-7.3,3-14.6,4.8-21.9c1.8-7.3,3.7-14.5,5.8-21.6c0.1-1.3-0.4-2.7-1.3-4.2
		c-1-1.5-2.2-2.8-3.6-4.1c-1.4-1.3-3-2.4-4.6-3.4c-1.6-1-3-1.7-4.2-2.2c2.4-1.8,4.9-3.3,7.5-4.4c2.6-1.1,5.3-1.8,8.1-2
		c2.9,0.1,5.7,0.8,8.4,2c2.7,1.3,5.3,3.1,7.6,5.4c2.4,2.3,4.4,5,6.2,8.1c1.8,3.1,3.1,6.5,4,10.2c1.4,5.8,1.9,11.9,1.4,18.1
		c-0.5,6.2-1.6,12.4-3.5,18.5c-1.8,6.1-4.3,11.9-7.3,17.4c-3,5.5-6.3,10.5-9.9,14.9c-3.6,4.4-7.4,8-11.4,11c-4,2.9-7.9,4.8-11.8,5.6
		c-2,0.2-4.1,0-6.3-0.8c-2.2-0.8-4.4-1.9-6.5-3.6c-2.1-1.7-4.1-3.8-5.9-6.3c-1.8-2.5-3.3-5.5-4.5-8.9c-1.2-0.9-2.6-1.3-4.4-1.2
		c-1.7,0.1-3.3,0.6-4.8,1.4c-1.5,0.9-2.6,2.1-3.4,3.6c-0.8,1.6-0.7,3.4,0.2,5.4c2.2,4.1,4.8,7.5,7.9,10.4c3,2.8,6.2,5.1,9.5,6.9
		c3.3,1.8,6.6,3,9.9,3.8c3.3,0.8,6.3,1.1,9.1,0.9c6.4-0.3,12.5-2,18.3-5.2c5.8-3.2,11-7.3,15.8-12.4c4.8-5.1,9-11,12.7-17.5
		c3.6-6.6,6.5-13.5,8.6-20.6c2.1-7.2,3.3-14.4,3.7-21.7C287.7,211.1,287.1,204.2,285.5,197.7z"/>
	<path d="M297,195.7c-0.1,1.9-0.1,3.8,0,5.5c0.1,1.8,0.3,3.4,0.6,4.9c0.2,0.8,0.8,1.8,1.7,3c0.9,1.2,2,2.3,3.3,3.4
		c1.3,1.1,2.5,2.1,3.9,2.9c1.3,0.8,2.5,1.4,3.5,1.6c0-2.3,0.2-4.4,0.6-6.2c0.4-1.8,0.7-3.5,1.1-5.2c0.4-1.7,0.7-3.3,1.1-5
		c0.4-1.6,0.5-3.5,0.3-5.6c-0.1-0.4-0.4-1.1-1.1-1.9c-0.6-0.8-1.4-1.8-2.4-2.8c-1-1-2-2-3.2-3.1c-1.2-1.1-2.3-2-3.4-2.9
		c-1.1-0.8-2.1-1.5-3.1-2c-1-0.5-1.7-0.7-2.3-0.6l-1.3,2.3c0.4,1.8,0.6,3.8,0.7,5.8C297.1,191.8,297.1,193.8,297,195.7z"/>
	<path d="M401,260.4l-1.9-6.6c-0.5-1.6-1-3.2-1.5-4.8c-0.5-1.6-0.9-3.1-1.3-4.7c-0.7-2.8-1-5.6-1.2-8.5c-0.1-2.9,0.2-5.6,1-8.2
		l0.9-2.2c0.4-1,0.7-1.9,1-2.6c0.3-0.7,1-1.6,2-2.9l-0.2,0.1c1.1-1.1,1.3-2.4,0.6-3.8c-0.7-1.4-1.8-2.8-3.4-4
		c-1.5-1.3-3.3-2.5-5.2-3.5c-1.9-1.1-3.5-1.9-4.8-2.5c-2.5,3-4.3,5.7-5.4,8c-1.1,2.3-2,4.4-2.7,6.4l-1.5,3.5
		c-1.5,3.3-2.8,6.6-4,10.1c-1.2,3.5-2.3,7-3.4,10.5l-1.5,4c-0.8,0.9-1.5,1.9-2.1,3.1c0.1-0.9,0.2-1.7,0.2-2.6c0-3.3-0.3-6.5-1.1-9.7
		c-0.2-0.8-0.3-1.5-0.5-2.1c-0.2-0.6-0.3-1.2-0.5-1.8c-0.8-1.8-1.7-3.5-2.5-5c-0.9-1.5-1.9-2.7-3-3.8c-1.3-2.9-3.1-5.5-5.4-7.7
		c-2.3-2.3-5-3.7-8.2-4.3c-3.2-0.2-6.2,0.2-8.9,1.3c-2.8,1.1-5.3,2.6-7.6,4.7c-2.3,2-4.2,4.4-5.9,7.3c-1.7,2.8-3,5.8-4,8.9
		c-1,3.2-1.5,6.4-1.7,9.8c0,0.1,0,0.1,0,0.2c-0.8,1.9-1.6,3.8-2.5,5.8c-1,2.4-2.2,4.7-3.4,6.8c-1.3,2.1-2.7,4-4.3,5.7
		c-1.6,1.7-3.4,2.8-5.5,3.6h-0.8c-0.7,0-0.9-1.2-0.6-3.5c0.3-2.3,0.8-5.2,1.5-8.5c0.8-3.3,1.7-6.9,2.7-10.6c1-3.7,1.9-7,2.7-9.9
		c0.2-0.8,0.5-1.7,0.7-2.7c0.3-1,0.5-1.8,0.7-2.6c0.2-0.7,0.4-1.3,0.5-1.8c0.1-0.4,0.1-0.6,0.1-0.4c0.3-1.7-0.1-3.4-1.3-5.3
		c-1.1-1.8-2.6-3.4-4.3-4.8c-1.7-1.4-3.4-2.4-5.1-3.1c-1.7-0.7-3.1-0.8-4-0.3l-0.8,1.3c-0.1,2.6-0.5,5.4-1,8.6
		c-0.6,3.1-1.1,6.4-1.7,9.7c-1,4.9-1.9,9.8-2.7,14.6c-0.8,4.9-1.2,9.1-1.2,12.8l0.1-0.1c-0.1,1.3-0.1,2.6,0,3.9
		c0.2,1.3,0.3,2.5,0.6,3.7c0.8,3.3,2.2,6,4,8.1c1.9,2.2,4.2,3.3,7,3.4c1.4,0,2.7-0.2,3.9-0.6c1.2-0.4,2.3-0.9,3.3-1.5
		c1-0.6,1.9-1.2,2.7-1.9c0.8-0.7,1.5-1.3,2-1.8c3.1-3.8,6-8.1,8.6-13c0.2-0.4,0.3-0.7,0.5-1.1c0.1,0.2,0.1,0.4,0.2,0.5
		c2.7,6.4,6.2,11.2,10.6,14.3c4.4,3.1,9,4.7,13.8,4.8c2.6,0,5-0.6,7.3-1.8c2.3-1.2,4.3-2.8,6.2-4.8c1.8-2,3.4-4.4,4.7-7.2
		c1-2,1.7-4.1,2.3-6.3c0.1,1.2,0.2,2.5,0.4,3.7c0.5,2.2,1.4,4.3,2.5,6.3c1.2,2,2.7,3.8,4.4,5.3c1.8,1.6,3.9,2.8,6.3,3.9
		c2.4,1,5.1,1.7,8,1.9c2.9,0.1,5.4-0.3,7.7-1.3c2.3-1,4-2.4,5.4-4.4c1.3-1.9,2.1-4.3,2.4-7C402.3,266.8,401.9,263.7,401,260.4z
		 M357.3,246.6c-0.3,3.8-1.1,7.4-2.3,10.7c-1.2,3.3-2.9,6.1-4.9,8.3c-2.1,2.2-4.4,3.3-7.1,3.1c-2.5-0.2-4.5-1.2-6-3
		c-1.5-1.9-2.5-4.2-3.1-7c-0.5-2.1-0.8-4.3-0.9-6.7c-0.1-2.4,0.1-4.8,0.4-7.3c0.4-2.4,1-4.8,1.8-7c0.8-2.3,1.8-4.3,3.1-6.1
		c1.3-1.7,2.7-3.1,4.4-4.3c1.7-1.1,3.3-1.8,4.8-1.9c0.8,0,1.4,0.1,1.7,0.2c-0.4,0.2-0.8,0.6-1.4,1.1c-0.6,0.5-1.1,1.1-1.6,1.8
		c-0.5,0.7-0.9,1.5-1.3,2.4c-0.3,0.9-0.4,1.9-0.3,2.8c0.2,0.8,0.3,1.8,0.6,2.9c0.3,1.1,0.6,2.2,1,3.2c0.4,1,0.9,1.9,1.4,2.7
		c0.5,0.8,1.1,1.3,1.8,1.6l2.4-1.9c0-0.6,0.1-1.3,0.4-2c0.3-0.7,0.6-1.4,1.1-2.1c0.4-0.7,0.9-1.2,1.5-1.7c0.6-0.5,1.2-0.7,1.8-0.7
		v0.6C357.4,239.3,357.6,242.7,357.3,246.6z M387.2,269.7c-0.3,0.9-0.8,1.6-1.6,2.1c-0.7,0.5-1.6,0.7-2.7,0.6
		c-1.1-0.2-2.3-0.5-3.5-1.1c-1.3-0.6-2.4-1.4-3.4-2.6c-0.2-0.5-0.5-1.1-0.8-1.6c-0.3-0.6-0.5-1-0.7-1.4c-0.2-1-0.1-1.9,0.5-2.8
		c0.6-0.9,1.3-1.6,2.2-2.2c0.9-0.5,1.9-0.7,3-0.5c1.1,0.2,2.1,0.9,3,2c0.5-0.7,0.6-1.7,0.4-3.2c-0.3-1.4-0.7-2.9-1.3-4.5
		c-0.6-1.6-1.2-3.1-1.9-4.5c-0.7-1.4-1.3-2.4-1.7-3l0.1-0.1l2.1-6.2c0.2,0.6,0.3,1.2,0.3,1.8c0.1,0.6,0.2,1.2,0.3,1.8
		c0.4,1.8,0.8,3.5,1.4,5.2c0.6,1.7,1.1,3.3,1.6,4.9c0.6,1.5,1.1,2.9,1.5,4.3c0.4,1.4,0.8,2.8,1.2,4.1c0.3,1.3,0.4,2.6,0.4,3.8
		C387.7,267.8,387.5,268.8,387.2,269.7z"/>
</g>
<g>
	<path d="M232.2,427.9c-0.8-1.2-1.7-2.4-2.7-3.5c-1-1.1-2.1-2.2-3.3-3.2c-1.2-1-2.4-1.9-3.6-2.7c1.5-0.7,2.9-1.7,4.3-2.8
		c1.4-1.1,2.5-2.4,3.5-3.9c1-1.5,1.7-3.2,2.2-5.2c0.5-1.9,0.7-4.1,0.6-6.6c0-0.4-0.1-0.9-0.1-1.3c0-0.4-0.1-1-0.3-1.6
		c-0.4-1.9-1.2-3.7-2.2-5.4c-1.1-1.7-2.4-3.2-3.9-4.5c-1.6-1.3-3.3-2.4-5.4-3.1c-2-0.8-4.2-1.2-6.6-1.2h-0.1c-3.5,0.2-6.7,0.8-9.7,2
		c-3,1.2-5.7,2.7-8.2,4.6c-2.5,1.9-4.7,4.2-6.6,6.7c-1.9,2.6-3.5,5.3-4.9,8.3c-1.4,3-2.5,6-3.3,9.3c-0.8,3.2-1.3,6.5-1.6,9.7
		c-0.1,0.8,0,1.6,0.2,2.4c0.2,0.8,0.6,1.7,1.1,2.5c0.6,0.8,1.3,1.6,2,2.2c0.7,0.7,1.5,1.3,2.3,1.8c0.8,0.5,1.5,0.9,2.2,1.1
		c0.6,0.2,1.1,0.3,1.5,0.2c0.4-0.1,0.5-0.4,0.3-0.9c-0.4-1.5-0.6-3.2-0.6-5.3c0.1-2.1,0.4-4.3,0.9-6.6c0.5-2.3,1.2-4.8,2.1-7.3
		c0.9-2.5,2-5,3.2-7.5c1.2-2.4,2.6-4.7,4.2-6.9c1.6-2.1,3.2-4,5.1-5.7c-0.9,3.6-1.8,7.6-2.6,11.9c-0.8,4.3-1.6,8.7-2.2,13.1
		c-0.7,4.4-1.2,8.7-1.5,13c-0.4,4.2-0.5,8.1-0.5,11.6c0,0.6,0.5,1.3,1.3,2.3c0.8,0.9,1.7,1.8,2.6,2.6c1,0.8,1.8,1.4,2.6,1.8
		c0.8,0.4,1.2,0.3,1.2-0.2l0.1,0.1c0.4-4.9,1-9.9,1.7-15.1c0.7-5.2,1.7-10.4,2.8-15.6c0.2,0.6,0.6,1.1,1.2,1.5
		c0.6,0.4,1.3,0.5,2.1,0.4h0.1c0.3,0.1,0.7,0.1,1.2,0c0.8,0,1.6,0.2,2.6,0.8c0.9,0.6,1.8,1.4,2.7,2.4c0.9,1,1.7,2.2,2.4,3.5
		c0.7,1.4,1.3,2.8,1.7,4.3c0.9,3.5,0.9,6.6,0.1,9.4c-0.8,2.8-2.2,5.1-4.2,7.1c-2,2-4.4,3.5-7.3,4.5c-2.9,1.1-6,1.6-9.4,1.6
		c-1.6,0-3.1-0.2-4.7-0.6c-1.5-0.4-2.9-1-4.1-1.7c-1.2-0.7-2.3-1.5-3.1-2.5c-0.8-1-1.4-2-1.7-3c-0.2-1-0.1-2.1,0.4-3.3
		c0.5-1.2,1.5-2.4,3-3.7c-0.2-0.4-0.8-0.7-1.8-1.1c-1-0.4-2-0.8-3.2-1.1c-1.2-0.3-2.3-0.6-3.4-0.8c-1.1-0.2-1.9-0.3-2.4-0.3
		c-0.9,1.5-1.6,3.1-1.9,4.7c-0.4,1.7-0.4,3.2,0,4.6c0.5,2.1,1.5,4,3.1,5.8c1.6,1.8,3.4,3.4,5.7,4.7c2.2,1.4,4.7,2.4,7.4,3.2
		c2.7,0.8,5.4,1.2,8.1,1.2c5.1,0,9.7-0.6,13.8-2c4.1-1.4,7.5-3.4,10.1-6c2.6-2.6,4.5-5.7,5.4-9.3c1-3.6,0.9-7.6-0.3-11.9
		C233.5,430.3,232.9,429.1,232.2,427.9z M218.9,411.3c-1.4,1.4-2.7,2.4-4.1,3.2c-1.4,0.8-2.6,1.3-3.5,1.6l-0.5,0.3
		c0.7-3,1.4-6,2.2-8.9c0.8-2.9,1.6-5.8,2.5-8.7c0-0.7-0.1-1.4-0.6-2.2c-0.4-0.8-1-1.5-1.7-2.2c-0.7-0.7-1.5-1.3-2.3-1.9
		c-0.8-0.6-1.6-1.1-2.3-1.5c1.2-0.8,2.5-1.3,3.7-1.7c1.2-0.4,2.5-0.6,3.9-0.7c1.1,0,2,0.1,2.9,0.5c0.8,0.4,1.5,0.8,2.1,1.4
		c0.6,0.6,1.1,1.3,1.5,2.2c0.4,0.8,0.7,1.7,0.9,2.6c0.2,0.8,0.4,1.6,0.4,2.3c0,0.8,0.1,1.5,0.1,2.3c-0.1,2.5-0.6,4.6-1.6,6.5
		C221.5,408.3,220.3,409.9,218.9,411.3z"/>
	<path d="M242.3,412c0.4,0.3,0.8,0.5,1.3,0.6c0.5,0.1,0.9-0.1,1.2-0.4l2.2-1.5c1.1-0.7,2.2-1.5,3.2-2.3c1.1-0.8,2.2-1.9,3.5-3.3
		c0.1-0.2,0-0.5-0.1-1c-0.2-0.5-0.4-1.1-0.8-1.7c-0.3-0.6-0.7-1.3-1.2-1.9c-0.5-0.7-0.9-1.3-1.3-1.8c-0.4-0.5-0.8-0.9-1.1-1.2
		c-0.3-0.3-0.6-0.3-0.7-0.2l-7.1,11.8c-0.2,0.6-0.2,1.2,0,1.7C241.6,411.3,241.9,411.7,242.3,412z"/>
	<path d="M290.1,436.9c-0.3-1-0.6-1.9-0.9-2.9c-0.3-0.9-0.5-1.9-0.8-2.8c-0.4-1.7-0.6-3.3-0.7-5.1c-0.1-1.7,0.1-3.3,0.6-4.9l0.5-1.3
		c0.2-0.6,0.4-1.1,0.6-1.5c0.2-0.4,0.6-1,1.2-1.7l-0.1,0.1c0.7-0.7,0.8-1.4,0.4-2.2c-0.4-0.8-1.1-1.6-2-2.4
		c-0.9-0.8-1.9-1.5-3.1-2.1c-1.1-0.6-2.1-1.1-2.8-1.5c-1.5,1.8-2.6,3.4-3.2,4.7c-0.6,1.4-1.2,2.6-1.6,3.8l-0.9,2.1
		c-0.9,1.9-1.7,3.9-2.4,6c-0.5,1.5-1,3-1.5,4.5c0,0-0.1,0-0.1,0.1l-0.6,1.9c0,0.1-0.1,0.2-0.1,0.4l-0.7,1.7c-1,1.1-1.7,2.5-2,4.2
		c-0.1,0.7-0.2,1.3-0.2,2c0,0,0,0.1,0,0.1c-0.6,1.3-1.4,2.5-2.2,3.5c-0.8,1-1.8,1.7-2.9,2.2h-0.7c0,0,0-0.2,0.1-0.5
		c-0.2-1-0.3-2.2-0.2-3.8c0.1-1.6,0.2-3.2,0.4-5c0.2-1.8,0.5-3.6,0.8-5.4c0.3-1.8,0.6-3.5,0.9-4.9l-0.1,0.1c0.2-0.9,0.3-1.7,0.5-2.5
		c0.1-0.7,0.2-1.3,0.3-1.6c0-1-0.3-2-1.1-3.1c-0.8-1.1-1.7-2-2.7-2.8c-1.1-0.8-2.1-1.4-3.2-1.8c-1.1-0.4-1.9-0.4-2.4-0.1l-0.5,0.9
		c0,1.4,0,3.2-0.2,5.3c-0.2,2.1-0.4,4.3-0.7,6.6c-0.1,0.6-0.2,1.2-0.2,1.9c0,0.6-0.1,1.3-0.1,1.9c-0.1,0.2-0.2,0.4-0.2,0.7
		c-0.1,0.2-0.1,0.5-0.2,0.7h0.1c-0.4,1.3-0.9,2.7-1.4,4.2c-0.5,1.4-1,2.8-1.6,4c-0.6,1.3-1.3,2.4-2.2,3.4c-0.8,1-1.8,1.7-2.9,2.1
		h-0.6c0,0,0-0.2,0.1-0.5c-0.3-0.9-0.4-2.2-0.3-3.7c0.1-1.6,0.2-3.2,0.4-5c0.2-1.8,0.5-3.5,0.8-5.3c0.3-1.8,0.6-3.4,0.9-4.8
		l-0.1,0.1c0.2-1,0.4-1.9,0.5-2.7c0.1-0.8,0.2-1.4,0.3-1.8c0-1-0.3-2-1.1-3.1c-0.8-1.1-1.7-2-2.7-2.8c-1.1-0.8-2.1-1.4-3.2-1.8
		c-1.1-0.4-1.8-0.4-2.4-0.1l-0.4,0.9c0,1.4-0.1,3-0.2,5.1c-0.2,2-0.3,4.2-0.5,6.4c-0.1,1.4-0.3,2.8-0.4,4.2
		c-0.1,1.4-0.2,2.8-0.3,4.1c-0.1,1.3-0.2,2.6-0.2,3.9c0,1.2,0,2.4,0.1,3.3c0,0.5,0.1,1,0.2,1.6c0.1,0.6,0.2,1.1,0.3,1.6
		c0.6,2.2,1.4,4.1,2.7,5.6c1.2,1.5,2.8,2.3,4.7,2.4c0.9,0,1.7-0.1,2.4-0.4c0.7-0.2,1.4-0.5,2-0.9c0.6-0.4,1.1-0.7,1.5-1.2
		c0.4-0.4,0.8-0.8,1.1-1.2c1.1-1.3,2.1-2.9,3-4.7c0,0,0,0.1,0,0.1c0,0,0,0,0,0.1c0.5,2.2,1.4,4.1,2.7,5.6c1.3,1.5,2.9,2.3,4.9,2.4
		c0.9,0,1.7-0.1,2.4-0.4c0.7-0.2,1.4-0.5,2-0.9c0.6-0.4,1.1-0.7,1.5-1.2c0.4-0.4,0.8-0.8,1.1-1.2c0.6-0.7,1.1-1.5,1.6-2.3
		c0.7,1.1,1.4,2,2.4,2.9c1.1,0.9,2.3,1.7,3.7,2.3c1.4,0.6,3,1,4.8,1.1c1.7,0.1,3.2-0.2,4.6-0.8c1.3-0.6,2.4-1.4,3.2-2.6
		c0.8-1.1,1.3-2.5,1.4-4.2c0.2-1.6,0-3.4-0.6-5.4L290.1,436.9z M283,446.4c-0.2,0.5-0.5,0.9-0.9,1.2c-0.4,0.3-0.9,0.4-1.6,0.3
		c-0.7-0.1-1.4-0.3-2.1-0.6s-1.4-0.8-2-1.5c-0.1-0.3-0.3-0.6-0.5-0.9c-0.2-0.3-0.3-0.6-0.4-0.8c-0.1-0.6,0-1.1,0.3-1.7
		c0.3-0.5,0.8-1,1.3-1.3c0.5-0.3,1.1-0.4,1.8-0.3c0.7,0.1,1.2,0.5,1.8,1.2c0.3-0.4,0.4-1,0.2-1.9c-0.2-0.8-0.4-1.7-0.8-2.7
		c-0.4-0.9-0.7-1.8-1.2-2.7c-0.4-0.9-0.8-1.4-1-1.8l0.1-0.1l1.2-3.7c0.1,0.4,0.1,0.7,0.2,1.1c0,0.4,0.1,0.7,0.2,1.1
		c0.2,1.1,0.5,2.1,0.8,3.1c0.3,1,0.7,2,1,2.9c0.3,0.9,0.7,1.7,0.9,2.6c0.3,0.8,0.5,1.6,0.7,2.4c0.2,0.8,0.3,1.5,0.3,2.2
		C283.3,445.2,283.2,445.9,283,446.4z"/>
	<path d="M403.9,428.4c-0.1-0.5-0.2-0.9-0.3-1.3c-0.1-0.3-0.2-0.7-0.3-1.1c-0.5-1.1-1-2.1-1.5-2.9c-0.5-0.9-1.1-1.6-1.8-2.2
		c-0.8-1.7-1.9-3.2-3.2-4.6c-1.4-1.4-3-2.2-4.9-2.6c-1.9-0.1-3.7,0.1-5.3,0.8c-1.7,0.6-3.2,1.6-4.5,2.8c-1.3,1.2-2.5,2.6-3.5,4.3
		c-1,1.7-1.8,3.4-2.4,5.3c-0.6,1.9-0.9,3.8-1,5.8c0,0.1,0,0.2,0,0.3c-0.4,1.1-0.7,2.2-1.1,3.3c-0.5,1.4-1,2.8-1.6,4
		c-0.6,1.3-1.3,2.4-2.2,3.4c-0.8,1-1.8,1.7-2.9,2.1H367c0,0,0-0.1,0-0.2c0-0.1,0-0.2,0-0.3c-0.4-1.4-0.4-3.1-0.2-5.2
		c0.2-2,0.6-4.1,1-6.2c0.5-2.1,1-4.2,1.5-6.1c0.5-2,1-3.6,1.3-4.8l0.2-0.8c0.3-1.5,0.6-3,1-4.6c0.4-1.6,0.7-3.2,1.1-4.8
		c0.3-1.5,0.6-2.9,0.8-4.1c0.2-1.2,0.3-2.2,0.4-2.8c0-1-0.4-2-1.2-3c-0.8-1-1.8-1.9-2.9-2.7c-1.1-0.8-2.2-1.4-3.3-1.7
		c-1.1-0.4-1.9-0.4-2.5,0c0,1.3-0.1,2.8-0.2,4.3c-0.1,1.6-0.3,3.2-0.5,4.8c-0.2,1.7-0.5,3.4-0.8,5.1c-0.3,1.7-0.6,3.4-0.9,5.1
		l-1.3,5.5c-0.4,2-0.9,3.7-1.2,5.2c-0.2,0.6-0.3,1.1-0.4,1.7c-0.2,0-0.4,0-0.5,0.1c-0.1,0.3-0.2,0.6-0.2,0.8
		c-0.1,0.3-0.2,0.6-0.4,0.9c-0.4,1.4-0.9,2.8-1.4,4.2c-0.5,1.5-1,2.8-1.7,4.1c-0.6,1.3-1.4,2.4-2.2,3.4c-0.8,1-1.8,1.7-2.9,2.2h-0.5
		c0,0,0-0.1,0.1-0.1c0.1,0,0.1-0.1,0-0.2c-0.1-0.6-0.2-1.3-0.2-2.1c0-0.8,0-1.7,0.1-2.6c0.1-0.9,0.1-1.9,0.3-2.8
		c0.1-1,0.2-1.9,0.4-2.7c0-0.4,0.1-0.8,0.2-1.2c0.1-0.4,0.1-0.7,0.2-1c0-0.6-0.2-1.2-0.6-1.9c-0.4-0.7-0.9-1.3-1.5-1.9
		c-0.6-0.6-1.3-1.2-2.1-1.7c-0.8-0.5-1.5-1-2.3-1.4c0.4,0.1,0.7,0.2,1.2,0.2c0.4,0,0.8,0,1.2-0.1c0.4-0.1,0.7-0.2,0.9-0.3
		c0.2-0.1,0.3-0.4,0.3-0.6c-0.2-1.1-0.5-2.3-0.9-3.4c-0.4-1.2-0.9-2.3-1.5-3.3c-0.6-1-1.4-1.9-2.2-2.7c-0.9-0.8-1.9-1.3-3.1-1.7
		c-0.7-0.2-1.3-0.3-1.8-0.4c-0.6-0.1-1.1-0.1-1.7-0.1c-1.9,0-3.7,0.4-5.3,1.2c-1.6,0.8-3.1,1.9-4.4,3.3c-1.3,1.4-2.4,3-3.4,4.8
		c-1,1.8-1.7,3.7-2.4,5.6c-0.2,0.7-0.3,1.4-0.4,2.1c-0.2,0.7-0.4,1.3-0.6,2c-0.3,1.1-0.7,2.2-1.1,3.3c-0.8,2-1.7,3.7-2.7,5.1
		c-1,1.5-2,2.6-3.1,3.5c-1.1,0.9-2.1,1.5-3.2,1.9c-1.1,0.3-2,0.4-3,0.2c-0.6-0.1-1.1-0.4-1.5-0.8c-0.5-0.4-0.9-0.9-1.3-1.5
		c-0.4-0.5-0.7-1.1-0.9-1.8c-0.3-0.6-0.5-1.3-0.7-1.9c-0.1-0.5-0.1-1-0.2-1.4c0-0.4-0.1-0.8-0.2-1.2c0-1.4,0.2-3.1,0.6-5
		c0.4-1.9,0.9-3.7,1.7-5.5c0.8-1.7,1.7-3.3,2.9-4.7c1.2-1.4,2.6-2.2,4.2-2.6c0.3-0.1,0.5-0.1,0.7,0c0.1,0.1,0.3,0.3,0.3,0.5
		c0.2,0.7,0.2,1.4-0.1,2.1c0,0.7,0.3,1.4,0.6,2c0.4,0.6,0.8,1,1.3,1.2c0.5,0.3,1,0.3,1.5,0.2c0.5-0.1,0.9-0.5,1.2-1
		c0.3-0.9,0.5-1.8,0.6-2.6c0-0.9-0.1-1.7-0.3-2.6c-0.4-1.9-1.3-3.4-2.7-4.6c-1.4-1.2-2.9-1.8-4.7-1.8c-1.7,0-3.4,0.3-5,0.9
		c-1.6,0.7-3,1.5-4.3,2.6c-1.3,1.1-2.4,2.2-3.3,3.4c-0.9,1.3-1.7,2.4-2.1,3.5c-1.4,3.3-2.3,6.4-2.7,9.3c-0.4,2.8-0.1,5.8,0.7,8.7
		c0.9,3.4,2.5,6.1,4.8,8.1c2.3,2,5.2,3,8.6,3c0.5,0,1.2,0,2.1-0.1c0.9-0.1,1.9-0.3,2.9-0.6c1.1-0.3,2.1-0.8,3.3-1.5
		c1.1-0.7,2.2-1.6,3.2-2.9c1-1.4,1.9-2.8,2.7-4.2c0.2,0.5,0.3,0.9,0.5,1.3c0.6,1.2,1.3,2.3,2.2,3.4c0.9,1.1,2,2,3.3,2.7
		c1.3,0.8,2.8,1.2,4.5,1.4c1.8,0,3.5-0.7,5-2.1c1.5-1.3,2.8-2.9,4-4.8c0.6,2,1.5,3.6,2.9,4.9c1.4,1.3,3.2,2.1,5.4,2.2
		c0.9,0,1.7-0.1,2.5-0.3c0.7-0.2,1.4-0.5,1.9-0.9c0.6-0.4,1.1-0.8,1.5-1.2c0.4-0.4,0.8-0.8,1-1.2c1.3-1.5,2.3-3.3,3.2-5.1
		c0,0.2,0.1,0.4,0.1,0.6c0.6,2.2,1.4,4.1,2.6,5.6c1.2,1.5,2.8,2.3,4.7,2.4c0.9,0,1.7-0.1,2.4-0.4c0.7-0.2,1.4-0.5,2-0.9
		c0.6-0.4,1.1-0.7,1.5-1.2c0.4-0.4,0.8-0.8,1.1-1.2c1.5-1.9,2.8-4.2,3.9-6.7c0.1-0.2,0.2-0.5,0.3-0.7c1.5,3.5,3.5,6.2,6,8
		c2.6,1.9,5.3,2.8,8.2,2.9c1.5,0,3-0.4,4.3-1.1c1.4-0.7,2.6-1.7,3.7-2.9c1.1-1.2,2-2.6,2.8-4.3c0.8-1.6,1.4-3.4,1.8-5.2
		c0.4-1.8,0.6-3.7,0.7-5.6C404.5,432.2,404.3,430.3,403.9,428.4z M341.3,425.2c-0.7-0.1-1.2-0.1-1.5,0.1l0.5,1.1
		c0.2,0.9,0.2,1.9,0.2,3.2c0,1.2-0.1,2.5-0.3,3.8c-0.4,1-0.8,2.1-1.4,3.4c-0.6,1.2-1.2,2.5-1.8,3.6c-0.7,1.2-1.3,2.2-2,3
		c-0.7,0.8-1.3,1.3-1.9,1.5c-1.3,0.4-2.2,0.2-2.8-0.5c-0.6-0.7-1-1.5-1.2-2.5c-0.2-0.7-0.4-1.4-0.4-2.1c-0.1-0.7-0.1-1.3,0-1.8
		c0-1.7,0.3-3.6,0.7-5.7c0.4-2.1,1.1-4.1,1.9-5.9c0.8-1.8,1.9-3.4,3.1-4.6c1.2-1.2,2.6-1.8,4.3-1.7c0.6,0,1.1,0.2,1.4,0.5
		c0.4,0.3,0.7,0.6,1.1,1c0.3,0.4,0.6,0.9,0.8,1.3c0.2,0.5,0.4,0.9,0.5,1.4c0,0.2,0.1,0.3,0.2,0.5c0.1,0.2,0.1,0.3,0.2,0.5
		c0.1,0.3,0.3,0.5,0.5,0.7C342.7,425.6,342,425.4,341.3,425.2z M398.9,432.7c-0.2,2.3-0.6,4.4-1.3,6.4c-0.7,2-1.7,3.6-2.9,4.9
		c-1.2,1.3-2.6,1.9-4.2,1.8c-1.5-0.1-2.7-0.7-3.6-1.8c-0.9-1.1-1.5-2.5-1.8-4.2c-0.3-1.2-0.5-2.6-0.5-4c0-1.4,0-2.9,0.3-4.3
		c0.2-1.4,0.6-2.8,1.1-4.2c0.5-1.3,1.1-2.5,1.8-3.6c0.7-1,1.6-1.9,2.6-2.5c1-0.7,1.9-1.1,2.9-1.1c0.5,0,0.8,0,1,0.1
		c-0.2,0.1-0.5,0.4-0.8,0.7c-0.3,0.3-0.7,0.7-0.9,1.1c-0.3,0.4-0.6,0.9-0.8,1.4c-0.2,0.5-0.3,1.1-0.2,1.7c0.1,0.5,0.2,1.1,0.4,1.7
		c0.1,0.7,0.3,1.3,0.6,1.9c0.2,0.6,0.5,1.1,0.8,1.6c0.3,0.5,0.7,0.8,1.1,0.9l1.4-1.1c0-0.4,0.1-0.7,0.2-1.2c0.1-0.4,0.4-0.9,0.6-1.2
		c0.3-0.4,0.6-0.7,0.9-1c0.4-0.3,0.7-0.4,1.1-0.4v0.3C399,428.3,399.1,430.4,398.9,432.7z"/>
</g>
<g>
	<path d="M371.7,507.6c-0.4,0-0.7,0-1,0c-8,0.1-16,0.2-24.1,0.3c-11.2,0.1-22.4,0.3-33.5,0.4c-2.5,0-4.9-0.1-7.4-0.2
		c-0.6,0-0.9,0.2-1.2,0.6c-0.9,1.2-2.3,1.5-3.7,1.4c-1-0.1-1.7-0.8-2-1.8c-0.3-0.9-0.1-1.8,0.6-2.4c1.7-1.5,2.9-1.6,4.7,0.1
		c0.6,0.6,1.1,0.8,1.9,0.7c9.2-0.2,18.4-0.4,27.6-0.5c8.7-0.1,17.4-0.2,26.1-0.2c3.7,0,7.5-0.1,11.2-0.1c0.5,0,0.9-0.1,1.4-0.4
		c0.6-0.4,1.4-0.7,2.1-0.9c0.3-0.1,0.6,0,0.9,0.1c1.4,0.5,2.3,2.4,2,3.8c-0.3,1-1.3,1.9-2.5,1.9c-1.2,0.1-2.3-0.6-2.8-1.7
		C372,508.4,371.9,508,371.7,507.6z"/>
	<path d="M213.1,507.6c-0.1,0.5-0.2,0.8-0.3,1c-0.6,1.6-2.4,2.2-4,1.4c-1.4-0.7-1.9-2.5-1-3.9c0.3-0.4,0.6-0.9,1.1-1.2
		c0.6-0.5,1.2-0.7,1.9-0.3c0.6,0.3,1.2,0.7,1.8,0.9c0.4,0.2,0.8,0.3,1.2,0.3c9.7,0.1,19.4,0.2,29.1,0.3c7.8,0.1,15.7,0.1,23.5,0.3
		c4.2,0.1,8.3,0.2,12.5,0.4c0.7,0,1.2-0.2,1.7-0.7c0.5-0.6,1.3-1.1,2-1.3c1.1-0.3,2.1,0.4,2.8,1.2c0.7,0.7,0.8,1.6,0.4,2.6
		c-0.5,1-1.3,1.6-2.4,1.6c-1.3-0.1-2.6-0.3-3.3-1.5c-0.3-0.4-0.6-0.5-1.1-0.5c-4,0.1-8.1,0.2-12.1,0.1c-8.8-0.1-17.5-0.2-26.3-0.3
		c-8.8-0.1-17.7-0.3-26.5-0.4C213.9,507.6,213.6,507.6,213.1,507.6z"/>
	<path d="M292.4,505.3c0.3-0.4,0.6-0.7,0.8-1c0.2-0.3,0.5-0.6,0.8-0.9c1.1-0.9,2.4-0.5,2.7,0.9c0.1,0.6,0.1,1.4-0.1,2
		c-0.1,0.5-0.4,1.1-0.7,1.6c-0.6,1-1.3,1.9-1.9,2.9c-0.6,1.1-2.5,1.1-3.1,0c-0.7-1.1-1.5-2.2-2.2-3.3c-0.5-0.8-0.8-1.7-0.7-2.6
		c0.1-0.9,0.4-1.6,1.3-1.9c0.8-0.3,1.4,0.2,1.9,0.8C291.6,504.2,292,504.7,292.4,505.3z"/>
</g>
<g>
	<path d="M207.6,323v-12.7h0.8l8,8v-8h2.6V323H218l-7.9-7.9v7.9H207.6z"/>
	<path d="M222.8,321.2c-1.2-1.2-1.8-2.7-1.8-4.5c0-1.8,0.6-3.3,1.8-4.5c1.2-1.2,2.7-1.8,4.5-1.8c1.8,0,3.3,0.6,4.5,1.8
		c1.2,1.2,1.8,2.7,1.8,4.5c0,1.8-0.6,3.3-1.8,4.5c-1.2,1.2-2.7,1.8-4.5,1.8C225.5,323,224,322.4,222.8,321.2z M227.3,320.7
		c1.1,0,2-0.4,2.8-1.1c0.7-0.8,1.1-1.7,1.1-2.8c0-1.1-0.4-2.1-1.1-2.8c-0.7-0.8-1.6-1.1-2.8-1.1c-1.1,0-2,0.4-2.8,1.1
		c-0.7,0.8-1.1,1.7-1.1,2.8c0,1.1,0.4,2.1,1.1,2.8C225.3,320.3,226.2,320.7,227.3,320.7z"/>
	<path d="M241.5,323v-12.7l9.4,0v2.4h-6.8v2.7h5.1v2.4h-5.1v2.9h6.8v2.4H241.5z"/>
	<path d="M260.4,310.7c0.7,0.3,1.3,0.7,1.8,1.3l-1.7,1.7c-0.6-0.7-1.4-1-2.4-1c-1,0-1.7,0.2-2,0.7c-0.3,0.5-0.3,0.9,0,1.2
		c0.3,0.3,0.9,0.6,2,0.8c1.1,0.1,2.1,0.5,2.9,1.1c0.9,0.6,1.3,1.5,1.3,2.8c0,1-0.5,1.9-1.4,2.6c-0.9,0.7-2,1.1-3.3,1.1
		c-1.2,0-2.2-0.2-3-0.5c-0.8-0.3-1.5-0.8-2-1.4l1.7-1.7c0.6,0.7,1.5,1.1,2.9,1.2c1.1,0,1.8-0.2,2.1-0.7c0.3-0.5,0.3-1,0-1.4
		c-0.3-0.5-1-0.8-2.1-0.9c-1-0.1-2-0.4-2.8-0.9c-0.9-0.5-1.3-1.4-1.3-2.6c0-1.1,0.5-2,1.5-2.7c1-0.7,2-1,3-1
		C258.8,310.3,259.7,310.4,260.4,310.7z"/>
	<path d="M277.5,310.7c0.7,0.3,1.3,0.7,1.8,1.3l-1.7,1.7c-0.6-0.7-1.4-1-2.4-1s-1.7,0.2-2,0.7c-0.3,0.5-0.3,0.9,0,1.2
		c0.3,0.3,0.9,0.6,2,0.8c1.1,0.1,2.1,0.5,2.9,1.1c0.9,0.6,1.3,1.5,1.3,2.8c0,1-0.5,1.9-1.4,2.6c-0.9,0.7-2,1.1-3.3,1.1
		c-1.2,0-2.2-0.2-3-0.5c-0.8-0.3-1.5-0.8-2-1.4l1.7-1.7c0.6,0.7,1.5,1.1,2.9,1.2c1.1,0,1.8-0.2,2.1-0.7s0.3-1,0-1.4
		c-0.3-0.5-1-0.8-2.1-0.9c-1-0.1-2-0.4-2.8-0.9c-0.8-0.5-1.3-1.4-1.3-2.6c0-1.1,0.5-2,1.5-2.7c1-0.7,2-1,3-1
		C275.9,310.3,276.8,310.4,277.5,310.7z"/>
	<path d="M282.9,321.2c-1.2-1.2-1.8-2.7-1.8-4.5c0-1.8,0.6-3.3,1.8-4.5c1.2-1.2,2.7-1.8,4.5-1.8c1.8,0,3.3,0.6,4.5,1.8
		c1.2,1.2,1.8,2.7,1.8,4.5c0,1.8-0.6,3.3-1.8,4.5c-1.2,1.2-2.7,1.8-4.5,1.8C285.7,323,284.1,322.4,282.9,321.2z M287.5,320.7
		c1.1,0,2-0.4,2.8-1.1c0.7-0.8,1.1-1.7,1.1-2.8c0-1.1-0.4-2.1-1.1-2.8c-0.7-0.8-1.6-1.1-2.8-1.1c-1.1,0-2,0.4-2.8,1.1
		c-0.7,0.8-1.1,1.7-1.1,2.8c0,1.1,0.4,2.1,1.1,2.8C285.4,320.3,286.3,320.7,287.5,320.7z"/>
	<path d="M298.3,310.3v10.4h6.8v2.4h-9.3v-12.7H298.3z"/>
	<path d="M308.4,321.2c-1.2-1.2-1.8-2.7-1.8-4.5c0-1.8,0.6-3.3,1.8-4.5c1.2-1.2,2.7-1.8,4.5-1.8c1.8,0,3.3,0.6,4.5,1.8
		c1.2,1.2,1.8,2.7,1.8,4.5c0,1.8-0.6,3.3-1.8,4.5c-1.2,1.2-2.7,1.8-4.5,1.8C311.1,323,309.6,322.4,308.4,321.2z M313,320.7
		c1.1,0,2-0.4,2.8-1.1c0.7-0.8,1.1-1.7,1.1-2.8c0-1.1-0.4-2.1-1.1-2.8c-0.7-0.8-1.6-1.1-2.8-1.1c-1.1,0-2,0.4-2.8,1.1
		c-0.7,0.8-1.1,1.7-1.1,2.8c0,1.1,0.4,2.1,1.1,2.8C310.9,320.3,311.8,320.7,313,320.7z"/>
	<path d="M327.2,323v-12.7h5.6c3,0,4.5,1.2,4.5,3.7c0,2.5-1.5,3.8-4.5,3.8h-3v5.3H327.2z M329.7,315.4h3.6c1,0,1.6-0.5,1.6-1.4
		c0-0.8-0.5-1.3-1.6-1.3h-3.6V315.4z"/>
	<path d="M338.4,323l5.1-12.7h2.6l5.1,12.7l-2.7,0l-0.8-2h-5.8l-0.8,2H338.4z M344.8,313.7l-1.9,4.8h3.8L344.8,313.7z"/>
	<path d="M360.7,317.5l3.2,5.6H361l-3.1-5.3h-2.3v5.3H353v-12.7h5.6c3,0,4.5,1.2,4.5,3.7C363.1,315.8,362.3,317,360.7,317.5z
		 M355.6,315.4h3.6c1,0,1.6-0.5,1.6-1.4c0-0.8-0.5-1.3-1.6-1.3h-3.6V315.4z"/>
	<path d="M364.5,323l5.1-12.7h2.6l5.1,12.7l-2.7,0l-0.8-2H368l-0.8,2H364.5z M371,313.7l-1.9,4.8h3.8L371,313.7z"/>
</g>
<g>
	<path d="M219.5,476.1v2.6h-4.6V490h-2.8v-11.3h-4.6v-2.6H219.5z"/>
	<path d="M222.9,488c-1.3-1.3-2-3-2-5c0-2,0.7-3.6,2-5c1.3-1.3,3-2,5-2s3.6,0.7,5,2c1.3,1.3,2,3,2,5c0,2-0.7,3.6-2,5
		c-1.3,1.3-3,2-5,2S224.2,489.4,222.9,488z M227.8,487.4c1.2,0,2.2-0.4,3-1.2c0.8-0.8,1.2-1.9,1.2-3.1c0-1.2-0.4-2.3-1.2-3.1
		c-0.8-0.8-1.8-1.3-3-1.3c-1.2,0-2.2,0.4-3,1.3c-0.8,0.8-1.2,1.9-1.2,3.1c0,1.2,0.4,2.3,1.2,3.1C225.6,487,226.6,487.4,227.8,487.4z
		"/>
	<path d="M236.8,490v-13.9h5.4c4.3,0,6.5,2.3,6.5,7c0,4.6-2.2,7-6.5,7H236.8z M242.2,487.2c2.5,0,3.7-1.4,3.7-4.2
		c0-2.8-1.2-4.2-3.7-4.2h-2.6v8.4H242.2z"/>
	<path d="M252.9,488c-1.3-1.3-2-3-2-5c0-2,0.7-3.6,2-5c1.3-1.3,3-2,5-2c2,0,3.6,0.7,5,2c1.3,1.3,2,3,2,5c0,2-0.7,3.6-2,5
		c-1.3,1.3-3,2-5,2C255.9,490,254.3,489.4,252.9,488z M257.9,487.4c1.2,0,2.2-0.4,3-1.2c0.8-0.8,1.2-1.9,1.2-3.1
		c0-1.2-0.4-2.3-1.2-3.1c-0.8-0.8-1.8-1.3-3-1.3c-1.2,0-2.2,0.4-3,1.3c-0.8,0.8-1.2,1.9-1.2,3.1c0,1.2,0.4,2.3,1.2,3.1
		C255.7,487,256.7,487.4,257.9,487.4z"/>
	<path d="M274.5,476.6c0.7,0.3,1.4,0.8,2,1.4l-1.9,1.9c-0.6-0.7-1.5-1.1-2.6-1.1s-1.8,0.3-2.1,0.8c-0.3,0.5-0.3,1,0,1.3
		c0.3,0.4,1,0.6,2.1,0.8c1.2,0.1,2.2,0.5,3.2,1.2c1,0.7,1.4,1.7,1.4,3.1c0,1.1-0.5,2.1-1.5,2.9c-1,0.8-2.2,1.2-3.6,1.2
		c-1.3,0-2.4-0.2-3.2-0.6c-0.9-0.4-1.6-0.9-2.2-1.5l1.9-1.9c0.6,0.7,1.7,1.2,3.2,1.3c1.2,0,2-0.3,2.3-0.8c0.3-0.5,0.3-1,0-1.6
		c-0.3-0.5-1.1-0.9-2.3-1c-1.1-0.1-2.1-0.5-3.1-1c-0.9-0.6-1.4-1.5-1.4-2.9c0-1.2,0.5-2.2,1.6-3c1.1-0.7,2.1-1.1,3.2-1.1
		C272.7,476.1,273.7,476.3,274.5,476.6z"/>
	<path d="M288.4,476.1v11.3h7.4v2.6h-10.2v-13.9H288.4z"/>
	<path d="M299.4,488c-1.3-1.3-2-3-2-5c0-2,0.7-3.6,2-5c1.3-1.3,3-2,5-2c2,0,3.6,0.7,5,2c1.3,1.3,2,3,2,5c0,2-0.7,3.6-2,5
		c-1.3,1.3-3,2-5,2C302.4,490,300.7,489.4,299.4,488z M304.4,487.4c1.2,0,2.2-0.4,3-1.2c0.8-0.8,1.2-1.9,1.2-3.1
		c0-1.2-0.4-2.3-1.2-3.1c-0.8-0.8-1.8-1.3-3-1.3c-1.2,0-2.2,0.4-3,1.3c-0.8,0.8-1.2,1.9-1.2,3.1c0,1.2,0.4,2.3,1.2,3.1
		C302.1,487,303.1,487.4,304.4,487.4z"/>
	<path d="M320.9,476.6c0.7,0.3,1.4,0.8,2,1.4l-1.9,1.9c-0.6-0.7-1.5-1.1-2.6-1.1c-1.1,0-1.8,0.3-2.1,0.8c-0.3,0.5-0.3,1,0,1.3
		c0.3,0.4,1,0.6,2.1,0.8c1.2,0.1,2.2,0.5,3.2,1.2c1,0.7,1.4,1.7,1.4,3.1c0,1.1-0.5,2.1-1.5,2.9c-1,0.8-2.2,1.2-3.6,1.2
		c-1.3,0-2.4-0.2-3.2-0.6c-0.9-0.4-1.6-0.9-2.2-1.5l1.9-1.9c0.6,0.7,1.7,1.2,3.2,1.3c1.2,0,2-0.3,2.3-0.8c0.3-0.5,0.3-1,0-1.6
		c-0.3-0.5-1.1-0.9-2.3-1c-1.1-0.1-2.1-0.5-3.1-1c-0.9-0.6-1.4-1.5-1.4-2.9c0-1.2,0.5-2.2,1.6-3c1.1-0.7,2.1-1.1,3.2-1.1
		C319.2,476.1,320.2,476.3,320.9,476.6z"/>
	<path d="M332.1,490v-13.9h5.4c4.3,0,6.5,2.3,6.5,7c0,4.6-2.2,7-6.5,7H332.1z M337.4,487.2c2.5,0,3.7-1.4,3.7-4.2
		c0-2.8-1.2-4.2-3.7-4.2h-2.6v8.4H337.4z"/>
	<path d="M346.9,476.1h2.8V490h-2.8V476.1z"/>
	<path d="M351.7,490l5.6-13.9h2.8l5.6,13.9l-3,0l-0.8-2.1h-6.3l-0.8,2.1H351.7z M358.8,479.8l-2.1,5.3h4.2L358.8,479.8z"/>
	<path d="M375.2,476.6c0.7,0.3,1.4,0.8,2,1.4l-1.9,1.9c-0.6-0.7-1.5-1.1-2.6-1.1c-1.1,0-1.8,0.3-2.1,0.8c-0.3,0.5-0.3,1,0,1.3
		c0.3,0.4,1,0.6,2.1,0.8c1.2,0.1,2.2,0.5,3.2,1.2c1,0.7,1.4,1.7,1.4,3.1c0,1.1-0.5,2.1-1.5,2.9c-1,0.8-2.2,1.2-3.6,1.2
		c-1.3,0-2.4-0.2-3.2-0.6c-0.9-0.4-1.6-0.9-2.2-1.5l1.9-1.9c0.6,0.7,1.7,1.2,3.2,1.3c1.2,0,2-0.3,2.3-0.8c0.3-0.5,0.3-1,0-1.6
		c-0.3-0.5-1.1-0.9-2.3-1c-1.1-0.1-2.1-0.5-3.1-1c-0.9-0.6-1.4-1.5-1.4-2.9c0-1.2,0.5-2.2,1.6-3c1.1-0.7,2.1-1.1,3.2-1.1
		C373.5,476.1,374.5,476.3,375.2,476.6z"/>
</g>
<rect x="159.6" y="336.5" class="st0" width="265.7" height="41.3"/>
<g>
	<path class="st1" d="M182.7,367.8v-21.3l15.7,0v4H187v4.5h8.5v4H187v4.8h11.4v4H182.7z"/>
	<path class="st1" d="M202.6,367.8v-21.3h1.4l9.2,10.5l9.2-10.5h1.4v21.3h-4.3l0-12.4l-6.4,7.1l-6.4-7.1v12.4H202.6z"/>
	<path class="st1" d="M228.2,367.8v-21.3l15.7,0v4h-11.4v4.5h8.5v4h-8.5v4.8h11.4v4H228.2z"/>
	<path class="st1" d="M260.9,358.5l5.3,9.3h-4.9l-5.1-8.8h-3.9v8.8h-4.3v-21.3h9.3c5,0,7.5,2,7.5,6.1
		C264.9,355.7,263.5,357.6,260.9,358.5z M252.4,355h6c1.7,0,2.6-0.8,2.6-2.3c0-1.4-0.9-2.1-2.6-2.2h-6V355z"/>
	<path class="st1" d="M270.4,364.7c-2-2-3.1-4.6-3.1-7.6c0-3,1-5.5,3.1-7.5c2-2,4.6-3.1,7.6-3.1c3,0,5.6,0.9,7.8,2.8l-2.8,3.1
		c-1.4-1.1-3.1-1.7-5-1.7c-1.9,0-3.5,0.6-4.6,1.8c-1.2,1.2-1.8,2.7-1.8,4.5c0,2,0.6,3.5,1.8,4.7c1.2,1.2,2.7,1.7,4.6,1.7
		c1.5,0,2.7-0.3,3.5-0.9v-3.6l-2.8,0v-4h7.1v9.9c-2.2,1.9-4.8,2.8-7.8,2.8C274.9,367.8,272.4,366.7,270.4,364.7z"/>
	<path class="st1" d="M290,367.8v-21.3l15.7,0v4h-11.4v4.5h8.5v4h-8.5v4.8h11.4v4H290z"/>
	<path class="st1" d="M309.9,367.8v-21.3h1.4l13.4,13.4v-13.4h4.3v21.3h-1.6l-13.2-13.2v13.2H309.9z"/>
	<path class="st1" d="M335.4,364.7c-2-2-3.1-4.6-3.1-7.6c0-3,1-5.5,3.1-7.5c2-2,4.6-3.1,7.6-3.1c3,0,5.7,0.9,7.8,2.8l-2.8,3.1
		c-1.4-1.1-3.1-1.7-5-1.7c-1.9,0-3.5,0.6-4.6,1.8c-1.2,1.2-1.8,2.7-1.8,4.5c0,2,0.6,3.5,1.8,4.7c1.2,1.2,2.7,1.7,4.6,1.7
		s3.6-0.6,5-1.7l2.8,3.1c-2.2,1.9-4.8,2.8-7.8,2.8C340,367.8,337.4,366.7,335.4,364.7z"/>
	<path class="st1" d="M355.4,346.4h4.2v21.3h-4.2V346.4z"/>
	<path class="st1" d="M362.8,367.8l8.5-21.3h4.3l8.5,21.3l-4.5,0l-1.3-3.3h-9.7l-1.3,3.3H362.8z M373.6,352.1l-3.2,8.1h6.4
		L373.6,352.1z"/>
	<path class="st1" d="M398.8,347.2c1.1,0.5,2.1,1.2,3.1,2.1l-2.8,2.8c-0.9-1.1-2.3-1.7-4-1.7s-2.8,0.4-3.3,1.2
		c-0.5,0.8-0.5,1.5,0,2.1c0.5,0.6,1.6,1,3.3,1.3c1.8,0.2,3.4,0.8,4.9,1.8c1.5,1,2.2,2.6,2.2,4.8c0,1.7-0.8,3.2-2.3,4.4
		c-1.6,1.2-3.4,1.8-5.5,1.8c-2,0-3.6-0.3-5-0.9c-1.3-0.6-2.5-1.3-3.4-2.3l2.8-2.8c0.9,1.1,2.6,1.8,4.8,2c1.9,0,3.1-0.4,3.5-1.2
		c0.5-0.8,0.5-1.6,0-2.4c-0.5-0.8-1.7-1.3-3.5-1.5c-1.7-0.2-3.3-0.7-4.7-1.6c-1.4-0.9-2.1-2.3-2.1-4.4c0-1.9,0.8-3.4,2.4-4.5
		c1.6-1.1,3.3-1.7,5-1.7C396.2,346.5,397.7,346.7,398.8,347.2z"/>
</g>
<g>
	<path class="st0" d="M316.7,111.3l0-30.1l-3-0.9c-2.6-7.8-11-10-20-10c-10.7,0-22,3.3-24.5,7.2l-3.8,1.1l0.1,32.6
		c0,0-5.4-1.3-7.6,4.2v33.9c0,0,35.2,5.5,70.4,0v-31C324.5,110.4,316.7,111.3,316.7,111.3z M282.6,114.6l-7,0.1l0-26.4
		c0,0,6.9,0,7.1,0L282.6,114.6z M279.2,86c-5.1,0-5.1-7.9,0-7.9C284.2,78.1,284.2,86,279.2,86z"/>
	<path class="st0" d="M295.3,57.4h-5.5c-1.3,0-2.4-1.1-2.4-2.4v-29c0-1.3,1.1-2.4,2.4-2.4h5.5c1.3,0,2.4,1.1,2.4,2.4v29
		C297.7,56.3,296.6,57.4,295.3,57.4z"/>
	<path class="st0" d="M351.6,57.8l0.7,5.5c0.2,1.3-0.8,2.5-2.1,2.7l-28.8,3.5c-1.3,0.2-2.5-0.8-2.7-2.1l-0.7-5.5
		c-0.2-1.3,0.8-2.5,2.1-2.7l28.8-3.5C350.2,55.5,351.4,56.5,351.6,57.8z"/>
	<path class="st0" d="M266.9,60.3l-0.8,5.5c-0.2,1.3-1.4,2.3-2.7,2.1l-28.8-4c-1.3-0.2-2.3-1.4-2.1-2.7l0.8-5.5
		c0.2-1.3,1.4-2.3,2.7-2.1l28.8,4C266.1,57.8,267.1,59,266.9,60.3z"/>
	<path class="st0" d="M278.8,53.1l-2.1,2.1c-0.5,0.5-1.3,0.5-1.8,0l-17.3-17.3c-0.5-0.5-0.5-1.3,0-1.8l2.1-2.1
		c0.5-0.5,1.3-0.5,1.8,0l17.3,17.3C279.3,51.7,279.3,52.6,278.8,53.1z"/>
	<path class="st0" d="M326.4,34l2.1,2.1c0.5,0.5,0.5,1.3,0,1.8l-17.3,17.3c-0.5,0.5-1.3,0.5-1.8,0l-2.1-2.1c-0.5-0.5-0.5-1.3,0-1.8
		L324.6,34C325.1,33.5,325.9,33.5,326.4,34z"/>
</g>
</svg>
