<?xml version="1.0" encoding="utf-8"?>
<!-- Generator: Adobe Illustrator 25.3.0, SVG Export Plug-In . SVG Version: 6.00 Build 0)  -->
<svg version="1.1" id="Capa_1" xmlns="http://www.w3.org/2000/svg" xmlns:xlink="http://www.w3.org/1999/xlink" x="0px" y="0px"
	 viewBox="0 0 566.9 566.9" style="enable-background:new 0 0 566.9 566.9;" xml:space="preserve">
<style type="text/css">
	.st0{fill:#020203;}
	.st1{fill:#FEEB1A;}
</style>
<g>
	<path class="st0" d="M292,555.9c-1,0-2-0.1-2.8-0.3l0,0c-65.7-15.4-176.6-89-194-164.8C77.9,315.2,84.7,114.9,85,106.4l0.1-3.7
		l3.1-2.1c2-1.4,199.1-135.5,407.5,0.5l3.2,2.1l0.1,3.9c0.3,8.5,7.1,208.2-10.3,283.7c-17.4,75.8-128.3,149.4-194,164.8
		C294,555.8,293,555.9,292,555.9z M99.8,110.8c-0.9,28.7-5.6,208.6,10,276.6c16.6,72.4,127.1,140.3,182.3,153.5
		c54.4-12.9,165.5-80.9,182.1-153.5c15.6-68,10.9-247.2,10-275.9C299.6-6.5,125,94.9,99.8,110.8z"/>
</g>
<g>
	<path class="st0" d="M292,518.8c-0.6,0-1.3-0.1-1.8-0.2l0,0c-56.3-13.2-151.3-76.1-166.1-140.8c-15-65.1-9.1-238.4-8.8-245.8
		l0.1-1.9l1.5-1.1c1.7-1.2,171.1-116.4,350.1,0.5l1.6,1.1l0.1,1.9c0.3,7.3,6.1,180.1-8.8,245.2C445,442.5,350.1,505.4,293.8,518.6
		C293.3,518.7,292.6,518.8,292,518.8z M122.7,134.2c-0.6,19.5-5.2,181.4,8.7,241.9C146,440,243.5,499.9,291.8,511.3
		c48.6-11.3,146.2-71.2,160.9-135.2c13.9-60.5,9.3-221.8,8.7-241.4C296.1,28.2,139.8,123.1,122.7,134.2z"/>
</g>
<g>
	<path class="st0" d="M148.6,185.2c-4.3-13.1-6.4-19.7-10.7-32.8c6.3-2,9.5-3,15.8-4.9c8.5-2.5,13.6-0.3,15.3,6.1
		c1.7,6.6-1.5,11-9.6,13.3c-3.3,1-5,1.4-8.3,2.5c1.7,5.4,2.5,8.2,4.2,13.6C152.6,183.9,151.3,184.4,148.6,185.2z M149.2,163.3
		c4-1.2,5.9-1.8,9.9-2.9c2.8-0.9,4-2.6,3.4-4.9c-0.6-2.1-2.5-2.9-5.3-2.2c-4.1,1.2-6.1,1.8-10.1,3
		C147.9,159.1,148.4,160.5,149.2,163.3z"/>
	<path class="st0" d="M197.9,156.8c4.7,5.2,7,7.8,11.5,13.1c-3.2,0.6-4.7,0.9-7.9,1.5c-4.4-4.9-6.7-7.4-11.3-12.2
		c-2.6,0.6-3.9,0.9-6.5,1.5c1.3,5.6,1.9,8.3,3.2,13.9c-2.7,0.6-4.1,1-6.8,1.6c-3.3-13.4-5-20.1-8.3-33.5c6.4-1.6,9.6-2.3,16-3.7
		c8.6-1.8,13.5,0.7,14.8,7.2C203.6,151.1,202,154.6,197.9,156.8z M182.4,154.4c4-0.9,6-1.4,10-2.2c2.9-0.7,4.2-2.3,3.7-4.6
		c-0.4-2.1-2.2-3.1-5.1-2.6c-4.1,0.9-6.2,1.3-10.3,2.3C181.4,150.1,181.7,151.5,182.4,154.4z"/>
	<path class="st0" d="M215.5,163.8c-3.9-2.7-6.3-6.4-7.1-11.2c-0.9-4.8,0.2-9.2,3.1-13c3-3.8,7.2-6.2,12.5-6.9
		c5.3-0.7,10,0.4,13.8,3.3c3.9,2.9,6,6.8,6.5,11.7c0.5,4.9-0.8,9.1-3.8,12.8c-3,3.7-6.9,5.8-11.8,6.5
		C223.7,167.5,219.3,166.6,215.5,163.8z M227.8,160.5c3.1-0.4,5.5-1.8,7.2-4.1c1.7-2.3,2.4-5,2.1-8c-0.3-3-1.6-5.5-3.9-7.3
		c-2.3-1.8-5.1-2.5-8.4-2c-3.3,0.4-5.7,1.9-7.5,4.2c-1.7,2.4-2.3,5.1-1.8,8.1c0.5,3,1.9,5.4,4.2,7.1
		C221.9,160.3,224.6,160.9,227.8,160.5z"/>
	<path class="st0" d="M278.7,128.2c0.1,2.6,0.1,3.9,0.2,6.4c-4.9,0.1-7.4,0.2-12.3,0.5c0.6,11.2,0.9,16.8,1.5,28
		c-2.8,0.1-4.2,0.2-7,0.4c-0.7-11.2-1.1-16.8-1.9-28c-4.9,0.3-7.4,0.5-12.3,1c-0.2-2.6-0.4-3.8-0.6-6.4
		C259.2,128.9,265.7,128.5,278.7,128.2z"/>
	<path class="st0" d="M284.7,162.6c-0.2-13.8-0.3-20.7-0.5-34.5c11-0.2,16.5-0.1,27.6,0.3c-0.1,2.6-0.2,3.9-0.3,6.4
		c-7.9-0.3-11.9-0.4-19.8-0.4c0,2.9,0,4.4,0,7.4c5.9,0,8.8,0,14.6,0.2c-0.1,2.6-0.1,3.8-0.2,6.4c-5.8-0.2-8.7-0.2-14.4-0.2
		c0,3.1,0,4.7,0,7.8c7.6,0,11.3,0.1,18.9,0.4c-0.1,2.6-0.2,3.9-0.3,6.4C300.1,162.5,295,162.4,284.7,162.6z"/>
	<path class="st0" d="M320.8,158.5c-3.2-3.5-4.7-7.7-4.4-12.6c0.3-4.8,2.2-8.8,6-11.9c3.8-3.1,8.3-4.4,13.6-4
		c5.3,0.5,9.8,2.5,13.2,6c-2.2,1.8-3.3,2.7-5.5,4.5c-2.3-2.1-5.1-3.3-8.3-3.6c-3.3-0.3-6.1,0.5-8.2,2.2c-2.2,1.8-3.3,4.2-3.5,7.1
		c-0.2,3.2,0.6,5.8,2.5,7.8c1.8,2,4.3,3.2,7.5,3.4c2.5,0.2,4.5-0.1,6-0.9c0.2-2.4,0.4-3.5,0.6-5.9c-1.9-0.2-2.9-0.3-4.8-0.4
		c0.2-2.6,0.4-3.9,0.6-6.4c4.8,0.4,7.3,0.7,12.1,1.3c-0.7,6.4-1.1,9.6-1.9,16c-3.9,2.6-8.3,3.7-13.3,3.3
		C328,163.9,324,161.9,320.8,158.5z"/>
	<path class="st0" d="M357.2,132.3c3,0.4,4.5,0.6,7.4,1c-2,13.7-3,20.5-5,34.2c-2.8-0.4-4.1-0.6-6.9-1
		C354.5,152.8,355.4,146,357.2,132.3z"/>
	<path class="st0" d="M366.6,168.5c2.2-13.6,3.3-20.4,5.5-34.1c5.7,0.9,8.6,1.4,14.3,2.5c11.5,2.2,15.9,9.2,13.4,20.5
		c-2.6,11.2-9.2,15.5-19.9,13.4C374.6,169.9,371.9,169.4,366.6,168.5z M381.2,164.2c6.2,1.2,10-1.5,11.5-8.3
		c1.4-6.7-1.1-10.8-7.6-12.1c-2.7-0.5-4.1-0.8-6.8-1.3c-1.5,8.2-2.2,12.2-3.6,20.4C377.3,163.4,378.6,163.7,381.2,164.2z"/>
	<path class="st0" d="M407.6,172c-2.5-4-3.2-8.4-2.1-13.2c1.2-4.8,3.8-8.3,8.1-10.7c4.3-2.3,9.1-2.8,14.3-1.3
		c5.2,1.5,9,4.4,11.5,8.6c2.4,4.2,2.8,8.7,1.3,13.3c-1.5,4.7-4.4,8-8.7,10.1c-4.2,2.1-8.7,2.5-13.5,1.1
		C413.7,178.7,410.1,176.1,407.6,172z M420.3,173.9c3,0.9,5.8,0.6,8.3-0.8c2.5-1.4,4.2-3.6,5.1-6.5c0.9-2.9,0.7-5.7-0.7-8.3
		c-1.4-2.6-3.7-4.3-6.9-5.3c-3.2-0.9-6.1-0.6-8.6,0.9c-2.5,1.5-4.2,3.7-4.9,6.7c-0.8,3-0.4,5.7,1,8.2
		C415,171.4,417.2,173,420.3,173.9z"/>
</g>
<g>
	<path class="st0" d="M205.7,436.3c0.7,0.3,1.3,0.7,1.9,1.3l-1.8,1.8c-0.6-0.7-1.4-1.1-2.5-1.1c-1.1,0-1.8,0.3-2.1,0.8
		c-0.3,0.5-0.3,0.9,0,1.3c0.3,0.4,1,0.6,2.1,0.8c1.1,0.1,2.2,0.5,3.1,1.1c0.9,0.6,1.4,1.6,1.4,3c0,1.1-0.5,2-1.5,2.8
		c-1,0.8-2.1,1.2-3.5,1.2c-1.3,0-2.3-0.2-3.1-0.5c-0.8-0.4-1.6-0.8-2.2-1.4l1.8-1.8c0.6,0.7,1.6,1.1,3.1,1.3c1.2,0,1.9-0.3,2.2-0.8
		c0.3-0.5,0.3-1,0-1.5c-0.3-0.5-1-0.8-2.2-0.9c-1.1-0.1-2.1-0.5-3-1c-0.9-0.5-1.3-1.5-1.3-2.8c0-1.2,0.5-2.1,1.5-2.9
		c1-0.7,2.1-1.1,3.1-1.1C204.1,435.9,205,436,205.7,436.3z"/>
</g>
<g>
	<path class="st0" d="M210.2,449.4v-13.5l9.9,0v2.5h-7.2v2.9h5.4v2.5h-5.4v3.1h7.2v2.5H210.2z"/>
</g>
<g>
	<path class="st0" d="M224,447.4c-1.3-1.3-1.9-2.9-1.9-4.8c0-1.9,0.7-3.5,1.9-4.8c1.3-1.3,2.9-1.9,4.8-1.9c1.9,0,3.6,0.6,4.9,1.8
		l-1.8,2c-0.9-0.7-2-1.1-3.2-1.1c-1.2,0-2.2,0.4-2.9,1.1c-0.7,0.7-1.1,1.7-1.1,2.9c0,1.3,0.4,2.2,1.1,3c0.7,0.7,1.7,1.1,2.9,1.1
		c1,0,1.7-0.2,2.2-0.6v-2.3l-1.8,0v-2.5h4.5v6.3c-1.4,1.2-3,1.8-4.9,1.8C226.9,449.4,225.3,448.7,224,447.4z"/>
</g>
<g>
	<path class="st0" d="M238.9,435.9v7.8c0,1,0.3,1.8,0.9,2.2c0.6,0.5,1.3,0.7,2.2,0.7c0.9,0,1.6-0.2,2.2-0.7c0.6-0.5,0.9-1.2,0.9-2.2
		v-7.8h2.7v8.5c0,1.4-0.6,2.5-1.7,3.5c-1.1,1-2.5,1.4-4.2,1.4c-1.7,0-3.1-0.5-4.2-1.4c-1.1-1-1.7-2.1-1.7-3.5v-8.5H238.9z"/>
</g>
<g>
	<path class="st0" d="M258.9,443.5l3.4,5.9h-3.1l-3.2-5.6h-2.5v5.6h-2.7v-13.5h5.9c3.1,0,4.7,1.3,4.7,3.9
		C261.4,441.7,260.6,443,258.9,443.5z M253.5,441.3h3.8c1.1,0,1.6-0.5,1.7-1.5c0-0.9-0.6-1.3-1.6-1.4h-3.8V441.3z"/>
</g>
<g>
	<path class="st0" d="M263.7,435.9h2.7v13.5h-2.7V435.9z"/>
</g>
<g>
	<path class="st0" d="M269.1,449.4v-13.5h5.2c4.2,0,6.3,2.2,6.3,6.7c0,4.5-2.1,6.7-6.3,6.7H269.1z M274.3,446.7
		c2.4,0,3.6-1.4,3.6-4.1c0-2.7-1.2-4-3.6-4h-2.5v8.1H274.3z"/>
</g>
<g>
	<path class="st0" d="M282.7,449.4l5.4-13.5h2.7l5.4,13.5l-2.9,0l-0.8-2.1h-6.1l-0.8,2.1H282.7z M289.5,439.5l-2,5.1h4L289.5,439.5z
		"/>
</g>
<g>
	<path class="st0" d="M298.2,449.4v-13.5h5.2c4.2,0,6.3,2.2,6.3,6.7c0,4.5-2.1,6.7-6.3,6.7H298.2z M303.4,446.7
		c2.4,0,3.6-1.4,3.6-4.1c0-2.7-1.2-4-3.6-4h-2.5v8.1H303.4z"/>
</g>
<g>
	<path class="st0" d="M318.8,449.4v-13.5h5.2c4.2,0,6.3,2.2,6.3,6.7c0,4.5-2.1,6.7-6.3,6.7H318.8z M324,446.7c2.4,0,3.6-1.4,3.6-4.1
		c0-2.7-1.2-4-3.6-4h-2.5v8.1H324z"/>
</g>
<g>
	<path class="st0" d="M333.2,435.9h2.7v13.5h-2.7V435.9z"/>
</g>
<g>
	<path class="st0" d="M340.6,435.9l3.8,9.9l3.9-9.9h2.9l-5.4,13.5h-2.7l-5.4-13.5H340.6z"/>
</g>
<g>
	<path class="st0" d="M353.5,435.9h2.7v13.5h-2.7V435.9z"/>
</g>
<g>
	<path class="st0" d="M358.8,449.4v-13.5h0.9l8.4,8.4v-8.4h2.7v13.5h-1l-8.3-8.3v8.3H358.8z"/>
</g>
<g>
	<path class="st0" d="M373,449.4l5.4-13.5h2.7l5.4,13.5l-2.9,0l-0.8-2.1h-6.1l-0.8,2.1H373z M379.8,439.5l-2,5.1h4L379.8,439.5z"/>
</g>
<g>
	<path class="st0" d="M248,458c1.3,0,2.4,0.3,3.2,1c0.8,0.7,1.3,1.6,1.3,3c0,1.6-0.6,3-1.8,4.3c-1.2,1.3-2.2,2.1-3,2.5h4.8v2.7h-9.1
		v-2.7c0.6,0,1.7-0.7,3.4-2.2c1.7-1.5,2.6-2.6,2.9-3.2c0.3-0.6,0.3-1.3,0-1.9c-0.3-0.6-1-0.9-2.2-0.9c-1.1,0-1.9,0.4-2.5,1.1
		l-1.8-1.8c0.6-0.6,1.2-1,1.8-1.3C245.7,458.1,246.6,458,248,458z"/>
</g>
<g>
	<path class="st0" d="M261.1,458L261.1,458l2.7,0v7.8h1.8v2.7h-1.8v3h-2.7v-3H255v-2.7h0.1l-0.1-0.1L261.1,458z M261.1,465.8v-4.3
		l-3.3,4.3H261.1z"/>
</g>
<g>
	<path class="st0" d="M274.4,471.4V458h2.7v5.4h6.3V458h2.7v13.5l-2.7,0v-5.6H277v5.6H274.4z"/>
</g>
<g>
	<path class="st0" d="M290.2,469.5c-1.3-1.3-1.9-2.9-1.9-4.8c0-1.9,0.6-3.5,1.9-4.8c1.3-1.3,2.9-1.9,4.8-1.9c1.9,0,3.5,0.6,4.8,1.9
		c1.3,1.3,1.9,2.9,1.9,4.8c0,1.9-0.6,3.5-1.9,4.8c-1.3,1.3-2.9,1.9-4.8,1.9C293.1,471.4,291.5,470.8,290.2,469.5z M295,468.9
		c1.2,0,2.2-0.4,2.9-1.2c0.7-0.8,1.1-1.8,1.1-3c0-1.2-0.4-2.2-1.1-3c-0.7-0.8-1.7-1.2-2.9-1.2c-1.2,0-2.2,0.4-2.9,1.2
		c-0.8,0.8-1.1,1.8-1.1,3c0,1.2,0.4,2.2,1.1,3C292.8,468.5,293.8,468.9,295,468.9z"/>
</g>
<g>
	<path class="st0" d="M311.8,465.6l3.4,5.9h-3.1l-3.2-5.6h-2.5v5.6h-2.7V458h5.9c3.1,0,4.7,1.3,4.7,3.9
		C314.3,463.8,313.5,465,311.8,465.6z M306.4,463.3h3.8c1.1,0,1.6-0.5,1.7-1.5c0-0.9-0.6-1.3-1.6-1.4h-3.8V463.3z"/>
</g>
<g>
	<path class="st0" d="M315.9,471.4l5.4-13.5h2.7l5.4,13.5l-2.9,0l-0.8-2.1h-6.1l-0.8,2.1H315.9z M322.7,461.6l-2,5.1h4L322.7,461.6z
		"/>
</g>
<g>
	<path class="st0" d="M338.6,458.4c0.7,0.3,1.3,0.7,1.9,1.3l-1.8,1.8c-0.6-0.7-1.4-1.1-2.5-1.1c-1.1,0-1.8,0.3-2.1,0.8
		c-0.3,0.5-0.3,0.9,0,1.3c0.3,0.4,1,0.6,2.1,0.8c1.1,0.1,2.2,0.5,3.1,1.1c0.9,0.6,1.4,1.6,1.4,3c0,1.1-0.5,2-1.5,2.8
		c-1,0.8-2.1,1.2-3.5,1.2c-1.3,0-2.3-0.2-3.1-0.5c-0.8-0.4-1.6-0.8-2.2-1.4l1.8-1.8c0.6,0.7,1.6,1.1,3.1,1.3c1.2,0,1.9-0.3,2.2-0.8
		c0.3-0.5,0.3-1,0-1.5c-0.3-0.5-1-0.8-2.2-0.9c-1.1-0.1-2.1-0.5-3-1c-0.9-0.5-1.3-1.5-1.3-2.8c0-1.2,0.5-2.1,1.5-2.9
		c1-0.7,2.1-1.1,3.1-1.1C337,458,337.9,458.1,338.6,458.4z"/>
</g>
<g>
	<path class="st0" d="M250.7,339.3c0.6-3.1,0.9-6.1,1-9c0.1-3.1-0.3-5.5-1.1-7.4c-0.8-1.9-1.9-3.2-3.3-4c-1.4-0.8-3-1.2-4.9-1.2
		c-1.8,0-3.8,0.4-5.8,1.2c-1.8,0.7-3.6,1.6-5.5,2.6c-1.9,1.1-3.8,2.3-5.6,3.6c-1.8,1.3-3.6,2.7-5.4,4.2c-1.8,1.5-3.4,2.8-5,4.1
		c-0.7,0.6-1.2,1.4-1.5,2.3c-0.2,0.9-0.2,1.8,0.1,2.7c0.3,0.9,0.9,1.6,1.7,2.1c0.8,0.6,1.9,0.8,3.2,0.6c0.6-0.1,1.7-0.6,3.2-1.7
		c1.5-1.1,3.2-2.3,5.1-3.7c1.9-1.4,3.8-2.8,5.8-4.3c2-1.4,3.7-2.5,5.2-3.4c1.5-0.8,2.6-1.2,3.4-1c0.8,0.2,0.9,1,0.5,2.7
		c-0.7,2.3-1.7,6-3.1,10.9c-1.4,5-3.2,10.5-5.4,16.5c-2.2,6.1-4.7,12.3-7.6,18.8c-2.9,6.5-6.2,12.4-9.8,17.7
		c-3.6,5.3-7.6,9.7-11.9,13.2c-4.3,3.5-8.9,5.2-13.9,5.3c-1.1,0-2.3,0-3.6,0.1c-1.3,0-2.5-0.1-3.8-0.4c-1.3-0.3-2.5-0.8-3.7-1.6
		c-1.2-0.7-2.3-1.9-3.4-3.4c-1-1.3-1.4-2.8-1.4-4.5c0-1.6,0.4-3.3,1.1-5.1c0.7-1.8,1.6-3.5,2.6-5.3c1.1-1.8,2.2-3.5,3.4-5.2
		c1.2-1.7,2.3-3.3,3.4-4.9c1.1-1.6,2-3,2.6-4.3c0.3-0.5,0.4-1,0.2-1.6c-0.2-0.5-0.5-0.9-1-1.2c-0.4-0.3-1-0.4-1.6-0.4
		c-0.6,0-1.1,0.2-1.6,0.7c-2.4,2-4.8,4.4-7.2,7.2c-2.4,2.8-4.5,5.6-6.2,8.6c-1.7,3-2.9,5.9-3.6,8.9c-0.7,2.9-0.5,5.6,0.4,8
		c0.7,1.7,1.9,3.3,3.5,4.7c1.6,1.4,3.3,2.6,5.2,3.5c1.9,1,3.9,1.7,5.9,2.3c2,0.6,3.9,0.9,5.5,1.1c5.6,0.4,10.8-0.1,15.5-1.7
		c4.7-1.6,9-3.8,12.8-6.7c3.9-2.9,7.3-6.3,10.3-10.1c3-3.9,5.7-7.8,8-12c2.3-4.1,4.3-8.2,5.9-12.3c1.6-4,2.9-7.7,4-11
		c0.7-2.3,1.6-4.9,2.5-7.9c0.9-2.9,1.7-5.9,2.5-9C249.4,345.6,250.1,342.5,250.7,339.3z"/>
	<path class="st0" d="M347.7,346.3c3.3-1.7,6.3-3.6,9-5.7c2.7-2.1,4.9-3.8,6.5-5.1c0.7-0.7,0.9-1.5,0.6-2.5c-0.3-1-0.8-1.9-1.6-2.7
		s-1.7-1.3-2.7-1.6c-1.1-0.3-2-0.1-2.9,0.6c-1,1.1-2.2,2.5-3.5,4c-1.4,1.5-2.7,3.1-3.9,4.6c-1.2,1.5-2.2,2.9-3,4.1
		c-0.8,1.2-1.2,2-1,2.5c0.2,0.4,0.4,0.8,0.7,1.3C346.2,346.3,346.8,346.4,347.7,346.3z"/>
	<path class="st0" d="M417,371.4c-0.5-0.7-1.1-1.2-1.7-1.4c-0.6-0.2-1.2-0.2-1.7,0.1c-0.5,0.3-0.7,1-0.7,2c-0.2,2.2-0.7,4.1-1.5,5.4
		c-0.8,1.4-1.8,2.5-2.9,3.4c-1.2,0.9-2.5,1.5-4,2c-1.5,0.4-3,0.9-4.6,1.3c-1.5-2.2-3.1-4.2-4.9-5.9c-1.8-1.7-3.3-3.4-4.6-5
		c-1.3-1.6-2.2-3.2-2.7-4.8c-0.5-1.6-0.3-3.4,0.6-5.3c0.7-1.6,1.5-3.1,2.1-4.4c0.7-1.3,1.6-2.7,2.7-4.3c0.4-0.7,0.4-1.5-0.2-2.5
		c-0.6-1-1.4-1.9-2.4-2.7c-1-0.8-2-1.4-3-1.7c-1-0.3-1.7-0.2-2,0.4c-1.9,3.5-3.6,7.1-5.2,10.8c-1.6,3.7-2.7,6.9-3.2,9.7
		c-0.3,1.4-0.2,2.6,0,3.7c-0.5,0.3-0.9,0.8-0.9,1.6c-0.3,3-1,6-2.1,9c-1.1,3-2.4,5.6-3.9,8c-1.5,2.3-3.1,4.1-4.7,5.4
		c-1.6,1.3-3.1,1.8-4.4,1.3c-1.3-0.4-2.4-1.8-3.2-4.3c-0.8-2.4-1.1-6.2-0.9-11.3c0.1-2.6,0.3-5.2,0.7-7.9s0.9-5.1,1.5-7.5
		c0.6-2.3,1.2-4.3,1.8-6.1c0.6-1.7,1.3-3,1.9-3.8c0.1-0.7-0.3-1.4-1.2-1.9c-0.9-0.5-1.9-0.9-3.1-1.1c-1.2-0.2-2.4-0.2-3.5-0.1
		c-1.2,0.1-1.9,0.5-2.3,1c-0.6-0.1-1.2,1-1.7,3.3c-0.5,2.2-1.1,5-1.7,8.4c-0.6,3.3-1.4,7-2.1,10.9c-0.8,3.9-1.7,7.5-2.6,10.8
		c-1,3.3-2.1,5.9-3.4,7.9c-1.3,2-2.8,2.8-4.4,2.5c-0.8-0.2-1.5-0.9-2-2c-0.5-1.1-0.9-2.4-1.2-4c-0.3-1.6-0.4-3.2-0.4-5
		c0-1.8,0.1-3.5,0.3-5c0.3-2.5,0.6-5.1,0.8-7.8c0.3-2.6,0.6-5.1,1-7.5c0.4-2.3,0.9-4.4,1.5-6.2c0.6-1.8,1.4-3.2,2.4-4.1
		c0.1-0.7-0.3-1.4-1.2-1.9c-0.9-0.5-1.9-0.9-3.1-1.1c-1.2-0.2-2.4-0.2-3.5-0.1c-1.2,0.1-1.9,0.5-2.3,1c-0.8,2-1.7,4.8-2.6,8.3
		c-0.9,3.5-1.7,7.2-2.3,11.2c-0.2,1.5-0.2,3-0.4,4.4c-0.6,0.9-1.3,1.8-2.1,2.5c-1.2,0.9-2.5,1.5-4,2c-1.5,0.4-3,0.9-4.6,1.3
		c-1.5-2.2-3.1-4.2-4.9-5.9c-1.8-1.7-3.3-3.4-4.6-5c-1.3-1.6-2.2-3.2-2.7-4.8c-0.5-1.6-0.3-3.4,0.6-5.3c0.7-1.6,1.5-3.1,2.1-4.4
		c0.7-1.3,1.6-2.7,2.7-4.3c0.4-0.7,0.4-1.5-0.2-2.5c-0.6-1-1.4-1.9-2.4-2.7c-1-0.8-2-1.4-3-1.7c-1-0.3-1.7-0.2-2,0.4
		c-1.9,3.5-3.6,7.1-5.2,10.8c-1.6,3.7-2.7,6.9-3.2,9.7c-0.3,1.4-0.2,2.7,0.1,3.8c-0.4,0.3-0.7,0.7-0.7,1.3c-0.6,3.5-1.5,6.7-2.8,9.6
		c-1.9,3.8-3.9,6.9-6.2,9.4c-2.2,2.4-4.5,4.2-6.8,5.4c-2.3,1.2-4.5,1.6-6.6,1.5c-2.1-0.2-3.8-1-5.2-2.5c-1.4-1.5-2.3-3.6-2.8-6.5
		c-0.5-2.8-0.3-6.3,0.6-10.4c0.6-2.8,1.5-5.7,2.7-8.5c1.2-2.8,2.5-5.3,3.9-7.5c1.4-2.2,2.7-3.9,4-5c1.3-1.2,2.4-1.6,3.2-1.4
		c1.3,0.6,2.1,1.9,2.2,3.9c0.1,2-0.2,4.3-1,6.8c-0.8,2.5-2.1,5.1-3.8,7.7c-1.7,2.6-3.7,4.7-6,6.3c-0.9,0.7-1.5,1.4-1.8,2.1
		c-0.3,0.7-0.4,1.3-0.2,1.9c0.2,0.5,0.6,0.9,1.2,1.1c0.6,0.2,1.3,0.1,2.1-0.3c2.2-1.1,4.2-2.3,5.8-3.4c1.6-1.1,3-2.5,4.2-3.9
		c1.2-1.5,2.2-3.1,3-4.9c0.9-1.8,1.6-3.9,2.3-6.3c0.5-1.7,0.7-3.6,0.7-5.5c-0.1-1.9-0.5-3.8-1.2-5.5c-0.7-1.7-1.7-3.2-3-4.4
		c-1.3-1.2-2.9-1.9-4.9-2.1c-2.9-0.3-5.7,0.5-8.4,2.3c-2.7,1.8-5.2,4.3-7.4,7.5c-2.2,3.1-4.2,6.7-5.8,10.6
		c-1.6,3.9-2.7,7.8-3.4,11.5c-0.6,3.8-0.7,7.3-0.2,10.4c0.5,3.2,1.7,5.5,3.6,7.1c1.8,1.5,3.7,2.5,5.6,3.1c1.9,0.6,3.8,1,5.5,1.2
		c3.7,0.4,7.2,0,10.7-1.4c3.4-1.3,6.6-3.4,9.4-6.1c2.8-2.7,5.2-6,7.1-9.9c1.5-3.1,2.6-6.5,3.3-10.1c1.2,1.3,2.5,2.6,4.2,4.1
		c1.7,1.5,3.6,3.3,5.5,5.3c-1.9,0.5-3.7,1-5.4,1.5c-1.7,0.6-3.2,1.3-4.6,2.2c-1.3,0.9-2.4,2.1-3.2,3.5c-0.8,1.4-1.2,3.1-1.2,5.2
		c-0.1,1.3,0.3,2.4,1.1,3.4c0.8,1,2.2,1.6,4.3,2c3,0.7,6.2,1,9.7,0.8c3.5-0.1,6.5-0.8,9.1-2.1c1.2-0.6,2.3-1.4,3.2-2.4
		c0.9-1,1.6-2.1,2-3.2c0.4-1.2,0.4-2.5,0.2-3.9c-0.3-1.4-1-2.8-2.2-4.3c1.9-0.7,3.7-1.4,5.4-2.2c0.6-0.3,1-0.7,1.6-1
		c0,3.6,0.3,6.9,1.2,9.7c0.2,0.8,0.7,1.7,1.6,2.6c0.8,0.9,1.8,1.7,3,2.5c1.2,0.8,2.5,1.4,3.9,2c1.4,0.5,2.7,0.8,4.1,0.9
		c3-0.2,5.4-1.2,7.3-3c1.9-1.9,3.4-4.2,4.5-6.8l0.6,1.7c0.8,2.5,2.2,4.6,4,6.1c1.9,1.5,4.3,2.2,7.4,2.1c3.2-0.2,6.1-1.3,8.5-3.4
		c2.5-2.1,4.5-4.6,6.2-7.6c1.7-3,3-6.1,4-9.4c0.7-2.2,1.1-4.1,1.5-6c1.1,1.2,2.3,2.4,3.8,3.8c1.7,1.5,3.5,3.3,5.5,5.3
		c-1.9,0.5-3.7,1-5.4,1.5c-1.7,0.6-3.3,1.3-4.6,2.2c-1.3,0.9-2.4,2.1-3.2,3.5c-0.8,1.4-1.2,3.1-1.2,5.2c-0.1,1.3,0.3,2.4,1.1,3.4
		c0.8,1,2.2,1.6,4.3,2c3,0.7,6.2,1,9.7,0.8c3.5-0.1,6.5-0.8,9.1-2.1c1.2-0.6,2.3-1.4,3.2-2.4c0.9-1,1.6-2.1,2-3.2
		c0.4-1.2,0.4-2.5,0.2-3.9c-0.3-1.4-1-2.8-2.2-4.3c1.9-0.7,3.7-1.4,5.4-2.2c1.8-0.8,3.3-1.8,4.7-2.9c1.4-1.1,2.5-2.6,3.4-4.3
		c0.9-1.7,1.3-3.8,1.4-6.4C417.8,372.9,417.6,372.1,417,371.4z M307.7,399.5c-0.8,0.5-1.9,0.9-3.3,1c-1.3,0.2-2.7,0.2-4,0.1
		c-1.4-0.1-2.5-0.3-3.6-0.7c-1.1-0.3-1.7-0.7-1.9-1.2c-0.2-0.3,0.3-0.7,1.4-1.2c1.1-0.5,2.3-1,3.8-1.5c1.4-0.5,2.8-1,4.2-1.5
		c1.4-0.4,2.3-0.7,2.9-0.9c1.3,1.5,1.9,2.7,1.9,3.6C308.9,398.2,308.5,398.9,307.7,399.5z M394.8,399.5c-0.8,0.5-1.9,0.9-3.3,1
		c-1.3,0.2-2.7,0.2-4,0.1c-1.4-0.1-2.5-0.3-3.6-0.7c-1.1-0.3-1.7-0.7-1.9-1.2c-0.2-0.3,0.3-0.7,1.4-1.2c1.1-0.5,2.3-1,3.8-1.5
		c1.4-0.5,2.8-1,4.2-1.5c1.4-0.4,2.3-0.7,2.9-0.9c1.3,1.5,1.9,2.7,1.9,3.6C396.1,398.2,395.7,398.9,394.8,399.5z"/>
</g>
<polygon class="st1" points="254.1,291.8 259,294.3 258,288.9 261.9,285.1 256.6,284.3 254.1,279.5 251.7,284.3 246.3,285.1 
	250.2,288.9 249.3,294.3 "/>
<path class="st0" d="M258.2,282.1l-4.1-8.2l-4.1,8.2l-9.1,1.3l6.6,6.4l-1.5,9.1l8.1-4.3l8.1,4.3l-1.5-9.1l6.6-6.4L258.2,282.1z
	 M246.3,285.1l5.4-0.8l2.4-4.9l2.4,4.9l5.4,0.8l-3.9,3.8l0.9,5.4l-4.8-2.5l-4.8,2.5l0.9-5.4L246.3,285.1z"/>
<path class="st1" d="M302.6,290l7.3-7.1l-10.1-1.5c-1.4-0.2-2.6-1.1-3.2-2.4l-4.5-9.2l-4.5,9.2c-0.6,1.3-1.8,2.1-3.2,2.3l-10.1,1.5
	l7.3,7.1c1,1,1.5,2.4,1.2,3.8l-1.7,10.1l9-4.8c1.2-0.7,2.7-0.7,4,0l9,4.8l-1.7-10.1C301.1,292.4,301.5,291,302.6,290z"/>
<path class="st0" d="M315.2,281.1l-15.1-2.2c-0.6-0.1-1.1-0.4-1.3-1l-6.8-13.7l-6.8,13.7c-0.3,0.5-0.8,0.9-1.3,1l-15.1,2.2
	l10.9,10.7c0.4,0.4,0.6,1,0.5,1.6l-2.6,15.1l13.5-7.1c0.5-0.3,1.1-0.3,1.7,0l13.5,7.1l-2.6-15.1c-0.1-0.6,0.1-1.2,0.5-1.6
	L315.2,281.1z M294,299.1c-1.2-0.7-2.7-0.7-4,0l-9,4.8l1.7-10.1c0.2-1.4-0.2-2.8-1.2-3.8l-7.3-7.1l10.1-1.5c1.4-0.2,2.6-1.1,3.2-2.3
	l4.5-9.2l4.5,9.2c0.6,1.3,1.8,2.1,3.2,2.4l10.1,1.5l-7.3,7.1c-1,1-1.5,2.4-1.2,3.8l1.7,10.1L294,299.1z"/>
<polygon class="st1" points="221.5,291.8 226.3,294.3 225.4,288.9 229.3,285.1 223.9,284.3 221.5,279.5 219.1,284.3 213.7,285.1 
	217.6,288.9 216.6,294.3 "/>
<path class="st0" d="M225.5,282.1l-4.1-8.2l-4.1,8.2l-9.1,1.3l6.6,6.4l-1.5,9.1l8.1-4.3l8.1,4.3l-1.6-9.1l6.6-6.4L225.5,282.1z
	 M213.7,285.1l5.4-0.8l2.4-4.9l2.4,4.9l5.4,0.8l-3.9,3.8l0.9,5.4l-4.8-2.5l-4.8,2.5l0.9-5.4L213.7,285.1z"/>
<polygon class="st1" points="329.2,291.8 334,294.3 333.1,288.9 337,285.1 331.6,284.3 329.2,279.5 326.8,284.3 321.4,285.1 
	325.3,288.9 324.4,294.3 "/>
<path class="st0" d="M333.3,282.1l-4.1-8.2l-4.1,8.2l-9.1,1.3l6.6,6.4l-1.5,9.1l8.1-4.3l8.1,4.3l-1.5-9.1l6.6-6.4L333.3,282.1z
	 M321.4,285.1l5.4-0.8l2.4-4.9l2.4,4.9l5.4,0.8l-3.9,3.8l0.9,5.4l-4.8-2.5l-4.8,2.5l0.9-5.4L321.4,285.1z"/>
<polygon class="st1" points="366.4,288.9 370.4,285.1 365,284.3 362.5,279.5 360.1,284.3 354.7,285.1 358.6,288.9 357.7,294.3 
	362.5,291.8 367.4,294.3 "/>
<path class="st0" d="M375.7,283.4l-9.1-1.3l-4.1-8.2l-4.1,8.2l-9.1,1.3l6.6,6.4l-1.5,9.1l8.1-4.3l8.1,4.3l-1.5-9.1L375.7,283.4z
	 M357.7,294.3l0.9-5.4l-3.9-3.8l5.4-0.8l2.4-4.9l2.4,4.9l5.4,0.8l-3.9,3.8l0.9,5.4l-4.8-2.5L357.7,294.3z"/>
<g>
	<g>
		<path class="st0" d="M238.4,251.5v-37h16.1c8.6,0,12.9,3.5,12.9,10.6c0,7.4-4.3,11-12.9,11h-8.8v15.3H238.4z M245.8,229.3h10.4
			c3,0,4.5-1.4,4.6-4.1c-0.1-2.4-1.6-3.7-4.5-3.8h-10.4V229.3z"/>
	</g>
	<g>
		<path class="st0" d="M276.3,246.1c-3.5-3.5-5.3-7.9-5.3-13.2c0-5.3,1.8-9.7,5.3-13.2c3.5-3.5,7.9-5.3,13.2-5.3
			c5.3,0,9.7,1.8,13.2,5.3c3.5,3.5,5.3,7.9,5.3,13.2c0,5.3-1.8,9.7-5.3,13.2c-3.5,3.5-7.9,5.3-13.2,5.3
			C284.3,251.5,279.9,249.7,276.3,246.1z M289.5,244.6c3.3,0,5.9-1.1,8-3.3c2.1-2.2,3.1-5,3.1-8.3c0-3.3-1-6-3.1-8.3
			c-2.1-2.2-4.7-3.3-8-3.3c-3.3,0-5.9,1.1-8,3.3c-2.1,2.2-3.1,5-3.1,8.3c0,3.3,1,6,3.1,8.3C283.6,243.5,286.2,244.6,289.5,244.6z"/>
	</g>
	<g>
		<path class="st0" d="M335.8,235.3l9.2,16.1h-8.5l-8.9-15.3h-6.8v15.3h-7.4v-37h16.1c8.6,0,12.9,3.5,12.9,10.6
			C342.6,230.5,340.3,233.9,335.8,235.3z M320.9,229.3h10.4c3,0,4.5-1.4,4.6-4.1c-0.1-2.4-1.6-3.7-4.5-3.8h-10.4V229.3z"/>
	</g>
</g>
<g>
	<g>
		<polygon class="st1" points="415.2,219.4 354.9,219.4 354.9,213.8 417.5,213.8 		"/>
	</g>
	<g>
		<polygon class="st1" points="409.3,227.7 354.9,227.7 354.9,222.1 411.4,222.1 		"/>
	</g>
	<g>
		<polygon class="st1" points="404.5,236 354.9,236 354.9,230.5 406.4,230.5 		"/>
	</g>
	<g>
		<polygon class="st1" points="379.8,244.3 354.9,244.3 354.9,238.8 380.8,238.8 		"/>
	</g>
	<g>
		<polygon class="st1" points="375.2,252.1 354.9,252.1 354.9,246.6 376,246.6 		"/>
	</g>
</g>
<g>
	<g>
		<polygon class="st1" points="168.8,219.4 227.9,219.4 227.9,213.8 166.5,213.8 		"/>
	</g>
	<g>
		<polygon class="st1" points="174.6,227.7 227.9,227.7 227.9,222.1 172.5,222.1 		"/>
	</g>
	<g>
		<polygon class="st1" points="179.3,236 227.9,236 227.9,230.5 177.4,230.5 		"/>
	</g>
	<g>
		<polygon class="st1" points="203.5,244.3 227.9,244.3 227.9,238.8 202.5,238.8 		"/>
	</g>
	<g>
		<polygon class="st1" points="208,252.1 227.9,252.1 227.9,246.6 207.2,246.6 		"/>
	</g>
</g>
</svg>
