<?xml version="1.0" encoding="utf-8"?>
<!-- Generator: Adobe Illustrator 25.3.0, SVG Export Plug-In . SVG Version: 6.00 Build 0)  -->
<svg version="1.1" id="Capa_1" xmlns="http://www.w3.org/2000/svg" xmlns:xlink="http://www.w3.org/1999/xlink" x="0px" y="0px"
	 viewBox="0 0 566.9 566.9" style="enable-background:new 0 0 566.9 566.9;" xml:space="preserve">
<style type="text/css">
	.st0{fill:#FFFFFF;}
	.st1{fill:#020203;}
</style>
<g>
	<g>
		<path d="M286.6,276.2c20.3-23.3,40.5-46.6,60.7-70c10.4-11.9,20.7-23.9,31.1-35.8c0.2-0.3,0.6-0.5,1.1-0.9
			c-3.1-2.3-5.8-4.4-8.6-6.6c-1.1-0.9-2.2-1.8-3-2.9c-1.9-2.5-1.6-5.9,0.4-8.1c5.7,4.6,11.5,9.1,17.4,13.8c0.5-0.9,0.9-1.4,1.2-1.9
			c15.1-26.1,33.5-49.5,55.3-70.2c0.7-0.7,1.2-1.2,0.9-2.3c-0.1-0.6,0.5-1.6,1-1.9c0.5-0.3,1.7-0.3,2.1,0.1c1.8,1.5,3.8,2.1,6.1,2.4
			c3.5,0.4,6,2.5,6.9,6c0.4,1.6,1.2,2.8,2.5,3.8c0.7,0.6,1.4,1.6,1.4,2.5c0,1.2-1,1.8-2.3,1.8c-0.4,0-0.9,0.7-1.2,1.2
			c-14.3,24.9-31.7,47.4-52.2,67.6c-1.4,1.4-2.9,2.8-4.5,4.4c5.9,4.6,11.8,9.1,17.6,13.6c-2.1,3.4-6.5,4.1-9.7,1.8
			c-2.9-2.1-5.6-4.3-8.4-6.5c-0.5-0.4-0.9-0.8-1.8-1.7c-0.5,0.9-0.7,1.6-1.1,2.2c-14,19.7-28,39.3-42,59c-0.5,0.7-1.2,1.2-1.9,1.8
			c-0.3,0.7-0.6,1.7-1.1,2.5c-19.9,28.1-39.9,56.1-59.9,84.2c-19.5,27.4-38.9,54.7-58.4,82.1c-0.7,1-1.9,1.9-3.1,2.3
			c-14.9,5.3-29.8,10.6-44.7,15.9c-0.5,0.2-0.9,0.3-1.6,0.5c0-0.6,0-1.1,0-1.6c1.6-16,3.2-31.9,4.9-47.9c0.1-0.8,0.5-1.8,1-2.4
			c12.6-14.7,25.3-29.3,37.9-44L286.6,276.2z"/>
	</g>
	<g>
		<path d="M268.5,301.5c-17.5-25.5-35-50.9-52.5-76.3c-9-13-17.9-26-26.9-39.1c-0.2-0.3-0.3-0.7-0.6-1.3c-3,2.4-5.7,4.6-8.5,6.6
			c-1.1,0.8-2.3,1.7-3.6,2.2c-2.9,1.2-6.1,0.1-7.7-2.4c5.8-4.4,11.7-8.8,17.8-13.4c-0.7-0.7-1.1-1.2-1.6-1.7
			c-21.5-21.1-39.5-44.8-54.1-71.1c-0.5-0.8-0.9-1.4-2-1.5c-0.6,0-1.4-0.9-1.6-1.5c-0.2-0.6,0.1-1.7,0.6-2.1c1.9-1.4,3-3.1,3.8-5.3
			c1.2-3.3,3.9-5.2,7.5-5.2c1.7,0,3-0.5,4.3-1.5c0.7-0.5,1.9-1,2.8-0.7c1.1,0.3,1.5,1.4,1.2,2.7c-0.1,0.4,0.4,1.1,0.8,1.4
			c20.5,20.1,37.9,42.6,52.3,67.5c1,1.7,2,3.5,3.1,5.4c5.9-4.6,11.8-9.1,17.5-13.6c2.8,2.9,2.4,7.4-0.7,9.9
			c-2.7,2.3-5.6,4.4-8.4,6.5c-0.5,0.4-1,0.7-2.1,1.3c0.8,0.7,1.4,1.1,1.8,1.6c15.5,18.5,31.1,37,46.6,55.5c0.5,0.6,0.9,1.5,1.3,2.3
			c0.6,0.5,1.5,1,2.1,1.7c22.2,26.3,44.3,52.7,66.5,79.1c21.6,25.7,43.2,51.4,64.8,77.1c0.8,0.9,1.4,2.3,1.5,3.6
			c1.4,15.7,2.8,31.5,4.2,47.2c0,0.5,0.1,1,0.1,1.7c-0.6-0.2-1.1-0.3-1.6-0.4c-15-5.6-30.1-11.1-45.1-16.8c-0.8-0.3-1.6-0.9-2.1-1.6
			c-11-15.9-22-31.9-33.1-47.7L268.5,301.5z"/>
	</g>
</g>
<g>
	<g>
		<path d="M332.9,147.7c-2.2-0.4-4.3-0.8-6.5-1.2c-6.9-1.3-13.8-2.3-20.8-2.9c-7.4-0.6-14.9-0.7-22.3-0.5
			c-6.3,0.2-12.5,1.3-18.7,2.2c-2.2,0.3-4.3,0.5-6.5,0.8c-2.3,0.4-4.6,0.9-6.8,1.4c-0.6,0.1-0.8-0.1-0.9-0.6c-0.5-2.2-1-4.4-1.5-6.7
			c-0.1-0.4-0.2-0.7-0.3-1.1c-0.2-0.6-0.6-1-1.2-1.2c-0.4-0.1-0.7-0.2-1.1-0.2c-0.6-0.1-1.1-0.3-1.2-1c-0.1-0.8-0.1-1.5,0.6-2
			c0.4-0.3,0.9-0.5,1.4-0.7c0.8-0.4,1.5-0.9,1.7-1.9c-1.1,0-2.2,0-3.3,0c-1-0.1-2-0.2-2.9-0.4c-1.6-0.4-2.4-1.6-2.7-3.2
			c-0.2-1.4,0.4-2.5,1.6-3.2c0.8-0.5,1.7-1,2.5-1.4c0.5-0.3,0.6-0.6,0.4-1.1c-1-2.2-2.6-3.9-4.1-5.7c-1.2-1.5-2.5-2.9-3.5-4.5
			c-2.3-3.7-2-7.5-0.4-11.3c1.4-3.2,4-5.1,7-6.4c2.8-1.3,5.8-2.2,8.8-2.9c0.4-0.1,0.9-0.4,1.1-0.8c3-5.7,8-8.8,14.1-10.5
			c2.9-0.8,5.9-1.1,8.9-1.2c1.3-0.1,2.5-0.1,3.8-0.2c0.2,0,0.6-0.2,0.7-0.4c1.5-2.7,3.8-4,6.8-4.3c0.4-0.1,0.6-0.2,0.7-0.6
			c0.2-0.4,0.5-0.9,0.8-1.2c0.5-0.4,0.4-0.6,0.1-1c-1.2-1.5-2.3-3-3-4.8c-0.5-1.4-0.9-2.8-0.6-4.3c0.1-0.6,0.4-1.2,0.7-1.7
			c0.9-1.4,2.6-1.6,3.9-0.5c0.4,0.3,0.7,0.8,1.1,1.2c0.3-0.3,0.6-0.6,0.9-0.9c1.6-1.5,3.8-1,4.5,1.1c0.6,1.6,0.4,3.2-0.5,4.7
			c-1,1.8-2.1,3.5-3.3,5.1c-0.4,0.7-0.5,0.7,0.2,1.1c0.3,0.2,0.7,0.5,0.9,0.9c0.2,0.6,0.6,0.8,1.2,0.8c2.8,0.1,4.6,1.9,6.2,3.8
			c0.5,0.6,1.1,0.9,1.9,1c3.2,0.3,6.4,0.5,9.6,1c3.6,0.5,7.1,1.4,10.1,3.5c2.6,1.8,4.8,4.1,6.2,7c0.2,0.4,0.6,0.7,1,0.8
			c1.6,0.6,3.3,1,5,1.5c2.8,0.9,5.5,1.9,7.8,3.6c4.9,3.7,6.2,10.2,3.1,15.5c-1.4,2.3-3.2,4.3-4.9,6.4c-1,1.2-1.8,2.6-2.7,3.9
			c-0.3,0.5-0.2,0.9,0.4,1.3c0.9,0.5,1.8,1,2.7,1.7c1,0.8,1.6,1.9,1.3,3.2c-0.3,1.4-1,2.3-2.3,2.8c-1.5,0.5-3,0.6-4.6,0.4
			c-0.7-0.1-1.3-0.1-2-0.2c0.1,0.8,0.4,1.4,1.1,1.8c0.4,0.2,0.9,0.4,1.3,0.7c0.4,0.2,0.8,0.5,1,0.8c0.7,0.9,0.4,2.1-0.7,2.5
			c-0.2,0.1-0.3,0.2-0.5,0.2c-1.3,0.1-1.8,0.9-2,2c-0.4,2.2-0.8,4.3-1.2,6.5C333.1,146.8,333,147.2,332.9,147.7z M292,115.1
			c0.2-0.3,0.3-0.5,0.4-0.8c2.8-5.8,5.7-11.5,8.5-17.3c0.8-1.7,1.6-3.5,2.1-5.4c1-3.7-0.4-7-3.5-8.7c-1.6-0.9-3.2-0.8-4.5,0.4
			c-0.9,0.8-1.6,1.8-2.3,2.8c-0.4,0.6-0.7,1.3-1.1,2c-0.3-0.5-0.6-0.9-0.8-1.2c-1-1.4-2-2.7-3.5-3.5c-1.6-0.9-3-0.8-4.3,0.4
			c-2,1.8-2.8,4-2.6,6.7c0.2,2.2,1.1,4.3,2.1,6.2c3.1,5.9,6.2,11.9,9.3,17.8C291.7,114.7,291.8,114.9,292,115.1z M297.9,121.9
			c0.1,0.6,0.1,1.1,0.2,1.6c0.1,1.4,0.2,1.5,1.6,1.8c2.3,0.4,4.6,0.8,6.9,1.1c1.2,0.2,2.5,0.4,3.7,0.6c0.7,0.1,1.4-0.1,1.8-0.7
			c0.6-0.8,0.8-1.7,1-2.6c-0.9-0.1-1.8-0.1-2.7-0.2c-1.7-0.2-2.8-1.1-3.4-2.7c-0.5-1.5,0-2.8,1.1-3.9c0.3-0.3,0.8-0.5,1.3-0.7
			c1.4-0.4,2.7-0.3,4.1-0.1c0.4,0.1,0.6-0.1,0.8-0.5c0.4-1.2,0.9-2.5,1.4-3.7c1.3-3.1,2.7-6.2,3.9-9.3c1.1-2.9,1.8-5.8,1.2-8.9
			c-0.5-2.8-1.8-5.1-4.3-6.6c-2-1.2-4-2.3-6.2-3.1c-0.4-0.1-0.9-0.3-1.3-0.4c0.1,0.5,0.4,0.8,0.6,1.1c0.6,1.2,1.4,2.3,1.8,3.6
			c0.7,2.4,0.4,4.8-0.4,7.2c-1.1,3.8-3.1,7.1-5.1,10.4c-1.7,2.8-3.5,5.6-5.2,8.5c-0.2,0.3-0.3,0.6-0.4,1c1,0.1,1.9,0.3,2.8,0.3
			c1.4,0,2.2,0.7,3,1.7c0.8,1.1,0.8,2.3-0.1,3.4c-1.4,1.6-3.1,2.4-5.3,1.9C299.8,122.3,298.9,122.1,297.9,121.9z M282.7,115.2
			c-0.3-0.6-0.5-1.2-0.9-1.7c-1.8-2.8-3.6-5.6-5.3-8.5c-1.8-3-3.5-6.1-4.5-9.5c-1.3-4-1.1-7.8,1.6-11.3c0.2-0.2,0.3-0.5,0.5-0.8
			c-0.2,0-0.3,0-0.3,0c-2.6,0.9-5.1,2-7.4,3.6c-3.7,2.8-5.2,6.5-4.4,11c0.4,2.1,1.2,4.2,2,6.3c1.4,3.6,3,7.1,4.4,10.6
			c0.2,0.4,0.3,0.8,0.5,1.2c0-0.1,0-0.2,0.1-0.2c1.1,0,2.2-0.1,3.2,0c2,0.2,3.7,1.7,3.8,3.4c0.2,2.4-0.8,3.8-3.2,4.2
			c-0.9,0.1-1.9,0.2-2.9,0.3c0.2,0.6,0.3,1.1,0.5,1.6c0.6,1.6,1.3,2,3,1.8c2-0.3,4.1-0.6,6.1-1c1.5-0.3,3.1-0.5,4.6-0.8
			c0.3,0,0.6-0.2,0.7-0.4c0.2-1,0.3-2,0.5-3c-0.3,0.1-0.5,0.1-0.6,0.1c-1.4,0.2-2.8,0.5-4.2,0.4c-2,0-3.5-1.4-3.9-3.3
			c-0.2-0.8,0-1.6,0.6-2.1c0.7-0.5,1.6-1,2.5-1.3C280.6,115.4,281.6,115.4,282.7,115.2z M320.9,117.6c0.6,0.1,1.1,0.2,1.6,0.4
			c2.1,0.5,3.8,1.4,4.6,3.5c0,0.1,0.1,0.3,0.2,0.4c0.2,0.1,0.5,0.4,0.7,0.3c1.4-0.4,2.9-0.5,4.4-0.4c0.2,0,0.5-0.2,0.7-0.4
			c0.6-1,1.2-2.1,1.8-3.2c1-1.7,2.1-3.3,2.9-5.1c2.4-4.9,1.7-10.1-1.6-13.8c-1.5-1.7-3.3-2.8-5.5-3.2c-0.1,0.3-0.2,0.5-0.2,0.7
			c-1.1,5.3-3.2,10.2-6.3,14.7c-1,1.4-1.8,2.9-2.7,4.4C321.3,116.4,321.1,117,320.9,117.6z M252.5,96c-0.2,0-0.3,0-0.3,0.1
			c-6.2,2.2-9.6,7.4-8,14.2c0.6,2.6,2,4.9,3.5,7.1c0.8,1.3,1.5,2.7,2.3,4.1c0.1,0.2,0.3,0.3,0.5,0.3c1.7-0.1,3.5-0.1,5.2,0.7
			c0.7-3.5,3.5-4.3,6.4-4.9c-0.1-0.2-0.2-0.4-0.3-0.6c-1.7-3.1-3.3-6.2-5-9.2C254.8,104.1,252.5,100.5,252.5,96z M318.1,126.4
			c-0.1,0.3-0.2,0.7-0.2,1.1c-0.2,1.3-0.1,1.4,1.1,1.7c3.1,0.7,6.1,1.5,9.2,2.2c1.4,0.3,1.3,0.2,2-1c0.4-0.7,0.2-1-0.4-1.2
			c-1.4-0.6-2.8-1.4-3.9-2.5c-0.2-0.2-0.8-0.3-1.2-0.2c-0.7,0.1-1.4,0.3-2.1,0.3C321.1,126.7,319.7,126.5,318.1,126.4z M265,126.6
			c-0.2,0-0.3,0-0.4,0c-2.3,0.3-4.6,0.4-6.8-0.3c-0.2-0.1-0.6,0.2-0.7,0.4c-0.5,0.9-1.3,1.4-2.3,1.8c-0.6,0.2-1.2,0.5-1.8,0.8
			c-0.1,0.1-0.3,0.4-0.3,0.6c0.2,1.2,0.9,1.7,2,1.5c1.8-0.4,3.5-0.8,5.3-1.2c1.7-0.4,3.5-0.8,5.3-1.3
			C265.2,128.1,265.1,127.4,265,126.6z"/>
	</g>
</g>
<g>
	<path class="st0" d="M406.7,349.4H175.7c4.3,28.1,27.3,52.5,46,62.4c29.9,15.8,58,26.6,71,31.2c5.4-2.7,11.5-5.2,18.9-8.3
		c11.9-5,26.6-11.1,47.7-21.5C381.7,402.1,402.3,377.9,406.7,349.4z"/>
	<path class="st0" d="M309.5,173.2c-10.6-0.1-31.3-0.2-35.4,0c-33.2,1.5-53.7,16.5-71.9,29.8c-9.8,7.1-18.4,13.5-27.8,16.7
		c3.6,14.6,10.8,50.6,5.5,88.6h223.3c-4.9-36.1,2.3-74.6,5.7-89.6c-11.7-4-22-11-32.7-18.3C358.1,188.1,339.4,175.4,309.5,173.2z"/>
	<path class="st1" d="M425.3,209.1l-6.7-1.6c-12.1-2.8-22.6-9.9-34.7-18.2c-18.7-12.7-40-27.1-73.5-29.6l-0.4,0
		c-1.3,0-30.8-0.2-36.4,0c-37.2,1.7-60.5,18.7-79.2,32.4c-10.8,7.9-20.1,14.7-29.1,16.1l-7.6,1.2l2.2,7.4
		c0.2,0.6,16.4,55.5,3.8,106.2c-11.2,44.6,23.6,85.7,51.8,100.6c23.2,12.3,50.7,24.3,75.5,33l2.7,1l2.6-1.3
		c5.6-2.9,12.2-5.7,20.5-9.2c12-5,27-11.3,48.4-21.9c34.2-16.9,64.6-59.9,53.7-106.4c-10.5-44.7,4.5-102.5,4.7-103.1L425.3,209.1z
		 M311.5,434.7c-7.4,3.1-13.4,5.6-18.9,8.3c-13-4.7-41.1-15.4-71-31.2c-18.7-9.9-41.6-34.3-46-62.4h231.1
		c-4.4,28.5-25,52.7-47.6,63.8C338.1,423.6,323.4,429.8,311.5,434.7z M403.3,308.3H180c5.2-38-1.9-74-5.5-88.6
		c9.3-3.2,18-9.6,27.8-16.7c18.2-13.3,38.7-28.3,71.9-29.8c4.2-0.2,24.9-0.1,35.4,0c29.8,2.2,48.6,15,66.7,27.3
		c10.8,7.3,21,14.3,32.7,18.3C405.6,233.7,398.4,272.3,403.3,308.3z"/>
</g>
<g>
	<g>
		<path class="st0" d="M230.9,313.4c0.4,0,0.6,0.2,0.6,0.6v3.5c0,0.3-0.2,0.6-0.6,0.6h-4v22.6c0,0.4-0.2,0.6-0.6,0.6h-3.6
			c-0.3,0-0.6-0.2-0.6-0.6V318h-4c-0.3,0-0.6-0.2-0.6-0.6V314c0-0.3,0.2-0.6,0.6-0.6H230.9z"/>
	</g>
	<g>
		<path class="st0" d="M247.3,313.4c0.4,0,0.7,0.3,0.7,0.7v22c0,3.3-1.7,5-5,5h-3.9c-3.3,0-5-1.7-5-5v-22c0-0.4,0.3-0.7,0.7-0.7h3.3
			c0.4,0,0.7,0.3,0.7,0.7v21c0,0.9,0.5,1.4,1.4,1.4h1.8c0.9,0,1.4-0.5,1.4-1.4v-21c0-0.4,0.3-0.7,0.7-0.7H247.3z"/>
	</g>
	<g>
		<path class="st0" d="M273.9,317.4c0,0.3-0.1,0.6-0.6,0.6h-8.7v6.9h6.6c0.3,0,0.6,0.2,0.6,0.6v3.4c0,0.4-0.2,0.6-0.6,0.6h-6.6v7
			h8.7c0.4,0,0.6,0.2,0.6,0.6v3.5c0,0.3-0.1,0.6-0.6,0.6h-12.7c-0.3,0-0.5-0.2-0.5-0.6V314c0-0.3,0.2-0.6,0.5-0.6h12.7
			c0.4,0,0.6,0.2,0.6,0.6V317.4z"/>
	</g>
	<g>
		<path class="st0" d="M291.3,326.9c0,2.3-0.9,3.8-2.5,4.6l2.4,9.1c0.1,0.4-0.1,0.6-0.5,0.6H287c-0.3,0-0.5-0.2-0.6-0.5l-2.3-8.8
			h-2.4v8.7c0,0.3-0.2,0.6-0.6,0.6h-3.6c-0.3,0-0.6-0.2-0.6-0.6V314c0-0.3,0.2-0.6,0.6-0.6h8.7c3.3,0,5,1.7,5,5V326.9z M285.2,327.3
			c0.9,0,1.4-0.5,1.4-1.4v-6.5c0-0.9-0.5-1.4-1.4-1.4h-3.4v9.3H285.2z"/>
	</g>
	<g>
		<path class="st0" d="M308.5,317.4c0,0.3-0.1,0.6-0.6,0.6h-8.7v6.9h6.6c0.3,0,0.6,0.2,0.6,0.6v3.4c0,0.4-0.2,0.6-0.6,0.6h-6.6v7
			h8.7c0.4,0,0.6,0.2,0.6,0.6v3.5c0,0.3-0.1,0.6-0.6,0.6h-12.7c-0.3,0-0.5-0.2-0.5-0.6V314c0-0.3,0.2-0.6,0.5-0.6H308
			c0.4,0,0.6,0.2,0.6,0.6V317.4z"/>
	</g>
	<g>
		<path class="st0" d="M319.8,313.4c3.3,0,5,1.7,5,5v3.7c0,0.3-0.2,0.6-0.6,0.6h-3.6c-0.3,0-0.6-0.2-0.6-0.6v-2.7
			c0-0.9-0.4-1.4-1.4-1.4H317c-0.9,0-1.4,0.5-1.4,1.4v4.8l8.2,2.7c0.6,0.2,0.9,0.6,0.9,1.3v8c0,3.3-1.7,5-5,5h-3.9c-3.2,0-5-1.7-5-5
			v-3.6c0-0.4,0.2-0.6,0.6-0.6h3.6c0.4,0,0.6,0.2,0.6,0.6v2.7c0,0.9,0.5,1.4,1.4,1.4h1.7c0.9,0,1.4-0.5,1.4-1.4v-4.6l-8.2-2.7
			c-0.6-0.2-0.9-0.6-0.9-1.3v-8.2c0-3.3,1.8-5,5-5H319.8z"/>
	</g>
	<g>
		<path class="st0" d="M355.9,313.4c0.4,0,0.7,0.2,0.7,0.7v26.3c0,0.5-0.2,0.7-0.7,0.7h-3.2c-0.4,0-0.7-0.2-0.7-0.7v-15.6h-0.2
			l-3.4,15.6c-0.1,0.4-0.3,0.6-0.8,0.6h-1.7c-0.4,0-0.7-0.2-0.8-0.6l-3.4-15.6h-0.2v15.6c0,0.5-0.2,0.7-0.7,0.7h-3.2
			c-0.4,0-0.7-0.2-0.7-0.7v-26.3c0-0.5,0.2-0.7,0.7-0.7h4.6c0.4,0,0.7,0.2,0.8,0.6l3.8,17.2l3.8-17.2c0.1-0.4,0.3-0.6,0.8-0.6H355.9
			z"/>
	</g>
	<g>
		<path class="st0" d="M364.2,313.4c0.3,0,0.6,0.2,0.6,0.6v26.6c0,0.3-0.2,0.6-0.6,0.6h-3.6c-0.4,0-0.6-0.2-0.6-0.6V314
			c0-0.3,0.2-0.6,0.6-0.6H364.2z"/>
	</g>
</g>
<g>
	<g>
		<path class="st1" d="M244.9,360.5c0,0.4-0.2,0.8-0.7,0.8H233v8.9h8.5c0.4,0,0.7,0.3,0.7,0.8v4.4c0,0.5-0.3,0.8-0.7,0.8H233v9h11.2
			c0.5,0,0.7,0.2,0.7,0.7v4.5c0,0.4-0.2,0.7-0.7,0.7h-16.4c-0.4,0-0.7-0.3-0.7-0.7v-34.3c0-0.4,0.3-0.7,0.7-0.7h16.4
			c0.5,0,0.7,0.3,0.7,0.7V360.5z"/>
	</g>
	<g>
		<path class="st1" d="M259.5,355.3c4.2,0,6.4,2.2,6.4,6.4v4.7c0,0.4-0.2,0.7-0.7,0.7h-4.6c-0.4,0-0.7-0.3-0.7-0.7V363
			c0-1.2-0.6-1.8-1.8-1.8h-2.1c-1.1,0-1.8,0.6-1.8,1.8v6.2l10.6,3.5c0.8,0.3,1.2,0.8,1.2,1.7v10.3c0,4.2-2.2,6.4-6.4,6.4h-5
			c-4.2,0-6.4-2.2-6.4-6.4V380c0-0.5,0.3-0.7,0.7-0.7h4.6c0.5,0,0.7,0.2,0.7,0.7v3.4c0,1.2,0.7,1.8,1.8,1.8h2.1
			c1.2,0,1.8-0.6,1.8-1.8v-5.9l-10.6-3.5c-0.8-0.3-1.2-0.8-1.2-1.7v-10.5c0-4.2,2.3-6.4,6.4-6.4H259.5z"/>
	</g>
	<g>
		<path class="st1" d="M288.3,366.6c0,0.4-0.3,0.7-0.7,0.7h-4.5c-0.5,0-0.7-0.3-0.7-0.7V363c0-1.2-0.6-1.8-1.8-1.8h-2.3
			c-1.2,0-1.8,0.6-1.8,1.8v20.4c0,1.2,0.6,1.8,1.8,1.8h2.3c1.2,0,1.8-0.6,1.8-1.8v-3.6c0-0.4,0.2-0.7,0.7-0.7h4.5
			c0.4,0,0.7,0.3,0.7,0.7v4.8c0,4.2-2.3,6.4-6.4,6.4h-5c-4.2,0-6.5-2.2-6.5-6.4v-22.9c0-4.2,2.3-6.4,6.5-6.4h5
			c4.2,0,6.4,2.2,6.4,6.4V366.6z"/>
	</g>
	<g>
		<path class="st1" d="M309.7,355.3c0.5,0,0.9,0.4,0.9,0.9v28.4c0,4.2-2.2,6.4-6.4,6.4h-5c-4.2,0-6.4-2.2-6.4-6.4v-28.4
			c0-0.5,0.4-0.9,0.9-0.9h4.3c0.5,0,0.9,0.4,0.9,0.9v27.2c0,1.2,0.6,1.8,1.8,1.8h2.3c1.2,0,1.8-0.6,1.8-1.8v-27.2
			c0-0.5,0.4-0.9,0.9-0.9H309.7z"/>
	</g>
	<g>
		<path class="st1" d="M315.1,356.1c0-0.4,0.2-0.7,0.7-0.7h10.7c4.2,0,6.4,2.3,6.4,6.5v22.8c0,4.2-2.2,6.4-6.4,6.4h-10.7
			c-0.5,0-0.7-0.2-0.7-0.7V356.1z M325.3,385.2c1.2,0,1.8-0.6,1.8-1.8v-20.3c0-1.2-0.6-1.8-1.8-1.8h-4.1v23.9H325.3z"/>
	</g>
	<g>
		<path class="st1" d="M337.4,361.8c0-4.2,2.2-6.4,6.4-6.4h5c4.2,0,6.4,2.2,6.4,6.4v22.9c0,4.2-2.2,6.4-6.4,6.4h-5
			c-4.2,0-6.4-2.2-6.4-6.4V361.8z M347.7,385.3c1.2,0,1.8-0.6,1.8-1.8v-20.6c0-1.2-0.6-1.8-1.8-1.8h-2.6c-1.2,0-1.8,0.6-1.8,1.8
			v20.6c0,1.2,0.6,1.8,1.8,1.8H347.7z"/>
	</g>
</g>
<g>
	<g>
		<g>
			<path class="st1" d="M227,243.2c0-0.7,0.3-1.1,1.1-1.1h7.2c0.7,0,1.1,0.4,1.1,1.1v44.6c0,6.6-3.6,10-10,10h-7.8
				c-6.5,0-10-3.5-10-10v-7.2c0-0.7,0.3-1.1,1.1-1.1h7c0.7,0,1.1,0.4,1.1,1.1v5.3c0,1.8,1,2.8,2.8,2.8h3.6c1.8,0,2.8-1,2.8-2.8
				V243.2z"/>
		</g>
		<g>
			<path class="st1" d="M271.3,250.2c0,0.7-0.3,1.2-1.1,1.2h-17.4v13.9h13.3c0.7,0,1.1,0.4,1.1,1.2v6.9c0,0.8-0.4,1.2-1.1,1.2h-13.3
				v14.1h17.4c0.8,0,1.1,0.4,1.1,1.1v7c0,0.7-0.3,1.1-1.1,1.1h-25.6c-0.6,0-1-0.4-1-1.1v-53.5c0-0.7,0.4-1.1,1-1.1h25.6
				c0.8,0,1.1,0.4,1.1,1.1V250.2z"/>
		</g>
		<g>
			<path class="st1" d="M294,242.1c6.6,0,10,3.5,10,10v7.4c0,0.7-0.3,1.1-1.1,1.1h-7.2c-0.7,0-1.1-0.4-1.1-1.1v-5.4
				c0-1.8-0.9-2.8-2.8-2.8h-3.3c-1.7,0-2.8,1-2.8,2.8v9.6l16.6,5.4c1.2,0.5,1.8,1.3,1.8,2.6v16.1c0,6.6-3.5,10-10,10h-7.8
				c-6.5,0-10-3.5-10-10v-7.3c0-0.8,0.4-1.1,1.1-1.1h7.2c0.8,0,1.1,0.3,1.1,1.1v5.4c0,1.9,1,2.8,2.8,2.8h3.3c1.8,0,2.8-0.9,2.8-2.8
				v-9.3l-16.5-5.4c-1.3-0.4-1.9-1.3-1.9-2.6v-16.4c0-6.6,3.6-10,10-10H294z"/>
		</g>
		<g>
			<path class="st1" d="M337.5,242.1c0.8,0,1.4,0.6,1.4,1.4v44.3c0,6.6-3.5,10-10,10H321c-6.5,0-10-3.5-10-10v-44.3
				c0-0.8,0.6-1.4,1.4-1.4h6.7c0.8,0,1.4,0.6,1.4,1.4v42.4c0,1.9,1,2.8,2.8,2.8h3.6c1.8,0,2.8-0.9,2.8-2.8v-42.4
				c0-0.8,0.6-1.4,1.4-1.4H337.5z"/>
		</g>
		<g>
			<path class="st1" d="M363.7,242.1c6.6,0,10,3.5,10,10v7.4c0,0.7-0.3,1.1-1.1,1.1h-7.2c-0.7,0-1.1-0.4-1.1-1.1v-5.4
				c0-1.8-0.9-2.8-2.8-2.8h-3.3c-1.7,0-2.8,1-2.8,2.8v9.6l16.6,5.4c1.2,0.5,1.8,1.3,1.8,2.6v16.1c0,6.6-3.5,10-10,10h-7.8
				c-6.5,0-10-3.5-10-10v-7.3c0-0.8,0.4-1.1,1.1-1.1h7.2c0.8,0,1.1,0.3,1.1,1.1v5.4c0,1.9,1,2.8,2.8,2.8h3.3c1.8,0,2.8-0.9,2.8-2.8
				v-9.3l-16.5-5.4c-1.3-0.4-1.9-1.3-1.9-2.6v-16.4c0-6.6,3.6-10,10-10H363.7z"/>
		</g>
	</g>
	<g>
		<g>
			<path class="st1" d="M321.3,239.5c-0.4-0.4-0.3-1,0.4-1.7l8-9.1c0.7-0.8,1.3-1,1.7-0.6l3.1,2.7c0.4,0.4,0.3,1-0.4,1.7l-8,9.1
				c-0.7,0.8-1.3,1-1.7,0.6L321.3,239.5z"/>
		</g>
	</g>
</g>
<g>
	<g>
		<polygon class="st1" points="260,191.6 263.7,199.1 272,200.3 266,206.1 267.4,214.3 260,210.4 252.6,214.3 254.1,206.1 
			248.1,200.3 256.3,199.1 		"/>
	</g>
	<g>
		<path class="st1" d="M291.4,187.1l4.6,9.3c0.4,0.7,1,1.2,1.8,1.3l10.2,1.5l-7.4,7.2c-0.6,0.6-0.8,1.4-0.7,2.2l1.7,10.2l-9.1-4.8
			c-0.7-0.4-1.6-0.4-2.3,0l-9.1,4.8l1.7-10.2c0.1-0.8-0.1-1.6-0.7-2.2l-7.4-7.2l10.2-1.5c0.8-0.1,1.5-0.6,1.8-1.3L291.4,187.1z"/>
	</g>
	<g>
		<polygon class="st1" points="322.3,191.6 326,199.1 334.3,200.3 328.3,206.1 329.7,214.3 322.3,210.4 315,214.3 316.4,206.1 
			310.4,200.3 318.6,199.1 		"/>
	</g>
</g>
<g>
	<path class="st1" d="M250.9,462.9v-0.2c0-0.1,0-0.2-0.1-0.4c-0.8-1.1-1.7-1.6-2.7-1.6h-0.3l-0.3,0c-0.2,0-0.6,0.8-1.2,2.4
		c-0.8-0.2-1.6-0.4-2.3-0.4c-2.6,0-5.6,1-8.9,3.1c-3.7,2.7-5.6,5.1-5.6,7.4c0,1.8,0.7,3.3,2.2,4.6c1,0.9,2.7,1.8,5.1,2.9
		c3.2,1.2,4.8,2.3,4.8,3.5c0,1.9-1.1,4.2-3.2,6.9c-3.4,3.7-5.8,5.6-7.3,5.6h-0.2c-0.6,0-0.9-0.5-1-1.6c0-0.4,0.1-1,0.3-1.9
		c1.1-3.2,2.7-5.4,4.9-6.6c0.6-0.1,0.9-0.3,0.9-0.5c0-0.2-0.2-0.4-0.5-0.4H235c-0.8,0-2.1,0.8-4,2.2c-3.3,3.1-4.9,5.6-4.9,7.6v0.2
		c0,0.3,0,0.6,0.1,0.9c0.7,1.5,2.3,2.2,4.8,2.2h0.4c2.7,0,5.7-1.6,9.2-4.7c3.4-3.7,5.2-6.8,5.2-9.3v-0.2c0-1.6-1.3-3-3.9-4.3
		c-3-1.3-4.9-2.2-5.7-2.7c-1.6-1.1-2.5-2.4-2.5-3.8c0-1.9,1.4-3.9,4.2-6c2.6-1.8,4.9-2.8,6.8-2.9c0.3,0,0.5,0.2,0.6,0.6v0.3
		c0,0.2,0,0.5-0.1,0.8l-1.6,6.8c0,0.2,0.1,0.4,0.2,0.7c0.9,1,1.7,1.5,2.5,1.5h0.3c0.1,0,0.3,0,0.4-0.1c0.2,0,0.5-1,0.9-3.1
		C248.9,468.7,249.8,465.5,250.9,462.9z"/>
	<path class="st1" d="M262.9,487.1c0-3.1,1.2-8.7,3.6-16.9c0.4-1.2,0.6-1.9,0.6-2v-0.1c-0.2-0.5-0.8-0.7-1.8-0.7H265
		c-0.3,0-0.5,0.1-0.8,0.2c-0.1,0-0.3,0.5-0.6,1.6c-1.4,4.7-2.2,8.4-2.7,11.6c-0.1,0-0.1,0-0.2,0c-0.1,0.1-0.7,1.2-1.8,3.3
		c-0.7,1.3-1.3,2.2-1.9,2.7h-0.2c-0.1-0.4-0.2-0.8-0.2-1.2v-0.2c0-2,0.6-4.6,1.9-7.8v0c0-0.5-0.5-0.8-1.5-0.9h-0.4
		c-0.6,0-1,0.3-1.3,1c0,0,0,0.1,0,0.1c-0.7-0.5-1.4-0.8-2-0.8c-1.4,0-2.7,0.8-3.7,2.4c-1.1,2-1.7,3.9-1.7,5.5v0.4
		c0,0.4,0.1,0.8,0.3,1.3c0.5,1,1.4,1.5,2.7,1.5c0.7,0,1.7-0.9,3-2.7h0v0.3c0,0.3,0,0.7,0.1,1c0.4,1.3,1,2,1.9,2h0.2
		c1.2,0,2.7-1.7,4.5-5c0,0.6-0.1,1.2-0.1,1.7v0.6c0,1.2,0.2,2.3,0.5,3.1c0.5,0.8,1.1,1.2,1.9,1.2h0.2c0.5-0.1,0.8-0.2,0.8-0.5
		c-0.1-0.2-0.2-0.3-0.4-0.3C263.1,488.9,262.9,488.2,262.9,487.1z M252.5,484.4c-0.4,0.8-0.9,1.4-1.5,1.7c-0.2,0-0.4-0.2-0.4-0.7
		v-0.3c0-0.2,0.1-0.6,0.2-1.1c1.2-3.6,2.2-5.5,3-5.5c0.4,0,0.7,0.7,0.9,2C253.8,482.3,253,483.5,252.5,484.4z"/>
	<path class="st1" d="M301.4,481.1c-1.3,0.6-2.7,1.5-4.2,2.8c-0.1,0-0.4-0.3-1-0.8c-0.8-0.5-1.3-1-1.3-1.6v-0.2c0-0.2,0-0.4,0.1-0.5
		c0.3-0.8,0.8-1.7,1.7-2.7h0c-0.3,0.8-0.4,1.3-0.4,1.5l0,0.1c0.2,0.5,0.7,0.7,1.6,0.8c0.5,0,0.8-0.1,1-0.4c0-0.4,0.4-1.3,0.9-2.6
		c0.4-0.7,0.5-1.1,0.5-1.1l0-0.1c-0.2-0.5-0.7-0.7-1.5-0.8h-0.2c-0.6,0-0.9,0.3-1.1,0.8c-0.4-0.1-0.7-0.1-1-0.1h-0.1
		c-0.8,0-1.6,0.4-2.4,1.2c-1.2,1.5-1.8,2.7-1.8,3.6v0.1c0,0.1,0.1,0.1,0.1,0.2c-0.4,0.4-0.7,0.6-0.8,0.7c-0.4,0.3-1.1,0.6-2,1h0
		c0.3-1,0.4-1.9,0.4-2.7v-0.1c0-0.7-0.1-1.3-0.3-1.8c-0.6-1.1-1.5-1.6-2.9-1.6h-0.2c-0.3,0-0.6,0.1-1,0.2c-0.9,0.4-1.7,1-2.2,1.9
		c-0.4,0.8-0.5,1.4-0.5,2c-0.3,0.4-0.5,0.8-0.6,1.3c-0.7,0.9-1.4,2-2.3,3.2c-0.6,0.8-1.1,1.4-1.5,1.8c-0.1-0.1-0.2-0.3-0.2-0.6v-0.1
		c0-0.6,0.2-1.8,0.6-3.5c0.8-3.1,1.2-5,1.2-5.6v-0.2c0-0.2,0-0.3-0.1-0.5c-0.3-0.4-0.8-0.6-1.5-0.6h0c-0.9,0-2.4,1.8-4.6,5.4h0v0
		c0-2.6-0.5-3.9-1.6-3.9c-0.5,0-1.2,0.6-2,1.8c-0.5,0.7-1,1.6-1.7,2.8c0.4-1.6,0.6-2.4,0.6-2.4v-0.1c0-0.1,0-0.1-0.1-0.3
		c-0.4-0.4-0.9-0.6-1.5-0.6h-0.1c-0.5,0-0.8,0.1-1,0.4c-0.3,1-0.6,2.5-1,4.4c-0.4,1.9-0.6,3-0.6,3.3v0.1c0,0.3,0.1,0.5,0.3,0.8
		c0.3,0.3,0.8,0.5,1.3,0.5h0.1c0.4,0,0.6-0.1,0.8-0.2c0,0,0.2-0.2,0.4-0.7c1.1-2.5,1.9-4.2,2.3-5.2c0.8-1.7,1.3-2.6,1.6-2.6l0,0.1v0
		c0,0.1,0,0.3,0,0.5c-0.5,3.3-0.7,5.3-0.7,5.9v0.2c0,0.1,0,0.3,0.1,0.4c0.2,0.5,0.5,0.7,0.9,0.7c0.4,0,0.7-0.2,1-0.6
		c2-3.6,3.3-6.1,4.1-7.6h0v0c-0.1,0.7-0.2,1.2-0.3,1.6c-0.6,2.9-0.9,4.8-0.9,5.8c0,0.7,0.1,1.2,0.3,1.4c0.5,0.4,1,0.6,1.4,0.6h0.1
		c0.8,0,1.8-0.8,3-2.3c0.4-0.5,0.9-1.1,1.3-1.8c0,0.8,0.2,1.5,0.6,2.3c0.6,0.8,1.2,1.2,2,1.2h0.2c1,0,2-0.5,3.1-1.6
		c0.6-0.6,1-1.2,1.3-1.8c0-0.1,0.1-0.2,0.4-0.3c0.9-0.3,1.8-0.7,2.5-1.2c0.3-0.2,0.5-0.5,0.7-0.7c0.2,0.3,0.5,0.7,1,1
		c0.5,0.2,1.2,0.8,2.2,1.7c-2.8,2.3-4.3,3.9-4.3,5v0.1c0,0.2,0.1,0.4,0.2,0.6c0.5,0.5,1,0.8,1.5,0.8h0.3c0.9,0,1.8-0.4,2.9-1.1
		c1.7-1.3,2.5-2.6,2.5-3.7c0-0.6-0.3-1.3-0.8-2.1v-0.1c0,0,0.1-0.1,0.3-0.2c1.5-1.2,2.9-2.1,4.4-2.8c0.8-0.3,1.2-0.6,1.2-0.8v0
		c0-0.1-0.2-0.2-0.7-0.3C302.8,480.5,302.2,480.7,301.4,481.1z M285.2,486.5c-0.1,0-0.2,0-0.3-0.1c-0.3-0.5-0.5-1.1-0.5-1.9
		c0-0.2,0-0.3,0-0.4h0l0.3,0.2c0.5,0.3,1.1,0.4,1.8,0.5C286,485.9,285.6,486.5,285.2,486.5z M287.8,480.3c0,0.9-0.2,2.1-0.7,3.4
		c-1,0-1.7-0.5-2-1.4c0.1-0.2,0.2-0.4,0.4-0.6c0.3-0.2,0.5-0.4,0.5-0.5v0c0-0.3-0.3-0.5-0.8-0.7c0-0.1,0-0.2,0.1-0.3
		c0.1-0.3,0.3-0.7,0.6-1c0.6-0.6,1-0.9,1.4-0.9c0.1,0,0.1,0.1,0.2,0.1c0.3,0.5,0.5,1.1,0.5,1.8V480.3z M296.1,486.6
		c0,0.5-0.2,0.9-0.5,1.4c-0.8,1-1.5,1.5-2.2,1.5h0c0,0,0,0,0,0c0-0.3,0.9-1.3,2.7-3V486.6z"/>
	<path class="st1" d="M321.1,469.3c-0.3-0.7-0.7-1.1-1.5-1.1h-0.2c-0.5,0-1,0.1-1.5,0.3c-0.9,0.5-2.1,1.7-3.7,3.6
		c-0.6,0.7-0.9,1.1-0.9,1.2c0,0.1,0,0.2,0.1,0.3c0.4,0.4,0.9,0.6,1.5,0.6c0.4,0,0.6-0.1,0.9-0.2c0.3-0.4,0.7-1,1.3-1.8
		c0.3-0.4,0.5-0.6,0.7-0.7c0,0,0,0,0,0.1v0.1c0,0.2-0.3,1.3-1,3.2c-2.3,7.5-3.5,12.1-3.5,13.8c0,0.2,0,0.3,0.1,0.4
		c0.3,0.4,0.7,0.6,1.2,0.6h0.2c0.4,0,0.6-0.1,0.7-0.4v-0.1c0-0.8,0.3-2.3,1-4.5c0.8-2.7,2-6.3,3.6-11c0.7-1.9,1-3.1,1-3.9
		C321.2,469.6,321.2,469.5,321.1,469.3z"/>
	<path class="st1" d="M329.6,468.1h-0.3c-1,0-2,0.3-3,0.9c-0.4,0.2-0.8,0.6-1.3,1c-1.1,1.3-1.6,2.5-1.6,3.8v0c0,0.2,0,0.4,0,0.7
		c0.2,1,0.7,2.3,1.7,3.7c0,0,0,0-0.1,0.1c-0.2,0.1-0.6,0.4-1,0.8c-0.4,0.4-0.6,0.7-0.8,1c-0.5,0.7-0.8,1.3-1.1,1.9
		c-0.7,1.5-1.1,2.8-1.1,3.9c0,1.2,0.4,2.2,1.3,2.8c0.9,0.6,1.9,1,3.2,1h0.2c1.6,0,2.9-0.4,3.8-1.2c0.8-0.8,1.2-1.8,1.2-3v-0.2
		c0-1.2-0.4-2.8-1.2-4.6c0.3-0.7,0.9-1.8,1.7-3.2c1.5-2.7,2.2-4.7,2.2-6.1v-0.2c0-0.9-0.3-1.6-1-2.2
		C331.5,468.4,330.6,468.1,329.6,468.1z M327.9,485L327.9,485c0,1-0.3,1.8-0.8,2.4c-0.5,0.5-1.2,0.8-2,0.8h-0.2
		c-0.3,0-0.5,0-0.8-0.1c-0.7-0.3-1-0.9-1-1.8c0-0.7,0.2-1.6,0.6-2.6c0.4-1,0.9-2,1.5-3.1c0.2-0.4,0.5-0.8,0.9-1.2h0l0.4,0.7
		c1,2.1,1.5,3.7,1.5,4.9V485L327.9,485L327.9,485z M331.1,470.7L331.1,470.7c0,0.1,0,0.1,0,0.1v0c0,0.9-0.4,2.4-1.3,4.5
		c-0.5,1.1-1,2.2-1.6,3.5h0c-1.2-1.8-1.9-3.4-1.9-4.7c0-1.3,0.5-2.4,1.5-3.5c0.8-0.8,1.6-1.1,2.3-1.1h0c0.1,0,0.2,0,0.3,0.1
		C330.9,469.8,331.1,470.1,331.1,470.7L331.1,470.7z"/>
	<path class="st1" d="M338.7,478.2h-0.2c-0.7,0.2-1,0.5-1,1v0.4c0.2,0.6,0.5,1,1.1,1h0.4c0.6-0.2,0.8-0.6,0.8-1.1v-0.3
		C339.5,478.5,339.2,478.2,338.7,478.2z"/>
	<path class="st1" d="M337.8,484.6h-0.2c-0.7,0.2-1,0.5-1,1v0.4c0.2,0.6,0.5,1,1.1,1h0.4c0.6-0.2,0.8-0.6,0.8-1.1v-0.3
		C338.6,484.9,338.3,484.6,337.8,484.6z"/>
	<path class="st1" d="M354.3,477c1.4-1.3,2-2.7,2-4.4v-0.1c0-1.2-0.5-2.3-1.5-3.3c-1-0.8-2.1-1.3-3.2-1.3h-0.3
		c-0.9,0-1.8,0.3-2.7,0.9c-0.2,0.1-0.7,0.5-1.3,1.1c-0.6,0.8-1,1.4-1,1.7c0,0,0,0.1,0.1,0.2c0.4,0.5,0.9,0.7,1.6,0.7
		c0.4,0,0.7-0.1,0.9-0.3l0.6-1c0.8-1.1,1.6-1.7,2.4-1.7h0.1c0.4,0,0.7,0.1,1,0.3c0.7,0.5,1,1.3,1,2.3v0.2c0,1.2-0.7,2.4-2,3.5
		c-0.7,0.6-1.4,1-2.1,1.4c-0.4,0.1-0.5,0.3-0.5,0.6c0,0.1,0,0.3,0.1,0.5c0.4,0.2,0.7,0.4,1,0.5c1.8,1.1,2.7,2.3,2.7,3.7v0.1
		c0,0.7-0.3,1.5-0.8,2.2c-0.1,0.2-0.4,0.6-1.1,1.2c-1.1,0.9-2.2,1.4-3.3,1.4c-1,0-1.8-0.5-2.2-1.4c-0.2-0.6-0.4-1.2-0.4-1.6
		c0-0.5,0-0.7-0.1-0.8c-0.4-0.4-0.9-0.5-1.6-0.5h-0.1c-0.1,0-0.3,0-0.5,0c-0.3,0.1-0.5,0.3-0.5,0.4c0,0.6,0.1,1.3,0.3,2.2
		c0.2,0.6,0.4,1,0.6,1.4c0.9,1.4,2.2,2,3.9,2c2,0,3.9-0.8,5.8-2.3c1.6-1.4,2.4-2.9,2.4-4.3c0-1.8-1-3.3-3.1-4.6c0,0,0.1-0.1,0.3-0.2
		C353.3,477.8,353.7,477.5,354.3,477z"/>
</g>
<g>
	<g>
		<path class="st1" d="M280.2,415.2c0,3.1-2.5,5.6-5.6,5.6c-3.1,0-5.6-2.5-5.6-5.6c0-3.1,2.5-5.6,5.6-5.6
			C277.6,409.6,280.2,412.1,280.2,415.2z"/>
	</g>
	<g>
		<path class="st1" d="M296.2,415.2c0,3.1-2.5,5.6-5.6,5.6c-3.1,0-5.6-2.5-5.6-5.6c0-3.1,2.5-5.6,5.6-5.6
			C293.6,409.6,296.2,412.1,296.2,415.2z"/>
	</g>
	<g>
		<path class="st1" d="M313.5,415.2c0,3.1-2.5,5.6-5.6,5.6c-3.1,0-5.6-2.5-5.6-5.6c0-3.1,2.5-5.6,5.6-5.6
			C311,409.6,313.5,412.1,313.5,415.2z"/>
	</g>
</g>
</svg>
