<?xml version="1.0" encoding="utf-8"?>
<!-- Generator: Adobe Illustrator 25.3.0, SVG Export Plug-In . SVG Version: 6.00 Build 0)  -->
<svg version="1.1" id="Layer_1" xmlns="http://www.w3.org/2000/svg" xmlns:xlink="http://www.w3.org/1999/xlink" x="0px" y="0px"
	 viewBox="0 0 841.89 1190.55" style="enable-background:new 0 0 841.89 1190.55;" xml:space="preserve">
<style type="text/css">
	.st0{fill:#28519F;}
	.st1{fill:#FFFFFF;}
</style>
<g>
	<path class="st0" d="M580.13,253.84c-0.53,0.76-0.62,1.29-0.1,2.14c6.33,10.48,4.87,20.76-0.97,30.87c-0.6,1.04-0.67,1.72,0,2.83
		c5.19,8.64,4.82,17.65,0.73,26.42c-1.72,3.69-1.85,6.44-0.54,10.41c3.87,11.7,2.61,22.89-6.47,32.14
		c-4.74,4.83-10.78,7.52-17.33,8.88c-11.93,2.48-24.08,3.43-36.13,5.16c-8.85,1.26-17.73,2.36-26.6,3.54
		c-18.13,2.4-36.3,4.61-54.39,7.29c-7.69,1.14-14.66-0.24-21.46-3.58c-0.6-0.29-1.21-0.6-1.85-0.77c-3.02-0.79-4.03-0.01-3.44,2.99
		c1.56,8.01-4.27,14.16-11.6,15.04c-22.16,2.67-44.26,5.78-66.38,8.71c-2.87,0.38-5.73,0.79-8.6,1.1
		c-6.75,0.74-12.56-3.7-13.46-10.46c-5.16-38.74-10.29-77.49-15.38-116.25c-1-7.56,3.79-13.69,11.3-14.68
		c28.08-3.72,56.16-7.43,84.23-11.16c1.77-0.24,3.56-0.35,5.17,0.31c1.7,0.69,2.62-0.02,3.6-1.17c2.55-2.98,4.53-6.34,6.38-9.76
		c7.8-14.37,14.35-29.31,20.23-44.55c1.64-4.25,3.08-8.59,4.67-12.86c0.41-1.12,0.46-2.2,0.28-3.35
		c-1.61-10.29-2.97-20.63-4.87-30.86c-1.58-8.49,1.71-14.44,8.68-18.67c9.01-5.47,18.58-6.18,28.45-2.57
		c3.1,1.13,5.51,3.07,7.37,5.94c7.18,11.01,13.4,22.46,17.92,34.84c2.46,6.74,2.78,13.62,2.53,20.63
		c-0.33,9.33-0.58,18.65-0.91,27.97c-0.05,1.44,0.73,1.31,1.66,1.19c12.17-1.63,24.35-3.27,36.52-4.91
		c9.8-1.31,19.59-2.71,29.41-3.89c14.57-1.75,25.53,7.62,26.39,22.43C585.57,241.93,584.05,248.22,580.13,253.84z"/>
	<path class="st1" d="M572.98,239.89c-0.85,7.67-4.63,13.36-12,16.26c-1.3,0.51-1.43,1.35-1.48,2.47c-0.06,1.35,1.05,1,1.7,1.16
		c12.21,2.99,13.04,14.23,7.2,22.87c-2.2,3.25-5.09,5.75-8.88,6.95c-1.42,0.44-1.17,1.45-1.32,2.34c-0.19,1.08,0.8,0.87,1.37,0.99
		c11.56,2.43,12.45,12.54,9.37,19.57c-2.17,4.95-5.58,8.7-10.85,10.41c-1.45,0.47-0.99,1.62-1.11,2.49
		c-0.13,0.96,0.83,0.61,1.33,0.7c6.73,1.25,10.61,7.6,9.09,14.88c-1.61,7.71-8.19,13.88-16.28,15.05
		c-9.32,1.35-18.65,2.59-27.98,3.84c-29,3.88-58.01,7.69-86.99,11.65c-4.82,0.66-9.19-0.17-13.47-2.24
		c-1.81-0.88-3.66-1.69-5.48-2.57c-3.15-1.52-6.43-1.81-9.82-1.02c-1.44,0.34-2.14,0.06-2.36-1.64
		c-3.77-28.89-7.6-57.77-11.45-86.65c-0.17-1.23,0.19-1.99,1.11-2.76c4.69-3.93,9.28-7.96,13.72-12.18
		c4.04-3.85,6.57-8.66,9.07-13.47c9.39-18.08,17.64-36.66,24.8-55.75c2.45-6.54,1.57-12.73,0.49-19.18
		c-1.44-8.55-2.63-17.14-3.99-25.71c-0.17-1.11,0.28-1.79,0.94-2.49c4.45-4.68,10.05-5.45,16.13-4.91c3.25,0.28,5.27,1.79,6.97,4.54
		c6.45,10.42,12.35,21.06,16.12,32.81c1.45,4.52,1.07,9.04,0.98,13.57c-0.27,13.35-0.56,26.7-1.47,40.03
		c-0.08,1.14-0.19,2.27-0.3,3.67l2.56-0.34c25.41-3.36,50.83-6.73,76.24-10.07c1.39-0.18,2.82-0.39,4.21-0.28
		C568.96,225.46,573.89,231.62,572.98,239.89z"/>
	<circle class="st1" cx="359.27" cy="375.54" r="12.66"/>
</g>
<polygon class="st0" points="110.8,489.11 19.83,470.52 73.62,416.06 45.06,347 211.74,373.57 126.74,396.14 "/>
<polygon class="st0" points="717.43,489.11 808.4,470.52 754.61,416.06 783.17,347 616.49,373.57 701.49,396.14 "/>
<polygon class="st0" points="211.74,381.52 211.74,407.08 158.24,396.97 "/>
<polygon class="st0" points="616.49,381.52 616.49,407.08 669.99,396.97 "/>
<path class="st0" d="M135.66,401.73l-19.87,114.71c0,0,161.42,21.53,306.61,22.47c148.08,0.96,285.02-22.47,285.02-22.47
	l-16.9-114.71C690.52,401.73,453.81,457.26,135.66,401.73z"/>
<rect x="129.25" y="802.47" class="st0" width="593.46" height="8.39"/>
<rect x="129.25" y="873.41" class="st0" width="593.46" height="8.39"/>
<circle class="st0" cx="142.22" cy="842.13" r="12.2"/>
<circle class="st0" cx="705.93" cy="842.13" r="12.2"/>
<g>
	<rect x="134.26" y="921.85" class="st0" width="9.02" height="9.02"/>
</g>
<g>
	<rect x="149.91" y="921.85" class="st0" width="9.02" height="9.02"/>
</g>
<g>
	<rect x="165.57" y="921.85" class="st0" width="9.02" height="9.02"/>
</g>
<g>
	<rect x="181.22" y="921.85" class="st0" width="9.02" height="9.02"/>
</g>
<g>
	<rect x="196.87" y="921.85" class="st0" width="9.02" height="9.02"/>
</g>
<g>
	<rect x="212.52" y="921.85" class="st0" width="9.02" height="9.02"/>
</g>
<g>
	<rect x="228.18" y="921.85" class="st0" width="9.02" height="9.02"/>
</g>
<g>
	<rect x="243.83" y="921.85" class="st0" width="9.02" height="9.02"/>
</g>
<g>
	<rect x="259.48" y="921.85" class="st0" width="9.02" height="9.02"/>
</g>
<g>
	<rect x="583.89" y="921.85" class="st0" width="9.02" height="9.02"/>
</g>
<g>
	<rect x="599.55" y="921.85" class="st0" width="9.02" height="9.02"/>
</g>
<g>
	<rect x="615.2" y="921.85" class="st0" width="9.02" height="9.02"/>
</g>
<g>
	<rect x="630.85" y="921.85" class="st0" width="9.02" height="9.02"/>
</g>
<g>
	<rect x="646.5" y="921.85" class="st0" width="9.02" height="9.02"/>
</g>
<g>
	<rect x="662.16" y="921.85" class="st0" width="9.02" height="9.02"/>
</g>
<g>
	<rect x="677.81" y="921.85" class="st0" width="9.02" height="9.02"/>
</g>
<g>
	<rect x="693.46" y="921.85" class="st0" width="9.02" height="9.02"/>
</g>
<g>
	<rect x="709.11" y="921.85" class="st0" width="9.02" height="9.02"/>
</g>
<path class="st0" d="M395.15,966.9l1.1,3.4c0.18,0.55,0.69,0.92,1.27,0.92h3.57c1.29,0,1.83,1.65,0.78,2.41l-2.89,2.1
	c-0.47,0.34-0.66,0.94-0.48,1.49l1.1,3.4c0.4,1.23-1.01,2.25-2.05,1.49l-2.89-2.1c-0.47-0.34-1.1-0.34-1.57,0l-2.89,2.1
	c-1.04,0.76-2.45-0.26-2.05-1.49l1.1-3.4c0.18-0.55-0.02-1.15-0.48-1.49l-2.89-2.1c-1.04-0.76-0.51-2.41,0.78-2.41h3.57
	c0.58,0,1.09-0.37,1.27-0.92l1.1-3.4C393.01,965.67,394.75,965.67,395.15,966.9z"/>
<path class="st0" d="M428.34,966.9l1.1,3.4c0.18,0.55,0.69,0.92,1.27,0.92h3.57c1.29,0,1.83,1.65,0.78,2.41l-2.89,2.1
	c-0.47,0.34-0.66,0.94-0.48,1.49l1.1,3.4c0.4,1.23-1.01,2.25-2.05,1.49l-2.89-2.1c-0.47-0.34-1.1-0.34-1.57,0l-2.89,2.1
	c-1.04,0.76-2.45-0.26-2.05-1.49l1.1-3.4c0.18-0.55-0.02-1.15-0.48-1.49l-2.89-2.1c-1.04-0.76-0.51-2.41,0.78-2.41h3.57
	c0.58,0,1.09-0.37,1.27-0.92l1.1-3.4C426.21,965.67,427.94,965.67,428.34,966.9z"/>
<path class="st0" d="M461.54,966.9l1.1,3.4c0.18,0.55,0.69,0.92,1.27,0.92h3.57c1.29,0,1.83,1.65,0.78,2.41l-2.89,2.1
	c-0.47,0.34-0.66,0.94-0.48,1.49l1.1,3.4c0.4,1.23-1.01,2.25-2.05,1.49l-2.89-2.1c-0.47-0.34-1.1-0.34-1.57,0l-2.89,2.1
	c-1.04,0.76-2.45-0.26-2.05-1.49l1.1-3.4c0.18-0.55-0.02-1.15-0.48-1.49l-2.89-2.1c-1.04-0.76-0.51-2.41,0.78-2.41h3.57
	c0.58,0,1.09-0.37,1.27-0.92l1.1-3.4C459.4,965.67,461.14,965.67,461.54,966.9z"/>
<polygon class="st0" points="309.09,926.36 297.02,912.18 558.03,912.18 544.65,926.36 558.03,946.02 297.02,946.02 "/>
<path class="st0" d="M583.91,955.63H270.65l24.03-27.67l-24.23-25.92h313.46l-23.57,26.79L583.91,955.63z M278.28,952.15h297.94
	l-20.51-23.31l20.51-23.31H278.47l20.89,22.35L278.28,952.15z"/>
<g>
	<path class="st1" d="M285.87,449.91c-0.35,3.08-0.53,4.62-0.88,7.71c-1.1-0.13-1.64-0.19-2.74-0.32c-1.91-0.22-3.16-0.14-3.77,0.26
		c-0.61,0.4-1.04,1.68-1.31,3.85c-1.2,9.92-2.41,19.85-3.61,29.77c-0.27,2.2-0.14,3.56,0.39,4.1c0.53,0.53,1.77,0.92,3.71,1.15
		c1.13,0.13,1.7,0.2,2.84,0.33c-0.36,3.1-0.53,4.65-0.89,7.75c-10.56-1.21-21.11-2.56-31.64-4.06c0.44-3.09,0.66-4.63,1.1-7.72
		c0.85,0.12,1.27,0.18,2.12,0.3c1.91,0.27,3.21,0.22,3.88-0.13c0.67-0.35,1.16-1.65,1.46-3.9c1.51-11.04,3.01-22.08,4.52-33.12
		c-6.83,14.55-13.82,29.02-20.95,43.42c-5.39-0.81-8.09-1.22-13.47-2.09c-2.19-15.82-4.22-31.66-6.1-47.53
		c-1.9,10.95-3.81,21.91-5.71,32.86c-0.37,2.1-0.31,3.45,0.17,4.05c0.48,0.6,1.72,1.07,3.71,1.41c0.85,0.14,1.27,0.21,2.12,0.36
		c-0.52,3.08-0.77,4.61-1.29,7.69c-8.58-1.43-17.15-2.98-25.7-4.6c0.58-3.06,0.88-4.6,1.46-7.66c1.04,0.2,1.56,0.3,2.61,0.49
		c1.99,0.37,3.31,0.36,3.97-0.03c0.66-0.39,1.18-1.64,1.57-3.74c1.81-9.83,3.62-19.66,5.43-29.5c0.39-2.1,0.36-3.44-0.09-4.02
		c-0.44-0.58-1.64-1.06-3.58-1.42c-1.01-0.19-1.51-0.29-2.52-0.48c0.58-3.05,0.87-4.57,1.45-7.62c10.19,1.91,20.39,3.71,30.62,5.4
		c1.37,11.29,2.81,22.57,4.33,33.84c5.08-10.26,10.08-20.55,15.02-30.88C264.66,447.34,275.26,448.7,285.87,449.91z"/>
	<path class="st1" d="M328.69,495.6c-1.34,4.93-3.9,8.49-7.63,10.67c-4.12,2.42-10.55,2.93-15.04,2.43
		c-5.87-0.64-12.21-2.66-16.38-7.24c-3.88-4.27-5.14-10.19-4.51-15.78c0.63-5.56,3.14-11,7.74-14.42c4.8-3.57,11-4.55,16.78-4.03
		c5.53,0.5,11.35,2.49,14.99,6.91c3.73,4.52,4.75,10.7,4.25,16.46c-0.04,0.56-0.06,0.84-0.1,1.4c-8.9-0.64-17.79-1.41-26.68-2.26
		c-0.03,0.32-0.05,0.48-0.08,0.8c-0.31,3.24,0.16,5.79,1.41,7.65c1.26,1.86,3.2,2.91,5.83,3.15c2.23,0.2,4.12-0.27,5.64-1.4
		c1.53-1.13,2.62-2.84,3.28-5.14C322.39,495.14,324.49,495.3,328.69,495.6z M302.8,482.58c4.89,0.47,7.34,0.69,12.24,1.11
		c0.02-0.24,0.03-0.36,0.05-0.6c0.22-2.55-0.15-4.56-1.09-6.03c-0.95-1.47-2.4-2.3-4.36-2.48c-1.91-0.17-3.46,0.43-4.65,1.82
		C303.79,477.79,303.06,479.85,302.8,482.58z"/>
	<path class="st1" d="M394.49,490.47c0.05-3.1,0.07-4.65,0.12-7.76c10.43,0.17,20.85,0.18,31.28,0.06c0.04,3.1,0.06,4.65,0.09,7.76
		c-0.81,0.01-1.22,0.01-2.03,0.02c-1.96,0.02-3.23,0.25-3.81,0.71c-0.58,0.46-0.86,1.79-0.85,4c0.03,5.78,0.07,11.57,0.1,17.35
		c-4.22,0.03-6.34,0.03-10.56,0.02c-0.76-1.35-1.13-2.02-1.88-3.37c-2.87,1.53-5.75,2.66-8.63,3.39c-2.88,0.73-5.8,1.01-8.6,1
		c-7.61-0.03-15.57-2.82-20.95-8.4c-5.46-5.67-7.1-14.21-6.75-21.73c0.34-7.56,3.07-15.64,8.9-20.85
		c5.72-5.11,13.62-7.71,21.22-7.45c2.95,0.1,5.7,0.41,8.12,1.08c2.42,0.67,4.64,1.67,6.68,3.01c0.54-1.21,0.81-1.82,1.34-3.03
		c3.52,0.01,5.28,0.01,8.8,0c0.03,7.54,0.06,15.09,0.1,22.63c-3.94,0.02-5.91,0.02-9.84,0c-0.91-5.28-2.32-9.12-4.25-11.52
		c-1.93-2.4-4.54-3.62-7.86-3.67c-3.78-0.06-6.63,1.53-8.32,4.7c-2.47,4.62-2.82,10.53-2.95,15.71c-0.13,5.23-0.08,11.24,2.23,16.01
		c1.59,3.29,4.46,5.02,8.32,5.08c2.52,0.04,4.23-0.31,5.13-1.03c0.9-0.72,1.36-2.31,1.39-4.76c0.02-1.68,0.02-2.52,0.04-4.2
		c0.02-2.08-0.25-3.38-0.81-3.91c-0.56-0.53-1.86-0.8-3.91-0.83C395.61,490.49,395.23,490.48,394.49,490.47z"/>
	<path class="st1" d="M464.81,505.26c-1.74,2.4-3.87,4.26-6.38,5.57c-2.51,1.31-5.32,2.02-8.42,2.12
		c-5.21,0.17-8.93-0.81-11.12-2.89c-2.2-2.08-3.34-5.78-3.45-11.09c-0.12-5.89-0.18-8.83-0.29-14.71c-0.03-1.6-0.31-2.63-0.84-3.1
		c-0.53-0.47-1.6-0.69-3.22-0.66c-0.53,0.01-0.79,0.01-1.31,0.02c-0.04-2.89-0.07-4.34-0.11-7.24c7.24-0.11,14.48-0.29,21.71-0.54
		c0.29,8.33,0.58,16.65,0.86,24.98c0.08,2.24,0.59,3.89,1.53,4.95c0.95,1.06,2.34,1.56,4.19,1.48c1.96-0.08,3.48-0.85,4.56-2.31
		c1.08-1.46,1.57-3.4,1.46-5.83c-0.23-5.07-0.34-7.6-0.57-12.66c-0.07-1.62-0.37-2.66-0.9-3.1c-0.53-0.44-1.58-0.63-3.17-0.56
		c-0.66,0.03-0.99,0.04-1.64,0.07c-0.12-2.89-0.17-4.34-0.29-7.23c7.32-0.29,14.63-0.66,21.94-1.09c0.55,9.19,1.09,18.39,1.64,27.58
		c0.09,1.57,0.42,2.59,0.98,3.05c0.56,0.46,1.65,0.64,3.27,0.54c0.72-0.05,1.08-0.07,1.8-0.11c0.19,2.87,0.28,4.31,0.46,7.18
		c-7.48,0.46-14.95,0.87-22.43,1.23C464.96,508.64,464.91,507.51,464.81,505.26z"/>
	<path class="st1" d="M497.4,509.54c-2.43,0.18-3.64,0.26-6.07,0.43c-0.38-5.65-0.57-8.47-0.96-14.12c3.02-0.2,4.52-0.31,7.54-0.54
		c1.07,2.43,2.63,4.2,4.66,5.3c2.04,1.1,4.55,1.52,7.54,1.27c1.98-0.17,3.4-0.55,4.25-1.15c0.85-0.6,1.22-1.45,1.12-2.57
		c-0.13-1.49-2.48-2.65-7.03-3.53c-1.53-0.3-2.74-0.55-3.62-0.75c-6.59-1.45-10.88-3.01-12.89-4.61c-2.01-1.6-3.11-3.89-3.31-6.87
		c-0.27-3.96,1.21-7.23,4.41-9.83c3.19-2.59,7.65-4.11,13.39-4.59c2.57-0.22,5.06-0.18,7.47,0.11c2.4,0.29,4.78,0.83,7.13,1.62
		c0.38-0.95,0.58-1.43,0.96-2.38c2.46-0.24,3.68-0.36,6.14-0.62c0.5,4.85,0.75,7.28,1.25,12.13c-2.63,0.27-3.94,0.4-6.57,0.66
		c-1.34-1.8-3.02-3.12-5.05-3.96c-2.03-0.84-4.25-1.16-6.64-0.95c-1.66,0.15-2.95,0.52-3.86,1.11c-0.91,0.6-1.33,1.35-1.26,2.25
		c0.14,1.65,2.35,2.91,6.65,3.77c1.1,0.22,1.96,0.4,2.58,0.53c0.54,0.11,1.28,0.26,2.24,0.44c4.66,0.94,8.05,1.92,10.16,2.99
		c1.5,0.76,2.7,1.85,3.62,3.29c0.92,1.43,1.48,3.09,1.67,4.97c0.43,4.08-0.9,7.47-4.03,10.14c-3.12,2.67-7.65,4.29-13.55,4.82
		c-3.15,0.28-6.15,0.2-9-0.24c-2.85-0.44-5.39-1.19-7.61-2.26C498.2,507.68,497.94,508.3,497.4,509.54z"/>
	<path class="st1" d="M540.39,473.33c-2.21,0.25-3.31,0.37-5.52,0.61c-0.31-2.85-0.46-4.27-0.77-7.12c0.13-0.01,0.2-0.02,0.33-0.04
		c3.31-0.36,5.74-1.82,7.29-4.36c1.55-2.54,2.44-6.51,2.66-11.91c3.88-0.46,5.82-0.7,9.69-1.2c0.64,4.97,1.28,9.94,1.91,14.91
		c4.62-0.59,6.94-0.9,11.56-1.54c0.39,2.84,0.59,4.25,0.98,7.09c-4.65,0.65-6.98,0.96-11.63,1.55c0.89,6.93,1.78,13.86,2.67,20.78
		c0.2,1.56,0.59,2.67,1.17,3.34c0.58,0.66,1.39,0.93,2.42,0.79c1.28-0.17,2.09-0.86,2.44-2.08c0.35-1.22,0.29-3.54-0.17-6.98
		c-0.19-1.43-0.29-2.14-0.48-3.57c2.91-0.39,4.36-0.59,7.26-1c0.29,2.07,0.44,3.11,0.73,5.19c0.74,5.25,0.11,9.15-1.92,11.69
		c-2.03,2.54-5.76,4.18-11.2,4.87c-2.94,0.37-5.56,0.29-7.86-0.26c-2.3-0.54-4.22-1.53-5.77-2.96c-1.04-0.95-1.84-2.08-2.4-3.37
		c-0.56-1.29-1.02-3.57-1.39-6.82C541.72,485.09,541.05,479.21,540.39,473.33z"/>
	<path class="st1" d="M606.28,491.72c-1.18,1.98-2.96,3.66-5.34,5c-2.38,1.35-5.23,2.29-8.52,2.8c-4.27,0.67-7.71,0.22-10.3-1.31
		c-2.59-1.53-4.13-4.03-4.63-7.49c-0.49-3.38,0.17-6.06,1.96-8.04c1.79-1.99,5.49-3.88,11.09-5.73c4.67-1.54,7.54-2.91,8.62-4.07
		c1.08-1.15,1.46-2.72,1.13-4.69c-0.33-1.95-1.28-3.37-2.85-4.29c-1.57-0.92-3.54-1.18-5.92-0.8c-0.78,0.13-1.57,0.36-2.34,0.72
		c-0.78,0.35-1.56,0.82-2.36,1.4c1.53,0.19,2.72,0.66,3.58,1.4c0.85,0.74,1.39,1.78,1.61,3.13c0.27,1.66-0.19,3.11-1.36,4.35
		c-1.18,1.24-2.87,2.03-5.09,2.37c-2.63,0.4-4.74,0.11-6.34-0.87c-1.6-0.98-2.55-2.55-2.86-4.71c-0.48-3.32,0.9-6.18,4.13-8.58
		c3.83-2.84,9.71-4.46,14.24-5.11c3.39-0.49,6.56-0.82,9.35-0.76c2.79,0.06,4.97,0.42,6.54,1.09c1.89,0.8,3.32,1.89,4.27,3.28
		c0.95,1.39,1.72,3.7,2.32,6.96c1.07,5.87,1.61,8.8,2.68,14.67c0.18,1,0.42,1.62,0.71,1.88c0.29,0.26,0.77,0.33,1.43,0.21
		c0.66-0.12,1.1-0.36,1.3-0.73c0.2-0.36,0.22-1.03,0.04-2c-0.34-1.84-0.51-2.76-0.85-4.6c2.22-0.41,3.33-0.62,5.55-1.04
		c0.38,2,0.57,2.99,0.95,4.99c0.79,4.16,0.37,7.34-1.29,9.52c-1.66,2.18-4.76,3.7-9.3,4.51c-2.56,0.46-4.83,0.4-6.81-0.16
		C609.61,494.44,607.84,493.35,606.28,491.72z M602.2,478.33c-0.9,0.69-2.11,1.56-3.63,2.59c-3.45,2.35-5.07,4.3-4.82,5.88
		c0.18,1.11,0.73,1.95,1.68,2.53c0.94,0.58,2.07,0.76,3.37,0.55c1.61-0.26,2.81-0.97,3.6-2.11c0.79-1.14,1.04-2.56,0.76-4.24
		c-0.02-0.11-0.03-0.17-0.05-0.28C602.74,481.28,602.56,480.3,602.2,478.33z"/>
</g>
<g>
	<path class="st0" d="M240.97,589.79c-1.84,0.53-4.63,0.76-8.33,0.68c-3.39-0.07-6.15-0.35-8.27-0.82c-3.58-0.8-5.07-3.04-4.5-6.67
		c-0.05,0.29,0.53-2.36,1.7-7.94c1.7-8.06,3.11-16.23,4.41-24.37c0.15-0.96,0.56-1.72,1.22-2.27c0.66-0.55,1.42-0.73,2.27-0.54
		c0.85,0.19,1.5,0.69,1.96,1.49c0.46,0.8,0.62,1.69,0.47,2.65c-1.28,8.29-2.56,16.87-4.38,24.81c-0.3,1.3-0.79,3.37-1.36,6.13
		c4.53,0.91,9.13,0.36,13.67-0.09c0.35-0.05,0.68-0.04,0.98,0.02c0.91,0.19,1.6,0.73,2.06,1.63c0.41,0.8,0.56,1.63,0.44,2.5
		C243.11,588.46,242.33,589.4,240.97,589.79z"/>
	<path class="st0" d="M270.04,597.08c-1.15-0.25-2.12-2.06-2.92-5.36c-0.52-2.14-0.91-4.58-1.14-7.3c-1.1,0-2.88-0.14-5.34-0.4
		c-2.31-0.24-4.1-0.35-5.35-0.33c-0.91,1.74-2.44,4.33-4.61,7.77c-0.81,1.1-1.78,1.54-2.92,1.31c-0.8-0.16-1.48-0.62-2.04-1.39
		c-0.56-0.77-0.76-1.64-0.63-2.63c0.12-0.87,1.59-3.59,4.38-8.18c-0.13-0.57-0.15-1.08-0.06-1.53c0.16-0.8,0.96-1.3,2.36-1.5
		c2.75-3.99,5.6-7.89,8.52-11.7c4.41-5.77,6.98-8.61,7.81-8.46c1.56,0.28,2.56,1.69,2.72,3.96c0.13,1.79,0.17,4.71,0.37,8.44
		c0.3,5.78,0.78,11.61,1.23,17.4c0.05,0.49,0.29,1.69,0.72,3.57c0.36,1.55,0.49,2.7,0.41,3.43c-0.11,0.99-0.53,1.76-1.24,2.32
		C271.6,597.06,270.84,597.25,270.04,597.08z M265.11,569.43c-1.4,2.08-3.34,4.9-5.82,8.46c0.67-0.05,1.7,0,3.09,0.16
		c1.63,0.18,2.66,0.27,3.09,0.28C265.39,576.04,265.27,573.08,265.11,569.43z"/>
	<path class="st0" d="M310.03,591.41c2.18-4.94,4.37-9.88,6.43-14.89c0.81-1.96,1.58-4,2.39-5.91c0.97-2.3,2.11-4.1,3.19-5.3
		c0.71-0.8,1.52-1.14,2.42-1.04c0.81,0.09,1.5,0.51,2.06,1.26c0.56,0.75,0.81,1.61,0.73,2.58c-0.05,0.69-0.3,1.34-0.74,1.97
		c-0.88,1.25-1.71,2.78-2.51,4.59c-0.03,0.07-0.69,1.74-2,4.9c-2.36,5.69-4.86,11.41-7.31,17.1c-0.85,1.99-1.85,3.96-3.02,5.91
		c-0.75,1.26-1.73,1.81-2.93,1.65c-1.53-0.2-2.52-1.18-2.97-2.93c-1.82-7.31-2.87-14.82-3.91-22.33c-0.37-2.39-0.76-4.79-1.13-7.18
		c-0.51-3.3-0.67-5.62-0.55-6.86c0.1-1.01,0.5-1.81,1.19-2.38c0.65-0.53,1.39-0.74,2.18-0.63c1.37,0.19,2.36,1.27,2.63,2.96
		c0.22,1.41,0.26,3.1,0.45,4.56c0.24,1.86,0.75,4.8,1.29,8.59C308.61,583.02,309.29,587.52,310.03,591.41z"/>
	<path class="st0" d="M342.82,607.49c-4.34-0.43-7.99-2.23-10.83-5.46c-3.04-3.45-4.27-7.76-3.98-12.63
		c0.31-5.22,2.86-11.7,5.78-15.45c3.43-4.4,8.32-7.34,13.48-6.85c4.97,0.47,8.65,2.11,11,5.05c2.35,2.94,3.31,7.26,3.13,12.68
		c-0.17,5.14-2.35,11.67-5.1,15.55C352.99,605.05,348.03,608,342.82,607.49z M346.84,574.07c-3.2-0.29-6.06,1.31-8.61,4.78
		c-2.38,3.25-3.74,6.98-4.03,11.2c-0.2,2.85,0.58,5.26,2.34,7.23c1.7,1.89,3.94,2.98,6.71,3.23c3.23,0.3,6.03-1.34,8.39-4.86
		c2.16-3.22,3.35-6.99,3.58-11.3c0.2-3.61-0.35-6.17-1.62-7.69C352.39,575.22,350.13,574.36,346.84,574.07z"/>
	<path class="st0" d="M384.74,607.81c-1.76,0.82-4.49,1.48-8.16,2c-3.36,0.47-6.11,0.63-8.25,0.5c-3.62-0.23-5.34-2.21-5.16-5.9
		c-0.01,0.29,0.27-2.42,0.83-8.14c0.81-8.26,1.32-16.58,1.73-24.86c0.05-0.98,0.37-1.79,0.96-2.44c0.6-0.65,1.32-0.95,2.18-0.89
		c0.86,0.06,1.56,0.44,2.1,1.17c0.54,0.72,0.8,1.58,0.75,2.55c-0.38,8.42-0.71,17.13-1.66,25.29c-0.15,1.34-0.42,3.46-0.69,6.29
		c4.58,0.18,9.06-1.09,13.5-2.25c0.34-0.1,0.67-0.15,0.97-0.14c0.92,0.04,1.66,0.48,2.21,1.29c0.49,0.73,0.73,1.53,0.7,2.41
		C386.72,606.15,386.04,607.2,384.74,607.81z"/>
	<path class="st0" d="M412.2,605.16c-1.09,1.69-2.41,3.09-3.94,4.19c-1.87,1.34-3.8,1.99-5.77,1.93c-3.77-0.1-6.55-1.02-8.34-2.74
		c-4.74-4.71-5.27-11.84-5.27-18.45c0-0.8,0.09-2.06,0.21-3.7c0.12-1.64,0.19-2.87,0.21-3.7c0.02-0.66,0.06-1.64,0.13-2.95
		c0.07-1.31,0.11-2.29,0.13-2.95c0.04-1.35,0.28-2.62,0.73-3.8c0.6-1.56,1.41-2.33,2.41-2.29c0.79,0.03,1.48,0.37,2.06,0.99
		c0.63,0.66,0.95,1.5,0.93,2.51c-0.02,0.96-0.07,2.41-0.14,4.36c-0.07,1.94-0.11,3.4-0.14,4.38c-0.02,0.81-0.08,2.03-0.2,3.66
		c-0.11,1.63-0.18,2.85-0.2,3.66c-0.06,2.61,0.15,5.05,0.62,7.3c0.56,2.69,1.41,4.6,2.58,5.7c0.6,0.57,2.08,0.93,4.39,1.01
		c4.92,0.16,7.21-6.64,7.99-11.45c0.89-5.49,1.13-11.4,1.24-17.02c0.02-0.95,0.26-1.9,0.74-2.78c0.65-1.18,1.58-1.76,2.77-1.74
		c0.97,0.01,1.7,0.46,2.18,1.32c0.36,0.64,0.56,1.35,0.55,2.12c-0.07,5.26-0.24,10.73-0.91,15.9
		C416.55,595.39,414.78,601.29,412.2,605.16z"/>
	<path class="st0" d="M454.86,602.94c0.02,0.86-0.08,2.23-0.29,4.09c-0.25,2.23-1.3,3.37-3.16,3.42c-1.03,0.03-2.21-0.62-3.53-1.95
		c-7.22-7.35-13.34-16.03-19.26-24.87c-0.08,4.48-0.12,7.22-0.12,8.24c0,1.36,0.03,3.41,0.09,6.14c0.06,2.74,0.09,4.79,0.09,6.14
		c0.01,5.08-1.05,7.62-3.18,7.62c-1.08,0-1.94-0.39-2.59-1.17c-0.57-0.69-0.86-1.53-0.86-2.51c0-0.69,0.05-1.73,0.15-3.12
		c0.1-1.39,0.15-2.43,0.15-3.12c0-1.02,0.04-2.54,0.1-4.57c0.06-2.03,0.1-3.55,0.1-4.57c0-1.08-0.01-2.72-0.05-4.91
		c-0.04-2.19-0.05-3.82-0.05-4.91c0-1.03-0.08-2.57-0.25-4.62c-0.17-2.05-0.25-3.59-0.24-4.62c0-1.03,0.38-1.95,1.12-2.76
		c0.74-0.81,1.58-1.21,2.53-1.21c1.06,0,2.23,1.1,3.53,3.3c5.91,9.73,12.17,19.08,19.75,27.02c0.01-0.55-0.01-1.86-0.04-3.92
		c-0.09-5.72-0.17-11.45-0.51-17.16c-0.04-0.5-0.14-1.43-0.33-2.78c-0.16-1.2-0.25-2.15-0.26-2.83c-0.04-2.37,0.99-3.59,3.08-3.64
		c2.33-0.06,3.59,4.22,3.78,12.88c0,0.19,0.02,1.55,0.04,4.08C454.7,592.06,454.75,597.51,454.86,602.94z"/>
	<path class="st0" d="M484.14,576.91c-1.12,0.07-2.88,0.09-5.26,0.04c-2.29-0.05-4.05-0.05-5.26,0.04
		c0.13,1.96,0.44,5.45,0.97,10.44c0.46,4.41,0.75,7.92,0.85,10.5c0.02,0.59,0.1,1.45,0.25,2.6c0.15,1.15,0.23,2.01,0.25,2.6
		c0.05,1.29-0.14,2.46-0.58,3.52c-0.56,1.36-1.39,2.06-2.52,2.12c-0.81,0.04-1.54-0.23-2.18-0.8c-0.71-0.64-1.09-1.46-1.12-2.48
		c-0.01-0.24,0.02-0.61,0.07-1.1c0.06-0.49,0.08-0.87,0.07-1.13c-0.03-0.79-0.11-1.98-0.26-3.58c-0.15-1.59-0.23-2.8-0.26-3.6
		c-0.07-2.3-0.33-5.42-0.76-9.34c-0.49-4.51-0.79-7.62-0.91-9.34c-0.45,0.02-0.67,0.03-1.12,0.05c-3.21,0.14-5.77-0.03-7.67-0.51
		c-1.61-0.41-2.43-1.51-2.47-3.3c-0.02-0.88,0.23-1.68,0.72-2.4c0.58-0.85,1.37-1.26,2.34-1.22c0.5,0.02,1.65,0.13,3.43,0.3
		c1.42,0.14,2.57,0.18,3.45,0.14c0.87-0.04,2.18-0.12,3.92-0.24c1.74-0.12,3.04-0.21,3.92-0.25c1.09-0.06,2.72-0.06,4.91-0.01
		c2.18,0.05,3.82,0.04,4.91-0.03c0.86-0.06,1.59,0.23,2.2,0.86c0.61,0.63,0.94,1.44,0.99,2.42c0.05,0.98-0.21,1.83-0.76,2.55
		C485.71,576.46,485.01,576.85,484.14,576.91z"/>
	<path class="st0" d="M516.03,606.1c-1.17,0.06-2.44-1.44-3.82-4.45c-0.9-1.95-1.72-4.22-2.45-6.82c-1.07,0.29-2.83,0.63-5.27,1.04
		c-2.29,0.38-4.05,0.76-5.27,1.11c-0.57,1.94-1.58,4.88-3.06,8.81c-0.58,1.29-1.45,1.97-2.6,2.06c-0.81,0.06-1.56-0.21-2.24-0.81
		c-0.68-0.6-1.04-1.4-1.09-2.39c-0.04-0.88,0.89-3.92,2.77-9.15c-0.23-0.52-0.35-1.01-0.34-1.48c0.01-0.83,0.69-1.52,2.02-2.09
		c1.94-4.62,4.01-9.2,6.15-13.69c3.23-6.81,5.22-10.26,6.05-10.34c1.57-0.14,2.8,0.96,3.37,3.13c0.45,1.71,1.03,4.54,1.9,8.13
		c1.35,5.56,2.88,11.11,4.38,16.64c0.14,0.47,0.59,1.57,1.35,3.28c0.63,1.42,0.97,2.5,1.02,3.24c0.07,0.99-0.19,1.86-0.79,2.59
		C517.55,605.67,516.84,606.06,516.03,606.1z M506.18,580.46c-0.99,2.4-2.35,5.67-4.12,9.81c0.64-0.23,1.66-0.45,3.03-0.67
		c1.62-0.26,2.64-0.45,3.06-0.56C507.66,586.83,507,583.97,506.18,580.46z"/>
	<path class="st0" d="M527.7,604.36c-0.87,0.08-1.62-0.19-2.26-0.8c-0.64-0.61-0.99-1.4-1.06-2.36c-0.13-1.71-0.25-4.29-0.36-7.74
		c-0.12-3.44-0.24-6.02-0.36-7.74c-0.14-1.9-0.39-4.75-0.73-8.55c-0.35-3.8-0.59-6.65-0.73-8.55c-0.07-0.94,0.24-1.92,0.93-2.94
		c0.69-1.02,1.46-1.57,2.31-1.67c0.47-0.05,1.71,0.34,3.68,1.19c2.31,0.99,3.69,1.56,4.12,1.66c3.88,0.87,8.34,3.49,11.41,6.18
		c3,2.63,6.23,8.03,6.6,12.72c0.23,2.91-0.08,5.86-1.06,8.7c-0.99,2.87-2.49,5.3-4.52,7.23c-2.27,2.17-5.63,3.54-10.06,4.07
		c-1.08,0.13-2.33,0.1-3.75-0.1C530.1,605.41,528.72,604.97,527.7,604.36z M537.83,576.49c-1.49-0.87-4.62-2.14-9.38-3.85
		c0.67,8.48,1.33,16.96,2,25.45c0.6,0.36,1.29,0.61,2.04,0.74c0.76,0.13,1.59,0.14,2.5,0.03c3.16-0.38,5.39-1.18,6.68-2.38
		c1.22-1.14,2.13-2.6,2.75-4.38c0.61-1.78,0.84-3.57,0.67-5.39C544.71,582.45,542.28,579.07,537.83,576.49z"/>
	<path class="st0" d="M579.8,597.04c-0.87,0.13-1.63-0.09-2.29-0.67c-0.66-0.58-1.05-1.34-1.16-2.3c-0.19-1.7-0.42-4.27-0.67-7.71
		c-0.25-3.43-0.47-6-0.67-7.71c-0.22-1.89-0.57-4.73-1.07-8.5c-0.5-3.77-0.85-6.61-1.07-8.5c-0.11-0.94,0.16-1.93,0.81-2.99
		c0.65-1.06,1.4-1.66,2.25-1.8c0.47-0.08,1.72,0.24,3.73,0.97c2.35,0.86,3.75,1.35,4.18,1.43c3.92,0.64,8.48,3.01,11.65,5.52
		c3.1,2.45,6.54,7.66,7.1,12.32c0.35,2.89,0.15,5.86-0.72,8.75c-0.88,2.93-2.29,5.44-4.24,7.48c-2.19,2.29-5.5,3.86-9.91,4.64
		c-1.07,0.19-2.33,0.23-3.76,0.11C582.25,597.95,580.85,597.59,579.8,597.04z M588.85,568.62c-1.52-0.78-4.71-1.87-9.53-3.31
		c1,8.43,2,16.87,3,25.3c0.62,0.33,1.31,0.53,2.07,0.62c0.76,0.08,1.6,0.05,2.5-0.12c3.15-0.56,5.35-1.49,6.59-2.77
		c1.17-1.21,2.03-2.72,2.58-4.53c0.55-1.81,0.7-3.62,0.46-5.42C595.96,574.18,593.4,570.94,588.85,568.62z"/>
	<path class="st0" d="M625.22,554.24c-0.28,0.06-0.59,0.08-0.92,0.05c-2.42-0.22-4.71-0.1-6.88,0.37c-1.07,0.23-2.19,0.58-3.39,1.05
		c-1.19,0.47-2.45,1.05-3.77,1.74c0.32,2.26,0.74,5.62,1.25,10.09c0.79-0.24,3.56-1.13,8.27-2.74c2.68-0.92,4.39-1.47,5.12-1.64
		c0.84-0.19,1.61-0.04,2.31,0.46c0.7,0.5,1.13,1.27,1.3,2.32c0.31,2.01-0.45,3.43-2.2,4.05c-1.1,0.38-2.86,0.89-5.08,1.66
		c-1.99,0.68-5.04,1.72-9.1,2.97c0.21,2.18,0.4,3.92,0.59,5.25c0.47,3.32,0.91,5.18,1.31,5.57c0.19,0.19,1.12,0.11,2.8-0.25
		c0.9-0.19,2.26-0.51,4.07-0.95c1.81-0.45,3.16-0.77,4.06-0.97c0.29-0.06,0.71-0.21,1.26-0.44c0.55-0.23,0.96-0.37,1.24-0.44
		c0.84-0.19,1.6-0.07,2.29,0.35c0.77,0.47,1.26,1.27,1.44,2.41c0.3,1.89-0.38,3.22-2.03,3.98c-1.41,0.65-4.41,1.5-9.02,2.49
		c-4.76,1.02-7.98,0.91-9.63-0.29c-1.82-1.32-3.11-4.73-3.86-10.21c-0.31-2.28-0.64-5.72-0.99-10.34c-0.35-4.61-0.68-8.05-1-10.31
		c-0.08-0.59-0.28-1.46-0.58-2.59c-0.3-1.13-0.5-2-0.58-2.59c-0.36-2.58,0.46-4.07,2.44-4.48c0.62-0.13,1.23-0.03,1.81,0.28
		c1.57-0.83,3.08-1.53,4.52-2.09c1.44-0.56,2.82-0.99,4.13-1.27c3.56-0.78,6.48-0.93,8.76-0.43c1.39,0.3,2.21,1.22,2.46,2.77
		c0.14,0.88,0,1.72-0.4,2.51C626.76,553.47,626.1,554.04,625.22,554.24z"/>
</g>
<path class="st0" d="M263.69,634.18h26.66c18.46,0,32.5,6.39,42.1,19.17c9.61,12.78,14.41,31.46,14.41,56.03
	c0,18.62-2.37,33.65-7.11,45.1c-4.74,11.45-11.37,19.73-19.87,24.84c-8.51,5.11-17.91,7.67-28.21,7.67h-27.98V634.18z
	 M292.23,666.68v87.68c8.67-0.92,14.79-4.64,18.37-11.16c3.58-6.52,5.37-17.27,5.37-32.22c0-8.85-0.63-16.35-1.88-22.49
	c-1.26-6.14-3.13-10.87-5.61-14.19c-2.48-3.32-4.9-5.36-7.25-6.12C298.87,667.41,295.87,666.91,292.23,666.68z"/>
<path class="st0" d="M367.11,634.18h28.54v152.81h-28.54V634.18z"/>
<path class="st0" d="M464.51,790.76c-15.2,0-26.78-7.08-34.76-21.23c-7.98-14.16-11.96-34.59-11.96-61.3
	c0-24.65,4-43.86,12.01-57.63c8.01-13.77,19.17-20.66,33.49-20.66c15.26,0,26.92,6.91,34.99,20.72c8.07,13.81,12.1,33.54,12.1,59.18
	s-3.97,45.54-11.92,59.69C490.52,783.69,479.2,790.76,464.51,790.76z M463.47,664.62c-10.3,0-15.45,14.69-15.45,44.07
	c0,18.93,1.3,31.56,3.91,37.89c2.6,6.33,6.39,9.5,11.35,9.5c5.34,0,9.43-3.17,12.29-9.5c2.86-6.33,4.29-18.73,4.29-37.2
	C479.86,679.54,474.4,664.62,463.47,664.62z"/>
<path class="st0" d="M531.57,784.13v-35.6c9.04,6.41,16.64,9.61,22.8,9.61c3.58,0,6.4-1.2,8.48-3.61c2.07-2.4,3.11-5.59,3.11-9.56
	c0-3.05-0.83-5.91-2.5-8.58c-1.66-2.67-4.54-5.91-8.62-9.73c-9.86-9.16-17-17.68-21.43-25.58c-4.43-7.9-6.64-16.69-6.64-26.39
	c0-13.2,3.42-23.96,10.27-32.28c6.84-8.32,15.7-12.48,26.56-12.48c8.04,0,16.01,2.1,23.93,6.3v34.23
	c-8.48-5.65-15.35-8.47-20.63-8.47c-3.52,0-6.3,1.05-8.34,3.15c-2.04,2.1-3.06,4.98-3.06,8.64c0,6.41,4.74,13.62,14.22,21.63
	c5.65,4.73,11.38,11.39,17.19,19.97c5.81,8.58,8.71,18.53,8.71,29.82c0,13.2-3.8,24.14-11.4,32.79
	c-7.6,8.66-17.24,12.99-28.92,12.99C547.33,790.99,539.42,788.7,531.57,784.13z"/>
<path class="st0" d="M206.08,827.58l13.04,27.96h-3.02l-4.4-9.2h-12.05l-4.36,9.2h-3.12l13.21-27.96H206.08z M205.72,833.53
	l-4.79,10.12h9.56L205.72,833.53z"/>
<path class="st0" d="M250.42,832.28l-2.17,2.05c-1.56-1.53-3.27-2.7-5.12-3.49c-1.86-0.79-3.67-1.19-5.43-1.19
	c-2.19,0-4.28,0.54-6.26,1.62c-1.98,1.08-3.52,2.54-4.61,4.38c-1.09,1.84-1.63,3.79-1.63,5.84c0,2.1,0.56,4.1,1.69,6
	c1.13,1.89,2.69,3.38,4.68,4.47c1.99,1.08,4.17,1.63,6.54,1.63c2.88,0,5.31-0.81,7.3-2.43c1.99-1.62,3.17-3.73,3.54-6.31h-8.91v-2.7
	h12.05c-0.03,4.32-1.31,7.75-3.85,10.29c-2.54,2.54-5.94,3.81-10.2,3.81c-5.17,0-9.26-1.76-12.28-5.28
	c-2.32-2.71-3.48-5.85-3.48-9.41c0-2.65,0.67-5.11,2-7.39c1.33-2.28,3.16-4.06,5.47-5.35c2.32-1.29,4.94-1.93,7.87-1.93
	c2.37,0,4.6,0.43,6.69,1.28C246.39,829.02,248.43,830.39,250.42,832.28z"/>
<path class="st0" d="M257.55,827.58h5.57c3.1,0,5.21,0.13,6.31,0.38c1.66,0.38,3.01,1.2,4.05,2.45c1.04,1.25,1.56,2.79,1.56,4.62
	c0,1.52-0.36,2.86-1.07,4.02c-0.72,1.15-1.74,2.03-3.07,2.62c-1.33,0.59-3.17,0.89-5.51,0.9l10.06,12.98h-3.46l-10.06-12.98h-1.58
	v12.98h-2.79V827.58z M260.34,830.32v9.5l4.82,0.04c1.87,0,3.25-0.18,4.14-0.53c0.89-0.35,1.59-0.92,2.09-1.7
	c0.5-0.78,0.75-1.65,0.75-2.61c0-0.94-0.25-1.79-0.76-2.56c-0.51-0.77-1.17-1.31-2-1.64c-0.83-0.33-2.2-0.49-4.11-0.49H260.34z"/>
<path class="st0" d="M292.45,827.58l13.04,27.96h-3.02l-4.4-9.2h-12.05l-4.36,9.2h-3.12l13.21-27.96H292.45z M292.1,833.53
	l-4.79,10.12h9.56L292.1,833.53z"/>
<path class="st0" d="M309.82,855.55v-27.96h5.8c4.18,0,7.22,0.34,9.1,1.01c2.71,0.95,4.83,2.6,6.36,4.94
	c1.53,2.34,2.29,5.14,2.29,8.38c0,2.8-0.61,5.27-1.82,7.39c-1.21,2.13-2.78,3.7-4.71,4.71c-1.93,1.01-4.64,1.52-8.13,1.52H309.82z
	 M312.5,852.9h3.23c3.86,0,6.54-0.24,8.04-0.72c2.1-0.68,3.76-1.91,4.96-3.69c1.2-1.78,1.81-3.95,1.81-6.52c0-2.7-0.65-5-1.96-6.91
	c-1.31-1.91-3.12-3.22-5.46-3.93c-1.75-0.53-4.63-0.8-8.65-0.8h-1.98V852.9z"/>
<path class="st0" d="M350.21,827.58l13.04,27.96h-3.02l-4.4-9.2h-12.05l-4.36,9.2h-3.12l13.21-27.96H350.21z M349.86,833.53
	l-4.79,10.12h9.56L349.86,833.53z"/>
<path class="st0" d="M367.66,827.58h5.51c2.22,0,3.92,0.26,5.11,0.79c1.19,0.53,2.13,1.33,2.82,2.42c0.69,1.09,1.04,2.3,1.04,3.63
	c0,1.24-0.3,2.37-0.91,3.39c-0.61,1.02-1.49,1.85-2.67,2.48c1.45,0.49,2.57,1.07,3.35,1.74c0.78,0.67,1.39,1.47,1.83,2.41
	c0.44,0.94,0.65,1.97,0.65,3.07c0,2.24-0.82,4.14-2.46,5.69c-1.64,1.55-3.84,2.33-6.61,2.33h-7.68V827.58z M370.4,830.32v8.95h1.6
	c1.94,0,3.37-0.18,4.29-0.54c0.91-0.36,1.64-0.93,2.17-1.71c0.53-0.78,0.8-1.64,0.8-2.59c0-1.28-0.45-2.28-1.34-3.01
	c-0.9-0.73-2.32-1.09-4.28-1.09H370.4z M370.4,842.09v10.72h3.47c2.04,0,3.54-0.2,4.49-0.6c0.95-0.4,1.72-1.02,2.29-1.87
	c0.58-0.85,0.87-1.77,0.87-2.76c0-1.24-0.41-2.33-1.22-3.25c-0.81-0.92-1.93-1.56-3.35-1.9c-0.95-0.23-2.61-0.34-4.97-0.34H370.4z"
	/>
<path class="st0" d="M389.94,827.58h2.79v25.26h10.76v2.7h-13.55V827.58z"/>
<path class="st0" d="M407.94,827.58h16.02v2.74h-13.23v8.76h13.12v2.74h-13.12v10.99h13.12v2.74h-15.91V827.58z"/>
<path class="st0" d="M460.73,845.2l1.89,2.01c-1.22,1.08-2.37,2.01-3.46,2.79c0.76,0.7,1.75,1.66,2.98,2.88
	c0.97,0.96,1.8,1.85,2.49,2.66h-3.9l-3.71-3.82c-2.33,1.88-4.22,3.1-5.68,3.67c-1.46,0.57-3,0.86-4.62,0.86
	c-2.15,0-3.88-0.62-5.19-1.85c-1.31-1.24-1.96-2.78-1.96-4.63c0-1.39,0.44-2.79,1.32-4.19c0.88-1.4,2.68-3.17,5.38-5.31
	c-1.53-1.85-2.52-3.21-2.95-4.09c-0.44-0.88-0.65-1.72-0.65-2.52c0-1.39,0.54-2.55,1.62-3.46c1.24-1.06,2.79-1.6,4.64-1.6
	c1.17,0,2.23,0.23,3.19,0.7c0.96,0.47,1.7,1.1,2.2,1.89c0.51,0.79,0.76,1.63,0.76,2.52c0,0.94-0.33,1.94-0.99,2.99
	c-0.66,1.06-1.96,2.41-3.9,4.06l4.24,4.45l2.78,2.82C458.7,846.92,459.87,845.99,460.73,845.2z M448.12,842.37
	c-2.38,1.79-3.93,3.21-4.67,4.27c-0.74,1.06-1.11,2.04-1.11,2.94c0,1.07,0.45,2.01,1.35,2.82c0.9,0.82,2.01,1.23,3.31,1.23
	c0.99,0,1.96-0.2,2.91-0.61c1.5-0.65,3.22-1.74,5.15-3.29l-4.41-4.54C449.91,844.38,449.06,843.44,448.12,842.37z M448.46,838.67
	c1.36-1.05,2.38-2.08,3.07-3.1c0.48-0.72,0.72-1.36,0.72-1.92c0-0.65-0.31-1.2-0.94-1.67c-0.63-0.47-1.46-0.7-2.51-0.7
	c-0.99,0-1.8,0.24-2.42,0.72c-0.62,0.48-0.93,1.05-0.93,1.71c0,0.51,0.13,0.98,0.38,1.43C446.45,836.21,447.33,837.39,448.46,838.67
	z"/>
<path class="st0" d="M479.79,827.58h5.57c3.19,0,5.35,0.14,6.46,0.42c1.6,0.39,2.9,1.2,3.92,2.42c1.01,1.22,1.52,2.76,1.52,4.61
	c0,1.86-0.49,3.4-1.48,4.61c-0.99,1.21-2.35,2.02-4.09,2.44c-1.27,0.3-3.64,0.46-7.11,0.46h-2v13h-2.79V827.58z M482.59,830.32v9.48
	l4.73,0.06c1.91,0,3.31-0.17,4.2-0.52c0.89-0.35,1.58-0.91,2.09-1.69c0.51-0.78,0.76-1.65,0.76-2.61c0-0.94-0.25-1.79-0.76-2.57
	c-0.51-0.78-1.18-1.33-2.01-1.66c-0.83-0.33-2.19-0.49-4.08-0.49H482.59z"/>
<path class="st0" d="M502.87,827.58h16.02v2.74h-13.23v8.76h13.12v2.74h-13.12v10.99h13.12v2.74h-15.91V827.58z"/>
<path class="st0" d="M523.87,827.58h5.57c3.1,0,5.21,0.13,6.31,0.38c1.66,0.38,3.01,1.2,4.05,2.45c1.04,1.25,1.56,2.79,1.56,4.62
	c0,1.52-0.36,2.86-1.07,4.02c-0.72,1.15-1.74,2.03-3.07,2.62c-1.33,0.59-3.17,0.89-5.51,0.9l10.06,12.98h-3.46l-10.06-12.98h-1.58
	v12.98h-2.79V827.58z M526.67,830.32v9.5l4.82,0.04c1.87,0,3.25-0.18,4.14-0.53c0.89-0.35,1.59-0.92,2.09-1.7
	c0.5-0.78,0.75-1.65,0.75-2.61c0-0.94-0.25-1.79-0.76-2.56c-0.51-0.77-1.17-1.31-2-1.64c-0.83-0.33-2.2-0.49-4.11-0.49H526.67z"/>
<path class="st0" d="M547.35,827.58h14.01v2.74h-11.21v8.76h11.21v2.74h-11.21v13.72h-2.79V827.58z"/>
<path class="st0" d="M566.24,827.58h16.02v2.74h-13.23v8.76h13.12v2.74h-13.12v10.99h13.12v2.74h-15.91V827.58z"/>
<path class="st0" d="M613.13,832.77l-2.2,1.69c-1.22-1.58-2.68-2.78-4.38-3.6c-1.7-0.82-3.58-1.23-5.62-1.23
	c-2.23,0-4.3,0.54-6.2,1.61c-1.9,1.07-3.37,2.51-4.42,4.31c-1.05,1.81-1.57,3.84-1.57,6.09c0,3.41,1.17,6.25,3.51,8.53
	c2.34,2.28,5.29,3.42,8.85,3.42c3.92,0,7.19-1.53,9.83-4.6l2.2,1.67c-1.39,1.77-3.13,3.15-5.22,4.12c-2.08,0.97-4.41,1.45-6.99,1.45
	c-4.89,0-8.75-1.63-11.58-4.89c-2.37-2.75-3.55-6.07-3.55-9.96c0-4.09,1.44-7.54,4.31-10.33s6.47-4.19,10.79-4.19
	c2.61,0,4.97,0.52,7.07,1.55C610.07,829.46,611.79,830.91,613.13,832.77z"/>
<path class="st0" d="M615.97,830.32v-2.74h15.32v2.74h-6.23v25.22h-2.85v-25.22H615.97z"/>
<path class="st0" d="M646.74,827.58l13.04,27.96h-3.02l-4.4-9.2h-12.05l-4.36,9.2h-3.12l13.21-27.96H646.74z M646.39,833.53
	l-4.79,10.12h9.56L646.39,833.53z"/>
<path class="st1" d="M348.55,920.66h4.69c1.89,0,3.39,0.49,4.49,1.46c1.1,0.97,1.65,2.3,1.65,3.97c0,0.86-0.21,1.69-0.62,2.49
	c-0.42,0.8-1.02,1.4-1.82,1.81l3.21,7.99h-4.25l-3.25-8.07h-0.07v8.07h-4.02V920.66z M352.57,924.08v4.21
	c1.78-0.04,2.67-0.66,2.67-1.87c0-0.82-0.21-1.41-0.62-1.77C354.21,924.3,353.52,924.11,352.57,924.08z"/>
<path class="st1" d="M368.18,938.81c-2.14,0-3.77-0.82-4.9-2.46s-1.69-4.01-1.69-7.11c0-2.86,0.56-5.09,1.69-6.68
	c1.13-1.6,2.7-2.39,4.72-2.39c2.15,0,3.79,0.8,4.93,2.4c1.14,1.6,1.71,3.89,1.71,6.86c0,2.97-0.56,5.28-1.68,6.92
	S370.25,938.81,368.18,938.81z M368.03,924.19c-1.45,0-2.18,1.7-2.18,5.11c0,2.19,0.18,3.66,0.55,4.39c0.37,0.73,0.9,1.1,1.6,1.1
	c0.75,0,1.33-0.37,1.73-1.1c0.4-0.73,0.6-2.17,0.6-4.31C370.34,925.92,369.57,924.19,368.03,924.19z"/>
<path class="st1" d="M378.91,920.66H384c0.73,3.82,1.3,7.11,1.71,9.86l0.44-2.75c0.18-1.07,0.37-2.11,0.57-3.13l0.78-3.98h5.19
	l2.02,17.72h-3.98l-1.07-12.18l-2.48,12.18h-2.72l-2.6-12.21l-1.04,12.21H377L378.91,920.66z"/>
<path class="st1" d="M410.28,938.38h-4.18l-0.68-2.96h-4.25l-0.7,2.96h-4.1l4.7-17.72h4.51L410.28,938.38z M404.65,932.23
	c-0.6-2.64-1.05-5.15-1.35-7.53h-0.05c-0.32,2.45-0.77,4.96-1.34,7.53H404.65z"/>
<path class="st1" d="M412.31,920.66h4.06l5.11,10.22l-0.15-1.91v-8.31h4.02v17.72h-4.13l-5-10.06l0.11,2.2v7.86h-4.02V920.66z"/>
<path class="st1" d="M434.94,938.81c-2.14,0-3.77-0.82-4.9-2.46s-1.69-4.01-1.69-7.11c0-2.86,0.56-5.09,1.69-6.68
	c1.13-1.6,2.7-2.39,4.72-2.39c2.15,0,3.79,0.8,4.93,2.4c1.14,1.6,1.71,3.89,1.71,6.86c0,2.97-0.56,5.28-1.68,6.92
	S437.01,938.81,434.94,938.81z M434.79,924.19c-1.45,0-2.18,1.7-2.18,5.11c0,2.19,0.18,3.66,0.55,4.39c0.37,0.73,0.9,1.1,1.6,1.1
	c0.75,0,1.33-0.37,1.73-1.1c0.4-0.73,0.6-2.17,0.6-4.31C437.1,925.92,436.33,924.19,434.79,924.19z"/>
<path class="st1" d="M444.39,938.04v-4.13c1.27,0.74,2.34,1.11,3.21,1.11c0.5,0,0.9-0.14,1.19-0.42c0.29-0.28,0.44-0.65,0.44-1.11
	c0-0.35-0.12-0.69-0.35-0.99c-0.23-0.31-0.64-0.69-1.21-1.13c-1.39-1.06-2.4-2.05-3.02-2.97c-0.62-0.92-0.94-1.94-0.94-3.06
	c0-1.53,0.48-2.78,1.45-3.74c0.96-0.96,2.21-1.45,3.74-1.45c1.13,0,2.26,0.24,3.37,0.73v3.97c-1.19-0.66-2.16-0.98-2.91-0.98
	c-0.5,0-0.89,0.12-1.17,0.37c-0.29,0.24-0.43,0.58-0.43,1c0,0.74,0.67,1.58,2,2.51c0.8,0.55,1.6,1.32,2.42,2.32
	c0.82,1,1.23,2.15,1.23,3.46c0,1.53-0.54,2.8-1.61,3.8c-1.07,1-2.43,1.51-4.07,1.51C446.61,938.84,445.49,938.57,444.39,938.04z"/>
<path class="st1" d="M463.91,920.66H470v17.72h-3.84v-14h-2.26V920.66z"/>
<path class="st1" d="M479.93,927.23h-3.89c0-1.33,0.06-2.37,0.17-3.12c0.11-0.75,0.34-1.42,0.69-2c0.35-0.58,0.88-1.04,1.61-1.39
	c0.72-0.35,1.58-0.52,2.57-0.52c1.64,0,2.89,0.43,3.77,1.29c0.88,0.86,1.31,2.1,1.31,3.72c0,0.83-0.17,1.73-0.5,2.69
	c-0.34,0.96-0.84,2.02-1.51,3.17l-2.18,3.72h3.57v3.61h-10.11l5.79-9.89c0.71-1.19,1.06-2.26,1.06-3.24c0-0.49-0.11-0.88-0.32-1.19
	c-0.21-0.31-0.48-0.46-0.8-0.46c-0.5,0-0.83,0.2-0.99,0.6c-0.15,0.4-0.23,1.2-0.23,2.38V927.23z"/>
<path class="st1" d="M489.21,929.74c0-0.6,0.21-1.11,0.64-1.53c0.43-0.42,0.96-0.62,1.59-0.62c0.59,0,1.11,0.22,1.54,0.66
	c0.43,0.44,0.65,0.95,0.65,1.55c0,0.59-0.21,1.1-0.64,1.53c-0.43,0.43-0.94,0.64-1.55,0.64c-0.62,0-1.15-0.22-1.58-0.66
	C489.43,930.87,489.21,930.34,489.21,929.74z M489.21,936.58c0-0.59,0.21-1.1,0.64-1.53c0.42-0.43,0.93-0.64,1.53-0.64
	c0.63,0,1.16,0.21,1.59,0.64c0.43,0.42,0.64,0.95,0.64,1.57c0,0.59-0.22,1.1-0.66,1.53c-0.44,0.43-0.96,0.64-1.57,0.64
	c-0.59,0-1.1-0.22-1.53-0.65C489.42,937.7,489.21,937.18,489.21,936.58z"/>
<path class="st1" d="M500.62,927.23h-3.89c0-1.33,0.06-2.37,0.17-3.12c0.11-0.75,0.34-1.42,0.69-2c0.35-0.58,0.88-1.04,1.61-1.39
	c0.72-0.35,1.58-0.52,2.57-0.52c1.64,0,2.89,0.43,3.77,1.29c0.88,0.86,1.31,2.1,1.31,3.72c0,0.83-0.17,1.73-0.5,2.69
	c-0.34,0.96-0.84,2.02-1.51,3.17l-2.18,3.72h3.57v3.61h-10.11l5.79-9.89c0.71-1.19,1.06-2.26,1.06-3.24c0-0.49-0.11-0.88-0.32-1.19
	c-0.21-0.31-0.48-0.46-0.8-0.46c-0.5,0-0.83,0.2-0.99,0.6c-0.15,0.4-0.23,1.2-0.23,2.38V927.23z"/>
</svg>
