<?xml version="1.0" encoding="utf-8"?>
<!-- Generator: Adobe Illustrator 25.3.0, SVG Export Plug-In . SVG Version: 6.00 Build 0)  -->
<svg version="1.1" id="Layer_1" xmlns="http://www.w3.org/2000/svg" xmlns:xlink="http://www.w3.org/1999/xlink" x="0px" y="0px"
	 viewBox="0 0 841.89 1190.55" style="enable-background:new 0 0 841.89 1190.55;" xml:space="preserve">
<style type="text/css">
	.st0{fill:#E41D1D;}
	.st1{fill:#FFFFFF;}
</style>
<g>
	<rect x="42.73" y="331.65" class="st0" width="744.77" height="477.66"/>
	<g>
		<path class="st1" d="M313.28,452.25l-0.19,0.06c-0.63,0.19-1.32,0.31-2.01,0.31c-4.15,0-9.05-3.33-13.07-5.4
			c4.08-8.48,6.6-19.73,10.31-28.9c0.19-0.44,0.31-0.82,0.31-1.19c0-2.32-3.77-2.95-6.22-2.95l-1.13,0.06
			c-2.32,0.19-4.96,2.2-7.29,4.9c-2.7,3.08-4.96,7.1-5.72,9.93c-0.13,0.5-0.19,1.07-0.19,1.57c0,0.88,0.25,1.7,1.07,2.2
			c0.5,0.25,1.07,0.38,1.63,0.38c1.01,0,2.01-0.31,2.83-0.57c0.31-0.13,0.44-0.38,0.44-0.57c0-0.31-0.19-0.57-0.5-0.63
			c-0.13-0.06-0.19-0.25-0.19-0.57l0.06-0.82c0.57-2.39,6.47-13.45,9.24-13.45l0.31,0.06c-3.77,9.36-5.91,19.73-9.55,28.65
			c-0.75-0.25-1.51-0.38-2.2-0.38c-0.88,0-1.76,0.25-2.7,0.75c-1.63,1.01-2.64,2.7-2.64,4.34c0,1.82,1.32,3.52,4.34,3.52l0.82-0.06
			c1.76-0.13,3.27-1.01,4.65-2.58c4.02,2.39,8.42,6.16,12.82,6.16h0.5c1.89-0.06,3.33-1.82,4.78-3.83l0.13-0.31
			C313.91,452.57,313.6,452.25,313.28,452.25z M289.4,450.37h-0.06c-0.69-0.06-0.88-0.31-0.88-0.69c0-0.31,0.19-0.63,0.44-0.75
			c0.31-0.19,0.69-0.25,1.07-0.25c0.5,0,1.07,0.13,1.51,0.25C290.97,449.55,290.28,450.37,289.4,450.37z"/>
		<path class="st1" d="M322.14,428.38c-0.69,0-1.32,0.19-1.57,0.63l-0.44,1.13c-0.75-1.19-2.14-1.7-3.71-1.76h-0.06
			c-6.22,0-10.74,8.92-10.74,15.14c0,3.27,1.26,5.78,4.27,5.84h0.06c2.51,0,4.46-2.45,5.97-4.96c-0.06,0.75-0.13,1.38-0.13,2.01
			c0,1.07,0.13,2.01,0.5,2.64c0.75,1.38,2.51,1.51,4.21,1.51c0.19,0,0.38-0.25,0.38-0.5v-0.25c0-0.25-0.06-0.5-0.19-0.63
			c-0.19-0.13-0.19-0.5-0.19-1.01c0-0.82,0.13-1.95,0.19-2.33c0.88-5.15,4.08-13.57,4.78-15.33l0.06-0.31
			C325.54,429.26,323.59,428.38,322.14,428.38z M317.49,437.55c-0.63,1.63-4.02,8.17-5.97,8.23c-0.63,0-0.88-0.63-0.88-1.63
			c0-3.71,3.58-12.32,6.41-12.32l0.38,0.06c0.69,0.25,0.94,0.94,0.94,1.82C318.37,435.04,317.81,436.8,317.49,437.55z"/>
		<path class="st1" d="M375.3,420.46c0-3.2-1.19-5.53-4.15-5.78c-0.38,0-0.69,0.31-0.69,0.69c0,0.13,0.06,0.25,0.19,0.38
			c0.57,0.44,0.75,1.26,0.75,2.39c0,2.01-0.69,4.9-1.76,8.23c-4.71,15.14-11,24.69-12.06,24.69c-0.31,0-0.44-0.75-0.44-2.14
			c0-5.4,2.32-20.11,3.46-27.15c0.13-0.63,0.19-1.38,0.19-2.07c0-2.76-1.13-5.53-6.1-5.53l-1.51,0.06
			c-5.4,0.44-11.75,10.12-13.01,14.83c-0.13,0.5-0.19,1.07-0.19,1.57c0,0.88,0.25,1.7,1.07,2.2c0.5,0.25,1.07,0.38,1.63,0.38
			c1.01,0,2.01-0.31,2.83-0.57c0.31-0.13,0.44-0.38,0.44-0.57c0-0.31-0.19-0.57-0.5-0.63c-0.13,0-0.19-0.19-0.19-0.44
			c0-2.26,5.4-12.44,8.36-14.14c0.25-0.19,0.57-0.25,0.82-0.25c0.31,0,0.57,0.13,0.57,0.5v0.13c-1.26,7.41-4.21,20.74-4.21,29.41
			c0,1.38,0.06,2.64,0.25,3.71c0.38,2.58,3.77,3.2,5.72,3.2l0.82-0.06c3.39-0.38,12.63-14.08,16.21-25.26
			C374.74,425.42,375.3,422.72,375.3,420.46z"/>
		<path class="st1" d="M381.96,425.93c0.5,0,0.94-0.13,1.07-0.44c0.44-0.94,1.32-3.2,1.63-3.77c0.13-0.13,0.13-0.31,0.13-0.44
			c0-0.94-1.88-1.95-3.33-1.95c-0.69,0-1.26,0.19-1.45,0.75c-0.38,0.82-1.13,3.27-1.13,4.27
			C378.89,425.17,380.71,425.93,381.96,425.93z"/>
		<path class="st1" d="M421.99,428.38c-0.69,0-1.32,0.19-1.57,0.63l-0.44,1.13c-0.75-1.19-2.14-1.7-3.71-1.76h-0.06
			c-4.5,0-8.11,4.67-9.77,9.62c-1.53,3.3-4.11,8.36-6.07,10.37c-0.13,0.13-0.88,0.82-1.38,0.82c-0.06,0-0.13-0.19-0.13-0.5
			l0.06-1.38c0.69-6.47,7.6-23.82,8.29-25.89v-0.19c0-0.88-2.2-1.76-3.9-1.76c-0.82,0-1.45,0.19-1.7,0.69
			c-0.63,1.51-2.14,5.28-3.64,9.68c-0.75-1.07-2.07-1.51-3.58-1.51h-0.06c-4.64,0-8.33,4.93-9.91,10.01
			c-1.93,4.19-5.3,10.79-7.18,10.85c-0.38,0-0.5-0.38-0.5-1.07c0-3.83,4.4-16.34,4.9-17.72l0.06-0.25c0-0.94-1.95-1.88-3.46-1.88
			c-0.69,0-1.32,0.25-1.57,0.75c-0.94,2.33-3.02,7.92-4.02,12.63c-0.31,1.63-0.57,3.2-0.57,4.52c0,1.13,0.19,2.14,0.57,2.76
			c0.69,1.32,2.33,1.51,3.9,1.51h0.82c1.93-0.08,4.28-3.79,6.23-7.57c-0.01,0.18-0.01,0.36-0.01,0.53c0,3.27,1.26,5.78,4.27,5.84
			h0.06c2.64,0,4.84-2.76,6.41-5.47c-0.13,0.88-0.19,1.76-0.19,2.51c0,1.07,0.13,1.95,0.44,2.64c0.63,1.32,2.07,1.51,3.58,1.51h0.88
			c0.69,0,1.45-0.5,2.14-1.19c1.46-1.46,2.97-3.96,4.3-6.49c-0.01,0.26-0.02,0.52-0.02,0.77c0,3.27,1.26,5.78,4.27,5.84h0.06
			c2.51,0,4.46-2.45,5.97-4.96c-0.06,0.75-0.13,1.38-0.13,2.01c0,1.07,0.13,2.01,0.5,2.64c0.75,1.38,2.51,1.51,4.21,1.51
			c0.19,0,0.38-0.25,0.38-0.5v-0.25c0-0.25-0.06-0.5-0.19-0.63c-0.19-0.13-0.19-0.5-0.19-1.01c0-0.82,0.13-1.95,0.19-2.33
			c0.88-5.15,4.08-13.57,4.78-15.33l0.06-0.31C425.39,429.26,423.44,428.38,421.99,428.38z M395.6,437.55
			c-0.63,1.63-4.15,8.11-6.1,8.17c-0.69,0-0.94-0.69-0.94-1.7c0-3.71,3.58-12.25,6.53-12.25h0.06c0.94,0,1.26,0.82,1.26,1.89
			C396.42,435.1,395.85,436.92,395.6,437.55z M417.34,437.55c-0.63,1.63-4.02,8.17-5.97,8.23c-0.63,0-0.88-0.63-0.88-1.63
			c0-3.71,3.58-12.32,6.41-12.32l0.38,0.06c0.69,0.25,0.94,0.94,0.94,1.82C418.22,435.04,417.66,436.8,417.34,437.55z"/>
		<path class="st1" d="M509.09,428.31h-0.19c-4.65,0-7.98,4.84-9.55,8.92c-0.09,0.25-0.18,0.5-0.26,0.75
			c-1.04,1.54-2.72,2.19-4.45,2.52c0.5-1.76,0.82-3.71,0.82-5.47v-0.57c-0.19-2.95-1.19-6.22-4.4-6.22h-0.19
			c-1.57,0-2.89,1.01-3.96,2.32c1.51-4.27,2.89-7.85,3.33-8.99l0.06-0.25c0-1.01-2.14-1.89-3.71-1.89c-0.75,0-1.38,0.19-1.57,0.69
			c-1.08,2.28-4,10.47-6.12,17.56c-1.92,4.11-5.6,11.41-7.58,11.47c-0.31,0-0.38-0.57-0.38-1.45c0.13-4.52,4.21-15.33,5.03-17.34
			l0.06-0.25c0-1.01-1.95-1.88-3.39-1.88c-0.75,0-1.32,0.19-1.63,0.69l-0.44,1.13c-0.75-1.19-2.07-1.76-3.71-1.76h-0.06
			c-4.56,0-8.21,4.77-9.83,9.76c-1.08,2.2-2.12,4.01-3.05,5.44c-1.01,1.51-2.32,3.27-3.14,4.08c0.57-0.88,0.94-2.01,1.19-3.39
			c0.13-0.69,0.19-1.38,0.19-2.01c0-2.64-0.82-5.22-0.82-7.85c0-1.7,0.38-3.39,1.51-5.09c0.06-0.13,0.13-0.25,0.13-0.38
			c0-0.31-0.25-0.63-0.63-0.63l-4.15,0.06c-0.5,0-1.45,1.26-1.76,2.58c-0.31,1.13-0.38,2.26-0.38,3.46c0,3.14,0.75,6.41,0.75,9.24
			c0,1.63-0.25,3.08-1.13,4.27c-0.31,0.44-0.75,0.75-1.13,0.75c-0.13,0-0.25-0.06-0.38-0.13c-0.25-0.19-0.38-0.5-0.38-1.01
			c0-1.32,0.88-3.58,1.88-4.4c0.13-0.13,0.19-0.25,0.19-0.44c0-0.82-1.82-2.14-3.27-2.14c-0.5,0-1.01,0.19-1.32,0.63
			c-0.94,1.26-1.45,2.77-1.45,4.21c0,2.7,1.76,5.15,5.53,5.15h0.57c1.82,0,4.02-0.13,5.97-2.26c1.01-1.13,2.01-2.45,2.89-3.83
			c0.45-0.68,0.88-1.39,1.3-2.11c-0.03,0.38-0.05,0.75-0.05,1.11c0,3.27,1.26,5.78,4.27,5.84h0.13c2.45,0,4.46-2.45,5.91-4.96
			c-0.06,0.75-0.13,1.38-0.13,2.01c0,1.07,0.13,2.01,0.5,2.64c0.69,1.32,2.32,1.51,3.9,1.51h0.75c1.8-0.08,3.95-3.17,5.83-6.58
			c-0.42,1.78-0.67,3.25-0.67,4.19l0.06,0.75c0.31,1.45,1.95,1.7,3.46,1.7h0.63c0.38,0,0.63-0.31,0.63-0.63
			c0.06-2.58,1.57-7.35,2.45-9.8c0.57-1.89,3.71-8.11,5.59-8.23h0.13c0.44,0,0.57,0.38,0.69,1.01l0.13,1.45
			c0,2.14-0.63,4.9-1.26,6.66c-1.63,0.19-3.2,0.5-4.34,1.57c-1.07,1.13-1.51,2.39-1.51,3.52c0,1.95,1.32,3.52,3.33,3.52
			c0.38,0,0.75-0.06,1.13-0.13c2.95-0.82,5.22-4.02,6.53-7.6c1.54-0.18,3.01-0.56,4.25-1.43c-0.19,0.96-0.29,1.91-0.29,2.81
			c0,3.96,1.95,7.16,7.29,7.35h0.38c2.95,0,5.22-1.32,7.04-3.77c0.13-0.06,0.19-0.25,0.19-0.44l-0.13-0.38
			c-0.13-0.13-0.25-0.19-0.44-0.19c-0.19,0-0.38,0.06-0.57,0.25c-1.32,1.32-3.08,3.14-5.15,3.14l-0.69-0.06
			c-2.01-0.44-2.76-2.89-2.76-5.22c0-0.88,0.06-1.7,0.25-2.45c0.5,0.44,1.13,0.63,1.76,0.63c3.39,0,7.98-5.47,8.11-9.93v-0.13
			C513.42,429.63,511.47,428.38,509.09,428.31z M467.93,437.49c-0.63,1.57-4.02,8.17-5.91,8.23c-0.63,0-0.94-0.63-0.94-1.7
			c0-3.71,3.58-12.25,6.41-12.25l0.38,0.06c0.69,0.19,0.94,0.88,0.94,1.76C468.81,434.97,468.24,436.67,467.93,437.49z
			 M486.65,445.34c-0.63,0.82-1.13,1.13-1.51,1.13c-0.38,0-0.57-0.38-0.57-0.82c0-0.63,0.31-1.45,0.94-2.07
			c0.63-0.69,1.89-1.07,3.02-1.26C487.91,443.71,487.28,444.65,486.65,445.34z M505,439.81c-0.38,0-0.63-0.06-0.94-0.25
			c0.5-1.45,1.32-3.08,2.26-4.52c0.63-0.88,2.7-3.58,4.15-3.58c0.19,0,0.31,0.06,0.5,0.13c0.19,0.13,0.25,0.38,0.25,0.69
			C511.22,434.28,507.7,439.81,505,439.81z"/>
		<path class="st1" d="M586.5,425.93c0.5,0,0.94-0.13,1.07-0.44c0.44-0.94,1.38-3.2,1.7-3.71c0.13-0.13,0.13-0.31,0.13-0.44
			c0-0.94-1.88-1.95-3.33-1.95c-0.63,0-1.26,0.19-1.45,0.75c-0.38,0.82-1.13,3.2-1.13,4.21
			C583.49,425.17,585.25,425.93,586.5,425.93z"/>
		<path class="st1" d="M625.08,436.73c-0.19,0-0.38,0.06-0.5,0.31c-2.39,5.34-3.96,8.48-5.15,10.24c-0.31,0.5-1.51,1.95-2.33,1.95
			c-0.69,0-0.69-0.63-0.82-1.82c0-5.03,4.21-13.51,4.21-15.9c-0.25-2.2-1.7-3.2-3.71-3.27c-1.26,0-2.64,0.5-4.21,0.57l0.94-2.76
			v-0.19c0-0.5-0.75-0.75-1.51-0.75c-0.69,0-1.32,0.19-1.51,0.63c-0.31,0.88-0.63,1.82-0.63,2.7c0,0.69,0.19,1.32,0.75,1.76
			c-1.07,3.02-3.96,9.99-7.79,9.99h-0.06c0.44-1.63,0.82-3.64,0.82-5.47c0-2.89-0.88-5.53-3.9-6.35c-0.5-0.13-1.07-0.19-1.57-0.19
			c-4.31,0-7.79,4.65-9.33,9.68c-1.67,3.66-3.09,6.62-4.62,8.86c-1.26,1.89-2.64,3.27-4.4,4.21c2.51-6.79,4.27-13.82,6.66-20.61
			l0.06-0.25c0-1.01-1.95-1.82-3.52-1.82c-0.82,0-1.51,0.25-1.7,0.82c-0.96,2.75-1.73,5.4-2.43,8.02c-0.01,0.01-0.01,0.02-0.02,0.03
			c-3.96,8.23-7.1,10.93-9.3,11.75c-0.5,0.13-1.01,0.19-1.38,0.19l-0.69-0.06c-2.07-0.44-2.76-2.89-2.76-5.28
			c0-0.82,0.13-1.63,0.25-2.39c0.5,0.44,1.13,0.63,1.76,0.63c3.39,0,7.98-5.47,8.11-9.93v-0.13c0-2.39-1.95-3.58-4.34-3.64h-0.25
			c-4.59,0-7.92,4.84-9.43,8.86c-0.15,0.39-0.28,0.79-0.4,1.19c-1.9,4.27-3.15,7.01-4.19,8.68c-0.94,1.63-1.57,2.14-2.39,2.2
			c-0.31,0-0.38-0.38-0.38-1.13c0-3.64,3.02-12.06,3.9-16.4l0.06-0.75c0-1.7-1.32-2.64-2.89-2.64c-0.75,0-1.57,0.19-2.32,0.69
			c-1.76,1.19-3.52,3.33-4.84,4.96c-1.26,1.63-2.39,3.33-3.39,4.84c0.75-2.64,1.63-5.78,1.88-7.1l0.06-0.75
			c0-1.7-1.32-2.64-2.89-2.64c-0.75,0-1.57,0.19-2.33,0.69c-1.76,1.19-3.58,3.33-4.84,4.96c-1.13,1.51-2.2,3.02-3.14,4.46
			c0.88-2.7,1.7-5.34,2.76-7.98l0.06-0.25c0-1.01-2.07-1.88-3.58-1.88c-0.82,0-1.38,0.25-1.57,0.75
			c-1.07,2.76-5.28,15.83-5.28,19.61v0.06c0.06,1.45,2.07,1.76,3.58,1.76h0.44c0.38,0,0.69-0.19,0.69-0.63
			c0.06-1.45,0.63-3.9,1.45-6.66c0.88-1.57,3.08-5.28,5.53-8.48c0.19-0.19,1.88-2.39,2.95-3.27c0.31-0.25,0.57-0.38,0.69-0.38
			c0.13,0,0.19,0.06,0.19,0.25l-0.06,0.44c-0.69,2.39-3.52,10.43-3.96,14.7l-0.06,0.88c0,2.07,1.01,3.14,3.39,3.14h0.69
			c0.38,0,0.69-0.13,0.69-0.69v-0.13c0-1.01,0.69-3.52,1.45-6.47c0.88-1.57,3.08-5.22,5.59-8.48c0.88-1.19,1.88-2.32,2.83-3.2
			c0.19-0.19,0.44-0.44,0.63-0.44c0.19,0,0.25,0.13,0.25,0.44c-0.06,0.69-3.58,10.62-3.77,14.83v0.57c0,3.08,1.63,3.64,3.83,3.64
			l1.76-0.06c1.19-0.06,2.14-0.75,3.39-2.76c0.65-1.08,1.39-2.56,2.33-4.58c0,0.02,0,0.04,0,0.05c0,3.96,1.95,7.1,7.29,7.29h0.69
			c0.63,0,1.38-0.06,2.2-0.31c1.99-0.7,4.58-2.63,7.66-7.77c-0.79,2.93-1.64,5.86-2.75,8.9c-4.78,0.13-8.11,1.38-9.3,4.46
			c-0.31,0.75-0.44,1.51-0.44,2.2c0,2.26,1.45,4.15,4.15,4.27h0.44c5.28,0,7.92-5.28,9.61-9.61c2.51-1.01,4.4-2.7,6.1-5.15
			c0.93-1.35,1.81-2.95,2.71-4.8c-0.01,0.2-0.01,0.39-0.01,0.59c0,4.02,1.63,7.23,5.59,7.23c4.34,0,7.41-5.09,8.86-9.05h0.5
			c4.65,0,7.29-6.72,8.86-10.62l0.88,0.13c1.01,0,2.2-0.31,3.14-0.44c-1.13,3.33-4.27,11.18-4.27,15.9c0,1.07,0.13,1.95,0.5,2.58
			c0.69,1.38,2.89,1.45,4.4,1.45h0.75c2.14,0,3.64-1.82,8.55-12.76c0.06-0.13,0.06-0.25,0.06-0.25
			C625.78,436.98,625.4,436.73,625.08,436.73z M567.78,434.91c0.63-0.88,2.64-3.52,4.08-3.52c0.19,0,0.31,0,0.5,0.13
			c0.19,0.13,0.31,0.31,0.31,0.69c0,2.01-3.58,7.54-6.28,7.54c-0.31,0-0.63-0.06-0.88-0.25
			C566.02,437.99,566.84,436.36,567.78,434.91z M568.15,459.42c-1.13,0-1.82-0.63-1.82-1.76v-0.38c0.38-2.77,2.64-4.59,7.85-4.71
			C572.74,456.09,570.54,459.42,568.15,459.42z M598.19,437.42c0,1.07,0.38,2.2,1.38,2.95c-0.63,1.95-3.08,8.11-5.53,8.11
			c-1.07-0.06-1.51-0.94-1.51-2.83c0-5.09,3.39-13.32,6.6-13.57c0.88,0,1.19,0.63,1.38,1.38
			C599.32,433.84,598.19,435.6,598.19,437.42z"/>
		<path class="st1" d="M694.02,431.02c0-1.7-1.38-2.7-2.95-2.7c-0.75,0-1.57,0.25-2.33,0.75c-1.7,1.19-3.52,3.27-4.84,4.96
			c-1.07,1.45-2.14,2.95-3.08,4.4c0.19-0.57,2.2-6.72,2.7-7.92l0.06-0.31c0-0.94-2.07-1.82-3.58-1.82c-0.75,0-1.32,0.19-1.51,0.69
			c-0.64,1.7-1.69,4.88-2.67,8.24c-1.12,1.9-3.26,2.88-5.24,2.88c0.44-1.45,0.82-3.39,0.82-5.22c0-2.95-0.88-5.78-3.9-6.53
			c-0.57-0.13-1.07-0.19-1.57-0.19c-4.35,0-7.86,4.7-9.37,9.77c-3.75,7.51-6.74,10.06-8.91,10.84c-0.5,0.13-0.94,0.19-1.38,0.19
			c-0.31,0-0.63-0.06-0.94-0.13c-1.82-0.63-2.45-2.83-2.45-5.03c0-1.26,0.19-2.51,0.5-3.46c1.26-4.71,4.84-9.11,6.6-9.11h0.19
			c0.25,0.06,0.38,0.25,0.38,0.57c0,1.01-1.26,3.14-1.51,3.58c-0.06,0.06-0.06,0.19-0.06,0.25c0,0.25,0.06,0.44,0.25,0.57
			c0.38,0.25,0.82,0.38,1.19,0.38c0.63,0,1.19-0.31,1.7-0.88c0.69-0.82,1.13-2.07,1.13-3.27c0-1.82-0.94-3.64-3.46-4.15
			c-0.44-0.06-0.94-0.13-1.38-0.13c-4.59,0-7.92,4.78-9.49,8.86c-0.75,2.01-1.19,4.08-1.19,6.03c0,3.96,1.95,7.1,7.29,7.29h0.69
			c0.63,0,1.38-0.06,2.26-0.38c2.04-0.71,4.7-2.71,7.84-8.1c-0.03,0.42-0.05,0.84-0.05,1.25c0,4.02,1.63,7.23,5.59,7.23
			c4.34,0,7.41-5.03,8.8-8.99h0.5c1.55,0,3.14-0.53,4.43-1.49c-0.1,0.35-0.19,0.7-0.28,1.05c-0.94,3.33-1.57,6.41-1.57,7.73
			c0,1.45,2.07,1.82,3.64,1.82h0.38c0.38-0.06,0.69-0.19,0.69-0.63c0.06-1.45,0.63-3.96,1.45-6.79c0.88-1.57,3.08-5.22,5.53-8.36
			c0.69-0.88,2.26-2.76,2.83-3.27c0.19-0.19,0.44-0.38,0.63-0.38c0.13,0,0.25,0.13,0.25,0.44c0,0.69-3.52,10.62-3.77,14.83v0.44
			c0,3.33,1.76,3.71,4.21,3.71h1.19c0.25,0,0.44-0.31,0.44-0.63c0-0.25-0.13-0.57-0.38-0.63c-0.19-0.13-0.25-0.57-0.25-1.19
			c0-3.64,3.02-12,3.9-16.34L694.02,431.02z M665.99,437.49c0,1.07,0.38,2.2,1.38,2.95c-0.69,1.95-3.14,8.04-5.59,8.04h-0.19
			c-0.94-0.13-1.32-1.26-1.32-2.83c0-4.52,3.33-13.07,6.35-13.57h0.31c0.82,0,1.19,0.63,1.38,1.45
			C667.12,433.84,665.99,435.67,665.99,437.49z"/>
	</g>
	<g>
		<path class="st1" d="M256.74,401.2c-1.85,1.39-5.71,3.09-11.57,5.09c-5.09,1.7-9.49,4.4-13.19,8.1
			c-4.78,4.78-12.92,20.17-24.42,46.17c-11.5,26-20.71,45.94-27.66,59.83c14.04,1.24,21.06,7.87,21.06,19.9
			c0,9.41-5.02,17.51-15.04,24.3c-8.95,6.02-18.36,9.03-28.24,9.03c-2.78,0-4.17-1.08-4.17-3.24c0-1.39,2.39-2.55,7.17-3.47
			c22.53-4.47,33.79-13.34,33.79-26.62c0-9.56-6.02-14.35-18.05-14.35c-10.96,20.68-24.38,37.88-40.27,51.61
			c-23.45,20.37-42.97,30.55-58.55,30.55c-14.66,0-21.99-7.25-21.99-21.76c0-17.13,12.03-32.4,36.1-45.82
			c18.82-10.65,38.42-17.36,58.79-20.14c15.58-30.09,27.23-51.3,34.95-63.65c16.66-26.38,32.55-43.43,47.68-51.15
			c-16.82,1.85-32.9,7.1-48.25,15.74c-15.35,8.64-28.04,19.6-38.07,32.86c-8.33,11.11-12.5,20.22-12.5,27.31
			c0,7.72,3.85,11.57,11.57,11.57c1.08,0,2.74-0.35,4.98-1.04c2.23-0.69,3.89-1.04,4.98-1.04c1.7,0,2.55,0.93,2.55,2.78
			c0,3.24-4.17,4.86-12.5,4.86c-7.25,0-13.04-2.47-17.36-7.41c-4.32-4.94-6.48-11.11-6.48-18.52c0-18.2,11.96-34.48,35.87-48.83
			c28.39-16.97,59.56-25.46,93.5-25.46C254.66,398.43,256.43,399.35,256.74,401.2z M147.73,526.87
			c-14.04,1.54-27.77,6.64-41.2,15.28c-12.81,8.18-23.53,18.28-32.17,30.32c-5.55,7.72-8.33,13.81-8.33,18.28
			c0,7.25,3.78,10.88,11.34,10.88c11.11,0,24.53-9.95,40.27-29.86C124.74,562.67,134.77,547.7,147.73,526.87z"/>
		<path class="st1" d="M274.09,506.51c0,10.8-5.63,20.21-16.9,28.24c-8.95,6.48-19.6,11.03-31.94,13.65
			c-2.31,5.87-3.47,10.41-3.47,13.65c0,3.7,1.39,5.55,4.17,5.55c6.48,0,13.04-2.78,19.67-8.33c2.93-2.47,7.87-7.64,14.81-15.51
			c4.94-5.55,8.33-8.33,10.18-8.33c0.61,0,0.93,0.39,0.93,1.16c0,1.7-4.71,8.41-14.12,20.14c-13.12,16.36-26.54,24.53-40.27,24.53
			c-12.96,0-19.44-6.17-19.44-18.51c0-14.96,6.56-30.55,19.67-46.75c13.89-17.13,28.08-25.69,42.58-25.69
			C269.39,490.31,274.09,495.71,274.09,506.51z M264.37,504.42c0-2.31-0.39-4.17-1.16-5.55c-0.62-0.31-1.31-0.46-2.08-0.46
			c-5.09,0-11.65,6.25-19.67,18.75c-6.02,9.26-10.8,18.05-14.35,26.38c8.64-2.16,16.82-7.02,24.53-14.58
			C260.13,520.78,264.37,512.6,264.37,504.42z"/>
		<path class="st1" d="M334.96,537.52c0,10.96-4.78,21.18-14.35,30.67c-9.57,9.49-19.83,14.23-30.78,14.23
			c-6.64,0-12.5-1.62-17.59-4.86c-5.86-3.7-8.79-8.64-8.79-14.81c0-3.7,1.2-6.79,3.59-9.26c2.39-2.47,5.44-3.7,9.14-3.7
			c6.94,0,10.41,3.63,10.41,10.88c0,2.47-0.89,4.74-2.66,6.83c-1.78,2.08-3.9,3.12-6.36,3.12c-1.54,0-2.86,0-3.93,0
			c2.78,2.78,6.02,4.17,9.72,4.17c9.41,0,16.43-7.71,21.06-23.14c3.24-10.8,4.86-22.53,4.86-35.18v-7.41
			c-1.54,1.08-6.91,5.83-16.08,14.23c-9.18,8.41-14,12.61-14.47,12.61c-1.54,0-2.31-0.77-2.31-2.31c0-1.23,3.85-5.4,11.57-12.5
			c5.09-4.63,10.26-9.33,15.51-14.12c5.71-5.55,10.1-10.88,13.19-15.97c2.31-4.01,4.32-6.02,6.02-6.02c2.31,0,3.47,1.08,3.47,3.24
			c0,0.46-1.27,2.28-3.82,5.44c-2.55,3.16-3.82,5.59-3.82,7.29c0,1.24,2.74,6.21,8.22,14.93
			C332.22,524.6,334.96,531.81,334.96,537.52z"/>
		<path class="st1" d="M434.71,491l-19.44,32.86c-2.31,3.7-5.71,9.18-10.18,16.43c-3.7,6.02-6.56,11.8-8.56,17.36l2.08,1.39
			c6.17-2,11.69-6.6,16.55-13.77c4.86-7.17,7.75-10.99,8.68-11.46h0.93c0.61,0.77,0.93,1.62,0.93,2.55c0,6.33-5.4,15.01-16.2,26.04
			c-10.8,11.03-19.36,16.55-25.69,16.55c-4.94,0-8.33-1.23-10.18-3.7c-0.46-0.61-1.78-4.01-3.93-10.18
			c-5.25,9.26-12.42,13.89-21.52,13.89c-4.17,0-7.79-1.77-10.88-5.32c-3.09-3.55-4.63-7.41-4.63-11.57c0-3.08,0.77-6.32,2.31-9.72
			l26.85-59.25l26.62-2.08c-6.17,8.18-12.19,17.9-18.05,29.16c-7.1,13.73-10.65,24.23-10.65,31.48c0,1.85,0.38,3.7,1.16,5.55
			c0.93,2.47,2.16,3.7,3.7,3.7c4.17,0,12.27-9.95,24.3-29.86c9.1-14.96,15.97-27.62,20.6-37.96L434.71,491z"/>
	</g>
	<g>
		<path class="st1" d="M707.98,490.8c-0.14,4.43-4.98,11.01-14.54,19.73c-17.58,16.2-35.3,24.29-53.16,24.29
			c-4.98,0-9.07-0.28-12.25-0.83c-4.02-0.69-10.45-3.67-19.31-8.93c-28.24-16.61-46.38-24.92-54.4-24.92c-4.15,0-6.23,0.9-6.23,2.7
			c0,0.83,0.17,2.15,0.52,3.95c0.34,1.8,0.52,3.11,0.52,3.95c0,10.25-3.69,20.07-11.05,29.48c-7.79,9.97-16.69,14.95-26.69,14.95
			l-8.13-2.28l-3.13-7.27c0-8.44,4-17.65,12.01-27.62c8-9.97,16.11-16.47,24.33-19.52c-2.77-1.11-4.64-1.66-5.61-1.66
			c-12.87,0-27.34,9-43.4,26.99c-11.91,13.29-22.15,28.03-30.73,44.23c-10.11,18.83-15.16,33.85-15.16,45.06
			c0,14.4,5.4,21.59,16.2,21.59c10.66,0,20.76-5.81,30.32-17.44c9-11.07,13.5-22.08,13.5-33.01c0-1.66-0.62-3.32-1.87-4.98
			c-1.25-1.66-2.63-2.49-4.15-2.49c-2.36,0-5.89,2.49-10.59,7.48l-0.42,0.21c-1.8,2.77-4.02,8.72-6.64,17.86
			c-3.32,1.52-6.85,3.6-10.59,6.23l-9.97,7.06h-0.42c-0.28-1.66-0.42-2.7-0.42-3.11c0-11.35,2.98-21.39,8.93-30.11
			c6.64-9.97,15.37-14.95,26.16-14.95c10.8,0,16.2,5.05,16.2,15.16c0,15.5-6.16,30.18-18.48,44.02
			c-12.6,14.26-26.51,21.39-41.74,21.39c-22.01,0-33.01-9.76-33.01-29.28c0-17.72,6.85-37.44,20.56-59.18
			c12.04-19.1,26.02-35.09,41.94-47.97c18.82-15.23,36.41-22.84,52.74-22.84c1.94,0,4.64,0.62,8.1,1.87
			c3.46,1.25,5.95,2.49,7.48,3.74c8.03-3.6,16.54-5.41,25.54-5.41v-0.2c8.31,0.28,17.44,2.96,27.41,8.04
			c2.21,1.1,10.03,5.71,23.46,13.81c8.17,4.95,14.26,7.42,18.27,7.42h3.95c12.59,0,23.95-2.7,34.05-8.1
			c5.4-2.91,14.88-9.76,28.45-20.56h0.83v0.21L707.98,490.8z M541.46,510.94c0-0.69-0.14-1.87-0.42-3.53
			c-0.28-1.66-0.35-2.97-0.21-3.95c-14.49,6.09-25,17.51-31.55,34.26c-0.98,2.49-1.46,4.36-1.46,5.61c0,3.32,1.81,4.98,5.43,4.98
			c7.1,0,13.72-4.57,19.85-13.7C538.67,526.31,541.46,518.42,541.46,510.94z"/>
		<path class="st1" d="M581.53,581.75c0,4.02-1.45,8.1-4.36,12.25c-3.19,4.71-6.64,7.06-10.38,7.06c-0.69,0-1.94-0.69-3.74-2.08
			c-0.83-1.66-1.25-2.84-1.25-3.53c0-3.18,1.52-6.19,4.57-9.03c3.04-2.84,6.09-3.98,9.14-3.43v-1.87c0-1.94-2.08-2.91-6.23-2.91
			h-1.25c-1.94,0-6.68,3.29-14.22,9.86c-7.55,6.58-12.15,11.11-13.81,13.6c-4.15,6.23-8.45,14.05-12.87,23.46
			c-3.46,8.17-6.99,16.34-10.59,24.5l-20.76-0.42l20.35-43.4c1.11-2.08,2.77-5.16,4.98-9.24c2.21-4.08,3.32-7.02,3.32-8.82
			c0-2.21-0.62-3.32-1.87-3.32c-0.55,0-2.67,2.01-6.33,6.02c-3.67,4.02-5.99,6.02-6.96,6.02c-0.14-0.14-0.42-0.28-0.83-0.42
			l-0.21-0.62c0.14-2.49,4.05-7.85,11.73-16.09c7.68-8.23,12.7-12.35,15.05-12.35c6.23,0,9.34,5.33,9.34,15.99
			c0,1.25,0.34,1.87,1.04,1.87c14.12-9.27,22.91-13.91,26.37-13.91c2.49,0,4.74,1.18,6.75,3.53
			C580.52,576.84,581.53,579.26,581.53,581.75z"/>
		<path class="st1" d="M611.84,610.82c0,6.23-4.92,14.19-14.74,23.88c-9.83,9.69-17.93,14.53-24.29,14.53
			c-6.64,0-9.97-4.64-9.97-13.91c0-4.98,1.87-10.73,5.61-17.23l9.34-16.2c1.11-2.49,4.7-10.8,10.8-24.92h22.01
			c-11.21,19.66-19.52,37.38-24.92,53.16l2.08,1.45c5.26-1.8,9.69-5.53,13.29-11.21c3.87-6.37,6.99-10.17,9.34-11.42h0.83
			C611.63,609.37,611.84,609.99,611.84,610.82z M622.02,550.6c0,4.85-0.83,8.07-2.49,9.65c-1.66,1.59-4.92,2.39-9.76,2.39
			c-5.54,0-8.31-1.38-8.31-4.15v-9.14c0-1.8,1.73-3.56,5.19-5.3c3.46-1.73,6.23-2.6,8.31-2.6
			C619.66,541.47,622.02,544.51,622.02,550.6z"/>
		<path class="st1" d="M666.45,610.61c0,9.83-4.29,19-12.87,27.51c-8.58,8.51-17.79,12.77-27.62,12.77
			c-5.95,0-11.21-1.45-15.78-4.36c-5.26-3.32-7.89-7.75-7.89-13.29c0-3.32,1.07-6.09,3.22-8.31c2.14-2.21,4.88-3.32,8.2-3.32
			c6.23,0,9.34,3.25,9.34,9.76c0,2.22-0.8,4.26-2.39,6.13c-1.59,1.87-3.5,2.8-5.71,2.8c-1.39,0-2.56,0-3.53,0
			c2.49,2.49,5.4,3.74,8.72,3.74c8.44,0,14.74-6.92,18.9-20.76c2.91-9.69,4.36-20.21,4.36-31.56v-6.64
			c-1.39,0.97-6.2,5.23-14.43,12.77c-8.24,7.55-12.56,11.32-12.98,11.32c-1.39,0-2.08-0.69-2.08-2.08c0-1.11,3.46-4.84,10.38-11.21
			c4.57-4.15,9.2-8.37,13.91-12.67c5.12-4.98,9.06-9.76,11.84-14.33c2.08-3.6,3.87-5.4,5.4-5.4c2.08,0,3.11,0.97,3.11,2.91
			c0,0.42-1.14,2.04-3.43,4.88c-2.28,2.84-3.43,5.02-3.43,6.54c0,1.11,2.46,5.57,7.37,13.39
			C663.99,599.02,666.45,605.49,666.45,610.61z"/>
		<path class="st1" d="M742.32,510.12l-16.39,31.35h15.48l-1.47,5.61h-18.03l-34.56,65.37c-2.45,4.72-3.67,9.99-3.67,15.81
			l2.28,4.99c0.55,0.14,0.9,0.21,1.04,0.21c2.91,0,7.13-3.25,12.67-9.76c5.54-6.5,9.14-9.76,10.8-9.76c0.69,0,1.04,0.35,1.04,1.04
			c0,1.66-3.05,6.09-9.14,13.29c-12.18,14.4-21.04,21.59-26.58,21.59c-3.46,0-6.33-1.28-8.62-3.84c-2.28-2.56-3.43-5.57-3.43-9.03
			c0-11.49,3.67-25.33,11-41.53c1.66-3.74,8.51-16.61,20.56-38.62l24.92-45.68L742.32,510.12z"/>
		<path class="st1" d="M787.5,600.02c0,1.66-2.01,2.98-6.02,3.95c-3.19,0.83-5.95,1.25-8.31,1.25c-1.52,0-3.05,0-4.57,0
			c-5.26,9.88-11.49,18.86-18.69,26.94c-9.97,11.11-18.9,16.66-26.79,16.66c-10.94,0-16.4-4.98-16.4-14.95
			c0-12.18,6.02-25.88,18.06-41.11c12.59-15.78,24.85-23.67,36.75-23.67c9.41,0,14.12,4.36,14.12,13.08c0,2.91-1.52,8.58-4.57,17.03
			c1.38,0.42,2.63,0.62,3.74,0.62c1.11,0,2.77-0.21,4.98-0.62c2.21-0.42,3.87-0.62,4.98-0.62
			C786.6,598.57,787.5,599.06,787.5,600.02z M762.59,603.76c-7.61-0.83-13.01-4.57-16.2-11.21c-2.36,2.77-5.81,8.72-10.38,17.86
			v-0.21c-0.28,1.52-1.39,4.43-3.32,8.72c-1.66,3.6-2.49,6.58-2.49,8.93c0,2.77,1.38,4.15,4.15,4.15
			C743.34,632,752.76,622.59,762.59,603.76z M769.85,583.41c0-4.57-1.8-6.85-5.4-6.85c-2.63,0-5.54,1.25-8.72,3.74
			c-3.19,2.49-4.78,5.05-4.78,7.68c0,2.63,1.42,5.12,4.26,7.47c2.84,2.36,5.64,3.53,8.41,3.53c0.28,0,0.62-0.07,1.04-0.21v-0.21
			c1.25,0,2.49-2.21,3.74-6.64C769.37,588.33,769.85,585.49,769.85,583.41z"/>
	</g>
	<path class="st1" d="M55.62,659.3c0,0,0,57.11,0,57.11c0-0.73,7.19-3.43,7.81-3.72c7.41-3.38,14.93-6.49,22.52-9.44
		c26.55-10.31,53.95-18.49,81.74-24.71c38.79-8.69,78.51-13.47,118.27-13.64c50.67-0.21,102.4,6.9,150.4,23.36
		c23.38,8.02,45.6,18.95,68.21,28.85c22.86,10.01,46.37,18.14,70.52,24.43c14.95,3.89,30.08,7.1,45.32,9.65
		c45.47,7.6,91.93,9.15,137.8,4.48c3.89-0.4,7.78-0.84,11.65-1.32v-34.46c0,0-145.34,39.71-241.98-7.49
		c-96.64-47.2-156.58-86.9-264.46-89.9S55.62,659.3,55.62,659.3z"/>
</g>
</svg>
