<?xml version="1.0" encoding="utf-8"?>
<!-- Generator: Adobe Illustrator 25.3.0, SVG Export Plug-In . SVG Version: 6.00 Build 0)  -->
<svg version="1.1" id="Layer_1" xmlns="http://www.w3.org/2000/svg" xmlns:xlink="http://www.w3.org/1999/xlink" x="0px" y="0px"
	 viewBox="0 0 841.89 1190.55" style="enable-background:new 0 0 841.89 1190.55;" xml:space="preserve">
<style type="text/css">
	.st0{fill:#F18539;}
	.st1{fill:#D72516;}
	.st2{fill:#FFFFFF;}
</style>
<g>
	<path class="st0" d="M686.6,902.2c-52.21,29.49-141.79,37.91-265.69,37.91s-213.48-8.43-265.69-37.91
		c-31.34-17.65-47.2-41.72-47.2-58.97c0-9.83,5.23-15.45,16.87-15.45h592.04c11.65,0,16.87,5.61,16.87,15.45
		C733.8,860.49,717.94,884.55,686.6,902.2L686.6,902.2z M716.93,444.83H124.88c-11.64,0-16.87-6.02-16.87-16.85
		c0-64.2,96.6-177.54,312.9-177.54c214.29,0,312.9,113.34,312.9,177.54C733.8,438.81,728.58,444.83,716.93,444.83z"/>
	<path class="st1" d="M192.7,561.74c0,11.73-3.98,20.4-11.94,26.02c-7.96,5.62-17.62,8.43-28.98,8.43
		c-11.36,0-21.47-2.48-30.31-7.43c-8.84-4.95-13.48-12.26-13.9-21.92c-0.43-10.51,5.59-15.8,18.05-15.86
		c8.99-0.06,14.64,3.1,16.95,9.48c0.73,2.98,3.25,4.5,7.56,4.56c4.32,0.06,6.47-2.79,6.47-8.57v-68.54
		c0-10.57,6.02-15.86,18.05-15.86c12.03,0,18.05,5.29,18.05,15.86V561.74z"/>
	<path class="st1" d="M219.86,595.1c-12.03,0-18.05-5.29-18.05-15.86v-91.33c0-10.57,6.02-15.86,18.05-15.86h43.75
		c9.36,0,14.04,4.83,14.04,14.49c0,9.66-4.68,14.49-14.04,14.49h-25.7v17.68h22.06c9.36,0,14.04,4.86,14.04,14.58
		s-4.68,14.58-14.04,14.58h-22.06v18.23h25.7c9.36,0,14.04,4.83,14.04,14.49s-4.68,14.49-14.04,14.49H219.86z"/>
	<path class="st1" d="M335.94,595.47c-11.7,0-23.05-1.85-34.04-5.56c-11-3.71-16.5-10.33-16.5-19.87c0-9.54,4.31-14.31,12.94-14.31
		c1.28,0,6.35,1.67,15.22,5.01c8.87,3.34,16.54,5.01,23.01,5.01c6.47,0,9.71-2.73,9.71-8.2c0-3.58-2.22-6.58-6.65-8.98
		c-4.44-2.4-10.62-4.91-18.55-7.52c-7.93-2.61-12.9-4.59-14.9-5.93c-9.24-6.14-13.85-15.09-13.85-26.84
		c0-11.76,3.86-21.28,11.58-28.57c7.53-7.17,16.44-10.76,26.71-10.76c10.27,0,19.2,1.12,26.8,3.37
		c14.22,4.5,19.95,11.14,17.18,19.92c-2.77,8.78-7.83,12.87-15.18,12.26c-0.67,0-4.32-1.24-10.94-3.74
		c-6.63-2.49-12.5-3.74-17.64-3.74c-5.13,0-7.7,2.52-7.7,7.57c0,3.22,2.17,6,6.52,8.34c4.34,2.34,10.47,4.89,18.37,7.65
		c7.9,2.77,12.91,4.88,15.04,6.34c9.36,6.32,14.04,15.72,14.04,28.21c0,12.49-4.01,22.38-12.03,29.67
		C357.34,591.91,347.64,595.47,335.94,595.47z"/>
	<path class="st1" d="M481.82,561.74c0,11.61-4.94,20.22-14.81,25.84c-9.88,5.62-21.1,8.43-33.68,8.43s-23.81-2.81-33.68-8.43
		c-9.87-5.62-14.81-14.23-14.81-25.84v-73.83c0-10.57,6.02-15.86,18.05-15.86c12.03,0,18.05,5.29,18.05,15.86v68.54
		c0,6.93,4.13,10.39,12.4,10.39c8.26,0,12.4-3.46,12.4-10.39v-68.54c0-10.57,6.02-15.86,18.05-15.86c12.03,0,18.05,5.29,18.05,15.86
		V561.74z"/>
	<path class="st1" d="M540.11,595.47c-11.7,0-23.05-1.85-34.04-5.56c-11-3.71-16.5-10.33-16.5-19.87c0-9.54,4.31-14.31,12.94-14.31
		c1.28,0,6.35,1.67,15.22,5.01c8.87,3.34,16.54,5.01,23.01,5.01c6.47,0,9.71-2.73,9.71-8.2c0-3.58-2.22-6.58-6.65-8.98
		c-4.44-2.4-10.62-4.91-18.55-7.52c-7.93-2.61-12.9-4.59-14.9-5.93c-9.24-6.14-13.85-15.09-13.85-26.84
		c0-11.76,3.86-21.28,11.58-28.57c7.53-7.17,16.44-10.76,26.71-10.76c10.27,0,19.2,1.12,26.8,3.37
		c14.22,4.5,19.95,11.14,17.18,19.92c-2.77,8.78-7.83,12.87-15.18,12.26c-0.67,0-4.32-1.24-10.94-3.74
		c-6.63-2.49-12.5-3.74-17.64-3.74c-5.13,0-7.7,2.52-7.7,7.57c0,3.22,2.17,6,6.52,8.34c4.34,2.34,10.47,4.89,18.37,7.65
		c7.9,2.77,12.91,4.88,15.04,6.34c9.36,6.32,14.04,15.72,14.04,28.21c0,12.49-4.01,22.38-12.03,29.67
		C561.51,591.91,551.81,595.47,540.11,595.47z"/>
	<g>
		<path class="st1" d="M625.97,523.54c-8.24,0-12.35-2.18-12.35-6.54v-37.64c0-4.36,4.12-6.54,12.35-6.54h29.94
			c6.4,0,9.61,1.99,9.61,5.97c0,3.98-3.2,5.97-9.61,5.97h-17.59v7.29h15.1c6.41,0,9.61,2,9.61,6.01s-3.2,6.01-9.61,6.01h-15.1v7.51
			h17.59c6.4,0,9.61,1.99,9.61,5.97c0,3.98-3.2,5.97-9.61,5.97H625.97z"/>
		<path class="st1" d="M705.42,523.69c-8.01,0-15.77-0.76-23.3-2.29c-7.53-1.53-11.29-4.26-11.29-8.19c0-3.93,2.95-5.9,8.86-5.9
			c0.87,0,4.35,0.69,10.42,2.07c6.07,1.38,11.32,2.07,15.75,2.07c4.43,0,6.64-1.13,6.64-3.38c0-1.48-1.52-2.71-4.55-3.7
			c-3.04-0.99-7.27-2.02-12.7-3.1c-5.43-1.08-8.83-1.89-10.2-2.44c-6.32-2.53-9.48-6.22-9.48-11.06c0-4.85,2.64-8.77,7.92-11.78
			c5.16-2.96,11.25-4.43,18.28-4.43c7.03,0,13.14,0.46,18.34,1.39c9.73,1.85,13.65,4.59,11.76,8.21c-1.89,3.62-5.36,5.3-10.39,5.05
			c-0.46,0-2.95-0.51-7.49-1.54c-4.53-1.03-8.56-1.54-12.07-1.54c-3.51,0-5.27,1.04-5.27,3.12c0,1.33,1.49,2.47,4.46,3.44
			c2.97,0.96,7.16,2.02,12.57,3.16c5.41,1.14,8.84,2.01,10.29,2.61c6.4,2.61,9.61,6.48,9.61,11.63s-2.74,9.22-8.23,12.23
			C720.07,522.22,713.43,523.69,705.42,523.69z"/>
	</g>
	<g>
		<path class="st1" d="M656.21,556.32l17.94-12.55c2.93-2.05,6.88-3.08,11.87-3.08c8.52,0,12.78,2.18,12.78,6.54v37.64
			c0,4.36-4.26,6.54-12.78,6.54c-8.52,0-12.78-2.18-12.78-6.54v-20.74l-17.04,11.65l-17.04-11.57v20.66c0,4.36-4.26,6.54-12.78,6.54
			c-8.52,0-12.78-2.18-12.78-6.54v-37.64c0-4.43,4.26-6.61,12.78-6.54c4.9,0.03,8.82,1.05,11.74,3.08L656.21,556.32z"/>
		<path class="st1" d="M730.81,584.87c0,4.36-4.26,6.54-12.78,6.54c-8.52,0-12.78-2.18-12.78-6.54v-37.64
			c0-4.36,4.26-6.54,12.78-6.54c8.52,0,12.78,2.18,12.78,6.54V584.87z"/>
	</g>
	<g>
		<path class="st1" d="M263.01,724.55l36.97,36.83c5.48,5.48,8.22,11.33,8.22,17.56c0,6.24-4.98,12.25-14.94,18.06
			c-9.96,5.81-19.11,8.71-27.45,8.71c-8.34,0-16.25-3.82-23.72-11.47l-60.13-60.92v47.88c0,16.43-12.32,24.65-36.97,24.65
			c-24.65,0-36.97-8.22-36.97-24.65V639.27c0-16.43,12.32-24.65,36.97-24.65h83.66c20.66,0,37.84,6.02,51.54,18.06
			c13.69,12.04,20.54,24.96,20.54,38.75C300.73,696.08,288.15,713.79,263.01,724.55z M181.96,653.15v43.63h21.29
			c20.92,0,31.37-7.27,31.37-21.82s-10.46-21.82-31.37-21.82H181.96z"/>
		<path class="st1" d="M361.04,805.87c-24.65,0-36.97-8.22-36.97-24.65V639.27c0-16.43,12.32-24.65,36.97-24.65h89.63
			c19.17,0,28.76,7.51,28.76,22.53c0,15.02-9.59,22.52-28.76,22.52h-52.66v27.49h45.19c19.17,0,28.76,7.56,28.76,22.67
			c0,15.11-9.59,22.67-28.76,22.67h-45.19v28.33h52.66c19.17,0,28.76,7.51,28.76,22.53c0,15.02-9.59,22.52-28.76,22.52H361.04z"/>
		<path class="st1" d="M614.45,675.54l41.46-41.37c12.07-12.09,25.52-18.13,40.33-18.13c14.81,0,24.74,3.05,29.79,9.14
			c5.04,6.09,7.56,11.57,7.56,16.43c0,4.86-2.24,10.69-6.72,17.5l-76.19,75.37v46.75c0,16.43-12.32,24.65-36.97,24.65
			c-24.65,0-36.97-8.22-36.97-24.65v-46.75l-74.7-75.37c-4.48-6.8-6.72-12.63-6.72-17.5c0-4.86,2.52-10.34,7.56-16.43
			c5.04-6.09,14.97-9.14,29.79-9.14c14.81,0,28.26,6.04,40.33,18.13L614.45,675.54z"/>
	</g>
</g>
</svg>
