<?xml version="1.0" encoding="utf-8"?>
<!-- Generator: Adobe Illustrator 25.3.0, SVG Export Plug-In . SVG Version: 6.00 Build 0)  -->
<svg version="1.1" id="Layer_1" xmlns="http://www.w3.org/2000/svg" xmlns:xlink="http://www.w3.org/1999/xlink" x="0px" y="0px"
	 viewBox="0 0 841.89 1190.55" style="enable-background:new 0 0 841.89 1190.55;" xml:space="preserve">
<style type="text/css">
	.st0{fill:#EB621D;}
	.st1{fill:#E41522;}
	.st2{fill:#F59E1F;}
	.st3{fill:#FFFFFF;}
</style>
<path class="st0" d="M497.9,594.96c0-66.1-30.95-124.98-79.16-162.93c0,0,0.01,0,0.01-0.01h-0.03c0,0,0.01,0,0.01,0.01
	c-48.2,37.95-79.15,96.83-79.15,162.93c0,66.1,30.95,124.98,79.14,162.92h0.02C466.95,719.94,497.9,661.06,497.9,594.96z"/>
<path class="st1" d="M339.59,594.96c0-66.1,30.95-124.98,79.15-162.93c0,0-0.01,0-0.01-0.01c-36.48-28.76-81.6-44.37-128.05-44.3
	c-114.44,0-207.21,92.78-207.21,207.24S176.23,802.2,290.67,802.2c46.46,0.07,91.58-15.54,128.06-44.31c0,0-0.01,0-0.01-0.01
	C370.54,719.95,339.59,661.06,339.59,594.96z"/>
<path class="st2" d="M754.03,594.96c0-114.46-92.77-207.24-207.21-207.24c-46.46-0.07-91.58,15.54-128.07,44.3c0,0-0.01,0-0.01,0.01
	c48.21,37.95,79.16,96.83,79.16,162.93c0,66.1-30.95,124.98-79.15,162.92c0,0-0.01,0-0.01,0.01
	c36.49,28.77,81.62,44.38,128.08,44.31C661.27,802.2,754.04,709.42,754.03,594.96L754.03,594.96z"/>
<g>
	<polygon points="176.18,343.74 154.73,300.12 147.3,300.12 139.09,358.47 147.2,358.47 153.24,315.52 174.71,358.47 182.22,358.47 
		190.43,300.12 182.32,300.12 	"/>
	<path d="M221.35,356.99c2.77-1.42,5.02-3.47,6.75-6.17c1.73-2.69,2.86-5.94,3.4-9.74l0.97-6.91c0.53-3.78,0.31-7.01-0.66-9.7
		c-0.97-2.69-2.65-4.74-5.02-6.15c-2.37-1.41-5.37-2.11-8.98-2.11c-3.61,0-6.81,0.7-9.57,2.11c-2.77,1.41-5.02,3.45-6.75,6.15
		c-1.73,2.69-2.86,5.92-3.39,9.7l-0.96,6.79c-0.54,3.83-0.32,7.1,0.65,9.82c0.97,2.72,2.64,4.79,5.01,6.21
		c2.37,1.42,5.36,2.13,8.98,2.13C215.39,359.12,218.58,358.41,221.35,356.99z M206.6,348.63c-1.31-1.79-1.74-4.31-1.29-7.55
		l0.97-6.91c0.46-3.24,1.59-5.74,3.41-7.51c1.81-1.77,4.15-2.65,7.02-2.65c2.86,0,4.96,0.88,6.27,2.65
		c1.32,1.77,1.75,4.27,1.29,7.51l-0.97,6.91c-0.46,3.24-1.59,5.76-3.41,7.55c-1.82,1.79-4.16,2.69-7.03,2.69
		C210.01,351.33,207.92,350.43,206.6,348.63z"/>
	<path d="M265.4,347.67c-0.51,3.64-0.12,6.39,1.19,8.25c1.3,1.86,3.64,2.79,7.02,2.79h4.74l1.1-7.79h-3.94
		c-0.78,0-1.33-0.27-1.65-0.82c-0.32-0.55-0.42-1.33-0.27-2.35l3.31-23.54h6.31l1.04-7.39h-6.31l1.71-12.13h-8.19l-1.71,12.13h-4.3
		l-1.04,7.39h4.3L265.4,347.67z"/>
	<polygon points="306.03,300.12 297.83,300.12 296.68,308.31 304.87,308.31 	"/>
	<polygon points="303.68,316.82 295.48,316.82 289.62,358.51 297.81,358.51 	"/>
	<path d="M317.67,356.95c2.53,1.45,5.72,2.17,9.58,2.17c2.6,0,5.26-0.54,7.98-1.63c2.72-1.08,5.26-2.62,7.6-4.6l-4.62-5.38
		c-1.45,1.21-3.05,2.14-4.77,2.81c-1.73,0.67-3.42,1-5.08,1c-3.35,0-5.8-0.92-7.36-2.77c-1.5-1.78-2.05-4.32-1.65-7.59h26.25
		l0.38-2.73c0.65-4.6,0.55-8.55-0.28-11.85c-0.84-3.29-2.36-5.81-4.58-7.55c-2.22-1.74-5.07-2.61-8.55-2.61
		c-3.69,0-6.96,0.76-9.8,2.29c-2.84,1.53-5.15,3.75-6.94,6.67c-1.79,2.92-2.97,6.44-3.56,10.56l-0.66,4.7
		c-0.56,3.96-0.32,7.34,0.72,10.14C313.36,353.38,315.14,355.5,317.67,356.95z M323.88,326.66c1.99-2.03,4.53-3.05,7.64-3.05
		c2.54,0,4.44,0.94,5.69,2.83c1.25,1.89,1.75,4.53,1.51,7.93h-18.45C320.86,331.1,322.06,328.53,323.88,326.66z"/>
	<path d="M366.27,332.12c0.36-2.57,1.37-4.56,3.03-5.98c1.66-1.42,3.83-2.13,6.51-2.13c2.76,0,4.79,0.8,6.09,2.41
		c1.3,1.61,1.74,3.88,1.33,6.83l-3.55,25.26h8.19l3.56-25.3c0.76-5.41,0.11-9.59-1.95-12.55c-2.06-2.96-5.35-4.44-9.88-4.44
		c-2.52,0-4.91,0.68-7.18,2.05c-1.81,1.09-3.4,2.56-4.81,4.38l0.82-5.82h-8.19l-5.87,41.69h8.19L366.27,332.12z"/>
	<path d="M407.72,356.95c2.53,1.45,5.72,2.17,9.58,2.17c2.6,0,5.26-0.54,7.98-1.63c2.72-1.08,5.26-2.62,7.6-4.6l-4.62-5.38
		c-1.45,1.21-3.05,2.14-4.77,2.81c-1.73,0.67-3.42,1-5.08,1c-3.35,0-5.8-0.92-7.36-2.77c-1.5-1.78-2.05-4.32-1.65-7.59h26.25
		l0.38-2.73c0.65-4.6,0.55-8.55-0.28-11.85c-0.84-3.29-2.36-5.81-4.58-7.55c-2.22-1.74-5.07-2.61-8.55-2.61
		c-3.69,0-6.96,0.76-9.8,2.29c-2.84,1.53-5.15,3.75-6.94,6.67c-1.79,2.92-2.97,6.44-3.56,10.56l-0.66,4.7
		c-0.56,3.96-0.32,7.34,0.72,10.14C403.41,353.38,405.19,355.5,407.72,356.95z M413.93,326.66c1.99-2.03,4.53-3.05,7.64-3.05
		c2.54,0,4.44,0.94,5.69,2.83c1.25,1.89,1.75,4.53,1.51,7.93h-18.45C410.91,331.1,412.11,328.53,413.93,326.66z"/>
	<path d="M478.68,335.86h14.42c3.48,0,6.65-0.74,9.51-2.21c2.86-1.47,5.21-3.55,7.04-6.25c1.84-2.69,3.01-5.82,3.51-9.38
		c0.5-3.56,0.21-6.69-0.87-9.4c-1.08-2.7-2.84-4.8-5.28-6.29c-2.44-1.49-5.4-2.23-8.88-2.23h-14.42h-3.98h-4.22l-8.22,58.4h8.19
		L478.68,335.86z M497.32,307.91c1.77,0,3.26,0.42,4.48,1.27c1.22,0.84,2.09,2.03,2.61,3.55c0.52,1.53,0.64,3.29,0.36,5.3
		c-0.28,1.98-0.89,3.74-1.85,5.26c-0.95,1.53-2.16,2.7-3.61,3.53c-1.46,0.83-3.07,1.25-4.83,1.25h-14.7l2.84-20.16H497.32z"/>
	<path d="M527.61,332.12c0.36-2.54,1.35-4.53,2.99-5.96c1.63-1.43,3.75-2.15,6.35-2.15c1.45,0,2.69,0.23,3.72,0.68
		c1.03,0.46,1.85,1.12,2.45,2.01l6.36-7.23c-1-1.07-2.23-1.88-3.69-2.43c-1.46-0.55-3.14-0.82-5.05-0.82
		c-2.46,0-4.81,0.69-7.04,2.07c-1.77,1.1-3.35,2.56-4.75,4.36l0.82-5.83h-8.19l-5.87,41.69h8.19L527.61,332.12z"/>
	<path d="M557.41,356.95c2.53,1.45,5.72,2.17,9.58,2.17c2.6,0,5.26-0.54,7.98-1.63c2.72-1.08,5.26-2.62,7.6-4.6l-4.62-5.38
		c-1.45,1.21-3.05,2.14-4.77,2.81c-1.73,0.67-3.42,1-5.08,1c-3.35,0-5.8-0.92-7.36-2.77c-1.5-1.78-2.05-4.32-1.65-7.59h26.25
		l0.38-2.73c0.65-4.6,0.55-8.55-0.28-11.85c-0.84-3.29-2.36-5.81-4.58-7.55c-2.22-1.74-5.07-2.61-8.55-2.61
		c-3.69,0-6.96,0.76-9.8,2.29c-2.84,1.53-5.15,3.75-6.94,6.67c-1.79,2.92-2.97,6.44-3.56,10.56l-0.66,4.7
		c-0.56,3.96-0.32,7.34,0.72,10.14C553.1,353.38,554.88,355.5,557.41,356.95z M563.62,326.66c1.99-2.03,4.53-3.05,7.64-3.05
		c2.54,0,4.44,0.94,5.69,2.83c1.25,1.89,1.75,4.53,1.51,7.93h-18.45C560.6,331.1,561.8,328.53,563.62,326.66z"/>
	<path d="M601.4,356.99c2.49,1.42,5.64,2.13,9.44,2.13c2.14,0,4.21-0.25,6.19-0.76c1.99-0.51,3.81-1.25,5.48-2.23
		c1.66-0.98,3.11-2.16,4.36-3.55l-5.1-5.7c-1.35,1.42-2.87,2.52-4.56,3.29c-1.69,0.78-3.4,1.16-5.15,1.16
		c-3.19,0-5.52-0.9-6.99-2.69c-1.47-1.79-1.98-4.34-1.52-7.63l0.97-6.87c0.45-3.21,1.67-5.7,3.66-7.47
		c1.99-1.77,4.56-2.65,7.72-2.65c1.71,0,3.31,0.36,4.79,1.08c1.48,0.72,2.71,1.75,3.7,3.09l6.65-5.3c-0.82-1.42-1.92-2.62-3.31-3.62
		c-1.39-0.99-3-1.75-4.84-2.27c-1.84-0.52-3.85-0.78-6.01-0.78c-3.8,0-7.15,0.7-10.04,2.11c-2.89,1.41-5.23,3.45-7.03,6.13
		c-1.8,2.68-2.96,5.9-3.49,9.68l-0.97,6.87c-0.54,3.83-0.29,7.1,0.75,9.8C597.15,353.51,598.91,355.57,601.4,356.99z"/>
	<polygon points="635.07,358.51 643.26,358.51 649.13,316.82 640.93,316.82 	"/>
	<polygon points="642.13,308.31 650.32,308.31 651.48,300.12 643.28,300.12 	"/>
	<path d="M691.65,324.48c-0.97-2.69-2.65-4.74-5.02-6.15c-2.37-1.41-5.37-2.11-8.98-2.11c-3.61,0-6.81,0.7-9.57,2.11
		c-2.77,1.41-5.02,3.45-6.75,6.15c-1.73,2.69-2.86,5.92-3.39,9.7l-0.96,6.79c-0.54,3.83-0.32,7.1,0.65,9.82
		c0.97,2.72,2.64,4.79,5.01,6.21c2.37,1.42,5.36,2.13,8.98,2.13c3.61,0,6.81-0.71,9.58-2.13c2.77-1.42,5.02-3.47,6.75-6.17
		c1.73-2.69,2.86-5.94,3.4-9.74l0.97-6.91C692.84,330.4,692.62,327.17,691.65,324.48z M684.12,334.18l-0.97,6.91
		c-0.46,3.24-1.59,5.76-3.41,7.55c-1.82,1.79-4.16,2.69-7.03,2.69c-2.86,0-4.95-0.9-6.27-2.69c-1.31-1.79-1.74-4.31-1.29-7.55
		l0.97-6.91c0.46-3.24,1.59-5.74,3.41-7.51c1.81-1.77,4.15-2.65,7.02-2.65s4.96,0.88,6.27,2.65
		C684.14,328.43,684.57,330.94,684.12,334.18z"/>
</g>
<g>
	<path class="st3" d="M160.17,605.09c1.39-8.53,2.84-16.58,4.33-24.14l5.35-25.59c-6.18,0.08-10.54,0.12-13.09,0.12
		c-2.04,0-6.15-0.04-12.31-0.12l-0.95,6.77c-0.99,7.06-2.37,15.43-4.12,25.1c-1.75,9.67-3.27,16.45-4.55,20.35
		c-0.73,2.16-1.8,4.05-3.23,5.67c-1.05,1.16-2.4,2.1-4.05,2.84c-2.18,0.93-4.56,1.39-7.14,1.39c-2.32,0-4.77-0.29-7.37-0.87
		c-2.6-0.58-5.97-1.7-10.09-3.36c-0.34,6.29-0.81,12.74-1.39,19.34c8.89,2.12,16.86,3.18,23.92,3.18c3.82,0,7.46-0.39,10.93-1.16
		c3.15-0.69,6.17-1.74,9.06-3.13c2.15-1,4.03-2.18,5.65-3.53c1.31-1.12,2.46-2.39,3.43-3.82c1.06-1.5,1.98-3.36,2.75-5.56
		C158.13,616.15,159.09,611.65,160.17,605.09z"/>
	<path class="st3" d="M174.28,625.51c1.55,2.41,3.61,4.42,6.18,6.04c2.57,1.62,5.74,2.75,9.51,3.38c3.77,0.64,7.95,0.95,12.54,0.95
		c3.13,0,6.23-0.14,9.33-0.43c3.09-0.29,6.93-0.88,11.54-1.77c2.68-8.88,4.43-14.47,5.26-16.79c-4.99,1.43-9.15,2.44-12.5,3.04
		c-3.35,0.6-6.29,0.9-8.84,0.9c-4.28,0-7.78-0.98-10.47-2.94c-2.7-1.96-3.75-5.02-3.17-9.17c0.07-0.5,0.17-1.06,0.29-1.67
		l40.59-0.06c0.88-2.7,1.48-5.15,1.79-7.35c0.52-3.7,0.42-7.16-0.31-10.36c-0.73-3.2-2.3-6.08-4.72-8.63
		c-2.42-2.55-5.56-4.33-9.41-5.35c-3.85-1.02-7.97-1.54-12.38-1.54c-4.24,0-8.47,0.56-12.68,1.68c-4.21,1.12-8.06,3.01-11.54,5.67
		c-3.48,2.66-6.54,6.35-9.17,11.08c-2.63,4.72-4.3,9.55-4.99,14.49c-0.49,3.51-0.48,6.92,0.04,10.24
		C171.69,620.24,172.73,623.1,174.28,625.51z M196.98,594.59c0.39-0.87,0.94-1.77,1.65-2.69c0.71-0.93,1.55-1.75,2.52-2.46
		c0.97-0.71,2.02-1.25,3.15-1.62c1.13-0.37,2.28-0.55,3.44-0.55c1.66,0,3.11,0.33,4.35,0.98c1.24,0.66,2.12,1.7,2.63,3.13
		c0.51,1.43,0.63,3.15,0.35,5.15c-0.06,0.46-0.16,1.02-0.29,1.68h-19.11C196.15,596.66,196.59,595.45,196.98,594.59z"/>
	<path class="st3" d="M239.01,627.93c-0.11,1.87-0.21,3.66-0.29,5.35c4.34,0.97,8.17,1.64,11.5,2.03c3.32,0.39,6.1,0.58,8.34,0.58
		c3.32,0,6.58-0.3,9.79-0.9c3.21-0.6,6.26-1.67,9.16-3.21c2.9-1.54,5.18-3.47,6.83-5.76c1.65-2.3,2.68-4.81,3.06-7.56
		c0.26-1.81,0.2-3.54-0.17-5.18c-0.37-1.64-1.02-3.18-1.95-4.63c-0.94-1.45-2.36-3.02-4.29-4.72c-1.16-1.04-2.79-2.37-4.88-3.99
		c-2.09-1.62-3.4-2.65-3.94-3.1c-0.54-0.44-0.98-0.88-1.32-1.3c-0.34-0.43-0.57-0.83-0.67-1.22c-0.1-0.39-0.12-0.79-0.06-1.22
		c0.18-1.29,1-2.25,2.46-2.88c1.46-0.63,3.71-0.94,6.76-0.94c4.32,0,8.69,0.93,13.1,2.78l1.35-16.21
		c-8.14-1.39-14.89-2.08-20.26-2.08c-5.13,0-9.57,0.63-13.32,1.88c-3.74,1.25-6.73,3.27-8.96,6.05c-2.22,2.78-3.56,5.77-4.01,8.97
		c-0.26,1.82-0.18,3.57,0.21,5.27c0.4,1.7,1.1,3.28,2.1,4.75c1.01,1.47,2.58,3.15,4.72,5.04s4.62,3.99,7.45,6.31
		c1.28,1.04,2.08,1.86,2.4,2.46c0.32,0.6,0.44,1.21,0.35,1.82c-0.1,0.69-0.46,1.37-1.09,2.03c-0.63,0.66-1.56,1.16-2.78,1.51
		c-1.22,0.35-2.78,0.52-4.66,0.52c-2.27,0-4.71-0.36-7.3-1.07c-2.59-0.71-5.66-1.8-9.18-3.27l-0.12,4.17
		C239.23,623.48,239.12,626.06,239.01,627.93z"/>
	<path class="st3" d="M350.09,634.27c2.94,0,6.6,0.04,10.99,0.12c1.95-11.93,3.79-22.31,5.53-31.15c1.74-8.84,3.75-18.16,6.01-27.96
		c-3.63,0.08-7.24,0.12-10.83,0.12c-3.2,0-7.28-0.04-12.25-0.12l-2.15,12.1c-1.05,5.6-1.81,9.53-2.28,11.81
		c-0.67,3.13-1.37,5.71-2.08,7.76c-0.52,1.47-1.18,2.84-1.97,4.11c-0.65,1.04-1.36,1.93-2.12,2.66c-0.72,0.69-1.48,1.27-2.28,1.74
		c-0.92,0.5-1.87,0.89-2.83,1.16c-0.97,0.27-1.92,0.4-2.84,0.4c-2.28,0-4.15-0.71-5.59-2.14c-1.45-1.43-1.88-4.17-1.31-8.22
		c0.06-0.42,0.18-1.24,0.37-2.46c0.19-1.22,0.66-3.5,1.4-6.86l4.9-22.06c-4.1,0.08-7.85,0.12-11.25,0.12
		c-3.36,0-7.43-0.04-12.2-0.12c-0.45,3.2-1.01,6.6-1.66,10.19c-1.06,5.87-2.06,11.21-3.01,16.04l-2.77,13.14
		c-0.32,1.47-0.53,2.55-0.63,3.24c-0.4,2.86-0.38,5.36,0.07,7.53c0.45,2.16,1.59,4.09,3.41,5.79c1.83,1.7,4.05,2.91,6.67,3.62
		c2.62,0.71,5.45,1.07,8.5,1.07c1.89,0,3.77-0.14,5.64-0.41c1.87-0.27,3.54-0.65,5.02-1.13c1.48-0.48,2.83-1.05,4.06-1.71
		c1.23-0.66,2.39-1.42,3.48-2.29c1.09-0.87,2.45-2.17,4.08-3.91l-1.05,7.93C342.81,634.31,346.46,634.27,350.09,634.27z"/>
	<path class="st3" d="M398.35,564.25c-5.41,3.73-9.8,8.38-13.19,13.95c-3.39,5.58-5.58,11.86-6.56,18.84
		c-0.84,5.98-0.64,11.39,0.61,16.21c1.25,4.83,3.87,9.02,7.87,12.59c3.99,3.57,8.57,6.14,13.74,7.7c5.16,1.56,10.87,2.35,17.12,2.35
		c6.48,0,13.94-0.62,22.38-1.85c0.54-2.23,1.43-5.38,2.66-9.44c1.23-4.06,2.23-7.22,3.01-9.49c-5.04,1.27-9.21,2.13-12.49,2.58
		s-6.3,0.67-9.04,0.67c-5.02,0-9.11-0.86-12.29-2.58c-3.17-1.72-5.54-4.15-7.11-7.29c-1.56-3.15-2.04-6.92-1.42-11.32
		c0.68-4.82,2.49-9.22,5.44-13.2c2.95-3.98,6.66-7.01,11.12-9.09c4.46-2.08,9.3-3.13,14.51-3.13c2.39,0,4.96,0.19,7.71,0.58
		c2.74,0.39,6.3,1.12,10.66,2.2l0.52-6.6c0.2-2.55,0.42-4.88,0.64-7.01l0.57-4.86c-8.21-1.47-15.17-2.2-20.88-2.2
		c-6.21,0-12.35,0.8-18.4,2.4C409.48,557.86,403.75,560.53,398.35,564.25z"/>
	<path class="st3" d="M504.85,584.77c0.23-2.74,0.62-6.21,1.18-10.42c-1.64-0.39-3.16-0.58-4.55-0.58c-1.47,0-2.9,0.17-4.3,0.49
		c-1.4,0.33-2.76,0.83-4.09,1.5c-1.33,0.68-2.54,1.43-3.62,2.26c-1.08,0.83-2.5,2.09-4.24,3.79l1.16-6.54
		c-4.18,0.08-7.87,0.12-11.08,0.12c-2.74,0-6.44-0.04-11.1-0.12c-0.51,4.17-0.96,7.66-1.36,10.48c-0.39,2.78-0.79,5.5-1.21,8.16
		l-2.65,14.76l-5.41,25.7c4.3-0.08,8.32-0.12,12.07-0.12c3.79,0,7.55,0.04,11.28,0.12c0.26-2.97,0.54-5.46,0.82-7.47
		c0.8-5.71,1.67-10.79,2.6-15.23c0.93-4.44,1.93-7.68,2.99-9.73c1.06-2.05,2.33-3.75,3.82-5.12c1.48-1.37,3.11-2.39,4.88-3.07
		c1.77-0.68,3.82-1.01,6.13-1.01c1.85,0,3.79,0.31,5.83,0.93L504.85,584.77z"/>
	<path class="st3" d="M540.71,564.05l1.36-7.18c0.15-0.81,0.37-1.81,0.65-3.01c-3.29,0.08-7.12,0.12-11.48,0.12
		c-3.17,0-7.08-0.04-11.74-0.12c-0.15,1.31-0.27,2.35-0.38,3.13c-0.37,2.66-1,6.29-1.88,10.88c4.26-0.08,8.2-0.12,11.83-0.12
		c3.51,0,7.17,0.04,10.98,0.12C540.26,566.4,540.48,565.13,540.71,564.05z"/>
	<path class="st3" d="M515.66,575.28c-1.18,7.6-2.28,14.28-3.28,20.03c-1,5.75-1.96,11-2.88,15.75c-0.92,4.75-1.72,8.65-2.42,11.69
		c-0.7,3.05-1.64,6.93-2.84,11.64c5.33-0.08,9.64-0.12,12.91-0.12c3.32,0,7.26,0.04,11.84,0.12c0.55-3.94,1.68-11.39,3.38-22.35
		c0.95-6.17,1.96-12.02,3.03-17.54c1.07-5.52,2.45-11.93,4.14-19.22c-5.15,0.08-9.09,0.12-11.83,0.12
		C524.68,575.39,520.67,575.36,515.66,575.28z"/>
	<path class="st3" d="M586.9,626.02c1.65-2.3,2.68-4.81,3.06-7.56c0.26-1.81,0.2-3.54-0.17-5.18c-0.37-1.64-1.02-3.18-1.95-4.63
		c-0.94-1.45-2.36-3.02-4.29-4.72c-1.16-1.04-2.79-2.37-4.88-3.99c-2.09-1.62-3.4-2.65-3.94-3.1c-0.54-0.44-0.98-0.88-1.32-1.3
		c-0.34-0.43-0.57-0.83-0.67-1.22c-0.1-0.39-0.12-0.79-0.06-1.22c0.18-1.29,1-2.25,2.46-2.88c1.46-0.63,3.71-0.94,6.76-0.94
		c4.32,0,8.69,0.93,13.1,2.78l1.35-16.21c-8.14-1.39-14.89-2.08-20.26-2.08c-5.13,0-9.57,0.63-13.32,1.88
		c-3.74,1.25-6.73,3.27-8.96,6.05s-3.56,5.77-4.01,8.97c-0.26,1.82-0.18,3.57,0.21,5.27c0.4,1.7,1.1,3.28,2.1,4.75
		c1.01,1.47,2.58,3.15,4.72,5.04s4.62,3.99,7.45,6.31c1.28,1.04,2.08,1.86,2.4,2.46c0.32,0.6,0.44,1.21,0.35,1.82
		c-0.1,0.69-0.46,1.37-1.09,2.03c-0.63,0.66-1.56,1.16-2.78,1.51c-1.22,0.35-2.78,0.52-4.66,0.52c-2.27,0-4.71-0.36-7.3-1.07
		c-2.59-0.71-5.66-1.8-9.18-3.27l-0.12,4.17c-0.12,3.28-0.23,5.86-0.34,7.73c-0.11,1.87-0.21,3.66-0.29,5.35
		c4.34,0.97,8.17,1.64,11.5,2.03c3.32,0.39,6.1,0.58,8.34,0.58c3.32,0,6.58-0.3,9.79-0.9c3.21-0.6,6.26-1.67,9.16-3.21
		C582.97,630.24,585.25,628.32,586.9,626.02z"/>
	<path class="st3" d="M640.01,559.82c-6.11,1.43-10.1,2.32-11.97,2.66l-10.19,2.03c-1.19,5.98-2.02,9.86-2.5,11.64h-9.59l-0.93,5.38
		c-0.77,4.36-1.44,7.87-2,10.54h9.02l-4.08,20.03c-0.71,3.4-1.15,5.59-1.33,6.57c-0.18,0.98-0.29,1.67-0.35,2.06
		c-0.3,2.16-0.28,4.21,0.06,6.14c0.35,1.93,1.26,3.64,2.75,5.12c1.49,1.49,3.47,2.51,5.94,3.07c2.47,0.56,5.34,0.84,8.62,0.84
		c2.01,0,4.1-0.12,6.27-0.35c2.18-0.23,5.23-0.77,9.17-1.62l2.27-7.06c0.93-3.09,1.98-6.25,3.13-9.49
		c-2.65,0.69-4.48,1.11-5.51,1.24c-1.02,0.14-2,0.2-2.92,0.2c-1.24,0-2.33-0.27-3.27-0.81c-0.95-0.54-1.54-1.43-1.77-2.66
		c-0.23-1.23-0.22-2.78,0.04-4.63c0.09-0.62,0.32-2.01,0.7-4.17l2.73-14.47h13.32c0.36-2.59,1.26-7.89,2.7-15.92h-13.2
		C638.07,570.32,639.03,564.88,640.01,559.82z"/>
	<path class="st3" d="M716.1,582.31c-2.66-2.76-6.1-4.87-10.31-6.34c-4.21-1.47-8.71-2.2-13.5-2.2c-5.13,0-10.19,0.82-15.17,2.46
		c-4.98,1.64-9.29,3.99-12.94,7.03c-3.65,3.05-6.49,6.48-8.51,10.31c-2.02,3.82-3.33,7.84-3.92,12.04
		c-0.59,4.21-0.39,8.22,0.59,12.04c0.99,3.82,2.8,7.1,5.45,9.84c2.64,2.74,6.12,4.83,10.44,6.25c4.32,1.43,8.92,2.14,13.82,2.14
		c5.33,0,10.49-0.81,15.48-2.43c5-1.62,9.26-4.06,12.81-7.32c3.54-3.26,6.23-6.75,8.04-10.48c1.82-3.72,3.02-7.65,3.6-11.78
		c0.6-4.24,0.43-8.21-0.5-11.9C720.56,588.3,718.76,585.07,716.1,582.31z M698.8,603.65c-0.41,2.89-1.28,5.61-2.62,8.13
		c-1.34,2.53-3.07,4.44-5.18,5.73c-2.11,1.29-4.39,1.94-6.82,1.94c-3.2,0-5.71-1.13-7.51-3.39c-1.8-2.26-2.41-5.51-1.81-9.76
		c0.41-2.89,1.28-5.57,2.6-8.02c1.33-2.45,3.05-4.31,5.16-5.59c2.11-1.27,4.4-1.91,6.87-1.91c2.35,0,4.33,0.58,5.92,1.74
		c1.59,1.16,2.64,2.7,3.14,4.63C699.05,599.09,699.14,601.25,698.8,603.65z"/>
</g>
<g>
	<polygon points="268.66,852.48 253.03,884.72 237.4,852.48 226.24,852.48 248.02,894.89 248.02,923.94 258.04,923.94 
		258.04,894.89 279.82,852.48 	"/>
	<path d="M302.23,852.48l-26.35,71.46h10.81l5.39-15.68h28.84l5.39,15.68h10.81l-26.35-71.46H302.23z M295.36,898.73l11.15-32.44
		l11.14,32.44H295.36z"/>
	<path d="M413.9,855.2c-3.24-1.82-7-2.73-11.26-2.73H385h-4.87h-5.16v71.46H385v-27.72h17.64c4.26,0,8.01-0.9,11.26-2.7
		c3.24-1.8,5.76-4.35,7.54-7.64c1.79-3.29,2.68-7.12,2.68-11.48c0-4.36-0.89-8.19-2.68-11.5
		C419.66,859.59,417.14,857.02,413.9,855.2z M412.5,880.84c-0.9,1.87-2.17,3.31-3.81,4.33s-3.54,1.52-5.7,1.52H385v-24.67h17.99
		c2.16,0,4.06,0.52,5.7,1.55c1.64,1.03,2.91,2.48,3.81,4.35c0.9,1.87,1.35,4.03,1.35,6.49C413.85,876.82,413.4,878.97,412.5,880.84z
		"/>
	<path d="M452.68,852.48l-26.35,71.46h10.81l5.39-15.68h28.84l5.39,15.68h10.81l-26.35-71.46H452.68z M445.81,898.73l11.15-32.44
		l11.14,32.44H445.81z"/>
	<path d="M518.54,895.04h14.5v3.1c0,3.47-0.61,6.47-1.82,8.99c-1.21,2.52-2.93,4.45-5.16,5.78c-2.23,1.33-4.82,1.99-7.77,1.99
		c-2.98,0-5.61-0.64-7.89-1.92c-2.28-1.28-4.04-3.07-5.28-5.38c-1.25-2.31-1.87-5.01-1.87-8.09v-21.08c0-3.37,0.61-6.33,1.82-8.87
		c1.21-2.54,2.93-4.51,5.16-5.92c2.23-1.41,4.82-2.11,7.77-2.11c2.03,0,4,0.45,5.9,1.35c1.9,0.9,3.56,2.21,4.96,3.93
		c1.41,1.72,2.41,3.78,3,6.17h10.86c-0.82-4.23-2.39-7.95-4.72-11.16c-2.33-3.21-5.22-5.69-8.68-7.45
		c-3.46-1.75-7.23-2.63-11.33-2.63c-4.98,0-9.36,1.11-13.15,3.32c-3.78,2.21-6.71,5.33-8.77,9.36c-2.06,4.03-3.1,8.7-3.1,14.01
		v21.08c0,5.01,1.05,9.42,3.15,13.22c2.1,3.8,5.05,6.74,8.87,8.82c3.82,2.08,8.25,3.12,13.29,3.12c4.98,0,9.36-1.11,13.15-3.32
		c3.78-2.21,6.71-5.34,8.77-9.39c2.06-4.05,3.1-8.72,3.1-14.03v-12.48h-24.77V895.04z"/>
	<path d="M594.38,855.01c-3.8-2.18-8.19-3.27-13.17-3.27c-4.98,0-9.37,1.09-13.17,3.27c-3.8,2.18-6.74,5.26-8.82,9.24
		s-3.12,8.59-3.12,13.84v20.25c0,5.24,1.04,9.85,3.12,13.84s5.02,7.06,8.82,9.24c3.8,2.18,8.19,3.27,13.17,3.27
		c4.98,0,9.37-1.09,13.17-3.27c3.8-2.18,6.74-5.26,8.82-9.24c2.08-3.98,3.12-8.59,3.12-13.84v-20.25c0-5.24-1.04-9.85-3.12-13.84
		C601.12,860.27,598.18,857.19,594.38,855.01z M596.05,898.68c0,3.21-0.62,6.04-1.84,8.48c-1.23,2.44-2.97,4.32-5.21,5.65
		c-2.24,1.33-4.84,1.99-7.79,1.99c-2.95,0-5.55-0.66-7.79-1.99c-2.24-1.33-3.98-3.21-5.21-5.65c-1.23-2.44-1.84-5.27-1.84-8.48
		v-20.94c0-3.21,0.61-6.04,1.84-8.48c1.23-2.44,2.96-4.32,5.21-5.65c2.24-1.33,4.84-1.99,7.79-1.99c2.95,0,5.55,0.66,7.79,1.99
		c2.24,1.33,3.98,3.21,5.21,5.65c1.23,2.44,1.84,5.27,1.84,8.48V898.68z"/>
	<polygon points="596.64,836.45 590.15,829.72 576.59,841.76 582.14,847.56 	"/>
</g>
</svg>
