<?xml version="1.0" encoding="utf-8"?>
<!-- Generator: Adobe Illustrator 25.3.0, SVG Export Plug-In . SVG Version: 6.00 Build 0)  -->
<svg version="1.1" id="Layer_1" xmlns="http://www.w3.org/2000/svg" xmlns:xlink="http://www.w3.org/1999/xlink" x="0px" y="0px"
	 viewBox="0 0 841.89 1190.55" style="enable-background:new 0 0 841.89 1190.55;" xml:space="preserve">
<style type="text/css">
	.st0{fill:#00724E;}
	.st1{fill:#FFFFFF;}
</style>
<g>
	<path class="st0" d="M139.19,595.27c0-156.64,126.98-283.64,283.64-283.64c156.65,0,283.63,127,283.63,283.64
		c0,156.65-126.99,283.64-283.63,283.64C266.17,878.92,139.19,751.93,139.19,595.27"/>
	<path class="st1" d="M147.56,595.27c0-152.02,123.24-275.27,275.28-275.27c152.03,0,275.28,123.25,275.28,275.27
		c0,152.03-123.25,275.27-275.28,275.27C270.8,870.55,147.56,747.3,147.56,595.27"/>
	<path class="st0" d="M156.52,595.27c0-147.07,119.23-266.3,266.31-266.3c147.07,0,266.31,119.23,266.31,266.3
		c0,147.08-119.23,266.31-266.31,266.31C275.75,861.58,156.52,742.36,156.52,595.27"/>
	<g>
		<path class="st1" d="M242.36,529.38c0.23-0.01,0.42,0.08,0.57,0.25c0.16,0.18,0.27,0.35,0.34,0.54c0.28,1.24,0.42,3.26,0.42,6.05
			c-0.01,2.8-0.42,6.03-1.24,9.71c-1.21,5.44-2.99,9.98-5.34,13.63c-2.35,3.65-5.05,6.47-8.1,8.48c-3.05,2.01-6.35,3.27-9.91,3.8
			c-3.56,0.52-7.15,0.38-10.77-0.42c-4.69-1.04-8.63-2.81-11.83-5.32c-3.19-2.5-5.68-5.49-7.45-8.96c-1.77-3.47-2.84-7.29-3.2-11.45
			c-0.36-4.16-0.05-8.46,0.94-12.89c0.78-3.52,1.73-6.58,2.84-9.19c1.11-2.61,2.19-4.49,3.23-5.66c0.31-0.38,0.72-0.46,1.23-0.23
			l10.6,5.55c0.24,0.17,0.41,0.38,0.48,0.65c0.08,0.27,0.04,0.53-0.13,0.77c-0.87,1.15-1.71,2.6-2.52,4.35
			c-0.81,1.75-1.48,3.83-2.01,6.22c-0.46,2.08-0.62,4.11-0.48,6.1c0.15,1.99,0.65,3.82,1.51,5.5c0.86,1.67,2.07,3.13,3.64,4.38
			c1.57,1.24,3.58,2.14,6.03,2.68c4.21,0.94,7.96,0.33,11.23-1.82c3.28-2.15,5.48-5.79,6.62-10.91c0.44-1.97,0.7-3.97,0.79-5.99
			c0.09-2.02,0.02-3.67-0.2-4.95c-0.05-0.29,0.02-0.54,0.21-0.75c0.19-0.21,0.45-0.33,0.8-0.37L242.36,529.38z"/>
		<path class="st1" d="M199.7,500.07c-0.43-0.23-0.57-0.61-0.41-1.15c0.69-1.98,1.69-4.47,3.01-7.45c1.32-2.98,2.94-6.28,4.87-9.89
			c2.19-4.09,4.33-7.35,6.43-9.76c2.09-2.41,4.32-4.19,6.67-5.35c2.03-1.02,4.21-1.51,6.55-1.47c2.33,0.04,4.75,0.73,7.26,2.07
			c1.44,0.77,2.66,1.74,3.66,2.89c1,1.15,1.78,2.35,2.36,3.58c0.58,1.24,0.99,2.5,1.23,3.77c0.25,1.28,0.33,2.45,0.25,3.53
			c1.49-0.81,3.16-1.27,5-1.37c1.85-0.09,3.83,0.02,5.95,0.35c1.31,0.21,2.68,0.46,4.1,0.75c1.42,0.3,2.82,0.6,4.21,0.9
			c1.56,0.34,3.05,0.67,4.48,1c1.43,0.33,2.41,0.48,2.92,0.45c0.37,0.01,0.63,0.15,0.79,0.43c0.16,0.27,0.14,0.6-0.06,0.99
			l-7.15,13.36c-0.18,0.34-0.47,0.53-0.86,0.56c-0.88,0.03-2.37-0.12-4.46-0.43c-2.09-0.31-4.92-0.9-8.49-1.75
			c-1.48-0.36-2.73-0.54-3.74-0.56c-1.01-0.02-1.88,0.13-2.6,0.42c-0.72,0.3-1.35,0.76-1.91,1.4c-0.55,0.63-1.09,1.43-1.6,2.39
			l-0.81,1.52l16.69,8.93c0.58,0.31,0.71,0.75,0.4,1.33l-6.96,13c-0.31,0.58-0.75,0.71-1.33,0.4L199.7,500.07z M226.44,495.42
			l1.62-3.03c1.24-2.31,1.78-4.36,1.62-6.15c-0.16-1.79-0.98-3.08-2.48-3.88c-1.54-0.82-2.98-0.88-4.32-0.17
			c-1.34,0.71-2.54,2.05-3.59,4.02c-0.62,1.16-1.1,2.05-1.43,2.67c-0.34,0.63-0.56,1.16-0.67,1.59L226.44,495.42z"/>
		<path class="st1" d="M240.13,434.29c0.38-0.46,0.83-0.49,1.33-0.07l41.14,33.95c0.51,0.42,0.57,0.86,0.18,1.32l-9.54,11.56
			c-0.38,0.46-0.83,0.49-1.33,0.07l-41.14-33.95c-0.51-0.42-0.57-0.86-0.18-1.32L240.13,434.29z"/>
		<path class="st1" d="M278.58,449.61c-0.12-0.32-0.14-0.61-0.03-0.88c0.1-0.26,0.31-0.42,0.63-0.47c1.9-0.44,4.11-1.21,6.61-2.29
			c2.51-1.08,4.91-2.59,7.23-4.5c3.36-2.79,4.35-5.02,2.95-6.71c-1.01-1.22-4.11-0.67-9.29,1.64c-2.18,0.96-4.41,1.72-6.67,2.29
			c-2.26,0.57-4.47,0.82-6.62,0.75c-2.15-0.06-4.17-0.51-6.07-1.35c-1.9-0.84-3.62-2.18-5.15-4.03c-1.64-1.98-2.73-4.14-3.26-6.5
			c-0.54-2.36-0.52-4.8,0.04-7.33c0.57-2.53,1.68-5.05,3.35-7.57c1.67-2.52,3.89-4.93,6.67-7.23c2.9-2.41,5.55-4.24,7.93-5.51
			c2.39-1.27,4.68-2.21,6.87-2.82c0.56-0.18,0.95-0.01,1.17,0.52l4.83,11.21c0.29,0.69,0.09,1.13-0.59,1.34
			c-1.32,0.38-3,1.02-5.07,1.91c-2.06,0.89-4.23,2.28-6.5,4.16c-1.47,1.22-2.46,2.34-2.96,3.36c-0.5,1.02-0.46,1.89,0.14,2.6
			c0.7,0.84,1.86,1,3.48,0.47c1.62-0.53,4.04-1.45,7.27-2.78c5.24-2.15,9.75-2.98,13.53-2.49c3.77,0.49,7.02,2.37,9.74,5.65
			c1.5,1.81,2.58,3.86,3.24,6.15c0.66,2.29,0.75,4.74,0.28,7.33c-0.48,2.59-1.61,5.29-3.4,8.09c-1.79,2.8-4.39,5.61-7.8,8.44
			c-1.39,1.15-2.82,2.2-4.31,3.15c-1.49,0.95-2.95,1.77-4.39,2.47c-1.44,0.7-2.79,1.28-4.03,1.75c-1.25,0.47-2.34,0.81-3.3,1.03
			c-0.24,0.06-0.47,0.03-0.69-0.06c-0.22-0.1-0.37-0.23-0.43-0.39L278.58,449.61z"/>
		<path class="st1" d="M317.32,391.38l-12.82,6.04c-0.54,0.26-0.94,0.11-1.2-0.43l-5.2-11.04c-0.28-0.59-0.15-1.02,0.4-1.27
			l41.06-19.35c0.59-0.28,1.03-0.12,1.31,0.47l5.2,11.04c0.26,0.54,0.09,0.95-0.5,1.23l-12.97,6.11l17.15,36.39
			c0.28,0.59,0.12,1.03-0.47,1.31l-13.56,6.39c-0.54,0.26-0.95,0.09-1.23-0.51L317.32,391.38z"/>
		<path class="st1" d="M381.79,409.97c-3.81-0.9-7.13-2.41-9.98-4.53c-2.85-2.12-5.19-4.78-7.02-7.99
			c-1.83-3.21-3.03-6.79-3.61-10.73c-0.61-4.16-0.46-8.1,0.45-11.83c0.91-3.72,2.48-7.05,4.7-9.97c2.22-2.92,5.06-5.37,8.52-7.34
			c3.46-1.97,7.44-3.29,11.92-3.95c4.59-0.68,8.82-0.58,12.67,0.29c3.85,0.87,7.22,2.36,10.1,4.47c2.88,2.12,5.23,4.78,7.06,7.99
			c1.83,3.21,3.04,6.84,3.63,10.89c0.61,4.16,0.47,8.09-0.42,11.78c-0.89,3.69-2.46,7-4.71,9.93c-2.25,2.93-5.13,5.38-8.65,7.36
			c-3.52,1.98-7.6,3.31-12.25,4C389.74,411,385.6,410.88,381.79,409.97z M397.72,395c1.37-0.98,2.48-2.2,3.31-3.68
			c0.83-1.47,1.38-3.16,1.66-5.05c0.27-1.89,0.25-3.89-0.06-6c-0.32-2.16-0.9-4.12-1.73-5.87c-0.84-1.75-1.87-3.23-3.1-4.43
			c-1.23-1.2-2.64-2.07-4.23-2.61c-1.6-0.54-3.32-0.67-5.15-0.4c-1.84,0.27-3.44,0.89-4.82,1.87c-1.38,0.98-2.48,2.22-3.3,3.72
			c-0.83,1.5-1.39,3.21-1.69,5.13c-0.3,1.92-0.29,3.96,0.03,6.12c0.31,2.11,0.88,4.02,1.72,5.75c0.83,1.73,1.86,3.18,3.08,4.35
			c1.22,1.17,2.63,2.03,4.23,2.56c1.6,0.54,3.31,0.67,5.15,0.4C394.71,396.6,396.35,395.97,397.72,395z"/>
		<path class="st1" d="M498.16,400.09c0.37-1.43,0.71-2.64,1.01-3.63c0.32-1.05,0.63-2.13,0.95-3.27c0.31-1.13,0.67-2.39,1.06-3.79
			c0.39-1.39,0.88-3.14,1.46-5.25c-1.56,2.5-3.14,4.95-4.76,7.38c-1.62,2.42-3.15,4.7-4.59,6.83l0.1-0.05
			c-1.82,2.82-3.67,5.61-5.54,8.38c-1.87,2.77-3.72,5.59-5.56,8.46c-0.23,0.39-0.61,0.5-1.13,0.34l-11.45-3.47
			c-0.52-0.16-0.77-0.46-0.75-0.91l1.04-19.8c0.06-1.69,0.12-3.04,0.2-4.05c0.08-1,0.14-1.97,0.19-2.89
			c0.05-0.93,0.14-1.98,0.28-3.17c0.13-1.19,0.3-2.78,0.5-4.77c-0.42,1.19-0.76,2.17-1.02,2.94c-0.27,0.78-0.6,1.73-1,2.87
			c-0.47,1.34-0.95,2.75-1.45,4.23c-0.5,1.47-0.96,2.8-1.38,3.99l-6.53,18.74c-0.08,0.26-0.22,0.46-0.44,0.6
			c-0.21,0.14-0.45,0.16-0.71,0.08l-13.49-4.09c-0.63-0.19-0.84-0.62-0.63-1.3l18.37-50.16c0.08-0.26,0.23-0.44,0.46-0.54
			c0.23-0.1,0.45-0.12,0.66-0.06l20.46,6.2c0.52,0.16,0.76,0.49,0.73,0.99l-0.45,13.9c-0.11,2.42-0.27,5.07-0.48,7.94
			c-0.22,2.87-0.48,5.78-0.8,8.7c1.57-2.55,3.17-5.13,4.79-7.75c1.62-2.62,3.09-4.87,4.4-6.76l-0.02,0.08
			c1.33-1.94,2.65-3.85,3.96-5.73c1.31-1.88,2.61-3.8,3.88-5.76c0.1-0.14,0.25-0.27,0.46-0.37c0.2-0.11,0.41-0.13,0.62-0.07
			l19.92,6.03c0.26,0.08,0.46,0.22,0.6,0.44c0.14,0.21,0.16,0.45,0.08,0.71l-13.11,51.76c-0.21,0.68-0.62,0.92-1.25,0.73l-14.19-4.3
			c-0.26-0.08-0.46-0.24-0.58-0.48c-0.13-0.24-0.15-0.49-0.07-0.75L498.16,400.09z"/>
		<path class="st1" d="M555.36,391.58c0.53,0.38,0.61,0.84,0.22,1.37l-16.92,23.55c-2.29,3.19-3.54,6.14-3.72,8.83
			c-0.19,2.69,0.99,4.95,3.51,6.76c2.53,1.82,5.01,2.24,7.46,1.27c2.44-0.97,4.86-3.11,7.25-6.44l16.92-23.55
			c0.38-0.53,0.84-0.61,1.37-0.22l12.18,8.75c0.49,0.35,0.54,0.79,0.16,1.32l-16.68,23.22c-5.26,7.32-11.05,11.42-17.36,12.29
			c-6.31,0.88-12.89-1.14-19.72-6.05c-3.24-2.33-5.82-4.82-7.74-7.48c-1.92-2.66-3.11-5.52-3.58-8.57c-0.46-3.06-0.15-6.3,0.93-9.72
			c1.08-3.43,3.01-7.07,5.78-10.93l16.45-22.89c0.38-0.53,0.82-0.62,1.31-0.27L555.36,391.58z"/>
		<path class="st1" d="M596.37,426.81c0.38-0.31,0.79-0.28,1.22,0.08c1.55,1.41,3.44,3.31,5.66,5.7c2.22,2.38,4.62,5.17,7.18,8.37
			c2.9,3.62,5.05,6.87,6.44,9.75c1.39,2.87,2.16,5.62,2.3,8.24c0.14,2.27-0.27,4.47-1.22,6.6c-0.95,2.13-2.54,4.08-4.76,5.86
			c-1.28,1.02-2.64,1.77-4.09,2.23c-1.45,0.46-2.86,0.71-4.22,0.76c-1.37,0.04-2.68-0.07-3.95-0.35c-1.27-0.28-2.39-0.66-3.34-1.16
			c0.16,1.69-0.08,3.4-0.71,5.14c-0.64,1.74-1.53,3.51-2.66,5.33c-0.71,1.13-1.48,2.28-2.31,3.47c-0.83,1.19-1.66,2.36-2.49,3.51
			c-0.92,1.3-1.82,2.54-2.68,3.72c-0.87,1.19-1.39,2.02-1.56,2.51c-0.15,0.33-0.39,0.52-0.7,0.56c-0.32,0.04-0.61-0.11-0.88-0.45
			l-9.48-11.83c-0.24-0.3-0.3-0.64-0.18-1.01c0.32-0.82,1.04-2.13,2.15-3.93c1.11-1.8,2.76-4.17,4.95-7.12
			c0.91-1.22,1.57-2.29,1.99-3.22c0.41-0.93,0.62-1.78,0.63-2.55c0.01-0.78-0.17-1.54-0.53-2.3c-0.36-0.76-0.89-1.57-1.57-2.42
			l-1.08-1.34l-14.77,11.83c-0.51,0.41-0.97,0.36-1.38-0.15l-9.22-11.51c-0.41-0.51-0.36-0.97,0.15-1.38L596.37,426.81z
			 M590.13,453.22l2.15,2.69c1.64,2.05,3.31,3.35,5.02,3.91c1.71,0.56,3.22,0.31,4.54-0.75c1.36-1.09,1.98-2.39,1.86-3.9
			c-0.12-1.51-0.89-3.14-2.29-4.89c-0.82-1.02-1.45-1.81-1.9-2.37c-0.44-0.55-0.85-0.97-1.2-1.24L590.13,453.22z"/>
		<path class="st1" d="M640.93,489.79c0.28,0.53,0.12,0.95-0.46,1.25l-47.39,24.47c-0.58,0.3-1.01,0.18-1.29-0.35l-6.88-13.32
			c-0.28-0.53-0.12-0.95,0.46-1.25l47.39-24.47c0.58-0.3,1.01-0.18,1.29,0.35L640.93,489.79z"/>
		<path class="st1" d="M673.57,546.8c0.11,0.42,0.01,0.76-0.3,1c-0.3,0.25-0.66,0.25-1.05,0.01l-12.32-6.71
			c-0.12-0.03-0.22-0.1-0.31-0.22c-0.09-0.12-0.14-0.23-0.17-0.34l-1.35-5.4c1.13,4.5,1.45,8.72,0.97,12.64
			c-0.48,3.92-1.63,7.42-3.45,10.49c-1.82,3.07-4.24,5.68-7.25,7.81c-3.01,2.13-6.51,3.7-10.48,4.7c-4.08,1.02-8,1.27-11.76,0.75
			c-3.76-0.52-7.21-1.75-10.34-3.7c-3.13-1.95-5.86-4.57-8.18-7.87c-2.32-3.3-4.05-7.23-5.19-11.79c-1.1-4.4-1.39-8.53-0.87-12.41
			c0.52-3.88,1.69-7.34,3.52-10.38c1.83-3.05,4.25-5.64,7.26-7.77c3.01-2.14,6.45-3.69,10.32-4.66c4.08-1.02,8.02-1.26,11.81-0.72
			c3.79,0.54,7.26,1.77,10.38,3.69c3.13,1.92,5.84,4.5,8.15,7.75c2.31,3.25,4.01,7.07,5.11,11.47l-1.65-6.6
			c-0.11-0.42-0.03-0.75,0.22-0.98c0.25-0.23,0.59-0.29,1.01-0.17l11.59,3.77c0.33,0.2,0.53,0.43,0.6,0.69L673.57,546.8z
			 M617.99,550.13c1.11,1.27,2.43,2.25,3.99,2.93c1.55,0.68,3.28,1.06,5.19,1.15c1.91,0.08,3.89-0.13,5.96-0.65
			c2.12-0.53,4.01-1.3,5.67-2.31c1.66-1.01,3.03-2.18,4.1-3.52c1.07-1.34,1.8-2.83,2.17-4.47c0.38-1.64,0.34-3.37-0.11-5.17
			c-0.45-1.8-1.23-3.34-2.34-4.61c-1.11-1.27-2.45-2.24-4.03-2.92c-1.58-0.68-3.34-1.06-5.28-1.17c-1.94-0.1-3.97,0.11-6.09,0.64
			c-2.07,0.52-3.92,1.28-5.55,2.28c-1.64,1-2.98,2.17-4.02,3.5c-1.05,1.33-1.76,2.82-2.13,4.46c-0.38,1.64-0.34,3.36,0.11,5.17
			C616.1,547.29,616.88,548.86,617.99,550.13z"/>
	</g>
	<g>
		<path class="st1" d="M298.28,736.28c0.29-0.42,0.7-0.52,1.23-0.29c1.97,0.94,4.38,2.22,7.22,3.86c2.84,1.63,6.32,3.86,10.44,6.69
			c3.51,2.41,6.29,4.83,8.34,7.26c2.05,2.44,3.51,4.78,4.38,7.02c0.8,2.34,1.08,4.96,0.82,7.84c-0.26,2.89-1.28,5.64-3.08,8.27
			c-1.54,2.25-3.44,4.15-5.71,5.69c-2.26,1.55-4.63,2.47-7.11,2.77c-3.25,0.32-6.62-0.08-10.12-1.2c-3.5-1.12-7.03-2.9-10.59-5.34
			c-0.47-0.32-0.94-0.64-1.41-0.96c-0.47-0.32-0.87-0.63-1.22-0.94l-9.82,14.33c-0.38,0.56-0.83,0.67-1.35,0.31l-12.72-8.71
			c-0.56-0.38-0.65-0.86-0.27-1.42L298.28,736.28z M299.23,765.64c0.34,0.3,0.68,0.57,1.01,0.79c0.37,0.26,0.87,0.59,1.48,1.01
			c2.25,1.54,4.43,2.33,6.54,2.36c2.11,0.03,3.77-0.84,4.99-2.62c0.99-1.45,1.22-2.98,0.67-4.6c-0.55-1.61-1.97-3.21-4.26-4.78
			c-0.8-0.55-1.48-1.01-2.04-1.4c-0.56-0.39-1.06-0.66-1.5-0.82L299.23,765.64z"/>
		<path class="st1" d="M337.75,821.22c-3.16-2.55-5.61-5.47-7.33-8.73c-1.72-3.27-2.72-6.82-2.99-10.64
			c-0.27-3.83,0.21-7.72,1.43-11.68c1.29-4.18,3.2-7.8,5.74-10.89c2.53-3.08,5.49-5.49,8.88-7.23c3.39-1.74,7.16-2.76,11.29-3.06
			c4.13-0.29,8.45,0.25,12.95,1.65c4.61,1.43,8.53,3.41,11.75,5.96c3.22,2.55,5.71,5.46,7.46,8.73c1.75,3.28,2.76,6.83,3.03,10.66
			c0.27,3.83-0.22,7.78-1.49,11.84c-1.29,4.18-3.19,7.8-5.68,10.86c-2.49,3.06-5.45,5.46-8.87,7.19c-3.42,1.73-7.22,2.74-11.41,3.02
			c-4.19,0.28-8.61-0.31-13.28-1.75C344.74,825.74,340.91,823.77,337.75,821.22z M359.41,814.33c1.73-0.3,3.31-0.95,4.75-1.96
			c1.44-1.01,2.72-2.34,3.82-3.99c1.1-1.65,1.99-3.53,2.64-5.65c0.67-2.17,1.01-4.26,1.01-6.28c0-2.02-0.3-3.87-0.91-5.54
			c-0.61-1.67-1.54-3.12-2.8-4.34c-1.26-1.22-2.81-2.12-4.65-2.69c-1.84-0.57-3.63-0.71-5.36-0.41c-1.73,0.3-3.32,0.97-4.77,2
			c-1.45,1.04-2.75,2.39-3.89,4.06c-1.14,1.67-2.05,3.59-2.72,5.76c-0.66,2.11-0.98,4.17-0.97,6.16c0.01,1.99,0.32,3.81,0.94,5.46
			c0.62,1.65,1.56,3.08,2.81,4.3c1.26,1.22,2.81,2.12,4.65,2.69C355.87,814.48,357.68,814.63,359.41,814.33z"/>
		<path class="st1" d="M400.32,781.06c0.01-0.51,0.3-0.82,0.87-0.92c2.16-0.31,4.93-0.56,8.32-0.76c3.38-0.2,7.2-0.27,11.46-0.2
			c4.82,0.08,8.85,0.51,12.07,1.3c3.22,0.79,5.93,2,8.12,3.62c1.91,1.39,3.4,3.18,4.47,5.35c1.07,2.18,1.58,4.74,1.54,7.69
			c-0.03,1.7-0.34,3.29-0.93,4.75c-0.59,1.47-1.32,2.76-2.19,3.88c-0.87,1.12-1.84,2.1-2.9,2.93c-1.07,0.83-2.11,1.47-3.14,1.91
			c1.46,0.99,2.67,2.32,3.64,3.98c0.97,1.66,1.8,3.55,2.51,5.66c0.43,1.31,0.85,2.7,1.25,4.15c0.4,1.45,0.79,2.9,1.17,4.32
			c0.43,1.6,0.83,3.14,1.2,4.62c0.37,1.48,0.7,2.45,0.98,2.91c0.16,0.34,0.16,0.66-0.02,0.94c-0.18,0.28-0.49,0.42-0.94,0.41
			l-15.75-0.25c-0.4-0.01-0.71-0.18-0.93-0.53c-0.44-0.8-1.01-2.24-1.72-4.33c-0.7-2.08-1.51-4.98-2.41-8.68
			c-0.37-1.54-0.79-2.78-1.26-3.73c-0.47-0.94-1.01-1.68-1.63-2.2c-0.62-0.52-1.35-0.89-2.2-1.1c-0.85-0.21-1.84-0.33-2.98-0.35
			l-1.79-0.03l-0.32,19.67c-0.01,0.68-0.36,1.02-1.04,1.01l-15.33-0.25c-0.68-0.01-1.02-0.36-1.01-1.04L400.32,781.06z
			 M417.33,803.57l3.58,0.06c2.73,0.04,4.88-0.43,6.45-1.43c1.58-1,2.38-2.37,2.41-4.13c0.03-1.82-0.6-3.18-1.89-4.08
			c-1.29-0.9-3.1-1.37-5.43-1.41c-1.36-0.02-2.41-0.04-3.15-0.05c-0.74-0.01-1.34,0.04-1.79,0.14L417.33,803.57z"/>
		<path class="st1" d="M527.18,789.91c-0.67-1.38-1.22-2.56-1.66-3.55c-0.46-1.04-0.95-2.11-1.47-3.22c-0.52-1.1-1.1-2.34-1.73-3.7
			c-0.63-1.36-1.44-3.07-2.41-5.13c0.47,3.02,0.88,6.04,1.25,9.04c0.36,3,0.7,5.84,1.01,8.49l0.04-0.11
			c0.47,3.46,0.91,6.91,1.32,10.36s0.86,6.93,1.35,10.44c0.08,0.46-0.14,0.81-0.66,1.04l-11.37,5.03c-0.52,0.23-0.92,0.16-1.21-0.21
			l-12.61-16.31c-1.11-1.37-1.97-2.48-2.59-3.33c-0.62-0.84-1.23-1.65-1.81-2.41c-0.59-0.76-1.23-1.66-1.93-2.68
			c-0.7-1.02-1.65-2.39-2.84-4.1c0.48,1.22,0.87,2.22,1.19,3.01c0.32,0.79,0.7,1.77,1.16,2.93c0.54,1.37,1.12,2.81,1.72,4.31
			c0.6,1.5,1.14,2.86,1.62,4.08l7.55,19.2c0.11,0.26,0.13,0.52,0.06,0.77c-0.07,0.25-0.24,0.43-0.5,0.55l-13.4,5.92
			c-0.62,0.28-1.08,0.08-1.38-0.6l-19.54-51.99c-0.11-0.26-0.12-0.51,0-0.74c0.11-0.24,0.27-0.4,0.48-0.49l20.33-8.99
			c0.52-0.23,0.93-0.13,1.24,0.29l9.07,11.26c1.56,1.98,3.23,4.18,5.01,6.59c1.78,2.41,3.54,4.88,5.27,7.4
			c-0.49-3.07-0.98-6.19-1.48-9.36c-0.5-3.16-0.87-5.93-1.11-8.31l0.03,0.08c-0.27-2.43-0.52-4.83-0.76-7.2
			c-0.24-2.37-0.52-4.77-0.84-7.17c-0.02-0.18,0.02-0.38,0.1-0.61c0.09-0.22,0.23-0.38,0.44-0.47l19.79-8.75
			c0.26-0.11,0.51-0.13,0.76-0.06c0.25,0.08,0.43,0.24,0.55,0.5l24.75,49.68c0.3,0.68,0.14,1.15-0.49,1.43l-14.1,6.23
			c-0.26,0.12-0.52,0.12-0.78,0.02c-0.26-0.1-0.45-0.28-0.56-0.54L527.18,789.91z"/>
		<path class="st1" d="M542.64,735.55c0.49-0.38,0.95-0.31,1.37,0.23l34.19,43.65c0.42,0.54,0.38,1-0.11,1.38l-12.27,9.61
			c-0.49,0.39-0.95,0.31-1.37-0.23l-34.19-43.65c-0.42-0.54-0.38-1,0.11-1.38L542.64,735.55z"/>
	</g>
	<g>
		<path class="st1" d="M184.42,603.97c0.25,0,0.37,0.12,0.37,0.37v6.98h6.86v-6.98c0-0.25,0.12-0.37,0.37-0.37h5.66
			c0.23,0,0.34,0.12,0.34,0.37v20.12c0,0.25-0.11,0.37-0.34,0.37h-5.66c-0.25,0-0.37-0.12-0.37-0.37v-7.57h-6.86v7.57
			c0,0.25-0.12,0.37-0.37,0.37h-5.66c-0.23,0-0.34-0.12-0.34-0.37v-20.12c0-0.25,0.11-0.37,0.34-0.37H184.42z"/>
		<path class="st1" d="M215.26,616.49c0,0.25-0.11,0.37-0.34,0.37h-7.82v2.72h8.78c0.23,0,0.34,0.11,0.34,0.34v4.54
			c0,0.25-0.11,0.37-0.34,0.37h-14.8c-0.23,0-0.34-0.12-0.34-0.37v-20.12c0-0.25,0.11-0.37,0.34-0.37h14.34
			c0.25,0,0.37,0.12,0.37,0.37v4.54c0,0.23-0.12,0.34-0.37,0.34h-8.31v2.38h7.82c0.23,0,0.34,0.11,0.34,0.34V616.49z"/>
		<path class="st1" d="M219.28,604.59c0-0.06,0.03-0.13,0.09-0.2c0.06-0.07,0.12-0.12,0.19-0.14c0.31-0.06,0.72-0.12,1.22-0.17
			c0.5-0.05,1.07-0.1,1.68-0.14c0.62-0.04,1.27-0.08,1.96-0.11c0.69-0.03,1.38-0.05,2.06-0.05c0.78,0,1.49,0.02,2.12,0.05
			c0.63,0.03,1.2,0.08,1.71,0.14c0.51,0.06,0.99,0.15,1.42,0.26c0.43,0.11,0.85,0.25,1.27,0.42c0.91,0.35,1.68,0.92,2.33,1.7
			c0.65,0.78,0.97,1.75,0.97,2.9c0,0.82-0.2,1.6-0.6,2.33c-0.4,0.73-1.12,1.35-2.15,1.87c1.09,0.43,1.94,1.08,2.53,1.93
			c0.6,0.86,0.9,1.88,0.9,3.07c0,1.05-0.25,1.99-0.74,2.81c-0.49,0.82-1.13,1.5-1.92,2.04c-0.82,0.56-1.95,0.99-3.37,1.3
			c-1.42,0.31-3.28,0.46-5.56,0.46c-1.42,0-2.61-0.04-3.57-0.11c-0.96-0.07-1.71-0.16-2.27-0.26c-0.06-0.02-0.12-0.06-0.19-0.12
			c-0.06-0.06-0.09-0.13-0.09-0.22V604.59z M225.58,611.61h0.83c1.19,0,2.07-0.14,2.63-0.43c0.56-0.29,0.83-0.69,0.83-1.21
			c0-0.95-0.88-1.42-2.63-1.42c-0.41,0-0.75,0-1.02,0c-0.25,0-0.46,0.02-0.65,0.06V611.61z M225.58,620.23
			c0.19,0.02,0.39,0.03,0.62,0.03c0.23,0,0.5,0,0.83,0c0.43,0,0.85-0.04,1.25-0.11c0.4-0.07,0.75-0.2,1.05-0.37
			c0.3-0.17,0.54-0.4,0.71-0.66c0.17-0.27,0.26-0.59,0.26-0.96c0-0.72-0.35-1.24-1.04-1.56c-0.69-0.32-1.55-0.45-2.58-0.39
			l-1.11,0.06V620.23z"/>
		<path class="st1" d="M241.11,624.2c-0.65-0.67-0.97-1.52-0.97-2.55c0-1.05,0.32-1.91,0.97-2.58c0.65-0.67,1.52-1,2.61-1
			c1.09,0,1.96,0.34,2.6,1c0.64,0.67,0.97,1.53,0.99,2.58c0,1.03-0.32,1.88-0.97,2.55c-0.65,0.67-1.52,1-2.61,1
			C242.62,625.2,241.75,624.87,241.11,624.2z"/>
	</g>
	<g>
		<path class="st1" d="M605.1,610.12c-0.58,0.25-1.17,0.51-1.78,0.79c-0.61,0.28-1.18,0.53-1.72,0.76c-0.1,0.04-0.21,0.04-0.31,0
			c-0.1-0.04-0.18-0.12-0.22-0.25l-0.9-4.14c-0.02-0.08-0.01-0.16,0.03-0.25c0.04-0.08,0.1-0.13,0.19-0.15l5.9-2.56h4.6
			c0.25,0,0.37,0.12,0.37,0.37v19.41c0,0.25-0.12,0.37-0.37,0.37h-5.41c-0.23,0-0.34-0.12-0.34-0.37L605.1,610.12z"/>
		<path class="st1" d="M618.65,623.97c-1.08-0.58-1.97-1.34-2.66-2.3c-0.69-0.96-1.19-2.07-1.51-3.32
			c-0.32-1.26-0.48-2.57-0.48-3.96c0-1.36,0.16-2.67,0.48-3.92c0.32-1.26,0.82-2.36,1.51-3.32c0.69-0.96,1.58-1.73,2.66-2.3
			c1.08-0.58,2.38-0.87,3.91-0.87c1.52,0,2.83,0.29,3.91,0.87c1.08,0.58,1.97,1.34,2.66,2.3c0.69,0.96,1.19,2.07,1.51,3.32
			c0.32,1.26,0.48,2.56,0.48,3.92c0,1.38-0.16,2.7-0.48,3.96c-0.32,1.26-0.82,2.36-1.51,3.32c-0.69,0.96-1.58,1.73-2.66,2.3
			c-1.08,0.58-2.38,0.87-3.91,0.87C621.04,624.83,619.73,624.54,618.65,623.97z M624.15,618.68c0.4-0.91,0.6-2.34,0.6-4.3
			c0-1.96-0.2-3.38-0.6-4.28c-0.4-0.9-0.94-1.34-1.62-1.34c-0.66,0-1.2,0.45-1.61,1.34c-0.41,0.9-0.62,2.32-0.62,4.28
			c0,1.96,0.21,3.39,0.62,4.3c0.41,0.91,0.95,1.36,1.61,1.36C623.21,620.04,623.75,619.59,624.15,618.68z"/>
		<path class="st1" d="M634.29,623.83c-0.65-0.67-0.97-1.52-0.97-2.55c0-1.05,0.32-1.91,0.97-2.58c0.65-0.67,1.52-1,2.61-1
			c1.09,0,1.96,0.34,2.6,1c0.64,0.67,0.97,1.53,0.99,2.58c0,1.03-0.32,1.88-0.97,2.55c-0.65,0.67-1.52,1-2.61,1
			C635.81,624.83,634.94,624.5,634.29,623.83z M634.32,614.57c-0.65-0.66-0.97-1.51-0.97-2.56s0.32-1.91,0.97-2.56
			c0.65-0.66,1.52-0.99,2.61-0.99c1.09,0,1.96,0.33,2.6,0.99c0.64,0.66,0.97,1.51,0.99,2.56c0,1.05-0.32,1.91-0.97,2.56
			c-0.65,0.66-1.52,0.99-2.61,0.99C635.84,615.56,634.97,615.23,634.32,614.57z"/>
		<path class="st1" d="M648.67,610.12c-0.58,0.25-1.17,0.51-1.78,0.79c-0.61,0.28-1.18,0.53-1.72,0.76c-0.1,0.04-0.21,0.04-0.31,0
			c-0.1-0.04-0.18-0.12-0.22-0.25l-0.9-4.14c-0.02-0.08-0.01-0.16,0.03-0.25c0.04-0.08,0.1-0.13,0.19-0.15l5.9-2.56h4.6
			c0.25,0,0.37,0.12,0.37,0.37v19.41c0,0.25-0.12,0.37-0.37,0.37h-5.41c-0.23,0-0.34-0.12-0.34-0.37L648.67,610.12z"/>
		<path class="st1" d="M662.22,623.97c-1.08-0.58-1.97-1.34-2.66-2.3c-0.69-0.96-1.19-2.07-1.51-3.32
			c-0.32-1.26-0.48-2.57-0.48-3.96c0-1.36,0.16-2.67,0.48-3.92c0.32-1.26,0.82-2.36,1.51-3.32c0.69-0.96,1.58-1.73,2.66-2.3
			c1.08-0.58,2.38-0.87,3.91-0.87c1.52,0,2.83,0.29,3.91,0.87c1.08,0.58,1.97,1.34,2.66,2.3c0.69,0.96,1.19,2.07,1.51,3.32
			c0.32,1.26,0.48,2.56,0.48,3.92c0,1.38-0.16,2.7-0.48,3.96c-0.32,1.26-0.82,2.36-1.51,3.32c-0.69,0.96-1.58,1.73-2.66,2.3
			c-1.08,0.58-2.38,0.87-3.91,0.87C664.61,624.83,663.31,624.54,662.22,623.97z M667.73,618.68c0.4-0.91,0.6-2.34,0.6-4.3
			c0-1.96-0.2-3.38-0.6-4.28c-0.4-0.9-0.94-1.34-1.62-1.34c-0.66,0-1.19,0.45-1.61,1.34c-0.41,0.9-0.62,2.32-0.62,4.28
			c0,1.96,0.21,3.39,0.62,4.3c0.41,0.91,0.95,1.36,1.61,1.36C666.78,620.04,667.32,619.59,667.73,618.68z"/>
	</g>
	<path class="st1" d="M258.22,594.15c0-90.58,73.42-164,163.99-164c90.57,0,163.99,73.42,163.99,164
		c0,90.57-73.42,163.99-163.99,163.99C331.64,758.14,258.22,684.72,258.22,594.15"/>
	<path d="M576.79,594.14c0,16.76-2.68,32.91-7.62,48.03c-1.39,4.28-2.97,8.48-4.72,12.57c-0.67,1.57-1.36,3.11-2.09,4.64
		c-1.69,3.67-3.54,7.25-5.52,10.74c-1.04,1.85-2.12,3.67-3.25,5.46c-1.94,3.17-4.01,6.24-6.21,9.25c-1.27,1.78-2.6,3.54-3.98,5.25
		c-2.14,2.74-4.39,5.38-6.73,7.96c-28.28,31.14-69.1,50.68-114.47,50.68c-50.4,0-95.16-24.13-123.37-61.45
		c-2.13-2.8-4.16-5.68-6.07-8.62c-1.07-1.61-2.09-3.24-3.08-4.88c-1.89-3.14-3.67-6.35-5.34-9.62c-0.44-0.87-0.89-1.76-1.3-2.65
		c-1.69-3.45-3.24-6.97-4.64-10.56c-0.68-1.7-1.32-3.42-1.92-5.15c-1.42-3.95-2.66-7.97-3.73-12.07
		c-3.36-12.63-5.13-25.9-5.13-39.59c0-85.37,69.21-154.58,154.58-154.58C507.59,439.56,576.79,508.78,576.79,594.14z"/>
	<polygon class="st1" points="378.34,490.99 386.51,474.88 396.5,469.66 403.31,488.27 406.26,471.47 406.26,467.39 409.21,467.39 
		409.21,471.47 416.24,473.97 427.36,495.3 428.49,474.65 440.97,470.79 437.8,492.58 456.4,478.28 469.79,477.83 488.4,487.81 
		476.83,470.34 486.13,458.77 470.02,463.08 461.4,456.95 449.6,437.66 449.37,455.82 428.72,457.4 432.12,439.48 415.11,456.27 
		403.76,456.5 392.64,437.66 391.05,458.09 384.92,463.3 367.68,461.26 375.39,469.66 358.15,482.59 358.15,486.22 376.76,475.1 	
		"/>
	<path class="st1" d="M458.09,510.57c0.96-17.75-6.24-25.42-6.24-25.42l-15.83,10.16l2.4-20.55l-7.84,0.64l-2.56,25.26l-13.11-24.46
		l-6.56-2.72l-4.8,17.43l-2.72-3.2h-3.84c-5.44,6.24-5.92,19.67-5.92,19.67c4.16-3.52,15.83-3.36,15.83-3.36
		c13.59,4.96,11.51,18.39,11.51,18.39c-5.28-7.04-18.07-3.04-18.07-3.04c-2.4-1.76-0.32-4,0.96-4.96
		c1.28-0.96,13.75-0.16,13.75-0.16c-6.4-13.27-24.15-2.4-24.15-2.4c-5.44,22.23,17.11,37.58,17.11,37.58
		c9.11-6.24,16.79-0.8,16.79-0.8s5.44-2.08,9.11-2.4c3.68-0.32,9.65,3.2,9.65,3.2c9.33-14.71,13.85-34.86,13.85-34.86
		c-4.16-4.64-9.91-5.28-9.91-5.28c-13.43-2.4-15.19,6.88-15.19,6.88s7.52-0.96,12.15,0.16c4.64,1.12,3.04,4.64,3.04,4.64
		c-13.91-4.32-18.55,1.92-18.55,1.92C428.83,494.26,458.09,510.57,458.09,510.57z M432.44,538.7c0.47,1.07-1.47,1.51-1.47,1.51
		s-0.8-0.51-2.14,0c-1.34,0.51-1.81,1.37-4.69,1.5c-2.88,0.13-3.89-1.67-3.89-1.67s-1.41,0-3.08-0.33c-1.67-0.33,0-1.01,0-1.01
		l3.22,0.4c0,0,2.48,1.47,4.35,1.61c1.88,0.13,2.41-1.61,4.02-2.41C430.36,537.49,431.97,537.63,432.44,538.7z"/>
	<path class="st1" d="M425.2,558.38c13.32-0.32,13.86-3.68,13.86-3.68s0.96-1.76-3.2-3.45c-4.16-1.69-10.07,1.05-10.07,1.05
		s0,0-5.76-1.92c-5.76-1.92-8.79,2.24-8.79,2.24C412.84,558.7,425.2,558.38,425.2,558.38z"/>
	<path class="st1" d="M387.71,595.07c1.61-7.46,5.34-3.83,10.69-11.29c5.34-7.46,5.05-15.73,4.09-23.29
		c-0.97-7.57-3.62-10.14-10.39-23.67c-6.76-13.53-5.39-28.58-2.9-34.13c2.5-5.55,3.06-11.35,0.88-11.59
		c-2.18-0.24-4.91,7.49-4.91,7.49c-7.9,21.59,0.51,36.9,0.51,36.9c9.57,17.56,8.37,25.1,8.82,28.27c0.45,3.17,0.9,11.38-3.02,17.86
		c-3.92,6.48-7.01,6.93-7.16,10.85C384.18,596.37,387.71,595.07,387.71,595.07z"/>
	<path class="st1" d="M381.79,593.14c0,0,0.66-8.87,7.28-15.79c0,0,5.1-11.62,0-27.47c-5.1-15.84-12.84-19.71-9.37-42.03
		c0,0,5.89-22.52,10.39-28.02c0,0,2.54-2.96,0-3.87c-2.54-0.92-12.42,16.92-14.36,33.73c-1.94,16.81,7.24,38.93,7.03,46.57
		c-0.2,7.64-2.24,15.18-5.3,21.4c-3.06,6.22-1.73,11.92,1.53,15.49C378.99,593.14,380.22,595.89,381.79,593.14z"/>
	<path class="st1" d="M371.65,582.02c0,0,1.14,3.11,2.49,0c1.35-3.11,1.04-6.74,5.08-15.03c4.04-8.29-1.87-28.31-1.87-28.31
		s-7.15-21.77-3.21-33.07c3.94-11.3,2.87-10.47,2-11.2c-0.86-0.73-6.88,7.26-8.74,14.2c-1.87,6.95-2.38,19.88,4.15,33.11
		c6.53,13.23-0.1,29.2-0.21,36.04C371.34,577.77,371.03,580.98,371.65,582.02z"/>
	<path class="st1" d="M468.24,597.19c0,0,3.02,1.68,2.27-3.44c-0.76-5.12-6.55-16.7-6.55-16.7s-7.47-10.57-6.46-20.14
		c1.01-9.57,3.19-16.45,6.38-24.67c2.14-5.52,3.26-11.41,3.66-17.3c0.62-9.07,1.6-22.51-8.18-27.33c0,0-3.67-1.48-1.18,4.08
		c2.48,5.57,4.25,11.04,1.18,25.61c-3.06,14.57-11.32,30.44-10.49,42.32c0.84,11.88,4.08,20.69,15.87,32.67
		C464.74,592.28,466.65,594.42,468.24,597.19z"/>
	<path class="st1" d="M473.75,603.26c2.23,0,3.52-17.97,2.35-25.49c-1.17-7.52-9.3-10.59-7.35-25.95
		c1.96-15.36,10.15-28.77,9.87-39.48c-0.28-10.71-6.52-20.3-6.52-20.3s-4.45-5.9-7.95-8.68c0,0-2.71-1.59-3.44,0
		c-0.73,1.59,0.2,2.64,3.44,5.95c3.24,3.3,5.02,7.93,6.01,18.57c0.99,10.64-4.84,28.2-4.84,28.2s-9.08,17.74-3.32,29.95
		c5.76,12.22,11.04,23.14,10.57,30.07C472.1,603.03,471.52,603.26,473.75,603.26z"/>
	<path class="st1" d="M486.18,514.53c0.66-7.38-3.14-14.61-4.24-16.29c-1.1-1.68-3.65-5.26-4.09-1.46c-0.44,3.8,2.7,6.36,3.21,13.3
		c0.51,6.94-3.65,19.51-3.65,19.51s-6.58,17.83-6.78,25.06c-0.21,7.23,1.98,15.46,5.1,15.05c3.12-0.41,2.9-5.04,2.9-5.04
		c-3.18-13.99,1.49-27.47,1.49-27.47S485.52,521.9,486.18,514.53z"/>
	<path class="st1" d="M444.31,572.29c-3.86,1.48-12.21,3.75-17.57,3.62c-5.36-0.12-15.2-3.86-17.44-3.61c-2.24,0.25-1,4.24-1,4.24
		c1,9.59-1.5,17.82-1.5,17.82s-3.74,20.06,4.43,30.03s16.63,23.92,16.63,23.92c3.86-13.7,19.44-32.89,16.7-47.34
		c-2.74-14.45,2.12-24.67,2.37-26.04C447.18,573.55,448.17,570.81,444.31,572.29z M426.1,629.37c0,0-14.31-12.42-12.06-19.28
		c2.25-6.86,12.06,0,12.06,0s7.63-7.72,11.94-0.66C438.05,609.42,440.98,614.38,426.1,629.37z"/>
	<path class="st1" d="M403.04,626.88c4.62,12.67,15.77,24.52,19.21,32.79c3.44,8.27,3.79,25.76,3.79,25.76s4.47-8.95,7.37-22.87
		c2.89-13.91,13.92-30.53,16.19-35.17c2.27-4.64,4.15-8.59,1.09-26.47c-3.06-17.88,3.36-18.08,1.28-21.33c-2.07-3.26-4.12,0-4.12,0
		c-4.32,8.59-0.32,20.64-0.03,26.27c0.3,5.63-2.14,9.57-2.14,9.57c-6.94,10.96-18.33,40.12-18.33,40.12
		c-2.04-11.38-7.19-15.24-17.28-28.34c-10.09-13.1-6.33-27.37-6.33-27.37C395.56,604.09,398.42,614.21,403.04,626.88z"/>
	<path class="st1" d="M403.61,634.32c-4.28-8.02-4.49-9.41-4.49-9.41s-3.74,1.07,1.07,14.87c4.81,13.8,8.34,22.25,9.95,35.3
		c1.6,13.05,11.45,21.07,11.45,21.07s3.57-18.28,0-31.13C418.01,652.17,407.89,642.34,403.61,634.32z"/>
	<path class="st1" d="M457.02,631.79c0-0.12,5.77-26.03,3.64-34.94l-1.92-6.88c0,0-7.23,2.23-6.35,12.14
		c0.32,3.59,1.28,7.08,1.63,10.66c0.38,3.84,0.23,7.74-0.65,11.51c-0.9,3.91-2.81,7.15-4.71,10.64c-1.39,2.55-2.73,5.12-4,7.73
		c-3.02,6.18-5.76,12.56-7.69,19.18c-4.66,15.99-9.71,29.55-9.71,30.06c0,0.51-2.27,5.26-1.79,9.82c0,0,10.49-20.04,16.87-35.72
		C448.72,650.28,457.02,631.91,457.02,631.79z"/>
	<path class="st1" d="M468.32,712.66c-4.26-0.23-5.75,3.57-11.39-0.11c-5.64-3.68-8.05-20.94-6.21-34.28
		c1.84-13.35,7.59-25.42,19.21-24.85c11.62,0.58,17.14,12.31,22.43,13.46c5.29,1.15,3.57-5.18,2.88-7.71
		c-0.69-2.53-11.16-25.19-11.73-33.71s0.21-19.67,2.75-29.68c2.54-10.01,3.22-22.1-4.6-26.47c0,0,1.05,18.54-2.28,26.15
		c-3.33,7.61-8.75,18.06-8.75,18.06s0.1-12.84-6.27-16.92c0,0-0.95,23.35-4.26,37.61c0,0-6.63,14.58-12.86,25.58
		c-6.23,10.99-12.27,51.61,3.49,60.59c0,0,12.65,6.33,21.51-4.26C472.23,716.11,472.57,712.89,468.32,712.66z"/>
	<path class="st1" d="M466.46,661.85c4.33-1.41,8.84,0.97,10.08-1.33c1.24-2.3-0.8-4.42-3.54-5.3c-2.74-0.88-9.9-0.88-15.29,8.13
		c0,0-4.77,9.19-1.94,10.25C458.59,674.67,462.12,663.27,466.46,661.85z"/>
	<path class="st1" d="M456.47,681.39c1.41-4.15,0.53-5.48-0.97-5.66c0,0-4.42,3.62-2.3,7.6
		C453.2,683.33,455.05,685.54,456.47,681.39z"/>
	<path class="st1" d="M461.59,709.41c7.25-0.88,6.45-4.51,3.09-6.28c-3.36-1.77-5.82-4.16-7.51-10.25c-1.68-6.1-0.18-6.98-3.01-6.98
		c0,0-1.33-0.53-1.55,5.13C452.4,696.68,454.34,710.3,461.59,709.41z"/>
	<path class="st1" d="M501.06,690.39l-2.88-1.79l-3.03,4.74l-0.24-1.96l1.71-4.11l-6-6.52c0,0,7.46,0.47,11.57-3.7
		c4.11-4.17,4.64-8.05,3.05-9.75c-1.59-1.7-5.11-1.41-6.52,0.06c-1.41,1.47-4.4,2.7-5.17,2.82c-0.76,0.12-6-0.29-6-0.29
		s-5.28-0.11-8.41-2.77c0,0-11.54-3.73-15.9,8.61c0,0-0.38,2.02,0,3.16c0,0-5.67,1.53-3.37,9.71c2.3,8.18,5.84,12.15,13.59,17.62
		c0,0,9.85,15.5,16.05,17.6c0,0,5.65,0.82,4.29-3.37c-1.37-4.2-6.2-2.1-6.2-2.1s3.47-1.73,2.83-3.47c-0.64-1.73-4.2-4.56-4.2-4.56
		s3.65,1.92,5.84,4.56c2.19,2.64,5.2,6.38,7.84,7.75c2.64,1.37,6.02-2.01,4.65-4.2c-1.37-2.19-6.02-3.74-6.02-3.74
		s1.46-2.19,0.27-3.47c-1.19-1.28-3.28-3.01-3.28-3.01l5.38,3.13c0,0,4.99,7.77,8.51,6.84c3.51-0.92,4.13-4.44,3.33-5.98
		c-0.8-1.54-3.08-2.16-3.08-2.16s-3.22-3.84-5.67-5.89c2.37,1.74,8.66,5.87,11.34,2.74C518.69,703.03,501.06,690.39,501.06,690.39z
		 M483.41,684.55c-4.77,2.46-1.23,0.54-4.93,4.16c-3.69,3.62-5.39,2.77-5.39,2.77c1.23-0.23,3.69-2.85,2.15-6.04
		c-1.54-3.19,0.46-4.35,0.46-4.35c1.69-0.85,5.46,2.84,5.46,2.84c2,0.15,4.31-4.45,4.31-4.45
		C486.03,682.01,483.41,684.55,483.41,684.55z"/>
	<path class="st1" d="M428.15,706.75l10.14-10.61c-0.45-2.52,0.61-13.06,0.61-13.06C432.38,689.81,428.15,706.75,428.15,706.75z"/>
	<path class="st1" d="M425.41,719.61c6.72,0.91,17.86-4.39,17.86-4.39c-2.8-3.93-4.38-11.5-4.38-11.5
		C427.03,710.2,425.41,719.61,425.41,719.61z"/>
	<path class="st1" d="M406.29,694.92l-8.09,13.96c0,0,17.55,6.28,22.01,9.45C420.21,718.33,413.02,700.17,406.29,694.92z"/>
	<path class="st1" d="M417.67,704.9c0,0,0.47-8.41-2.83-13.83c-3.3-5.42-8.25-18.62-8.25-18.62s-5.5,6.84-0.55,16.23
		c4.95,9.39,11.32,17.95,11.32,17.95L417.67,704.9z"/>
	<path class="st1" d="M400.48,648.93c-3.57-11.1-5.55-26.27-5.55-26.27c-5.05-23.99,7.63-34.29,7.63-34.29
		c-15.56,2.08-16.95,21.72-16.95,21.72c-20.72-20.31-17.35-39.56-17.35-39.56c-7.73,3.27-8.13,8.52-8.13,8.52
		c-2.48,19.23,4.66,32.71,3.96,43.51c-0.69,10.8-2.48,6.24-7.04,17.05c-4.56,10.8,1.39,18.44,1.39,18.44
		c8.92-3.67,17.35-3.47,17.35-3.47c10.61,1.49,15.96,7.53,16.95,15.46c0.99,7.93-0.69,23.19-6.64,34.89
		c-5.95,11.7-12.89,15.16-13.58,17.84c-0.69,2.68,6.94,3.37,14.87-7.33c7.93-10.7,13.58-29.34,14.67-34.29
		C403.16,676.18,404.05,660.03,400.48,648.93z"/>
	<path class="st1" d="M380.44,711.31c10.19-16.54,11.74-28.2,11.07-38.39c-0.66-10.19-9.67-16.76-19.93-16.61
		c0,0-5.76,2.21-2.07,3.4c3.69,1.18,14.69,0.81,16.91,14.03c2.21,13.21-5.83,30.64-12.62,39.27c-6.79,8.64-9.15,1.26-9.15,1.26
		s1.55-2.21,1.26-3.62c-0.3-1.4-6.94,0.12-7.01,6.56C358.81,723.64,370.26,727.85,380.44,711.31z"/>
	<path class="st1" d="M370.02,699.41c8.9-6.61,11.51-14.69,11.59-18.53c0.08-3.84-0.24-7.51-3.92-9.71l-0.39-0.83
		c0,0-1.52-7.98-12.73-8.25c0,0-5.65-0.27-11.47,2.78c-5.83,3.05-11.56-3.13-14.34-4.35c-2.78-1.21-6.99,0.67-4.93,5.69
		c2.06,5.02,7.71,8.43,15.6,9.32c0,0-21.87,15.24-25.46,21.33c-3.59,6.1,2.87,4.75,4.66,4.12c1.79-0.63,0.18-0.45,0.18-0.45
		l12.91-8.07l-12.73,10.13c0,0-6.72,4.75-3.41,8.07c3.32,3.32,20.53-11.47,20.53-11.47l1.13-0.34l-6.82,6.49l-0.59,3.6l-1.66-1.99
		c0,0-6.66,4.4-5.96,7.67c0.7,3.27,5.75,2.93,10.9-1.46c5.14-4.39,9.41-8.61,9.41-8.61l-0.29,1.55c0,0-8.66,8-8.61,10.71
		c0.04,2.71,5.06,4.53,9.37,0C357.29,712.29,361.12,706.03,370.02,699.41z M363.41,677.54c0,0,2.37-0.82,4,0.98
		c1.63,1.8,1.14,4.9-2.04,6.12c-3.18,1.22-2.69,0.41-5.55-1.55C356.96,681.13,363.41,677.54,363.41,677.54z"/>
	<path class="st1" d="M345.57,659.44l0.03-0.03c0,0-9.16-4.45-13.86-1.57c-3.89,2.37-3,7.31-2.57,8.95
		c-11.29,5.81-21.51,12.71-30.32,20.49c-2.13-2.8-4.16-5.68-6.07-8.62c15.67-13.51,35.15-24.45,57.14-31.85
		c-0.16,4.1,1.35,7.99,2.38,10.16C350.02,657.75,347.77,658.57,345.57,659.44z"/>
	<path class="st1" d="M543.4,690.09c-2.14,2.74-4.39,5.38-6.73,7.96c-7.81-9.2-17.26-17.47-28.06-24.57
		c0.43-1.85,1.07-5.74-0.72-7.6c-2.2-2.29-6.49-4.11-8.68-3.82c-0.04-0.41-0.12-0.81-0.22-1.23c-0.31-1.21-1.15-3.31-2.31-5.98
		C515.14,663.94,531.05,675.96,543.4,690.09z"/>
	<path class="st1" d="M359.62,626.67c-0.92,3.89-2.84,6.45-7.81,13.18c-24.45,7.59-45.75,19.32-62.11,33.92
		c-1.89-3.14-3.67-6.35-5.34-9.62C304.16,647.25,330.06,634.17,359.62,626.67z"/>
	<path class="st1" d="M553.6,675.59c-1.94,3.17-4.01,6.24-6.21,9.25c-13.43-15.47-31.92-28.53-53.85-37.99
		c-1.89-4.29-3.85-9.01-5.27-13.49C514.72,643.17,537.22,657.78,553.6,675.59z"/>
	<path class="st1" d="M562.37,659.39c-1.69,3.67-3.54,7.25-5.52,10.74c-16.09-19.87-40.75-36.21-70.61-46.8
		c-0.56-4.63-0.53-8.36-0.28-11.39C517.58,622.46,544.13,639.01,562.37,659.39z"/>
	<path class="st1" d="M359.9,617.18c-31.64,8.55-58.5,24.23-76.85,44.33c-1.69-3.45-3.24-6.97-4.64-10.56
		c19.91-20.24,47.8-35.87,80.19-44.39C359.03,609.45,359.59,613.51,359.9,617.18z"/>
	<path class="st1" d="M569.17,642.18c-1.39,4.28-2.97,8.48-4.72,12.57c-16.43-22.01-43.64-40.19-77.23-51.74
		c0.28-1.51,1.38-5.55,2.78-10.4c6.08,2.04,11.95,4.3,17.62,6.75c0.04,0.01,0.1,0.04,0.15,0.06c0.19,0.09,0.4,0.16,0.61,0.27
		c0.01,0,0.01,0,0.03,0c6.79-21.61,6.05-56.71,6.05-56.71l-22.4-1.24v-10.7l21.04,1.38c-1.26-22.06-4.59-29.87-4.59-29.87h12.38
		c3.4,6.45,4.59,29.87,4.59,29.87l22.56,1.35v10.34l-21.72-1.12c2.56,26.72-4.02,54.02-6.24,62.23c0.99,0.49,1.6,0.8,1.6,0.8
		C540.83,615.95,557,628.23,569.17,642.18z"/>
	<g>
		<path class="st1" d="M331.25,535.14c-2.12,24.88,0.55,50.03,1.69,58.93c0,0.06,0.01,0.1,0.01,0.15l0.33-0.15
			c7.16-2.84,14.62-5.34,22.34-7.43l1.6,10.58c-33.96,9.42-62.38,26.67-80.72,48.58c-1.42-3.95-2.66-7.97-3.73-12.07
			c13.08-13.86,29.9-25.75,49.42-34.9l0.16-0.07c-6.35-20.96-5.55-44.36-2.81-63.62h-19.56v-10.4h22.77
			c3.3-17.54,7.59-29.64,7.59-29.64l12.19,0.21c-4.33,8.36-7.01,18.65-8.59,29.44h23.28v10.4H331.25z"/>
	</g>
</g>
</svg>
