<?xml version="1.0" encoding="utf-8"?>
<!-- Generator: Adobe Illustrator 25.3.0, SVG Export Plug-In . SVG Version: 6.00 Build 0)  -->
<svg version="1.1" id="Layer_1" xmlns="http://www.w3.org/2000/svg" xmlns:xlink="http://www.w3.org/1999/xlink" x="0px" y="0px"
	 viewBox="0 0 841.89 1190.55" style="enable-background:new 0 0 841.89 1190.55;" xml:space="preserve">
<style type="text/css">
	.st0{fill:#00724E;}
	.st1{fill:#FFFFFF;}
</style>
<rect width="841.89" height="1190.55"/>
<g>
	<path class="st0" d="M415.04,313.81c-156.66,0-283.64,127-283.64,283.64c0,156.65,126.98,283.64,283.64,283.64
		c156.65,0,283.63-126.99,283.63-283.64C698.67,440.81,571.69,313.81,415.04,313.81z M414.42,760.31c-90.57,0-164-73.42-164-163.98
		c0-90.58,73.43-164.01,164-164.01s163.99,73.43,163.99,164.01C578.41,686.89,504.99,760.31,414.42,760.31z"/>
	<path class="st1" d="M415.04,322.18c-152.04,0-275.28,123.25-275.28,275.27c0,152.03,123.24,275.27,275.28,275.27
		c152.02,0,275.28-123.24,275.28-275.27C690.32,445.43,567.06,322.18,415.04,322.18z M415.04,863.76
		c-147.09,0-266.32-119.23-266.32-266.31c0-147.07,119.23-266.3,266.32-266.3c147.07,0,266.31,119.23,266.31,266.3
		C681.35,744.53,562.11,863.76,415.04,863.76z"/>
	<g>
		<path class="st1" d="M235.9,538.4c0.01-2.8-0.13-4.81-0.42-6.05c-0.07-0.18-0.18-0.36-0.34-0.54c-0.16-0.17-0.35-0.26-0.57-0.25
			l-11.69-0.25c-0.34,0.04-0.61,0.16-0.8,0.37c-0.19,0.21-0.26,0.46-0.21,0.75c0.22,1.28,0.29,2.93,0.2,4.95
			c-0.09,2.02-0.35,4.02-0.79,5.99c-1.14,5.12-3.34,8.75-6.62,10.91c-3.28,2.15-7.02,2.76-11.23,1.82
			c-2.45-0.55-4.46-1.44-6.03-2.68c-1.57-1.24-2.78-2.7-3.64-4.38c-0.86-1.67-1.36-3.51-1.51-5.5c-0.14-1.99,0.01-4.03,0.48-6.1
			c0.53-2.4,1.2-4.47,2.01-6.22c0.81-1.75,1.65-3.2,2.52-4.35c0.17-0.24,0.21-0.5,0.13-0.77c-0.08-0.27-0.24-0.49-0.48-0.65
			l-10.6-5.55c-0.51-0.22-0.92-0.15-1.23,0.23c-1.04,1.17-2.12,3.05-3.23,5.66c-1.11,2.61-2.06,5.67-2.84,9.19
			c-0.98,4.43-1.3,8.72-0.94,12.89c0.36,4.17,1.43,7.98,3.2,11.45c1.77,3.47,4.26,6.46,7.45,8.96c3.19,2.5,7.14,4.27,11.83,5.32
			c3.63,0.81,7.22,0.95,10.77,0.42c3.56-0.52,6.86-1.79,9.91-3.8c3.05-2.01,5.75-4.83,8.1-8.48c2.35-3.65,4.13-8.19,5.34-13.63
			C235.48,544.43,235.89,541.19,235.9,538.4z"/>
		<path class="st1" d="M231.97,499.52c0.56-0.63,1.19-1.1,1.91-1.4c0.72-0.3,1.58-0.44,2.6-0.42c1.01,0.02,2.26,0.2,3.74,0.56
			c3.57,0.86,6.4,1.44,8.49,1.75c2.09,0.32,3.58,0.46,4.46,0.43c0.39-0.04,0.68-0.23,0.86-0.56l7.15-13.36
			c0.21-0.39,0.23-0.71,0.06-0.99c-0.16-0.27-0.43-0.42-0.79-0.43c-0.51,0.04-1.49-0.11-2.92-0.45c-1.43-0.33-2.93-0.67-4.48-1
			c-1.38-0.31-2.79-0.61-4.21-0.9c-1.42-0.3-2.79-0.55-4.1-0.75c-2.12-0.33-4.1-0.44-5.95-0.35c-1.85,0.1-3.52,0.55-5,1.37
			c0.08-1.07-0.01-2.25-0.25-3.53c-0.25-1.28-0.66-2.53-1.23-3.77c-0.58-1.24-1.36-2.43-2.36-3.58c-0.99-1.15-2.21-2.11-3.66-2.89
			c-2.5-1.34-4.92-2.03-7.26-2.07c-2.33-0.04-4.52,0.45-6.55,1.47c-2.35,1.16-4.58,2.94-6.67,5.35c-2.09,2.41-4.24,5.66-6.43,9.76
			c-1.93,3.61-3.56,6.91-4.87,9.89c-1.32,2.98-2.32,5.46-3.01,7.45c-0.16,0.53-0.03,0.92,0.41,1.15l46.45,24.85
			c0.58,0.31,1.02,0.17,1.33-0.4l6.96-13c0.31-0.58,0.17-1.02-0.4-1.33l-16.69-8.93l0.81-1.52
			C230.88,500.95,231.42,500.15,231.97,499.52z M220.27,494.56l-1.62,3.03l-9.25-4.95c0.11-0.44,0.33-0.97,0.67-1.59
			c0.33-0.63,0.81-1.52,1.43-2.67c1.06-1.97,2.25-3.32,3.59-4.02c1.34-0.71,2.78-0.65,4.32,0.17c1.49,0.8,2.32,2.09,2.48,3.88
			C222.04,490.2,221.51,492.25,220.27,494.56z"/>
		<path class="st1" d="M264.11,483.3c0.51,0.42,0.95,0.39,1.33-0.07l9.54-11.56c0.38-0.46,0.32-0.9-0.18-1.32l-41.14-33.95
			c-0.51-0.42-0.95-0.39-1.33,0.07l-9.54,11.56c-0.38,0.46-0.32,0.9,0.18,1.32L264.11,483.3z"/>
		<path class="st1" d="M254.38,436.24c1.53,1.85,3.25,3.19,5.15,4.03c1.9,0.84,3.92,1.29,6.07,1.35c2.15,0.07,4.35-0.18,6.62-0.75
			c2.26-0.56,4.49-1.33,6.67-2.29c5.18-2.31,8.28-2.85,9.29-1.64c1.39,1.68,0.41,3.92-2.95,6.71c-2.31,1.92-4.72,3.42-7.23,4.5
			c-2.51,1.09-4.71,1.85-6.61,2.29c-0.32,0.05-0.52,0.2-0.63,0.47c-0.1,0.26-0.09,0.55,0.03,0.88l5.4,11.38
			c0.06,0.16,0.21,0.29,0.43,0.39c0.22,0.1,0.45,0.12,0.69,0.06c0.95-0.22,2.05-0.56,3.3-1.03c1.25-0.46,2.59-1.05,4.03-1.75
			c1.44-0.7,2.91-1.52,4.39-2.47c1.48-0.95,2.92-2,4.31-3.15c3.41-2.82,6-5.64,7.8-8.44c1.79-2.8,2.93-5.5,3.4-8.09
			c0.47-2.59,0.38-5.04-0.28-7.33c-0.66-2.29-1.74-4.34-3.24-6.15c-2.72-3.28-5.97-5.16-9.74-5.65c-3.78-0.49-8.28,0.34-13.53,2.49
			c-3.23,1.33-5.65,2.26-7.27,2.78c-1.62,0.53-2.78,0.37-3.48-0.47c-0.59-0.71-0.64-1.58-0.14-2.6c0.5-1.02,1.49-2.14,2.96-3.36
			c2.27-1.88,4.44-3.27,6.5-4.16c2.06-0.89,3.75-1.53,5.07-1.91c0.68-0.21,0.88-0.65,0.59-1.34l-4.83-11.21
			c-0.22-0.52-0.61-0.7-1.17-0.52c-2.19,0.61-4.48,1.55-6.87,2.82c-2.39,1.27-5.03,3.11-7.93,5.51c-2.78,2.3-5,4.71-6.67,7.23
			c-1.67,2.52-2.79,5.04-3.35,7.57c-0.56,2.53-0.58,4.97-0.04,7.33C251.65,432.09,252.74,434.26,254.38,436.24z"/>
		<path class="st1" d="M295.5,399.17c0.26,0.54,0.66,0.69,1.2,0.43l12.82-6.04l17.15,36.39c0.28,0.59,0.69,0.76,1.23,0.51
			l13.56-6.39c0.59-0.28,0.75-0.72,0.47-1.31l-17.15-36.39l12.97-6.11c0.59-0.28,0.76-0.69,0.5-1.23l-5.2-11.04
			c-0.28-0.59-0.72-0.75-1.31-0.47l-41.06,19.35c-0.54,0.26-0.68,0.68-0.4,1.27L295.5,399.17z"/>
		<path class="st1" d="M357,399.63c1.83,3.21,4.16,5.87,7.02,7.99c2.85,2.12,6.18,3.63,9.98,4.53c3.8,0.9,7.95,1.02,12.43,0.36
			c4.65-0.68,8.73-2.02,12.25-4s6.4-4.43,8.65-7.36c2.25-2.93,3.81-6.23,4.71-9.93c0.89-3.69,1.03-7.62,0.42-11.78
			c-0.6-4.05-1.81-7.68-3.63-10.89c-1.83-3.21-4.18-5.87-7.06-7.99c-2.88-2.11-6.25-3.61-10.1-4.47c-3.85-0.87-8.08-0.96-12.67-0.29
			c-4.49,0.66-8.46,1.98-11.92,3.95c-3.46,1.97-6.3,4.42-8.52,7.34c-2.22,2.92-3.79,6.24-4.7,9.97c-0.91,3.72-1.06,7.67-0.45,11.83
			C353.97,392.84,355.17,396.42,357,399.63z M370.81,379.87c0.3-1.92,0.86-3.63,1.69-5.13c0.83-1.5,1.93-2.74,3.3-3.72
			c1.37-0.98,2.98-1.6,4.82-1.87c1.84-0.27,3.55-0.14,5.15,0.4c1.6,0.54,3.01,1.41,4.23,2.61c1.23,1.2,2.26,2.68,3.1,4.43
			c0.84,1.75,1.42,3.71,1.74,5.87c0.31,2.11,0.33,4.11,0.06,6c-0.27,1.89-0.83,3.57-1.66,5.05c-0.83,1.48-1.94,2.7-3.31,3.68
			c-1.38,0.98-3.01,1.6-4.9,1.88c-1.84,0.27-3.56,0.14-5.15-0.4c-1.6-0.54-3.01-1.39-4.23-2.56c-1.22-1.17-2.25-2.62-3.08-4.35
			c-0.83-1.73-1.41-3.64-1.72-5.75C370.53,383.83,370.52,381.79,370.81,379.87z"/>
		<path class="st1" d="M437.36,407.95l13.49,4.09c0.26,0.08,0.5,0.05,0.71-0.08c0.21-0.14,0.36-0.33,0.44-0.6l6.53-18.74
			c0.42-1.19,0.88-2.52,1.38-3.99c0.5-1.47,0.99-2.88,1.45-4.23c0.4-1.13,0.73-2.09,1-2.87c0.26-0.78,0.6-1.76,1.02-2.94
			c-0.21,1.99-0.37,3.58-0.5,4.77c-0.13,1.19-0.22,2.24-0.28,3.17c-0.05,0.93-0.12,1.89-0.19,2.89c-0.08,1-0.14,2.35-0.2,4.05
			l-1.04,19.8c-0.02,0.45,0.23,0.75,0.75,0.91l11.45,3.47c0.52,0.16,0.9,0.04,1.13-0.34c1.84-2.87,3.69-5.69,5.56-8.46
			c1.87-2.77,3.71-5.57,5.54-8.38l-0.1,0.05c1.44-2.13,2.98-4.41,4.59-6.83c1.62-2.42,3.2-4.88,4.76-7.38
			c-0.58,2.11-1.07,3.86-1.46,5.25c-0.39,1.39-0.75,2.66-1.06,3.79c-0.32,1.13-0.63,2.22-0.95,3.27c-0.3,0.99-0.64,2.2-1.01,3.63
			l-5.2,19.14c-0.08,0.26-0.06,0.51,0.07,0.75c0.13,0.24,0.32,0.4,0.58,0.48l14.19,4.3c0.63,0.19,1.04-0.05,1.25-0.73l13.11-51.76
			c0.08-0.26,0.05-0.5-0.08-0.71c-0.14-0.21-0.33-0.36-0.6-0.44l-19.92-6.03c-0.21-0.06-0.42-0.04-0.62,0.07
			c-0.2,0.11-0.36,0.23-0.46,0.37c-1.28,1.95-2.57,3.87-3.88,5.76c-1.31,1.89-2.64,3.8-3.96,5.73l0.02-0.08
			c-1.31,1.89-2.78,4.14-4.4,6.76c-1.62,2.62-3.22,5.2-4.79,7.75c0.32-2.93,0.58-5.83,0.8-8.7c0.21-2.87,0.37-5.52,0.48-7.94
			l0.45-13.9c0.04-0.5-0.21-0.83-0.73-0.99l-20.46-6.2c-0.21-0.06-0.43-0.04-0.66,0.06c-0.23,0.1-0.39,0.28-0.46,0.54l-18.37,50.16
			C436.52,407.33,436.74,407.76,437.36,407.95z"/>
		<path class="st1" d="M510.92,428.81c0.46,3.06,1.65,5.91,3.58,8.57c1.92,2.66,4.5,5.15,7.74,7.48c6.83,4.91,13.4,6.92,19.72,6.05
			c6.31-0.88,12.1-4.98,17.36-12.29L576,415.4c0.38-0.53,0.33-0.97-0.16-1.32l-12.18-8.75c-0.53-0.38-0.99-0.31-1.37,0.22
			l-16.92,23.55c-2.39,3.33-4.81,5.47-7.25,6.44c-2.44,0.97-4.93,0.54-7.46-1.27c-2.53-1.82-3.7-4.07-3.51-6.76
			c0.18-2.69,1.43-5.63,3.72-8.83l16.92-23.55c0.38-0.53,0.31-0.99-0.22-1.37l-12.18-8.75c-0.49-0.35-0.92-0.26-1.31,0.27
			l-16.45,22.89c-2.77,3.86-4.7,7.5-5.78,10.93C510.77,422.52,510.46,425.76,510.92,428.81z"/>
		<path class="st1" d="M547.31,463.3l9.22,11.51c0.41,0.51,0.87,0.56,1.38,0.15l14.77-11.83l1.08,1.34
			c0.68,0.85,1.21,1.66,1.57,2.42c0.36,0.76,0.54,1.53,0.53,2.3c-0.01,0.78-0.22,1.63-0.63,2.55c-0.41,0.92-1.08,2-1.99,3.22
			c-2.19,2.94-3.84,5.32-4.95,7.12c-1.11,1.8-1.83,3.11-2.15,3.93c-0.12,0.37-0.06,0.71,0.18,1.01l9.48,11.83
			c0.27,0.34,0.57,0.49,0.88,0.45c0.32-0.04,0.55-0.23,0.7-0.56c0.17-0.49,0.69-1.32,1.56-2.51c0.87-1.19,1.76-2.43,2.68-3.72
			c0.83-1.15,1.66-2.32,2.49-3.51c0.83-1.19,1.6-2.35,2.31-3.47c1.13-1.82,2.02-3.59,2.66-5.33c0.64-1.74,0.88-3.45,0.71-5.14
			c0.95,0.49,2.07,0.88,3.34,1.16c1.27,0.28,2.59,0.39,3.95,0.35c1.36-0.04,2.77-0.3,4.22-0.76c1.45-0.46,2.81-1.2,4.09-2.23
			c2.22-1.77,3.8-3.73,4.76-5.86c0.95-2.13,1.36-4.33,1.22-6.6c-0.14-2.62-0.9-5.36-2.3-8.24c-1.39-2.87-3.54-6.12-6.44-9.75
			c-2.56-3.2-4.95-5.99-7.18-8.37c-2.22-2.38-4.11-4.28-5.66-5.7c-0.43-0.36-0.83-0.38-1.22-0.08l-41.11,32.93
			C546.95,462.33,546.9,462.79,547.31,463.3z M590.52,448.84c0.36,0.27,0.76,0.69,1.2,1.24c0.44,0.55,1.08,1.34,1.9,2.37
			c1.4,1.75,2.16,3.38,2.29,4.89c0.12,1.51-0.5,2.81-1.86,3.9c-1.32,1.06-2.84,1.31-4.54,0.75c-1.71-0.56-3.38-1.86-5.02-3.91
			l-2.15-2.69L590.52,448.84z"/>
		<path class="st1" d="M633.14,491.96l-6.88-13.32c-0.28-0.53-0.7-0.65-1.29-0.35l-47.39,24.47c-0.58,0.3-0.74,0.72-0.46,1.25
			l6.88,13.32c0.28,0.53,0.7,0.65,1.29,0.35l47.39-24.47C633.26,492.92,633.41,492.5,633.14,491.96z"/>
		<path class="st1" d="M665.22,548.97l-3.74-14.94c-0.07-0.27-0.27-0.5-0.6-0.69l-11.59-3.77c-0.42-0.12-0.76-0.06-1.01,0.17
			s-0.32,0.56-0.22,0.98l0.11,0.42c-0.86-1.91-1.86-3.67-3.01-5.3c-2.31-3.25-5.03-5.83-8.15-7.75c-3.13-1.92-6.59-3.15-10.39-3.69
			c-3.79-0.54-7.73-0.3-11.81,0.72c-3.87,0.97-7.31,2.52-10.32,4.66c-3.01,2.13-5.43,4.72-7.26,7.77c-1.82,3.05-3,6.51-3.52,10.39
			c-0.52,3.87-0.23,8.01,0.87,12.41c1.15,4.55,2.88,8.48,5.2,11.79c2.32,3.3,5.04,5.92,8.18,7.87c3.13,1.94,6.58,3.18,10.34,3.7
			c3.77,0.52,7.69,0.27,11.77-0.75c3.97-1,7.46-2.57,10.47-4.7c3.02-2.13,5.43-4.74,7.25-7.81c1.82-3.08,2.97-6.57,3.45-10.5
			c0.27-2.19,0.29-4.47,0.05-6.84c0.07,0.09,0.16,0.15,0.26,0.17l12.32,6.71c0.4,0.23,0.75,0.23,1.05-0.02
			C665.23,549.73,665.33,549.39,665.22,548.97z M637.27,545.43c-0.37,1.64-1.1,3.13-2.17,4.47c-1.07,1.34-2.44,2.52-4.1,3.52
			c-1.66,1.01-3.55,1.78-5.67,2.31c-2.07,0.52-4.06,0.74-5.96,0.65c-1.91-0.08-3.64-0.47-5.19-1.15s-2.88-1.66-3.99-2.93
			c-1.1-1.27-1.89-2.83-2.35-4.69c-0.46-1.8-0.49-3.52-0.12-5.16c0.38-1.64,1.09-3.13,2.14-4.46c1.04-1.34,2.38-2.5,4.02-3.5
			c1.63-1,3.49-1.76,5.55-2.28c2.12-0.53,4.15-0.75,6.09-0.64c1.94,0.1,3.7,0.49,5.28,1.17c1.57,0.67,2.91,1.65,4.02,2.92
			c1.11,1.27,1.89,2.8,2.34,4.61C637.61,542.07,637.65,543.79,637.27,545.43z"/>
	</g>
	<g>
		<path class="st1" d="M322.92,770.84c0.26-2.89-0.02-5.5-0.82-7.84c-0.87-2.25-2.33-4.59-4.38-7.02c-2.05-2.44-4.83-4.86-8.34-7.26
			c-4.12-2.82-7.6-5.05-10.44-6.69c-2.84-1.63-5.24-2.92-7.22-3.86c-0.53-0.23-0.94-0.13-1.23,0.29l-30.95,45.18
			c-0.39,0.56-0.3,1.04,0.27,1.42l12.72,8.71c0.51,0.35,0.96,0.25,1.35-0.31l9.82-14.33c0.34,0.3,0.75,0.62,1.22,0.94
			c0.47,0.32,0.94,0.64,1.41,0.96c3.56,2.44,7.09,4.22,10.59,5.34c3.5,1.12,6.87,1.52,10.12,1.2c2.48-0.3,4.85-1.22,7.11-2.77
			c2.26-1.55,4.17-3.44,5.71-5.69C321.63,776.49,322.66,773.73,322.92,770.84z M305.45,769.36c-1.22,1.78-2.88,2.65-4.99,2.62
			c-2.11-0.03-4.29-0.82-6.54-2.36c-0.61-0.42-1.1-0.75-1.48-1.01c-0.33-0.23-0.66-0.49-1.01-0.79l6.88-10.05
			c0.44,0.16,0.94,0.44,1.5,0.82c0.56,0.39,1.24,0.85,2.04,1.4c2.29,1.57,3.72,3.17,4.26,4.78
			C306.67,766.38,306.45,767.91,305.45,769.36z"/>
		<path class="st1" d="M379.15,787.5c-1.75-3.27-4.24-6.19-7.46-8.73c-3.22-2.54-7.14-4.53-11.75-5.96
			c-4.5-1.39-8.82-1.94-12.95-1.65c-4.13,0.29-7.9,1.31-11.29,3.06c-3.39,1.74-6.36,4.15-8.88,7.23c-2.53,3.08-4.44,6.71-5.74,10.89
			c-1.23,3.96-1.71,7.85-1.43,11.68c0.27,3.83,1.27,7.38,2.99,10.64c1.72,3.27,4.16,6.18,7.33,8.73c3.16,2.55,6.99,4.53,11.49,5.92
			c4.66,1.45,9.09,2.03,13.28,1.75c4.19-0.28,7.99-1.28,11.41-3.02c3.42-1.73,6.38-4.13,8.87-7.19c2.49-3.06,4.39-6.68,5.68-10.86
			c1.26-4.07,1.75-8.02,1.49-11.84C381.91,794.33,380.9,790.77,379.15,787.5z M362.83,804.91c-0.66,2.12-1.54,4-2.64,5.65
			c-1.11,1.65-2.38,2.98-3.82,3.99c-1.44,1.01-3.03,1.66-4.75,1.96c-1.73,0.3-3.54,0.15-5.44-0.44c-1.84-0.57-3.39-1.47-4.65-2.69
			c-1.26-1.22-2.19-2.66-2.81-4.3c-0.62-1.65-0.93-3.47-0.94-5.46c-0.01-1.99,0.32-4.05,0.97-6.16c0.67-2.17,1.58-4.09,2.72-5.76
			c1.14-1.67,2.44-3.02,3.89-4.06c1.45-1.04,3.04-1.7,4.77-2c1.73-0.3,3.51-0.16,5.36,0.41c1.84,0.57,3.39,1.47,4.65,2.69
			c1.26,1.22,2.19,2.67,2.8,4.34c0.61,1.68,0.92,3.52,0.91,5.54C363.84,800.65,363.5,802.74,362.83,804.91z"/>
		<path class="st1" d="M439.98,835.54c-0.37-1.48-0.78-3.02-1.2-4.62c-0.37-1.43-0.76-2.87-1.17-4.32c-0.4-1.45-0.82-2.84-1.25-4.15
			c-0.71-2.11-1.54-4-2.51-5.66c-0.97-1.66-2.18-2.99-3.64-3.98c1.03-0.44,2.08-1.07,3.14-1.91c1.06-0.84,2.03-1.81,2.9-2.93
			c0.87-1.12,1.6-2.41,2.19-3.88c0.59-1.47,0.9-3.05,0.93-4.75c0.05-2.95-0.46-5.51-1.54-7.69c-1.07-2.17-2.56-3.96-4.47-5.35
			c-2.19-1.62-4.89-2.83-8.12-3.62c-3.22-0.79-7.25-1.22-12.07-1.3c-4.26-0.07-8.08,0-11.46,0.2c-3.38,0.2-6.15,0.45-8.32,0.76
			c-0.57,0.11-0.86,0.41-0.87,0.92L391.64,838c-0.01,0.68,0.32,1.03,1.01,1.04l15.33,0.25c0.68,0.01,1.03-0.32,1.04-1.01l0.32-19.67
			l1.79,0.03c1.13,0.02,2.13,0.13,2.98,0.35c0.85,0.21,1.58,0.58,2.2,1.1c0.62,0.52,1.16,1.25,1.63,2.2
			c0.47,0.94,0.89,2.19,1.26,3.73c0.91,3.71,1.71,6.6,2.41,8.68c0.7,2.09,1.28,3.53,1.72,4.33c0.22,0.34,0.53,0.52,0.93,0.53
			l15.75,0.26c0.45,0.01,0.77-0.13,0.94-0.41c0.17-0.28,0.18-0.59,0.02-0.94C440.68,838,440.35,837.03,439.98,835.54z
			 M419.57,804.38c-1.58,1-3.73,1.47-6.45,1.43l-3.58-0.06l0.18-10.9c0.46-0.11,1.05-0.15,1.79-0.14c0.74,0.01,1.79,0.03,3.15,0.05
			c2.33,0.04,4.14,0.51,5.43,1.41c1.29,0.9,1.92,2.26,1.89,4.08C421.95,802,421.15,803.38,419.57,804.38z"/>
		<path class="st1" d="M519.44,753.88c-0.11-0.26-0.3-0.43-0.55-0.5c-0.25-0.08-0.51-0.06-0.77,0.06l-19.79,8.75
			c-0.21,0.09-0.35,0.25-0.44,0.47c-0.09,0.23-0.12,0.43-0.1,0.61c0.32,2.41,0.6,4.8,0.84,7.17c0.24,2.38,0.5,4.78,0.76,7.2
			l-0.03-0.08c0.24,2.38,0.61,5.15,1.11,8.31c0.5,3.16,0.99,6.28,1.48,9.36c-1.74-2.52-3.49-4.99-5.27-7.4
			c-1.78-2.41-3.45-4.61-5.01-6.59l-9.07-11.26c-0.31-0.42-0.73-0.52-1.24-0.29l-20.33,8.99c-0.21,0.09-0.37,0.26-0.48,0.49
			c-0.11,0.24-0.11,0.48,0,0.74l19.54,51.99c0.3,0.68,0.76,0.88,1.38,0.6l13.4-5.92c0.26-0.11,0.43-0.3,0.5-0.55
			c0.08-0.25,0.06-0.5-0.06-0.77l-7.55-19.2c-0.48-1.22-1.02-2.58-1.62-4.08c-0.6-1.5-1.18-2.94-1.72-4.31
			c-0.45-1.16-0.84-2.14-1.16-2.93c-0.32-0.79-0.72-1.79-1.19-3.01c1.19,1.71,2.14,3.08,2.84,4.1c0.7,1.03,1.34,1.92,1.93,2.68
			c0.59,0.77,1.19,1.57,1.81,2.41c0.62,0.84,1.48,1.95,2.59,3.33l12.61,16.31c0.29,0.37,0.69,0.44,1.21,0.21l11.37-5.03
			c0.52-0.23,0.74-0.57,0.66-1.04c-0.49-3.51-0.95-6.98-1.35-10.44c-0.41-3.45-0.85-6.9-1.32-10.36l-0.04,0.11
			c-0.31-2.66-0.64-5.49-1.01-8.49c-0.37-3-0.78-6.02-1.25-9.04c0.97,2.05,1.77,3.77,2.41,5.13c0.63,1.37,1.21,2.6,1.73,3.7
			c0.52,1.11,1.01,2.18,1.47,3.22c0.44,0.99,0.99,2.17,1.66,3.55l8.88,18.61c0.11,0.26,0.3,0.44,0.56,0.54
			c0.26,0.1,0.52,0.1,0.78-0.02l14.1-6.23c0.62-0.28,0.79-0.75,0.49-1.43L519.44,753.88z"/>
		<path class="st1" d="M536.21,737.96c-0.42-0.54-0.88-0.61-1.37-0.23l-12.27,9.61c-0.49,0.39-0.53,0.85-0.11,1.38l34.19,43.65
			c0.42,0.54,0.88,0.61,1.37,0.23l12.27-9.61c0.49-0.39,0.53-0.85,0.11-1.38L536.21,737.96z"/>
	</g>
	<g>
		<path class="st1" d="M189.88,606.15h-5.66c-0.25,0-0.37,0.12-0.37,0.37v6.98H177v-6.98c0-0.25-0.12-0.37-0.37-0.37h-5.66
			c-0.23,0-0.34,0.12-0.34,0.37v20.12c0,0.25,0.11,0.37,0.34,0.37h5.66c0.25,0,0.37-0.12,0.37-0.37v-7.57h6.86v7.57
			c0,0.25,0.12,0.37,0.37,0.37h5.66c0.23,0,0.34-0.12,0.34-0.37v-20.12C190.22,606.27,190.11,606.15,189.88,606.15z"/>
		<path class="st1" d="M208.09,621.76h-8.78v-2.72h7.82c0.23,0,0.34-0.12,0.34-0.37v-4.54c0-0.23-0.11-0.34-0.34-0.34h-7.82v-2.38
			h8.31c0.25,0,0.37-0.11,0.37-0.34v-4.54c0-0.25-0.12-0.37-0.37-0.37h-14.34c-0.23,0-0.34,0.12-0.34,0.37v20.12
			c0,0.25,0.11,0.37,0.34,0.37h14.8c0.23,0,0.34-0.12,0.34-0.37v-4.54C208.43,621.87,208.31,621.76,208.09,621.76z"/>
		<path class="st1" d="M225.76,615.64c1.03-0.51,1.75-1.14,2.15-1.87c0.4-0.73,0.6-1.51,0.6-2.33c0-1.15-0.32-2.12-0.97-2.9
			c-0.65-0.78-1.43-1.35-2.33-1.7c-0.41-0.16-0.83-0.3-1.27-0.42c-0.43-0.11-0.91-0.2-1.42-0.26c-0.52-0.06-1.09-0.11-1.71-0.14
			c-0.63-0.03-1.33-0.05-2.12-0.05c-0.68,0-1.36,0.02-2.06,0.05c-0.69,0.03-1.34,0.07-1.96,0.11c-0.62,0.04-1.18,0.09-1.68,0.14
			c-0.51,0.05-0.91,0.11-1.22,0.17c-0.06,0.02-0.12,0.07-0.19,0.14c-0.06,0.07-0.09,0.14-0.09,0.2v19.78c0,0.08,0.03,0.15,0.09,0.22
			c0.06,0.06,0.12,0.1,0.19,0.12c0.56,0.1,1.31,0.19,2.27,0.26c0.96,0.07,2.15,0.11,3.57,0.11c2.29,0,4.14-0.15,5.56-0.46
			c1.42-0.31,2.54-0.74,3.37-1.3c0.78-0.54,1.42-1.22,1.92-2.04c0.49-0.82,0.74-1.76,0.74-2.81c0-1.19-0.3-2.22-0.9-3.07
			C227.7,616.71,226.85,616.07,225.76,615.64z M217.79,610.79c0.19-0.04,0.4-0.06,0.65-0.06c0.27,0,0.61,0,1.02,0
			c1.75,0,2.63,0.47,2.63,1.42c0,0.52-0.28,0.92-0.83,1.21c-0.56,0.29-1.43,0.43-2.63,0.43h-0.83V610.79z M222.26,621.29
			c-0.18,0.27-0.41,0.49-0.71,0.66c-0.3,0.18-0.65,0.3-1.05,0.37c-0.4,0.07-0.82,0.11-1.25,0.11c-0.33,0-0.61,0-0.83,0
			c-0.23,0-0.43-0.01-0.62-0.03v-3.96l1.11-0.06c1.03-0.06,1.89,0.07,2.58,0.39c0.69,0.32,1.04,0.84,1.04,1.56
			C222.52,620.71,222.43,621.03,222.26,621.29z"/>
		<path class="st1" d="M235.92,620.24c-1.09,0-1.96,0.34-2.61,1c-0.65,0.67-0.97,1.53-0.97,2.58c0,1.03,0.32,1.88,0.97,2.55
			c0.65,0.67,1.52,1,2.61,1c1.09,0,1.96-0.34,2.61-1c0.65-0.67,0.97-1.52,0.97-2.55c-0.02-1.05-0.35-1.91-0.99-2.58
			C237.88,620.58,237.02,620.24,235.92,620.24z"/>
	</g>
	<g>
		<path class="st1" d="M603.12,606.49h-4.6l-5.9,2.56c-0.08,0.02-0.14,0.07-0.19,0.15c-0.04,0.08-0.05,0.17-0.03,0.25l0.9,4.14
			c0.04,0.12,0.11,0.21,0.22,0.25c0.1,0.04,0.21,0.04,0.31,0c0.54-0.23,1.11-0.48,1.72-0.76c0.61-0.28,1.2-0.54,1.78-0.79
			l0.06,13.97c0,0.25,0.11,0.37,0.34,0.37h5.41c0.25,0,0.37-0.12,0.37-0.37v-19.41C603.49,606.61,603.37,606.49,603.12,606.49z"/>
		<path class="st1" d="M621.34,609.32c-0.69-0.96-1.58-1.73-2.66-2.3c-1.08-0.58-2.38-0.87-3.91-0.87c-1.53,0-2.83,0.29-3.91,0.87
			c-1.08,0.58-1.97,1.34-2.66,2.3c-0.69,0.96-1.19,2.07-1.51,3.32c-0.32,1.26-0.48,2.56-0.48,3.92c0,1.38,0.16,2.7,0.48,3.96
			c0.32,1.26,0.82,2.36,1.51,3.32c0.69,0.96,1.58,1.73,2.66,2.3c1.08,0.58,2.38,0.87,3.91,0.87c1.52,0,2.83-0.29,3.91-0.87
			c1.08-0.58,1.97-1.34,2.66-2.3c0.69-0.96,1.19-2.07,1.51-3.32c0.32-1.26,0.48-2.57,0.48-3.96c0-1.36-0.16-2.67-0.48-3.92
			C622.53,611.38,622.03,610.28,621.34,609.32z M616.36,620.86c-0.4,0.91-0.94,1.36-1.62,1.36c-0.66,0-1.19-0.45-1.61-1.36
			c-0.41-0.91-0.62-2.34-0.62-4.3c0-1.96,0.21-3.38,0.62-4.28c0.41-0.9,0.95-1.34,1.61-1.34c0.68,0,1.22,0.45,1.62,1.34
			c0.4,0.9,0.6,2.32,0.6,4.28C616.96,618.52,616.76,619.95,616.36,620.86z"/>
		<path class="st1" d="M629.11,619.87c-1.09,0-1.96,0.34-2.61,1c-0.65,0.67-0.97,1.53-0.97,2.58c0,1.03,0.32,1.88,0.97,2.55
			c0.65,0.67,1.52,1,2.61,1c1.09,0,1.96-0.34,2.61-1c0.65-0.67,0.97-1.52,0.97-2.55c-0.02-1.05-0.35-1.91-0.99-2.58
			C631.06,620.21,630.2,619.87,629.11,619.87z"/>
		<path class="st1" d="M629.14,610.63c-1.09,0-1.96,0.33-2.61,0.99c-0.65,0.66-0.97,1.51-0.97,2.56c0,1.05,0.32,1.91,0.97,2.56
			c0.65,0.66,1.52,0.99,2.61,0.99c1.09,0,1.96-0.33,2.61-0.99c0.65-0.66,0.97-1.51,0.97-2.56c-0.02-1.05-0.35-1.91-0.99-2.56
			C631.1,610.96,630.23,610.63,629.14,610.63z"/>
		<path class="st1" d="M646.69,606.49h-4.6l-5.9,2.56c-0.08,0.02-0.14,0.07-0.19,0.15c-0.04,0.08-0.05,0.17-0.03,0.25l0.9,4.14
			c0.04,0.12,0.11,0.21,0.22,0.25c0.1,0.04,0.21,0.04,0.31,0c0.54-0.23,1.11-0.48,1.72-0.76c0.61-0.28,1.2-0.54,1.78-0.79
			l0.06,13.97c0,0.25,0.11,0.37,0.34,0.37h5.41c0.25,0,0.37-0.12,0.37-0.37v-19.41C647.06,606.61,646.94,606.49,646.69,606.49z"/>
		<path class="st1" d="M666.42,612.64c-0.32-1.26-0.82-2.36-1.51-3.32c-0.69-0.96-1.58-1.73-2.66-2.3
			c-1.08-0.58-2.39-0.87-3.91-0.87c-1.53,0-2.83,0.29-3.91,0.87c-1.08,0.58-1.97,1.34-2.66,2.3c-0.69,0.96-1.19,2.07-1.51,3.32
			c-0.32,1.26-0.48,2.56-0.48,3.92c0,1.38,0.16,2.7,0.48,3.96c0.32,1.26,0.82,2.36,1.51,3.32c0.69,0.96,1.58,1.73,2.66,2.3
			c1.08,0.58,2.38,0.87,3.91,0.87c1.52,0,2.83-0.29,3.91-0.87c1.08-0.58,1.97-1.34,2.66-2.3c0.69-0.96,1.19-2.07,1.51-3.32
			c0.32-1.26,0.48-2.57,0.48-3.96C666.9,615.21,666.74,613.9,666.42,612.64z M659.93,620.86c-0.4,0.91-0.94,1.36-1.62,1.36
			c-0.66,0-1.19-0.45-1.61-1.36c-0.41-0.91-0.62-2.34-0.62-4.3c0-1.96,0.21-3.38,0.62-4.28c0.41-0.9,0.95-1.34,1.61-1.34
			c0.68,0,1.22,0.45,1.62,1.34c0.4,0.9,0.6,2.32,0.6,4.28C660.53,618.52,660.33,619.95,659.93,620.86z"/>
	</g>
	<path class="st1" d="M414.42,432.32c-90.57,0-164,73.43-164,164.01c0,90.56,73.43,163.98,164,163.98
		c90.57,0,163.99-73.42,163.99-163.98C578.41,505.75,504.99,432.32,414.42,432.32z M518.52,545.14l21.72,1.12v-10.34l-22.56-1.34
		c0,0-1.18-23.42-4.59-29.87h-12.38c0,0,3.33,7.81,4.59,29.87l-21.04-1.38v10.69l22.4,1.25c0,0,0.74,35.1-6.05,56.71
		c-0.02,0-0.02,0-0.03,0c-0.21-0.1-0.41-0.18-0.61-0.26c-0.04-0.02-0.1-0.05-0.14-0.06c-5.67-2.44-11.54-4.71-17.62-6.75
		c-1.41,4.85-2.5,8.89-2.78,10.4c33.59,11.55,60.79,29.73,77.23,51.75c-0.67,1.56-1.36,3.1-2.09,4.64
		c-18.24-20.38-44.79-36.94-76.4-47.45c-0.25,3.03-0.28,6.76,0.28,11.39c29.85,10.59,54.51,26.93,70.61,46.8
		c-1.04,1.85-2.12,3.67-3.26,5.46c-16.37-17.81-38.87-32.43-65.32-42.24c1.42,4.49,3.37,9.21,5.26,13.5
		c21.93,9.45,40.42,22.51,53.85,37.98c-1.27,1.78-2.61,3.54-3.98,5.25c-12.35-14.12-28.27-26.15-46.73-35.23
		c1.15,2.66,2,4.76,2.31,5.97c0.1,0.42,0.17,0.82,0.22,1.23c2.19-0.29,6.48,1.53,8.68,3.82c1.79,1.86,1.16,5.75,0.73,7.6
		c10.8,7.1,20.25,15.37,28.06,24.57c-28.29,31.14-69.1,50.68-114.47,50.68c-50.4,0-95.16-24.12-123.37-61.45
		c8.82-7.78,19.04-14.67,30.33-20.48c-0.43-1.65-1.32-6.59,2.57-8.95c4.71-2.89,13.86,1.56,13.86,1.56l-0.03,0.03
		c2.21-0.87,4.45-1.68,6.73-2.47c-1.03-2.17-2.54-6.06-2.38-10.16c-22,7.4-41.48,18.34-57.14,31.85c-1.07-1.61-2.09-3.24-3.08-4.88
		c16.36-14.6,37.66-26.33,62.11-33.92c4.98-6.73,6.9-9.29,7.82-13.18c-29.56,7.5-55.46,20.58-75.27,37.48
		c-0.44-0.87-0.89-1.76-1.3-2.64c18.34-20.11,45.2-35.79,76.85-44.34c-0.31-3.67-0.88-7.72-1.31-10.62
		c-32.39,8.52-60.28,24.16-80.19,44.39c-0.68-1.7-1.31-3.41-1.92-5.14c18.34-21.91,46.76-39.16,80.72-48.58l-1.59-10.58
		c-7.73,2.09-15.18,4.59-22.34,7.43l-0.33,0.14c0-0.04-0.01-0.09-0.01-0.14c-1.14-8.91-3.8-34.06-1.69-58.94h25.96v-10.4h-23.28
		c1.58-10.78,4.26-21.08,8.59-29.43l-12.18-0.21c0,0-4.29,12.1-7.59,29.64h-22.77v10.4h19.56c-2.74,19.26-3.54,42.66,2.81,63.62
		l-0.16,0.08c-19.53,9.14-36.35,21.03-49.43,34.89c-3.36-12.63-5.13-25.9-5.13-39.58c0-75.12,53.6-137.73,124.64-151.67l0.38-4.81
		l2.51,4.26c8.79-1.55,17.82-2.36,27.05-2.36c3.2,0,6.38,0.11,9.53,0.3l0.39-0.39l-0.08,0.41c5.93,0.37,11.77,1.06,17.5,2.09
		l0.05-4.31l2.99,4.89C515.62,458.84,569,521.35,569,596.32c0,16.76-2.68,32.91-7.62,48.03c-12.18-13.95-28.34-26.23-47.5-36.18
		c0,0-0.61-0.31-1.6-0.8C514.5,599.16,521.08,571.85,518.52,545.14z"/>
	<path d="M409.37,541.88c1.68,0.34,3.08,0.34,3.08,0.34s1.01,1.81,3.89,1.67s3.35-1,4.69-1.5c1.34-0.51,2.14,0,2.14,0
		s1.94-0.44,1.47-1.51c-0.47-1.07-2.08-1.21-3.68-0.4c-1.61,0.8-2.14,2.55-4.02,2.41c-1.88-0.13-4.35-1.61-4.35-1.61l-3.22-0.4
		C409.37,540.88,407.69,541.55,409.37,541.88z"/>
	<polygon class="st1" points="480.61,489.99 462,480 448.61,480.46 430,494.75 433.18,472.97 420.7,476.83 419.56,497.48 
		408.44,476.15 401.41,473.65 401.41,469.56 398.46,469.56 398.46,473.65 395.51,490.44 388.7,471.83 378.72,477.05 370.55,493.16 
		368.96,477.28 350.35,488.4 350.35,484.77 367.6,471.83 359.88,463.44 377.13,465.48 383.26,460.26 384.47,444.65 384.85,439.84 
		387.36,444.1 395.96,458.67 407.31,458.45 423.94,442.04 424.33,441.65 424.25,442.06 420.93,459.58 441.57,457.99 441.75,444.15 
		441.8,439.84 444.79,444.73 453.6,459.13 462.22,465.25 478.34,460.94 469.03,472.51 	"/>
	<path class="st1" d="M399.13,506.19c13.59,4.96,11.51,18.39,11.51,18.39c-5.28-7.04-18.07-3.04-18.07-3.04
		c-2.4-1.76-0.32-4,0.96-4.96c1.28-0.96,13.75-0.16,13.75-0.16c-6.4-13.27-24.15-2.4-24.15-2.4c-5.44,22.23,17.11,37.58,17.11,37.58
		c9.11-6.24,16.79-0.8,16.79-0.8s5.44-2.08,9.11-2.4c3.68-0.32,9.65,3.2,9.65,3.2c9.33-14.71,13.85-34.86,13.85-34.86
		c-4.16-4.64-9.91-5.28-9.91-5.28c-13.43-2.4-15.19,6.88-15.19,6.88s7.52-0.96,12.15,0.16s3.04,4.64,3.04,4.64
		c-13.91-4.32-18.55,1.92-18.55,1.92c-0.16-28.62,29.1-12.31,29.1-12.31c0.96-17.75-6.24-25.42-6.24-25.42l-15.83,10.16l2.4-20.55
		l-7.84,0.64l-2.56,25.26l-13.11-24.46l-6.56-2.72l-4.8,17.43l-2.72-3.2h-3.84c-5.44,6.24-5.92,19.67-5.92,19.67
		C387.46,506.03,399.13,506.19,399.13,506.19z M416.94,542.89c1.88,0.13,2.41-1.61,4.02-2.41c1.61-0.8,3.22-0.67,3.68,0.4
		c0.47,1.07-1.47,1.51-1.47,1.51s-0.8-0.51-2.14,0c-1.34,0.51-1.81,1.37-4.69,1.5s-3.89-1.67-3.89-1.67s-1.41,0-3.08-0.34
		c-1.67-0.33,0-1,0-1l3.22,0.4C412.58,541.28,415.06,542.75,416.94,542.89z"/>
	<path class="st1" d="M417.4,560.55c13.32-0.32,13.86-3.68,13.86-3.68s0.96-1.76-3.2-3.45S418,554.48,418,554.48s0,0-5.76-1.92
		c-5.76-1.92-8.79,2.24-8.79,2.24C405.04,560.87,417.4,560.55,417.4,560.55z"/>
	<path class="st1" d="M382.29,493.26c-2.18-0.24-4.91,7.49-4.91,7.49c-7.9,21.59,0.51,36.9,0.51,36.9
		c9.57,17.56,8.37,25.1,8.82,28.27c0.45,3.17,0.9,11.38-3.02,17.86c-3.92,6.48-7.01,6.93-7.16,10.85c-0.15,3.92,3.38,2.61,3.38,2.61
		c1.61-7.46,5.34-3.83,10.69-11.3c5.34-7.46,5.06-15.73,4.09-23.29s-3.62-10.14-10.39-23.67c-6.76-13.53-5.39-28.58-2.9-34.13
		C383.9,499.3,384.47,493.5,382.29,493.26z"/>
	<path class="st1" d="M374.96,558.42c-0.2,7.64-2.24,15.18-5.3,21.4c-3.06,6.22-1.73,11.92,1.53,15.49c0,0,1.23,2.75,2.81,0
		c0,0,0.66-8.87,7.28-15.79c0,0,5.1-11.62,0-27.47c-5.09-15.84-12.84-19.71-9.38-42.03c0,0,5.89-22.52,10.39-28.02
		c0,0,2.54-2.96,0-3.87c-2.54-0.92-12.42,16.92-14.36,33.73C366,528.67,375.17,550.78,374.96,558.42z"/>
	<path class="st1" d="M363.54,579.95c0,0-0.3,3.21,0.31,4.25c0,0,1.14,3.11,2.49,0c1.35-3.11,1.04-6.74,5.08-15.03
		c4.04-8.29-1.87-28.31-1.87-28.31s-7.15-21.77-3.21-33.07c3.94-11.3,2.87-10.47,2-11.2c-0.86-0.73-6.88,7.26-8.74,14.2
		c-1.87,6.95-2.38,19.88,4.15,33.11C370.28,557.14,363.65,573.1,363.54,579.95z"/>
	<path class="st1" d="M451.57,519.48c-3.06,14.57-11.32,30.44-10.49,42.32c0.84,11.88,4.08,20.69,15.87,32.67c0,0,1.9,2.14,3.5,4.91
		c0,0,3.02,1.68,2.27-3.44c-0.76-5.12-6.55-16.7-6.55-16.7s-7.47-10.57-6.46-20.14c1.01-9.57,3.19-16.45,6.38-24.67
		c2.14-5.52,3.26-11.41,3.66-17.3c0.62-9.07,1.6-22.51-8.18-27.33c0,0-3.67-1.48-1.18,4.08
		C452.87,499.43,454.63,504.91,451.57,519.48z"/>
	<path class="st1" d="M462.37,510.06c0.99,10.64-4.84,28.2-4.84,28.2s-9.08,17.74-3.32,29.95s11.04,23.14,10.57,30.07
		c-0.47,6.93-1.06,7.17,1.17,7.17c2.23,0,3.52-17.97,2.35-25.49c-1.17-7.52-9.3-10.59-7.35-25.95c1.96-15.36,10.15-28.77,9.87-39.48
		c-0.28-10.71-6.52-20.3-6.52-20.3s-4.45-5.9-7.95-8.68c0,0-2.71-1.59-3.44,0c-0.73,1.59,0.2,2.64,3.44,5.95
		C459.6,494.79,461.38,499.42,462.37,510.06z"/>
	<path class="st1" d="M469.62,531.75c0,0-6.58,17.83-6.78,25.06c-0.21,7.23,1.98,15.46,5.1,15.05c3.12-0.41,2.9-5.04,2.9-5.04
		c-3.18-13.99,1.49-27.47,1.49-27.47s5.41-15.27,6.06-22.65c0.66-7.38-3.14-14.61-4.24-16.29c-1.1-1.68-3.65-5.26-4.09-1.46
		c-0.44,3.8,2.7,6.36,3.21,13.3C473.78,519.19,469.62,531.75,469.62,531.75z"/>
	<path class="st1" d="M403.45,626.56c8.17,9.97,16.63,23.92,16.63,23.92c3.86-13.7,19.44-32.89,16.69-47.34
		c-2.74-14.45,2.12-24.67,2.37-26.04c0.25-1.37,1.25-4.11-2.62-2.63s-12.21,3.75-17.57,3.63c-5.36-0.12-15.2-3.86-17.44-3.61
		c-2.24,0.25-1,4.24-1,4.24c1,9.59-1.49,17.82-1.49,17.82S395.28,616.59,403.45,626.56z M406.25,612.26c2.25-6.86,12.06,0,12.06,0
		s7.63-7.72,11.94-0.66c0,0,2.93,4.96-11.94,19.94C418.31,631.54,404,619.12,406.25,612.26z"/>
	<path class="st1" d="M395.25,629.06c4.62,12.67,15.77,24.52,19.21,32.79s3.79,25.76,3.79,25.76s4.47-8.95,7.37-22.87
		c2.89-13.91,13.92-30.53,16.19-35.17c2.27-4.64,4.15-8.59,1.09-26.47c-3.06-17.88,3.36-18.08,1.28-21.33c-2.07-3.26-4.12,0-4.12,0
		c-4.32,8.59-0.32,20.64-0.02,26.27s-2.14,9.57-2.14,9.57c-6.94,10.96-18.33,40.12-18.33,40.12c-2.04-11.38-7.19-15.24-17.28-28.34
		c-10.09-13.1-6.33-27.37-6.33-27.37C387.77,606.27,390.63,616.39,395.25,629.06z"/>
	<path class="st1" d="M395.82,636.49c-4.28-8.02-4.49-9.41-4.49-9.41s-3.74,1.07,1.07,14.87c4.81,13.8,8.34,22.25,9.95,35.3
		c1.6,13.05,11.45,21.07,11.45,21.07s3.57-18.28,0-31.13C410.22,654.35,400.1,644.52,395.82,636.49z"/>
	<path class="st1" d="M449.23,633.96c0-0.12,5.77-26.03,3.64-34.94l-1.92-6.88c0,0-7.23,2.23-6.35,12.14
		c0.32,3.59,1.28,7.08,1.63,10.66c0.38,3.84,0.23,7.74-0.65,11.51c-0.9,3.91-2.81,7.15-4.71,10.64c-1.39,2.55-2.73,5.12-4,7.73
		c-3.02,6.18-5.76,12.56-7.69,19.18c-4.66,15.99-9.71,29.55-9.71,30.06s-2.27,5.26-1.79,9.82c0,0,10.49-20.04,16.87-35.72
		C440.93,652.46,449.23,634.09,449.23,633.96z"/>
	<path class="st1" d="M473.87,571.48c0,0,1.05,18.54-2.28,26.15s-8.75,18.06-8.75,18.06s0.1-12.84-6.27-16.92
		c0,0-0.95,23.35-4.26,37.61c0,0-6.63,14.58-12.86,25.58c-6.23,10.99-12.27,51.61,3.49,60.59c0,0,12.65,6.33,21.51-4.26
		c0,0,0.35-3.22-3.91-3.45c-4.26-0.23-5.75,3.57-11.39-0.12c-5.64-3.68-8.05-20.94-6.21-34.28c1.84-13.35,7.59-25.42,19.21-24.85
		c11.62,0.58,17.14,12.31,22.43,13.46s3.57-5.18,2.88-7.71s-11.16-25.19-11.73-33.71c-0.58-8.51,0.21-19.67,2.75-29.68
		C481,587.94,481.69,575.85,473.87,571.48z"/>
	<path class="st1" d="M447.97,675.79c2.83,1.06,6.36-10.34,10.7-11.76c4.33-1.41,8.84,0.97,10.08-1.33c1.24-2.3-0.8-4.42-3.54-5.3
		c-2.74-0.88-9.9-0.88-15.29,8.13C449.91,665.53,445.14,674.73,447.97,675.79z"/>
	<path class="st1" d="M445.4,685.51c0,0,1.86,2.21,3.27-1.94c1.41-4.16,0.53-5.48-0.97-5.66
		C447.7,677.91,443.28,681.53,445.4,685.51z"/>
	<path class="st1" d="M453.8,711.59c7.25-0.88,6.45-4.51,3.09-6.28c-3.36-1.77-5.82-4.16-7.51-10.25c-1.68-6.1-0.18-6.98-3.01-6.98
		c0,0-1.33-0.53-1.55,5.13C444.61,698.86,446.55,712.48,453.8,711.59z"/>
	<path class="st1" d="M479.76,672.07c0,0-5.28-0.11-8.41-2.77c0,0-11.54-3.73-15.9,8.61c0,0-0.38,2.02,0,3.16
		c0,0-5.67,1.53-3.37,9.71c2.3,8.18,5.84,12.15,13.59,17.62c0,0,9.85,15.5,16.05,17.6c0,0,5.65,0.82,4.29-3.37
		c-1.37-4.2-6.2-2.1-6.2-2.1s3.47-1.73,2.83-3.47c-0.64-1.73-4.2-4.56-4.2-4.56s3.65,1.92,5.84,4.56s5.2,6.38,7.84,7.75
		c2.65,1.37,6.02-2.01,4.65-4.2c-1.37-2.19-6.02-3.74-6.02-3.74s1.46-2.19,0.27-3.47c-1.19-1.28-3.28-3.01-3.28-3.01l5.38,3.13
		c0,0,4.99,7.77,8.51,6.84c3.51-0.92,4.13-4.44,3.33-5.98c-0.8-1.54-3.08-2.16-3.08-2.16s-3.22-3.84-5.67-5.89
		c2.37,1.74,8.66,5.87,11.34,2.74c3.33-3.88-14.3-16.52-14.3-16.52l-2.88-1.79l-3.03,4.74l-0.24-1.95l1.71-4.11l-6-6.52
		c0,0,7.46,0.47,11.57-3.7c4.11-4.17,4.64-8.05,3.05-9.75s-5.11-1.41-6.52,0.06c-1.41,1.47-4.4,2.7-5.17,2.82
		C485,672.49,479.76,672.07,479.76,672.07z M475.62,686.72c-4.77,2.46-1.23,0.54-4.93,4.16c-3.69,3.62-5.39,2.77-5.39,2.77
		c1.23-0.23,3.69-2.85,2.15-6.04c-1.54-3.19,0.46-4.35,0.46-4.35c1.69-0.85,5.46,2.84,5.46,2.84c2,0.14,4.31-4.45,4.31-4.45
		C478.23,684.18,475.62,686.72,475.62,686.72z"/>
	<path class="st1" d="M420.36,708.93l10.14-10.61c-0.45-2.52,0.6-13.06,0.6-13.06C424.59,691.99,420.36,708.93,420.36,708.93z"/>
	<path class="st1" d="M417.62,721.79c6.72,0.91,17.86-4.39,17.86-4.39c-2.8-3.93-4.38-11.5-4.38-11.5
		C419.24,712.38,417.62,721.79,417.62,721.79z"/>
	<path class="st1" d="M398.5,697.09l-8.09,13.96c0,0,17.55,6.28,22.01,9.45C412.41,720.5,405.23,702.35,398.5,697.09z"/>
	<path class="st1" d="M409.88,707.07c0,0,0.47-8.41-2.83-13.83c-3.3-5.42-8.25-18.62-8.25-18.62s-5.5,6.84-0.55,16.23
		s11.32,17.95,11.32,17.95L409.88,707.07z"/>
	<path class="st1" d="M392.69,651.11c-3.57-11.1-5.55-26.27-5.55-26.27c-5.05-23.99,7.63-34.29,7.63-34.29
		c-15.56,2.08-16.95,21.72-16.95,21.72c-20.72-20.31-17.35-39.56-17.35-39.56c-7.73,3.27-8.13,8.52-8.13,8.52
		c-2.48,19.23,4.66,32.71,3.96,43.51s-2.48,6.24-7.04,17.05c-4.56,10.8,1.39,18.44,1.39,18.44c8.92-3.67,17.35-3.47,17.35-3.47
		c10.61,1.49,15.96,7.53,16.95,15.46c0.99,7.93-0.69,23.19-6.64,34.89c-5.95,11.7-12.89,15.16-13.58,17.84s6.94,3.37,14.87-7.33
		c7.93-10.7,13.58-29.34,14.67-34.29C395.36,678.36,396.26,662.21,392.69,651.11z"/>
	<path class="st1" d="M372.65,713.49c10.19-16.54,11.74-28.2,11.07-38.39c-0.66-10.19-9.67-16.76-19.93-16.61
		c0,0-5.76,2.21-2.07,3.4c3.69,1.18,14.69,0.81,16.91,14.03c2.21,13.21-5.83,30.64-12.62,39.27c-6.79,8.64-9.15,1.26-9.15,1.26
		s1.55-2.21,1.26-3.62c-0.3-1.4-6.94,0.12-7.01,6.56C351.02,725.82,362.46,730.03,372.65,713.49z"/>
	<path class="st1" d="M362.22,701.59c8.9-6.61,11.51-14.69,11.59-18.53c0.08-3.84-0.24-7.51-3.92-9.71l-0.39-0.83
		c0,0-1.52-7.98-12.73-8.25c0,0-5.65-0.27-11.47,2.78c-5.83,3.05-11.56-3.13-14.34-4.35c-2.78-1.21-6.99,0.67-4.93,5.69
		c2.06,5.02,7.71,8.43,15.6,9.32c0,0-21.87,15.24-25.46,21.33c-3.59,6.1,2.87,4.75,4.66,4.12s0.18-0.45,0.18-0.45l12.91-8.07
		l-12.73,10.13c0,0-6.72,4.75-3.41,8.07c3.32,3.32,20.53-11.47,20.53-11.47l1.13-0.34l-6.82,6.49l-0.59,3.6l-1.66-1.99
		c0,0-6.66,4.4-5.96,7.67c0.7,3.27,5.75,2.93,10.9-1.46c5.14-4.39,9.41-8.61,9.41-8.61l-0.29,1.55c0,0-8.66,8-8.61,10.71
		c0.04,2.71,5.06,4.53,9.37,0C349.5,714.47,353.33,708.2,362.22,701.59z M355.61,679.71c0,0,2.37-0.82,4,0.98
		c1.63,1.8,1.14,4.9-2.04,6.12c-3.18,1.22-2.69,0.41-5.55-1.55C349.16,683.31,355.61,679.71,355.61,679.71z"/>
</g>
</svg>
