<?xml version="1.0" encoding="utf-8"?>
<!-- Generator: Adobe Illustrator 25.3.0, SVG Export Plug-In . SVG Version: 6.00 Build 0)  -->
<svg version="1.1" id="Layer_1" xmlns="http://www.w3.org/2000/svg" xmlns:xlink="http://www.w3.org/1999/xlink" x="0px" y="0px"
	 viewBox="0 0 841.89 1190.55" style="enable-background:new 0 0 841.89 1190.55;" xml:space="preserve">
<style type="text/css">
	.st0{fill:#CFCECE;}
	.st1{fill:#4F7BBD;}
	.st2{fill:#E84032;}
	.st3{fill:#FBB90E;}
	.st4{fill:#3CA552;}
	.st5{fill:#52ACDD;}
	.st6{fill:#4E78BB;}
	.st7{fill:#A8A3A9;}
	.st8{fill:#676767;}
	.st9{fill:#F4F3F4;}
</style>
<rect x="167.09" y="671.25" class="st0" width="246.73" height="55.57"/>
<rect x="426.1" y="671.25" class="st0" width="246.73" height="55.57"/>
<path class="st1" d="M190.2,369.43h24.69v85.77c0,13.65-1.08,23.23-3.25,28.74c-2.17,5.51-5.74,9.89-10.72,13.14
	c-4.98,3.25-10.96,4.88-17.93,4.88c-14.24,0-26.36-6.24-36.38-18.72l17.75-16.61c3.92,4.45,7.26,7.44,10.02,8.96
	c2.75,1.52,5.42,2.29,8,2.29c2.64,0,4.6-1.11,5.89-3.34c1.29-2.23,1.93-7.12,1.93-14.68V369.43z"/>
<path class="st2" d="M337.58,457.84h-77.07c1.11,6.8,4.09,12.2,8.92,16.21c4.83,4.01,11,6.02,18.5,6.02c8.96,0,16.67-3.13,23.11-9.4
	l20.21,9.49c-5.04,7.15-11.07,12.44-18.1,15.86c-7.03,3.43-15.38,5.14-25.05,5.14c-15,0-27.22-4.73-36.65-14.19
	c-9.43-9.46-14.15-21.31-14.15-35.55c0-14.59,4.7-26.7,14.11-36.34c9.4-9.64,21.19-14.46,35.37-14.46c15.06,0,27.3,4.82,36.74,14.46
	c9.43,9.64,14.15,22.37,14.15,38.18L337.58,457.84z M313.59,438.94c-1.58-5.33-4.71-9.67-9.38-13.01
	c-4.67-3.34-10.08-5.01-16.24-5.01c-6.69,0-12.56,1.88-17.6,5.62c-3.17,2.34-6.1,6.47-8.8,12.39H313.59z"/>
<path class="st3" d="M415.53,416.45l-14.85,14.85c-6.04-5.98-11.51-8.96-16.43-8.96c-2.7,0-4.8,0.57-6.33,1.71
	c-1.52,1.14-2.28,2.56-2.28,4.26c0,1.29,0.48,2.48,1.45,3.56c0.97,1.09,3.35,2.56,7.16,4.44l8.79,4.39
	c9.26,4.57,15.61,9.23,19.07,13.97c3.46,4.75,5.19,10.31,5.19,16.7c0,8.5-3.12,15.59-9.36,21.27c-6.24,5.68-14.6,8.52-25.09,8.52
	c-13.94,0-25.08-5.45-33.4-16.35l14.76-16.08c2.81,3.28,6.11,5.93,9.89,7.95c3.78,2.02,7.13,3.03,10.06,3.03
	c3.16,0,5.71-0.76,7.65-2.29c1.93-1.52,2.9-3.28,2.9-5.27c0-3.69-3.49-7.29-10.46-10.81l-8.08-4.04
	c-15.47-7.79-23.2-17.55-23.2-29.26c0-7.56,2.91-14.02,8.74-19.38c5.83-5.36,13.28-8.04,22.37-8.04c6.21,0,12.05,1.36,17.53,4.09
	C407.08,407.44,411.72,411.35,415.53,416.45z"/>
<path class="st1" d="M436.1,403.09h24.26v46.05c0,8.96,0.62,15.19,1.85,18.68c1.23,3.49,3.22,6.2,5.95,8.13
	c2.73,1.93,6.09,2.9,10.09,2.9c3.99,0,7.39-0.95,10.18-2.86c2.79-1.9,4.86-4.7,6.21-8.39c1-2.75,1.5-8.64,1.5-17.66v-46.84h23.99
	v40.51c0,16.7-1.32,28.12-3.96,34.27c-3.22,7.5-7.97,13.26-14.24,17.27c-6.27,4.01-14.24,6.02-23.9,6.02
	c-10.49,0-18.97-2.34-25.44-7.03c-6.47-4.69-11.03-11.22-13.67-19.6c-1.88-5.8-2.81-16.35-2.81-31.64V403.09z M482.06,351.15h28.39
	l-32.17,34.45h-17.22L482.06,351.15z"/>
<path class="st4" d="M602.72,416.45l-14.85,14.85c-6.04-5.98-11.51-8.96-16.43-8.96c-2.7,0-4.8,0.57-6.33,1.71
	c-1.52,1.14-2.28,2.56-2.28,4.26c0,1.29,0.48,2.48,1.45,3.56c0.97,1.09,3.35,2.56,7.16,4.44l8.79,4.39
	c9.26,4.57,15.61,9.23,19.07,13.97c3.46,4.75,5.19,10.31,5.19,16.7c0,8.5-3.12,15.59-9.36,21.27c-6.24,5.68-14.6,8.52-25.09,8.52
	c-13.94,0-25.08-5.45-33.4-16.35l14.76-16.08c2.81,3.28,6.11,5.93,9.89,7.95c3.78,2.02,7.13,3.03,10.06,3.03
	c3.16,0,5.71-0.76,7.65-2.29c1.93-1.52,2.9-3.28,2.9-5.27c0-3.69-3.49-7.29-10.46-10.81l-8.09-4.04
	c-15.47-7.79-23.2-17.55-23.2-29.26c0-7.56,2.91-14.02,8.74-19.38c5.83-5.36,13.28-8.04,22.37-8.04c6.21,0,12.05,1.36,17.53,4.09
	C594.27,407.44,598.91,411.35,602.72,416.45z"/>
<g>
	<g>
		<path class="st5" d="M515.63,517.78h8.71v2.97h-5.69v2.89h5.69v2.92h-5.69v4.2h5.69v2.98h-8.71V517.78z"/>
		<path class="st5" d="M526.53,517.38h2.96v16.36h-2.96V517.38z"/>
		<path class="st5" d="M538.72,533.74v-15.96h2.51c1.46,0,2.52,0.09,3.19,0.28c0.96,0.25,1.72,0.72,2.28,1.41
			c0.56,0.69,0.85,1.5,0.85,2.43c0,0.61-0.13,1.16-0.39,1.65c-0.26,0.5-0.67,0.96-1.25,1.39c0.97,0.46,1.68,1.03,2.13,1.71
			c0.45,0.68,0.67,1.49,0.67,2.42c0,0.9-0.23,1.71-0.69,2.45c-0.46,0.74-1.06,1.29-1.79,1.65c-0.73,0.37-1.74,0.55-3.03,0.55H538.72
			z M541.76,520.68v3.36h0.66c0.74,0,1.29-0.16,1.65-0.47s0.54-0.73,0.54-1.27c0-0.5-0.17-0.89-0.51-1.19
			c-0.34-0.29-0.86-0.44-1.56-0.44H541.76z M541.76,526.75v4.09h0.76c1.26,0,2.11-0.16,2.55-0.48c0.44-0.32,0.66-0.78,0.66-1.39
			c0-0.69-0.26-1.23-0.77-1.63c-0.52-0.4-1.37-0.6-2.57-0.6H541.76z"/>
		<path class="st5" d="M551.27,521.94h2.99v5.68c0,1.11,0.08,1.87,0.23,2.31c0.15,0.43,0.4,0.77,0.73,1
			c0.34,0.24,0.75,0.36,1.25,0.36c0.49,0,0.91-0.12,1.26-0.35c0.34-0.23,0.6-0.58,0.77-1.04c0.12-0.34,0.18-1.07,0.18-2.18v-5.78
			h2.96v5c0,2.06-0.16,3.47-0.49,4.23c-0.4,0.93-0.98,1.64-1.76,2.13c-0.77,0.49-1.76,0.74-2.95,0.74c-1.29,0-2.34-0.29-3.14-0.87
			c-0.8-0.58-1.36-1.38-1.69-2.42c-0.23-0.72-0.35-2.02-0.35-3.91V521.94z"/>
		<path class="st5" d="M576.44,528.7h-9.51c0.14,0.84,0.5,1.51,1.1,2c0.6,0.5,1.36,0.74,2.28,0.74c1.11,0,2.06-0.39,2.85-1.16
			l2.49,1.17c-0.62,0.88-1.37,1.54-2.23,1.96c-0.87,0.42-1.9,0.63-3.09,0.63c-1.85,0-3.36-0.58-4.52-1.75
			c-1.16-1.17-1.75-2.63-1.75-4.39c0-1.8,0.58-3.3,1.74-4.49c1.16-1.19,2.62-1.78,4.37-1.78c1.86,0,3.37,0.59,4.53,1.78
			c1.16,1.19,1.75,2.76,1.75,4.71L576.44,528.7z M573.48,526.36c-0.2-0.66-0.58-1.19-1.16-1.61c-0.58-0.41-1.24-0.62-2-0.62
			c-0.83,0-1.55,0.23-2.17,0.69c-0.39,0.29-0.75,0.8-1.09,1.53H573.48z"/>
		<path class="st5" d="M578.83,521.94h2.96v1.21c0.67-0.57,1.28-0.96,1.82-1.18c0.55-0.22,1.1-0.33,1.67-0.33
			c1.17,0,2.16,0.41,2.98,1.23c0.69,0.69,1.03,1.72,1.03,3.08v7.8h-2.93v-5.17c0-1.41-0.06-2.34-0.19-2.81
			c-0.13-0.46-0.35-0.82-0.66-1.06c-0.31-0.24-0.7-0.36-1.16-0.36c-0.6,0-1.11,0.2-1.54,0.6c-0.43,0.4-0.73,0.96-0.89,1.66
			c-0.09,0.37-0.13,1.17-0.13,2.39v4.73h-2.96V521.94z"/>
		<path class="st5" d="M598.7,517.78h3.22c1.74,0,3,0.16,3.77,0.48c0.77,0.32,1.38,0.84,1.82,1.56c0.44,0.72,0.67,1.58,0.67,2.59
			c0,1.11-0.29,2.04-0.87,2.78c-0.58,0.74-1.37,1.25-2.37,1.54c-0.59,0.17-1.65,0.25-3.2,0.25v6.76h-3.04V517.78z M601.73,524.02
			h0.97c0.76,0,1.29-0.05,1.58-0.16c0.3-0.11,0.53-0.29,0.7-0.54c0.17-0.25,0.25-0.55,0.25-0.91c0-0.62-0.24-1.07-0.72-1.35
			c-0.35-0.21-0.99-0.32-1.93-0.32h-0.86V524.02z"/>
		<path class="st5" d="M619.53,521.94h2.96v11.8h-2.96v-1.25c-0.58,0.55-1.16,0.95-1.74,1.19c-0.58,0.24-1.21,0.36-1.89,0.36
			c-1.52,0-2.84-0.59-3.96-1.77c-1.11-1.18-1.67-2.65-1.67-4.41c0-1.82,0.54-3.32,1.61-4.48c1.08-1.16,2.38-1.75,3.92-1.75
			c0.71,0,1.37,0.13,1.99,0.4c0.62,0.27,1.2,0.67,1.72,1.2V521.94z M616.42,524.37c-0.92,0-1.68,0.32-2.28,0.97
			c-0.6,0.65-0.91,1.48-0.91,2.49c0,1.02,0.31,1.86,0.92,2.52c0.62,0.66,1.38,0.99,2.28,0.99c0.93,0,1.7-0.32,2.31-0.97
			c0.61-0.65,0.92-1.5,0.92-2.54c0-1.03-0.31-1.86-0.92-2.49C618.13,524.69,617.36,524.37,616.42,524.37z"/>
		<path class="st5" d="M632.71,523.59l-1.83,1.83c-0.74-0.74-1.42-1.11-2.03-1.11c-0.33,0-0.59,0.07-0.78,0.21
			c-0.19,0.14-0.28,0.32-0.28,0.53c0,0.16,0.06,0.31,0.18,0.44c0.12,0.13,0.41,0.32,0.88,0.55l1.08,0.54
			c1.14,0.56,1.93,1.14,2.35,1.72c0.43,0.59,0.64,1.27,0.64,2.06c0,1.05-0.38,1.92-1.16,2.63c-0.77,0.7-1.8,1.05-3.1,1.05
			c-1.72,0-3.1-0.67-4.12-2.02l1.82-1.98c0.35,0.4,0.75,0.73,1.22,0.98c0.47,0.25,0.88,0.37,1.24,0.37c0.39,0,0.71-0.09,0.94-0.28
			c0.24-0.19,0.36-0.4,0.36-0.65c0-0.46-0.43-0.9-1.29-1.33l-1-0.5c-1.91-0.96-2.86-2.17-2.86-3.61c0-0.93,0.36-1.73,1.08-2.39
			c0.72-0.66,1.64-0.99,2.76-0.99c0.77,0,1.49,0.17,2.16,0.5C631.67,522.47,632.24,522.96,632.71,523.59z"/>
		<path class="st5" d="M635.62,517.59h2.96v4.35h1.76v2.55h-1.76v9.25h-2.96v-9.25h-1.52v-2.55h1.52V517.59z"/>
		<path class="st5" d="M647.47,521.63c1.11,0,2.16,0.28,3.14,0.83c0.98,0.56,1.74,1.31,2.29,2.27c0.55,0.95,0.82,1.98,0.82,3.09
			c0,1.11-0.28,2.15-0.83,3.12s-1.31,1.73-2.26,2.27s-2.01,0.82-3.16,0.82c-1.69,0-3.14-0.6-4.33-1.81c-1.2-1.2-1.8-2.67-1.8-4.39
			c0-1.84,0.68-3.38,2.03-4.61C644.56,522.17,645.93,521.63,647.47,521.63z M647.51,524.42c-0.92,0-1.69,0.32-2.3,0.96
			c-0.61,0.64-0.92,1.46-0.92,2.46c0,1.03,0.3,1.86,0.91,2.5c0.6,0.64,1.37,0.95,2.3,0.95c0.93,0,1.7-0.32,2.31-0.97
			c0.62-0.64,0.92-1.47,0.92-2.48c0-1.01-0.3-1.83-0.91-2.47C649.23,524.74,648.46,524.42,647.51,524.42z"/>
		<path class="st5" d="M655.45,521.94h2.54v1.49c0.27-0.59,0.64-1.03,1.1-1.33c0.46-0.3,0.95-0.46,1.5-0.46c0.38,0,0.78,0.1,1.2,0.3
			l-0.92,2.55c-0.35-0.17-0.63-0.26-0.86-0.26c-0.46,0-0.84,0.28-1.16,0.85c-0.32,0.56-0.47,1.67-0.47,3.32l0.01,0.58v4.77h-2.94
			V521.94z"/>
	</g>
</g>
<g>
	<circle class="st2" cx="651.56" cy="488.74" r="13.21"/>
</g>
<g>
	<g>
		<polygon class="st2" points="639.73,466.23 661.85,466.23 662.93,399.05 696.65,399.05 696.65,377.2 663.2,377.2 663.2,351.3 
			639.73,351.3 639.73,378.55 606.81,378.55 606.81,399.32 639.19,399.32 		"/>
	</g>
</g>
<g>
	<g>
		<path class="st6" d="M807.19,623.5H32.73v-59.02h774.46V623.5z M35.25,620.98h769.42V567H35.25V620.98z"/>
	</g>
</g>
<g>
	<g>
		<path class="st7" d="M65.84,595.16c-0.13-2.4-0.28-5.29-0.26-7.43h-0.08c-0.59,2.02-1.3,4.19-2.17,6.54l-3.04,8.36h-1.69
			l-2.78-8.2c-0.82-2.43-1.51-4.65-1.99-6.69h-0.05c-0.05,2.15-0.18,5.03-0.33,7.61l-0.46,7.38h-2.12l1.2-17.22h2.84l2.94,8.33
			c0.72,2.12,1.3,4.01,1.74,5.8h0.08c0.43-1.74,1.05-3.63,1.81-5.8l3.07-8.33h2.84l1.07,17.22h-2.17L65.84,595.16z"/>
		<path class="st7" d="M73.21,596.95c0.05,3.04,1.99,4.29,4.24,4.29c1.61,0,2.58-0.28,3.42-0.64l0.38,1.61
			c-0.79,0.36-2.15,0.79-4.11,0.79c-3.81,0-6.08-2.53-6.08-6.26c0-3.73,2.2-6.67,5.8-6.67c4.04,0,5.11,3.55,5.11,5.83
			c0,0.46-0.05,0.82-0.08,1.05H73.21z M79.8,595.34c0.03-1.43-0.59-3.65-3.12-3.65c-2.27,0-3.27,2.09-3.45,3.65H79.8z"/>
		<path class="st7" d="M90.18,584.58h2.22v7.77h0.05c0.79-1.38,2.22-2.27,4.22-2.27c3.07,0,5.24,2.56,5.21,6.31
			c0,4.42-2.78,6.62-5.54,6.62c-1.79,0-3.22-0.69-4.14-2.32h-0.08l-0.1,2.04h-1.94c0.05-0.84,0.1-2.09,0.1-3.19V584.58z
			 M92.4,597.76c0,0.28,0.05,0.56,0.1,0.82c0.44,1.56,1.74,2.63,3.37,2.63c2.35,0,3.76-1.92,3.76-4.75c0-2.48-1.28-4.6-3.68-4.6
			c-1.53,0-2.96,1.05-3.42,2.76c-0.05,0.26-0.13,0.56-0.13,0.92V597.76z"/>
		<path class="st7" d="M115.07,599.35c0,1.28,0.03,2.4,0.1,3.37h-1.99l-0.13-2.02H113c-0.59,1-1.89,2.3-4.09,2.3
			c-1.94,0-4.27-1.07-4.27-5.42v-7.23h2.25v6.85c0,2.35,0.72,3.93,2.76,3.93c1.51,0,2.55-1.05,2.96-2.04
			c0.13-0.33,0.21-0.74,0.21-1.15v-7.59h2.25V599.35z"/>
		<path class="st7" d="M118.5,600.42c0.66,0.43,1.84,0.89,2.96,0.89c1.64,0,2.4-0.82,2.4-1.84c0-1.07-0.64-1.66-2.3-2.27
			c-2.22-0.79-3.27-2.02-3.27-3.5c0-1.99,1.61-3.63,4.27-3.63c1.25,0,2.35,0.36,3.04,0.77l-0.56,1.64
			c-0.49-0.31-1.38-0.72-2.53-0.72c-1.33,0-2.07,0.77-2.07,1.69c0,1.02,0.74,1.48,2.35,2.09c2.15,0.82,3.24,1.89,3.24,3.73
			c0,2.17-1.69,3.73-4.62,3.73c-1.35,0-2.61-0.36-3.47-0.87L118.5,600.42z"/>
		<path class="st7" d="M137.74,602.26c-0.59,0.31-1.89,0.74-3.55,0.74c-3.73,0-6.16-2.55-6.16-6.34c0-3.81,2.61-6.57,6.64-6.57
			c1.33,0,2.51,0.33,3.12,0.64l-0.51,1.74c-0.54-0.31-1.38-0.59-2.61-0.59c-2.84,0-4.37,2.09-4.37,4.68c0,2.86,1.84,4.62,4.29,4.62
			c1.28,0,2.12-0.33,2.76-0.61L137.74,602.26z"/>
		<path class="st7" d="M149.06,599.76c0,1.07,0.05,2.12,0.21,2.96h-2.04l-0.18-1.56h-0.08c-0.69,0.97-2.02,1.84-3.78,1.84
			c-2.5,0-3.78-1.76-3.78-3.55c0-2.99,2.66-4.62,7.44-4.6v-0.26c0-1.02-0.28-2.86-2.81-2.86c-1.15,0-2.35,0.36-3.22,0.92l-0.51-1.48
			c1.02-0.66,2.5-1.1,4.06-1.1c3.78,0,4.7,2.58,4.7,5.06V599.76z M146.89,596.41c-2.45-0.05-5.24,0.38-5.24,2.79
			c0,1.46,0.97,2.15,2.12,2.15c1.61,0,2.63-1.02,2.99-2.07c0.08-0.23,0.13-0.49,0.13-0.72V596.41z"/>
		<path class="st7" d="M152.69,594.21c0-1.46-0.02-2.71-0.1-3.86h1.97l0.08,2.43h0.1c0.56-1.66,1.92-2.71,3.42-2.71
			c0.25,0,0.43,0.03,0.64,0.08v2.12c-0.23-0.05-0.46-0.08-0.77-0.08c-1.58,0-2.71,1.2-3.01,2.89c-0.05,0.31-0.1,0.66-0.1,1.05v6.59
			h-2.22V594.21z"/>
		<path class="st7" d="M169.61,599.76c0,1.07,0.05,2.12,0.2,2.96h-2.04l-0.18-1.56h-0.08c-0.69,0.97-2.02,1.84-3.78,1.84
			c-2.5,0-3.78-1.76-3.78-3.55c0-2.99,2.66-4.62,7.44-4.6v-0.26c0-1.02-0.28-2.86-2.81-2.86c-1.15,0-2.35,0.36-3.22,0.92l-0.51-1.48
			c1.02-0.66,2.5-1.1,4.06-1.1c3.78,0,4.7,2.58,4.7,5.06V599.76z M167.44,596.41c-2.45-0.05-5.24,0.38-5.24,2.79
			c0,1.46,0.97,2.15,2.12,2.15c1.61,0,2.63-1.02,2.99-2.07c0.08-0.23,0.13-0.49,0.13-0.72V596.41z M168.57,585.01l-3.12,3.65h-1.61
			l2.25-3.65H168.57z"/>
		<path class="st7" d="M173.24,593.7c0-1.28-0.03-2.33-0.1-3.35h1.99l0.13,2.04h0.05c0.61-1.18,2.04-2.33,4.09-2.33
			c1.71,0,4.37,1.02,4.37,5.26v7.38h-2.25v-7.13c0-1.99-0.74-3.65-2.86-3.65c-1.48,0-2.63,1.05-3.01,2.3
			c-0.1,0.28-0.15,0.66-0.15,1.05v7.43h-2.25V593.7z"/>
		<path class="st7" d="M193.66,590.35l2.71,7.31c0.28,0.82,0.59,1.79,0.79,2.53h0.05c0.23-0.74,0.49-1.69,0.79-2.58l2.45-7.26h2.38
			l-3.37,8.81c-1.61,4.24-2.71,6.41-4.24,7.74c-1.1,0.97-2.2,1.35-2.76,1.46l-0.56-1.89c0.56-0.18,1.3-0.54,1.97-1.1
			c0.61-0.49,1.38-1.35,1.89-2.5c0.1-0.23,0.18-0.41,0.18-0.54c0-0.13-0.05-0.31-0.15-0.59l-4.57-11.39H193.66z"/>
		<path class="st7" d="M210.3,593.7c0-1.28-0.02-2.33-0.1-3.35h1.97l0.1,1.99h0.08c0.69-1.17,1.84-2.27,3.88-2.27
			c1.69,0,2.96,1.02,3.5,2.48h0.05c0.38-0.69,0.87-1.23,1.38-1.61c0.74-0.56,1.56-0.87,2.74-0.87c1.64,0,4.06,1.07,4.06,5.37v7.28
			h-2.2v-7c0-2.38-0.87-3.81-2.68-3.81c-1.28,0-2.27,0.95-2.66,2.04c-0.1,0.31-0.18,0.72-0.18,1.12v7.64h-2.2v-7.41
			c0-1.97-0.87-3.4-2.58-3.4c-1.41,0-2.43,1.12-2.78,2.25c-0.13,0.33-0.18,0.72-0.18,1.1v7.46h-2.2V593.7z"/>
		<path class="st7" d="M232.87,596.95c0.05,3.04,1.99,4.29,4.24,4.29c1.61,0,2.58-0.28,3.42-0.64l0.38,1.61
			c-0.79,0.36-2.15,0.79-4.11,0.79c-3.81,0-6.08-2.53-6.08-6.26c0-3.73,2.2-6.67,5.8-6.67c4.04,0,5.11,3.55,5.11,5.83
			c0,0.46-0.05,0.82-0.08,1.05H232.87z M239.46,595.34c0.03-1.43-0.59-3.65-3.12-3.65c-2.27,0-3.27,2.09-3.45,3.65H239.46z"/>
		<path class="st7" d="M251.09,596.95c0.05,3.04,1.99,4.29,4.24,4.29c1.61,0,2.58-0.28,3.42-0.64l0.38,1.61
			c-0.79,0.36-2.15,0.79-4.11,0.79c-3.81,0-6.08-2.53-6.08-6.26c0-3.73,2.2-6.67,5.8-6.67c4.04,0,5.11,3.55,5.11,5.83
			c0,0.46-0.05,0.82-0.08,1.05H251.09z M257.69,595.34c0.02-1.43-0.59-3.65-3.12-3.65c-2.27,0-3.27,2.09-3.45,3.65H257.69z"/>
		<path class="st7" d="M262.65,593.7c0-1.28-0.02-2.33-0.1-3.35h1.99l0.13,2.04h0.05c0.61-1.18,2.04-2.33,4.09-2.33
			c1.71,0,4.37,1.02,4.37,5.26v7.38h-2.25v-7.13c0-1.99-0.74-3.65-2.86-3.65c-1.48,0-2.63,1.05-3.02,2.3
			c-0.1,0.28-0.15,0.66-0.15,1.05v7.43h-2.25V593.7z"/>
		<path class="st7" d="M285.65,602.26c-0.59,0.31-1.89,0.74-3.55,0.74c-3.73,0-6.16-2.55-6.16-6.34c0-3.81,2.61-6.57,6.64-6.57
			c1.33,0,2.51,0.33,3.12,0.64l-0.51,1.74c-0.54-0.31-1.38-0.59-2.61-0.59c-2.84,0-4.37,2.09-4.37,4.68c0,2.86,1.84,4.62,4.29,4.62
			c1.28,0,2.12-0.33,2.76-0.61L285.65,602.26z"/>
		<path class="st7" d="M299.32,596.44c0,4.57-3.17,6.57-6.16,6.57c-3.35,0-5.93-2.45-5.93-6.36c0-4.14,2.71-6.57,6.13-6.57
			C296.92,590.07,299.32,592.65,299.32,596.44z M289.51,596.56c0,2.71,1.56,4.75,3.76,4.75c2.15,0,3.76-2.02,3.76-4.8
			c0-2.1-1.05-4.75-3.71-4.75C290.66,591.76,289.51,594.21,289.51,596.56z"/>
		<path class="st7" d="M302.16,593.7c0-1.28-0.02-2.33-0.1-3.35h1.99l0.13,2.04h0.05c0.61-1.18,2.04-2.33,4.09-2.33
			c1.71,0,4.37,1.02,4.37,5.26v7.38h-2.25v-7.13c0-1.99-0.74-3.65-2.86-3.65c-1.48,0-2.63,1.05-3.02,2.3
			c-0.1,0.28-0.15,0.66-0.15,1.05v7.43h-2.25V593.7z"/>
		<path class="st7" d="M318.95,587.39v2.96h3.22v1.71h-3.22v6.67c0,1.53,0.44,2.4,1.69,2.4c0.61,0,0.97-0.05,1.3-0.15l0.1,1.69
			c-0.44,0.18-1.12,0.33-1.99,0.33c-1.05,0-1.89-0.36-2.43-0.97c-0.64-0.66-0.87-1.76-0.87-3.22v-6.75h-1.92v-1.71h1.92v-2.27
			L318.95,587.39z"/>
		<path class="st7" d="M324.7,594.21c0-1.46-0.03-2.71-0.1-3.86h1.97l0.08,2.43h0.1c0.56-1.66,1.92-2.71,3.42-2.71
			c0.26,0,0.44,0.03,0.64,0.08v2.12c-0.23-0.05-0.46-0.08-0.77-0.08c-1.58,0-2.71,1.2-3.01,2.89c-0.05,0.31-0.1,0.66-0.1,1.05v6.59
			h-2.22V594.21z"/>
		<path class="st7" d="M341.62,599.76c0,1.07,0.05,2.12,0.21,2.96h-2.04l-0.18-1.56h-0.08c-0.69,0.97-2.02,1.84-3.78,1.84
			c-2.5,0-3.78-1.76-3.78-3.55c0-2.99,2.66-4.62,7.44-4.6v-0.26c0-1.02-0.28-2.86-2.81-2.86c-1.15,0-2.35,0.36-3.22,0.92l-0.51-1.48
			c1.02-0.66,2.5-1.1,4.06-1.1c3.78,0,4.7,2.58,4.7,5.06V599.76z M339.45,596.41c-2.45-0.05-5.24,0.38-5.24,2.79
			c0,1.46,0.97,2.15,2.12,2.15c1.61,0,2.63-1.02,2.99-2.07c0.08-0.23,0.13-0.49,0.13-0.72V596.41z"/>
		<path class="st7" d="M345.25,594.21c0-1.46-0.02-2.71-0.1-3.86h1.97l0.08,2.43h0.1c0.56-1.66,1.92-2.71,3.42-2.71
			c0.25,0,0.43,0.03,0.64,0.08v2.12c-0.23-0.05-0.46-0.08-0.77-0.08c-1.58,0-2.71,1.2-3.01,2.89c-0.05,0.31-0.1,0.66-0.1,1.05v6.59
			h-2.22V594.21z"/>
		<path class="st7" d="M362.17,599.76c0,1.07,0.05,2.12,0.2,2.96h-2.04l-0.18-1.56h-0.08c-0.69,0.97-2.02,1.84-3.78,1.84
			c-2.5,0-3.78-1.76-3.78-3.55c0-2.99,2.66-4.62,7.44-4.6v-0.26c0-1.02-0.28-2.86-2.81-2.86c-1.15,0-2.35,0.36-3.22,0.92l-0.51-1.48
			c1.02-0.66,2.5-1.1,4.06-1.1c3.78,0,4.7,2.58,4.7,5.06V599.76z M360,596.41c-2.45-0.05-5.24,0.38-5.24,2.79
			c0,1.46,0.97,2.15,2.12,2.15c1.61,0,2.63-1.02,2.99-2.07c0.08-0.23,0.13-0.49,0.13-0.72V596.41z M361.12,585.01l-3.12,3.65h-1.61
			l2.25-3.65H361.12z"/>
		<path class="st7" d="M365.8,593.7c0-1.28-0.03-2.33-0.1-3.35h1.99l0.13,2.04h0.05c0.61-1.18,2.04-2.33,4.09-2.33
			c1.71,0,4.37,1.02,4.37,5.26v7.38h-2.25v-7.13c0-1.99-0.74-3.65-2.86-3.65c-1.48,0-2.63,1.05-3.01,2.3
			c-0.1,0.28-0.15,0.66-0.15,1.05v7.43h-2.25V593.7z"/>
		<path class="st7" d="M378.56,605.86c0.54-1.51,1.23-4.24,1.51-6.11l2.5-0.26c-0.59,2.17-1.71,5.01-2.43,6.21L378.56,605.86z"/>
		<path class="st7" d="M399.51,602.26c-0.59,0.31-1.89,0.74-3.55,0.74c-3.73,0-6.16-2.55-6.16-6.34c0-3.81,2.61-6.57,6.64-6.57
			c1.33,0,2.51,0.33,3.12,0.64l-0.51,1.74c-0.54-0.31-1.38-0.59-2.61-0.59c-2.84,0-4.37,2.09-4.37,4.68c0,2.86,1.84,4.62,4.29,4.62
			c1.28,0,2.12-0.33,2.76-0.61L399.51,602.26z"/>
		<path class="st7" d="M412.49,599.35c0,1.28,0.03,2.4,0.1,3.37h-1.99l-0.13-2.02h-0.05c-0.59,1-1.89,2.3-4.09,2.3
			c-1.94,0-4.27-1.07-4.27-5.42v-7.23h2.25v6.85c0,2.35,0.72,3.93,2.76,3.93c1.51,0,2.55-1.05,2.96-2.04
			c0.13-0.33,0.21-0.74,0.21-1.15v-7.59h2.25V599.35z"/>
		<path class="st7" d="M424.91,599.76c0,1.07,0.05,2.12,0.21,2.96h-2.04l-0.18-1.56h-0.08c-0.69,0.97-2.02,1.84-3.78,1.84
			c-2.5,0-3.78-1.76-3.78-3.55c0-2.99,2.66-4.62,7.44-4.6v-0.26c0-1.02-0.28-2.86-2.81-2.86c-1.15,0-2.35,0.36-3.22,0.92l-0.51-1.48
			c1.02-0.66,2.5-1.1,4.06-1.1c3.78,0,4.7,2.58,4.7,5.06V599.76z M422.74,596.41c-2.45-0.05-5.24,0.38-5.24,2.79
			c0,1.46,0.97,2.15,2.12,2.15c1.61,0,2.63-1.02,2.99-2.07c0.08-0.23,0.13-0.49,0.13-0.72V596.41z"/>
		<path class="st7" d="M428.55,593.7c0-1.28-0.02-2.33-0.1-3.35h1.99l0.13,2.04h0.05c0.61-1.18,2.04-2.33,4.09-2.33
			c1.71,0,4.37,1.02,4.37,5.26v7.38h-2.25v-7.13c0-1.99-0.74-3.65-2.86-3.65c-1.48,0-2.63,1.05-3.02,2.3
			c-0.1,0.28-0.15,0.66-0.15,1.05v7.43h-2.25V593.7z"/>
		<path class="st7" d="M453.41,584.58v14.95c0,1.1,0.03,2.35,0.1,3.19h-2.02l-0.1-2.15h-0.05c-0.69,1.38-2.2,2.43-4.22,2.43
			c-2.99,0-5.29-2.53-5.29-6.28c-0.03-4.11,2.53-6.64,5.54-6.64c1.89,0,3.17,0.89,3.73,1.89h0.05v-7.38H453.41z M451.16,595.39
			c0-0.28-0.03-0.66-0.1-0.94c-0.33-1.43-1.56-2.61-3.25-2.61c-2.32,0-3.7,2.04-3.7,4.78c0,2.5,1.23,4.57,3.65,4.57
			c1.51,0,2.89-1,3.3-2.68c0.08-0.31,0.1-0.61,0.1-0.97V595.39z"/>
		<path class="st7" d="M468.34,596.44c0,4.57-3.17,6.57-6.16,6.57c-3.35,0-5.93-2.45-5.93-6.36c0-4.14,2.71-6.57,6.13-6.57
			C465.94,590.07,468.34,592.65,468.34,596.44z M458.53,596.56c0,2.71,1.56,4.75,3.75,4.75c2.15,0,3.76-2.02,3.76-4.8
			c0-2.1-1.05-4.75-3.7-4.75C459.68,591.76,458.53,594.21,458.53,596.56z"/>
		<path class="st7" d="M476.6,593.7c0-1.28-0.03-2.33-0.1-3.35h1.97l0.1,1.99h0.08c0.69-1.17,1.84-2.27,3.88-2.27
			c1.69,0,2.97,1.02,3.5,2.48h0.05c0.38-0.69,0.87-1.23,1.38-1.61c0.74-0.56,1.56-0.87,2.73-0.87c1.64,0,4.06,1.07,4.06,5.37v7.28
			h-2.2v-7c0-2.38-0.87-3.81-2.68-3.81c-1.28,0-2.27,0.95-2.66,2.04c-0.1,0.31-0.18,0.72-0.18,1.12v7.64h-2.2v-7.41
			c0-1.97-0.87-3.4-2.58-3.4c-1.4,0-2.43,1.12-2.78,2.25c-0.13,0.33-0.18,0.72-0.18,1.1v7.46h-2.2V593.7z"/>
		<path class="st7" d="M499.16,596.95c0.05,3.04,1.99,4.29,4.24,4.29c1.61,0,2.58-0.28,3.42-0.64l0.38,1.61
			c-0.79,0.36-2.15,0.79-4.11,0.79c-3.81,0-6.08-2.53-6.08-6.26c0-3.73,2.2-6.67,5.8-6.67c4.04,0,5.11,3.55,5.11,5.83
			c0,0.46-0.05,0.82-0.08,1.05H499.16z M505.76,595.34c0.03-1.43-0.59-3.65-3.12-3.65c-2.27,0-3.27,2.09-3.45,3.65H505.76z"/>
		<path class="st7" d="M516.14,584.58h2.22v7.77h0.05c0.79-1.38,2.22-2.27,4.22-2.27c3.07,0,5.24,2.56,5.21,6.31
			c0,4.42-2.78,6.62-5.54,6.62c-1.79,0-3.22-0.69-4.14-2.32h-0.08l-0.1,2.04h-1.94c0.05-0.84,0.1-2.09,0.1-3.19V584.58z
			 M518.36,597.76c0,0.28,0.05,0.56,0.1,0.82c0.44,1.56,1.74,2.63,3.37,2.63c2.35,0,3.76-1.92,3.76-4.75c0-2.48-1.28-4.6-3.68-4.6
			c-1.53,0-2.96,1.05-3.42,2.76c-0.05,0.26-0.13,0.56-0.13,0.92V597.76z"/>
		<path class="st7" d="M541.03,599.35c0,1.28,0.03,2.4,0.1,3.37h-1.99l-0.13-2.02h-0.05c-0.59,1-1.89,2.3-4.09,2.3
			c-1.94,0-4.27-1.07-4.27-5.42v-7.23h2.25v6.85c0,2.35,0.72,3.93,2.76,3.93c1.51,0,2.55-1.05,2.96-2.04
			c0.13-0.33,0.21-0.74,0.21-1.15v-7.59h2.25V599.35z"/>
		<path class="st7" d="M544.45,600.42c0.66,0.43,1.84,0.89,2.96,0.89c1.64,0,2.4-0.82,2.4-1.84c0-1.07-0.64-1.66-2.3-2.27
			c-2.22-0.79-3.27-2.02-3.27-3.5c0-1.99,1.61-3.63,4.27-3.63c1.25,0,2.35,0.36,3.04,0.77l-0.56,1.64
			c-0.49-0.31-1.38-0.72-2.53-0.72c-1.33,0-2.07,0.77-2.07,1.69c0,1.02,0.74,1.48,2.35,2.09c2.15,0.82,3.24,1.89,3.24,3.73
			c0,2.17-1.69,3.73-4.62,3.73c-1.35,0-2.61-0.36-3.47-0.87L544.45,600.42z"/>
		<path class="st7" d="M563.31,600.8h-0.05c-0.66,1.23-2.04,2.2-4.04,2.2c-2.89,0-5.24-2.5-5.24-6.26c0-4.62,2.99-6.67,5.6-6.67
			c1.92,0,3.19,0.95,3.81,2.15h0.05l0.08-1.87h2.12c-0.05,1.05-0.08,2.12-0.08,3.4v14.03h-2.25V600.8z M563.31,595.36
			c0-0.31-0.02-0.66-0.1-0.95c-0.33-1.38-1.53-2.55-3.22-2.55c-2.32,0-3.73,1.97-3.73,4.75c0,2.45,1.18,4.6,3.65,4.6
			c1.46,0,2.71-0.89,3.22-2.45c0.1-0.31,0.18-0.74,0.18-1.07V595.36z"/>
		<path class="st7" d="M579.62,599.35c0,1.28,0.02,2.4,0.1,3.37h-1.99l-0.13-2.02h-0.05c-0.59,1-1.89,2.3-4.09,2.3
			c-1.94,0-4.27-1.07-4.27-5.42v-7.23h2.25v6.85c0,2.35,0.71,3.93,2.76,3.93c1.51,0,2.56-1.05,2.97-2.04
			c0.13-0.33,0.2-0.74,0.2-1.15v-7.59h2.25V599.35z"/>
		<path class="st7" d="M584.6,596.95c0.05,3.04,1.99,4.29,4.24,4.29c1.61,0,2.58-0.28,3.42-0.64l0.38,1.61
			c-0.79,0.36-2.15,0.79-4.11,0.79c-3.81,0-6.08-2.53-6.08-6.26c0-3.73,2.2-6.67,5.8-6.67c4.04,0,5.11,3.55,5.11,5.83
			c0,0.46-0.05,0.82-0.08,1.05H584.6z M591.2,595.34c0.02-1.43-0.59-3.65-3.12-3.65c-2.27,0-3.27,2.09-3.45,3.65H591.2z"/>
		<path class="st7" d="M596.16,593.7c0-1.28-0.03-2.33-0.1-3.35h1.99l0.13,2.04h0.05c0.61-1.18,2.04-2.33,4.09-2.33
			c1.71,0,4.37,1.02,4.37,5.26v7.38h-2.25v-7.13c0-1.99-0.74-3.65-2.86-3.65c-1.48,0-2.63,1.05-3.01,2.3
			c-0.1,0.28-0.15,0.66-0.15,1.05v7.43h-2.25V593.7z"/>
		<path class="st7" d="M626.44,584.58v14.95c0,1.1,0.03,2.35,0.1,3.19h-2.02l-0.1-2.15h-0.05c-0.69,1.38-2.2,2.43-4.21,2.43
			c-2.99,0-5.29-2.53-5.29-6.28c-0.02-4.11,2.53-6.64,5.54-6.64c1.89,0,3.17,0.89,3.73,1.89h0.05v-7.38H626.44z M624.19,595.39
			c0-0.28-0.02-0.66-0.1-0.94c-0.33-1.43-1.56-2.61-3.24-2.61c-2.32,0-3.71,2.04-3.71,4.78c0,2.5,1.23,4.57,3.65,4.57
			c1.51,0,2.89-1,3.3-2.68c0.08-0.31,0.1-0.61,0.1-0.97V595.39z"/>
		<path class="st7" d="M631.43,596.95c0.05,3.04,1.99,4.29,4.24,4.29c1.61,0,2.58-0.28,3.42-0.64l0.38,1.61
			c-0.79,0.36-2.15,0.79-4.11,0.79c-3.81,0-6.08-2.53-6.08-6.26c0-3.73,2.2-6.67,5.8-6.67c4.04,0,5.11,3.55,5.11,5.83
			c0,0.46-0.05,0.82-0.08,1.05H631.43z M638.02,595.34c0.02-1.43-0.59-3.65-3.12-3.65c-2.27,0-3.27,2.09-3.45,3.65H638.02z"/>
		<path class="st7" d="M651.11,587.39v2.96h3.22v1.71h-3.22v6.67c0,1.53,0.44,2.4,1.69,2.4c0.61,0,0.97-0.05,1.3-0.15l0.1,1.69
			c-0.44,0.18-1.12,0.33-1.99,0.33c-1.05,0-1.89-0.36-2.43-0.97c-0.64-0.66-0.87-1.76-0.87-3.22v-6.75h-1.92v-1.71h1.92v-2.27
			L651.11,587.39z"/>
		<path class="st7" d="M667.9,596.44c0,4.57-3.17,6.57-6.16,6.57c-3.35,0-5.93-2.45-5.93-6.36c0-4.14,2.71-6.57,6.13-6.57
			C665.49,590.07,667.9,592.65,667.9,596.44z M658.08,596.56c0,2.71,1.56,4.75,3.76,4.75c2.15,0,3.76-2.02,3.76-4.8
			c0-2.1-1.05-4.75-3.71-4.75C659.24,591.76,658.08,594.21,658.08,596.56z"/>
		<path class="st7" d="M681.42,584.58v14.95c0,1.1,0.03,2.35,0.1,3.19h-2.02l-0.1-2.15h-0.05c-0.69,1.38-2.2,2.43-4.22,2.43
			c-2.99,0-5.29-2.53-5.29-6.28c-0.03-4.11,2.53-6.64,5.54-6.64c1.89,0,3.17,0.89,3.73,1.89h0.05v-7.38H681.42z M679.17,595.39
			c0-0.28-0.03-0.66-0.1-0.94c-0.33-1.43-1.56-2.61-3.25-2.61c-2.32,0-3.7,2.04-3.7,4.78c0,2.5,1.23,4.57,3.65,4.57
			c1.51,0,2.89-1,3.3-2.68c0.08-0.31,0.1-0.61,0.1-0.97V595.39z"/>
		<path class="st7" d="M696.34,596.44c0,4.57-3.17,6.57-6.16,6.57c-3.35,0-5.93-2.45-5.93-6.36c0-4.14,2.71-6.57,6.13-6.57
			C693.94,590.07,696.34,592.65,696.34,596.44z M686.53,596.56c0,2.71,1.56,4.75,3.75,4.75c2.15,0,3.76-2.02,3.76-4.8
			c0-2.1-1.05-4.75-3.7-4.75C687.68,591.76,686.53,594.21,686.53,596.56z"/>
		<path class="st7" d="M713.42,602.26c-0.59,0.31-1.89,0.74-3.55,0.74c-3.73,0-6.16-2.55-6.16-6.34c0-3.81,2.61-6.57,6.64-6.57
			c1.33,0,2.51,0.33,3.12,0.64l-0.51,1.74c-0.54-0.31-1.38-0.59-2.61-0.59c-2.84,0-4.37,2.09-4.37,4.68c0,2.86,1.84,4.62,4.29,4.62
			c1.28,0,2.12-0.33,2.76-0.61L713.42,602.26z"/>
		<path class="st7" d="M727.09,596.44c0,4.57-3.17,6.57-6.16,6.57c-3.35,0-5.93-2.45-5.93-6.36c0-4.14,2.71-6.57,6.13-6.57
			C724.69,590.07,727.09,592.65,727.09,596.44z M717.28,596.56c0,2.71,1.56,4.75,3.76,4.75c2.15,0,3.76-2.02,3.76-4.8
			c0-2.1-1.05-4.75-3.71-4.75C718.43,591.76,717.28,594.21,717.28,596.56z"/>
		<path class="st7" d="M729.93,594.21c0-1.46-0.02-2.71-0.1-3.86h1.97l0.08,2.43h0.1c0.56-1.66,1.92-2.71,3.42-2.71
			c0.25,0,0.43,0.03,0.64,0.08v2.12c-0.23-0.05-0.46-0.08-0.77-0.08c-1.58,0-2.71,1.2-3.01,2.89c-0.05,0.31-0.1,0.66-0.1,1.05v6.59
			h-2.22V594.21z"/>
		<path class="st7" d="M746.85,599.76c0,1.07,0.05,2.12,0.2,2.96h-2.04l-0.18-1.56h-0.08c-0.69,0.97-2.02,1.84-3.78,1.84
			c-2.5,0-3.78-1.76-3.78-3.55c0-2.99,2.66-4.62,7.44-4.6v-0.26c0-1.02-0.28-2.86-2.81-2.86c-1.15,0-2.35,0.36-3.22,0.92l-0.51-1.48
			c1.02-0.66,2.5-1.1,4.06-1.1c3.78,0,4.7,2.58,4.7,5.06V599.76z M744.68,596.41c-2.45-0.05-5.24,0.38-5.24,2.79
			c0,1.46,0.97,2.15,2.12,2.15c1.61,0,2.63-1.02,2.99-2.07c0.08-0.23,0.13-0.49,0.13-0.72V596.41z"/>
		<path class="st7" d="M749.07,601.42l5.6-7.28c0.54-0.66,1.05-1.25,1.61-1.92v-0.05h-6.7v-1.81h9.43l-0.03,1.4l-5.52,7.18
			c-0.51,0.69-1.02,1.3-1.58,1.94v0.05h7.23v1.79h-10.04V601.42z"/>
		<path class="st7" d="M772.43,596.44c0,4.57-3.17,6.57-6.16,6.57c-3.35,0-5.93-2.45-5.93-6.36c0-4.14,2.71-6.57,6.13-6.57
			C770.03,590.07,772.43,592.65,772.43,596.44z M762.62,596.56c0,2.71,1.56,4.75,3.76,4.75c2.15,0,3.76-2.02,3.76-4.8
			c0-2.1-1.05-4.75-3.71-4.75C763.77,591.76,762.62,594.21,762.62,596.56z M769.75,585.01l-3.12,3.65h-1.61l2.25-3.65H769.75z"/>
		<path class="st7" d="M775.27,593.7c0-1.28-0.02-2.33-0.1-3.35h1.99l0.13,2.04h0.05c0.61-1.18,2.04-2.33,4.09-2.33
			c1.71,0,4.37,1.02,4.37,5.26v7.38h-2.25v-7.13c0-1.99-0.74-3.65-2.86-3.65c-1.48,0-2.63,1.05-3.02,2.3
			c-0.1,0.28-0.15,0.66-0.15,1.05v7.43h-2.25V593.7z"/>
	</g>
</g>
<g>
	<path d="M344.69,770.06h2.22v11.53c0,4.57-2.25,5.98-5.21,5.98c-0.82,0-1.81-0.18-2.38-0.41l0.33-1.81
		c0.46,0.18,1.12,0.33,1.87,0.33c1.99,0,3.17-0.89,3.17-4.27V770.06z"/>
	<path d="M351.8,781.51c0.05,3.04,1.99,4.29,4.24,4.29c1.61,0,2.58-0.28,3.42-0.64l0.38,1.61c-0.79,0.36-2.15,0.79-4.11,0.79
		c-3.81,0-6.08-2.53-6.08-6.26s2.2-6.67,5.8-6.67c4.04,0,5.11,3.55,5.11,5.83c0,0.46-0.05,0.82-0.08,1.05H351.8z M358.39,779.9
		c0.03-1.43-0.59-3.65-3.12-3.65c-2.27,0-3.27,2.1-3.45,3.65H358.39z"/>
	<path d="M363.35,778.77c0-1.46-0.03-2.71-0.1-3.86h1.97l0.08,2.43h0.1c0.56-1.66,1.92-2.71,3.42-2.71c0.26,0,0.43,0.03,0.64,0.08
		v2.12c-0.23-0.05-0.46-0.08-0.77-0.08c-1.58,0-2.71,1.2-3.02,2.89c-0.05,0.31-0.1,0.66-0.1,1.05v6.59h-2.22V778.77z"/>
	<path d="M372.71,781.51c0.05,3.04,1.99,4.29,4.24,4.29c1.61,0,2.58-0.28,3.42-0.64l0.38,1.61c-0.79,0.36-2.15,0.79-4.11,0.79
		c-3.81,0-6.08-2.53-6.08-6.26s2.2-6.67,5.8-6.67c4.04,0,5.11,3.55,5.11,5.83c0,0.46-0.05,0.82-0.08,1.05H372.71z M379.3,779.9
		c0.03-1.43-0.59-3.65-3.12-3.65c-2.27,0-3.27,2.1-3.45,3.65H379.3z"/>
	<path d="M384.26,778.26c0-1.28-0.03-2.33-0.1-3.35h1.97l0.1,1.99h0.08c0.69-1.18,1.84-2.27,3.88-2.27c1.69,0,2.96,1.02,3.5,2.48
		h0.05c0.38-0.69,0.87-1.23,1.38-1.61c0.74-0.56,1.56-0.87,2.73-0.87c1.64,0,4.06,1.07,4.06,5.37v7.28h-2.2v-7
		c0-2.38-0.87-3.81-2.68-3.81c-1.28,0-2.27,0.95-2.66,2.04c-0.1,0.31-0.18,0.72-0.18,1.12v7.64H392v-7.41c0-1.97-0.87-3.4-2.58-3.4
		c-1.41,0-2.43,1.12-2.79,2.25c-0.13,0.33-0.18,0.72-0.18,1.1v7.46h-2.2V778.26z"/>
	<path d="M410.15,769.57l-3.12,3.65h-1.61l2.25-3.65H410.15z M405.57,787.28v-12.37h2.25v12.37H405.57z"/>
	<path d="M420.24,784.32c0,1.07,0.05,2.12,0.2,2.96h-2.04l-0.18-1.56h-0.08c-0.69,0.97-2.02,1.84-3.78,1.84
		c-2.5,0-3.78-1.76-3.78-3.55c0-2.99,2.66-4.63,7.44-4.6v-0.26c0-1.02-0.28-2.86-2.81-2.86c-1.15,0-2.35,0.36-3.22,0.92l-0.51-1.48
		c1.02-0.66,2.5-1.1,4.06-1.1c3.78,0,4.7,2.58,4.7,5.06V784.32z M418.07,780.97c-2.45-0.05-5.24,0.38-5.24,2.79
		c0,1.46,0.97,2.15,2.12,2.15c1.61,0,2.63-1.02,2.99-2.07c0.08-0.23,0.13-0.49,0.13-0.72V780.97z"/>
	<path d="M423.57,784.98c0.67,0.43,1.84,0.89,2.96,0.89c1.64,0,2.4-0.82,2.4-1.84c0-1.07-0.64-1.66-2.3-2.27
		c-2.22-0.79-3.27-2.02-3.27-3.5c0-1.99,1.61-3.63,4.27-3.63c1.25,0,2.35,0.36,3.04,0.77l-0.56,1.64c-0.49-0.31-1.38-0.72-2.53-0.72
		c-1.33,0-2.07,0.77-2.07,1.69c0,1.02,0.74,1.48,2.35,2.1c2.15,0.82,3.25,1.89,3.25,3.73c0,2.17-1.69,3.73-4.63,3.73
		c-1.35,0-2.61-0.36-3.48-0.87L423.57,784.98z"/>
	<path d="M438.7,787.28v-1.38l1.76-1.71c4.24-4.04,6.16-6.18,6.18-8.69c0-1.69-0.82-3.25-3.3-3.25c-1.51,0-2.76,0.77-3.53,1.41
		l-0.72-1.58c1.15-0.97,2.79-1.69,4.7-1.69c3.58,0,5.09,2.45,5.09,4.83c0,3.07-2.22,5.55-5.72,8.92l-1.33,1.23v0.05h7.46v1.87H438.7
		z"/>
	<path d="M453.11,785.7c0.49,0.05,1.05,0,1.82-0.08c1.3-0.18,2.53-0.72,3.48-1.61c1.1-1,1.89-2.45,2.2-4.42h-0.08
		c-0.92,1.12-2.25,1.79-3.91,1.79c-2.99,0-4.91-2.25-4.91-5.09c0-3.14,2.27-5.9,5.67-5.9s5.5,2.76,5.5,7c0,3.66-1.23,6.21-2.86,7.8
		c-1.28,1.25-3.04,2.02-4.83,2.22c-0.82,0.13-1.53,0.15-2.07,0.13V785.7z M457.18,772.1c-1.89,0-3.25,1.69-3.25,4.04
		c0,2.07,1.25,3.53,3.19,3.53c1.51,0,2.68-0.74,3.27-1.74c0.13-0.2,0.21-0.46,0.21-0.82c0-2.84-1.05-5.01-3.4-5.01H457.18z"/>
	<path d="M464.2,790.43c0.54-1.51,1.23-4.24,1.51-6.11l2.5-0.26c-0.59,2.17-1.71,5.01-2.43,6.21L464.2,790.43z"/>
	<path d="M480.51,772.76h-0.05l-2.89,1.56l-0.43-1.71l3.63-1.94h1.92v16.61h-2.17V772.76z"/>
	<path d="M489.28,784.7c0.64,0.41,2.12,1.05,3.68,1.05c2.89,0,3.78-1.84,3.76-3.22c-0.03-2.33-2.12-3.32-4.29-3.32h-1.25v-1.69h1.25
		c1.64,0,3.71-0.84,3.71-2.81c0-1.33-0.84-2.5-2.91-2.5c-1.33,0-2.61,0.59-3.32,1.1l-0.59-1.64c0.87-0.64,2.56-1.28,4.34-1.28
		c3.27,0,4.75,1.94,4.75,3.96c0,1.71-1.02,3.17-3.07,3.91v0.05c2.04,0.41,3.71,1.94,3.71,4.27c0,2.66-2.07,4.98-6.06,4.98
		c-1.87,0-3.5-0.59-4.32-1.12L489.28,784.7z"/>
</g>
<g>
	<g>
		<path class="st8" d="M224.07,689.85c0.97-0.2,2.5-0.36,4.06-0.36c2.22,0,3.65,0.38,4.73,1.25c0.89,0.66,1.43,1.69,1.43,3.04
			c0,1.66-1.1,3.12-2.91,3.78v0.05c1.64,0.41,3.55,1.76,3.55,4.32c0,1.48-0.59,2.61-1.46,3.45c-1.2,1.1-3.14,1.61-5.95,1.61
			c-1.53,0-2.71-0.1-3.45-0.2V689.85z M226.29,696.9h2.02c2.35,0,3.73-1.23,3.73-2.89c0-2.02-1.53-2.81-3.78-2.81
			c-1.02,0-1.61,0.08-1.97,0.15V696.9z M226.29,705.15c0.43,0.08,1.07,0.1,1.87,0.1c2.3,0,4.42-0.84,4.42-3.35
			c0-2.35-2.02-3.32-4.45-3.32h-1.84V705.15z"/>
		<path class="st8" d="M248.19,703.46c0,1.28,0.03,2.4,0.1,3.37h-1.99l-0.13-2.02h-0.05c-0.59,1-1.89,2.3-4.09,2.3
			c-1.94,0-4.27-1.07-4.27-5.42v-7.23h2.25v6.85c0,2.35,0.72,3.93,2.76,3.93c1.51,0,2.56-1.05,2.96-2.04
			c0.13-0.33,0.2-0.74,0.2-1.15v-7.59h2.25V703.46z"/>
		<path class="st8" d="M251.62,704.54c0.66,0.43,1.84,0.89,2.96,0.89c1.64,0,2.4-0.82,2.4-1.84c0-1.07-0.64-1.66-2.3-2.27
			c-2.22-0.79-3.27-2.02-3.27-3.5c0-1.99,1.61-3.63,4.27-3.63c1.25,0,2.35,0.36,3.04,0.77l-0.56,1.64
			c-0.49-0.31-1.38-0.72-2.53-0.72c-1.33,0-2.07,0.77-2.07,1.69c0,1.02,0.74,1.48,2.35,2.09c2.15,0.82,3.24,1.89,3.24,3.73
			c0,2.17-1.69,3.73-4.62,3.73c-1.35,0-2.61-0.36-3.47-0.87L251.62,704.54z"/>
		<path class="st8" d="M270.87,706.38c-0.59,0.31-1.89,0.74-3.55,0.74c-3.73,0-6.16-2.55-6.16-6.34c0-3.81,2.61-6.57,6.64-6.57
			c1.33,0,2.5,0.33,3.12,0.64l-0.51,1.74c-0.54-0.31-1.38-0.59-2.61-0.59c-2.84,0-4.37,2.09-4.37,4.68c0,2.86,1.84,4.62,4.29,4.62
			c1.28,0,2.12-0.33,2.76-0.61L270.87,706.38z"/>
		<path class="st8" d="M282.19,703.87c0,1.07,0.05,2.12,0.2,2.96h-2.04l-0.18-1.56h-0.08c-0.69,0.97-2.02,1.84-3.78,1.84
			c-2.5,0-3.78-1.76-3.78-3.55c0-2.99,2.66-4.62,7.44-4.6v-0.26c0-1.02-0.28-2.86-2.81-2.86c-1.15,0-2.35,0.36-3.22,0.92l-0.51-1.48
			c1.02-0.66,2.5-1.1,4.06-1.1c3.78,0,4.7,2.58,4.7,5.06V703.87z M280.02,700.53c-2.45-0.05-5.24,0.38-5.24,2.79
			c0,1.46,0.97,2.15,2.12,2.15c1.61,0,2.63-1.02,2.99-2.07c0.08-0.23,0.13-0.49,0.13-0.72V700.53z"/>
		<path class="st8" d="M285.82,698.33c0-1.46-0.03-2.71-0.1-3.86h1.97l0.08,2.43h0.1c0.56-1.66,1.92-2.71,3.42-2.71
			c0.26,0,0.43,0.03,0.64,0.08v2.12c-0.23-0.05-0.46-0.08-0.77-0.08c-1.58,0-2.71,1.2-3.01,2.89c-0.05,0.31-0.1,0.66-0.1,1.05v6.59
			h-2.22V698.33z"/>
		<path class="st8" d="M308.28,703.87c0,1.07,0.05,2.12,0.2,2.96h-2.04l-0.18-1.56h-0.08c-0.69,0.97-2.02,1.84-3.78,1.84
			c-2.5,0-3.78-1.76-3.78-3.55c0-2.99,2.66-4.62,7.44-4.6v-0.26c0-1.02-0.28-2.86-2.81-2.86c-1.15,0-2.35,0.36-3.22,0.92l-0.51-1.48
			c1.02-0.66,2.5-1.1,4.06-1.1c3.78,0,4.7,2.58,4.7,5.06V703.87z M306.11,700.53c-2.45-0.05-5.24,0.38-5.24,2.79
			c0,1.46,0.97,2.15,2.12,2.15c1.61,0,2.63-1.02,2.99-2.07c0.08-0.23,0.13-0.49,0.13-0.72V700.53z"/>
		<path class="st8" d="M311.91,688.7h2.25v7.72h0.05c0.36-0.64,0.92-1.2,1.61-1.58c0.66-0.38,1.46-0.64,2.3-0.64
			c1.66,0,4.32,1.02,4.32,5.29v7.36h-2.25v-7.1c0-1.99-0.74-3.68-2.86-3.68c-1.46,0-2.61,1.02-3.02,2.25
			c-0.13,0.31-0.15,0.64-0.15,1.07v7.46h-2.25V688.7z"/>
		<path class="st8" d="M337.29,700.55c0,4.57-3.17,6.57-6.16,6.57c-3.35,0-5.93-2.45-5.93-6.36c0-4.14,2.71-6.57,6.13-6.57
			C334.89,694.19,337.29,696.77,337.29,700.55z M327.48,700.68c0,2.71,1.56,4.75,3.76,4.75c2.15,0,3.76-2.02,3.76-4.8
			c0-2.1-1.05-4.75-3.7-4.75C328.63,695.88,327.48,698.33,327.48,700.68z"/>
		<path class="st8" d="M340.13,698.33c0-1.46-0.03-2.71-0.1-3.86H342l0.08,2.43h0.1c0.56-1.66,1.92-2.71,3.42-2.71
			c0.26,0,0.43,0.03,0.64,0.08v2.12c-0.23-0.05-0.46-0.08-0.77-0.08c-1.58,0-2.71,1.2-3.02,2.89c-0.05,0.31-0.1,0.66-0.1,1.05v6.59
			h-2.22V698.33z"/>
		<path class="st8" d="M357.05,703.87c0,1.07,0.05,2.12,0.2,2.96h-2.04l-0.18-1.56h-0.08c-0.69,0.97-2.02,1.84-3.78,1.84
			c-2.5,0-3.78-1.76-3.78-3.55c0-2.99,2.66-4.62,7.44-4.6v-0.26c0-1.02-0.28-2.86-2.81-2.86c-1.15,0-2.35,0.36-3.22,0.92l-0.51-1.48
			c1.02-0.66,2.5-1.1,4.06-1.1c3.78,0,4.7,2.58,4.7,5.06V703.87z M354.88,700.53c-2.45-0.05-5.24,0.38-5.24,2.79
			c0,1.46,0.97,2.15,2.12,2.15c1.61,0,2.63-1.02,2.99-2.07c0.08-0.23,0.13-0.49,0.13-0.72V700.53z"/>
	</g>
</g>
<g>
	<path class="st8" d="M452.47,706.28c-0.82,0.41-2.45,0.84-4.55,0.84c-4.85,0-8.51-3.09-8.51-8.74c0-5.39,3.65-9.05,8.99-9.05
		c2.15,0,3.5,0.46,4.09,0.77l-0.54,1.81c-0.84-0.41-2.04-0.72-3.47-0.72c-4.04,0-6.72,2.58-6.72,7.1c0,4.22,2.43,6.92,6.62,6.92
		c1.35,0,2.73-0.28,3.63-0.71L452.47,706.28z"/>
	<path class="st8" d="M466.09,700.55c0,4.57-3.17,6.57-6.16,6.57c-3.35,0-5.93-2.45-5.93-6.36c0-4.14,2.71-6.57,6.13-6.57
		C463.69,694.19,466.09,696.77,466.09,700.55z M456.28,700.68c0,2.71,1.56,4.75,3.76,4.75c2.15,0,3.76-2.02,3.76-4.8
		c0-2.1-1.05-4.75-3.71-4.75C457.43,695.88,456.28,698.33,456.28,700.68z"/>
	<path class="st8" d="M468.93,697.82c0-1.28-0.03-2.32-0.1-3.35h1.99l0.13,2.04H471c0.61-1.17,2.04-2.32,4.09-2.32
		c1.71,0,4.37,1.02,4.37,5.26v7.38h-2.25v-7.13c0-1.99-0.74-3.65-2.86-3.65c-1.48,0-2.63,1.05-3.02,2.3
		c-0.1,0.28-0.15,0.66-0.15,1.05v7.43h-2.25V697.82z"/>
	<path class="st8" d="M491.24,691.51v2.96h3.22v1.71h-3.22v6.67c0,1.53,0.44,2.4,1.69,2.4c0.61,0,0.97-0.05,1.3-0.15l0.1,1.69
		c-0.43,0.18-1.12,0.33-1.99,0.33c-1.05,0-1.89-0.36-2.43-0.97c-0.64-0.66-0.87-1.76-0.87-3.22v-6.75h-1.92v-1.71h1.92v-2.27
		L491.24,691.51z"/>
	<path class="st8" d="M508.03,700.55c0,4.57-3.17,6.57-6.16,6.57c-3.35,0-5.93-2.45-5.93-6.36c0-4.14,2.71-6.57,6.13-6.57
		C505.63,694.19,508.03,696.77,508.03,700.55z M498.22,700.68c0,2.71,1.56,4.75,3.76,4.75c2.15,0,3.76-2.02,3.76-4.8
		c0-2.1-1.05-4.75-3.71-4.75C499.37,695.88,498.22,698.33,498.22,700.68z"/>
	<path class="st8" d="M521.55,688.7v14.95c0,1.1,0.03,2.35,0.1,3.19h-2.02l-0.1-2.15h-0.05c-0.69,1.38-2.2,2.43-4.22,2.43
		c-2.99,0-5.29-2.53-5.29-6.28c-0.03-4.11,2.53-6.64,5.54-6.64c1.89,0,3.17,0.89,3.73,1.89h0.05v-7.38H521.55z M519.31,699.5
		c0-0.28-0.03-0.66-0.1-0.95c-0.33-1.43-1.56-2.61-3.24-2.61c-2.32,0-3.7,2.04-3.7,4.78c0,2.5,1.23,4.57,3.65,4.57
		c1.51,0,2.89-1,3.3-2.68c0.08-0.31,0.1-0.61,0.1-0.97V699.5z"/>
	<path class="st8" d="M536.48,700.55c0,4.57-3.17,6.57-6.16,6.57c-3.35,0-5.93-2.45-5.93-6.36c0-4.14,2.71-6.57,6.13-6.57
		C534.08,694.19,536.48,696.77,536.48,700.55z M526.67,700.68c0,2.71,1.56,4.75,3.76,4.75c2.15,0,3.76-2.02,3.76-4.8
		c0-2.1-1.05-4.75-3.7-4.75C527.82,695.88,526.67,698.33,526.67,700.68z"/>
	<path class="st8" d="M544.74,697.82c0-1.28-0.03-2.32-0.1-3.35h1.97l0.1,1.99h0.08c0.69-1.18,1.84-2.27,3.88-2.27
		c1.69,0,2.96,1.02,3.5,2.48h0.05c0.38-0.69,0.87-1.23,1.38-1.61c0.74-0.56,1.56-0.87,2.73-0.87c1.64,0,4.06,1.07,4.06,5.37v7.28
		h-2.2v-7c0-2.38-0.87-3.81-2.68-3.81c-1.28,0-2.27,0.95-2.66,2.04c-0.1,0.31-0.18,0.72-0.18,1.12v7.64h-2.2v-7.41
		c0-1.97-0.87-3.4-2.58-3.4c-1.4,0-2.43,1.12-2.78,2.25c-0.13,0.33-0.18,0.72-0.18,1.1v7.46h-2.2V697.82z"/>
	<path class="st8" d="M568.56,691c0.03,0.77-0.54,1.38-1.43,1.38c-0.79,0-1.35-0.61-1.35-1.38c0-0.79,0.59-1.41,1.41-1.41
		C568.02,689.59,568.56,690.2,568.56,691z M566.06,706.84v-12.37h2.25v12.37H566.06z"/>
	<path class="st8" d="M586.27,706.38c-0.59,0.31-1.89,0.74-3.55,0.74c-3.73,0-6.16-2.55-6.16-6.34c0-3.81,2.61-6.57,6.64-6.57
		c1.33,0,2.5,0.33,3.12,0.64l-0.51,1.74c-0.54-0.31-1.38-0.59-2.61-0.59c-2.84,0-4.37,2.09-4.37,4.68c0,2.86,1.84,4.62,4.29,4.62
		c1.28,0,2.12-0.33,2.76-0.61L586.27,706.38z"/>
	<path class="st8" d="M599.94,700.55c0,4.57-3.17,6.57-6.16,6.57c-3.35,0-5.93-2.45-5.93-6.36c0-4.14,2.71-6.57,6.13-6.57
		C597.54,694.19,599.94,696.77,599.94,700.55z M590.13,700.68c0,2.71,1.56,4.75,3.76,4.75c2.15,0,3.76-2.02,3.76-4.8
		c0-2.1-1.05-4.75-3.7-4.75C591.28,695.88,590.13,698.33,590.13,700.68z"/>
	<path class="st8" d="M602.78,698.33c0-1.46-0.03-2.71-0.1-3.86h1.97l0.08,2.43h0.1c0.56-1.66,1.92-2.71,3.42-2.71
		c0.26,0,0.43,0.03,0.64,0.08v2.12c-0.23-0.05-0.46-0.08-0.77-0.08c-1.58,0-2.71,1.2-3.02,2.89c-0.05,0.31-0.1,0.66-0.1,1.05v6.59
		h-2.22V698.33z"/>
	<path class="st8" d="M619.7,703.87c0,1.07,0.05,2.12,0.2,2.96h-2.04l-0.18-1.56h-0.08c-0.69,0.97-2.02,1.84-3.78,1.84
		c-2.5,0-3.78-1.76-3.78-3.55c0-2.99,2.66-4.62,7.44-4.6v-0.26c0-1.02-0.28-2.86-2.81-2.86c-1.15,0-2.35,0.36-3.22,0.92l-0.51-1.48
		c1.02-0.66,2.5-1.1,4.06-1.1c3.78,0,4.7,2.58,4.7,5.06V703.87z M617.53,700.53c-2.45-0.05-5.24,0.38-5.24,2.79
		c0,1.46,0.97,2.15,2.12,2.15c1.61,0,2.63-1.02,2.99-2.07c0.08-0.23,0.13-0.49,0.13-0.72V700.53z"/>
	<path class="st8" d="M621.93,705.53l5.6-7.28c0.54-0.66,1.05-1.25,1.61-1.92v-0.05h-6.69v-1.81h9.43l-0.03,1.41l-5.52,7.18
		c-0.51,0.69-1.02,1.3-1.58,1.94v0.05h7.23v1.79h-10.04V705.53z"/>
	<path class="st8" d="M645.28,700.55c0,4.57-3.17,6.57-6.16,6.57c-3.35,0-5.93-2.45-5.93-6.36c0-4.14,2.71-6.57,6.13-6.57
		C642.88,694.19,645.28,696.77,645.28,700.55z M635.47,700.68c0,2.71,1.56,4.75,3.76,4.75c2.15,0,3.76-2.02,3.76-4.8
		c0-2.1-1.05-4.75-3.7-4.75C636.62,695.88,635.47,698.33,635.47,700.68z M642.6,689.13l-3.12,3.65h-1.61l2.25-3.65H642.6z"/>
	<path class="st8" d="M648.12,697.82c0-1.28-0.03-2.32-0.1-3.35h1.99l0.13,2.04h0.05c0.61-1.17,2.04-2.32,4.09-2.32
		c1.71,0,4.37,1.02,4.37,5.26v7.38h-2.25v-7.13c0-1.99-0.74-3.65-2.86-3.65c-1.48,0-2.63,1.05-3.02,2.3
		c-0.1,0.28-0.15,0.66-0.15,1.05v7.43h-2.25V697.82z"/>
</g>
</svg>
