<?xml version="1.0" encoding="utf-8"?>
<!-- Generator: Adobe Illustrator 25.3.0, SVG Export Plug-In . SVG Version: 6.00 Build 0)  -->
<svg version="1.1" id="Layer_1" xmlns="http://www.w3.org/2000/svg" xmlns:xlink="http://www.w3.org/1999/xlink" x="0px" y="0px"
	 viewBox="0 0 841.89 1190.55" style="enable-background:new 0 0 841.89 1190.55;" xml:space="preserve">
<style type="text/css">
	.st0{fill:#CFCECE;}
	.st1{fill:#4F7BBD;}
	.st2{fill:#E84032;}
	.st3{fill:#FBB90E;}
	.st4{fill:#3CA552;}
	.st5{fill:#52ACDD;}
	.st6{fill:#4E78BB;}
	.st7{fill:#A8A3A9;}
	.st8{fill:#676767;}
	.st9{fill:#F4F3F4;}
</style>
<rect width="841.89" height="1190.55"/>
<rect x="168.07" y="671.25" class="st9" width="246.73" height="55.57"/>
<rect x="427.09" y="671.25" class="st9" width="246.73" height="55.57"/>
<path class="st1" d="M191.19,369.43h24.69v85.77c0,13.65-1.08,23.23-3.25,28.74c-2.17,5.51-5.74,9.89-10.72,13.14
	c-4.98,3.25-10.96,4.88-17.93,4.88c-14.24,0-26.36-6.24-36.38-18.72l17.75-16.61c3.92,4.45,7.26,7.44,10.02,8.96
	c2.75,1.52,5.42,2.29,8,2.29c2.64,0,4.6-1.11,5.89-3.34c1.29-2.23,1.93-7.12,1.93-14.68V369.43z"/>
<path class="st2" d="M338.57,457.84h-77.07c1.11,6.8,4.09,12.2,8.92,16.21c4.83,4.01,11,6.02,18.5,6.02c8.96,0,16.67-3.13,23.11-9.4
	l20.21,9.49c-5.04,7.15-11.07,12.44-18.1,15.86c-7.03,3.43-15.38,5.14-25.05,5.14c-15,0-27.22-4.73-36.65-14.19
	c-9.43-9.46-14.15-21.31-14.15-35.55c0-14.59,4.7-26.7,14.11-36.34c9.4-9.64,21.19-14.46,35.37-14.46c15.06,0,27.3,4.82,36.74,14.46
	c9.43,9.64,14.15,22.37,14.15,38.18L338.57,457.84z M314.57,438.94c-1.58-5.33-4.71-9.67-9.38-13.01
	c-4.67-3.34-10.08-5.01-16.24-5.01c-6.69,0-12.56,1.88-17.6,5.62c-3.17,2.34-6.1,6.47-8.8,12.39H314.57z"/>
<path class="st3" d="M416.52,416.45l-14.85,14.85c-6.04-5.98-11.51-8.96-16.43-8.96c-2.7,0-4.8,0.57-6.33,1.71
	c-1.52,1.14-2.28,2.56-2.28,4.26c0,1.29,0.48,2.48,1.45,3.56c0.97,1.09,3.35,2.56,7.16,4.44l8.79,4.39
	c9.26,4.57,15.61,9.23,19.07,13.97c3.46,4.75,5.19,10.31,5.19,16.7c0,8.5-3.12,15.59-9.36,21.27c-6.24,5.68-14.6,8.52-25.09,8.52
	c-13.94,0-25.08-5.45-33.4-16.35l14.76-16.08c2.81,3.28,6.11,5.93,9.89,7.95c3.78,2.02,7.13,3.03,10.06,3.03
	c3.16,0,5.71-0.76,7.65-2.29c1.93-1.52,2.9-3.28,2.9-5.27c0-3.69-3.49-7.29-10.46-10.81l-8.08-4.04
	c-15.47-7.79-23.2-17.55-23.2-29.26c0-7.56,2.91-14.02,8.74-19.38c5.83-5.36,13.28-8.04,22.37-8.04c6.21,0,12.05,1.36,17.53,4.09
	C408.06,407.44,412.71,411.35,416.52,416.45z"/>
<path class="st1" d="M437.08,403.09h24.26v46.05c0,8.96,0.62,15.19,1.85,18.68c1.23,3.49,3.22,6.2,5.95,8.13
	c2.73,1.93,6.09,2.9,10.09,2.9c3.99,0,7.39-0.95,10.18-2.86c2.79-1.9,4.86-4.7,6.21-8.39c1-2.75,1.5-8.64,1.5-17.66v-46.84h23.99
	v40.51c0,16.7-1.32,28.12-3.96,34.27c-3.22,7.5-7.97,13.26-14.24,17.27c-6.27,4.01-14.24,6.02-23.9,6.02
	c-10.49,0-18.97-2.34-25.44-7.03c-6.47-4.69-11.03-11.22-13.67-19.6c-1.88-5.8-2.81-16.35-2.81-31.64V403.09z M483.04,351.15h28.39
	l-32.17,34.45h-17.22L483.04,351.15z"/>
<path class="st4" d="M603.71,416.45l-14.85,14.85c-6.04-5.98-11.51-8.96-16.43-8.96c-2.7,0-4.8,0.57-6.33,1.71
	c-1.52,1.14-2.28,2.56-2.28,4.26c0,1.29,0.48,2.48,1.45,3.56c0.97,1.09,3.35,2.56,7.16,4.44l8.79,4.39
	c9.26,4.57,15.61,9.23,19.07,13.97c3.46,4.75,5.19,10.31,5.19,16.7c0,8.5-3.12,15.59-9.36,21.27c-6.24,5.68-14.6,8.52-25.09,8.52
	c-13.94,0-25.08-5.45-33.4-16.35l14.76-16.08c2.81,3.28,6.11,5.93,9.89,7.95c3.78,2.02,7.13,3.03,10.06,3.03
	c3.16,0,5.71-0.76,7.65-2.29c1.93-1.52,2.9-3.28,2.9-5.27c0-3.69-3.49-7.29-10.46-10.81l-8.09-4.04
	c-15.47-7.79-23.2-17.55-23.2-29.26c0-7.56,2.91-14.02,8.74-19.38c5.83-5.36,13.28-8.04,22.37-8.04c6.21,0,12.05,1.36,17.53,4.09
	C595.25,407.44,599.9,411.35,603.71,416.45z"/>
<g>
	<g>
		<path class="st5" d="M516.62,517.78h8.71v2.97h-5.69v2.89h5.69v2.92h-5.69v4.2h5.69v2.98h-8.71V517.78z"/>
		<path class="st5" d="M527.51,517.38h2.96v16.36h-2.96V517.38z"/>
		<path class="st5" d="M539.7,533.74v-15.96h2.51c1.46,0,2.52,0.09,3.19,0.28c0.96,0.25,1.72,0.72,2.28,1.41
			c0.56,0.69,0.85,1.5,0.85,2.43c0,0.61-0.13,1.16-0.39,1.65c-0.26,0.5-0.67,0.96-1.25,1.39c0.97,0.46,1.68,1.03,2.13,1.71
			c0.45,0.68,0.67,1.49,0.67,2.42c0,0.9-0.23,1.71-0.69,2.45c-0.46,0.74-1.06,1.29-1.79,1.65c-0.73,0.37-1.74,0.55-3.03,0.55H539.7z
			 M542.74,520.68v3.36h0.66c0.74,0,1.29-0.16,1.65-0.47s0.54-0.73,0.54-1.27c0-0.5-0.17-0.89-0.51-1.19
			c-0.34-0.29-0.86-0.44-1.56-0.44H542.74z M542.74,526.75v4.09h0.76c1.26,0,2.11-0.16,2.55-0.48c0.44-0.32,0.66-0.78,0.66-1.39
			c0-0.69-0.26-1.23-0.77-1.63c-0.52-0.4-1.37-0.6-2.57-0.6H542.74z"/>
		<path class="st5" d="M552.25,521.94h2.99v5.68c0,1.11,0.08,1.87,0.23,2.31c0.15,0.43,0.4,0.77,0.73,1
			c0.34,0.24,0.75,0.36,1.25,0.36c0.49,0,0.91-0.12,1.26-0.35c0.34-0.23,0.6-0.58,0.77-1.04c0.12-0.34,0.18-1.07,0.18-2.18v-5.78
			h2.96v5c0,2.06-0.16,3.47-0.49,4.23c-0.4,0.93-0.98,1.64-1.76,2.13c-0.77,0.49-1.76,0.74-2.95,0.74c-1.29,0-2.34-0.29-3.14-0.87
			c-0.8-0.58-1.36-1.38-1.69-2.42c-0.23-0.72-0.35-2.02-0.35-3.91V521.94z"/>
		<path class="st5" d="M577.42,528.7h-9.51c0.14,0.84,0.5,1.51,1.1,2c0.6,0.5,1.36,0.74,2.28,0.74c1.11,0,2.06-0.39,2.85-1.16
			l2.49,1.17c-0.62,0.88-1.37,1.54-2.23,1.96c-0.87,0.42-1.9,0.63-3.09,0.63c-1.85,0-3.36-0.58-4.52-1.75
			c-1.16-1.17-1.75-2.63-1.75-4.39c0-1.8,0.58-3.3,1.74-4.49c1.16-1.19,2.62-1.78,4.37-1.78c1.86,0,3.37,0.59,4.53,1.78
			c1.16,1.19,1.75,2.76,1.75,4.71L577.42,528.7z M574.46,526.36c-0.2-0.66-0.58-1.19-1.16-1.61c-0.58-0.41-1.24-0.62-2-0.62
			c-0.83,0-1.55,0.23-2.17,0.69c-0.39,0.29-0.75,0.8-1.09,1.53H574.46z"/>
		<path class="st5" d="M579.82,521.94h2.96v1.21c0.67-0.57,1.28-0.96,1.82-1.18c0.55-0.22,1.1-0.33,1.67-0.33
			c1.17,0,2.16,0.41,2.98,1.23c0.69,0.69,1.03,1.72,1.03,3.08v7.8h-2.93v-5.17c0-1.41-0.06-2.34-0.19-2.81
			c-0.13-0.46-0.35-0.82-0.66-1.06c-0.31-0.24-0.7-0.36-1.16-0.36c-0.6,0-1.11,0.2-1.54,0.6c-0.43,0.4-0.73,0.96-0.89,1.66
			c-0.09,0.37-0.13,1.17-0.13,2.39v4.73h-2.96V521.94z"/>
		<path class="st5" d="M599.68,517.78h3.22c1.74,0,3,0.16,3.77,0.48c0.77,0.32,1.38,0.84,1.82,1.56c0.44,0.72,0.67,1.58,0.67,2.59
			c0,1.11-0.29,2.04-0.87,2.78c-0.58,0.74-1.37,1.25-2.37,1.54c-0.59,0.17-1.65,0.25-3.2,0.25v6.76h-3.04V517.78z M602.72,524.02
			h0.97c0.76,0,1.29-0.05,1.58-0.16c0.3-0.11,0.53-0.29,0.7-0.54c0.17-0.25,0.25-0.55,0.25-0.91c0-0.62-0.24-1.07-0.72-1.35
			c-0.35-0.21-0.99-0.32-1.93-0.32h-0.86V524.02z"/>
		<path class="st5" d="M620.52,521.94h2.96v11.8h-2.96v-1.25c-0.58,0.55-1.16,0.95-1.74,1.19c-0.58,0.24-1.21,0.36-1.89,0.36
			c-1.52,0-2.84-0.59-3.96-1.77c-1.11-1.18-1.67-2.65-1.67-4.41c0-1.82,0.54-3.32,1.61-4.48c1.08-1.16,2.38-1.75,3.92-1.75
			c0.71,0,1.37,0.13,1.99,0.4c0.62,0.27,1.2,0.67,1.72,1.2V521.94z M617.4,524.37c-0.92,0-1.68,0.32-2.28,0.97
			c-0.6,0.65-0.91,1.48-0.91,2.49c0,1.02,0.31,1.86,0.92,2.52c0.62,0.66,1.38,0.99,2.28,0.99c0.93,0,1.7-0.32,2.31-0.97
			c0.61-0.65,0.92-1.5,0.92-2.54c0-1.03-0.31-1.86-0.92-2.49C619.12,524.69,618.34,524.37,617.4,524.37z"/>
		<path class="st5" d="M633.7,523.59l-1.83,1.83c-0.74-0.74-1.42-1.11-2.03-1.11c-0.33,0-0.59,0.07-0.78,0.21
			c-0.19,0.14-0.28,0.32-0.28,0.53c0,0.16,0.06,0.31,0.18,0.44c0.12,0.13,0.41,0.32,0.88,0.55l1.08,0.54
			c1.14,0.56,1.93,1.14,2.35,1.72c0.43,0.59,0.64,1.27,0.64,2.06c0,1.05-0.38,1.92-1.16,2.63c-0.77,0.7-1.8,1.05-3.1,1.05
			c-1.72,0-3.1-0.67-4.12-2.02l1.82-1.98c0.35,0.4,0.75,0.73,1.22,0.98c0.47,0.25,0.88,0.37,1.24,0.37c0.39,0,0.71-0.09,0.94-0.28
			c0.24-0.19,0.36-0.4,0.36-0.65c0-0.46-0.43-0.9-1.29-1.33l-1-0.5c-1.91-0.96-2.86-2.17-2.86-3.61c0-0.93,0.36-1.73,1.08-2.39
			c0.72-0.66,1.64-0.99,2.76-0.99c0.77,0,1.49,0.17,2.16,0.5C632.65,522.47,633.23,522.96,633.7,523.59z"/>
		<path class="st5" d="M636.6,517.59h2.96v4.35h1.76v2.55h-1.76v9.25h-2.96v-9.25h-1.52v-2.55h1.52V517.59z"/>
		<path class="st5" d="M648.45,521.63c1.11,0,2.16,0.28,3.14,0.83c0.98,0.56,1.74,1.31,2.29,2.27c0.55,0.95,0.82,1.98,0.82,3.09
			c0,1.11-0.28,2.15-0.83,3.12s-1.31,1.73-2.26,2.27s-2.01,0.82-3.16,0.82c-1.69,0-3.14-0.6-4.33-1.81c-1.2-1.2-1.8-2.67-1.8-4.39
			c0-1.84,0.68-3.38,2.03-4.61C645.55,522.17,646.91,521.63,648.45,521.63z M648.5,524.42c-0.92,0-1.69,0.32-2.3,0.96
			c-0.61,0.64-0.92,1.46-0.92,2.46c0,1.03,0.3,1.86,0.91,2.5c0.6,0.64,1.37,0.95,2.3,0.95c0.93,0,1.7-0.32,2.31-0.97
			c0.62-0.64,0.92-1.47,0.92-2.48c0-1.01-0.3-1.83-0.91-2.47C650.21,524.74,649.44,524.42,648.5,524.42z"/>
		<path class="st5" d="M656.43,521.94h2.54v1.49c0.27-0.59,0.64-1.03,1.1-1.33c0.46-0.3,0.95-0.46,1.5-0.46c0.38,0,0.78,0.1,1.2,0.3
			l-0.92,2.55c-0.35-0.17-0.63-0.26-0.86-0.26c-0.46,0-0.84,0.28-1.16,0.85c-0.32,0.56-0.47,1.67-0.47,3.32l0.01,0.58v4.77h-2.94
			V521.94z"/>
	</g>
</g>
<g>
	<circle class="st2" cx="652.54" cy="488.74" r="13.21"/>
</g>
<g>
	<g>
		<polygon class="st2" points="640.71,466.23 662.83,466.23 663.91,399.05 697.63,399.05 697.63,377.2 664.18,377.2 664.18,351.3 
			640.71,351.3 640.71,378.55 607.8,378.55 607.8,399.32 640.17,399.32 		"/>
	</g>
</g>
<g>
	<g>
		<path class="st6" d="M808.17,623.5H33.71v-59.02h774.46V623.5z M36.24,620.98h769.42V567H36.24V620.98z"/>
	</g>
</g>
<g>
	<g>
		<path class="st7" d="M66.83,595.16c-0.13-2.4-0.28-5.29-0.26-7.43h-0.08c-0.59,2.02-1.3,4.19-2.17,6.54l-3.04,8.36H59.6l-2.78-8.2
			c-0.82-2.43-1.51-4.65-1.99-6.69h-0.05c-0.05,2.15-0.18,5.03-0.33,7.61l-0.46,7.38h-2.12l1.2-17.22h2.84l2.94,8.33
			c0.72,2.12,1.3,4.01,1.74,5.8h0.08c0.43-1.74,1.05-3.63,1.81-5.8l3.07-8.33h2.84l1.07,17.22h-2.17L66.83,595.16z"/>
		<path class="st7" d="M74.19,596.95c0.05,3.04,1.99,4.29,4.24,4.29c1.61,0,2.58-0.28,3.42-0.64l0.38,1.61
			c-0.79,0.36-2.15,0.79-4.11,0.79c-3.81,0-6.08-2.53-6.08-6.26c0-3.73,2.2-6.67,5.8-6.67c4.04,0,5.11,3.55,5.11,5.83
			c0,0.46-0.05,0.82-0.08,1.05H74.19z M80.78,595.34c0.03-1.43-0.59-3.65-3.12-3.65c-2.27,0-3.27,2.09-3.45,3.65H80.78z"/>
		<path class="st7" d="M91.16,584.58h2.22v7.77h0.05c0.79-1.38,2.22-2.27,4.22-2.27c3.07,0,5.24,2.56,5.21,6.31
			c0,4.42-2.78,6.62-5.54,6.62c-1.79,0-3.22-0.69-4.14-2.32h-0.08l-0.1,2.04h-1.94c0.05-0.84,0.1-2.09,0.1-3.19V584.58z
			 M93.39,597.76c0,0.28,0.05,0.56,0.1,0.82c0.44,1.56,1.74,2.63,3.37,2.63c2.35,0,3.76-1.92,3.76-4.75c0-2.48-1.28-4.6-3.68-4.6
			c-1.53,0-2.96,1.05-3.42,2.76c-0.05,0.26-0.13,0.56-0.13,0.92V597.76z"/>
		<path class="st7" d="M116.05,599.35c0,1.28,0.03,2.4,0.1,3.37h-1.99l-0.13-2.02h-0.05c-0.59,1-1.89,2.3-4.09,2.3
			c-1.94,0-4.27-1.07-4.27-5.42v-7.23h2.25v6.85c0,2.35,0.72,3.93,2.76,3.93c1.51,0,2.55-1.05,2.96-2.04
			c0.13-0.33,0.21-0.74,0.21-1.15v-7.59h2.25V599.35z"/>
		<path class="st7" d="M119.48,600.42c0.66,0.43,1.84,0.89,2.96,0.89c1.64,0,2.4-0.82,2.4-1.84c0-1.07-0.64-1.66-2.3-2.27
			c-2.22-0.79-3.27-2.02-3.27-3.5c0-1.99,1.61-3.63,4.27-3.63c1.25,0,2.35,0.36,3.04,0.77l-0.56,1.64
			c-0.49-0.31-1.38-0.72-2.53-0.72c-1.33,0-2.07,0.77-2.07,1.69c0,1.02,0.74,1.48,2.35,2.09c2.15,0.82,3.24,1.89,3.24,3.73
			c0,2.17-1.69,3.73-4.62,3.73c-1.35,0-2.61-0.36-3.47-0.87L119.48,600.42z"/>
		<path class="st7" d="M138.72,602.26c-0.59,0.31-1.89,0.74-3.55,0.74c-3.73,0-6.16-2.55-6.16-6.34c0-3.81,2.61-6.57,6.64-6.57
			c1.33,0,2.51,0.33,3.12,0.64l-0.51,1.74c-0.54-0.31-1.38-0.59-2.61-0.59c-2.84,0-4.37,2.09-4.37,4.68c0,2.86,1.84,4.62,4.29,4.62
			c1.28,0,2.12-0.33,2.76-0.61L138.72,602.26z"/>
		<path class="st7" d="M150.05,599.76c0,1.07,0.05,2.12,0.21,2.96h-2.04l-0.18-1.56h-0.08c-0.69,0.97-2.02,1.84-3.78,1.84
			c-2.5,0-3.78-1.76-3.78-3.55c0-2.99,2.66-4.62,7.44-4.6v-0.26c0-1.02-0.28-2.86-2.81-2.86c-1.15,0-2.35,0.36-3.22,0.92l-0.51-1.48
			c1.02-0.66,2.5-1.1,4.06-1.1c3.78,0,4.7,2.58,4.7,5.06V599.76z M147.87,596.41c-2.45-0.05-5.24,0.38-5.24,2.79
			c0,1.46,0.97,2.15,2.12,2.15c1.61,0,2.63-1.02,2.99-2.07c0.08-0.23,0.13-0.49,0.13-0.72V596.41z"/>
		<path class="st7" d="M153.68,594.21c0-1.46-0.02-2.71-0.1-3.86h1.97l0.08,2.43h0.1c0.56-1.66,1.92-2.71,3.42-2.71
			c0.25,0,0.43,0.03,0.64,0.08v2.12c-0.23-0.05-0.46-0.08-0.77-0.08c-1.58,0-2.71,1.2-3.01,2.89c-0.05,0.31-0.1,0.66-0.1,1.05v6.59
			h-2.22V594.21z"/>
		<path class="st7" d="M170.6,599.76c0,1.07,0.05,2.12,0.2,2.96h-2.04l-0.18-1.56h-0.08c-0.69,0.97-2.02,1.84-3.78,1.84
			c-2.5,0-3.78-1.76-3.78-3.55c0-2.99,2.66-4.62,7.44-4.6v-0.26c0-1.02-0.28-2.86-2.81-2.86c-1.15,0-2.35,0.36-3.22,0.92l-0.51-1.48
			c1.02-0.66,2.5-1.1,4.06-1.1c3.78,0,4.7,2.58,4.7,5.06V599.76z M168.42,596.41c-2.45-0.05-5.24,0.38-5.24,2.79
			c0,1.46,0.97,2.15,2.12,2.15c1.61,0,2.63-1.02,2.99-2.07c0.08-0.23,0.13-0.49,0.13-0.72V596.41z M169.55,585.01l-3.12,3.65h-1.61
			l2.25-3.65H169.55z"/>
		<path class="st7" d="M174.23,593.7c0-1.28-0.03-2.33-0.1-3.35h1.99l0.13,2.04h0.05c0.61-1.18,2.04-2.33,4.09-2.33
			c1.71,0,4.37,1.02,4.37,5.26v7.38h-2.25v-7.13c0-1.99-0.74-3.65-2.86-3.65c-1.48,0-2.63,1.05-3.01,2.3
			c-0.1,0.28-0.15,0.66-0.15,1.05v7.43h-2.25V593.7z"/>
		<path class="st7" d="M194.65,590.35l2.71,7.31c0.28,0.82,0.59,1.79,0.79,2.53h0.05c0.23-0.74,0.49-1.69,0.79-2.58l2.45-7.26h2.38
			l-3.37,8.81c-1.61,4.24-2.71,6.41-4.24,7.74c-1.1,0.97-2.2,1.35-2.76,1.46l-0.56-1.89c0.56-0.18,1.3-0.54,1.97-1.1
			c0.61-0.49,1.38-1.35,1.89-2.5c0.1-0.23,0.18-0.41,0.18-0.54c0-0.13-0.05-0.31-0.15-0.59l-4.57-11.39H194.65z"/>
		<path class="st7" d="M211.29,593.7c0-1.28-0.02-2.33-0.1-3.35h1.97l0.1,1.99h0.08c0.69-1.17,1.84-2.27,3.88-2.27
			c1.69,0,2.96,1.02,3.5,2.48h0.05c0.38-0.69,0.87-1.23,1.38-1.61c0.74-0.56,1.56-0.87,2.74-0.87c1.64,0,4.06,1.07,4.06,5.37v7.28
			h-2.2v-7c0-2.38-0.87-3.81-2.68-3.81c-1.28,0-2.27,0.95-2.66,2.04c-0.1,0.31-0.18,0.72-0.18,1.12v7.64h-2.2v-7.41
			c0-1.97-0.87-3.4-2.58-3.4c-1.41,0-2.43,1.12-2.78,2.25c-0.13,0.33-0.18,0.72-0.18,1.1v7.46h-2.2V593.7z"/>
		<path class="st7" d="M233.85,596.95c0.05,3.04,1.99,4.29,4.24,4.29c1.61,0,2.58-0.28,3.42-0.64l0.38,1.61
			c-0.79,0.36-2.15,0.79-4.11,0.79c-3.81,0-6.08-2.53-6.08-6.26c0-3.73,2.2-6.67,5.8-6.67c4.04,0,5.11,3.55,5.11,5.83
			c0,0.46-0.05,0.82-0.08,1.05H233.85z M240.45,595.34c0.03-1.43-0.59-3.65-3.12-3.65c-2.27,0-3.27,2.09-3.45,3.65H240.45z"/>
		<path class="st7" d="M252.08,596.95c0.05,3.04,1.99,4.29,4.24,4.29c1.61,0,2.58-0.28,3.42-0.64l0.38,1.61
			c-0.79,0.36-2.15,0.79-4.11,0.79c-3.81,0-6.08-2.53-6.08-6.26c0-3.73,2.2-6.67,5.8-6.67c4.04,0,5.11,3.55,5.11,5.83
			c0,0.46-0.05,0.82-0.08,1.05H252.08z M258.67,595.34c0.02-1.43-0.59-3.65-3.12-3.65c-2.27,0-3.27,2.09-3.45,3.65H258.67z"/>
		<path class="st7" d="M263.63,593.7c0-1.28-0.02-2.33-0.1-3.35h1.99l0.13,2.04h0.05c0.61-1.18,2.04-2.33,4.09-2.33
			c1.71,0,4.37,1.02,4.37,5.26v7.38h-2.25v-7.13c0-1.99-0.74-3.65-2.86-3.65c-1.48,0-2.63,1.05-3.02,2.3
			c-0.1,0.28-0.15,0.66-0.15,1.05v7.43h-2.25V593.7z"/>
		<path class="st7" d="M286.63,602.26c-0.59,0.31-1.89,0.74-3.55,0.74c-3.73,0-6.16-2.55-6.16-6.34c0-3.81,2.61-6.57,6.64-6.57
			c1.33,0,2.51,0.33,3.12,0.64l-0.51,1.74c-0.54-0.31-1.38-0.59-2.61-0.59c-2.84,0-4.37,2.09-4.37,4.68c0,2.86,1.84,4.62,4.29,4.62
			c1.28,0,2.12-0.33,2.76-0.61L286.63,602.26z"/>
		<path class="st7" d="M300.3,596.44c0,4.57-3.17,6.57-6.16,6.57c-3.35,0-5.93-2.45-5.93-6.36c0-4.14,2.71-6.57,6.13-6.57
			C297.9,590.07,300.3,592.65,300.3,596.44z M290.49,596.56c0,2.71,1.56,4.75,3.76,4.75c2.15,0,3.76-2.02,3.76-4.8
			c0-2.1-1.05-4.75-3.71-4.75C291.64,591.76,290.49,594.21,290.49,596.56z"/>
		<path class="st7" d="M303.14,593.7c0-1.28-0.02-2.33-0.1-3.35h1.99l0.13,2.04h0.05c0.61-1.18,2.04-2.33,4.09-2.33
			c1.71,0,4.37,1.02,4.37,5.26v7.38h-2.25v-7.13c0-1.99-0.74-3.65-2.86-3.65c-1.48,0-2.63,1.05-3.02,2.3
			c-0.1,0.28-0.15,0.66-0.15,1.05v7.43h-2.25V593.7z"/>
		<path class="st7" d="M319.93,587.39v2.96h3.22v1.71h-3.22v6.67c0,1.53,0.44,2.4,1.69,2.4c0.61,0,0.97-0.05,1.3-0.15l0.1,1.69
			c-0.44,0.18-1.12,0.33-1.99,0.33c-1.05,0-1.89-0.36-2.43-0.97c-0.64-0.66-0.87-1.76-0.87-3.22v-6.75h-1.92v-1.71h1.92v-2.27
			L319.93,587.39z"/>
		<path class="st7" d="M325.69,594.21c0-1.46-0.03-2.71-0.1-3.86h1.97l0.08,2.43h0.1c0.56-1.66,1.92-2.71,3.42-2.71
			c0.26,0,0.44,0.03,0.64,0.08v2.12c-0.23-0.05-0.46-0.08-0.77-0.08c-1.58,0-2.71,1.2-3.01,2.89c-0.05,0.31-0.1,0.66-0.1,1.05v6.59
			h-2.22V594.21z"/>
		<path class="st7" d="M342.6,599.76c0,1.07,0.05,2.12,0.21,2.96h-2.04l-0.18-1.56h-0.08c-0.69,0.97-2.02,1.84-3.78,1.84
			c-2.5,0-3.78-1.76-3.78-3.55c0-2.99,2.66-4.62,7.44-4.6v-0.26c0-1.02-0.28-2.86-2.81-2.86c-1.15,0-2.35,0.36-3.22,0.92l-0.51-1.48
			c1.02-0.66,2.5-1.1,4.06-1.1c3.78,0,4.7,2.58,4.7,5.06V599.76z M340.43,596.41c-2.45-0.05-5.24,0.38-5.24,2.79
			c0,1.46,0.97,2.15,2.12,2.15c1.61,0,2.63-1.02,2.99-2.07c0.08-0.23,0.13-0.49,0.13-0.72V596.41z"/>
		<path class="st7" d="M346.23,594.21c0-1.46-0.02-2.71-0.1-3.86h1.97l0.08,2.43h0.1c0.56-1.66,1.92-2.71,3.42-2.71
			c0.25,0,0.43,0.03,0.64,0.08v2.12c-0.23-0.05-0.46-0.08-0.77-0.08c-1.58,0-2.71,1.2-3.01,2.89c-0.05,0.31-0.1,0.66-0.1,1.05v6.59
			h-2.22V594.21z"/>
		<path class="st7" d="M363.15,599.76c0,1.07,0.05,2.12,0.2,2.96h-2.04l-0.18-1.56h-0.08c-0.69,0.97-2.02,1.84-3.78,1.84
			c-2.5,0-3.78-1.76-3.78-3.55c0-2.99,2.66-4.62,7.44-4.6v-0.26c0-1.02-0.28-2.86-2.81-2.86c-1.15,0-2.35,0.36-3.22,0.92l-0.51-1.48
			c1.02-0.66,2.5-1.1,4.06-1.1c3.78,0,4.7,2.58,4.7,5.06V599.76z M360.98,596.41c-2.45-0.05-5.24,0.38-5.24,2.79
			c0,1.46,0.97,2.15,2.12,2.15c1.61,0,2.63-1.02,2.99-2.07c0.08-0.23,0.13-0.49,0.13-0.72V596.41z M362.11,585.01l-3.12,3.65h-1.61
			l2.25-3.65H362.11z"/>
		<path class="st7" d="M366.79,593.7c0-1.28-0.03-2.33-0.1-3.35h1.99l0.13,2.04h0.05c0.61-1.18,2.04-2.33,4.09-2.33
			c1.71,0,4.37,1.02,4.37,5.26v7.38h-2.25v-7.13c0-1.99-0.74-3.65-2.86-3.65c-1.48,0-2.63,1.05-3.01,2.3
			c-0.1,0.28-0.15,0.66-0.15,1.05v7.43h-2.25V593.7z"/>
		<path class="st7" d="M379.54,605.86c0.54-1.51,1.23-4.24,1.51-6.11l2.5-0.26c-0.59,2.17-1.71,5.01-2.43,6.21L379.54,605.86z"/>
		<path class="st7" d="M400.49,602.26c-0.59,0.31-1.89,0.74-3.55,0.74c-3.73,0-6.16-2.55-6.16-6.34c0-3.81,2.61-6.57,6.64-6.57
			c1.33,0,2.51,0.33,3.12,0.64l-0.51,1.74c-0.54-0.31-1.38-0.59-2.61-0.59c-2.84,0-4.37,2.09-4.37,4.68c0,2.86,1.84,4.62,4.29,4.62
			c1.28,0,2.12-0.33,2.76-0.61L400.49,602.26z"/>
		<path class="st7" d="M413.48,599.35c0,1.28,0.03,2.4,0.1,3.37h-1.99l-0.13-2.02h-0.05c-0.59,1-1.89,2.3-4.09,2.3
			c-1.94,0-4.27-1.07-4.27-5.42v-7.23h2.25v6.85c0,2.35,0.72,3.93,2.76,3.93c1.51,0,2.55-1.05,2.96-2.04
			c0.13-0.33,0.21-0.74,0.21-1.15v-7.59h2.25V599.35z"/>
		<path class="st7" d="M425.9,599.76c0,1.07,0.05,2.12,0.21,2.96h-2.04l-0.18-1.56h-0.08c-0.69,0.97-2.02,1.84-3.78,1.84
			c-2.5,0-3.78-1.76-3.78-3.55c0-2.99,2.66-4.62,7.44-4.6v-0.26c0-1.02-0.28-2.86-2.81-2.86c-1.15,0-2.35,0.36-3.22,0.92l-0.51-1.48
			c1.02-0.66,2.5-1.1,4.06-1.1c3.78,0,4.7,2.58,4.7,5.06V599.76z M423.73,596.41c-2.45-0.05-5.24,0.38-5.24,2.79
			c0,1.46,0.97,2.15,2.12,2.15c1.61,0,2.63-1.02,2.99-2.07c0.08-0.23,0.13-0.49,0.13-0.72V596.41z"/>
		<path class="st7" d="M429.53,593.7c0-1.28-0.02-2.33-0.1-3.35h1.99l0.13,2.04h0.05c0.61-1.18,2.04-2.33,4.09-2.33
			c1.71,0,4.37,1.02,4.37,5.26v7.38h-2.25v-7.13c0-1.99-0.74-3.65-2.86-3.65c-1.48,0-2.63,1.05-3.02,2.3
			c-0.1,0.28-0.15,0.66-0.15,1.05v7.43h-2.25V593.7z"/>
		<path class="st7" d="M454.39,584.58v14.95c0,1.1,0.03,2.35,0.1,3.19h-2.02l-0.1-2.15h-0.05c-0.69,1.38-2.2,2.43-4.22,2.43
			c-2.99,0-5.29-2.53-5.29-6.28c-0.03-4.11,2.53-6.64,5.54-6.64c1.89,0,3.17,0.89,3.73,1.89h0.05v-7.38H454.39z M452.15,595.39
			c0-0.28-0.03-0.66-0.1-0.94c-0.33-1.43-1.56-2.61-3.25-2.61c-2.32,0-3.7,2.04-3.7,4.78c0,2.5,1.23,4.57,3.65,4.57
			c1.51,0,2.89-1,3.3-2.68c0.08-0.31,0.1-0.61,0.1-0.97V595.39z"/>
		<path class="st7" d="M469.32,596.44c0,4.57-3.17,6.57-6.16,6.57c-3.35,0-5.93-2.45-5.93-6.36c0-4.14,2.71-6.57,6.13-6.57
			C466.92,590.07,469.32,592.65,469.32,596.44z M459.51,596.56c0,2.71,1.56,4.75,3.75,4.75c2.15,0,3.76-2.02,3.76-4.8
			c0-2.1-1.05-4.75-3.7-4.75C460.66,591.76,459.51,594.21,459.51,596.56z"/>
		<path class="st7" d="M477.58,593.7c0-1.28-0.03-2.33-0.1-3.35h1.97l0.1,1.99h0.08c0.69-1.17,1.84-2.27,3.88-2.27
			c1.69,0,2.97,1.02,3.5,2.48h0.05c0.38-0.69,0.87-1.23,1.38-1.61c0.74-0.56,1.56-0.87,2.73-0.87c1.64,0,4.06,1.07,4.06,5.37v7.28
			h-2.2v-7c0-2.38-0.87-3.81-2.68-3.81c-1.28,0-2.27,0.95-2.66,2.04c-0.1,0.31-0.18,0.72-0.18,1.12v7.64h-2.2v-7.41
			c0-1.97-0.87-3.4-2.58-3.4c-1.4,0-2.43,1.12-2.78,2.25c-0.13,0.33-0.18,0.72-0.18,1.1v7.46h-2.2V593.7z"/>
		<path class="st7" d="M500.15,596.95c0.05,3.04,1.99,4.29,4.24,4.29c1.61,0,2.58-0.28,3.42-0.64l0.38,1.61
			c-0.79,0.36-2.15,0.79-4.11,0.79c-3.81,0-6.08-2.53-6.08-6.26c0-3.73,2.2-6.67,5.8-6.67c4.04,0,5.11,3.55,5.11,5.83
			c0,0.46-0.05,0.82-0.08,1.05H500.15z M506.74,595.34c0.03-1.43-0.59-3.65-3.12-3.65c-2.27,0-3.27,2.09-3.45,3.65H506.74z"/>
		<path class="st7" d="M517.12,584.58h2.22v7.77h0.05c0.79-1.38,2.22-2.27,4.22-2.27c3.07,0,5.24,2.56,5.21,6.31
			c0,4.42-2.78,6.62-5.54,6.62c-1.79,0-3.22-0.69-4.14-2.32h-0.08l-0.1,2.04h-1.94c0.05-0.84,0.1-2.09,0.1-3.19V584.58z
			 M519.34,597.76c0,0.28,0.05,0.56,0.1,0.82c0.44,1.56,1.74,2.63,3.37,2.63c2.35,0,3.76-1.92,3.76-4.75c0-2.48-1.28-4.6-3.68-4.6
			c-1.53,0-2.96,1.05-3.42,2.76c-0.05,0.26-0.13,0.56-0.13,0.92V597.76z"/>
		<path class="st7" d="M542.01,599.35c0,1.28,0.03,2.4,0.1,3.37h-1.99l-0.13-2.02h-0.05c-0.59,1-1.89,2.3-4.09,2.3
			c-1.94,0-4.27-1.07-4.27-5.42v-7.23h2.25v6.85c0,2.35,0.72,3.93,2.76,3.93c1.51,0,2.55-1.05,2.96-2.04
			c0.13-0.33,0.21-0.74,0.21-1.15v-7.59h2.25V599.35z"/>
		<path class="st7" d="M545.44,600.42c0.66,0.43,1.84,0.89,2.96,0.89c1.64,0,2.4-0.82,2.4-1.84c0-1.07-0.64-1.66-2.3-2.27
			c-2.22-0.79-3.27-2.02-3.27-3.5c0-1.99,1.61-3.63,4.27-3.63c1.25,0,2.35,0.36,3.04,0.77l-0.56,1.64
			c-0.49-0.31-1.38-0.72-2.53-0.72c-1.33,0-2.07,0.77-2.07,1.69c0,1.02,0.74,1.48,2.35,2.09c2.15,0.82,3.24,1.89,3.24,3.73
			c0,2.17-1.69,3.73-4.62,3.73c-1.35,0-2.61-0.36-3.47-0.87L545.44,600.42z"/>
		<path class="st7" d="M564.3,600.8h-0.05c-0.66,1.23-2.04,2.2-4.04,2.2c-2.89,0-5.24-2.5-5.24-6.26c0-4.62,2.99-6.67,5.6-6.67
			c1.92,0,3.19,0.95,3.81,2.15h0.05l0.08-1.87h2.12c-0.05,1.05-0.08,2.12-0.08,3.4v14.03h-2.25V600.8z M564.3,595.36
			c0-0.31-0.02-0.66-0.1-0.95c-0.33-1.38-1.53-2.55-3.22-2.55c-2.32,0-3.73,1.97-3.73,4.75c0,2.45,1.18,4.6,3.65,4.6
			c1.46,0,2.71-0.89,3.22-2.45c0.1-0.31,0.18-0.74,0.18-1.07V595.36z"/>
		<path class="st7" d="M580.6,599.35c0,1.28,0.02,2.4,0.1,3.37h-1.99l-0.13-2.02h-0.05c-0.59,1-1.89,2.3-4.09,2.3
			c-1.94,0-4.27-1.07-4.27-5.42v-7.23h2.25v6.85c0,2.35,0.71,3.93,2.76,3.93c1.51,0,2.56-1.05,2.97-2.04
			c0.13-0.33,0.2-0.74,0.2-1.15v-7.59h2.25V599.35z"/>
		<path class="st7" d="M585.59,596.95c0.05,3.04,1.99,4.29,4.24,4.29c1.61,0,2.58-0.28,3.42-0.64l0.38,1.61
			c-0.79,0.36-2.15,0.79-4.11,0.79c-3.81,0-6.08-2.53-6.08-6.26c0-3.73,2.2-6.67,5.8-6.67c4.04,0,5.11,3.55,5.11,5.83
			c0,0.46-0.05,0.82-0.08,1.05H585.59z M592.18,595.34c0.02-1.43-0.59-3.65-3.12-3.65c-2.27,0-3.27,2.09-3.45,3.65H592.18z"/>
		<path class="st7" d="M597.14,593.7c0-1.28-0.03-2.33-0.1-3.35h1.99l0.13,2.04h0.05c0.61-1.18,2.04-2.33,4.09-2.33
			c1.71,0,4.37,1.02,4.37,5.26v7.38h-2.25v-7.13c0-1.99-0.74-3.65-2.86-3.65c-1.48,0-2.63,1.05-3.01,2.3
			c-0.1,0.28-0.15,0.66-0.15,1.05v7.43h-2.25V593.7z"/>
		<path class="st7" d="M627.42,584.58v14.95c0,1.1,0.03,2.35,0.1,3.19h-2.02l-0.1-2.15h-0.05c-0.69,1.38-2.2,2.43-4.21,2.43
			c-2.99,0-5.29-2.53-5.29-6.28c-0.02-4.11,2.53-6.64,5.54-6.64c1.89,0,3.17,0.89,3.73,1.89h0.05v-7.38H627.42z M625.18,595.39
			c0-0.28-0.02-0.66-0.1-0.94c-0.33-1.43-1.56-2.61-3.24-2.61c-2.32,0-3.71,2.04-3.71,4.78c0,2.5,1.23,4.57,3.65,4.57
			c1.51,0,2.89-1,3.3-2.68c0.08-0.31,0.1-0.61,0.1-0.97V595.39z"/>
		<path class="st7" d="M632.41,596.95c0.05,3.04,1.99,4.29,4.24,4.29c1.61,0,2.58-0.28,3.42-0.64l0.38,1.61
			c-0.79,0.36-2.15,0.79-4.11,0.79c-3.81,0-6.08-2.53-6.08-6.26c0-3.73,2.2-6.67,5.8-6.67c4.04,0,5.11,3.55,5.11,5.83
			c0,0.46-0.05,0.82-0.08,1.05H632.41z M639,595.34c0.02-1.43-0.59-3.65-3.12-3.65c-2.27,0-3.27,2.09-3.45,3.65H639z"/>
		<path class="st7" d="M652.09,587.39v2.96h3.22v1.71h-3.22v6.67c0,1.53,0.44,2.4,1.69,2.4c0.61,0,0.97-0.05,1.3-0.15l0.1,1.69
			c-0.44,0.18-1.12,0.33-1.99,0.33c-1.05,0-1.89-0.36-2.43-0.97c-0.64-0.66-0.87-1.76-0.87-3.22v-6.75h-1.92v-1.71h1.92v-2.27
			L652.09,587.39z"/>
		<path class="st7" d="M668.88,596.44c0,4.57-3.17,6.57-6.16,6.57c-3.35,0-5.93-2.45-5.93-6.36c0-4.14,2.71-6.57,6.13-6.57
			C666.48,590.07,668.88,592.65,668.88,596.44z M659.07,596.56c0,2.71,1.56,4.75,3.76,4.75c2.15,0,3.76-2.02,3.76-4.8
			c0-2.1-1.05-4.75-3.71-4.75C660.22,591.76,659.07,594.21,659.07,596.56z"/>
		<path class="st7" d="M682.4,584.58v14.95c0,1.1,0.03,2.35,0.1,3.19h-2.02l-0.1-2.15h-0.05c-0.69,1.38-2.2,2.43-4.22,2.43
			c-2.99,0-5.29-2.53-5.29-6.28c-0.03-4.11,2.53-6.64,5.54-6.64c1.89,0,3.17,0.89,3.73,1.89h0.05v-7.38H682.4z M680.15,595.39
			c0-0.28-0.03-0.66-0.1-0.94c-0.33-1.43-1.56-2.61-3.25-2.61c-2.32,0-3.7,2.04-3.7,4.78c0,2.5,1.23,4.57,3.65,4.57
			c1.51,0,2.89-1,3.3-2.68c0.08-0.31,0.1-0.61,0.1-0.97V595.39z"/>
		<path class="st7" d="M697.33,596.44c0,4.57-3.17,6.57-6.16,6.57c-3.35,0-5.93-2.45-5.93-6.36c0-4.14,2.71-6.57,6.13-6.57
			C694.92,590.07,697.33,592.65,697.33,596.44z M687.52,596.56c0,2.71,1.56,4.75,3.75,4.75c2.15,0,3.76-2.02,3.76-4.8
			c0-2.1-1.05-4.75-3.7-4.75C688.66,591.76,687.52,594.21,687.52,596.56z"/>
		<path class="st7" d="M714.4,602.26c-0.59,0.31-1.89,0.74-3.55,0.74c-3.73,0-6.16-2.55-6.16-6.34c0-3.81,2.61-6.57,6.64-6.57
			c1.33,0,2.51,0.33,3.12,0.64l-0.51,1.74c-0.54-0.31-1.38-0.59-2.61-0.59c-2.84,0-4.37,2.09-4.37,4.68c0,2.86,1.84,4.62,4.29,4.62
			c1.28,0,2.12-0.33,2.76-0.61L714.4,602.26z"/>
		<path class="st7" d="M728.07,596.44c0,4.57-3.17,6.57-6.16,6.57c-3.35,0-5.93-2.45-5.93-6.36c0-4.14,2.71-6.57,6.13-6.57
			C725.67,590.07,728.07,592.65,728.07,596.44z M718.26,596.56c0,2.71,1.56,4.75,3.76,4.75c2.15,0,3.76-2.02,3.76-4.8
			c0-2.1-1.05-4.75-3.71-4.75C719.41,591.76,718.26,594.21,718.26,596.56z"/>
		<path class="st7" d="M730.91,594.21c0-1.46-0.02-2.71-0.1-3.86h1.97l0.08,2.43h0.1c0.56-1.66,1.92-2.71,3.42-2.71
			c0.25,0,0.43,0.03,0.64,0.08v2.12c-0.23-0.05-0.46-0.08-0.77-0.08c-1.58,0-2.71,1.2-3.01,2.89c-0.05,0.31-0.1,0.66-0.1,1.05v6.59
			h-2.22V594.21z"/>
		<path class="st7" d="M747.83,599.76c0,1.07,0.05,2.12,0.2,2.96h-2.04l-0.18-1.56h-0.08c-0.69,0.97-2.02,1.84-3.78,1.84
			c-2.5,0-3.78-1.76-3.78-3.55c0-2.99,2.66-4.62,7.44-4.6v-0.26c0-1.02-0.28-2.86-2.81-2.86c-1.15,0-2.35,0.36-3.22,0.92l-0.51-1.48
			c1.02-0.66,2.5-1.1,4.06-1.1c3.78,0,4.7,2.58,4.7,5.06V599.76z M745.66,596.41c-2.45-0.05-5.24,0.38-5.24,2.79
			c0,1.46,0.97,2.15,2.12,2.15c1.61,0,2.63-1.02,2.99-2.07c0.08-0.23,0.13-0.49,0.13-0.72V596.41z"/>
		<path class="st7" d="M750.06,601.42l5.6-7.28c0.54-0.66,1.05-1.25,1.61-1.92v-0.05h-6.7v-1.81H760l-0.03,1.4l-5.52,7.18
			c-0.51,0.69-1.02,1.3-1.58,1.94v0.05h7.23v1.79h-10.04V601.42z"/>
		<path class="st7" d="M773.41,596.44c0,4.57-3.17,6.57-6.16,6.57c-3.35,0-5.93-2.45-5.93-6.36c0-4.14,2.71-6.57,6.13-6.57
			C771.01,590.07,773.41,592.65,773.41,596.44z M763.6,596.56c0,2.71,1.56,4.75,3.76,4.75c2.15,0,3.76-2.02,3.76-4.8
			c0-2.1-1.05-4.75-3.71-4.75C764.75,591.76,763.6,594.21,763.6,596.56z M770.73,585.01l-3.12,3.65H766l2.25-3.65H770.73z"/>
		<path class="st7" d="M776.25,593.7c0-1.28-0.02-2.33-0.1-3.35h1.99l0.13,2.04h0.05c0.61-1.18,2.04-2.33,4.09-2.33
			c1.71,0,4.37,1.02,4.37,5.26v7.38h-2.25v-7.13c0-1.99-0.74-3.65-2.86-3.65c-1.48,0-2.63,1.05-3.02,2.3
			c-0.1,0.28-0.15,0.66-0.15,1.05v7.43h-2.25V593.7z"/>
	</g>
</g>
<g>
	<path class="st7" d="M345.68,770.06h2.22v11.53c0,4.57-2.25,5.98-5.21,5.98c-0.82,0-1.81-0.18-2.38-0.41l0.33-1.81
		c0.46,0.18,1.12,0.33,1.87,0.33c1.99,0,3.17-0.89,3.17-4.27V770.06z"/>
	<path class="st7" d="M352.78,781.51c0.05,3.04,1.99,4.29,4.24,4.29c1.61,0,2.58-0.28,3.42-0.64l0.38,1.61
		c-0.79,0.36-2.15,0.79-4.11,0.79c-3.81,0-6.08-2.53-6.08-6.26s2.2-6.67,5.8-6.67c4.04,0,5.11,3.55,5.11,5.83
		c0,0.46-0.05,0.82-0.08,1.05H352.78z M359.38,779.9c0.03-1.43-0.59-3.65-3.12-3.65c-2.28,0-3.27,2.1-3.45,3.65H359.38z"/>
	<path class="st7" d="M364.33,778.77c0-1.46-0.03-2.71-0.1-3.86h1.97l0.08,2.43h0.1c0.56-1.66,1.92-2.71,3.42-2.71
		c0.25,0,0.43,0.03,0.64,0.08v2.12c-0.23-0.05-0.46-0.08-0.77-0.08c-1.58,0-2.71,1.2-3.02,2.89c-0.05,0.31-0.1,0.66-0.1,1.05v6.59
		h-2.22V778.77z"/>
	<path class="st7" d="M373.69,781.51c0.05,3.04,1.99,4.29,4.24,4.29c1.61,0,2.58-0.28,3.42-0.64l0.38,1.61
		c-0.79,0.36-2.15,0.79-4.12,0.79c-3.81,0-6.08-2.53-6.08-6.26s2.2-6.67,5.8-6.67c4.04,0,5.11,3.55,5.11,5.83
		c0,0.46-0.05,0.82-0.08,1.05H373.69z M380.28,779.9c0.03-1.43-0.59-3.65-3.12-3.65c-2.27,0-3.27,2.1-3.45,3.65H380.28z"/>
	<path class="st7" d="M385.24,778.26c0-1.28-0.03-2.33-0.1-3.35h1.97l0.1,1.99h0.08c0.69-1.18,1.84-2.27,3.88-2.27
		c1.69,0,2.96,1.02,3.5,2.48h0.05c0.38-0.69,0.87-1.23,1.38-1.61c0.74-0.56,1.56-0.87,2.74-0.87c1.64,0,4.06,1.07,4.06,5.37v7.28
		h-2.2v-7c0-2.38-0.87-3.81-2.68-3.81c-1.28,0-2.27,0.95-2.66,2.04c-0.1,0.31-0.18,0.72-0.18,1.12v7.64h-2.2v-7.41
		c0-1.97-0.87-3.4-2.58-3.4c-1.41,0-2.43,1.12-2.79,2.25c-0.13,0.33-0.18,0.72-0.18,1.1v7.46h-2.2V778.26z"/>
	<path class="st7" d="M411.13,769.57l-3.12,3.65h-1.61l2.25-3.65H411.13z M406.56,787.28v-12.37h2.25v12.37H406.56z"/>
	<path class="st7" d="M421.23,784.32c0,1.07,0.05,2.12,0.2,2.96h-2.04l-0.18-1.56h-0.08c-0.69,0.97-2.02,1.84-3.78,1.84
		c-2.5,0-3.78-1.76-3.78-3.55c0-2.99,2.66-4.63,7.44-4.6v-0.26c0-1.02-0.28-2.86-2.81-2.86c-1.15,0-2.35,0.36-3.22,0.92l-0.51-1.48
		c1.02-0.66,2.5-1.1,4.06-1.1c3.78,0,4.7,2.58,4.7,5.06V784.32z M419.06,780.97c-2.45-0.05-5.24,0.38-5.24,2.79
		c0,1.46,0.97,2.15,2.12,2.15c1.61,0,2.63-1.02,2.99-2.07c0.08-0.23,0.13-0.49,0.13-0.72V780.97z"/>
	<path class="st7" d="M424.55,784.98c0.67,0.43,1.84,0.89,2.96,0.89c1.64,0,2.4-0.82,2.4-1.84c0-1.07-0.64-1.66-2.3-2.27
		c-2.22-0.79-3.27-2.02-3.27-3.5c0-1.99,1.61-3.63,4.27-3.63c1.25,0,2.35,0.36,3.04,0.77l-0.56,1.64c-0.49-0.31-1.38-0.72-2.53-0.72
		c-1.33,0-2.07,0.77-2.07,1.69c0,1.02,0.74,1.48,2.35,2.1c2.15,0.82,3.25,1.89,3.25,3.73c0,2.17-1.69,3.73-4.63,3.73
		c-1.35,0-2.61-0.36-3.48-0.87L424.55,784.98z"/>
	<path class="st7" d="M439.68,787.28v-1.38l1.76-1.71c4.24-4.04,6.16-6.18,6.18-8.69c0-1.69-0.82-3.25-3.3-3.25
		c-1.51,0-2.76,0.77-3.53,1.41l-0.72-1.58c1.15-0.97,2.79-1.69,4.7-1.69c3.58,0,5.09,2.45,5.09,4.83c0,3.07-2.22,5.55-5.72,8.92
		l-1.33,1.23v0.05h7.46v1.87H439.68z"/>
	<path class="st7" d="M454.1,785.7c0.49,0.05,1.05,0,1.82-0.08c1.3-0.18,2.53-0.72,3.48-1.61c1.1-1,1.89-2.45,2.2-4.42h-0.08
		c-0.92,1.12-2.25,1.79-3.91,1.79c-2.99,0-4.91-2.25-4.91-5.09c0-3.14,2.27-5.9,5.67-5.9s5.5,2.76,5.5,7c0,3.66-1.23,6.21-2.86,7.8
		c-1.28,1.25-3.04,2.02-4.83,2.22c-0.82,0.13-1.53,0.15-2.07,0.13V785.7z M458.16,772.1c-1.89,0-3.25,1.69-3.25,4.04
		c0,2.07,1.25,3.53,3.19,3.53c1.51,0,2.68-0.74,3.27-1.74c0.13-0.2,0.21-0.46,0.21-0.82c0-2.84-1.05-5.01-3.4-5.01H458.16z"/>
	<path class="st7" d="M465.19,790.43c0.54-1.51,1.23-4.24,1.51-6.11l2.5-0.26c-0.59,2.17-1.71,5.01-2.43,6.21L465.19,790.43z"/>
	<path class="st7" d="M481.49,772.76h-0.05l-2.89,1.56l-0.43-1.71l3.63-1.94h1.92v16.61h-2.17V772.76z"/>
	<path class="st7" d="M490.26,784.7c0.64,0.41,2.12,1.05,3.68,1.05c2.89,0,3.78-1.84,3.76-3.22c-0.03-2.33-2.12-3.32-4.29-3.32
		h-1.25v-1.69h1.25c1.64,0,3.71-0.84,3.71-2.81c0-1.33-0.84-2.5-2.91-2.5c-1.33,0-2.61,0.59-3.32,1.1l-0.59-1.64
		c0.87-0.64,2.56-1.28,4.34-1.28c3.27,0,4.75,1.94,4.75,3.96c0,1.71-1.02,3.17-3.07,3.91v0.05c2.04,0.41,3.71,1.94,3.71,4.27
		c0,2.66-2.07,4.98-6.06,4.98c-1.87,0-3.5-0.59-4.32-1.12L490.26,784.7z"/>
</g>
<g>
	<g>
		<path class="st8" d="M225.05,689.85c0.97-0.2,2.5-0.36,4.06-0.36c2.22,0,3.65,0.38,4.73,1.25c0.89,0.66,1.43,1.69,1.43,3.04
			c0,1.66-1.1,3.12-2.91,3.78v0.05c1.64,0.41,3.55,1.76,3.55,4.32c0,1.48-0.59,2.61-1.46,3.45c-1.2,1.1-3.14,1.61-5.95,1.61
			c-1.53,0-2.71-0.1-3.45-0.2V689.85z M227.28,696.9h2.02c2.35,0,3.73-1.23,3.73-2.89c0-2.02-1.53-2.81-3.78-2.81
			c-1.02,0-1.61,0.08-1.97,0.15V696.9z M227.28,705.15c0.43,0.08,1.07,0.1,1.87,0.1c2.3,0,4.42-0.84,4.42-3.35
			c0-2.35-2.02-3.32-4.45-3.32h-1.84V705.15z"/>
		<path class="st8" d="M249.18,703.46c0,1.28,0.03,2.4,0.1,3.37h-1.99l-0.13-2.02h-0.05c-0.59,1-1.89,2.3-4.09,2.3
			c-1.94,0-4.27-1.07-4.27-5.42v-7.23H241v6.85c0,2.35,0.72,3.93,2.76,3.93c1.51,0,2.56-1.05,2.96-2.04c0.13-0.33,0.2-0.74,0.2-1.15
			v-7.59h2.25V703.46z"/>
		<path class="st8" d="M252.61,704.54c0.66,0.43,1.84,0.89,2.96,0.89c1.64,0,2.4-0.82,2.4-1.84c0-1.07-0.64-1.66-2.3-2.27
			c-2.22-0.79-3.27-2.02-3.27-3.5c0-1.99,1.61-3.63,4.27-3.63c1.25,0,2.35,0.36,3.04,0.77l-0.56,1.64
			c-0.49-0.31-1.38-0.72-2.53-0.72c-1.33,0-2.07,0.77-2.07,1.69c0,1.02,0.74,1.48,2.35,2.09c2.15,0.82,3.24,1.89,3.24,3.73
			c0,2.17-1.69,3.73-4.62,3.73c-1.35,0-2.61-0.36-3.47-0.87L252.61,704.54z"/>
		<path class="st8" d="M271.85,706.38c-0.59,0.31-1.89,0.74-3.55,0.74c-3.73,0-6.16-2.55-6.16-6.34c0-3.81,2.61-6.57,6.64-6.57
			c1.33,0,2.5,0.33,3.12,0.64l-0.51,1.74c-0.54-0.31-1.38-0.59-2.61-0.59c-2.84,0-4.37,2.09-4.37,4.68c0,2.86,1.84,4.62,4.29,4.62
			c1.28,0,2.12-0.33,2.76-0.61L271.85,706.38z"/>
		<path class="st8" d="M283.17,703.87c0,1.07,0.05,2.12,0.2,2.96h-2.04l-0.18-1.56h-0.08c-0.69,0.97-2.02,1.84-3.78,1.84
			c-2.5,0-3.78-1.76-3.78-3.55c0-2.99,2.66-4.62,7.44-4.6v-0.26c0-1.02-0.28-2.86-2.81-2.86c-1.15,0-2.35,0.36-3.22,0.92l-0.51-1.48
			c1.02-0.66,2.5-1.1,4.06-1.1c3.78,0,4.7,2.58,4.7,5.06V703.87z M281,700.53c-2.45-0.05-5.24,0.38-5.24,2.79
			c0,1.46,0.97,2.15,2.12,2.15c1.61,0,2.63-1.02,2.99-2.07c0.08-0.23,0.13-0.49,0.13-0.72V700.53z"/>
		<path class="st8" d="M286.8,698.33c0-1.46-0.03-2.71-0.1-3.86h1.97l0.08,2.43h0.1c0.56-1.66,1.92-2.71,3.42-2.71
			c0.26,0,0.43,0.03,0.64,0.08v2.12c-0.23-0.05-0.46-0.08-0.77-0.08c-1.58,0-2.71,1.2-3.01,2.89c-0.05,0.31-0.1,0.66-0.1,1.05v6.59
			h-2.22V698.33z"/>
		<path class="st8" d="M309.27,703.87c0,1.07,0.05,2.12,0.2,2.96h-2.04l-0.18-1.56h-0.08c-0.69,0.97-2.02,1.84-3.78,1.84
			c-2.5,0-3.78-1.76-3.78-3.55c0-2.99,2.66-4.62,7.44-4.6v-0.26c0-1.02-0.28-2.86-2.81-2.86c-1.15,0-2.35,0.36-3.22,0.92l-0.51-1.48
			c1.02-0.66,2.5-1.1,4.06-1.1c3.78,0,4.7,2.58,4.7,5.06V703.87z M307.09,700.53c-2.45-0.05-5.24,0.38-5.24,2.79
			c0,1.46,0.97,2.15,2.12,2.15c1.61,0,2.63-1.02,2.99-2.07c0.08-0.23,0.13-0.49,0.13-0.72V700.53z"/>
		<path class="st8" d="M312.9,688.7h2.25v7.72h0.05c0.36-0.64,0.92-1.2,1.61-1.58c0.66-0.38,1.46-0.64,2.3-0.64
			c1.66,0,4.32,1.02,4.32,5.29v7.36h-2.25v-7.1c0-1.99-0.74-3.68-2.86-3.68c-1.46,0-2.61,1.02-3.02,2.25
			c-0.13,0.31-0.15,0.64-0.15,1.07v7.46h-2.25V688.7z"/>
		<path class="st8" d="M338.27,700.55c0,4.57-3.17,6.57-6.16,6.57c-3.35,0-5.93-2.45-5.93-6.36c0-4.14,2.71-6.57,6.13-6.57
			C335.87,694.19,338.27,696.77,338.27,700.55z M328.46,700.68c0,2.71,1.56,4.75,3.76,4.75c2.15,0,3.76-2.02,3.76-4.8
			c0-2.1-1.05-4.75-3.7-4.75C329.61,695.88,328.46,698.33,328.46,700.68z"/>
		<path class="st8" d="M341.11,698.33c0-1.46-0.03-2.71-0.1-3.86h1.97l0.08,2.43h0.1c0.56-1.66,1.92-2.71,3.42-2.71
			c0.26,0,0.43,0.03,0.64,0.08v2.12c-0.23-0.05-0.46-0.08-0.77-0.08c-1.58,0-2.71,1.2-3.02,2.89c-0.05,0.31-0.1,0.66-0.1,1.05v6.59
			h-2.22V698.33z"/>
		<path class="st8" d="M358.03,703.87c0,1.07,0.05,2.12,0.2,2.96h-2.04l-0.18-1.56h-0.08c-0.69,0.97-2.02,1.84-3.78,1.84
			c-2.5,0-3.78-1.76-3.78-3.55c0-2.99,2.66-4.62,7.44-4.6v-0.26c0-1.02-0.28-2.86-2.81-2.86c-1.15,0-2.35,0.36-3.22,0.92l-0.51-1.48
			c1.02-0.66,2.5-1.1,4.06-1.1c3.78,0,4.7,2.58,4.7,5.06V703.87z M355.86,700.53c-2.45-0.05-5.24,0.38-5.24,2.79
			c0,1.46,0.97,2.15,2.12,2.15c1.61,0,2.63-1.02,2.99-2.07c0.08-0.23,0.13-0.49,0.13-0.72V700.53z"/>
	</g>
</g>
<g>
	<path class="st8" d="M453.45,706.28c-0.82,0.41-2.45,0.84-4.55,0.84c-4.85,0-8.51-3.09-8.51-8.74c0-5.39,3.65-9.05,8.99-9.05
		c2.15,0,3.5,0.46,4.09,0.77l-0.54,1.81c-0.84-0.41-2.04-0.72-3.47-0.72c-4.04,0-6.72,2.58-6.72,7.1c0,4.22,2.43,6.92,6.62,6.92
		c1.35,0,2.73-0.28,3.63-0.71L453.45,706.28z"/>
	<path class="st8" d="M467.08,700.55c0,4.57-3.17,6.57-6.16,6.57c-3.35,0-5.93-2.45-5.93-6.36c0-4.14,2.71-6.57,6.13-6.57
		C464.67,694.19,467.08,696.77,467.08,700.55z M457.26,700.68c0,2.71,1.56,4.75,3.76,4.75c2.15,0,3.76-2.02,3.76-4.8
		c0-2.1-1.05-4.75-3.71-4.75C458.42,695.88,457.26,698.33,457.26,700.68z"/>
	<path class="st8" d="M469.92,697.82c0-1.28-0.03-2.32-0.1-3.35h1.99l0.13,2.04h0.05c0.61-1.17,2.04-2.32,4.09-2.32
		c1.71,0,4.37,1.02,4.37,5.26v7.38h-2.25v-7.13c0-1.99-0.74-3.65-2.86-3.65c-1.48,0-2.63,1.05-3.02,2.3
		c-0.1,0.28-0.15,0.66-0.15,1.05v7.43h-2.25V697.82z"/>
	<path class="st8" d="M492.23,691.51v2.96h3.22v1.71h-3.22v6.67c0,1.53,0.44,2.4,1.69,2.4c0.61,0,0.97-0.05,1.3-0.15l0.1,1.69
		c-0.43,0.18-1.12,0.33-1.99,0.33c-1.05,0-1.89-0.36-2.43-0.97c-0.64-0.66-0.87-1.76-0.87-3.22v-6.75h-1.92v-1.71h1.92v-2.27
		L492.23,691.51z"/>
	<path class="st8" d="M509.02,700.55c0,4.57-3.17,6.57-6.16,6.57c-3.35,0-5.93-2.45-5.93-6.36c0-4.14,2.71-6.57,6.13-6.57
		C506.62,694.19,509.02,696.77,509.02,700.55z M499.21,700.68c0,2.71,1.56,4.75,3.76,4.75c2.15,0,3.76-2.02,3.76-4.8
		c0-2.1-1.05-4.75-3.71-4.75C500.36,695.88,499.21,698.33,499.21,700.68z"/>
	<path class="st8" d="M522.54,688.7v14.95c0,1.1,0.03,2.35,0.1,3.19h-2.02l-0.1-2.15h-0.05c-0.69,1.38-2.2,2.43-4.22,2.43
		c-2.99,0-5.29-2.53-5.29-6.28c-0.03-4.11,2.53-6.64,5.54-6.64c1.89,0,3.17,0.89,3.73,1.89h0.05v-7.38H522.54z M520.29,699.5
		c0-0.28-0.03-0.66-0.1-0.95c-0.33-1.43-1.56-2.61-3.24-2.61c-2.32,0-3.7,2.04-3.7,4.78c0,2.5,1.23,4.57,3.65,4.57
		c1.51,0,2.89-1,3.3-2.68c0.08-0.31,0.1-0.61,0.1-0.97V699.5z"/>
	<path class="st8" d="M537.46,700.55c0,4.57-3.17,6.57-6.16,6.57c-3.35,0-5.93-2.45-5.93-6.36c0-4.14,2.71-6.57,6.13-6.57
		C535.06,694.19,537.46,696.77,537.46,700.55z M527.65,700.68c0,2.71,1.56,4.75,3.76,4.75c2.15,0,3.76-2.02,3.76-4.8
		c0-2.1-1.05-4.75-3.7-4.75C528.8,695.88,527.65,698.33,527.65,700.68z"/>
	<path class="st8" d="M545.72,697.82c0-1.28-0.03-2.32-0.1-3.35h1.97l0.1,1.99h0.08c0.69-1.18,1.84-2.27,3.88-2.27
		c1.69,0,2.96,1.02,3.5,2.48h0.05c0.38-0.69,0.87-1.23,1.38-1.61c0.74-0.56,1.56-0.87,2.73-0.87c1.64,0,4.06,1.07,4.06,5.37v7.28
		h-2.2v-7c0-2.38-0.87-3.81-2.68-3.81c-1.28,0-2.27,0.95-2.66,2.04c-0.1,0.31-0.18,0.72-0.18,1.12v7.64h-2.2v-7.41
		c0-1.97-0.87-3.4-2.58-3.4c-1.4,0-2.43,1.12-2.78,2.25c-0.13,0.33-0.18,0.72-0.18,1.1v7.46h-2.2V697.82z"/>
	<path class="st8" d="M569.54,691c0.03,0.77-0.54,1.38-1.43,1.38c-0.79,0-1.35-0.61-1.35-1.38c0-0.79,0.59-1.41,1.41-1.41
		C569.01,689.59,569.54,690.2,569.54,691z M567.04,706.84v-12.37h2.25v12.37H567.04z"/>
	<path class="st8" d="M587.25,706.38c-0.59,0.31-1.89,0.74-3.55,0.74c-3.73,0-6.16-2.55-6.16-6.34c0-3.81,2.61-6.57,6.64-6.57
		c1.33,0,2.5,0.33,3.12,0.64l-0.51,1.74c-0.54-0.31-1.38-0.59-2.61-0.59c-2.84,0-4.37,2.09-4.37,4.68c0,2.86,1.84,4.62,4.29,4.62
		c1.28,0,2.12-0.33,2.76-0.61L587.25,706.38z"/>
	<path class="st8" d="M600.93,700.55c0,4.57-3.17,6.57-6.16,6.57c-3.35,0-5.93-2.45-5.93-6.36c0-4.14,2.71-6.57,6.13-6.57
		C598.52,694.19,600.93,696.77,600.93,700.55z M591.11,700.68c0,2.71,1.56,4.75,3.76,4.75c2.15,0,3.76-2.02,3.76-4.8
		c0-2.1-1.05-4.75-3.7-4.75C592.26,695.88,591.11,698.33,591.11,700.68z"/>
	<path class="st8" d="M603.77,698.33c0-1.46-0.03-2.71-0.1-3.86h1.97l0.08,2.43h0.1c0.56-1.66,1.92-2.71,3.42-2.71
		c0.26,0,0.43,0.03,0.64,0.08v2.12c-0.23-0.05-0.46-0.08-0.77-0.08c-1.58,0-2.71,1.2-3.02,2.89c-0.05,0.31-0.1,0.66-0.1,1.05v6.59
		h-2.22V698.33z"/>
	<path class="st8" d="M620.68,703.87c0,1.07,0.05,2.12,0.2,2.96h-2.04l-0.18-1.56h-0.08c-0.69,0.97-2.02,1.84-3.78,1.84
		c-2.5,0-3.78-1.76-3.78-3.55c0-2.99,2.66-4.62,7.44-4.6v-0.26c0-1.02-0.28-2.86-2.81-2.86c-1.15,0-2.35,0.36-3.22,0.92l-0.51-1.48
		c1.02-0.66,2.5-1.1,4.06-1.1c3.78,0,4.7,2.58,4.7,5.06V703.87z M618.51,700.53c-2.45-0.05-5.24,0.38-5.24,2.79
		c0,1.46,0.97,2.15,2.12,2.15c1.61,0,2.63-1.02,2.99-2.07c0.08-0.23,0.13-0.49,0.13-0.72V700.53z"/>
	<path class="st8" d="M622.91,705.53l5.6-7.28c0.54-0.66,1.05-1.25,1.61-1.92v-0.05h-6.69v-1.81h9.43l-0.03,1.41l-5.52,7.18
		c-0.51,0.69-1.02,1.3-1.58,1.94v0.05h7.23v1.79h-10.04V705.53z"/>
	<path class="st8" d="M646.27,700.55c0,4.57-3.17,6.57-6.16,6.57c-3.35,0-5.93-2.45-5.93-6.36c0-4.14,2.71-6.57,6.13-6.57
		C643.87,694.19,646.27,696.77,646.27,700.55z M636.46,700.68c0,2.71,1.56,4.75,3.76,4.75c2.15,0,3.76-2.02,3.76-4.8
		c0-2.1-1.05-4.75-3.7-4.75C637.61,695.88,636.46,698.33,636.46,700.68z M643.58,689.13l-3.12,3.65h-1.61l2.25-3.65H643.58z"/>
	<path class="st8" d="M649.11,697.82c0-1.28-0.03-2.32-0.1-3.35H651l0.13,2.04h0.05c0.61-1.17,2.04-2.32,4.09-2.32
		c1.71,0,4.37,1.02,4.37,5.26v7.38h-2.25v-7.13c0-1.99-0.74-3.65-2.86-3.65c-1.48,0-2.63,1.05-3.02,2.3
		c-0.1,0.28-0.15,0.66-0.15,1.05v7.43h-2.25V697.82z"/>
</g>
</svg>
