<?xml version="1.0" encoding="utf-8"?>
<!-- Generator: Adobe Illustrator 25.3.0, SVG Export Plug-In . SVG Version: 6.00 Build 0)  -->
<svg version="1.1" id="Layer_1" xmlns="http://www.w3.org/2000/svg" xmlns:xlink="http://www.w3.org/1999/xlink" x="0px" y="0px"
	 viewBox="0 0 841.89 1190.55" style="enable-background:new 0 0 841.89 1190.55;" xml:space="preserve">
<style type="text/css">
	.st0{fill:#848484;}
	.st1{fill:#A5A4A4;}
	.st2{fill:#FFFFFF;}
</style>
<g>
	<path class="st0" d="M95.75,183.79H77.98v-16.08h55.65v16.08h-17.88v57.97H95.75V183.79z"/>
	<path class="st0" d="M135.64,193.63c0-1.97,0.67-3.7,2.01-5.18c1.34-1.48,2.89-2.22,4.65-2.22h38.93l-6.66,16.08h-18.94v39.46
		h-19.99V193.63z"/>
	<path class="st0" d="M185.35,215.84c0-1.9,0.67-3.6,2.01-5.08c1.34-1.48,2.89-2.22,4.65-2.22h24.44v-6.24h-31.1v-16.08h44.43
		c1.76,0,3.31,0.74,4.65,2.22c1.34,1.48,2.01,3.21,2.01,5.18v48.13h-44.43c-1.76,0-3.32-0.74-4.65-2.22
		c-1.34-1.48-2.01-3.21-2.01-5.18V215.84z M216.46,225.68v-4.87h-11.11v4.87H216.46z"/>
	<path class="st0" d="M243.22,186.22h44.43c1.76,0,3.31,0.74,4.65,2.22c1.34,1.48,2.01,3.21,2.01,5.18v48.13h-19.99V202.3h-11.11
		v39.46h-19.99V186.22z"/>
	<path class="st0" d="M300.77,225.68h31v-4.87h-24.33c-1.83,0-3.4-0.74-4.71-2.22c-1.31-1.48-1.96-3.21-1.96-5.18v-19.78
		c0-1.97,0.65-3.7,1.96-5.18c1.3-1.48,2.87-2.22,4.71-2.22h44.33v16.08h-31v6.24h24.33c1.76,0,3.31,0.74,4.65,2.22
		c1.34,1.48,2.01,3.17,2.01,5.08v18.51c0,1.98-0.67,3.7-2.01,5.18c-1.34,1.48-2.89,2.22-4.65,2.22h-37.66L300.77,225.68z"/>
	<path class="st0" d="M362.97,210.87h-5.5V198.6h5.5v-23.48c0-1.97,0.67-3.7,2.01-5.18c1.34-1.48,2.89-2.22,4.65-2.22h31
		l-6.67,16.08h-11v14.81h11v12.27h-11v30.89h-19.99V210.87z"/>
	<path class="st0" d="M401.9,193.63c0-1.97,0.67-3.7,2.01-5.18c1.34-1.48,2.89-2.22,4.65-2.22h37.77c1.76,0,3.31,0.74,4.65,2.22
		c1.34,1.48,2.01,3.21,2.01,5.18v40.73c0,1.98-0.67,3.7-2.01,5.18c-1.34,1.48-2.89,2.22-4.65,2.22h-37.77
		c-1.76,0-3.32-0.74-4.65-2.22c-1.34-1.48-2.01-3.21-2.01-5.18V193.63z M433,225.68V202.3H421.9v23.38H433z"/>
	<path class="st0" d="M459.77,193.63c0-1.97,0.67-3.7,2.01-5.18c1.34-1.48,2.89-2.22,4.65-2.22h38.93l-6.66,16.08h-18.94v39.46
		h-19.99V193.63z"/>
	<path class="st0" d="M509.49,186.22h75.64c1.69,0,3.23,0.74,4.6,2.22c1.38,1.48,2.06,3.21,2.06,5.18v48.13H571.8V202.3h-11.11
		v39.46H540.7V202.3h-11.21v39.46h-19.99V186.22z"/>
	<path class="st0" d="M598.56,215.84c0-1.9,0.67-3.6,2.01-5.08c1.34-1.48,2.89-2.22,4.65-2.22h24.44v-6.24h-31.1v-16.08h44.43
		c1.76,0,3.31,0.74,4.65,2.22c1.34,1.48,2.01,3.21,2.01,5.18v48.13h-44.43c-1.76,0-3.32-0.74-4.65-2.22
		c-1.34-1.48-2.01-3.21-2.01-5.18V215.84z M629.67,225.68v-4.87h-11.11v4.87H629.67z"/>
	<path class="st0" d="M654.95,193.63c0-1.97,0.67-3.7,2.01-5.18c1.34-1.48,2.89-2.22,4.65-2.22h24.33v-18.51h19.99v74.05h-44.33
		c-1.76,0-3.32-0.74-4.65-2.22c-1.34-1.48-2.01-3.21-2.01-5.18V193.63z M685.94,225.68V202.3h-11v23.38H685.94z"/>
	<path class="st0" d="M712.81,193.63c0-1.97,0.67-3.7,2.01-5.18c1.34-1.48,2.89-2.22,4.65-2.22h37.77c1.76,0,3.31,0.74,4.65,2.22
		c1.34,1.48,2.01,3.21,2.01,5.18v40.73c0,1.98-0.67,3.7-2.01,5.18c-1.34,1.48-2.89,2.22-4.65,2.22h-37.77
		c-1.76,0-3.32-0.74-4.65-2.22c-1.34-1.48-2.01-3.21-2.01-5.18V193.63z M743.92,225.68V202.3h-11.11v23.38H743.92z"/>
</g>
<g>
	<path class="st0" d="M175.69,952.38h46.6c1.61,0,3.07,0.7,4.38,2.11c1.31,1.41,1.96,3.05,1.96,4.93v31.71
		c0,1.95-0.65,3.61-1.96,4.98c-1.31,1.38-2.77,2.06-4.38,2.06h-27.58v24.66h-19.02V952.38z M209.61,986.5v-18.82h-14.9v18.82H209.61
		z"/>
	<path class="st0" d="M233.16,977.04c0-1.88,0.64-3.52,1.91-4.93c1.27-1.41,2.75-2.11,4.43-2.11h35.93c1.68,0,3.15,0.7,4.43,2.11
		c1.27,1.41,1.91,3.05,1.91,4.93v38.75c0,1.88-0.64,3.52-1.91,4.93c-1.28,1.41-2.75,2.11-4.43,2.11H239.5
		c-1.68,0-3.15-0.7-4.43-2.11c-1.28-1.41-1.91-3.05-1.91-4.93V977.04z M262.75,1007.54V985.3h-10.57v22.24H262.75z"/>
	<path class="st0" d="M288.22,977.04c0-1.88,0.64-3.52,1.91-4.93c1.27-1.41,2.75-2.11,4.43-2.11h37.04l-6.34,15.3h-18.02v37.54
		h-19.02V977.04z"/>
	<path class="st0" d="M371.75,977.04c0-1.88,0.64-3.52,1.91-4.93c1.27-1.41,2.75-2.11,4.43-2.11h42.27l-6.34,15.3h-23.25v22.24
		h29.59l-6.34,15.3H378.1c-1.68,0-3.15-0.7-4.43-2.11c-1.28-1.41-1.91-3.05-1.91-4.93V977.04z"/>
	<path class="st0" d="M426.21,977.04c0-1.88,0.64-3.52,1.91-4.93c1.27-1.41,2.75-2.11,4.43-2.11h37.04l-6.34,15.3h-18.02v37.54
		h-19.02V977.04z"/>
	<path class="st0" d="M473.51,952.38h19.02v11.68h-19.02V952.38z M473.51,970h19.02v52.84h-19.02V970z"/>
	<path class="st0" d="M498.88,1007.54h29.49v-4.63h-23.15c-1.75,0-3.24-0.7-4.48-2.11c-1.24-1.41-1.86-3.05-1.86-4.93v-18.82
		c0-1.88,0.62-3.52,1.86-4.93c1.24-1.41,2.73-2.11,4.48-2.11h42.17v15.3H517.9v5.94h23.15c1.68,0,3.15,0.71,4.43,2.11
		c1.27,1.41,1.91,3.02,1.91,4.83v17.61c0,1.88-0.64,3.52-1.91,4.93c-1.28,1.41-2.75,2.11-4.43,2.11h-35.83L498.88,1007.54z"/>
	<path class="st0" d="M558.06,981.67h-5.23V970h5.23v-17.61h19.02V970h10.47v11.68h-10.47v25.87h10.47l6.34,15.3H564.4
		c-1.68,0-3.15-0.71-4.43-2.12c-1.28-1.41-1.91-3.06-1.91-4.95V981.67z"/>
	<path class="st0" d="M595.2,977.04c0-1.88,0.64-3.52,1.91-4.93c1.27-1.41,2.75-2.11,4.43-2.11h35.93c1.68,0,3.15,0.7,4.43,2.11
		c1.27,1.41,1.91,3.05,1.91,4.93v38.75c0,1.88-0.64,3.52-1.91,4.93c-1.28,1.41-2.75,2.11-4.43,2.11h-35.93
		c-1.68,0-3.15-0.7-4.43-2.11c-1.28-1.41-1.91-3.05-1.91-4.93V977.04z M624.79,1007.54V985.3h-10.57v22.24H624.79z"/>
</g>
<path class="st0" d="M361.94,588.17v-86.48l-55.7-4.56l-19.07-74.24l-62.03-28.52l-13.21-66.03l-92.63-0.73l45.57,174.32L251.74,572
	L361.94,588.17z M169.57,387.6l97.83,54.06l5.46,27.03l-97.83-54.06L169.57,387.6z M180.41,436.88l97.83,54.06l5.46,27.03
	l-97.83-54.06L180.41,436.88z"/>
<path class="st0" d="M590.45,572l86.88-70.08l45.57-174.32l-92.63,0.73l-13.21,66.03l-62.03,28.52l-19.07,74.24l-55.7,4.56v86.48
	L590.45,572z M667.16,414.63l-97.83,54.06l5.46-27.03l97.83-54.06L667.16,414.63z M656.32,463.91l-97.83,54.06l5.46-27.03
	l97.83-54.06L656.32,463.91z"/>
<path class="st0" d="M233.17,327.6l7.58,45.16l71.12,27.56h54.07v-77.8h111.11v81.35h61.38l64.7-28.11l9-48.17
	C480.16,280.97,359.99,284.16,233.17,327.6z"/>
<polygon class="st0" points="241.41,588.17 181.28,541.69 197.53,743.99 286.18,843.03 287.17,638.7 233.9,602.61 "/>
<polygon class="st0" points="599.77,588.17 659.9,541.69 643.65,743.99 555.01,843.03 554.01,638.7 607.28,602.61 "/>
<polygon class="st0" points="481.76,743.99 361.23,743.99 361.23,624.67 309.91,646.54 309.91,850.66 332.22,863.45 361.85,792.09 
	477.09,792.09 507.68,862.52 533.08,851.44 533.08,647.65 481.76,624.54 "/>
<polygon class="st0" points="378.28,811.66 355.58,871.48 485.6,871.48 459.72,811.66 "/>
<polygon class="st1" points="458.77,420.75 458.77,346.77 384.37,346.77 384.37,420.75 310.91,420.75 323.93,479.73 384.37,479.73 
	384.37,713.05 458.77,713.05 458.77,479.73 521.06,479.73 534.08,420.75 "/>
</svg>
