<?xml version="1.0" encoding="utf-8"?>
<!-- Generator: Adobe Illustrator 25.3.0, SVG Export Plug-In . SVG Version: 6.00 Build 0)  -->
<svg version="1.1" id="Layer_1" xmlns="http://www.w3.org/2000/svg" xmlns:xlink="http://www.w3.org/1999/xlink" x="0px" y="0px"
	 viewBox="0 0 841.89 1190.55" style="enable-background:new 0 0 841.89 1190.55;" xml:space="preserve">
<style type="text/css">
	.st0{fill:#FFFFFF;}
</style>
<rect x="83.49" y="295.96" width="8.59" height="417.41"/>
<rect x="103.25" y="295.95" width="8.58" height="214.25"/>
<rect x="103.25" y="662.79" width="8.58" height="50.57"/>
<rect x="173.66" y="295.95" width="8.6" height="214.25"/>
<rect x="173.66" y="662.79" width="8.6" height="50.57"/>
<rect x="205.44" y="295.95" width="8.6" height="214.25"/>
<rect x="205.44" y="662.79" width="8.6" height="50.57"/>
<rect x="315.39" y="295.95" width="8.58" height="214.25"/>
<rect x="315.39" y="662.79" width="8.58" height="50.57"/>
<rect x="335.99" y="295.95" width="8.6" height="214.25"/>
<rect x="335.99" y="662.79" width="8.6" height="50.57"/>
<rect x="406.43" y="295.95" width="8.6" height="214.25"/>
<rect x="406.43" y="662.79" width="8.6" height="50.57"/>
<rect x="425.62" y="295.95" width="8.6" height="214.25"/>
<rect x="425.62" y="662.79" width="8.6" height="50.57"/>
<rect x="447.09" y="295.96" width="8.59" height="417.41"/>
<rect x="518.08" y="295.96" width="8.59" height="417.41"/>
<rect x="538.69" y="295.96" width="8.59" height="417.41"/>
<rect x="469.98" y="295.96" width="29.2" height="417.41"/>
<rect x="376.37" y="295.95" width="18.89" height="214.25"/>
<rect x="376.37" y="662.79" width="18.89" height="50.57"/>
<rect x="234.65" y="295.95" width="18.04" height="214.25"/>
<rect x="234.65" y="662.79" width="18.04" height="50.57"/>
<rect x="266.43" y="295.95" width="36.94" height="214.25"/>
<rect x="266.43" y="662.79" width="36.94" height="50.57"/>
<rect x="132.45" y="295.95" width="20.61" height="214.25"/>
<rect x="132.45" y="662.79" width="20.61" height="50.57"/>
<g>
	<path d="M146.1,578.75h1.74c4.06,0,6.81-0.87,8.23-2.6c1.42-1.74,2.14-5.73,2.14-11.99v-37.16h16.69v39.74
		c0,7.12-1.77,12.22-5.3,15.31c-3.53,3.09-9.39,4.63-17.58,4.63c-1.57,0-2.78-0.02-3.6-0.04c-0.83-0.03-1.6-0.07-2.31-0.13V578.75z"
		/>
	<path d="M189,586.49v-59.5h37.25V535h-20.56v17.31h19.49v8.01h-19.49v18.16h21.67v8.01H189z"/>
	<path d="M244.5,571.36c1.22,2.88,2.74,5.09,4.56,6.63c1.82,1.54,3.83,2.31,6.03,2.31c2.25,0,4.11-0.67,5.56-2
		c1.45-1.33,2.18-3.01,2.18-5.03c0-1.63-0.55-3.11-1.65-4.43c-1.1-1.32-2.89-2.66-5.38-4.03l-2.36-1.29
		c-5.4-2.88-8.65-4.79-9.75-5.74c-2.26-1.96-3.85-3.91-4.78-5.85c-0.93-1.94-1.4-4.22-1.4-6.83c0-5.73,1.92-10.41,5.76-14.04
		c3.84-3.63,8.85-5.45,15.02-5.45c4.33,0,8.13,0.99,11.39,2.96c3.26,1.97,5.82,4.81,7.66,8.52l-6.77,4.72
		c-1.19-2.85-2.69-4.98-4.52-6.41c-1.82-1.42-4-2.14-6.52-2.14c-2.11,0-3.85,0.65-5.23,1.96c-1.38,1.31-2.07,2.94-2.07,4.9
		c0,1.66,0.57,3.12,1.71,4.36c1.14,1.25,3.34,2.7,6.61,4.36l1.11,0.58c6.08,3.03,9.75,5.06,10.99,6.1c2.2,1.81,3.78,3.72,4.74,5.72
		c0.96,2,1.45,4.34,1.45,7.01c0,5.85-2.04,10.61-6.12,14.29c-4.08,3.68-9.38,5.52-15.91,5.52c-4.66,0-8.77-1.02-12.35-3.07
		c-3.58-2.05-6.3-4.94-8.17-8.68L244.5,571.36z"/>
	<path d="M289,526.99h16.64v35.25c0,5.85,0.83,9.95,2.49,12.33c1.66,2.37,4.45,3.56,8.37,3.56s6.69-1.18,8.32-3.54
		c1.63-2.36,2.45-6.48,2.45-12.35v-35.25h8.46v37.92c0,7.68-1.94,13.45-5.81,17.29c-3.87,3.84-9.71,5.76-17.51,5.76
		c-3.53,0-6.9-0.57-10.1-1.71c-3.2-1.14-5.79-2.68-7.74-4.61c-2.02-1.96-3.45-4.17-4.29-6.63c-0.85-2.46-1.27-5.83-1.27-10.1V526.99
		z"/>
	<path d="M354.16,571.36c1.22,2.88,2.74,5.09,4.56,6.63c1.82,1.54,3.83,2.31,6.03,2.31c2.25,0,4.11-0.67,5.56-2
		c1.45-1.33,2.18-3.01,2.18-5.03c0-1.63-0.55-3.11-1.65-4.43c-1.1-1.32-2.89-2.66-5.38-4.03l-2.36-1.29
		c-5.4-2.88-8.65-4.79-9.75-5.74c-2.26-1.96-3.85-3.91-4.78-5.85c-0.93-1.94-1.4-4.22-1.4-6.83c0-5.73,1.92-10.41,5.76-14.04
		c3.84-3.63,8.85-5.45,15.02-5.45c4.33,0,8.13,0.99,11.39,2.96c3.26,1.97,5.82,4.81,7.66,8.52l-6.77,4.72
		c-1.19-2.85-2.69-4.98-4.52-6.41c-1.82-1.42-4-2.14-6.52-2.14c-2.11,0-3.85,0.65-5.23,1.96c-1.38,1.31-2.07,2.94-2.07,4.9
		c0,1.66,0.57,3.12,1.71,4.36c1.14,1.25,3.34,2.7,6.61,4.36l1.11,0.58c6.08,3.03,9.75,5.06,10.99,6.1c2.2,1.81,3.78,3.72,4.74,5.72
		c0.96,2,1.45,4.34,1.45,7.01c0,5.85-2.04,10.61-6.12,14.29c-4.08,3.68-9.38,5.52-15.91,5.52c-4.66,0-8.77-1.02-12.35-3.07
		c-3.58-2.05-6.3-4.94-8.17-8.68L354.16,571.36z"/>
</g>
<g>
	<path d="M118.11,750.77c0.21,0.22,0.32,0.48,0.32,0.81v5.75c0,0.37-0.11,0.62-0.32,0.81l-4.5,4.44c-0.39,0.4-0.86,0.59-1.39,0.59
		H96.28v8.54c0,0.4-0.18,0.59-0.57,0.59H90.1c-0.36,0-0.54-0.18-0.54-0.59v-23.68c0-0.7,0.32-1.06,1-1.06h23.04
		c0.43,0,0.79,0.15,1.07,0.44L118.11,750.77z M109.82,751.07c-0.18-0.18-0.39-0.26-0.64-0.26H96.89c-0.39,0-0.61,0.22-0.61,0.62
		v7.99h12.18c0.36,0,0.68-0.15,0.93-0.4l2-1.98c0.21-0.22,0.32-0.48,0.32-0.81v-2.89c0-0.26-0.11-0.51-0.32-0.73L109.82,751.07z"/>
	<path d="M142.62,755.21c0.21,0.22,0.32,0.44,0.32,0.77v12.5c0,0.33-0.11,0.55-0.32,0.77l-2.68,2.71c-0.18,0.18-0.43,0.33-0.71,0.33
		h-14.65c-0.29,0-0.54-0.15-0.71-0.33l-2.68-2.71c-0.21-0.22-0.32-0.44-0.32-0.77v-12.5c0-0.33,0.11-0.55,0.32-0.77l2.68-2.71
		c0.18-0.18,0.43-0.33,0.71-0.33h14.65c0.29,0,0.54,0.15,0.71,0.33L142.62,755.21z M127.9,755.43c-0.14,0-0.32,0.11-0.43,0.26
		l-1.14,1.39c-0.18,0.18-0.21,0.4-0.21,0.62v8.8c0,0.22,0.04,0.44,0.21,0.62l1.14,1.39c0.11,0.15,0.29,0.26,0.43,0.26h8
		c0.14,0,0.32-0.11,0.43-0.26l1.14-1.39c0.18-0.18,0.21-0.4,0.21-0.62v-8.8c0-0.22-0.04-0.44-0.21-0.62l-1.14-1.39
		c-0.11-0.15-0.29-0.26-0.43-0.26H127.9z"/>
	<path d="M161.27,755.35c0,0.37-0.18,0.55-0.57,0.55h-5.18c-0.39,0-0.86,0.07-1.36,0.26l-2.11,0.66c-0.36,0.11-0.54,0.44-0.54,0.95
		v13.93c0,0.4-0.18,0.59-0.54,0.59h-4.21c-0.36,0-0.54-0.18-0.54-0.59v-16.57c0-0.55,0.25-0.92,0.75-1.06l5.72-1.69
		c0.54-0.15,1.07-0.22,1.57-0.22h6.43c0.39,0,0.57,0.18,0.57,0.59V755.35z"/>
	<path d="M185.82,778.59c0,0.4-0.18,0.59-0.57,0.59h-4.18c-0.39,0-0.57-0.18-0.57-0.59v-6.3h-13.22c-0.25,0-0.5-0.11-0.68-0.29
		l-2.71-2.75c-0.18-0.26-0.29-0.51-0.29-0.77V757c0-0.33,0.11-0.62,0.36-0.88l3.29-3.48c0.29-0.33,0.64-0.48,1.11-0.48h16.43
		c0.68,0,1.04,0.37,1.04,1.1V778.59z M171.24,755.32c-0.18,0-0.36,0.07-0.46,0.18l-1.64,1.72c-0.18,0.18-0.29,0.48-0.29,0.81v8.72
		c0,0.26,0.07,0.44,0.21,0.62l1,1.36c0.11,0.18,0.32,0.29,0.57,0.29h9.86v-13.16c0-0.37-0.18-0.55-0.54-0.55H171.24z"/>
	<path d="M211,768.26c0,0.26-0.11,0.51-0.29,0.73l-2.93,3.01c-0.18,0.18-0.43,0.29-0.71,0.29h-13.93c-0.32,0-0.57-0.11-0.75-0.29
		l-2.86-3.01c-0.18-0.26-0.29-0.48-0.29-0.73v-15.5c0-0.4,0.18-0.59,0.54-0.59h4.14c0.39,0,0.57,0.18,0.57,0.59v14.26
		c0,0.22,0.07,0.4,0.25,0.59l1.25,1.32c0.18,0.15,0.29,0.22,0.39,0.22H204c0.11,0,0.25-0.11,0.43-0.29l1.25-1.28
		c0.11-0.11,0.21-0.26,0.25-0.37v-14.44c0-0.4,0.18-0.59,0.57-0.59h3.93c0.39,0,0.57,0.18,0.57,0.59V768.26z"/>
	<path d="M235.94,762.58c0,0.7-0.36,1.06-1.04,1.06h-15.4v2.86c0,0.26,0.07,0.48,0.18,0.59l1.86,1.91c0.11,0.11,0.25,0.15,0.5,0.15
		h13.32c0.39,0,0.57,0.18,0.57,0.59v1.98c0,0.4-0.18,0.59-0.57,0.59h-16.5c-0.32,0-0.57-0.11-0.75-0.29l-3.57-3.74
		c-0.21-0.22-0.29-0.44-0.29-0.7v-11.58c0-0.29,0.11-0.55,0.32-0.77l2.61-2.64c0.25-0.26,0.54-0.4,0.82-0.4h16.9
		c0.68,0,1.04,0.37,1.04,1.06V762.58z M221.55,755.43c-0.21,0-0.39,0.07-0.54,0.22l-1.25,1.25c-0.18,0.18-0.25,0.37-0.25,0.62v3.7
		h10.97c0.39,0,0.61-0.18,0.61-0.55v-4.66c0-0.4-0.21-0.59-0.61-0.59H221.55z"/>
	<path d="M272.64,756.16c0.11,0.11,0.29,0.55,0.29,0.73v14.29c0,0.73-0.36,1.1-1.04,1.1h-16.57c-0.32,0-0.61-0.11-0.89-0.33
		l-2.86-2.71c-0.21-0.18-0.32-0.44-0.32-0.77v-6.82c0-0.73,0.32-1.1,1-1.1h15.43v-2.71c0-0.26-0.07-0.44-0.25-0.62l-1.64-1.72
		c-0.11-0.11-0.25-0.18-0.5-0.18h-13.5c-0.36,0-0.54-0.18-0.54-0.59v-1.98c0-0.4,0.18-0.59,0.54-0.59h16.54
		c0.29,0,0.54,0.11,0.75,0.33L272.64,756.16z M256.7,762.87c-0.39,0-0.61,0.22-0.61,0.62v3.37c0,0.29,0.11,0.55,0.29,0.73l1.25,1.14
		c0.18,0.18,0.39,0.29,0.64,0.29h8.82c0.39,0,0.57-0.22,0.57-0.62v-5.53H256.7z"/>
	<path d="M309.33,754.4c0,0.4-0.18,0.59-0.57,0.59h-14.15c-0.25,0-0.43,0.07-0.61,0.26l-0.96,1.06c-0.14,0.15-0.21,0.33-0.21,0.51
		v1.72c0,0.33,0.07,0.55,0.25,0.73l0.71,0.88c0.21,0.22,0.43,0.33,0.68,0.33h11.57c0.54,0,0.96,0.18,1.29,0.51l1.93,2.02
		c0.25,0.26,0.36,0.59,0.36,1.06v4.47c0,0.26-0.11,0.48-0.32,0.7l-2.64,2.64c-0.25,0.26-0.61,0.4-1,0.4h-17.43
		c-0.36,0-0.54-0.18-0.54-0.59v-1.65c0-0.4,0.18-0.59,0.54-0.59h14.36c0.29,0,0.54-0.11,0.71-0.29l1.14-1.1
		c0.11-0.11,0.18-0.26,0.18-0.37v-2.13c0-0.18-0.07-0.33-0.18-0.44l-1.22-1.1c-0.11-0.11-0.29-0.18-0.5-0.18h-11.61
		c-0.29,0-0.54-0.11-0.75-0.33l-2.11-2.16c-0.21-0.22-0.32-0.51-0.32-0.84v-4.62c0-0.29,0.11-0.55,0.29-0.73l2.54-2.71
		c0.18-0.18,0.43-0.29,0.72-0.29h17.29c0.39,0,0.57,0.18,0.57,0.59V754.4z"/>
	<path d="M334.59,768.26c0,0.26-0.11,0.51-0.29,0.73l-2.93,3.01c-0.18,0.18-0.43,0.29-0.71,0.29h-13.93c-0.32,0-0.57-0.11-0.75-0.29
		l-2.86-3.01c-0.18-0.26-0.29-0.48-0.29-0.73v-15.5c0-0.4,0.18-0.59,0.54-0.59h4.14c0.39,0,0.57,0.18,0.57,0.59v14.26
		c0,0.22,0.07,0.4,0.25,0.59l1.25,1.32c0.18,0.15,0.29,0.22,0.39,0.22h7.61c0.11,0,0.25-0.11,0.43-0.29l1.25-1.28
		c0.11-0.11,0.21-0.26,0.25-0.37v-14.44c0-0.4,0.18-0.59,0.57-0.59h3.93c0.39,0,0.57,0.18,0.57,0.59V768.26z"/>
	<path d="M371.28,749.75c0.11,0.84,0.14,1.54,0.14,2.38v19.57c0,0.4-0.18,0.59-0.54,0.59h-16.65c-0.32,0-0.57-0.11-0.75-0.29
		l-3.54-3.7c-0.21-0.22-0.32-0.48-0.32-0.73v-11.58c0-0.29,0.11-0.55,0.32-0.77l2.68-2.71c0.25-0.22,0.46-0.33,0.68-0.33h12.82v-6.3
		c0-0.4,0.18-0.59,0.54-0.59h3.57c0.36,0,0.54,0.15,0.57,0.48L371.28,749.75z M356.56,755.43c-0.11,0-0.25,0.07-0.36,0.18
		l-1.36,1.39c-0.11,0.11-0.18,0.29-0.18,0.48v9.16c0,0.18,0.07,0.37,0.18,0.48l1.75,1.83c0.11,0.11,0.29,0.18,0.46,0.18h9.07v-13.71
		H356.56z"/>
	<path d="M396.47,762.58c0,0.7-0.36,1.06-1.04,1.06h-15.4v2.86c0,0.26,0.07,0.48,0.18,0.59l1.86,1.91c0.11,0.11,0.25,0.15,0.5,0.15
		h13.32c0.39,0,0.57,0.18,0.57,0.59v1.98c0,0.4-0.18,0.59-0.57,0.59h-16.5c-0.32,0-0.57-0.11-0.75-0.29l-3.57-3.74
		c-0.21-0.22-0.29-0.44-0.29-0.7v-11.58c0-0.29,0.11-0.55,0.32-0.77l2.61-2.64c0.25-0.26,0.54-0.4,0.82-0.4h16.9
		c0.68,0,1.04,0.37,1.04,1.06V762.58z M382.07,755.43c-0.21,0-0.39,0.07-0.54,0.22l-1.25,1.25c-0.18,0.18-0.25,0.37-0.25,0.62v3.7
		H391c0.39,0,0.61-0.18,0.61-0.55v-4.66c0-0.4-0.21-0.59-0.61-0.59H382.07z"/>
	<path d="M421.91,767.45c0,0.33-0.11,0.59-0.32,0.84l-3.5,3.63c-0.18,0.18-0.54,0.37-0.79,0.37h-13.72c-0.32,0-0.57-0.11-0.75-0.33
		l-2.39-2.71c-0.25-0.26-0.36-0.59-0.36-0.99v-16.13c0-0.84,0.04-1.54,0.14-2.38l0.46-4c0.04-0.33,0.21-0.48,0.57-0.48h3.57
		c0.36,0,0.54,0.18,0.54,0.59v6.3h15.5c0.68,0,1.04,0.37,1.04,1.06V767.45z M405.37,755.43v10.92c0,0.26,0.07,0.48,0.21,0.66
		l1.11,1.61c0.21,0.33,0.5,0.51,0.86,0.51h6.82c0.32,0,0.54-0.11,0.68-0.37l1.5-2.27c0.18-0.29,0.29-0.59,0.29-0.88v-9.64
		c0-0.37-0.14-0.55-0.43-0.55H405.37z"/>
	<path d="M430.73,749.6c0,0.37-0.18,0.55-0.57,0.55h-4.11c-0.36,0-0.54-0.18-0.54-0.55v-3.74c0-0.37,0.18-0.59,0.54-0.59h4.11
		c0.39,0,0.57,0.22,0.57,0.59V749.6z M430.73,771.7c0,0.4-0.18,0.59-0.57,0.59h-4.11c-0.36,0-0.54-0.18-0.54-0.59v-18.95
		c0-0.37,0.18-0.59,0.54-0.59h4.11c0.39,0,0.57,0.22,0.57,0.59V771.7z"/>
	<path d="M455.85,749.75c0.11,0.84,0.14,1.54,0.14,2.38v19.57c0,0.4-0.18,0.59-0.54,0.59h-16.65c-0.32,0-0.57-0.11-0.75-0.29
		l-3.54-3.7c-0.21-0.22-0.32-0.48-0.32-0.73v-11.58c0-0.29,0.11-0.55,0.32-0.77l2.68-2.71c0.25-0.22,0.46-0.33,0.68-0.33h12.82v-6.3
		c0-0.4,0.18-0.59,0.54-0.59h3.57c0.36,0,0.54,0.15,0.57,0.48L455.85,749.75z M441.13,755.43c-0.11,0-0.25,0.07-0.36,0.18
		l-1.36,1.39c-0.11,0.11-0.18,0.29-0.18,0.48v9.16c0,0.18,0.07,0.37,0.18,0.48l1.75,1.83c0.11,0.11,0.29,0.18,0.46,0.18h9.07v-13.71
		H441.13z"/>
	<path d="M481.11,755.21c0.21,0.22,0.32,0.44,0.32,0.77v12.5c0,0.33-0.11,0.55-0.32,0.77l-2.68,2.71c-0.18,0.18-0.43,0.33-0.71,0.33
		h-14.65c-0.29,0-0.54-0.15-0.71-0.33l-2.68-2.71c-0.21-0.22-0.32-0.44-0.32-0.77v-12.5c0-0.33,0.11-0.55,0.32-0.77l2.68-2.71
		c0.18-0.18,0.43-0.33,0.71-0.33h14.65c0.29,0,0.54,0.15,0.71,0.33L481.11,755.21z M466.39,755.43c-0.14,0-0.32,0.11-0.43,0.26
		l-1.14,1.39c-0.18,0.18-0.21,0.4-0.21,0.62v8.8c0,0.22,0.04,0.44,0.21,0.62l1.14,1.39c0.11,0.15,0.29,0.26,0.43,0.26h8
		c0.14,0,0.32-0.11,0.43-0.26l1.14-1.39c0.18-0.18,0.21-0.4,0.21-0.62v-8.8c0-0.22-0.04-0.44-0.21-0.62l-1.14-1.39
		c-0.11-0.15-0.29-0.26-0.43-0.26H466.39z"/>
	<path d="M503.15,752.17h4.43c0.36,0,0.54,0.18,0.54,0.59v1.39c0,0.33-0.18,0.51-0.5,0.55l-4.47,0.29v16.71
		c0,0.4-0.18,0.59-0.57,0.59h-4.11c-0.39,0-0.57-0.18-0.57-0.59v-16.71l-2.25-0.29c-0.32-0.04-0.5-0.22-0.5-0.55v-1.39
		c0-0.4,0.18-0.59,0.57-0.59h2.36l0.71-6.3c0.04-0.4,0.29-0.59,0.71-0.59h3.07c0.39,0,0.57,0.18,0.57,0.59V752.17z"/>
	<path d="M516.02,749.6c0,0.37-0.18,0.55-0.57,0.55h-4.11c-0.36,0-0.54-0.18-0.54-0.55v-3.74c0-0.37,0.18-0.59,0.54-0.59h4.11
		c0.39,0,0.57,0.22,0.57,0.59V749.6z M516.02,771.7c0,0.4-0.18,0.59-0.57,0.59h-4.11c-0.36,0-0.54-0.18-0.54-0.59v-18.95
		c0-0.37,0.18-0.59,0.54-0.59h4.11c0.39,0,0.57,0.22,0.57,0.59V771.7z"/>
	<path d="M541.17,762.58c0,0.7-0.36,1.06-1.04,1.06h-15.4v2.86c0,0.26,0.07,0.48,0.18,0.59l1.86,1.91c0.11,0.11,0.25,0.15,0.5,0.15
		h13.32c0.39,0,0.57,0.18,0.57,0.59v1.98c0,0.4-0.18,0.59-0.57,0.59h-16.5c-0.32,0-0.57-0.11-0.75-0.29l-3.57-3.74
		c-0.21-0.22-0.29-0.44-0.29-0.7v-11.58c0-0.29,0.11-0.55,0.32-0.77l2.61-2.64c0.25-0.26,0.54-0.4,0.82-0.4h16.9
		c0.68,0,1.04,0.37,1.04,1.06V762.58z M526.77,755.43c-0.21,0-0.39,0.07-0.54,0.22l-1.25,1.25c-0.18,0.18-0.25,0.37-0.25,0.62v3.7
		h10.97c0.39,0,0.61-0.18,0.61-0.55v-4.66c0-0.4-0.21-0.59-0.61-0.59H526.77z"/>
	<path d="M578.89,755.21c0.21,0.26,0.32,0.51,0.32,0.77v15.72c0,0.4-0.18,0.59-0.57,0.59h-4.11c-0.39,0-0.57-0.18-0.57-0.59v-14.22
		c0-0.18-0.07-0.37-0.18-0.48l-1.36-1.39c-0.11-0.11-0.29-0.18-0.46-0.18h-3.11c-0.21,0-0.43,0.04-0.68,0.11l-4,1.03v15.14
		c0,0.4-0.18,0.59-0.57,0.59h-3.72c-0.39,0-0.57-0.18-0.57-0.59v-14.59c0-0.18-0.07-0.37-0.18-0.48l-0.96-1.03
		c-0.11-0.11-0.25-0.18-0.43-0.18h-3.47c-0.25,0-0.54,0.04-0.82,0.11l-3.04,0.77c-0.25,0.07-0.36,0.26-0.36,0.51v14.88
		c0,0.4-0.18,0.59-0.54,0.59h-4.21c-0.36,0-0.54-0.18-0.54-0.59v-16.57c0-0.55,0.25-0.92,0.75-1.06l5.93-1.76
		c0.39-0.11,0.75-0.15,1.14-0.15h7.82c0.29,0,0.54,0.11,0.71,0.33l1.46,1.47l5.89-1.69c0.32-0.07,0.61-0.11,0.89-0.11h6.11
		c0.25,0,0.5,0.11,0.71,0.33L578.89,755.21z"/>
	<path d="M603.8,756.16c0.21,0.18,0.32,0.44,0.32,0.73v11.55c0,0.29-0.11,0.55-0.32,0.77l-2.68,2.79c-0.18,0.18-0.43,0.29-0.71,0.29
		h-13.18v6.3c0,0.4-0.18,0.59-0.54,0.59h-4.21c-0.36,0-0.54-0.18-0.54-0.59v-23.53c0-0.55,0.25-0.92,0.75-1.06l5.57-1.61
		c0.46-0.15,1-0.22,1.64-0.22h9.57c0.29,0,0.54,0.11,0.75,0.33L603.8,756.16z M597.01,755.61c-0.18-0.18-0.39-0.29-0.61-0.29h-5.07
		c-0.36,0-0.71,0.04-1.07,0.15l-2.5,0.66c-0.36,0.11-0.54,0.37-0.54,0.77v12.13h9.4c0.39,0,0.68-0.11,0.89-0.33l1.11-1.17
		c0.18-0.18,0.25-0.4,0.25-0.7v-8.76c0-0.37-0.11-0.66-0.29-0.84L597.01,755.61z"/>
	<path d="M628.91,755.21c0.21,0.22,0.32,0.44,0.32,0.77v12.5c0,0.33-0.11,0.55-0.32,0.77l-2.68,2.71c-0.18,0.18-0.43,0.33-0.71,0.33
		h-14.65c-0.29,0-0.54-0.15-0.71-0.33l-2.68-2.71c-0.21-0.22-0.32-0.44-0.32-0.77v-12.5c0-0.33,0.11-0.55,0.32-0.77l2.68-2.71
		c0.18-0.18,0.43-0.33,0.71-0.33h14.65c0.29,0,0.54,0.15,0.71,0.33L628.91,755.21z M614.2,755.43c-0.14,0-0.32,0.11-0.43,0.26
		l-1.14,1.39c-0.18,0.18-0.21,0.4-0.21,0.62v8.8c0,0.22,0.04,0.44,0.21,0.62l1.14,1.39c0.11,0.15,0.29,0.26,0.43,0.26h8
		c0.14,0,0.32-0.11,0.43-0.26l1.14-1.39c0.18-0.18,0.21-0.4,0.21-0.62v-8.8c0-0.22-0.04-0.44-0.21-0.62l-1.14-1.39
		c-0.11-0.15-0.29-0.26-0.43-0.26H614.2z"/>
</g>
<g>
	<path d="M114.54,790.72c0,0.37-0.18,0.55-0.57,0.55h-15.4c-0.21,0-0.39,0.07-0.54,0.22l-1.75,1.72c-0.11,0.11-0.18,0.29-0.18,0.51
		v12.13c0,0.22,0.04,0.44,0.18,0.55l2.36,2.27c0.18,0.15,0.36,0.22,0.61,0.22h14.72c0.39,0,0.57,0.18,0.57,0.59v2.68
		c0,0.4-0.18,0.59-0.57,0.59H95.32c-0.36,0-0.68-0.15-0.93-0.4l-4.75-4.58c-0.21-0.22-0.32-0.48-0.32-0.81v-14.92
		c0-0.33,0.11-0.59,0.32-0.81l3.47-3.41c0.25-0.26,0.57-0.4,0.93-0.4h19.93c0.39,0,0.57,0.18,0.57,0.59V790.72z"/>
	<path d="M139.51,808.72c0,0.26-0.11,0.51-0.29,0.73l-2.93,3.01c-0.18,0.18-0.43,0.29-0.71,0.29h-13.93c-0.32,0-0.57-0.11-0.75-0.29
		l-2.86-3.01c-0.18-0.26-0.29-0.48-0.29-0.73v-15.5c0-0.4,0.18-0.59,0.54-0.59h4.14c0.39,0,0.57,0.18,0.57,0.59v14.26
		c0,0.22,0.07,0.4,0.25,0.59l1.25,1.32c0.18,0.15,0.29,0.22,0.39,0.22h7.61c0.11,0,0.25-0.11,0.43-0.29l1.25-1.28
		c0.11-0.11,0.21-0.26,0.25-0.37v-14.44c0-0.4,0.18-0.59,0.57-0.59h3.93c0.39,0,0.57,0.18,0.57,0.59V808.72z"/>
	<path d="M164.31,796.62c0.11,0.11,0.29,0.55,0.29,0.73v14.29c0,0.73-0.36,1.1-1.04,1.1h-16.57c-0.32,0-0.61-0.11-0.89-0.33
		l-2.86-2.71c-0.21-0.18-0.32-0.44-0.32-0.77v-6.82c0-0.73,0.32-1.1,1-1.1h15.43v-2.71c0-0.26-0.07-0.44-0.25-0.62l-1.64-1.72
		c-0.11-0.11-0.25-0.18-0.5-0.18h-13.5c-0.36,0-0.54-0.18-0.54-0.59v-1.98c0-0.4,0.18-0.59,0.54-0.59h16.54
		c0.29,0,0.54,0.11,0.75,0.33L164.31,796.62z M148.38,803.33c-0.39,0-0.61,0.22-0.61,0.62v3.37c0,0.29,0.11,0.55,0.29,0.73
		l1.25,1.14c0.18,0.18,0.39,0.29,0.64,0.29h8.82c0.39,0,0.57-0.22,0.57-0.62v-5.53H148.38z"/>
	<path d="M189.96,795.67c0.21,0.22,0.32,0.51,0.32,0.84v15.65c0,0.4-0.18,0.59-0.57,0.59h-4.11c-0.39,0-0.57-0.18-0.57-0.59v-14.26
		c0-0.18-0.07-0.33-0.18-0.44l-1.32-1.39c-0.11-0.11-0.29-0.18-0.46-0.18h-5.29c-0.32,0-0.61,0.04-0.93,0.11l-2.97,0.77
		c-0.32,0.07-0.5,0.29-0.5,0.66v14.73c0,0.4-0.18,0.59-0.54,0.59h-4.21c-0.36,0-0.54-0.18-0.54-0.59v-16.49
		c0-0.62,0.25-0.99,0.75-1.14l5.64-1.69c0.46-0.15,0.89-0.22,1.32-0.22h10.72c0.32,0,0.57,0.11,0.75,0.33L189.96,795.67z"/>
	<path d="M215.11,790.21c0.11,0.84,0.14,1.54,0.14,2.38v19.57c0,0.4-0.18,0.59-0.54,0.59h-16.65c-0.32,0-0.57-0.11-0.75-0.29
		l-3.54-3.7c-0.21-0.22-0.32-0.48-0.32-0.73v-11.58c0-0.29,0.11-0.55,0.32-0.77l2.68-2.71c0.25-0.22,0.46-0.33,0.68-0.33h12.82v-6.3
		c0-0.4,0.18-0.59,0.54-0.59h3.57c0.36,0,0.54,0.15,0.57,0.48L215.11,790.21z M200.4,795.89c-0.11,0-0.25,0.07-0.36,0.18l-1.36,1.39
		c-0.11,0.11-0.18,0.29-0.18,0.48v9.16c0,0.18,0.07,0.37,0.18,0.48l1.75,1.83c0.11,0.11,0.29,0.18,0.46,0.18h9.07v-13.71H200.4z"/>
	<path d="M240.37,795.67c0.21,0.22,0.32,0.44,0.32,0.77v12.5c0,0.33-0.11,0.55-0.32,0.77l-2.68,2.71c-0.18,0.18-0.43,0.33-0.71,0.33
		h-14.65c-0.29,0-0.54-0.15-0.71-0.33l-2.68-2.71c-0.21-0.22-0.32-0.44-0.32-0.77v-12.5c0-0.33,0.11-0.55,0.32-0.77l2.68-2.71
		c0.18-0.18,0.43-0.33,0.71-0.33h14.65c0.29,0,0.54,0.15,0.71,0.33L240.37,795.67z M225.66,795.89c-0.14,0-0.32,0.11-0.43,0.26
		l-1.14,1.39c-0.18,0.18-0.21,0.4-0.21,0.62v8.8c0,0.22,0.04,0.44,0.21,0.62l1.14,1.39c0.11,0.15,0.29,0.26,0.43,0.26h8
		c0.14,0,0.32-0.11,0.43-0.26l1.14-1.39c0.18-0.18,0.21-0.4,0.21-0.62v-8.8c0-0.22-0.04-0.44-0.21-0.62l-1.14-1.39
		c-0.11-0.15-0.29-0.26-0.43-0.26H225.66z"/>
	<path d="M277.07,796.62c0.11,0.11,0.29,0.55,0.29,0.73v14.29c0,0.73-0.36,1.1-1.04,1.1h-16.57c-0.32,0-0.61-0.11-0.89-0.33
		l-2.86-2.71c-0.21-0.18-0.32-0.44-0.32-0.77v-6.82c0-0.73,0.32-1.1,1-1.1h15.43v-2.71c0-0.26-0.07-0.44-0.25-0.62l-1.64-1.72
		c-0.11-0.11-0.25-0.18-0.5-0.18h-13.5c-0.36,0-0.54-0.18-0.54-0.59v-1.98c0-0.4,0.18-0.59,0.54-0.59h16.54
		c0.29,0,0.54,0.11,0.75,0.33L277.07,796.62z M261.13,803.33c-0.39,0-0.61,0.22-0.61,0.62v3.37c0,0.29,0.11,0.55,0.29,0.73
		l1.25,1.14c0.18,0.18,0.39,0.29,0.64,0.29h8.82c0.39,0,0.57-0.22,0.57-0.62v-5.53H261.13z"/>
	<path d="M302.5,808.72c0,0.26-0.11,0.51-0.29,0.73l-2.93,3.01c-0.18,0.18-0.43,0.29-0.71,0.29h-13.93c-0.32,0-0.57-0.11-0.75-0.29
		l-2.86-3.01c-0.18-0.26-0.29-0.48-0.29-0.73v-15.5c0-0.4,0.18-0.59,0.54-0.59h4.14c0.39,0,0.57,0.18,0.57,0.59v14.26
		c0,0.22,0.07,0.4,0.25,0.59l1.25,1.32c0.18,0.15,0.29,0.22,0.39,0.22h7.61c0.11,0,0.25-0.11,0.43-0.29l1.25-1.28
		c0.11-0.11,0.21-0.26,0.25-0.37v-14.44c0-0.4,0.18-0.59,0.57-0.59h3.93c0.39,0,0.57,0.18,0.57,0.59V808.72z M299.47,786.58
		c0,0.29-0.14,0.48-0.43,0.55l-12.4,3.45c-0.07,0.04-0.25,0.07-0.36,0.07c-0.32,0-0.46-0.18-0.46-0.59v-1.28
		c0-0.29,0.18-0.51,0.5-0.62l12.07-3.55c0.25-0.07,0.46-0.11,0.61-0.11c0.32,0,0.46,0.18,0.46,0.59V786.58z"/>
	<path d="M327.87,795.67c0.21,0.22,0.32,0.51,0.32,0.84v15.65c0,0.4-0.18,0.59-0.57,0.59h-4.11c-0.39,0-0.57-0.18-0.57-0.59v-14.26
		c0-0.18-0.07-0.33-0.18-0.44l-1.32-1.39c-0.11-0.11-0.29-0.18-0.46-0.18h-5.29c-0.32,0-0.61,0.04-0.93,0.11l-2.97,0.77
		c-0.32,0.07-0.5,0.29-0.5,0.66v14.73c0,0.4-0.18,0.59-0.54,0.59h-4.21c-0.36,0-0.54-0.18-0.54-0.59v-16.49
		c0-0.62,0.25-0.99,0.75-1.14l5.64-1.69c0.46-0.15,0.89-0.22,1.32-0.22h10.72c0.32,0,0.57,0.11,0.75,0.33L327.87,795.67z"/>
	<path d="M364.85,803.04c0,0.7-0.36,1.06-1.04,1.06h-15.4v2.86c0,0.26,0.07,0.48,0.18,0.59l1.86,1.91c0.11,0.11,0.25,0.15,0.5,0.15
		h13.32c0.39,0,0.57,0.18,0.57,0.59v1.98c0,0.4-0.18,0.59-0.57,0.59h-16.5c-0.32,0-0.57-0.11-0.75-0.29l-3.57-3.74
		c-0.21-0.22-0.29-0.44-0.29-0.7v-11.58c0-0.29,0.11-0.55,0.32-0.77l2.61-2.64c0.25-0.26,0.54-0.4,0.82-0.4h16.9
		c0.68,0,1.04,0.37,1.04,1.06V803.04z M350.45,795.89c-0.21,0-0.39,0.07-0.54,0.22l-1.25,1.25c-0.18,0.18-0.25,0.37-0.25,0.62v3.7
		h10.97c0.39,0,0.61-0.18,0.61-0.55v-4.65c0-0.4-0.21-0.59-0.61-0.59H350.45z M362.31,786.58c0,0.29-0.14,0.48-0.43,0.55l-12.4,3.45
		c-0.07,0.04-0.25,0.07-0.36,0.07c-0.32,0-0.46-0.18-0.46-0.59v-1.28c0-0.29,0.18-0.51,0.5-0.62l12.07-3.55
		c0.25-0.07,0.46-0.11,0.61-0.11c0.32,0,0.46,0.18,0.46,0.59V786.58z"/>
	<path d="M383.5,795.82c0,0.37-0.18,0.55-0.57,0.55h-5.18c-0.39,0-0.86,0.07-1.36,0.26l-2.11,0.66c-0.36,0.11-0.54,0.44-0.54,0.95
		v13.93c0,0.4-0.18,0.59-0.54,0.59H369c-0.36,0-0.54-0.18-0.54-0.59V795.6c0-0.55,0.25-0.92,0.75-1.06l5.72-1.69
		c0.54-0.15,1.07-0.22,1.57-0.22h6.43c0.39,0,0.57,0.18,0.57,0.59V795.82z"/>
	<path d="M407.12,796.62c0.11,0.11,0.29,0.55,0.29,0.73v14.29c0,0.73-0.36,1.1-1.04,1.1h-16.57c-0.32,0-0.61-0.11-0.89-0.33
		l-2.86-2.71c-0.21-0.18-0.32-0.44-0.32-0.77v-6.82c0-0.73,0.32-1.1,1-1.1h15.43v-2.71c0-0.26-0.07-0.44-0.25-0.62l-1.64-1.72
		c-0.11-0.11-0.25-0.18-0.5-0.18h-13.5c-0.36,0-0.54-0.18-0.54-0.59v-1.98c0-0.4,0.18-0.59,0.54-0.59h16.54
		c0.29,0,0.54,0.11,0.75,0.33L407.12,796.62z M391.18,803.33c-0.39,0-0.61,0.22-0.61,0.62v3.37c0,0.29,0.11,0.55,0.29,0.73
		l1.25,1.14c0.18,0.18,0.39,0.29,0.64,0.29h8.82c0.39,0,0.57-0.22,0.57-0.62v-5.53H391.18z"/>
	<path d="M445.02,795.67c0.21,0.26,0.32,0.51,0.32,0.77v15.72c0,0.4-0.18,0.59-0.57,0.59h-4.11c-0.39,0-0.57-0.18-0.57-0.59v-14.22
		c0-0.18-0.07-0.37-0.18-0.48l-1.36-1.39c-0.11-0.11-0.29-0.18-0.46-0.18h-3.11c-0.21,0-0.43,0.04-0.68,0.11l-4,1.03v15.14
		c0,0.4-0.18,0.59-0.57,0.59h-3.72c-0.39,0-0.57-0.18-0.57-0.59v-14.59c0-0.18-0.07-0.37-0.18-0.48l-0.96-1.03
		c-0.11-0.11-0.25-0.18-0.43-0.18h-3.47c-0.25,0-0.54,0.04-0.82,0.11l-3.04,0.77c-0.25,0.07-0.36,0.26-0.36,0.51v14.88
		c0,0.4-0.18,0.59-0.54,0.59h-4.21c-0.36,0-0.54-0.18-0.54-0.59V795.6c0-0.55,0.25-0.92,0.75-1.06l5.93-1.76
		c0.39-0.11,0.75-0.15,1.14-0.15h7.82c0.29,0,0.54,0.11,0.71,0.33l1.46,1.47l5.89-1.69c0.32-0.07,0.61-0.11,0.89-0.11h6.11
		c0.25,0,0.5,0.11,0.71,0.33L445.02,795.67z"/>
	<path d="M469.57,795.67c0.21,0.22,0.32,0.44,0.32,0.77v12.5c0,0.33-0.11,0.55-0.32,0.77l-2.68,2.71c-0.18,0.18-0.43,0.33-0.71,0.33
		h-14.65c-0.29,0-0.54-0.15-0.71-0.33l-2.68-2.71c-0.21-0.22-0.32-0.44-0.32-0.77v-12.5c0-0.33,0.11-0.55,0.32-0.77l2.68-2.71
		c0.18-0.18,0.43-0.33,0.71-0.33h14.65c0.29,0,0.54,0.15,0.71,0.33L469.57,795.67z M454.85,795.89c-0.14,0-0.32,0.11-0.43,0.26
		l-1.14,1.39c-0.18,0.18-0.21,0.4-0.21,0.62v8.8c0,0.22,0.04,0.44,0.21,0.62l1.14,1.39c0.11,0.15,0.29,0.26,0.43,0.26h8
		c0.14,0,0.32-0.11,0.43-0.26l1.14-1.39c0.18-0.18,0.21-0.4,0.21-0.62v-8.8c0-0.22-0.04-0.44-0.21-0.62l-1.14-1.39
		c-0.11-0.15-0.29-0.26-0.43-0.26H454.85z"/>
	<path d="M494.29,794.86c0,0.4-0.18,0.59-0.57,0.59h-14.15c-0.25,0-0.43,0.07-0.61,0.26l-0.96,1.06c-0.14,0.15-0.21,0.33-0.21,0.51
		v1.72c0,0.33,0.07,0.55,0.25,0.73l0.71,0.88c0.21,0.22,0.43,0.33,0.68,0.33h11.57c0.54,0,0.96,0.18,1.29,0.51l1.93,2.02
		c0.25,0.26,0.36,0.59,0.36,1.06v4.47c0,0.26-0.11,0.48-0.32,0.7l-2.64,2.64c-0.25,0.26-0.61,0.4-1,0.4h-17.43
		c-0.36,0-0.54-0.18-0.54-0.59v-1.65c0-0.4,0.18-0.59,0.54-0.59h14.36c0.29,0,0.54-0.11,0.71-0.29l1.14-1.1
		c0.11-0.11,0.18-0.26,0.18-0.37v-2.13c0-0.18-0.07-0.33-0.18-0.44l-1.22-1.1c-0.11-0.11-0.29-0.18-0.5-0.18h-11.61
		c-0.29,0-0.54-0.11-0.75-0.33l-2.11-2.16c-0.21-0.22-0.32-0.51-0.32-0.84v-4.62c0-0.29,0.11-0.55,0.29-0.73l2.54-2.71
		c0.18-0.18,0.43-0.29,0.72-0.29h17.29c0.39,0,0.57,0.18,0.57,0.59V794.86z"/>
	<path d="M531.09,790.21c0.11,0.84,0.14,1.54,0.14,2.38v19.57c0,0.4-0.18,0.59-0.54,0.59h-16.65c-0.32,0-0.57-0.11-0.75-0.29
		l-3.54-3.7c-0.21-0.22-0.32-0.48-0.32-0.73v-11.58c0-0.29,0.11-0.55,0.32-0.77l2.68-2.71c0.25-0.22,0.46-0.33,0.68-0.33h12.82v-6.3
		c0-0.4,0.18-0.59,0.54-0.59h3.57c0.36,0,0.54,0.15,0.57,0.48L531.09,790.21z M516.38,795.89c-0.11,0-0.25,0.07-0.36,0.18
		l-1.36,1.39c-0.11,0.11-0.18,0.29-0.18,0.48v9.16c0,0.18,0.07,0.37,0.18,0.48l1.75,1.83c0.11,0.11,0.29,0.18,0.46,0.18h9.07v-13.71
		H516.38z"/>
	<path d="M556.28,803.04c0,0.7-0.36,1.06-1.04,1.06h-15.4v2.86c0,0.26,0.07,0.48,0.18,0.59l1.86,1.91c0.11,0.11,0.25,0.15,0.5,0.15
		h13.32c0.39,0,0.57,0.18,0.57,0.59v1.98c0,0.4-0.18,0.59-0.57,0.59h-16.5c-0.32,0-0.57-0.11-0.75-0.29l-3.57-3.74
		c-0.21-0.22-0.29-0.44-0.29-0.7v-11.58c0-0.29,0.11-0.55,0.32-0.77l2.61-2.64c0.25-0.26,0.54-0.4,0.82-0.4h16.9
		c0.68,0,1.04,0.37,1.04,1.06V803.04z M541.89,795.89c-0.21,0-0.39,0.07-0.54,0.22l-1.25,1.25c-0.18,0.18-0.25,0.37-0.25,0.62v3.7
		h10.97c0.39,0,0.61-0.18,0.61-0.55v-4.65c0-0.4-0.21-0.59-0.61-0.59H541.89z M553.74,786.58c0,0.29-0.14,0.48-0.43,0.55l-12.4,3.45
		c-0.07,0.04-0.25,0.07-0.36,0.07c-0.32,0-0.46-0.18-0.46-0.59v-1.28c0-0.29,0.18-0.51,0.5-0.62l12.07-3.55
		c0.25-0.07,0.46-0.11,0.61-0.11c0.32,0,0.46,0.18,0.46,0.59V786.58z"/>
	<path d="M581.72,807.91c0,0.33-0.11,0.59-0.32,0.84l-3.5,3.63c-0.18,0.18-0.54,0.37-0.79,0.37h-13.72c-0.32,0-0.57-0.11-0.75-0.33
		l-2.39-2.71c-0.25-0.26-0.36-0.59-0.36-0.99v-16.13c0-0.84,0.04-1.54,0.14-2.38l0.46-3.99c0.04-0.33,0.21-0.48,0.57-0.48h3.57
		c0.36,0,0.54,0.18,0.54,0.59v6.3h15.5c0.68,0,1.04,0.37,1.04,1.06V807.91z M565.18,795.89v10.92c0,0.26,0.07,0.48,0.21,0.66
		l1.11,1.61c0.21,0.33,0.5,0.51,0.86,0.51h6.82c0.32,0,0.54-0.11,0.68-0.37l1.5-2.27c0.18-0.29,0.29-0.59,0.29-0.88v-9.64
		c0-0.37-0.14-0.55-0.43-0.55H565.18z"/>
	<path d="M590.55,790.06c0,0.37-0.18,0.55-0.57,0.55h-4.11c-0.36,0-0.54-0.18-0.54-0.55v-3.74c0-0.37,0.18-0.59,0.54-0.59h4.11
		c0.39,0,0.57,0.22,0.57,0.59V790.06z M590.55,812.16c0,0.4-0.18,0.59-0.57,0.59h-4.11c-0.36,0-0.54-0.18-0.54-0.59v-18.95
		c0-0.37,0.18-0.59,0.54-0.59h4.11c0.39,0,0.57,0.22,0.57,0.59V812.16z"/>
	<path d="M599.55,812.16c0,0.4-0.18,0.59-0.54,0.59h-4.21c-0.36,0-0.54-0.18-0.54-0.59v-19.57c0-0.84,0.04-1.54,0.14-2.38l0.46-3.99
		c0.04-0.33,0.25-0.48,0.57-0.48h3.57c0.36,0,0.54,0.18,0.54,0.59V812.16z"/>
	<path d="M624.56,803.04c0,0.7-0.36,1.06-1.04,1.06h-15.4v2.86c0,0.26,0.07,0.48,0.18,0.59l1.86,1.91c0.11,0.11,0.25,0.15,0.5,0.15
		h13.32c0.39,0,0.57,0.18,0.57,0.59v1.98c0,0.4-0.18,0.59-0.57,0.59h-16.5c-0.32,0-0.57-0.11-0.75-0.29l-3.57-3.74
		c-0.21-0.22-0.29-0.44-0.29-0.7v-11.58c0-0.29,0.11-0.55,0.32-0.77l2.61-2.64c0.25-0.26,0.54-0.4,0.82-0.4h16.9
		c0.68,0,1.04,0.37,1.04,1.06V803.04z M610.16,795.89c-0.21,0-0.39,0.07-0.54,0.22l-1.25,1.25c-0.18,0.18-0.25,0.37-0.25,0.62v3.7
		h10.97c0.39,0,0.61-0.18,0.61-0.55v-4.65c0-0.4-0.21-0.59-0.61-0.59H610.16z"/>
	<path d="M649.28,794.86c0,0.4-0.18,0.59-0.57,0.59h-14.15c-0.25,0-0.43,0.07-0.61,0.26l-0.96,1.06c-0.14,0.15-0.21,0.33-0.21,0.51
		v1.72c0,0.33,0.07,0.55,0.25,0.73l0.71,0.88c0.21,0.22,0.43,0.33,0.68,0.33h11.57c0.54,0,0.96,0.18,1.29,0.51l1.93,2.02
		c0.25,0.26,0.36,0.59,0.36,1.06v4.47c0,0.26-0.11,0.48-0.32,0.7l-2.64,2.64c-0.25,0.26-0.61,0.4-1,0.4h-17.43
		c-0.36,0-0.54-0.18-0.54-0.59v-1.65c0-0.4,0.18-0.59,0.54-0.59h14.36c0.29,0,0.54-0.11,0.71-0.29l1.14-1.1
		c0.11-0.11,0.18-0.26,0.18-0.37v-2.13c0-0.18-0.07-0.33-0.18-0.44l-1.22-1.1c-0.11-0.11-0.29-0.18-0.5-0.18h-11.61
		c-0.29,0-0.54-0.11-0.75-0.33l-2.11-2.16c-0.21-0.22-0.32-0.51-0.32-0.84v-4.62c0-0.29,0.11-0.55,0.29-0.73l2.54-2.71
		c0.18-0.18,0.43-0.29,0.72-0.29h17.29c0.39,0,0.57,0.18,0.57,0.59V794.86z"/>
</g>
<g>
	<path d="M306.32,836.94c0.22,0.26,0.33,0.51,0.33,0.77v15.72c0,0.4-0.18,0.59-0.59,0.59h-4.21c-0.4,0-0.59-0.18-0.59-0.59v-14.22
		c0-0.18-0.07-0.37-0.18-0.48l-1.39-1.39c-0.11-0.11-0.29-0.18-0.48-0.18h-3.19c-0.22,0-0.44,0.04-0.7,0.11l-4.1,1.03v15.14
		c0,0.4-0.18,0.59-0.59,0.59h-3.81c-0.4,0-0.59-0.18-0.59-0.59v-14.59c0-0.18-0.07-0.37-0.18-0.48l-0.99-1.03
		c-0.11-0.11-0.26-0.18-0.44-0.18h-3.56c-0.26,0-0.55,0.04-0.84,0.11l-3.12,0.77c-0.26,0.07-0.37,0.26-0.37,0.51v14.88
		c0,0.4-0.18,0.59-0.55,0.59h-4.32c-0.37,0-0.55-0.18-0.55-0.59v-16.57c0-0.55,0.26-0.92,0.77-1.06l6.08-1.76
		c0.4-0.11,0.77-0.15,1.17-0.15h8.03c0.29,0,0.55,0.11,0.73,0.33l1.5,1.47l6.05-1.69c0.33-0.07,0.62-0.11,0.92-0.11h6.27
		c0.26,0,0.51,0.11,0.73,0.33L306.32,836.94z"/>
	<path d="M331.63,849.99c0,0.26-0.11,0.51-0.29,0.73l-3.01,3.01c-0.18,0.18-0.44,0.29-0.73,0.29h-14.29c-0.33,0-0.59-0.11-0.77-0.29
		l-2.93-3.01c-0.18-0.26-0.29-0.48-0.29-0.73v-15.5c0-0.4,0.18-0.59,0.55-0.59h4.25c0.4,0,0.59,0.18,0.59,0.59v14.26
		c0,0.22,0.07,0.4,0.26,0.59l1.28,1.32c0.18,0.15,0.29,0.22,0.4,0.22h7.81c0.11,0,0.26-0.11,0.44-0.29l1.28-1.28
		c0.11-0.11,0.22-0.26,0.26-0.37v-14.44c0-0.4,0.18-0.59,0.59-0.59h4.03c0.4,0,0.59,0.18,0.59,0.59V849.99z"/>
	<path d="M350.65,837.08c0,0.37-0.18,0.55-0.59,0.55h-5.31c-0.4,0-0.88,0.07-1.39,0.26l-2.16,0.66c-0.37,0.11-0.55,0.44-0.55,0.95
		v13.93c0,0.4-0.18,0.59-0.55,0.59h-4.32c-0.37,0-0.55-0.18-0.55-0.59v-16.57c0-0.55,0.26-0.92,0.77-1.06l5.86-1.69
		c0.55-0.15,1.1-0.22,1.61-0.22h6.6c0.4,0,0.59,0.18,0.59,0.59V837.08z"/>
	<path d="M358.56,831.33c0,0.37-0.18,0.55-0.59,0.55h-4.21c-0.37,0-0.55-0.18-0.55-0.55v-3.74c0-0.37,0.18-0.59,0.55-0.59h4.21
		c0.4,0,0.59,0.22,0.59,0.59V831.33z M358.56,853.43c0,0.4-0.18,0.59-0.59,0.59h-4.21c-0.37,0-0.55-0.18-0.55-0.59v-18.95
		c0-0.37,0.18-0.59,0.55-0.59h4.21c0.4,0,0.59,0.22,0.59,0.59V853.43z"/>
	<path d="M384.43,836.94c0.22,0.22,0.33,0.44,0.33,0.77v12.5c0,0.33-0.11,0.55-0.33,0.77l-2.75,2.71c-0.18,0.18-0.44,0.33-0.73,0.33
		h-15.03c-0.29,0-0.55-0.15-0.73-0.33l-2.75-2.71c-0.22-0.22-0.33-0.44-0.33-0.77v-12.5c0-0.33,0.11-0.55,0.33-0.77l2.75-2.71
		c0.18-0.18,0.44-0.33,0.73-0.33h15.03c0.29,0,0.55,0.15,0.73,0.33L384.43,836.94z M369.33,837.16c-0.15,0-0.33,0.11-0.44,0.26
		l-1.17,1.39c-0.18,0.18-0.22,0.4-0.22,0.62v8.8c0,0.22,0.04,0.44,0.22,0.62l1.17,1.39c0.11,0.15,0.29,0.26,0.44,0.26h8.21
		c0.15,0,0.33-0.11,0.44-0.26l1.17-1.39c0.18-0.18,0.22-0.4,0.22-0.62v-8.8c0-0.22-0.04-0.44-0.22-0.62l-1.17-1.39
		c-0.11-0.15-0.29-0.26-0.44-0.26H369.33z"/>
	<path d="M422.65,837.89c0.22,0.18,0.33,0.44,0.33,0.73v11.55c0,0.29-0.11,0.55-0.33,0.77l-2.75,2.79
		c-0.18,0.18-0.44,0.29-0.73,0.29h-13.52v6.3c0,0.4-0.18,0.59-0.55,0.59h-4.32c-0.37,0-0.55-0.18-0.55-0.59v-23.53
		c0-0.55,0.26-0.92,0.77-1.06l5.72-1.61c0.48-0.15,1.03-0.22,1.69-0.22h9.82c0.29,0,0.55,0.11,0.77,0.33L422.65,837.89z
		 M415.68,837.34c-0.18-0.18-0.4-0.29-0.62-0.29h-5.2c-0.37,0-0.73,0.04-1.1,0.15l-2.57,0.66c-0.37,0.11-0.55,0.37-0.55,0.77v12.13
		h9.64c0.4,0,0.7-0.11,0.92-0.33l1.14-1.17c0.18-0.18,0.26-0.4,0.26-0.7v-8.76c0-0.37-0.11-0.66-0.29-0.84L415.68,837.34z"/>
	<path d="M448.4,836.94c0.22,0.22,0.33,0.44,0.33,0.77v12.5c0,0.33-0.11,0.55-0.33,0.77l-2.75,2.71c-0.18,0.18-0.44,0.33-0.73,0.33
		H429.9c-0.29,0-0.55-0.15-0.73-0.33l-2.75-2.71c-0.22-0.22-0.33-0.44-0.33-0.77v-12.5c0-0.33,0.11-0.55,0.33-0.77l2.75-2.71
		c0.18-0.18,0.44-0.33,0.73-0.33h15.03c0.29,0,0.55,0.15,0.73,0.33L448.4,836.94z M433.3,837.16c-0.15,0-0.33,0.11-0.44,0.26
		l-1.17,1.39c-0.18,0.18-0.22,0.4-0.22,0.62v8.8c0,0.22,0.04,0.44,0.22,0.62l1.17,1.39c0.11,0.15,0.29,0.26,0.44,0.26h8.21
		c0.15,0,0.33-0.11,0.44-0.26l1.17-1.39c0.18-0.18,0.22-0.4,0.22-0.62v-8.8c0-0.22-0.04-0.44-0.22-0.62l-1.17-1.39
		c-0.11-0.15-0.29-0.26-0.44-0.26H433.3z"/>
	<path d="M467.53,837.08c0,0.37-0.18,0.55-0.59,0.55h-5.31c-0.4,0-0.88,0.07-1.39,0.26l-2.16,0.66c-0.37,0.11-0.55,0.44-0.55,0.95
		v13.93c0,0.4-0.18,0.59-0.55,0.59h-4.32c-0.37,0-0.55-0.18-0.55-0.59v-16.57c0-0.55,0.26-0.92,0.77-1.06l5.86-1.69
		c0.55-0.15,1.1-0.22,1.61-0.22h6.6c0.4,0,0.59,0.18,0.59,0.59V837.08z"/>
	<path d="M487.42,853.43c0,0.4-0.18,0.59-0.55,0.59h-4.32c-0.37,0-0.55-0.18-0.55-0.59v-19.57c0-0.84,0.04-1.54,0.15-2.38l0.48-4
		c0.04-0.33,0.26-0.48,0.59-0.48h3.67c0.37,0,0.55,0.18,0.55,0.59V853.43z"/>
	<path d="M513.15,836.94c0.22,0.22,0.33,0.44,0.33,0.77v12.5c0,0.33-0.11,0.55-0.33,0.77l-2.75,2.71c-0.18,0.18-0.44,0.33-0.73,0.33
		h-15.03c-0.29,0-0.55-0.15-0.73-0.33l-2.75-2.71c-0.22-0.22-0.33-0.44-0.33-0.77v-12.5c0-0.33,0.11-0.55,0.33-0.77l2.75-2.71
		c0.18-0.18,0.44-0.33,0.73-0.33h15.03c0.29,0,0.55,0.15,0.73,0.33L513.15,836.94z M498.05,837.16c-0.15,0-0.33,0.11-0.44,0.26
		l-1.17,1.39c-0.18,0.18-0.22,0.4-0.22,0.62v8.8c0,0.22,0.04,0.44,0.22,0.62l1.17,1.39c0.11,0.15,0.29,0.26,0.44,0.26h8.21
		c0.15,0,0.33-0.11,0.44-0.26l1.17-1.39c0.18-0.18,0.22-0.4,0.22-0.62v-8.8c0-0.22-0.04-0.44-0.22-0.62l-1.17-1.39
		c-0.11-0.15-0.29-0.26-0.44-0.26H498.05z"/>
	<path d="M538.5,836.13c0,0.4-0.18,0.59-0.59,0.59H523.4c-0.26,0-0.44,0.07-0.62,0.26l-0.99,1.06c-0.15,0.15-0.22,0.33-0.22,0.51
		v1.72c0,0.33,0.07,0.55,0.26,0.73l0.73,0.88c0.22,0.22,0.44,0.33,0.7,0.33h11.87c0.55,0,0.99,0.18,1.32,0.51l1.98,2.02
		c0.26,0.26,0.37,0.59,0.37,1.06v4.47c0,0.26-0.11,0.48-0.33,0.7l-2.71,2.64c-0.26,0.26-0.62,0.4-1.03,0.4h-17.89
		c-0.37,0-0.55-0.18-0.55-0.59v-1.65c0-0.4,0.18-0.59,0.55-0.59h14.73c0.29,0,0.55-0.11,0.73-0.29l1.17-1.1
		c0.11-0.11,0.18-0.26,0.18-0.37v-2.13c0-0.18-0.07-0.33-0.18-0.44l-1.25-1.1c-0.11-0.11-0.29-0.18-0.51-0.18h-11.91
		c-0.29,0-0.55-0.11-0.77-0.33l-2.16-2.16c-0.22-0.22-0.33-0.51-0.33-0.84v-4.62c0-0.29,0.11-0.55,0.29-0.73l2.6-2.71
		c0.18-0.18,0.44-0.29,0.73-0.29h17.74c0.4,0,0.59,0.18,0.59,0.59V836.13z"/>
	<path d="M576.72,837.89c0.22,0.18,0.33,0.44,0.33,0.73v11.55c0,0.29-0.11,0.55-0.33,0.77l-2.75,2.79
		c-0.18,0.18-0.44,0.29-0.73,0.29h-13.52v6.3c0,0.4-0.18,0.59-0.55,0.59h-4.32c-0.37,0-0.55-0.18-0.55-0.59v-23.53
		c0-0.55,0.26-0.92,0.77-1.06l5.72-1.61c0.48-0.15,1.03-0.22,1.69-0.22h9.82c0.29,0,0.55,0.11,0.77,0.33L576.72,837.89z
		 M569.75,837.34c-0.18-0.18-0.4-0.29-0.62-0.29h-5.2c-0.37,0-0.73,0.04-1.1,0.15l-2.57,0.66c-0.37,0.11-0.55,0.37-0.55,0.77v12.13
		h9.64c0.4,0,0.7-0.11,0.92-0.33l1.14-1.17c0.18-0.18,0.26-0.4,0.26-0.7v-8.76c0-0.37-0.11-0.66-0.29-0.84L569.75,837.34z"/>
	<path d="M602.4,844.3c0,0.7-0.37,1.06-1.06,1.06h-15.8v2.86c0,0.26,0.07,0.48,0.18,0.59l1.91,1.91c0.11,0.11,0.26,0.15,0.51,0.15
		h13.67c0.4,0,0.59,0.18,0.59,0.59v1.98c0,0.4-0.18,0.59-0.59,0.59h-16.93c-0.33,0-0.59-0.11-0.77-0.29l-3.67-3.74
		c-0.22-0.22-0.29-0.44-0.29-0.7v-11.58c0-0.29,0.11-0.55,0.33-0.77l2.68-2.64c0.26-0.26,0.55-0.4,0.84-0.4h17.34
		c0.7,0,1.06,0.37,1.06,1.06V844.3z M587.63,837.16c-0.22,0-0.4,0.07-0.55,0.22l-1.28,1.25c-0.18,0.18-0.26,0.37-0.26,0.62v3.7
		h11.25c0.4,0,0.62-0.18,0.62-0.55v-4.66c0-0.4-0.22-0.59-0.62-0.59H587.63z"/>
	<path d="M626.58,836.72c0,0.4-0.18,0.59-0.59,0.59h-12.72c-0.22,0-0.4,0.07-0.55,0.22l-1.28,1.25c-0.15,0.15-0.22,0.33-0.22,0.55
		v8.69c0,0.18,0.04,0.37,0.15,0.48l1.8,1.8c0.15,0.18,0.37,0.26,0.66,0.26h12.02c0.4,0,0.59,0.18,0.59,0.59v2.31
		c0,0.4-0.18,0.59-0.59,0.59h-15.28c-0.33,0-0.59-0.11-0.77-0.29l-3.63-3.7c-0.18-0.26-0.33-0.44-0.33-0.73v-11.58
		c0-0.29,0.11-0.55,0.33-0.77l2.71-2.67c0.26-0.26,0.51-0.37,0.77-0.37H626c0.4,0,0.59,0.18,0.59,0.59V836.72z"/>
	<path d="M651.65,837.89c0.11,0.11,0.29,0.55,0.29,0.73v14.29c0,0.73-0.37,1.1-1.06,1.1h-17.01c-0.33,0-0.62-0.11-0.92-0.33
		l-2.93-2.71c-0.22-0.18-0.33-0.44-0.33-0.77v-6.82c0-0.73,0.33-1.1,1.03-1.1h15.83v-2.71c0-0.26-0.07-0.44-0.26-0.62l-1.69-1.72
		c-0.11-0.11-0.26-0.18-0.51-0.18h-13.85c-0.37,0-0.55-0.18-0.55-0.59v-1.98c0-0.4,0.18-0.59,0.55-0.59h16.97
		c0.29,0,0.55,0.11,0.77,0.33L651.65,837.89z M635.3,844.6c-0.4,0-0.62,0.22-0.62,0.62v3.37c0,0.29,0.11,0.55,0.29,0.73l1.28,1.14
		c0.18,0.18,0.4,0.29,0.66,0.29h9.05c0.4,0,0.59-0.22,0.59-0.62v-5.53H635.3z"/>
	<path d="M677.48,831.48c0.11,0.84,0.15,1.54,0.15,2.38v19.57c0,0.4-0.18,0.59-0.55,0.59H660c-0.33,0-0.59-0.11-0.77-0.29l-3.63-3.7
		c-0.22-0.22-0.33-0.48-0.33-0.73v-11.58c0-0.29,0.11-0.55,0.33-0.77l2.75-2.71c0.26-0.22,0.48-0.33,0.7-0.33h13.16v-6.3
		c0-0.4,0.18-0.59,0.55-0.59h3.67c0.37,0,0.55,0.15,0.59,0.48L677.48,831.48z M662.38,837.16c-0.11,0-0.26,0.07-0.37,0.18
		l-1.39,1.39c-0.11,0.11-0.18,0.29-0.18,0.48v9.16c0,0.18,0.07,0.37,0.18,0.48l1.8,1.83c0.11,0.11,0.29,0.18,0.48,0.18h9.31v-13.71
		H662.38z"/>
	<path d="M703.38,836.94c0.22,0.22,0.33,0.44,0.33,0.77v12.5c0,0.33-0.11,0.55-0.33,0.77l-2.75,2.71c-0.18,0.18-0.44,0.33-0.73,0.33
		h-15.03c-0.29,0-0.55-0.15-0.73-0.33l-2.75-2.71c-0.22-0.22-0.33-0.44-0.33-0.77v-12.5c0-0.33,0.11-0.55,0.33-0.77l2.75-2.71
		c0.18-0.18,0.44-0.33,0.73-0.33h15.03c0.29,0,0.55,0.15,0.73,0.33L703.38,836.94z M688.28,837.16c-0.15,0-0.33,0.11-0.44,0.26
		l-1.17,1.39c-0.18,0.18-0.22,0.4-0.22,0.62v8.8c0,0.22,0.04,0.44,0.22,0.62l1.17,1.39c0.11,0.15,0.29,0.26,0.44,0.26h8.21
		c0.15,0,0.33-0.11,0.44-0.26l1.17-1.39c0.18-0.18,0.22-0.4,0.22-0.62v-8.8c0-0.22-0.04-0.44-0.22-0.62l-1.17-1.39
		c-0.11-0.15-0.29-0.26-0.44-0.26H688.28z"/>
	<path d="M722.51,837.08c0,0.37-0.18,0.55-0.59,0.55h-5.31c-0.4,0-0.88,0.07-1.39,0.26l-2.16,0.66c-0.37,0.11-0.55,0.44-0.55,0.95
		v13.93c0,0.4-0.18,0.59-0.55,0.59h-4.32c-0.37,0-0.55-0.18-0.55-0.59v-16.57c0-0.55,0.26-0.92,0.77-1.06l5.86-1.69
		c0.55-0.15,1.1-0.22,1.61-0.22h6.6c0.4,0,0.59,0.18,0.59,0.59V837.08z"/>
	<path d="M746.88,844.3c0,0.7-0.37,1.06-1.06,1.06h-15.8v2.86c0,0.26,0.07,0.48,0.18,0.59l1.91,1.91c0.11,0.11,0.26,0.15,0.51,0.15
		h13.67c0.4,0,0.59,0.18,0.59,0.59v1.98c0,0.4-0.18,0.59-0.59,0.59h-16.93c-0.33,0-0.59-0.11-0.77-0.29l-3.67-3.74
		c-0.22-0.22-0.29-0.44-0.29-0.7v-11.58c0-0.29,0.11-0.55,0.33-0.77l2.68-2.64c0.26-0.26,0.55-0.4,0.84-0.4h17.34
		c0.7,0,1.06,0.37,1.06,1.06V844.3z M732.1,837.16c-0.22,0-0.4,0.07-0.55,0.22l-1.28,1.25c-0.18,0.18-0.26,0.37-0.26,0.62v3.7h11.25
		c0.4,0,0.62-0.18,0.62-0.55v-4.66c0-0.4-0.22-0.59-0.62-0.59H732.1z"/>
	<path d="M772.23,836.13c0,0.4-0.18,0.59-0.59,0.59h-14.51c-0.26,0-0.44,0.07-0.62,0.26l-0.99,1.06c-0.15,0.15-0.22,0.33-0.22,0.51
		v1.72c0,0.33,0.07,0.55,0.26,0.73l0.73,0.88c0.22,0.22,0.44,0.33,0.7,0.33h11.88c0.55,0,0.99,0.18,1.32,0.51l1.98,2.02
		c0.26,0.26,0.37,0.59,0.37,1.06v4.47c0,0.26-0.11,0.48-0.33,0.7l-2.71,2.64c-0.26,0.26-0.62,0.4-1.03,0.4h-17.89
		c-0.37,0-0.55-0.18-0.55-0.59v-1.65c0-0.4,0.18-0.59,0.55-0.59h14.73c0.29,0,0.55-0.11,0.73-0.29l1.17-1.1
		c0.11-0.11,0.18-0.26,0.18-0.37v-2.13c0-0.18-0.07-0.33-0.18-0.44l-1.25-1.1c-0.11-0.11-0.29-0.18-0.51-0.18h-11.91
		c-0.29,0-0.55-0.11-0.77-0.33l-2.16-2.16c-0.22-0.22-0.33-0.51-0.33-0.84v-4.62c0-0.29,0.11-0.55,0.29-0.73l2.6-2.71
		c0.18-0.18,0.44-0.29,0.73-0.29h17.74c0.4,0,0.59,0.18,0.59,0.59V836.13z"/>
</g>
<g>
	<path d="M617.34,889.33c0.14,0.17,0.19,0.4,0.19,0.63v4.6c0,0.37-0.09,0.69-0.31,0.95l-2,2.27l2.64,6.76
		c0.12,0.32,0.17,0.49,0.17,0.83v0.32c0,0.32-0.02,0.52-0.38,0.52h-3.6c-0.17,0-0.31-0.11-0.38-0.32l-2.41-6.85h-8.5v6.7
		c0,0.32-0.12,0.46-0.38,0.46h-3.74c-0.24,0-0.36-0.14-0.36-0.46v-18.58c0-0.55,0.21-0.83,0.67-0.83h15.36
		c0.29,0,0.52,0.11,0.71,0.35L617.34,889.33z M611.79,889.53c-0.1-0.12-0.21-0.17-0.38-0.17h-8.24c-0.26,0-0.41,0.17-0.41,0.55v6.24
		h8.69l1.43-1.61c0.12-0.14,0.17-0.26,0.17-0.4v-2.88c0-0.17-0.05-0.32-0.17-0.46L611.79,889.53z"/>
	<path d="M634.17,892.81c0.14,0.17,0.21,0.35,0.21,0.6v9.81c0,0.26-0.07,0.43-0.21,0.6l-1.79,2.13c-0.12,0.14-0.29,0.26-0.48,0.26
		h-9.76c-0.19,0-0.36-0.11-0.48-0.26l-1.79-2.13c-0.14-0.17-0.21-0.35-0.21-0.6v-9.81c0-0.26,0.07-0.43,0.21-0.6l1.79-2.13
		c0.12-0.14,0.29-0.26,0.48-0.26h9.76c0.19,0,0.36,0.11,0.48,0.26L634.17,892.81z M624.36,892.98c-0.1,0-0.21,0.09-0.29,0.2
		l-0.76,1.09c-0.12,0.14-0.14,0.32-0.14,0.49v6.9c0,0.17,0.02,0.34,0.14,0.49l0.76,1.09c0.07,0.11,0.19,0.2,0.29,0.2h5.33
		c0.1,0,0.21-0.09,0.29-0.2l0.76-1.09c0.12-0.14,0.14-0.32,0.14-0.49v-6.9c0-0.17-0.02-0.35-0.14-0.49l-0.76-1.09
		c-0.07-0.11-0.19-0.2-0.29-0.2H624.36z"/>
	<path d="M659.32,892.81c0.14,0.2,0.21,0.4,0.21,0.6v12.34c0,0.32-0.12,0.46-0.38,0.46h-2.74c-0.26,0-0.38-0.14-0.38-0.46v-11.16
		c0-0.14-0.05-0.29-0.12-0.37l-0.91-1.09c-0.07-0.09-0.19-0.14-0.31-0.14h-2.07c-0.14,0-0.29,0.03-0.45,0.09l-2.67,0.8v11.88
		c0,0.32-0.12,0.46-0.38,0.46h-2.48c-0.26,0-0.38-0.14-0.38-0.46v-11.45c0-0.14-0.05-0.29-0.12-0.37l-0.64-0.8
		c-0.07-0.09-0.17-0.14-0.29-0.14h-2.31c-0.17,0-0.36,0.03-0.55,0.09l-2.02,0.6c-0.17,0.06-0.24,0.2-0.24,0.4v11.68
		c0,0.32-0.12,0.46-0.36,0.46h-2.81c-0.24,0-0.36-0.14-0.36-0.46v-13c0-0.43,0.17-0.72,0.5-0.83l3.95-1.38
		c0.26-0.09,0.5-0.11,0.76-0.11H647c0.19,0,0.36,0.09,0.48,0.26l0.98,1.15l3.93-1.32c0.21-0.06,0.41-0.09,0.6-0.09h4.07
		c0.17,0,0.33,0.09,0.48,0.26L659.32,892.81z"/>
	<path d="M675.53,893.56c0.07,0.09,0.19,0.43,0.19,0.58v11.22c0,0.58-0.24,0.86-0.69,0.86h-11.05c-0.21,0-0.4-0.09-0.59-0.26
		l-1.91-2.13c-0.14-0.14-0.21-0.35-0.21-0.6v-5.35c0-0.58,0.21-0.86,0.67-0.86h10.29v-2.13c0-0.2-0.05-0.35-0.17-0.49l-1.1-1.35
		c-0.07-0.09-0.17-0.14-0.33-0.14h-9c-0.24,0-0.36-0.14-0.36-0.46v-1.55c0-0.32,0.12-0.46,0.36-0.46h11.03
		c0.19,0,0.36,0.09,0.5,0.26L675.53,893.56z M664.91,898.82c-0.26,0-0.41,0.17-0.41,0.49v2.65c0,0.23,0.07,0.43,0.19,0.58l0.83,0.89
		c0.12,0.14,0.26,0.23,0.43,0.23h5.88c0.26,0,0.38-0.17,0.38-0.49v-4.34H664.91z"/>
	<path d="M692.63,892.81c0.14,0.17,0.21,0.4,0.21,0.66v12.28c0,0.32-0.12,0.46-0.38,0.46h-2.74c-0.26,0-0.38-0.14-0.38-0.46v-11.19
		c0-0.14-0.05-0.26-0.12-0.35l-0.88-1.09c-0.07-0.09-0.19-0.14-0.31-0.14h-3.52c-0.21,0-0.4,0.03-0.62,0.09l-1.98,0.6
		c-0.21,0.06-0.33,0.23-0.33,0.52v11.56c0,0.32-0.12,0.46-0.36,0.46h-2.81c-0.24,0-0.36-0.14-0.36-0.46v-12.94
		c0-0.49,0.17-0.78,0.5-0.89l3.76-1.32c0.31-0.11,0.6-0.17,0.88-0.17h7.14c0.21,0,0.38,0.09,0.5,0.26L692.63,892.81z"/>
	<path d="M709.46,892.81c0.14,0.17,0.21,0.35,0.21,0.6v9.81c0,0.26-0.07,0.43-0.21,0.6l-1.79,2.13c-0.12,0.14-0.29,0.26-0.48,0.26
		h-9.76c-0.19,0-0.36-0.11-0.48-0.26l-1.79-2.13c-0.14-0.17-0.21-0.35-0.21-0.6v-9.81c0-0.26,0.07-0.43,0.21-0.6l1.79-2.13
		c0.12-0.14,0.29-0.26,0.48-0.26h9.76c0.19,0,0.36,0.11,0.48,0.26L709.46,892.81z M699.65,892.98c-0.1,0-0.21,0.09-0.29,0.2
		l-0.76,1.09c-0.12,0.14-0.14,0.32-0.14,0.49v6.9c0,0.17,0.02,0.34,0.14,0.49l0.76,1.09c0.07,0.11,0.19,0.2,0.29,0.2h5.33
		c0.1,0,0.21-0.09,0.29-0.2l0.76-1.09c0.12-0.14,0.14-0.32,0.14-0.49v-6.9c0-0.17-0.02-0.35-0.14-0.49l-0.76-1.09
		c-0.07-0.11-0.19-0.2-0.29-0.2H699.65z"/>
	<path d="M725.93,892.18c0,0.32-0.12,0.46-0.38,0.46h-9.43c-0.17,0-0.29,0.06-0.4,0.2l-0.64,0.83c-0.1,0.11-0.14,0.26-0.14,0.4v1.35
		c0,0.26,0.05,0.43,0.17,0.58l0.48,0.69c0.14,0.17,0.29,0.26,0.45,0.26h7.72c0.36,0,0.64,0.14,0.86,0.4l1.29,1.58
		c0.17,0.2,0.24,0.46,0.24,0.83v3.51c0,0.2-0.07,0.37-0.21,0.55l-1.76,2.07c-0.17,0.2-0.41,0.32-0.67,0.32h-11.62
		c-0.24,0-0.36-0.14-0.36-0.46v-1.29c0-0.32,0.12-0.46,0.36-0.46h9.57c0.19,0,0.36-0.09,0.48-0.23l0.76-0.86
		c0.07-0.09,0.12-0.2,0.12-0.29v-1.67c0-0.14-0.05-0.26-0.12-0.35l-0.81-0.86c-0.07-0.09-0.19-0.14-0.33-0.14h-7.74
		c-0.19,0-0.36-0.09-0.5-0.26l-1.41-1.7c-0.14-0.17-0.21-0.4-0.21-0.66v-3.62c0-0.23,0.07-0.43,0.19-0.58l1.69-2.13
		c0.12-0.14,0.29-0.23,0.48-0.23h11.53c0.26,0,0.38,0.14,0.38,0.46V892.18z"/>
	<path d="M751.98,888.93c0,0.29-0.12,0.43-0.36,0.43h-11.22c-0.21,0-0.31,0.14-0.31,0.43v4.34c0,0.32,0.09,0.46,0.31,0.46h9.5
		c0.36,0,0.67,0.11,0.88,0.34l1.72,1.96c0.21,0.26,0.31,0.55,0.31,0.92v4.63c0,0.4-0.1,0.72-0.31,0.98l-0.26,0.37
		c-0.57,0.83-1.55,2.42-2.14,2.42h-13.55c-0.24,0-0.36-0.14-0.36-0.46v-2.1c0-0.32,0.12-0.46,0.36-0.46h10.79
		c0.12,0,0.21-0.06,0.33-0.2l0.83-1.15c0.07-0.09,0.12-0.26,0.12-0.46v-2.45c0-0.17-0.05-0.32-0.12-0.4l-0.79-0.89
		c-0.12-0.14-0.24-0.2-0.41-0.2h-10.38c-0.45,0-0.69-0.26-0.69-0.81v-9.46c0-0.55,0.21-0.83,0.67-0.83h14.72
		c0.24,0,0.36,0.14,0.36,0.46V888.93z"/>
	<path d="M758.67,905.75c0,0.32-0.14,0.46-0.38,0.46h-2.76c-0.21,0-0.36-0.14-0.36-0.46v-3.16c0-0.29,0.14-0.46,0.36-0.46h2.76
		c0.24,0,0.38,0.17,0.38,0.46V905.75z"/>
	<path d="M776.79,888.93c0,0.29-0.12,0.43-0.36,0.43h-9.5c-0.17,0-0.29,0.06-0.41,0.2l-1.38,1.55c-0.07,0.09-0.12,0.26-0.12,0.49
		v2.62h9.74c0.31,0,0.55,0.12,0.71,0.32l1.93,2.19c0.14,0.14,0.21,0.34,0.21,0.6v4.54c0,0.43-0.09,0.78-0.29,1.04
		c-0.79,0.95-1.55,1.98-2.31,3.05c-0.17,0.17-0.36,0.26-0.55,0.26h-9.91c-0.24,0-0.41-0.09-0.52-0.26l-2.57-3.31
		c-0.31-0.43-0.48-0.95-0.48-1.58v-9.84c0-0.49,0.1-0.84,0.31-1.09l2.74-3.54c0.12-0.17,0.29-0.26,0.5-0.26h11.88
		c0.24,0,0.36,0.14,0.36,0.46V888.93z M772.77,896.75c-0.12-0.14-0.19-0.2-0.45-0.2h-7.29v3.62c0,0.37,0.07,0.66,0.19,0.86
		l1.41,1.84c0.17,0.2,0.38,0.32,0.6,0.32h4.76c0.21,0,0.36-0.09,0.45-0.23l1.29-1.87c0.07-0.09,0.12-0.23,0.12-0.4v-2.53
		c0-0.12-0.05-0.23-0.12-0.32L772.77,896.75z"/>
</g>
<g>
	<path d="M115.19,831.99c0,0.37-0.18,0.55-0.59,0.55h-15.8c-0.22,0-0.4,0.07-0.55,0.22l-1.8,1.72c-0.11,0.11-0.18,0.29-0.18,0.51
		v12.13c0,0.22,0.04,0.44,0.18,0.55l2.42,2.27c0.18,0.15,0.37,0.22,0.62,0.22h15.1c0.4,0,0.59,0.18,0.59,0.59v2.67
		c0,0.4-0.18,0.59-0.59,0.59H95.48c-0.37,0-0.7-0.15-0.95-0.4l-4.87-4.58c-0.22-0.22-0.33-0.48-0.33-0.81v-14.92
		c0-0.33,0.11-0.59,0.33-0.81l3.56-3.41c0.26-0.26,0.59-0.4,0.95-0.4h20.45c0.4,0,0.59,0.18,0.59,0.59V831.99z"/>
	<path d="M147.92,832.5c0.22,0.22,0.29,0.51,0.29,0.81v5.86c0,0.48-0.15,0.88-0.48,1.21l-3.08,2.9l4.07,8.61
		c0.18,0.4,0.26,0.62,0.26,1.06v0.4c0,0.4-0.04,0.66-0.59,0.66h-5.53c-0.26,0-0.48-0.15-0.59-0.4l-3.7-8.72h-13.08v8.54
		c0,0.4-0.18,0.59-0.59,0.59h-5.75c-0.37,0-0.55-0.18-0.55-0.59v-23.68c0-0.7,0.33-1.06,1.03-1.06h23.64c0.44,0,0.81,0.15,1.1,0.44
		L147.92,832.5z M139.38,832.76c-0.15-0.15-0.33-0.22-0.59-0.22h-12.68c-0.4,0-0.62,0.22-0.62,0.7v7.95h13.38l2.2-2.05
		c0.18-0.18,0.26-0.33,0.26-0.51v-3.67c0-0.22-0.07-0.4-0.26-0.59L139.38,832.76z"/>
	<path d="M159.05,853.43c0,0.4-0.22,0.59-0.59,0.59h-5.83c-0.37,0-0.59-0.18-0.59-0.59v-24.15c0-0.37,0.22-0.59,0.59-0.59h5.83
		c0.37,0,0.59,0.22,0.59,0.59V853.43z"/>
	<path d="M190.82,831.99c0,0.37-0.18,0.55-0.59,0.55h-18.07c-0.33,0-0.59,0.11-0.81,0.33l-1.28,1.25c-0.22,0.18-0.33,0.44-0.33,0.73
		v2.09c0,0.18,0.07,0.33,0.22,0.48l1.47,1.43c0.15,0.15,0.29,0.22,0.48,0.22h14.92c0.51,0,0.95,0.18,1.28,0.51l2.68,2.86
		c0.33,0.37,0.48,0.73,0.48,1.14v5.68c0,0.4-0.15,0.73-0.44,1.03l-3.37,3.23c-0.4,0.33-0.84,0.51-1.32,0.51h-23.09
		c-0.37,0-0.55-0.18-0.55-0.59v-2.67c0-0.4,0.18-0.59,0.55-0.59h19.1c0.33,0,0.59-0.07,0.84-0.26l1.25-1.28
		c0.18-0.18,0.26-0.37,0.26-0.59v-2.86c-0.04-0.11-0.11-0.18-0.22-0.29l-1.43-1.39c-0.18-0.18-0.44-0.26-0.7-0.29h-15.28
		c-0.26,0-0.51-0.07-0.73-0.29l-2.75-3.04c-0.4-0.4-0.48-0.66-0.48-1.21v-5.42c0-0.55,0.29-0.81,0.7-1.14l3.15-2.97
		c0.29-0.29,0.66-0.44,1.1-0.44h22.39c0.4,0,0.59,0.18,0.59,0.59V831.99z"/>
	<path d="M220.46,832.14c0,0.4-0.18,0.59-0.55,0.59h-9.53v20.71c0,0.4-0.22,0.59-0.59,0.59h-5.86c-0.37,0-0.55-0.18-0.55-0.59
		v-20.71h-9.57c-0.37,0-0.59-0.18-0.59-0.59v-2.86c0-0.37,0.22-0.59,0.59-0.59h26.1c0.37,0,0.55,0.22,0.55,0.59V832.14z"/>
	<path d="M251.75,832.43c0.26,0.26,0.4,0.59,0.4,0.99v15.87c0,0.4-0.15,0.73-0.4,0.99l-3.56,3.41c-0.22,0.22-0.51,0.33-0.88,0.33
		h-19.97c-0.37,0-0.66-0.11-0.88-0.33l-3.56-3.41c-0.26-0.26-0.4-0.59-0.4-0.99v-15.87c0-0.4,0.15-0.73,0.4-0.99l3.56-3.41
		c0.22-0.22,0.51-0.33,0.88-0.33h19.97c0.37,0,0.66,0.11,0.88,0.33L251.75,832.43z M243.36,832.83c-0.18-0.18-0.44-0.29-0.7-0.29
		H232c-0.26,0-0.51,0.11-0.7,0.29l-1.65,1.61c-0.18,0.18-0.26,0.4-0.26,0.66v12.5c0,0.26,0.07,0.48,0.26,0.66l1.65,1.61
		c0.18,0.18,0.44,0.29,0.7,0.29h10.67c0.26,0,0.51-0.11,0.7-0.29l1.65-1.61c0.18-0.18,0.26-0.4,0.26-0.66v-12.5
		c0-0.26-0.07-0.48-0.26-0.66L243.36,832.83z"/>
</g>
<g>
	<path d="M138.13,627.84h-4.44v10.53c0,1.5-0.23,2.65-0.69,3.42c-0.46,0.78-1.04,1.17-1.73,1.17c-0.73,0-1.32-0.38-1.76-1.15
		c-0.45-0.77-0.67-1.9-0.67-3.39v-28.66c0-1.66,0.24-2.84,0.74-3.55c0.49-0.71,1.27-1.06,2.34-1.06h6.23c1.84,0,3.26,0.22,4.25,0.66
		c0.98,0.42,1.83,1.12,2.54,2.1c0.71,0.98,1.26,2.18,1.63,3.6c0.37,1.42,0.56,3.02,0.56,4.79c0,3.79-0.75,6.66-2.26,8.61
		C143.35,626.86,141.11,627.84,138.13,627.84z M136.96,610.79h-3.27v11.36h3.27c1.14,0,2.1-0.19,2.87-0.56
		c0.77-0.37,1.35-0.98,1.76-1.83c0.4-0.85,0.6-1.95,0.6-3.32c0-1.64-0.31-2.98-0.93-4.01C140.56,611.34,139.13,610.79,136.96,610.79
		z"/>
	<path d="M163.54,638.11l-1.14-4.67h-9.74l-1.14,4.77c-0.45,1.86-0.83,3.12-1.14,3.77c-0.32,0.65-0.83,0.98-1.55,0.98
		c-0.61,0-1.15-0.35-1.62-1.04c-0.47-0.69-0.7-1.48-0.7-2.36c0-0.51,0.05-1.03,0.16-1.57c0.11-0.54,0.29-1.29,0.54-2.26l6.13-24.15
		c0.17-0.69,0.38-1.53,0.63-2.5c0.25-0.97,0.51-1.78,0.78-2.42c0.28-0.64,0.64-1.16,1.09-1.56c0.45-0.4,1.01-0.6,1.67-0.6
		c0.67,0,1.24,0.2,1.69,0.6c0.45,0.4,0.82,0.91,1.1,1.54c0.28,0.63,0.51,1.3,0.7,2.02c0.19,0.72,0.43,1.68,0.73,2.88l6.26,23.99
		c0.49,1.83,0.74,3.15,0.74,3.98c0,0.86-0.23,1.65-0.69,2.37c-0.46,0.72-1.02,1.08-1.67,1.08c-0.38,0-0.71-0.11-0.98-0.32
		c-0.27-0.21-0.5-0.5-0.69-0.86c-0.19-0.36-0.38-0.92-0.6-1.67C163.88,639.35,163.7,638.69,163.54,638.11z M153.94,627.79h7.16
		l-3.61-15.35L153.94,627.79z"/>
	<path d="M193.33,627.21v7.13c0,0.95-0.06,1.7-0.18,2.27c-0.12,0.57-0.34,1.08-0.66,1.53c-0.32,0.46-0.73,0.9-1.23,1.32
		c-1.45,1.22-2.84,2.1-4.18,2.66c-1.34,0.56-2.8,0.84-4.38,0.84c-1.84,0-3.52-0.44-5.03-1.32c-1.51-0.88-2.81-2.16-3.87-3.83
		c-1.07-1.67-1.89-3.7-2.46-6.09c-0.57-2.38-0.86-5.05-0.86-7.99c0-2.89,0.28-5.54,0.83-7.94c0.56-2.4,1.37-4.44,2.45-6.11
		c1.08-1.67,2.39-2.96,3.94-3.84c1.55-0.89,3.3-1.33,5.26-1.33c1.61,0,3.04,0.33,4.28,1s2.25,1.51,3.02,2.52
		c0.77,1.01,1.36,2.09,1.75,3.22c0.39,1.13,0.59,2.14,0.59,3.02c0,0.95-0.23,1.76-0.68,2.42c-0.45,0.67-0.99,1-1.63,1
		c-0.35,0-0.68-0.13-1-0.38c-0.32-0.25-0.59-0.61-0.81-1.07c-0.6-1.45-1.11-2.55-1.52-3.3c-0.41-0.74-0.97-1.37-1.67-1.88
		s-1.6-0.76-2.69-0.76c-1.12,0-2.12,0.3-3.01,0.9c-0.88,0.6-1.64,1.47-2.26,2.61c-0.63,1.14-1.11,2.54-1.44,4.2
		c-0.33,1.66-0.5,3.49-0.5,5.5c0,4.36,0.65,7.72,1.94,10.07c1.29,2.35,3.09,3.53,5.4,3.53c1.12,0,2.18-0.23,3.16-0.68
		c0.99-0.46,1.99-1.11,3-1.95v-6.04h-3.76c-0.9,0-1.59-0.21-2.05-0.63c-0.46-0.42-0.69-1.14-0.69-2.16c0-0.83,0.19-1.51,0.58-2.05
		c0.39-0.54,0.91-0.81,1.58-0.81h5.51c0.67,0,1.25,0.09,1.72,0.28c0.47,0.19,0.85,0.6,1.14,1.24
		C193.19,624.96,193.33,625.92,193.33,627.21z"/>
	<path d="M208.5,604.5c2.48,0,4.62,0.78,6.4,2.35c1.78,1.56,3.13,3.79,4.04,6.67c0.91,2.88,1.37,6.27,1.37,10.16
		c0,2.87-0.25,5.49-0.75,7.84c-0.5,2.35-1.25,4.39-2.26,6.11c-1,1.72-2.23,3.04-3.69,3.96c-1.46,0.91-3.13,1.37-5.02,1.37
		c-1.87,0-3.55-0.47-5.03-1.41c-1.48-0.94-2.72-2.26-3.71-3.97c-0.99-1.71-1.74-3.76-2.25-6.16c-0.51-2.4-0.76-5-0.76-7.79
		c0-2.86,0.26-5.48,0.79-7.86c0.53-2.38,1.29-4.41,2.3-6.09c1-1.67,2.22-2.96,3.66-3.84C205.03,604.95,206.67,604.5,208.5,604.5z
		 M215.39,623.63c0-2.72-0.28-5.08-0.85-7.08c-0.57-1.99-1.38-3.5-2.43-4.53c-1.05-1.02-2.26-1.54-3.62-1.54
		c-0.97,0-1.87,0.28-2.69,0.85c-0.82,0.57-1.53,1.39-2.12,2.47c-0.59,1.08-1.06,2.46-1.41,4.15c-0.34,1.68-0.52,3.57-0.52,5.67
		c0,2.11,0.17,4.02,0.52,5.73c0.34,1.71,0.83,3.12,1.45,4.25c0.63,1.12,1.35,1.97,2.16,2.52c0.81,0.56,1.7,0.84,2.67,0.84
		c1.24,0,2.38-0.48,3.42-1.45c1.04-0.96,1.87-2.45,2.48-4.46C215.08,629.05,215.39,626.57,215.39,623.63z"/>
	<path d="M248.61,610.95h-10.93v9.13h10.07c0.74,0,1.29,0.26,1.66,0.77c0.36,0.52,0.55,1.2,0.55,2.04c0,0.85-0.18,1.54-0.54,2.07
		c-0.36,0.53-0.92,0.8-1.67,0.8h-10.07v10.58h11.31c0.76,0,1.34,0.28,1.72,0.82s0.58,1.28,0.58,2.19c0,0.88-0.19,1.59-0.58,2.14
		s-0.96,0.82-1.72,0.82H235.8c-1.06,0-1.82-0.36-2.28-1.09c-0.46-0.73-0.69-1.9-0.69-3.53v-27.95c0-1.08,0.1-1.97,0.31-2.65
		c0.21-0.68,0.53-1.18,0.97-1.5c0.44-0.31,1-0.47,1.69-0.47h12.81c0.77,0,1.35,0.27,1.72,0.8c0.38,0.53,0.56,1.23,0.56,2.09
		c0,0.88-0.19,1.58-0.56,2.12C249.96,610.68,249.38,610.95,248.61,610.95z"/>
	<path d="M259.9,609.07v27.06h9.84c0.78,0,1.39,0.3,1.81,0.89c0.42,0.59,0.63,1.34,0.63,2.23c0,0.91-0.21,1.65-0.62,2.22
		c-0.41,0.57-1.02,0.85-1.81,0.85h-11.72c-1.06,0-1.82-0.36-2.28-1.09c-0.46-0.73-0.69-1.9-0.69-3.53v-28.64
		c0-1.52,0.22-2.66,0.66-3.42c0.44-0.76,1.02-1.14,1.74-1.14c0.73,0,1.32,0.38,1.77,1.13C259.68,606.39,259.9,607.53,259.9,609.07z"
		/>
	<path d="M293.03,627.84h-4.44v10.53c0,1.5-0.23,2.65-0.69,3.42c-0.46,0.78-1.04,1.17-1.73,1.17c-0.73,0-1.32-0.38-1.76-1.15
		c-0.45-0.77-0.67-1.9-0.67-3.39v-28.66c0-1.66,0.24-2.84,0.74-3.55c0.49-0.71,1.27-1.06,2.34-1.06h6.23c1.84,0,3.26,0.22,4.25,0.66
		c0.98,0.42,1.83,1.12,2.54,2.1c0.71,0.98,1.26,2.18,1.63,3.6c0.37,1.42,0.56,3.02,0.56,4.79c0,3.79-0.75,6.66-2.26,8.61
		C298.24,626.86,296,627.84,293.03,627.84z M291.85,610.79h-3.27v11.36h3.27c1.14,0,2.1-0.19,2.87-0.56
		c0.77-0.37,1.35-0.98,1.76-1.83c0.4-0.85,0.6-1.95,0.6-3.32c0-1.64-0.31-2.98-0.93-4.01C295.45,611.34,294.02,610.79,291.85,610.79
		z"/>
	<path d="M312.57,626.42h-1.7v11.95c0,1.57-0.22,2.73-0.67,3.48c-0.45,0.74-1.03,1.11-1.75,1.11c-0.77,0-1.37-0.39-1.8-1.17
		c-0.42-0.78-0.64-1.92-0.64-3.42v-28.61c0-1.62,0.23-2.8,0.7-3.53c0.47-0.73,1.23-1.09,2.27-1.09h7.89c1.09,0,2.02,0.07,2.79,0.22
		c0.77,0.14,1.47,0.44,2.09,0.87c0.75,0.49,1.42,1.19,1.99,2.11c0.58,0.91,1.02,1.97,1.32,3.18s0.45,2.49,0.45,3.84
		c0,2.77-0.5,4.99-1.51,6.64c-1.01,1.66-2.54,2.83-4.58,3.53c0.86,0.71,1.68,1.76,2.47,3.15c0.78,1.39,1.48,2.86,2.1,4.43
		c0.61,1.56,1.09,2.98,1.44,4.23c0.34,1.26,0.51,2.13,0.51,2.6c0,0.49-0.1,0.98-0.3,1.46c-0.2,0.48-0.48,0.86-0.83,1.14
		c-0.35,0.28-0.75,0.42-1.21,0.42c-0.54,0-1-0.2-1.37-0.59c-0.37-0.4-0.69-0.9-0.96-1.51c-0.27-0.61-0.63-1.5-1.09-2.69l-1.94-5.02
		c-0.7-1.84-1.32-3.25-1.87-4.21c-0.55-0.96-1.11-1.62-1.67-1.98C314.14,626.6,313.43,626.42,312.57,626.42z M315.35,610.79h-4.48
		v10.22h4.35c1.17,0,2.15-0.16,2.94-0.47c0.8-0.31,1.4-0.85,1.82-1.6c0.42-0.75,0.63-1.79,0.63-3.11c0-1.03-0.17-1.94-0.51-2.73
		c-0.34-0.79-0.81-1.37-1.41-1.76C318.13,610.98,317.01,610.79,315.35,610.79z"/>
	<path d="M345.9,610.95h-10.93v9.13h10.07c0.74,0,1.29,0.26,1.66,0.77c0.36,0.52,0.55,1.2,0.55,2.04c0,0.85-0.18,1.54-0.54,2.07
		c-0.36,0.53-0.92,0.8-1.67,0.8h-10.07v10.58h11.31c0.76,0,1.34,0.28,1.72,0.82s0.58,1.28,0.58,2.19c0,0.88-0.19,1.59-0.58,2.14
		s-0.96,0.82-1.72,0.82h-13.19c-1.06,0-1.82-0.36-2.28-1.09c-0.46-0.73-0.69-1.9-0.69-3.53v-27.95c0-1.08,0.1-1.97,0.31-2.65
		c0.21-0.68,0.53-1.18,0.97-1.5c0.44-0.31,1-0.47,1.69-0.47h12.81c0.77,0,1.35,0.27,1.72,0.8c0.38,0.53,0.56,1.23,0.56,2.09
		c0,0.88-0.19,1.58-0.56,2.12C347.25,610.68,346.68,610.95,345.9,610.95z"/>
	<path d="M372.85,630.58c0,1.18-0.19,2.46-0.56,3.84c-0.38,1.38-0.97,2.73-1.77,4.06c-0.81,1.33-1.84,2.41-3.09,3.23
		c-1.25,0.83-2.71,1.24-4.38,1.24c-1.26,0-2.41-0.19-3.45-0.56c-1.03-0.37-1.97-0.95-2.82-1.74c-0.84-0.79-1.62-1.82-2.33-3.11
		c-0.63-1.17-1.17-2.47-1.62-3.92c-0.45-1.45-0.78-2.99-1-4.63c-0.22-1.64-0.34-3.38-0.34-5.23c0-2.99,0.28-5.67,0.84-8.04
		c0.56-2.37,1.36-4.39,2.41-6.08c1.05-1.68,2.27-2.96,3.68-3.84c1.41-0.88,2.9-1.32,4.49-1.32c1.94,0,3.67,0.6,5.18,1.8
		c1.51,1.2,2.67,2.69,3.48,4.45c0.81,1.77,1.21,3.44,1.21,5.01c0,0.86-0.2,1.62-0.59,2.28c-0.39,0.66-0.87,0.99-1.42,0.99
		c-0.62,0-1.09-0.23-1.4-0.68c-0.31-0.46-0.66-1.24-1.04-2.36c-0.63-1.84-1.38-3.22-2.23-4.13c-0.86-0.91-1.91-1.37-3.16-1.37
		c-1.99,0-3.58,1.18-4.76,3.53c-1.18,2.35-1.77,5.69-1.77,10.02c0,2.89,0.26,5.3,0.78,7.22c0.52,1.92,1.26,3.35,2.22,4.3
		c0.96,0.95,2.08,1.42,3.37,1.42c1.39,0,2.57-0.54,3.54-1.61c0.96-1.07,1.69-2.65,2.18-4.73c0.21-0.98,0.46-1.78,0.77-2.4
		c0.3-0.62,0.8-0.93,1.47-0.93c0.58,0,1.07,0.31,1.49,0.94C372.64,628.87,372.85,629.65,372.85,630.58z"/>
	<path d="M377.41,638.37v-29.3c0-1.52,0.22-2.66,0.67-3.42c0.45-0.76,1.02-1.14,1.73-1.14c0.73,0,1.32,0.38,1.77,1.13
		c0.45,0.75,0.68,1.9,0.68,3.44v29.3c0,1.54-0.23,2.69-0.68,3.45c-0.45,0.76-1.04,1.14-1.77,1.14c-0.7,0-1.27-0.38-1.72-1.15
		C377.63,641.03,377.41,639.89,377.41,638.37z"/>
	<path d="M398.23,604.5c2.48,0,4.62,0.78,6.4,2.35c1.78,1.56,3.13,3.79,4.04,6.67c0.91,2.88,1.37,6.27,1.37,10.16
		c0,2.87-0.25,5.49-0.75,7.84c-0.5,2.35-1.25,4.39-2.26,6.11c-1,1.72-2.23,3.04-3.69,3.96c-1.46,0.91-3.13,1.37-5.02,1.37
		c-1.87,0-3.55-0.47-5.03-1.41c-1.48-0.94-2.72-2.26-3.71-3.97c-0.99-1.71-1.74-3.76-2.25-6.16c-0.51-2.4-0.76-5-0.76-7.79
		c0-2.86,0.26-5.48,0.79-7.86c0.53-2.38,1.29-4.41,2.3-6.09c1-1.67,2.22-2.96,3.66-3.84C394.76,604.95,396.39,604.5,398.23,604.5z
		 M405.12,623.63c0-2.72-0.28-5.08-0.85-7.08c-0.57-1.99-1.38-3.5-2.43-4.53c-1.05-1.02-2.26-1.54-3.62-1.54
		c-0.97,0-1.87,0.28-2.69,0.85c-0.82,0.57-1.53,1.39-2.12,2.47c-0.59,1.08-1.06,2.46-1.41,4.15c-0.34,1.68-0.52,3.57-0.52,5.67
		c0,2.11,0.17,4.02,0.52,5.73c0.34,1.71,0.83,3.12,1.45,4.25c0.63,1.12,1.35,1.97,2.16,2.52c0.81,0.56,1.7,0.84,2.67,0.84
		c1.24,0,2.38-0.48,3.42-1.45c1.04-0.96,1.87-2.45,2.48-4.46C404.81,629.05,405.12,626.57,405.12,623.63z"/>
</g>
<path d="M767.39,295.95v112.25h-10.89V295.95h-8.58v112.25h-10.88V295.95h-8.6v112.24h-13.82V295.95h-8.6v112.25
	c-7.63,0-15.25,0.01-22.86,0.04c-1.86,0-2.17-0.55-2.17-2.24c0.06-19.02,0.03-38.04,0.07-57.06c0-0.35-0.01-0.65-0.07-0.91v-52.09
	h-15.34v52.12c-0.07,0.27-0.1,0.59-0.1,0.99c0.06,19.02,0.01,38.04,0.08,57.08c0,1.67-0.4,2.11-2.1,2.1
	c-8.43-0.01-16.85-0.03-25.28-0.03V295.95h-8.6v112.24c-10.86,0-21.71,0-32.56,0.03h-0.01V295.95h-8.58v112.25h-11.16V295.95h-15.47
	v417.41h15.47V423.68c2.83-0.01,5.65-0.06,8.47-0.16c0.98-0.04,1.86,0.01,2.69,0.16v281.66c-5.13,4.83-9.25,8.02-9.25,8.02h157.77
	V439.11c0.81-0.65,1.6-1.35,2.35-2.08c3.03-2.96,5.68-6.27,8.53-9.4v285.74h8.58V423.61h0.01c3.63,0.01,7.25,0.01,10.88,0.01v289.74
	h8.58V295.95H767.39z M629.67,671.1c-0.4-0.04-0.81-0.08-1.2-0.14c-11.2-1.7-20.37,11.53-28.85,22.39
	c-0.81,1.03-1.66,2.05-2.52,3.06V430.98c0,0,0,0,0.01,0c2.29,2.86,4.7,5.61,7.41,8.09c4.18,3.81,9.06,6.49,14.08,9.02
	c3.14,1.6,6.36,3.14,9.22,5.25c0.59,0.45,1.22,0.88,1.86,1.29V671.1z M629.67,441.9c-1.02-0.34-2.07-0.61-3.14-0.79
	c-2.32-0.41-4.16-1.61-5.75-3.36c-3.7-4.11-8.24-7.14-12.97-9.9c-1.87-1.09-3.47-2.48-5.51-4.25c2.31,0,4.12-0.01,5.95,0
	c7.12,0,14.28,0,21.43,0.01V441.9z M638.27,423.61c8.48,0,16.97,0,25.45-0.01c1.52-0.01,2.11,0.33,1.9,1.9
	c-0.13,1.03-0.13,2.11,0,3.14c0.2,1.54-0.55,1.78-1.8,1.52c-1.64-0.37-3.24-0.17-4.77,0.47c-1.91,0.81-3.68,1.8-5.79,2.25
	c-1.81,0.4-2.95,2.28-3.82,3.88c-0.75,1.39-1.39,2.92-1.73,4.53c-0.24,1.12-0.01,2.14,0.1,3.23c0.3,2.79,0.67,5.44,4.02,6.61
	c-0.2,0.16-0.4,0.3-0.61,0.45c-0.69-0.47-1.42-0.89-2.08-1.39c-0.86-0.62-1.78-1.13-2.83-1.27c-2.9-0.37-5.52-1.43-8.03-2.75V423.61
	z M662.94,649.21c1.46,1.1,2.79,2.11,2.75,4.55c-0.07,4.02-0.1,8.07-0.1,12.11c-3,0.2-4.9,0.35-4.9,0.35l-9.15,1.69
	c0,0-5.89,2.35-13.27,3.16V458.92c0.31,0.13,0.62,0.23,0.95,0.34c1.6,0.52,3.13,1.23,4.59,2.1c2.28,1.37,3.97,3.13,4.55,5.85
	c0.75,3.53,1.64,7.02,3.58,10.13c0.16,0.24,0.21,0.55,0.24,0.84c0.44,4.55,2.12,8.79,3.14,13.2c0.85,3.74,1.18,7.42-0.58,11.06
	c-0.89,1.83-1.23,3.85-1.46,5.89c-0.28,2.65-0.78,5.3-1.98,7.7c-1.15,2.28-2.78,4.36-2.35,7.15c0.06,0.38-0.01,0.85-0.2,1.18
	c-0.91,1.64-0.68,3.29-0.07,4.9c0.33,0.86,0.24,1.56-0.37,2.24c-1.49,1.64-1.94,3.64-1.95,5.81c-0.01,3.65,0.28,7.32-0.69,10.92
	c-0.21,0.85-0.2,1.73-0.04,2.61c0.45,2.44,0.13,4.72-1.16,6.87c-0.65,1.09-0.92,2.38-0.27,3.51c1.66,2.93,1.49,6.17,1.69,9.35
	c0.16,2.45,0.65,3.31,3,4.06c0.99,0.33,1.98,0.76,2.27,1.73c0.78,2.65,3.06,2.82,5.13,3.3c1.5,0.35,1.94-0.17,1.47-1.7
	c-0.27-0.88-0.71-1.71-1.09-2.56c-0.35-0.79-0.85-1.57-0.79-2.46c0.2-2.62-0.64-5.04-1.4-7.48c-0.78-2.42-0.96-4.86-0.21-7.52
	c0.92,3.53,1.74,6.9,2.71,10.23c1.63,5.62,1.88,11.39,1.36,17.11c-0.54,6.12-0.96,12.15,0.33,18.21c0.96,4.49,2.17,8.92,3.7,13.23
	c2.34,6.64,3.98,13.31,3.3,20.42c-0.1,0.95-0.11,1.86-0.74,2.61c-1.91,2.32-2.25,5.16-2.71,7.96
	C662.07,648.35,662.31,648.73,662.94,649.21z M706.02,666.88c-0.44-0.25-0.85-0.48-1.22-0.67c-2.85-1.52-13.6-1.53-23.78-1.16
	v-10.92c0-1.26,0.03-2.03,1.69-1.87c1.4,0.13,2.86-0.04,4.23-0.71c1.32-0.64,3.65-3.29,3.4-4.33c-0.45-1.83-0.98-3.65-2.45-4.9
	c-1.71-1.46-2.05-3.91-3.97-5.2c-0.16-0.09-0.23-0.42-0.21-0.64c0.25-2.95-0.84-5.83-0.13-8.82c1.19-5.03,2.8-9.93,3.88-15
	c1.15-5.38,2.71-10.66,2.28-16.3c-0.44-5.59-2.04-11.08-1.6-16.78c0.11-1.29-0.06-2.62,0.31-3.91c0.88-3.07,1.83-6.12,2.62-9.21
	c1.59-6.08,1.64-12.32,1.69-18.52c0.03-2.21,0.81-4.18,1.37-6.17c0.55-1.93,1.73-3.64,0.38-5.62c-0.3-0.44-0.21-0.86,0.04-1.3
	c1.42-2.51,1.23-3.77-0.84-5.59c-0.21-0.18-0.5-0.34-0.45-0.68c0.2-1.35-0.52-2.55-0.58-3.89c-0.04-1.23,0.07-2.69-0.74-3.71
	c-0.93-1.19-1.16-2.49-1.29-3.88c-0.17-1.91-0.28-3.82-0.45-5.74c-0.48-5.59,0.01-11.15,0.74-16.68c0.57-4.36,1.27-8.74,1.6-13.11
	c0.16-2.14,0.52-4.09,1.27-6.08c1.23-3.24,2.59-6.49,2.96-9.98c0.38-3.68,2.46-5.88,5.91-6.95c1.12-0.35,2.24-0.75,3.33-1.22V666.88
	z M706.02,445.11c-0.79,0.48-1.6,0.74-2.56,0.75c-4.08,0.06-8.1,0.68-12.08,1.5c-1.43,0.28-2.76,0.85-4.01,1.66
	c-2.01,1.29-4.26,0.86-5.69-1.02c-0.41-0.54-0.64-1.05-0.64-1.74c0.01-7.1,0.01-14.18-0.01-21.27c0-0.88,0.11-1.37,1.2-1.37
	c7.92,0.01,15.86,0.01,23.79,0.01V445.11z M728.44,686.85c-0.78-1.53-1.37-2.82-1.59-3.68c-0.62-2.46-6.46-7.04-12.24-10.93V452.68
	c2.59-1.81,4.96-3.92,7.7-5.52c1.93-1.13,4.05-1.76,6.12-2.62V686.85z M728.44,430.38c-1.83,1.1-3.51,2.39-4.94,3.99
	c-1.56,1.73-3.44,2.95-5.54,3.87c-1.13,0.5-2.25,1.03-3.34,1.6v-16.22c4.62,0.01,9.21,0.01,13.82,0.01V430.38z"/>
</svg>
