<?xml version="1.0" encoding="utf-8"?>
<!-- Generator: Adobe Illustrator 25.3.0, SVG Export Plug-In . SVG Version: 6.00 Build 0)  -->
<svg version="1.1" id="Layer_1" xmlns="http://www.w3.org/2000/svg" xmlns:xlink="http://www.w3.org/1999/xlink" x="0px" y="0px"
	 viewBox="0 0 841.89 1190.55" style="enable-background:new 0 0 841.89 1190.55;" xml:space="preserve">
<style type="text/css">
	.st0{fill:#FFFFFF;}
</style>
<path d="M442.21,450.52l16.4,15.31c0,0-38.9,44.33-50.16,28.44C397.2,478.38,442.21,450.52,442.21,450.52z"/>
<path d="M272.68,435.6c0,0-2.06-40.68,27.22-67.75c0,0,14.44-13.23,23.86-2.21c9.42,11.03-6.82,34.89-22.06,50.73
	C286.46,432.22,272.68,435.6,272.68,435.6z"/>
<path d="M458.61,465.83c0,0-38.9,44.33-50.16,28.44c-11.26-15.89,33.75-43.75,33.75-43.75L458.61,465.83z"/>
<path d="M458.61,465.83c0,0-38.8,40.52-50.16,28.44c-13.33-14.19,33.75-43.75,33.75-43.75L458.61,465.83z"/>
<path d="M712.64,435.65l-4.29-4.6l-5.81,1.84l0.3,4.9l-3.05,6.43l-21.43,2.45l-36.41-20.51h-9.19v2.75h-14.08v-6.12h20.51
	c0,0-50.81-20.5-38.56-52.34c12.24-31.82,33.05-27.85,33.05-27.85s-6.24,3.7-12.99,13.17l26.62-0.02v-3.8h-8.65v-3.78h8.28v-4.14
	h7.21c0,0,11.52-0.72,13.69,4.5c2.16,5.22,10.8,8.29,10.8,8.29h8.47v5.76c0,0-9.01,0.9-14.22,0c-5.2-0.9-10.28-10.45-10.28-10.45
	H651.3v10.45h-33.01c-5.7,9.8-7.47,21.2,4.05,32.31c24.9,23.98,66.35,39.21,67.05,39.46c-0.24-0.23-9.74-7.63-4.91-11.25
	c4.9-3.68,11.02,2.44,11.02,2.44l0.62,9.19l6.72-5.2l0.92-7.96h5.2l3.68,9.48h7.04l6.42-9.79v-4.28h3.99v-4.29h8.26v-22.34
	l-5.2-3.37l-4.9-7.34l-0.61-7.96h9.18v-11.02h-32.14l-1.22,5.82l-5.21-2.14c0,0-5.2-24.49-30.9-28.16H509.12l-2.45-9.18
	c0,0,1.48-187.84-2.25-214.73c0,0-8.69-8.69-18.62-8.69h-6.62l3.31,10.34H458.5v9.93h-68.69l-1.65,11.18c0,0-15.72-2.07-16.96-21.52
	l-11.59-4.96l-20.78,1.31c0,0,14.66,79.17-16.85,237.49c0,0,21.59,0.55,12.91,35.31C326.2,417.42,274.47,453,274.47,453
	s27.63,39.22,88.14-33.1c0,0,7.3-8.39,11.02-3.84c3.73,4.56-20.95,31.57-34.19,43.15c-8.79,7.68-17.94,14.76-29.38,17.95
	c-7.58,2.11-15.53,2.5-23.34,1.79c-9.86-0.91-18.09-5.26-23.43-13.73c-18.61-29.59-4.18-65.11,11.18-92.49
	c0,0,9.52-15.72,17.39-21.1l-82.35,3.72c0,0-23.99-167.15-31.85-191.15c0,0-16.55,3.31-21.52,12L188,357.83l-88.83,7.67l20.92,32.15
	h23.24l6.97,13.56l-13.55,1.16v15.11l-43,1.55l5.03,17.43l4.26,1.94c0,0,1.55,26.73,22.09,40.29h17.82c0,0-29.06,72.44,20.14,98.01
	c0,0,52.29,16.26,65.46-24.41c0,0,6.24-8.49-0.34-52.34l110.75-5.38l-7.87,329.48h8.2v-42.7l7.6-1.18l-0.58,64.96l4.47,2.06v11.49
	l-4.4,0.97l-0.49,24.68h7.33l-0.8,45.48h5.08l2.03-30.12l4.06,3.72l4.06,96.79h5.75v-20.98l6.43-1.02v-6.77h8.46v15.91h5.75v-28.76
	h8.81v-125.9h3.04v37.91h2.1l0.84,7.55v17.88h-1.73v20.59h1.92v41.93h-1.92v32.32h4.32v31.35h6.06v-19.62h-2.5v-44.05h-1.15v-80.4
	l-1.17-7.55v-141.8h7.44v277.5h4.4l2.03,24.02h3.4v-22.33h4.72v22.33h5.42v-64.29l4.4,1.35v8.12h5.08V755.04h3.72v8.46l3.38,5.41
	l0.42,57.64h2.42l-0.02,8.12v12.08l0.48,12.08c0,0,0.91,10.61,0.02,13.26c-0.88,2.65-2.5,2.5-2.5,2.5v16.35h1.29v12.04h-3.65v5.17
	h3.65v4.03h1.63v7.25h-4.28v5.36h3.69v8.36l-2.15,0.13v7.44h2.84v4.48h-1v16.22h3.02v5.57h-2.02v12.92h3.65v4.04h3.65v-16.96h-1
	V945.2h-1.14v-4.48h2.04v-8.04l-2.47,0.15l-0.07-4.47v-3.42h4.54v-8.93h-1.98v-7.99h3.66v-5.8h-3.91v-4.28l0.2-7h2.03v-4.42h-3.83
	l-0.01-27.69v-12.08h3.19v4.13h3.83v-8.1h-6.7v-9.58l0.49-6.65h0.85v-5.94h-5.14v-9.49h5.14v-22.94h-5.79l0.4-191.44h5.39v18.2h7.92
	V698l7.12-2.77l1.97-28.48h5.14l-3.55,37.18l-12.45,7.17v5.14l16-0.05v7.52h-16l-3.53,8.78v7.92l5.3-0.48l2.37-8.32l2.77,3.57
	l-2.38,9.89l-8.58,5.92v24.92l9.37,2.77V787l-2.41-0.15v35.99l4.29,0.14v48.03h-5.28v16.53h3.37v26.03h-5.97v20.6h5.43l0.27,20.61
	v21.41h6.5l1.09-56.93l1.89-38.22l8.68-136.6l10.88-116.62V493.43l99.58-5.1v-6.17l-8.14-1.13l-0.57-3.09l8.71-1.68v-5.05h-11.51
	l3.93-3.65l12.91-1.12l1.4-5.34l23.02-0.56l10.1,0.29c0,0-0.56-4.78-1.4-4.78c-0.85,0-23.02-0.28-23.02-0.28l1.41-5.05l47.43-0.56
	v3.93c0,0-55.34,26.85-22.59,51.64c0,0,29.38,10.1,49.89-17.14c20.5-27.23,6.73-41.92,6.73-41.92l-1.22-2.76h40.09v-2.45l3.67-1.22
	v-4.59H712.64z M215.52,407.24c6.99,52.05,11.97,100.85,11.97,100.85l-16.31-8.02c0,0,5.05,36.14,2.88,49.64
	c-2.16,13.49-25.29,32.04-49.87,11.08s-5.54-71.81-5.54-71.81l44.95-1.8l2.61,6.88l4.15,1.45l-10.81-77.24
	c-24.36,24.64-40.48,67.76-40.48,67.76l-14.69,0.12c20.21-62.64,52.95-83.78,52.95-83.78l-7.36-40.85l19.23-3.03l4.44,30.25
	c0,0,31.03-22.16,39.22-26.02c8.19-3.85,9.15,0,9.15,0C239.36,376.94,215.52,407.24,215.52,407.24z M618.1,441.77
	c0,0-19.31,29.44-41.05,31.38c-21.73,1.96-19.05-22.8-19.05-36.48s-5.36-13.16-5.36-13.16l-4.29,13.16c0,0-15.83,45.07-35.68,46.95
	c-19.86,1.88-18.25-10.73-18.25-10.73v-55.27l-40.51,23.08l3.22,2.41c17.71,10.73,15.13,23.13,15.13,23.13
	c-8.49,16.23-20.45,32.4-37.69,39.98c-11.99,5.27-33.2,8.11-41.68-4.66c-9.75-14.67,6.56-31.47,17.18-40.18
	c7.21-5.93,15.14-11.29,23.45-15.59c0,0-49.64-30.05-67.61-46.54c-17.98-16.51-7.24-51.92,27.9-60.77
	c35.15-8.86,64.13,21.11,64.13,21.11c3.66,11.67-8.77,5.13-8.77,5.13s-52.13-33.97-72.31,1.87c-8.9,15.82,5.55,32.55,24.54,43.31
	c23.3,13.21,45.39,26.81,45.39,26.81l47.35-27.33v-78.54h8.99v9.89h5.7c0,0-0.31,97.13,0,110.91c0.3,13.79,10.46,10.14,10.46,10.14
	C559.1,402.4,553.98,366,553.98,366s-6.35-3.17-1.71-6.35c4.64-3.17,16.37-1.71,18.57,0.49c2.19,2.2-2.2,6.35-2.2,6.35l-0.98,44.43
	c0,0-3.96,58.17,15.3,50.17c19.24-8.01,23.07-20.39,29.95-22.81C619.8,435.86,618.1,441.77,618.1,441.77z M653.72,492.89
	c-12.33-16.3,26.55-35.95,26.55-35.95c5.41-3.04,13.8-0.83,14.21,7.53C694.91,472.83,666.06,509.2,653.72,492.89z"/>
</svg>
