<?xml version="1.0" encoding="utf-8"?>
<!-- Generator: Adobe Illustrator 25.3.0, SVG Export Plug-In . SVG Version: 6.00 Build 0)  -->
<svg version="1.1" id="Layer_1" xmlns="http://www.w3.org/2000/svg" xmlns:xlink="http://www.w3.org/1999/xlink" x="0px" y="0px"
	 viewBox="0 0 841.89 1190.55" style="enable-background:new 0 0 841.89 1190.55;" xml:space="preserve">
<style type="text/css">
	.st0{fill:#E53912;}
	.st1{fill:#E0579A;}
	.st2{fill:#47B069;}
	.st3{fill:#6B7EAD;}
	.st4{fill:#FFFFFF;}
</style>
<g>
	<path d="M144.16,592.54c0.44-0.68,0.22-1.45,0.25-2.17c0.34-9.08,1.07-18.12,1.93-27.16c0.9-9.4,2.08-18.77,3.46-28.11
		c2.6-17.57,5.93-35.01,10.17-52.27c5.03-20.44,11.09-40.56,18.38-60.3c5.46-14.8,11.48-29.37,18.41-43.55
		c1.89-3.87,3.89-7.68,5.88-11.5c1.15-2.22,2.97-3.63,5.45-4.13c0.32-0.06,0.63-0.15,0.95-0.22c3.56-0.84,3.66-0.84,3.81-4.43
		c0.15-3.55,1.69-5.98,4.72-7.91c9.91-6.31,20.46-10.89,32.08-12.92c8.09-1.41,16.21-1.59,24.36-0.79
		c3.92,0.38,7.81,0.92,11.66,1.75c2.59,0.55,4.19,2.43,4.23,5.09c0.02,1.39,0.05,2.78-0.01,4.17c-0.04,0.85,0.2,1.15,1.09,1.05
		c6.62-0.8,13.23-1.62,19.86-2.32c7.28-0.77,14.56-1.49,21.85-2.1c8.17-0.68,16.35-1.28,24.53-1.81c6.47-0.42,12.95-0.7,19.43-1.02
		c11.8-0.59,23.61-0.8,35.43-0.98c13.63-0.21,27.25,0.05,40.87,0.4c11.12,0.29,22.22,0.8,33.32,1.49
		c11.37,0.7,22.73,1.58,34.07,2.65c11.11,1.06,22.21,2.21,33.27,3.67c1,0.13,1.3-0.17,1.23-1.16c-0.08-1.2-0.03-2.41-0.02-3.62
		c0.02-3.1,1.47-4.94,4.51-5.57c9.67-2,19.44-2.75,29.29-1.81c14.05,1.34,26.84,6.2,38.66,13.88c2.92,1.9,4.51,4.26,4.58,7.7
		c0.01,0.37,0.08,0.74,0.13,1.1c0.42,2.75,0.39,2.91,3.17,3.34c3.75,0.57,6.05,2.61,7.77,5.93c8.75,16.86,16.23,34.27,22.86,52.05
		c7.43,19.94,13.62,40.26,18.73,60.92c3.38,13.7,6.2,27.51,8.54,41.42c1.86,11.05,3.42,22.14,4.65,33.27
		c1.28,11.56,2.29,23.14,2.62,34.77c0.01,0.42-0.02,0.84,0.24,1.2c0,7.6,0,15.21,0,22.81c-0.51,2.45-0.36,4.96-0.54,7.44
		c-1.19,16.64-3.69,33-10.3,48.49c-1.82,4.26-3.91,8.37-6.33,12.34c-5.09,8.35-12.29,13.76-21.74,16.33
		c-9.61,2.62-19.33,4.62-29.22,5.77c-2.8,0.33-5.65,0.65-8.45,0.21c-4.14-0.66-7.03-3.38-9.56-6.47
		c-4.78-5.83-7.92-12.6-10.87-19.46c-4.63-10.76-7.96-21.97-11.49-33.11c-4.79-15.15-10.44-29.96-18.56-43.7
		c-4.65-7.86-10-15.17-17.45-20.68c-5.11-3.78-10.77-6.11-17.21-6.23c-3.59-0.07-7.1,0.57-10.53,1.6c-5.96,1.78-12.06,2.4-18.25,2.4
		c-49.28,0-98.57-0.01-147.85-0.02c-9.78,0-19.56,0.02-29.35-0.01c-6.11-0.02-12.06-1.06-17.93-2.73c-11-3.13-20.54-0.17-28.97,7.17
		c-7.31,6.37-12.56,14.31-17.13,22.74c-7.09,13.06-12.27,26.91-16.66,41.06c-3.56,11.48-7.16,22.95-12.03,33.96
		c-2.64,5.98-5.56,11.82-9.74,16.91c-2.53,3.09-5.38,5.84-9.52,6.55c-2.8,0.48-5.65,0.14-8.45-0.18
		c-10.12-1.17-20.06-3.23-29.89-5.94c-10.19-2.81-17.34-9.17-22.45-18.18c-5.85-10.32-9.67-21.36-12.03-32.95
		c-2.15-10.55-3.22-21.22-3.67-31.97c-0.02-0.45,0.13-0.94-0.23-1.33C144.16,607.74,144.16,600.14,144.16,592.54z M696.12,604.02
		c0.06-8.35-0.32-16.07-0.8-23.8c-0.83-13.37-2.37-26.65-4.19-39.91c-2.04-14.9-4.64-29.7-7.9-44.38
		c-5.18-23.35-11.78-46.29-19.93-68.78c-7.08-19.55-15.15-38.66-24.83-57.08c-0.79-1.49-1.87-2.27-3.49-2.61
		c-5.43-1.12-10.84-2.35-16.27-3.47c-10.47-2.15-20.99-3.99-31.54-5.69c-9.87-1.59-19.77-2.94-29.67-4.33
		c-7.8-1.09-13.91,2.68-16.11,10.28c-2.46,8.48-4.21,17.14-6.07,25.76c-3.15,14.64-6.1,29.32-9.05,44
		c-0.94,4.69-1.36,9.32-0.54,14.05c1.62,9.46,6.14,17.46,12.77,24.18c11.2,11.37,21.1,23.74,29.67,37.18
		c18.17,28.53,33.22,58.66,46.19,89.87c8.38,20.16,15.12,40.89,21.67,61.7c2.57,8.15,5.02,16.36,8.46,24.21
		c1.92,4.37,4.53,8.28,8.08,11.52c0.6,0.55,1.15,0.76,1.99,0.49c1.59-0.5,3.22-0.82,4.83-1.26c5.08-1.4,9.93-3.24,13.88-6.96
		c4.5-4.24,7.59-9.43,10.28-14.89c6.8-13.81,9.84-28.62,11.43-43.79C695.89,621.39,696.24,612.41,696.12,604.02z M148.57,604.07
		c-0.1,13.97,0.81,28.5,3.67,42.87c2.31,11.6,6.01,22.69,12.05,32.92c3.35,5.67,7.45,10.63,13.6,13.49
		c3.84,1.78,7.95,2.72,12.01,3.83c1.11,0.3,1.82,0.01,2.58-0.72c3.58-3.47,6.22-7.56,8.14-12.15c2.59-6.19,4.65-12.56,6.69-18.94
		c4.58-14.3,8.9-28.68,14.05-42.79c13-35.64,29.09-69.82,48.51-102.42c9.44-15.85,19.98-30.88,32.8-44.2
		c3.67-3.81,7.34-7.59,10.15-12.12c3.84-6.2,6.27-12.84,6.65-20.2c0.27-5.13-1.14-10-2.11-14.93c-2.96-15.06-6.06-30.08-9.35-45.07
		c-1.45-6.59-2.86-13.19-4.76-19.67c-1.94-6.59-6.85-10.31-13.7-10.11c-4.77,0.14-9.47,1.08-14.19,1.75
		c-12.97,1.84-25.9,3.91-38.77,6.32c-9.09,1.7-18.14,3.56-27.16,5.58c-1.4,0.31-2.41,1-3.06,2.32c-1.89,3.81-3.93,7.55-5.78,11.39
		c-9.68,20.1-17.8,40.83-24.74,62.04c-7.72,23.58-13.78,47.58-18.3,71.97c-3.21,17.35-5.57,34.82-7.22,52.39
		C149.21,579.53,148.53,591.46,148.57,604.07z M422.31,459.41c0,0.01,0,0.03,0,0.04c19.38,0,38.76,0.02,58.14-0.01
		c4.35-0.01,8.71,0.02,13.03-0.7c3.71-0.62,7.36-1.42,10.4-3.88c4.49-3.63,7.56-8.26,9.39-13.67c1.85-5.48,2.69-11.23,3.91-16.87
		c2.76-12.74,5.42-25.51,8.04-38.28c1.8-8.75,3.62-17.49,4.98-26.32c0.83-5.37-1.83-8.92-7.22-9.6c-1.93-0.24-3.87-0.37-5.81-0.53
		c-7.71-0.63-15.42-1.31-23.13-1.85c-7.16-0.5-14.33-0.89-21.5-1.26c-16.01-0.82-32.04-1.21-48.08-1.25
		c-13.95-0.04-27.9,0.21-41.83,0.81c-8.28,0.36-16.57,0.7-24.85,1.22c-9.57,0.61-19.13,1.4-28.69,2.15
		c-2.86,0.22-5.73,0.49-8.57,0.84c-4.19,0.52-6.79,4.7-6.03,9.54c1.25,8,2.85,15.93,4.49,23.85c3.43,16.56,6.98,33.11,10.43,49.67
		c1.07,5.14,2.33,10.19,5.28,14.64c2.89,4.36,6.3,8.12,11.56,9.68c4.71,1.39,9.55,1.76,14.42,1.76
		C381.23,459.43,401.77,459.41,422.31,459.41z M478.14,519.78c0,17.96,14.46,32.53,32.3,32.55c18.28,0.02,32.79-14.49,32.8-32.8
		c0.01-17.44-14.75-32.28-32.08-32.26C492.63,487.28,478.13,501.55,478.14,519.78z M333.9,552.32
		c17.71,0.05,32.47-14.45,32.54-31.94c0.07-18.57-14.32-33.1-32.79-33.13c-17.36-0.02-32.1,14.64-32.36,31.77
		C301,537.21,315.67,552.42,333.9,552.32z"/>
	<path d="M553.82,463.76c-10.87,0-19.58-8.69-19.51-19.47c0.07-10.68,8.75-19.38,19.36-19.4c10.84-0.02,19.78,8.91,19.61,19.59
		C573.11,455.27,564.53,463.77,553.82,463.76z M568.79,444.11c-0.18-8.25-7.05-14.97-15.13-14.79c-8.54,0.19-15.08,7.05-14.88,15.59
		c0.19,7.99,7.09,14.61,15.12,14.51C562.23,459.32,568.98,452.38,568.79,444.11z"/>
	<path d="M635.66,463.78c-11.01-0.05-19.46-8.68-19.41-19.82c0.04-10.52,8.92-19.09,19.7-19.02c10.67,0.07,19.33,8.91,19.24,19.65
		C655.1,455.23,646.35,463.83,635.66,463.78z M635.7,459.41c8.25,0,15.02-6.78,15.04-15.04c0.02-8.24-6.95-15.15-15.18-15.07
		c-8.15,0.08-14.86,6.9-14.86,15.08C620.7,452.65,627.45,459.41,635.7,459.41z"/>
	<path d="M594.81,465.93c10.47-0.06,19.34,8.58,19.37,18.88c0.03,11.17-8.41,19.92-19.29,19.98c-10.63,0.06-19.51-8.56-19.57-19
		C575.24,474.54,583.64,465.99,594.81,465.93z M594.79,500.3c8.19,0.02,14.94-6.69,15.01-14.9c0.06-8.22-6.76-15.12-14.97-15.14
		c-8.32-0.03-15.09,6.73-15.11,15.1C579.7,493.6,586.44,500.28,594.79,500.3z"/>
	<path d="M575.32,403.35c0.05-10.78,8.72-19.42,19.45-19.39c10.76,0.03,19.38,8.76,19.43,19.46c0.05,10.78-9.1,19.94-20.4,19.44
		C583.16,422.38,575.12,413.28,575.32,403.35z M579.71,403.37c0.01,8.33,6.67,15.05,14.97,15.08c8.25,0.03,15.12-6.77,15.12-14.97
		c0.01-8.3-6.83-15.11-15.15-15.09C586.48,388.41,579.7,395.2,579.71,403.37z"/>
	<path d="M541.27,389.35c0.25-2.5,1.14-5.34,1.66-8.25c0.28-1.55,0.65-3.08,0.99-4.61c0.98-4.38,4.8-7.25,9.11-6.87
		c4.54,0.4,7.92,3.85,8.06,8.38c0.03,1.09-0.27,2.2-0.49,3.28c-0.72,3.53-1.44,7.06-2.24,10.58c-0.95,4.18-5.07,7.1-9.18,6.6
		C544.48,397.88,541.25,394.35,541.27,389.35z M556.67,378.62c-0.01-2.57-1.68-4.36-3.97-4.63c-2.05-0.24-4.03,1.32-4.55,3.65
		c-0.59,2.66-1.17,5.33-1.68,8.01c-0.28,1.49-0.86,2.96-0.77,4.49c0.12,2.09,1.81,3.72,3.85,3.91c2.05,0.19,3.89-1.06,4.45-3.19
		c0.52-1.96,0.9-3.96,1.33-5.95C555.81,382.7,556.27,380.48,556.67,378.62z"/>
	<path d="M218.4,426.77c3.37,0.25,6.76,0.36,10.11,0.79c3.16,0.4,5.84,1.95,8.1,4.22c2.42,2.43,4.9,4.8,7.32,7.23
		c2.89,2.89,2.89,6.76,0,9.62c-2.66,2.65-5.32,5.29-8.05,7.87c-2.44,2.31-5.42,3.57-8.74,3.83c-4.48,0.36-8.97,0.58-13.46,0.77
		c-5.21,0.22-9.93-3.71-10.29-8.92c-0.38-5.59-0.39-11.22,0.01-16.81c0.37-5.11,5.26-9.09,10.39-8.84c1.53,0.08,3.05,0.19,4.58,0.29
		C218.4,426.81,218.4,426.79,218.4,426.77z M207.63,443.81c0,2.22-0.02,4.45,0,6.67c0.03,3.91,2.86,6.44,6.74,6.16
		c3.69-0.27,7.39-0.54,11.08-0.64c3.23-0.09,5.93-1.22,8.19-3.48c2.33-2.32,4.67-4.62,7-6.95c1.3-1.3,1.3-2.22-0.03-3.54
		c-2.53-2.51-5.04-5.05-7.62-7.5c-1.83-1.74-4.06-2.68-6.61-2.82c-3.93-0.22-7.85-0.43-11.78-0.72c-4-0.29-6.93,2.3-6.98,6.29
		C207.61,439.46,207.63,441.63,207.63,443.81z"/>
	<path d="M251.49,396.16c2.37,0.15,5.25-0.24,8.1,0.21c4.99,0.78,8.79,5.17,8.55,10.21c-0.23,4.99-0.29,10-0.97,14.95
		c-0.44,3.21-2.08,5.89-4.36,8.18c-2.38,2.4-4.76,4.8-7.13,7.21c-2.66,2.68-6.48,2.92-9.2,0.32c-3.05-2.91-6.03-5.9-8.82-9.05
		c-2.07-2.33-3.08-5.26-3.3-8.38c-0.31-4.34-0.55-8.68-0.77-13.02c-0.28-5.77,4.4-10.52,10.46-10.62
		C246.36,396.13,248.68,396.16,251.49,396.16z M251.02,400.63c-2.18,0-4.36-0.01-6.53,0c-4.27,0.02-6.67,2.63-6.39,6.9
		c0.24,3.65,0.51,7.3,0.61,10.95c0.08,3.08,1.11,5.69,3.25,7.87c2.4,2.45,4.81,4.88,7.24,7.3c1.23,1.23,2.15,1.26,3.34,0.07
		c2.66-2.65,5.32-5.29,7.9-8.02c1.4-1.47,2.3-3.32,2.47-5.33c0.39-4.56,0.67-9.14,0.85-13.72c0.13-3.39-2.52-5.99-5.92-6.03
		C255.56,400.61,253.29,400.63,251.02,400.63z"/>
	<path d="M250.9,491.36c-2.73,0-5.48,0.18-8.2-0.04c-5.05-0.41-9.08-4.54-9.06-9.57c0.02-5.22,0.27-10.46,0.94-15.65
		c0.36-2.8,1.67-5.29,3.63-7.35c2.59-2.72,5.22-5.39,7.88-8.04c2.69-2.69,6.79-2.7,9.46-0.02c2.65,2.65,5.29,5.32,7.88,8.04
		c2.49,2.62,3.73,5.8,3.95,9.39c0.24,3.97,0.43,7.95,0.75,11.92c0.51,6.36-4.05,11.39-10.42,11.4c-2.27,0-4.54,0-6.81,0
		C250.9,491.41,250.9,491.38,250.9,491.36z M250.81,487.06c2.13,0,4.26,0,6.39,0c4.3-0.01,6.82-2.73,6.53-6.98
		c-0.27-3.93-0.51-7.85-0.74-11.78c-0.15-2.55-1.08-4.78-2.84-6.61c-2.47-2.57-4.99-5.1-7.5-7.63c-1.31-1.32-2.23-1.32-3.54,0
		c-2.55,2.56-5.1,5.12-7.6,7.72c-1.62,1.69-2.55,3.78-2.72,6.1c-0.32,4.2-0.5,8.41-0.71,12.62c-0.19,3.9,2.3,6.52,6.21,6.56
		C246.45,487.08,248.63,487.06,250.81,487.06z"/>
	<path d="M298.53,443.86c0,2.45,0.08,4.91-0.02,7.36c-0.2,5.44-4.37,9.76-9.75,9.81c-5.09,0.04-10.18-0.32-15.24-0.87
		c-3.16-0.34-5.87-1.82-8.15-4.1c-2.48-2.49-5.04-4.91-7.54-7.39c-2.89-2.88-2.93-6.71-0.05-9.61c2.74-2.76,5.48-5.53,8.35-8.14
		c2.39-2.17,5.31-3.36,8.54-3.58c4.34-0.3,8.68-0.52,13.03-0.75c5.82-0.31,10.59,4.05,10.79,9.91
		C298.6,438.94,298.53,441.4,298.53,443.86z M294.1,443.9c0-2.32,0.03-4.63-0.01-6.95c-0.05-3.67-2.91-6.2-6.54-5.94
		c-3.93,0.29-7.86,0.53-11.79,0.7c-2.87,0.12-5.31,1.17-7.35,3.15c-2.46,2.38-4.88,4.82-7.31,7.23c-1.31,1.31-1.33,2.23,0,3.54
		c2.53,2.51,5.05,5.04,7.64,7.49c1.87,1.77,4.15,2.7,6.76,2.84c4.02,0.21,8.04,0.42,12.06,0.7c3.65,0.25,6.5-2.29,6.54-5.95
		C294.13,448.44,294.1,446.17,294.1,443.9z"/>
	<path d="M283.49,379.1c-0.03-5.16,3.06-8.81,7.29-9.4c4.57-0.64,8.66,1.96,9.73,6.36c1,4.13,1.9,8.29,2.69,12.46
		c0.79,4.17-1.95,8.41-6,9.59c-4.31,1.25-9.04-0.68-10.47-4.78C285.04,388.49,284.43,383.36,283.49,379.1z M298.85,389.65
		c-0.02-0.19-0.03-0.57-0.11-0.93c-0.79-3.7-1.59-7.41-2.4-11.11c-0.53-2.44-2.64-4.02-4.79-3.6c-2.52,0.49-4.04,2.51-3.55,5.08
		c0.76,3.99,1.62,7.97,2.56,11.93c0.48,2.04,2.6,3.27,4.73,2.97C297.3,393.71,298.85,391.89,298.85,389.65z"/>
</g>
<g>
	<path d="M270.05,291.8c0,1.24-0.41,2.2-1.24,3.02l-18.26,17.16c-0.96,0.96-2.33,1.51-3.84,1.51h-51.76c-1.37,0-2.06-0.69-2.06-2.2
		v-10.71c0-1.51,0.69-2.2,2.06-2.2h36.65c1.1,0,2.06-0.41,2.75-1.1l8.51-7.96c0.69-0.69,0.96-1.37,0.96-2.2v-66.31
		c0-1.51,0.69-2.2,2.2-2.2h21.83c1.51,0,2.2,0.69,2.2,2.2V291.8z"/>
	<path d="M366,277.11c0,2.61-1.37,3.98-3.98,3.98h-59.17v10.71c0,0.96,0.27,1.78,0.69,2.2l7.14,7.14c0.41,0.41,0.96,0.55,1.92,0.55
		h51.21c1.51,0,2.2,0.69,2.2,2.2v7.41c0,1.51-0.69,2.2-2.2,2.2h-63.42c-1.24,0-2.2-0.41-2.88-1.1l-13.73-14
		c-0.82-0.82-1.1-1.65-1.1-2.61V252.4c0-1.1,0.41-2.06,1.24-2.88l10.02-9.88c0.96-0.96,2.06-1.51,3.16-1.51h64.93
		c2.61,0,3.98,1.37,3.98,3.98V277.11z M310.68,250.34c-0.82,0-1.51,0.27-2.06,0.82l-4.8,4.67c-0.69,0.69-0.96,1.37-0.96,2.33v13.87
		H345c1.51,0,2.33-0.69,2.33-2.06v-17.43c0-1.51-0.82-2.2-2.33-2.2H310.68z"/>
	<path d="M461,246.5c0,1.51-0.69,2.2-2.2,2.2h-54.36c-0.96,0-1.65,0.27-2.33,0.96l-3.71,3.98c-0.55,0.55-0.82,1.24-0.82,1.92v6.45
		c0,1.24,0.27,2.06,0.96,2.75l2.75,3.29c0.82,0.82,1.65,1.24,2.61,1.24h44.48c2.06,0,3.71,0.69,4.94,1.92l7.41,7.55
		c0.96,0.96,1.37,2.2,1.37,3.98v16.75c0,0.96-0.41,1.78-1.24,2.61l-10.16,9.88c-0.96,0.96-2.33,1.51-3.84,1.51h-66.99
		c-1.37,0-2.06-0.69-2.06-2.2v-6.18c0-1.51,0.69-2.2,2.06-2.2h55.19c1.1,0,2.06-0.41,2.75-1.1l4.39-4.12
		c0.41-0.41,0.69-0.96,0.69-1.37v-7.96c0-0.69-0.27-1.24-0.69-1.65l-4.67-4.12c-0.41-0.41-1.1-0.69-1.92-0.69h-44.62
		c-1.1,0-2.06-0.41-2.88-1.24l-8.1-8.1c-0.82-0.82-1.24-1.92-1.24-3.16v-17.3c0-1.1,0.41-2.06,1.1-2.75l9.75-10.16
		c0.69-0.69,1.65-1.1,2.75-1.1h66.44c1.51,0,2.2,0.69,2.2,2.2V246.5z"/>
	<path d="M558.05,298.39c0,0.96-0.41,1.92-1.1,2.75l-11.26,11.26c-0.69,0.69-1.65,1.1-2.75,1.1h-53.54c-1.24,0-2.2-0.41-2.88-1.1
		l-10.98-11.26c-0.69-0.96-1.1-1.78-1.1-2.75v-58.07c0-1.51,0.69-2.2,2.06-2.2h15.92c1.51,0,2.2,0.69,2.2,2.2v53.4
		c0,0.82,0.27,1.51,0.96,2.2l4.8,4.94c0.69,0.55,1.1,0.82,1.51,0.82h29.24c0.41,0,0.96-0.41,1.65-1.1l4.81-4.8
		c0.41-0.41,0.82-0.96,0.96-1.37v-54.09c0-1.51,0.69-2.2,2.2-2.2h15.1c1.51,0,2.2,0.69,2.2,2.2V298.39z M546.38,215.47
		c0,1.1-0.55,1.78-1.65,2.06l-47.64,12.9c-0.27,0.14-0.96,0.27-1.37,0.27c-1.24,0-1.78-0.69-1.78-2.2v-4.8
		c0-1.1,0.69-1.92,1.92-2.33l46.4-13.32c0.96-0.27,1.78-0.41,2.33-0.41c1.24,0,1.78,0.69,1.78,2.2V215.47z"/>
	<path d="M652.63,246.5c0,1.51-0.69,2.2-2.2,2.2h-54.36c-0.96,0-1.65,0.27-2.33,0.96l-3.71,3.98c-0.55,0.55-0.82,1.24-0.82,1.92
		v6.45c0,1.24,0.27,2.06,0.96,2.75l2.75,3.29c0.82,0.82,1.65,1.24,2.61,1.24H640c2.06,0,3.71,0.69,4.94,1.92l7.41,7.55
		c0.96,0.96,1.37,2.2,1.37,3.98v16.75c0,0.96-0.41,1.78-1.24,2.61l-10.16,9.88c-0.96,0.96-2.33,1.51-3.84,1.51H571.5
		c-1.37,0-2.06-0.69-2.06-2.2v-6.18c0-1.51,0.69-2.2,2.06-2.2h55.19c1.1,0,2.06-0.41,2.75-1.1l4.39-4.12
		c0.41-0.41,0.69-0.96,0.69-1.37v-7.96c0-0.69-0.27-1.24-0.69-1.65l-4.67-4.12c-0.41-0.41-1.1-0.69-1.92-0.69h-44.62
		c-1.1,0-2.06-0.41-2.88-1.24l-8.1-8.1c-0.82-0.82-1.24-1.92-1.24-3.16v-17.3c0-1.1,0.41-2.06,1.1-2.75l9.75-10.16
		c0.69-0.69,1.65-1.1,2.75-1.1h66.44c1.51,0,2.2,0.69,2.2,2.2V246.5z"/>
</g>
<g>
	<path d="M353.06,626.34c0,0.94-0.43,1.36-1.28,1.36H329.6v48.2c0,0.94-0.51,1.36-1.37,1.36h-13.65c-0.85,0-1.28-0.43-1.28-1.36
		v-48.2h-22.26c-0.85,0-1.37-0.43-1.37-1.36v-6.65c0-0.85,0.51-1.37,1.37-1.37h60.74c0.85,0,1.28,0.51,1.28,1.37V626.34z"/>
	<path d="M371.31,624.46c0,0.85-0.43,1.28-1.36,1.28h-9.81c-0.85,0-1.28-0.43-1.28-1.28v-8.7c0-0.85,0.43-1.37,1.28-1.37h9.81
		c0.94,0,1.36,0.51,1.36,1.37V624.46z M371.31,675.9c0,0.94-0.43,1.36-1.36,1.36h-9.81c-0.85,0-1.28-0.43-1.28-1.36v-44.1
		c0-0.85,0.43-1.37,1.28-1.37h9.81c0.94,0,1.36,0.51,1.36,1.37V675.9z"/>
	<path d="M431.37,654.66c0,1.62-0.85,2.47-2.47,2.47h-36.77v6.65c0,0.6,0.17,1.11,0.43,1.36l4.44,4.44c0.26,0.26,0.6,0.34,1.19,0.34
		H430c0.94,0,1.37,0.43,1.37,1.36v4.61c0,0.94-0.43,1.36-1.37,1.36h-39.41c-0.77,0-1.36-0.26-1.79-0.68l-8.53-8.7
		c-0.51-0.51-0.68-1.02-0.68-1.62v-26.96c0-0.68,0.26-1.28,0.77-1.79l6.23-6.14c0.6-0.6,1.28-0.94,1.96-0.94h40.35
		c1.62,0,2.47,0.85,2.47,2.47V654.66z M396.99,638.03c-0.51,0-0.94,0.17-1.28,0.51l-2.99,2.9c-0.43,0.43-0.6,0.85-0.6,1.45v8.62
		h26.19c0.94,0,1.45-0.43,1.45-1.28v-10.83c0-0.94-0.51-1.36-1.45-1.36H396.99z"/>
	<path d="M492.18,637.51c0.51,0.51,0.77,1.19,0.77,1.96v36.42c0,0.94-0.43,1.36-1.36,1.36h-9.81c-0.94,0-1.37-0.43-1.37-1.36v-33.18
		c0-0.43-0.17-0.77-0.43-1.02l-3.16-3.24c-0.26-0.26-0.68-0.43-1.11-0.43H463.1c-0.77,0-1.45,0.09-2.22,0.26l-7.08,1.79
		c-0.77,0.17-1.19,0.68-1.19,1.54v34.29c0,0.94-0.43,1.36-1.28,1.36h-10.07c-0.85,0-1.28-0.43-1.28-1.36v-38.39
		c0-1.45,0.6-2.3,1.79-2.64l13.48-3.92c1.11-0.34,2.13-0.51,3.16-0.51H484c0.77,0,1.37,0.26,1.79,0.77L492.18,637.51z"/>
	<path d="M552.32,654.66c0,1.62-0.85,2.47-2.47,2.47h-36.77v6.65c0,0.6,0.17,1.11,0.43,1.36l4.44,4.44c0.26,0.26,0.6,0.34,1.19,0.34
		h31.82c0.94,0,1.37,0.43,1.37,1.36v4.61c0,0.94-0.43,1.36-1.37,1.36h-39.41c-0.77,0-1.36-0.26-1.79-0.68l-8.53-8.7
		c-0.51-0.51-0.68-1.02-0.68-1.62v-26.96c0-0.68,0.26-1.28,0.77-1.79l6.23-6.14c0.6-0.6,1.28-0.94,1.96-0.94h40.35
		c1.62,0,2.47,0.85,2.47,2.47V654.66z M517.94,638.03c-0.51,0-0.94,0.17-1.28,0.51l-2.99,2.9c-0.43,0.43-0.6,0.85-0.6,1.45v8.62
		h26.19c0.94,0,1.45-0.43,1.45-1.28v-10.83c0-0.94-0.51-1.36-1.45-1.36H517.94z"/>
</g>
<g>
	<path d="M335.41,723.76c0,1.27-0.67,1.94-1.94,1.94H304.7v5.21c0,0.47,0.13,0.87,0.33,1.07l3.47,3.47c0.2,0.2,0.47,0.27,0.93,0.27
		h24.9c0.73,0,1.07,0.33,1.07,1.07v3.61c0,0.73-0.33,1.07-1.07,1.07H303.5c-0.6,0-1.07-0.2-1.4-0.53l-6.68-6.81
		c-0.4-0.4-0.53-0.8-0.53-1.27v-21.1c0-0.53,0.2-1,0.6-1.4l4.87-4.81c0.47-0.47,1-0.73,1.54-0.73h31.58c1.27,0,1.94,0.67,1.94,1.94
		V723.76z M308.51,710.74c-0.4,0-0.73,0.13-1,0.4l-2.34,2.27c-0.33,0.33-0.47,0.67-0.47,1.13v6.74h20.5c0.73,0,1.13-0.33,1.13-1
		v-8.48c0-0.73-0.4-1.07-1.13-1.07H308.51z"/>
	<path d="M352.04,740.38c0,0.73-0.33,1.07-1,1.07h-7.88c-0.67,0-1-0.33-1-1.07v-35.65c0-1.54,0.07-2.8,0.27-4.34l0.87-7.28
		c0.07-0.6,0.47-0.87,1.07-0.87h6.68c0.67,0,1,0.33,1,1.07V740.38z"/>
</g>
<g>
	<path d="M193.42,769.57c0,1.17-0.59,1.76-1.88,1.76h-50.57c-0.7,0-1.29,0.23-1.76,0.7l-5.75,5.52c-0.35,0.35-0.59,0.94-0.59,1.64
		v38.84c0,0.7,0.12,1.41,0.59,1.76l7.74,7.28c0.59,0.47,1.17,0.7,1.99,0.7h48.34c1.29,0,1.88,0.59,1.88,1.88v8.57
		c0,1.29-0.59,1.88-1.88,1.88H130.3c-1.17,0-2.23-0.47-3.05-1.29l-15.61-14.67c-0.7-0.7-1.06-1.52-1.06-2.58v-47.76
		c0-1.06,0.35-1.88,1.06-2.58l11.38-10.91c0.82-0.82,1.88-1.29,3.05-1.29h65.47c1.29,0,1.88,0.59,1.88,1.88V769.57z"/>
	<path d="M297.15,770.98c0.82,0.82,1.29,1.88,1.29,3.17v50.81c0,1.29-0.47,2.35-1.29,3.17l-11.38,10.91
		c-0.7,0.7-1.64,1.06-2.82,1.06H219c-1.17,0-2.11-0.35-2.82-1.06l-11.38-10.91c-0.82-0.82-1.29-1.88-1.29-3.17v-50.81
		c0-1.29,0.47-2.35,1.29-3.17l11.38-10.91c0.7-0.7,1.64-1.06,2.82-1.06h63.95c1.17,0,2.11,0.35,2.82,1.06L297.15,770.98z
		 M270.28,772.27c-0.59-0.59-1.41-0.94-2.23-0.94H233.9c-0.82,0-1.64,0.35-2.23,0.94l-5.28,5.16c-0.59,0.59-0.82,1.29-0.82,2.11
		v40.01c0,0.82,0.23,1.53,0.82,2.11l5.28,5.16c0.59,0.59,1.41,0.94,2.23,0.94h34.15c0.82,0,1.64-0.35,2.23-0.94l5.28-5.16
		c0.59-0.59,0.82-1.29,0.82-2.11v-40.01c0-0.82-0.23-1.53-0.82-2.11L270.28,772.27z"/>
	<path d="M402.16,836.92c0,2.11-0.94,3.17-2.93,3.17h-11.62c-2.23,0-4.11-0.82-5.75-2.46L326,785.17v53.04
		c0,1.29-0.59,1.88-1.76,1.88h-13.02c-1.17,0-1.76-0.59-1.76-1.88v-76.03c0-2.11,0.94-3.17,2.93-3.17h11.62
		c2.23,0,4.11,0.82,5.75,2.46l55.38,52.68v-53.27c0-1.29,0.59-1.88,1.88-1.88h13.38c1.17,0,1.76,0.59,1.76,1.88V836.92z"/>
	<path d="M496.73,770.04c0,1.29-0.59,1.88-1.76,1.88h-30.51v66.3c0,1.29-0.7,1.88-1.88,1.88h-18.77c-1.17,0-1.76-0.59-1.76-1.88
		v-66.3h-30.62c-1.17,0-1.88-0.59-1.88-1.88v-9.15c0-1.17,0.7-1.88,1.88-1.88h83.54c1.17,0,1.76,0.7,1.76,1.88V770.04z"/>
	<path d="M597.98,771.21c0.7,0.7,0.94,1.64,0.94,2.58v18.77c0,1.52-0.47,2.82-1.53,3.87l-9.86,9.27l13.02,27.57
		c0.59,1.29,0.82,1.99,0.82,3.4v1.29c0,1.29-0.12,2.11-1.88,2.11h-17.72c-0.82,0-1.53-0.47-1.88-1.29l-11.85-27.93h-41.89v27.34
		c0,1.29-0.59,1.88-1.88,1.88h-18.42c-1.17,0-1.76-0.59-1.76-1.88v-75.8c0-2.23,1.06-3.4,3.29-3.4h75.68c1.41,0,2.58,0.47,3.52,1.41
		L597.98,771.21z M570.64,772.03c-0.47-0.47-1.06-0.7-1.88-0.7h-40.6c-1.29,0-1.99,0.7-1.99,2.23v25.46H569l7.04-6.57
		c0.59-0.59,0.82-1.06,0.82-1.64v-11.73c0-0.7-0.23-1.29-0.82-1.88L570.64,772.03z"/>
	<path d="M701,770.98c0.82,0.82,1.29,1.88,1.29,3.17v50.81c0,1.29-0.47,2.35-1.29,3.17l-11.38,10.91c-0.7,0.7-1.64,1.06-2.82,1.06
		h-63.95c-1.17,0-2.11-0.35-2.82-1.06l-11.38-10.91c-0.82-0.82-1.29-1.88-1.29-3.17v-50.81c0-1.29,0.47-2.35,1.29-3.17l11.38-10.91
		c0.7-0.7,1.64-1.06,2.82-1.06h63.95c1.17,0,2.11,0.35,2.82,1.06L701,770.98z M674.13,772.27c-0.59-0.59-1.41-0.94-2.23-0.94h-34.15
		c-0.82,0-1.64,0.35-2.23,0.94l-5.28,5.16c-0.59,0.59-0.82,1.29-0.82,2.11v40.01c0,0.82,0.23,1.53,0.82,2.11l5.28,5.16
		c0.59,0.59,1.41,0.94,2.23,0.94h34.15c0.82,0,1.64-0.35,2.23-0.94l5.28-5.16c0.59-0.59,0.82-1.29,0.82-2.11v-40.01
		c0-0.82-0.23-1.53-0.82-2.11L674.13,772.27z"/>
	<path d="M735.61,817.56c0,0.7,0.23,1.29,0.82,1.88l7.27,6.81c0.59,0.59,1.41,0.94,2.35,0.94h40.13c1.17,0,1.76,0.59,1.76,1.88v9.15
		c0,1.29-0.59,1.88-1.76,1.88h-53.04c-1.29,0-2.46-0.47-3.29-1.29l-15.61-14.67c-0.7-0.7-1.06-1.52-1.06-2.58v-60.66
		c0-1.29,0.59-1.88,1.88-1.88h18.66c1.29,0,1.88,0.59,1.88,1.88V817.56z"/>
</g>
<g>
	<g>
		<circle cx="458.48" cy="898.73" r="28.92"/>
		<g>
			<path class="st0" d="M458.48,879.39c10.68,0,19.34,8.66,19.34,19.34s-8.66,19.34-19.34,19.34c-10.68,0-19.34-8.66-19.34-19.34
				S447.8,879.39,458.48,879.39 M458.48,874.79c-13.2,0-23.94,10.74-23.94,23.94c0,13.2,10.74,23.94,23.94,23.94
				c13.2,0,23.94-10.74,23.94-23.94C482.42,885.53,471.68,874.79,458.48,874.79L458.48,874.79z"/>
		</g>
	</g>
	<g>
		<circle cx="302.26" cy="898.73" r="28.92"/>
		<path class="st1" d="M315.67,885.32v26.81h-26.81v-26.81H315.67 M319.34,881.64h-3.67h-26.81h-3.67v3.67v26.81v3.67h3.67h26.81
			h3.67v-3.67v-26.81V881.64L319.34,881.64z"/>
	</g>
	<g>
		<circle cx="380.37" cy="898.73" r="28.92"/>
		<path class="st2" d="M380.37,882.59l6.98,12.08l6.98,12.08h-13.95h-13.95l6.98-12.08L380.37,882.59 M380.37,874.21l-3.63,6.29
			l-6.98,12.08l-6.98,12.08l-3.63,6.29h7.26h13.95h13.95h7.26l-3.63-6.29l-6.98-12.08L384,880.5L380.37,874.21L380.37,874.21z"/>
	</g>
	<g>
		<circle cx="536.58" cy="898.73" r="28.92"/>
		<polygon class="st3" points="554.79,883.17 552.14,880.52 536.58,896.07 521.03,880.52 518.37,883.17 533.93,898.73 
			518.37,914.28 521.03,916.94 536.58,901.38 552.14,916.94 554.79,914.28 539.24,898.73 		"/>
	</g>
</g>
<g>
	<path d="M357.03,968.92c0,0.31-0.14,0.45-0.43,0.45h-3.07c-0.28,0-0.43-0.14-0.43-0.45v-13.35l-8.44,13.47
		c-0.14,0.23-0.34,0.34-0.6,0.34h-3.86c-0.28,0-0.45-0.11-0.6-0.34l-8.47-13.47v13.35c0,0.31-0.14,0.45-0.43,0.45h-3.01
		c-0.28,0-0.43-0.14-0.43-0.45v-18.5c0-0.45,0.23-0.68,0.65-0.68h5.14c0.28,0,0.48,0.14,0.65,0.43l8.64,14.21l8.67-14.21
		c0.17-0.28,0.37-0.43,0.68-0.43h4.66c0.43,0,0.65,0.23,0.65,0.68V968.92z"/>
	<path d="M376.83,956.87c0.09,0.09,0.23,0.43,0.23,0.57v11.08c0,0.57-0.28,0.85-0.82,0.85h-13.18c-0.26,0-0.48-0.09-0.71-0.26
		l-2.27-2.1c-0.17-0.14-0.26-0.34-0.26-0.6v-5.29c0-0.57,0.26-0.85,0.8-0.85h12.27v-2.1c0-0.2-0.06-0.34-0.2-0.48l-1.31-1.34
		c-0.08-0.09-0.2-0.14-0.4-0.14h-10.74c-0.28,0-0.43-0.14-0.43-0.45v-1.53c0-0.31,0.14-0.45,0.43-0.45h13.16
		c0.23,0,0.43,0.08,0.6,0.26L376.83,956.87z M364.16,962.07c-0.31,0-0.48,0.17-0.48,0.48v2.61c0,0.23,0.09,0.43,0.23,0.57l0.99,0.88
		c0.14,0.14,0.31,0.23,0.51,0.23h7.02c0.31,0,0.45-0.17,0.45-0.48v-4.29H364.16z"/>
	<path d="M385.12,953.77h3.52c0.28,0,0.43,0.14,0.43,0.45v1.08c0,0.26-0.14,0.4-0.4,0.43l-3.55,0.23v12.96
		c0,0.31-0.14,0.45-0.45,0.45h-3.27c-0.31,0-0.45-0.14-0.45-0.45v-12.96l-1.79-0.23c-0.26-0.03-0.4-0.17-0.4-0.43v-1.08
		c0-0.31,0.14-0.45,0.45-0.45h1.88l0.57-4.89c0.03-0.31,0.23-0.45,0.57-0.45h2.44c0.31,0,0.45,0.14,0.45,0.45V953.77z"/>
	<path d="M408.11,961.84c0,0.54-0.28,0.82-0.82,0.82h-12.25v2.22c0,0.2,0.06,0.37,0.14,0.45l1.48,1.48c0.09,0.09,0.2,0.11,0.4,0.11
		h10.6c0.31,0,0.45,0.14,0.45,0.45v1.53c0,0.31-0.14,0.45-0.45,0.45h-13.13c-0.26,0-0.45-0.09-0.6-0.23l-2.84-2.9
		c-0.17-0.17-0.23-0.34-0.23-0.54v-8.98c0-0.23,0.08-0.43,0.26-0.6l2.07-2.05c0.2-0.2,0.43-0.31,0.65-0.31h13.44
		c0.54,0,0.82,0.28,0.82,0.82V961.84z M396.66,956.3c-0.17,0-0.31,0.06-0.43,0.17l-0.99,0.97c-0.14,0.14-0.2,0.28-0.2,0.48v2.87
		h8.72c0.31,0,0.48-0.14,0.48-0.43v-3.61c0-0.31-0.17-0.45-0.48-0.45H396.66z"/>
	<path d="M428.08,956.13c0.17,0.17,0.26,0.34,0.26,0.6v9.69c0,0.26-0.08,0.43-0.26,0.6l-2.13,2.1c-0.14,0.14-0.34,0.26-0.57,0.26
		h-11.65c-0.23,0-0.43-0.11-0.57-0.26l-2.13-2.1c-0.17-0.17-0.26-0.34-0.26-0.6v-9.69c0-0.26,0.08-0.43,0.26-0.6l2.13-2.1
		c0.14-0.14,0.34-0.26,0.57-0.26h11.65c0.23,0,0.43,0.11,0.57,0.26L428.08,956.13z M416.37,956.3c-0.11,0-0.26,0.08-0.34,0.2
		l-0.91,1.08c-0.14,0.14-0.17,0.31-0.17,0.48v6.82c0,0.17,0.03,0.34,0.17,0.48l0.91,1.08c0.08,0.11,0.23,0.2,0.34,0.2h6.36
		c0.11,0,0.26-0.09,0.34-0.2l0.91-1.08c0.14-0.14,0.17-0.31,0.17-0.48v-6.82c0-0.17-0.03-0.34-0.17-0.48l-0.91-1.08
		c-0.08-0.11-0.23-0.2-0.34-0.2H416.37z"/>
	<path d="M459.16,952.29c0,0.28-0.14,0.43-0.43,0.43h-11.34c-0.2,0-0.34,0.06-0.48,0.2l-1.65,1.53c-0.09,0.09-0.14,0.26-0.14,0.48
		v2.59h11.62c0.37,0,0.65,0.11,0.85,0.31l2.3,2.16c0.17,0.14,0.26,0.34,0.26,0.6v4.49c0,0.43-0.11,0.77-0.34,1.02
		c-0.94,0.94-1.85,1.96-2.76,3.01c-0.2,0.17-0.43,0.26-0.65,0.26h-11.82c-0.28,0-0.48-0.09-0.62-0.26l-3.07-3.27
		c-0.37-0.43-0.57-0.94-0.57-1.56v-9.72c0-0.48,0.11-0.82,0.37-1.08l3.27-3.5c0.14-0.17,0.34-0.26,0.6-0.26h14.18
		c0.28,0,0.43,0.14,0.43,0.45V952.29z M454.35,960.02c-0.14-0.14-0.23-0.2-0.54-0.2h-8.69v3.58c0,0.37,0.08,0.65,0.23,0.85
		l1.68,1.82c0.2,0.2,0.45,0.31,0.71,0.31h5.68c0.26,0,0.43-0.09,0.54-0.23l1.53-1.85c0.09-0.08,0.14-0.23,0.14-0.4v-2.5
		c0-0.11-0.06-0.23-0.14-0.31L454.35,960.02z"/>
	<path d="M467.13,959.51c0,0.31-0.17,0.45-0.45,0.45h-3.3c-0.26,0-0.43-0.14-0.43-0.45v-3.13c0-0.28,0.17-0.45,0.43-0.45h3.3
		c0.28,0,0.45,0.17,0.45,0.45V959.51z M467.13,968.92c0,0.31-0.17,0.45-0.45,0.45h-3.3c-0.26,0-0.43-0.14-0.43-0.45v-3.13
		c0-0.28,0.17-0.45,0.43-0.45h3.3c0.28,0,0.45,0.17,0.45,0.45V968.92z"/>
	<path d="M487.56,952.72c0.14,0.14,0.23,0.34,0.23,0.54v4.74l1.28,1.31c0.14,0.14,0.23,0.34,0.23,0.57v4.92
		c0,0.31-0.08,0.54-0.26,0.74l-3.35,3.61c-0.2,0.14-0.43,0.23-0.68,0.23h-14.66c-0.28,0-0.43-0.14-0.43-0.45v-2.07
		c0-0.31,0.14-0.45,0.43-0.45h11.48c0.17,0,0.31-0.06,0.4-0.14l1.68-1.82c0.09-0.09,0.14-0.2,0.14-0.34v-2.61
		c0-0.11-0.03-0.2-0.09-0.28l-0.62-0.77h-12.36c-0.31,0-0.45-0.14-0.45-0.45v-1.68c0-0.31,0.14-0.45,0.45-0.45h12.3v-3.32
		c0-0.11-0.06-0.23-0.14-0.31l-1.28-1.34c-0.08-0.09-0.17-0.14-0.31-0.14h-10.8c-0.31,0-0.45-0.14-0.45-0.45v-2.07
		c0-0.31,0.14-0.45,0.45-0.45h13.64c0.26,0,0.45,0.11,0.62,0.28L487.56,952.72z"/>
	<path d="M509.81,952.72c0.14,0.14,0.23,0.34,0.23,0.54v4.74l1.28,1.31c0.14,0.14,0.23,0.34,0.23,0.57v4.92
		c0,0.31-0.09,0.54-0.26,0.74l-3.35,3.61c-0.2,0.14-0.43,0.23-0.68,0.23h-14.66c-0.28,0-0.43-0.14-0.43-0.45v-2.07
		c0-0.31,0.14-0.45,0.43-0.45h11.48c0.17,0,0.31-0.06,0.4-0.14l1.68-1.82c0.09-0.09,0.14-0.2,0.14-0.34v-2.61
		c0-0.11-0.03-0.2-0.09-0.28l-0.62-0.77h-12.36c-0.31,0-0.45-0.14-0.45-0.45v-1.68c0-0.31,0.14-0.45,0.45-0.45h12.3v-3.32
		c0-0.11-0.06-0.23-0.14-0.31l-1.28-1.34c-0.08-0.09-0.17-0.14-0.31-0.14h-10.8c-0.31,0-0.45-0.14-0.45-0.45v-2.07
		c0-0.31,0.14-0.45,0.45-0.45h13.64c0.26,0,0.45,0.11,0.62,0.28L509.81,952.72z"/>
</g>
</svg>
