<?xml version="1.0" encoding="utf-8"?>
<!-- Generator: Adobe Illustrator 25.3.0, SVG Export Plug-In . SVG Version: 6.00 Build 0)  -->
<svg version="1.1" id="Layer_1" xmlns="http://www.w3.org/2000/svg" xmlns:xlink="http://www.w3.org/1999/xlink" x="0px" y="0px"
	 viewBox="0 0 841.89 1190.55" style="enable-background:new 0 0 841.89 1190.55;" xml:space="preserve">
<style type="text/css">
	.st0{fill:#FFFFFF;}
	.st1{fill:#020202;}
	.st2{fill:#FAE925;}
	.st3{fill:#E52027;}
</style>
<rect width="841.89" height="1190.55"/>
<path class="st0" d="M206.65,535.95c0,9.85-2.89,17.78-8.68,23.79c-5.79,6.01-14.21,9.02-25.26,9.02h-29.65
	c-11.05,0-19.47-3.01-25.26-9.02c-5.79-6.01-8.68-13.94-8.68-23.79v-32.7h36.64v30.44c0,4.36,1.13,7.85,3.38,10.49
	c2.25,2.63,5.17,3.95,8.74,3.95c3.57,0,6.48-1.31,8.74-3.95c2.25-2.63,3.38-6.13,3.38-10.49v-95.16h-41.94
	c0-7.89,2.09-14.11,6.26-18.66c4.17-4.55,9.94-6.82,17.31-6.82h55.02V535.95z"/>
<path class="st0" d="M316.92,413.05v21.76h-51.08v41.83h45.44v19.51h-45.44v37.66c0,4.36,0.94,7.67,2.82,9.92
	c1.88,2.26,4.7,3.38,8.46,3.38h39.8v21.76h-56.71c-10.6,0-18.42-2.82-23.45-8.46c-5.04-5.64-7.55-13.76-7.55-24.35V413.05H316.92z"
	/>
<path class="st0" d="M571.98,413.05h36.64v155.71H539.4c-11.05,0-19.47-3.01-25.26-9.02c-5.79-6.01-8.68-13.94-8.68-23.79v-122.9
	h36.64v118.39c0,5.11,1.31,9.55,3.95,13.3c2.63,3.76,6.3,5.64,10.99,5.64c4.7,0,8.36-1.88,10.99-5.64c2.63-3.76,3.95-8.19,3.95-13.3
	V413.05z"/>
<path class="st0" d="M629.6,454.54v-8.68c0-9.85,2.89-17.78,8.68-23.79c5.79-6.01,14.21-9.02,25.26-9.02h35.29
	c11.05,0,19.47,3.01,25.26,9.02c5.79,6.01,8.68,13.94,8.68,23.79v14.66h-36.64v-12.4c0-5.11-1.32-9.17-3.95-12.18
	c-2.63-3.01-6.3-4.51-10.99-4.51c-4.7,0-8.36,1.5-10.99,4.51c-2.63,3.01-3.95,7.07-3.95,12.18v12.97c0,6.99,4.4,12.06,13.19,15.22
	l28.41,10.15c16.61,5.04,24.92,15.82,24.92,32.36v17.14c0,9.85-2.89,17.78-8.68,23.79c-5.79,6.01-14.21,9.02-25.26,9.02h-35.29
	c-11.05,0-19.47-3.01-25.26-9.02c-5.79-6.01-8.68-13.94-8.68-23.79v-19.17h36.64v15.78c0,5.11,1.31,9.36,3.95,12.74
	c2.63,3.38,6.3,5.07,10.99,5.07c4.7,0,8.36-1.69,10.99-5.07c2.63-3.38,3.95-7.63,3.95-12.74v-14.66c0-8.49-4.25-14.21-12.74-17.14
	l-28.86-9.92C637.9,484.98,629.6,472.88,629.6,454.54z"/>
<path class="st0" d="M365.7,570.62c-0.11,0.29-0.21,0.2-0.32,0C365.49,570.62,365.59,570.62,365.7,570.62z"/>
<path class="st0" d="M505,450.7c-12.01-12.53-24.01-25.05-36-37.6c-0.02-0.02-0.03-0.03-0.04-0.05H338.93
	c-12.58,12.59-25.17,25.17-37.76,37.76c-0.81,0.81-0.84,0.55-0.07,1.49c18.78,22.61,37.55,45.22,56.33,67.82
	c13.84,16.66,27.68,33.32,41.52,49.99c0.59,0.71,0.5,0.67,1.08,0.02c16.41-18.4,32.82-36.81,49.22-55.22
	c15.14-16.99,30.29-33.97,45.44-50.96c3.51-3.93,7.01-7.86,10.52-11.8c0.18-0.2,0.35-0.4,0.52-0.6v-0.16
	C505.43,451.24,505.24,450.94,505,450.7z M427.71,425.42h0.68c5.21,0.01,10.42,0.01,15.63,0.02c0.85,0,0.85,0.01,0.61,0.84
	c-1.12,3.82-2.25,7.63-3.37,11.45c-0.05,0.18-0.07,0.37-0.3,0.6c-1.27-2.99-2.98-5.61-5.33-7.78c-2.34-2.16-5.1-3.64-7.96-4.97
	C427.68,425.52,427.69,425.47,427.71,425.42z M332.62,468.24c0.06,0.26,0.17,0.51,0.09,0.84c-0.34-0.12-0.47-0.37-0.64-0.56
	c-4.63-5.23-9.25-10.46-13.87-15.69c-0.07-0.08-0.13-0.17-0.21-0.24c-0.29-0.25-0.24-0.47,0.02-0.73c0.94-0.95,1.86-1.92,2.79-2.88
	c7.5-7.74,14.99-15.48,22.48-23.23c0.42-0.43,0.83-0.64,1.46-0.63c4.76,0.09,9.52,0.14,14.28,0.21c0.29,0,0.58,0,0.96,0
	c-0.19,0.37-0.47,0.42-0.69,0.53c-4.48,2.25-8.76,4.81-12.7,7.92c-3.69,2.92-6.98,6.23-9.59,10.17c-2.66,4-4.39,8.36-5.01,13.14
	C331.49,460.85,331.76,464.56,332.62,468.24z M425.84,523.84c-5.96,6.25-11.92,12.5-17.89,18.75c-2.18,2.28-4.36,4.57-6.53,6.85
	c-0.07,0.08-0.15,0.15-0.22,0.23c-0.55,0.56-0.55,0.57-1.07-0.02c-3.63-4.11-7.26-8.22-10.89-12.32
	c-4.23-4.79-8.46-9.58-12.69-14.37c-0.19-0.21-0.43-0.4-0.54-0.75c0.34-0.1,0.59,0.03,0.84,0.1c4.31,1.14,8.65,2.2,13.04,2.99
	c5.51,0.99,11.07,1.54,16.67,1.32c5.77-0.23,11.42-1.23,16.97-2.77c0.75-0.21,1.49-0.42,2.24-0.63c0.18-0.05,0.35-0.13,0.56-0.05
	C426.3,523.48,426.03,523.64,425.84,523.84z M440.01,503.28c-0.49,0.91-1.18,1.65-1.95,2.32c-1.28,1.12-2.71,2-4.21,2.77
	c-4.01,2.05-8.27,3.32-12.67,4.17c-2.74,0.53-5.5,0.83-8.28,0.9c-3.33,0.08-6.62-0.21-9.85-1.09c-0.57-0.16-0.96-0.39-1.18-1.02
	c-0.37-1.04-1.09-1.9-1.86-2.68c-1.66-1.68-3.62-2.91-5.71-3.95c-4.15-2.07-8.55-3.35-13.12-4.04c-2.36-0.36-4.73-0.54-7.11-0.44
	c-2.09,0.09-4.15,0.38-6.13,1.09c-1.17,0.42-2.26,0.97-3.21,1.77c-0.94,0.79-1.65,1.74-2.09,2.89c-0.07,0.17-0.14,0.35-0.22,0.52
	c-0.01,0.02-0.04,0.02-0.06,0.04c-0.26-0.11-0.4-0.35-0.57-0.54c-6.17-6.93-12.35-13.86-18.51-20.79l-0.01-0.02l-1.28-1.49
	l-0.2-0.23l0.2,0.12l0.44,0.27l0,0c0.25,0.19,0.53,0.33,0.79,0.5c2.55,1.58,5.35,2.55,8.22,3.31c3.94,1.04,7.95,1.66,11.99,2.11
	c7.13,0.8,14.28,1.13,21.45,1.3c6.63,0.16,13.26,0.3,19.89,0.49c4.41,0.13,8.82,0.29,13.22,0.64c4.48,0.35,8.94,0.81,13.32,1.9
	c1.71,0.43,3.39,0.96,4.98,1.76c1.01,0.51,1.95,1.11,2.74,1.93c0.87,0.89,1.39,1.95,1.53,3.19
	C440.63,501.8,440.39,502.56,440.01,503.28z M488.68,452.94c-8.5,9.83-17,19.66-25.51,29.49c-0.21,0.24-0.38,0.52-0.66,0.69
	c-0.22-0.09-0.21-0.29-0.25-0.46c-1.05-4.5-3.46-8.12-7.08-10.96c-2.94-2.3-6.28-3.85-9.79-5.04c-3.83-1.3-7.78-2.13-11.77-2.73
	c-5.34-0.8-10.72-1.22-16.12-1.5c-6.17-0.31-12.35-0.44-18.52-0.63c-4.97-0.15-9.94-0.33-14.89-0.8c-3.99-0.38-7.97-0.9-11.83-2.06
	c-1.67-0.5-3.29-1.12-4.8-2c-0.7-0.4-1.36-0.86-1.96-1.39c-2.94-2.55-3.87-6.33-2.51-10.23c0.84-2.42,2.37-4.35,4.28-6.01
	c2.51-2.18,5.41-3.72,8.49-4.93c4.15-1.64,8.46-2.63,12.87-3.23c4.57-0.63,9.17-0.73,13.77-0.57c4.82,0.17,9.59,0.75,14.22,2.19
	c2.93,0.91,5.7,2.14,8.2,3.95c4.54,3.28,7.11,7.73,7.92,13.24c0.21,1.4,0.3,2.82,0.29,4.24c0,0.56,0.02,0.56,0.59,0.58
	c0.13,0,0.27,0,0.4,0c10.38,0,20.75,0,31.13,0c1.14,0,0.97,0.09,1-0.99c0.11-4.36,0.2-8.71,0.3-13.07c0.08-3.5,0.17-7,0.26-10.51
	c0-0.15-0.05-0.32,0.14-0.49c0.18,0.17,0.38,0.33,0.56,0.52c7.08,7.14,14.17,14.27,21.24,21.42
	C489.36,452.35,489.37,452.15,488.68,452.94z"/>
<g>
	<path class="st0" d="M285.13,621.54v5.91c0,1.36,0.29,2.45,0.88,3.27c0.59,0.82,1.38,1.23,2.37,1.23c1,0,1.79-0.41,2.37-1.23
		c0.59-0.82,0.88-1.91,0.88-3.27v-2.04h11.43v2.04c0,3.07-0.9,5.54-2.71,7.42c-1.81,1.88-4.43,2.81-7.88,2.81h-8.19
		c-3.45,0-6.07-0.94-7.88-2.81c-1.81-1.88-2.71-4.35-2.71-7.42v-15.47c0-3.07,0.9-5.54,2.71-7.42c1.8-1.88,4.43-2.81,7.88-2.81h8.19
		c3.45,0,6.07,0.94,7.88,2.81c1.8,1.88,2.71,4.35,2.71,7.42C303.06,618.35,297.08,621.54,285.13,621.54z M285.13,617.04
		c4.34,0,6.5-1.8,6.5-5.41c0-1.36-0.29-2.39-0.88-3.09c-0.59-0.7-1.38-1.05-2.37-1.05c-1,0-1.79,0.35-2.37,1.05
		c-0.59,0.7-0.88,1.73-0.88,3.09V617.04z"/>
	<path class="st0" d="M318.38,620.59c-5.98-1.88-8.96-5.1-8.96-9.67c0-2.6,0.9-4.78,2.71-6.54c1.8-1.76,4.43-2.64,7.88-2.64h8.19
		c3.45,0,6.07,0.94,7.88,2.81c1.8,1.88,2.71,4.35,2.71,7.42v2.04h-11.43v-2.39c0-1.36-0.29-2.39-0.88-3.09
		c-0.59-0.7-1.38-1.05-2.37-1.05c-1,0-1.79,0.35-2.37,1.05c-0.59,0.7-0.88,1.73-0.88,3.09c0,2.27,1.31,3.82,3.94,4.64l5.03,1.58
		c5.98,1.88,8.96,5.19,8.96,9.95c0,2.84-0.9,5.19-2.71,7.07c-1.81,1.88-4.43,2.81-7.88,2.81H320c-3.45,0-6.07-0.94-7.88-2.81
		c-1.81-1.88-2.71-4.35-2.71-7.42v-2.04h11.43v2.04c0,1.36,0.29,2.45,0.88,3.27c0.59,0.82,1.38,1.23,2.37,1.23
		c1,0,1.79-0.41,2.37-1.23c0.59-0.82,0.88-1.91,0.88-3.27c0-2.7-1.31-4.45-3.94-5.27L318.38,620.59z"/>
	<path class="st0" d="M376.11,612.68c0-1.83-0.35-3.15-1.05-3.97s-1.64-1.23-2.81-1.23c-1.17,0-1.99,0.29-2.46,0.88v29.36h-11.46
		v-35.96h31.36c6.12,0,10.25,1.11,12.41,3.34c2.16,2.23,3.23,4.88,3.23,7.95v24.68H393.9v-25.03c0-1.83-0.35-3.15-1.05-3.97
		s-1.64-1.23-2.81-1.23c-1.17,0-1.99,0.29-2.46,0.88v29.36h-11.46V612.68z"/>
	<path class="st0" d="M412.25,597.56v-7.21h11.46v7.21H412.25z M423.71,601.75v35.96h-11.46v-35.96H423.71z"/>
	<path class="st0" d="M461.54,637.64v-26.02c0-1.36-0.29-2.39-0.88-3.09c-0.59-0.7-1.38-1.05-2.37-1.05c-1,0-1.79,0.35-2.37,1.05
		c-0.59,0.7-0.88,1.73-0.88,3.09v26.02h-11.43v-48.52h11.46v12.62h7.31c3.45,0,6.07,0.94,7.88,2.81c1.8,1.88,2.71,4.35,2.71,7.42
		v25.66H461.54z"/>
	<path class="st0" d="M490.75,621.54v5.91c0,1.36,0.29,2.45,0.88,3.27s1.38,1.23,2.37,1.23s1.79-0.41,2.37-1.23s0.88-1.91,0.88-3.27
		v-2.04h11.43v2.04c0,3.07-0.9,5.54-2.71,7.42s-4.43,2.81-7.88,2.81h-8.19c-3.45,0-6.07-0.94-7.88-2.81
		c-1.81-1.88-2.71-4.35-2.71-7.42v-15.47c0-3.07,0.9-5.54,2.71-7.42c1.8-1.88,4.43-2.81,7.88-2.81h8.19c3.45,0,6.07,0.94,7.88,2.81
		s2.71,4.35,2.71,7.42C508.68,618.35,502.71,621.54,490.75,621.54z M491.14,597.74h-2.85l6.12-8.58h11.04l-4.46,4.68
		c-1.41,1.55-2.92,2.58-4.54,3.11S493.06,597.74,491.14,597.74z M490.75,617.04c4.34,0,6.5-1.8,6.5-5.41c0-1.36-0.29-2.39-0.88-3.09
		s-1.38-1.05-2.37-1.05s-1.79,0.35-2.37,1.05s-0.88,1.73-0.88,3.09V617.04z"/>
	<path class="st0" d="M544.4,611.98v5.34h-11.43v-4.64c0-1.83-0.35-3.15-1.05-3.97s-1.64-1.23-2.81-1.23s-1.99,0.29-2.46,0.88v29.36
		h-11.46v-35.96h18.14c4.01,0,6.86,0.94,8.54,2.81S544.4,608.91,544.4,611.98z"/>
	<path class="st0" d="M569.54,601.75c3.45,0,6.07,0.94,7.88,2.81s2.71,4.35,2.71,7.42v15.47c0,3.07-0.9,5.54-2.71,7.42
		s-4.43,2.81-7.88,2.81h-8.19c-3.45,0-6.07-0.94-7.88-2.81s-2.71-4.35-2.71-7.42v-15.47c0-3.07,0.9-5.54,2.71-7.42
		s4.43-2.81,7.88-2.81H569.54z M565.46,631.95c0.98,0,1.77-0.41,2.36-1.23s0.88-1.91,0.88-3.27v-15.82c0-1.36-0.29-2.39-0.88-3.09
		s-1.38-1.05-2.37-1.05s-1.79,0.35-2.37,1.05s-0.88,1.73-0.88,3.09v15.82c0,1.36,0.29,2.45,0.88,3.27S564.45,631.95,565.46,631.95z"
		/>
	<path class="st0" d="M597.91,621.54v5.91c0,1.36,0.29,2.45,0.88,3.27s1.38,1.23,2.37,1.23s1.79-0.41,2.37-1.23s0.88-1.91,0.88-3.27
		v-2.04h11.43v2.04c0,3.07-0.9,5.54-2.71,7.42s-4.43,2.81-7.88,2.81h-8.19c-3.45,0-6.07-0.94-7.88-2.81s-2.71-4.35-2.71-7.42v-15.47
		c0-3.07,0.9-5.54,2.71-7.42s4.43-2.81,7.88-2.81h8.19c3.45,0,6.07,0.94,7.88,2.81s2.71,4.35,2.71,7.42
		C615.84,618.35,609.86,621.54,597.91,621.54z M597.91,617.04c4.34,0,6.5-1.8,6.5-5.41c0-1.36-0.29-2.39-0.88-3.09
		s-1.38-1.05-2.37-1.05s-1.79,0.35-2.37,1.05s-0.88,1.73-0.88,3.09V617.04z"/>
</g>
<polygon class="st0" points="538.69,405.58 577.18,405.58 592.2,388.19 553.89,388.19 "/>
</svg>
