<?xml version="1.0" encoding="utf-8"?>
<!-- Generator: Adobe Illustrator 25.3.0, SVG Export Plug-In . SVG Version: 6.00 Build 0)  -->
<svg version="1.1" id="Layer_1" xmlns="http://www.w3.org/2000/svg" xmlns:xlink="http://www.w3.org/1999/xlink" x="0px" y="0px"
	 viewBox="0 0 841.89 1190.55" style="enable-background:new 0 0 841.89 1190.55;" xml:space="preserve">
<style type="text/css">
	.st0{fill:#6AB42D;}
	.st1{fill:#FFFFFF;}
</style>
<rect width="841.89" height="1190.55"/>
<g>
	<path class="st1" d="M199.45,825.61l-15.87-7.51h-1.21c-0.96,0-2.01,0.52-3.15,1.57c0.56,1.86,1.09,2.79,1.57,2.79l-0.36,2.79v0.36
		l1.21,13.57l-0.85,16.23l0.85,12.72l-0.48,7.99l0.48,3.15v0.36l-0.48,0.37v0.48l0.48,0.37c-1.05,19.86-2.26,29.8-3.63,29.8
		c0,6.38-3.31,9.57-9.93,9.57c-4.12,0-9.53-1.61-16.24-4.84c-8.8-5.17-17.56-9.53-26.29-13.08c-0.96,0.32-1.89,1.01-2.78,2.06
		c-0.24,4.77-0.89,8.6-1.94,11.51v1.57l0.36,0.37c6.22,2.1,9.81,3.55,10.78,4.36c14.13,5.33,25.52,8,34.16,8
		c8.16,0,14.49-3.07,19.02-9.21c6.86-6.7,10.3-11.35,10.3-13.93v-0.73l-0.73-10.78v-13.44l0.37-2.06l-0.37-0.37l0.37-2.3l-0.37-5.57
		v-6.78l-0.36-14.29l1.57-13.09l-0.48-0.48l0.85-1.57l0.36-0.37c1.05-3.95,2.1-5.93,3.15-5.93v0.37c2.42-0.41,3.63-0.93,3.63-1.58
		C202.56,826.41,201.23,825.61,199.45,825.61z"/>
	<path class="st1" d="M334.03,902.04l-1.21,0.73c-0.81,3.47-2.14,6.42-3.99,8.84c-4.42,6.67-18.31,10.13-41.69,10.4l0.73-51.59
		l0.05-3.99l0.51-35.84c9.66,0.14,16.5,1.34,20.53,3.62c4.12,2.83,8.48,8,13.08,15.51h4.48l1.09-1.21v-1.57L324.46,833
		c-2.1-4.28-3.95-6.42-5.57-6.42c-0.97-1.61-2.83-2.42-5.57-2.42l-8.84,2.42l-11.99-0.85h-3.99l0.23-16.62l5.03-12.71l-6.8-5.91
		l-11.53,7.69l-8.27,0.59l10.05,11.82v15.16c-6.48,0.09-12.69,0.62-18.64,1.56l-0.36-0.36c0-0.73,1.21-2.31,3.63-4.73v-1.7
		c-1.38-1.29-2.71-1.94-4-1.94l-3.99,0.85c-2.5,2.35-4.52,3.51-6.06,3.51c0,1.7-4.24,3.96-12.72,6.78c-5.33,0-8,1.34-8,4v0.48
		l0.37,0.37c5.33,0.97,8,2.02,8,3.15l0.36,37.19c0,11.95-0.64,22.73-1.93,32.34c-3.47,4.12-5.21,6.9-5.21,8.36v1.21
		c1.77,2.34,8.03,5.13,18.77,8.36c3.72,3.72,6.26,5.57,7.63,5.57l1.58-0.85c0.48-3.15,1.29-4.73,2.42-4.73
		c3.47,1.29,9.45,1.94,17.92,1.94h0.23v12.32l-13.3-1.48l1.18,10.34l14.48,9.46l12.7-2.96l1.48-15.96l-6.8-4.44l0.1-7.5
		c8.79-0.32,20.04-1.02,33.77-2.08c2.26,1.86,4,2.79,5.21,2.79h1.21c2.26,0,4.8-2.43,7.63-7.27c0.24-2.42,0.77-4,1.57-4.73v-5.21
		l-0.36-2.79c0.48,0,0.73-0.92,0.73-2.78v-1.58l-1.21-1.21H334.03z M254.57,852.14c0-5.74,0.93-11.18,2.79-16.35
		c0-2.43,6.42-4.29,19.26-5.57l0.59,0.02v36.08c-7.41-0.16-13.75-0.48-19-0.98c-2.42,0-3.63-3.47-3.63-10.42V852.14z M260.62,918.03
		c-3.47,0-5.61-8.68-6.42-26.04c0-5.73,0.81-11.43,2.43-17.08c2.42-2.98,7.99-4.48,16.71-4.48h3.87v50.73
		C269.62,921,264.09,919.95,260.62,918.03z"/>
	<path class="st1" d="M450.92,855.4c-3.63-4.28-6.29-6.42-7.99-6.42h-2.43c-4.92,2.99-10.7,4.48-17.32,4.48l-25.44-0.85h-0.73
		l-0.37,0.49c-7.03-7.83-10.94-13.77-11.75-17.81c0-1.21,2.71-2.14,8.12-2.79l27.37,2.06h1.94l18.53-2.91l10.9,1.21
		c0.81,0,1.46-0.53,1.94-1.57v-1.21l-0.36-0.37c-4.85-1.21-8.89-2.7-12.12-4.48c-1.13-1.29-2.06-1.94-2.78-1.94
		c-5.41-3.8-9.98-5.7-13.69-5.7h-1.57c-6.62,2.99-13.89,5.13-21.8,6.42c-7.11,1.05-13.93,2.67-20.47,4.84l-5.21-2.06
		c-2.98,0-5.29,1.38-6.9,4.12c-1.45,0-2.79,0.65-3.99,1.94c-1.94,0-3.03,0.41-3.27,1.21v0.85l2.06,2.42
		c0.81,2.67,1.61,3.99,2.42,3.99c1.13,2.67,1.94,4,2.43,4c7.75,11.87,12.43,18.21,14.05,19.02h2.78l1.7-0.49
		c2.66-3.71,9.64-5.57,20.96-5.57h6.78c9.93,0,14.9,2.26,14.9,6.78l-3.27,14.9c-4.53,12.19-7.07,18.49-7.64,18.89
		c-5.97,16.15-14.13,24.23-24.47,24.23h-1.7c-1.21,0-3.47-0.93-6.78-2.79c-5.41-4.04-8.64-6.06-9.69-6.06
		c-2.1-2.42-3.59-3.63-4.48-3.63c-1.53-1.61-3.39-2.42-5.57-2.42c-3.23,0.32-4.84,1.37-4.84,3.15l0.37,1.21
		c0,0.56,3.91,3.8,11.75,9.69c3.31,2.42,5.17,4.04,5.57,4.84c3.47,1.45,5.21,3.32,5.21,5.57c0,2.1,3.51,3.15,10.54,3.15h2.79
		c2.98,0,6.1-0.81,9.33-2.42c4.77-1.53,8.52-3.76,11.26-6.66c1.21,0,3.59-2.02,7.15-6.06c6.78-6.78,13.12-15.22,19.02-25.32
		c0.41-1.93,1.05-2.9,1.94-2.9c3.07-7.03,4.96-10.78,5.69-11.26c3.72-8.65,6.67-14.42,8.84-17.33v-1.21
		C460.61,860.82,457.38,858.4,450.92,855.4z"/>
	<path class="st1" d="M585.74,819.91c-1.53-1.86-2.86-2.79-3.99-2.79h-2.42l-0.37,0.36l0.37,6.06v4.72c0,3.39-0.53,6.58-1.58,9.57
		l0.73,2.79l-0.37,6.78v5.21c0,26.49-1.21,42.36-3.63,47.61c-5.97,8.8-15.26,15.02-27.86,18.66c-0.81,0-1.21-0.24-1.21-0.73
		c-5.25-0.73-8.44-1.82-9.57-3.27l-3.63-2.79c-2.42-1.53-4.28-3.23-5.57-5.09c-6.54-7.1-11.99-16.31-16.35-27.62l-5.21-43.13
		c0-2.34-1.86-8.6-5.57-18.78h-1.7l-12.72,8v0.49c2.26,2.26,3.59,4.65,4,7.15l-0.85,6.78v0.36l0.48,0.37
		c1.61,28.27,2.95,42.4,4,42.4c3.47,9.85,6.38,16.11,8.72,18.77c5.16,9.69,13.04,17.12,23.62,22.29c2.67,4.28,4.24,6.42,4.72,6.42
		l4.85-1.94l5.57,0.37h1.58l3.15-0.85l4.84,0.48l2.79-4.48c18.33-8.8,27.9-13.97,28.71-15.51c5.33-2.74,8-6.5,8-11.26
		c1.86-4.52,3.19-22.2,4-53.05c0-3.88,1.33-8.52,3.99-13.93v-0.49l-0.73-2.78C592.57,823.99,588.97,821.61,585.74,819.91z"/>
	<path class="st1" d="M711.36,855.4c-3.63-4.28-6.3-6.42-8-6.42h-2.42c-4.93,2.99-10.71,4.48-17.33,4.48l-25.44-0.85h-0.73
		l-0.36,0.49c-7.03-7.83-10.95-13.77-11.75-17.81c0-1.21,2.71-2.14,8.12-2.79l27.37,2.06h1.94l18.53-2.91l10.9,1.21
		c0.8,0,1.45-0.53,1.93-1.57v-1.21l-0.36-0.37c-4.85-1.21-8.88-2.7-12.11-4.48c-1.13-1.29-2.06-1.94-2.79-1.94
		c-5.41-3.8-9.98-5.7-13.69-5.7h-1.58c-6.62,2.99-13.89,5.13-21.8,6.42c-7.11,1.05-13.93,2.67-20.47,4.84l-5.21-2.06
		c-2.99,0-5.29,1.38-6.9,4.12c-1.46,0-2.79,0.65-4,1.94c-1.94,0-3.03,0.41-3.27,1.21v0.85l2.06,2.42c0.81,2.67,1.62,3.99,2.43,3.99
		c1.13,2.67,1.93,4,2.42,4c7.75,11.87,12.43,18.21,14.05,19.02h2.79l1.7-0.49c2.67-3.71,9.64-5.57,20.96-5.57h6.78
		c9.94,0,14.9,2.26,14.9,6.78l-3.27,14.9c-4.52,12.19-7.07,18.49-7.64,18.89c-5.97,16.15-14.13,24.23-24.47,24.23h-1.7
		c-1.21,0-3.47-0.93-6.78-2.79c-5.41-4.04-8.64-6.06-9.69-6.06c-2.1-2.42-3.59-3.63-4.48-3.63c-1.53-1.61-3.39-2.42-5.57-2.42
		c-3.23,0.32-4.85,1.37-4.85,3.15l0.37,1.21c0,0.56,3.91,3.8,11.75,9.69c3.32,2.42,5.17,4.04,5.57,4.84
		c3.47,1.45,5.21,3.32,5.21,5.57c0,2.1,3.51,3.15,10.54,3.15h2.79c2.98,0,6.1-0.81,9.33-2.42c4.77-1.53,8.52-3.76,11.26-6.66
		c1.21,0,3.59-2.02,7.15-6.06c6.78-6.78,13.12-15.22,19.02-25.32c0.41-1.93,1.05-2.9,1.94-2.9c3.07-7.03,4.96-10.78,5.7-11.26
		c3.71-8.65,6.66-14.42,8.84-17.33v-1.21C721.05,860.82,717.82,858.4,711.36,855.4z"/>
</g>
<path class="st0" d="M256.8,205.72l-4.5,18l-3.21,8.04l5.79,22.82l-8.04,15.43l-2.25,22.5H217.9l-3.86,6.11h-9.97l-4.18,3.86h-11.89
	l-8.04,5.79h32.15l6.27,3.54h15.27l10.61,15.75l-3.86,5.14l0.32,7.07l12.86,6.11l3.21,13.18l-2.89,9.32l0.96,8.68l-7.39,23.79v13.18
	l-6.75,8.68l14.35,17.75l9.71,39.55v21.16l-4.51,7.29v5.55h8.33v17.35v17.69l-13.53,26.37l13.53,10.06l-4.51,12.14l8.33,11.8
	l-7.98,10.75l7.98,16.31l8.33,28.45v24.98l10.06,14.57v10.41l3.82-11.45l-3.82-7.29l-2.43-30.88l4.51-18.73l-4.51-5.9v-5.55
	l2.08-7.63v-11.1l4.16-8.33l-3.47-10.41l-2.78-9.71l1.04-10.06l1.73-11.45c0,0,3.82-17.35,3.47-18.39s7.98-22.2,7.98-22.2
	l-9.02-6.59c0,0,7.29-20.47,6.24-20.82s-6.94-5.9-6.94-5.9l15.96-26.37l-12.84-11.8l-6.59-23.94v-13.18l-0.35-9.02l-4.16-4.86
	l9.71-23.94l2.08-9.71c0,0-7.29,0.69-7.63-0.35c-0.35-1.04-0.69-27.06-0.69-27.06l20.47-12.14v-11.45l23.94-6.59l14.22-10.06
	l5.2-2.08v-6.24l-7.98,1.73l-10.41,6.24l-14.57-5.9l-8.67,3.47l-12.84-9.71l-11.8,3.12l-13.18-4.16l-3.47-3.47l9.02-22.9
	l-9.71-10.75l-10.06-24.28l1.39-12.84L256.8,205.72z"/>
<path class="st0" d="M309.74,241.86h17.78h12.93l6.73-4.31h10.78l8.08,2.16c0,0,13.2-0.27,14.28,0c1.08,0.27,7.81,5.66,7.81,5.66
	l10.78,12.12l1.62,27.75l-5.12,5.66c0,0,1.08,12.39,1.89,12.12s11.04,8.89,11.04,8.89l-3.5,13.47l-1.62,17.78l5.12,7l-1.62,16.16
	l-3.23,10.78l11.31,9.97l-4.93,46.82l10.81,35.69l-6.53,20.36l-1.01,11.81l-2.51,7.04l0.25,8.29l-5.53,5.03l-2.51,12.32l-6.53,13.32
	l11.31,18.85l-3.03,34.08L411,613.5l-4.28,13.64l1.87,8.29l-1.61,9.1l5.35,25.95l-6.69,14.98l11.5,15.52l1.34,13.9l4.01,8.57v15.78
	l-7.76,20.33l1.61,14.45l4.82-15.78l10.7-19.26l2.41-22.47l6.42-6.96l-1.07-9.36l1.07-22.47l4.01-10.97l-13.91-26.22l4.28-35.31
	l-1.34-9.36c0,0,4.55-2.68,5.08-4.01c0.54-1.34-1.16-26.52-1.16-26.52l3.7-6.99c0,0-4.11-4.52-4.11-5.76c0-1.23,0.62-4.11,0.62-5.14
	s-0.41-12.75-0.41-12.75l0.41-15.42l9.46-18.09l2.26-8.02l1.15-7.19l11.59-16.45l5.55-14.18l-14.6-46.87l5.76-17.47
	c0,0-1.64-11.1-1.44-11.72c0.21-0.62,10.07-11.51,10.28-12.95s-4.11-8.63-4.11-8.63l-0.62-12.75l-4.93-16.24l4.59-11.75l-7-13.04
	l1.59-14.63l-2.86-12.73l4.45-4.14l0.64-7.64l8.26-5.73l1.92-9.86l27.36-2.86l9.23,0.64l1.91-5.09c0,0,10.5-1.27,12.09-1.59
	c1.59-0.32,6.04,2.23,6.04,2.23l21.31-4.96l-12.09-7.12h-21.95l-5.73-5.41H492.4l-16.22-5.73l-15.27-5.09l-12.78-10.13l-8.32-24.02
	l-2.14-23.54l-6.66-3.8l-3.33-7.13l-6.66-8.56l-4.04-14.03l-12.13-14.27l-0.95,3.33l7.13,15.46l-1.66,60.87l-6.66,8.8l-7.61,2.14
	l4.76,8.32l-6.9-0.24l-7.13,9.75l-14.98-0.48l-5.71-3.09l-15.93,9.51l-0.24,3.8l-13.79-1.9l-1.66,3.09l-8.56,1.9L309.74,241.86z"/>
<polygon class="st0" points="510.22,306.77 523.35,295.98 537.35,295.98 544.35,288.1 550.77,288.1 558.65,278.47 561.86,265.05 
	561.86,253.68 573.23,237.34 573.23,225.67 581.4,221.59 590.44,212.54 587.82,224.5 582.86,235.88 582.86,244.05 587.82,246.67 
	586.94,258.05 595.4,265.64 595.4,275.85 613.2,292.18 627.79,288.68 640.33,292.18 644.41,286.35 661.92,295.1 657.83,301.23 
	644.41,300.35 640.33,312.6 621.95,314.35 609.12,330.69 612.62,340.32 597.74,356.66 600.36,367.74 593.65,376.49 589.86,382.33 
	590.55,402.95 592.55,406.65 588.56,412.63 599.66,420.31 597.1,434.84 589.7,445.09 592.26,459.89 608.49,474.41 602.8,488.08 
	603.94,495.77 592.55,520.83 592.55,532.22 599.38,540.76 599.66,551.86 590.27,560.12 586.07,566.95 589.7,574.07 595.11,579.48 
	593.12,593.43 587.71,597.99 587.42,609.66 592.55,617.64 595.39,626.18 589.7,632.44 575.75,662.34 577.74,676.58 573.47,683.13 
	568.63,672.88 568.34,665.47 565.78,657.5 569.2,633.3 569.2,628.46 562.93,612.23 571.76,605.68 572.05,593.43 572.61,586.6 
	568.34,575.21 575.75,566.1 575.18,552.72 577.17,539.05 576.03,528.8 577.17,510.29 576.03,497.76 571.08,480.76 571.53,466.87 
	575.34,453.19 562.79,425.84 560.1,418.44 562.34,415.53 563.68,399.16 559.2,387.96 570.18,373.38 567.94,370.25 563.01,366.66 
	566.82,359.93 569.96,357.47 569.06,348.5 567.27,341.78 567.27,332.81 569.06,326.53 562.56,317.12 550.46,311.06 537.23,316.44 
	529.83,307.7 "/>
<g>
	<g>
		<path class="st0" d="M222.86,1027.17l-14.36-25.9v22.28c0,0.73,0.16,1.28,0.49,1.67c0.33,0.39,0.91,0.71,1.76,0.97v0.98h-13.08
			v-0.98c0.82-0.21,1.4-0.52,1.74-0.91c0.34-0.4,0.51-0.96,0.51-1.69v-32.2c0-0.73-0.16-1.28-0.49-1.67
			c-0.33-0.39-0.91-0.7-1.76-0.93v-0.98h16.64v0.98c-1.1,0.35-1.65,1.02-1.65,2c0,0.96,0.4,2.13,1.2,3.52l9.82,17.81l9.89-17.57
			c1.12-1.85,1.69-3.16,1.69-3.94c0-0.96-0.57-1.57-1.72-1.83v-0.98h16.21v0.98c-0.84,0.23-1.43,0.54-1.76,0.93
			c-0.33,0.39-0.49,0.94-0.49,1.67v32.17c0,0.73,0.16,1.29,0.49,1.69c0.33,0.4,0.91,0.71,1.76,0.95v0.98h-13.92v-0.98
			c0.82-0.21,1.4-0.52,1.74-0.92c0.34-0.4,0.51-0.96,0.51-1.69v-22.31L222.86,1027.17z"/>
		<path class="st0" d="M268.3,991.38v32.17c0,0.73,0.16,1.28,0.49,1.67c0.33,0.39,0.91,0.71,1.76,0.97v0.98h-13.92v-0.98
			c0.82-0.21,1.4-0.52,1.74-0.91c0.34-0.4,0.51-0.96,0.51-1.69v-32.2c0-0.73-0.16-1.28-0.49-1.65c-0.33-0.38-0.91-0.69-1.76-0.95
			v-0.98h13.92v0.98c-0.84,0.23-1.43,0.54-1.76,0.93C268.46,990.1,268.3,990.66,268.3,991.38z"/>
		<path class="st0" d="M333.34,991.35l-4.75,9.18l-0.84-0.46c0-0.77-0.25-1.38-0.74-1.83c-1.34-1.2-3.3-2.18-5.91-2.95
			s-5.24-1.16-7.91-1.16c-2.27,0-4.29,0.32-6.05,0.95c-2.53,0.91-3.8,2.24-3.8,3.97c0,1.15,0.61,1.96,1.83,2.44
			c1.22,0.48,3.57,0.86,7.07,1.14l5.55,0.42c4.85,0.38,8.54,1.31,11.07,2.81c1.41,0.84,2.57,1.97,3.48,3.38
			c1.15,1.76,1.72,3.74,1.72,5.94c0,4.01-1.81,7.17-5.41,9.49c-3.45,2.23-8.11,3.34-13.99,3.34c-5.93,0-11.66-1.25-17.19-3.76
			c-0.38-0.16-0.69-0.25-0.95-0.25c-0.47,0-0.9,0.28-1.3,0.84l-0.88-0.35l4.04-9.63l0.88,0.35c0,0.14,0,0.23,0,0.28
			c0,0.61,0.23,1.12,0.7,1.55c1.17,1.03,3.2,1.93,6.08,2.69s5.73,1.14,8.54,1.14c2.48,0,4.71-0.33,6.68-0.98
			c2.44-0.8,3.66-2.09,3.66-3.87c0-1.43-0.84-2.43-2.53-2.99c-1.12-0.38-3.15-0.69-6.08-0.95l-5.52-0.46
			c-2.98-0.23-5.25-0.54-6.82-0.91c-1.57-0.38-2.94-0.93-4.11-1.65c-1.5-0.94-2.67-2.21-3.52-3.83s-1.27-3.39-1.27-5.31
			c0-4.31,1.85-7.61,5.55-9.88c3.38-2.06,7.55-3.09,12.52-3.09c2.69,0,5.21,0.3,7.54,0.9c2.33,0.6,5.12,1.65,8.35,3.15
			c0.96,0.45,1.63,0.67,2,0.67c0.37,0,0.86-0.26,1.44-0.77L333.34,991.35z"/>
		<path class="st0" d="M369.64,1017.33h-18.11l-2.04,4.29c-0.49,1.03-0.74,1.84-0.74,2.43c0,1.12,0.75,1.84,2.25,2.14v0.98h-14.47
			v-0.98c0.89-0.14,1.55-0.41,1.99-0.81c0.43-0.4,0.94-1.18,1.53-2.36l14.38-29.11c0.54-1.1,0.81-2.06,0.81-2.88
			c0-0.96-0.66-1.71-1.97-2.25v-0.98h15.29v0.98c-1.29,0.52-1.93,1.31-1.93,2.39c0,0.77,0.29,1.72,0.88,2.85l14.91,28.23
			c0.82,1.53,1.46,2.53,1.93,2.98c0.47,0.45,1.18,0.77,2.14,0.96v0.98h-16.08v-0.98c1.52-0.26,2.28-0.97,2.28-2.14
			c0-0.72-0.29-1.62-0.88-2.7L369.64,1017.33z M366.81,1011.81l-6.45-12.66l-6.14,12.66H366.81z"/>
		<path class="st0" d="M401.44,1020.04h22.04c0.75,0,1.31-0.16,1.69-0.48c0.37-0.32,0.69-0.91,0.95-1.77h0.95v11.64h-0.95
			c-0.23-0.84-0.54-1.43-0.93-1.76s-0.96-0.49-1.71-0.49h-33.71v-0.98c0.82-0.21,1.4-0.52,1.74-0.91c0.34-0.4,0.51-0.96,0.51-1.69
			v-32.2c0-0.73-0.16-1.28-0.49-1.65c-0.33-0.38-0.91-0.69-1.76-0.95v-0.98h13.92v0.98c-0.84,0.23-1.43,0.54-1.76,0.93
			c-0.33,0.39-0.49,0.94-0.49,1.67V1020.04z"/>
		<path class="st0" d="M446.23,1014.71l9.55-20.83c0.56-1.2,0.84-2.09,0.84-2.67c0-1.17-0.76-1.98-2.29-2.43v-0.98h15.22v0.98
			c-0.94,0.3-1.62,0.68-2.04,1.12c-0.42,0.45-0.96,1.36-1.62,2.74l-13.79,29c-0.49,1.03-0.74,1.82-0.74,2.36
			c0,1.17,0.77,1.91,2.32,2.21v0.95h-15.44v-0.95c1.52-0.3,2.29-1.04,2.29-2.21c0-0.54-0.25-1.32-0.74-2.36l-13.79-29
			c-0.66-1.41-1.19-2.33-1.6-2.76s-1.1-0.8-2.06-1.11v-0.98h15.78v0.98c-1.5,0.47-2.25,1.28-2.25,2.43c0,0.52,0.29,1.41,0.88,2.67
			L446.23,1014.71z"/>
		<path class="st0" d="M497.4,1017.33h-18.11l-2.04,4.29c-0.49,1.03-0.74,1.84-0.74,2.43c0,1.12,0.75,1.84,2.25,2.14v0.98h-14.47
			v-0.98c0.89-0.14,1.55-0.41,1.99-0.81c0.43-0.4,0.94-1.18,1.53-2.36l14.38-29.11c0.54-1.1,0.81-2.06,0.81-2.88
			c0-0.96-0.66-1.71-1.97-2.25v-0.98h15.29v0.98c-1.29,0.52-1.93,1.31-1.93,2.39c0,0.77,0.29,1.72,0.88,2.85l14.91,28.23
			c0.82,1.53,1.46,2.53,1.93,2.98c0.47,0.45,1.18,0.77,2.14,0.96v0.98h-16.08v-0.98c1.52-0.26,2.28-0.97,2.28-2.14
			c0-0.72-0.29-1.62-0.88-2.7L497.4,1017.33z M494.56,1011.81l-6.45-12.66l-6.14,12.66H494.56z"/>
		<path class="st0" d="M519.77,1023.59v-32.2c0-0.73-0.16-1.28-0.49-1.65c-0.33-0.38-0.91-0.69-1.76-0.95v-0.98h23.1
			c4.8,0,8.59,0.6,11.36,1.79c3.89,1.69,6.69,4.48,8.4,8.37c1.2,2.72,1.79,5.89,1.79,9.53c0,6.73-2,11.82-6.01,15.29
			c-1.81,1.55-3.93,2.67-6.38,3.36c-2.45,0.69-5.5,1.04-9.16,1.04h-23.1v-0.98c0.82-0.21,1.4-0.52,1.74-0.91
			C519.6,1024.88,519.77,1024.31,519.77,1023.59z M529.19,1020.04h10.05c4.62,0,7.97-1.05,10.05-3.16c2.18-2.2,3.27-5.33,3.27-9.39
			s-1.09-7.18-3.27-9.39c-1.08-1.1-2.41-1.9-4.01-2.41c-1.59-0.5-3.61-0.76-6.05-0.76h-10.05V1020.04z"/>
		<path class="st0" d="M590.35,986.95c6.26,0,11.48,1.59,15.66,4.78c5,3.84,7.49,9.2,7.49,16.07c0,6.45-2.5,11.59-7.49,15.43
			c-4.13,3.19-9.32,4.78-15.59,4.78c-6.26,0-11.46-1.59-15.59-4.78c-5.02-3.84-7.53-9.09-7.53-15.75c0-6.73,2.51-11.98,7.53-15.75
			C578.98,988.62,584.16,987.02,590.35,986.95z M590.38,994.41c-4.06,0-7.37,1.3-9.93,3.9c-2.37,2.44-3.56,5.5-3.56,9.18
			c0,3.66,1.19,6.7,3.56,9.14c2.56,2.62,5.88,3.94,9.96,3.94c4.06,0,7.37-1.31,9.93-3.94c2.37-2.41,3.56-5.4,3.56-8.96
			c0-3.87-1.19-6.98-3.56-9.35C597.76,995.76,594.44,994.45,590.38,994.41z"/>
		<path class="st0" d="M631.18,1011v12.56c0,0.73,0.16,1.28,0.49,1.67c0.33,0.39,0.91,0.71,1.76,0.96v0.98h-13.92v-0.98
			c0.82-0.21,1.4-0.52,1.74-0.91c0.34-0.4,0.51-0.96,0.51-1.69v-32.2c0-0.73-0.16-1.28-0.49-1.65c-0.33-0.38-0.91-0.69-1.76-0.95
			v-0.98h25.8c3.35,0,5.91,0.17,7.66,0.51s3.33,0.96,4.71,1.85c2.84,1.85,4.25,4.88,4.25,9.07c0,3.19-0.87,5.68-2.62,7.47
			c-1.75,1.79-4.56,3.09-8.46,3.88l7.45,10.38c1.36,1.92,2.44,3.22,3.25,3.91c0.81,0.69,1.73,1.13,2.76,1.32v0.98h-16.56v-0.98
			c1.22-0.33,1.83-0.85,1.83-1.58c0-0.51-0.38-1.3-1.13-2.35l-7.87-11.26H631.18z M631.18,1003.86h14.2c2.16,0,3.75-0.23,4.78-0.7
			c1.45-0.63,2.18-1.89,2.18-3.76c0-1.66-0.51-2.82-1.53-3.48s-2.83-0.98-5.43-0.98h-14.2V1003.86z"/>
	</g>
</g>
</svg>
