<?xml version="1.0" encoding="utf-8"?>
<!-- Generator: Adobe Illustrator 25.3.0, SVG Export Plug-In . SVG Version: 6.00 Build 0)  -->
<svg version="1.1" id="Capa_1" xmlns="http://www.w3.org/2000/svg" xmlns:xlink="http://www.w3.org/1999/xlink" x="0px" y="0px"
	 viewBox="0 0 566.9 566.9" style="enable-background:new 0 0 566.9 566.9;" xml:space="preserve">
<style type="text/css">
	.st0{fill:#E20E18;}
	.st1{fill:#FFFFFF;}
	.st2{fill:#020203;}
</style>
<g>
	<g>
		<g>
			<g>
				<g>
					<path class="st0" d="M391.6,106.8c0-33.7-25.4-61.2-56.6-61.2c-22.9,0-42.6,14.8-51.5,36c-8.9-21.2-28.6-36-51.5-36
						c-31.2,0-56.6,27.4-56.6,61.2c0,7.1,1.1,13.9,3.2,20.3c2.4,7.2,6,13.9,10.5,19.6c1.9,2.4,4,4.7,6.3,6.8l86.3,92.7
						c0.5,0.6,1.2,0.9,1.9,0.9c0.7,0,1.4-0.3,1.9-0.9L375,150l0,0c5.8-6.3,10.3-13.9,13.2-22.4C390.4,121,391.6,114,391.6,106.8z"/>
				</g>
			</g>
		</g>
		<g>
			<g>
				<g>
					<path class="st1" d="M282.7,238.9c-0.2,0-0.4,0-0.5-0.1c-0.4-0.2-0.8-0.5-1.2-0.9l-6.6-7.1c-0.5-0.5-0.5-1.4,0.1-1.9
						c0.5-0.5,1.4-0.5,1.9,0.1l6.6,7.1c0.1,0.1,0.2,0.2,0.3,0.2c0.7,0.3,1,1.1,0.7,1.8C283.7,238.6,283.2,238.9,282.7,238.9z
						 M290.6,232.5c-0.3,0-0.7-0.1-0.9-0.4c-0.5-0.5-0.6-1.3-0.1-1.9l7.3-7.8c0.5-0.5,1.3-0.6,1.9-0.1c0.5,0.5,0.6,1.3,0.1,1.9
						l-7.3,7.8C291.3,232.4,291,232.5,290.6,232.5z M268.1,223.4c-0.4,0-0.7-0.1-1-0.4l-7.3-7.8c-0.5-0.5-0.5-1.4,0.1-1.9
						c0.5-0.5,1.4-0.5,1.9,0.1l7.3,7.8c0.5,0.5,0.5,1.4-0.1,1.9C268.7,223.3,268.4,223.4,268.1,223.4z M305.1,216.9
						c-0.3,0-0.7-0.1-0.9-0.4c-0.5-0.5-0.6-1.3-0.1-1.9l7.3-7.8c0.5-0.5,1.3-0.6,1.9-0.1c0.5,0.5,0.6,1.3,0.1,1.9l-7.3,7.8
						C305.8,216.8,305.5,216.9,305.1,216.9z M253.6,207.8c-0.4,0-0.7-0.1-1-0.4l-7.3-7.8c-0.5-0.5-0.5-1.4,0.1-1.9
						c0.5-0.5,1.4-0.5,1.9,0.1l7.3,7.8c0.5,0.5,0.5,1.4-0.1,1.9C254.2,207.7,253.9,207.8,253.6,207.8z M319.6,201.3
						c-0.3,0-0.7-0.1-0.9-0.4c-0.5-0.5-0.6-1.3-0.1-1.9l7.3-7.8c0.5-0.5,1.3-0.6,1.9-0.1c0.5,0.5,0.6,1.3,0.1,1.9l-7.3,7.8
						C320.4,201.2,320,201.3,319.6,201.3z M239,192.2c-0.4,0-0.7-0.1-1-0.4l-7.3-7.8c-0.5-0.5-0.5-1.4,0.1-1.9
						c0.5-0.5,1.4-0.5,1.9,0.1l7.3,7.8c0.5,0.5,0.5,1.4-0.1,1.9C239.7,192.1,239.4,192.2,239,192.2z M334.2,185.7
						c-0.3,0-0.7-0.1-0.9-0.4c-0.5-0.5-0.6-1.3-0.1-1.9l7.3-7.8c0.5-0.5,1.3-0.6,1.9-0.1c0.5,0.5,0.6,1.3,0.1,1.9l-7.3,7.8
						C334.9,185.6,334.5,185.7,334.2,185.7z M224.5,176.6c-0.4,0-0.7-0.1-1-0.4l-7.3-7.8c-0.5-0.5-0.5-1.4,0.1-1.9
						c0.5-0.5,1.4-0.5,1.9,0.1l7.3,7.8c0.5,0.5,0.5,1.4-0.1,1.9C225.2,176.5,224.8,176.6,224.5,176.6z M348.7,170.1
						c-0.3,0-0.7-0.1-0.9-0.4c-0.5-0.5-0.6-1.3-0.1-1.9l7.3-7.8c0.5-0.5,1.3-0.6,1.9-0.1c0.5,0.5,0.6,1.3,0.1,1.9l-7.3,7.8
						C349.4,170,349,170.1,348.7,170.1z M210,161c-0.3,0-0.7-0.1-0.9-0.4c-1.8-1.7-3.5-3.6-5.1-5.6c-0.7-0.9-1.4-1.8-2-2.7
						c-0.4-0.6-0.3-1.4,0.3-1.9c0.6-0.4,1.4-0.3,1.9,0.3c0.6,0.9,1.2,1.7,1.9,2.5c1.5,1.9,3.2,3.7,4.9,5.3c0.5,0.5,0.6,1.3,0.1,1.9
						C210.7,160.9,210.3,161,210,161z M363,154.4c-0.3,0-0.6-0.1-0.8-0.3c-0.6-0.5-0.7-1.3-0.2-1.9c2-2.5,4.1-5.2,6.3-8.5
						c0.4-0.6,1.3-0.8,1.9-0.3c0.6,0.4,0.8,1.2,0.3,1.9c-2.3,3.3-4.4,6.1-6.4,8.6C363.8,154.2,363.4,154.4,363,154.4z M197.5,143.9
						c-0.5,0-0.9-0.2-1.1-0.7c-0.6-1-1.3-2.1-2-3.2c-1.1-1.6-2.1-3.7-3.1-6.4c-0.3-0.7,0.1-1.5,0.8-1.7c0.7-0.3,1.5,0.1,1.7,0.8
						c1,2.5,1.9,4.4,2.9,5.9c0.7,1.1,1.4,2.2,2,3.3c0.4,0.6,0.2,1.4-0.5,1.8C198,143.8,197.7,143.9,197.5,143.9z M375.1,136.8
						c-0.2,0-0.4,0-0.6-0.1c-0.7-0.3-0.9-1.1-0.6-1.8c1.5-3,3-6.5,4.2-9.6c0.3-0.7,1-1,1.7-0.8c0.7,0.2,1.1,1,0.8,1.7
						c-1.2,3.3-2.8,6.9-4.3,9.9C376,136.6,375.5,136.8,375.1,136.8z M189.2,124.4c-0.6,0-1.1-0.4-1.3-1c-1-3.5-1.6-7.1-1.7-10.8
						c0-0.7,0.6-1.4,1.3-1.4c0.8,0,1.4,0.5,1.4,1.3c0.1,3.5,0.7,6.9,1.6,10.2c0.2,0.7-0.2,1.4-0.9,1.7
						C189.4,124.4,189.3,124.4,189.2,124.4z M381.7,116.9c-0.7,0-1.3-0.6-1.3-1.3c0-3.4-0.3-6.8-1-10.3c-0.1-0.7,0.3-1.4,1.1-1.6
						c0.7-0.2,1.4,0.3,1.6,1c0.7,3.6,1.1,7.3,1.1,10.8C383.1,116.3,382.5,116.9,381.7,116.9z M188.3,103.3c-0.1,0-0.2,0-0.2,0
						c-0.7-0.1-1.2-0.8-1.1-1.6c0.7-3.5,1.7-7,3-10.5c0.3-0.7,1.1-1,1.7-0.8c0.7,0.3,1,1,0.8,1.7c-1.3,3.3-2.3,6.6-2.9,10
						C189.5,102.8,189,103.3,188.3,103.3z M283.5,101.5C283.5,101.5,283.5,101.5,283.5,101.5c-0.5,0-1-0.3-1.2-0.8
						c-1-2.3-2.3-4.9-3.9-7.5c-0.4-0.6-0.2-1.4,0.4-1.8c0.6-0.4,1.4-0.2,1.8,0.4c1.1,1.9,2.1,3.7,3,5.4c0.4-0.2,0.9-0.3,1.3-0.1
						c0.7,0.3,1,1.1,0.7,1.8c-0.3,0.6-0.5,1.2-0.8,1.8C284.5,101.2,284,101.5,283.5,101.5z M377.7,96.1c-0.5,0-1-0.3-1.2-0.9
						c-1.2-3.2-2.7-6.4-4.5-9.4c-0.4-0.6-0.1-1.5,0.5-1.8c0.6-0.4,1.4-0.2,1.8,0.5c1.8,3.1,3.4,6.4,4.7,9.8c0.3,0.7-0.1,1.5-0.8,1.7
						C378.1,96,377.9,96.1,377.7,96.1z M289.5,90.4c-0.3,0-0.5-0.1-0.7-0.2c-0.6-0.4-0.8-1.2-0.4-1.8c2-3,4.1-5.9,6.4-8.7
						c0.5-0.6,1.3-0.6,1.9-0.2c0.6,0.5,0.6,1.3,0.2,1.9c-2.3,2.7-4.4,5.6-6.3,8.4C290.4,90.2,289.9,90.4,289.5,90.4z M273.3,85.1
						c-0.4,0-0.8-0.2-1-0.5c-2.2-2.7-4.5-5.4-7-7.9c-0.5-0.5-0.5-1.4,0-1.9c0.5-0.5,1.4-0.5,1.9,0c2.5,2.6,5,5.3,7.2,8.1
						c0.5,0.6,0.4,1.4-0.2,1.9C273.9,85,273.6,85.1,273.3,85.1z M196,83.5c-0.2,0-0.5-0.1-0.7-0.2c-0.6-0.4-0.8-1.2-0.4-1.8
						c1.9-3.1,4.1-6.1,6.4-8.8c0.5-0.6,1.3-0.6,1.9-0.1c0.6,0.5,0.6,1.3,0.1,1.9c-2.3,2.6-4.3,5.4-6.1,8.4
						C196.9,83.3,196.5,83.5,196,83.5z M367.1,77.7c-0.4,0-0.8-0.2-1-0.5c-2.2-2.8-4.7-5.3-7.2-7.5c-0.6-0.5-0.6-1.3-0.1-1.9
						c0.5-0.6,1.3-0.6,1.9-0.1c2.7,2.3,5.2,4.9,7.6,7.8c0.5,0.6,0.4,1.4-0.2,1.9C367.7,77.6,367.4,77.7,367.1,77.7z M303.1,74.1
						c-0.3,0-0.7-0.1-1-0.4c-0.5-0.5-0.5-1.4,0-1.9c2.7-2.6,5.5-5,8.3-7c0.6-0.4,1.4-0.3,1.9,0.3c0.4,0.6,0.3,1.4-0.3,1.9
						c-2.7,1.9-5.4,4.2-8,6.7C303.8,73.9,303.5,74.1,303.1,74.1z M258.3,70c-0.3,0-0.6-0.1-0.8-0.3c-2.9-2.3-5.8-4.3-8.6-5.9
						c-0.6-0.4-0.9-1.2-0.5-1.8c0.4-0.6,1.2-0.9,1.8-0.5c3,1.7,6,3.7,9,6.1c0.6,0.5,0.7,1.3,0.2,1.9C259.1,69.9,258.7,70,258.3,70z
						 M210,67.6c-0.4,0-0.8-0.2-1.1-0.5c-0.5-0.6-0.3-1.4,0.2-1.9c3-2.3,6.1-4.3,9.3-5.7c0.7-0.3,1.5,0,1.8,0.7
						c0.3,0.7,0,1.5-0.7,1.8c-3,1.4-6,3.2-8.8,5.4C210.6,67.5,210.3,67.6,210,67.6z M351,63.9c-0.2,0-0.4-0.1-0.6-0.2
						c-3.1-1.7-6.3-3-9.5-3.8c-0.7-0.2-1.1-0.9-1-1.6c0.2-0.7,0.9-1.1,1.6-1c3.4,0.9,6.9,2.2,10.2,4.1c0.6,0.4,0.9,1.2,0.5,1.8
						C352,63.6,351.5,63.9,351,63.9z M320.4,61.8c-0.5,0-1-0.3-1.2-0.8c-0.3-0.7,0-1.5,0.7-1.8c3.7-1.7,7.3-2.7,10.6-3
						c0.8-0.1,1.4,0.5,1.4,1.2c0.1,0.7-0.5,1.4-1.2,1.4c-3.1,0.3-6.4,1.2-9.8,2.7C320.8,61.7,320.6,61.8,320.4,61.8z M239.8,59.8
						c-0.1,0-0.2,0-0.4,0c-3.6-1-6.8-1.1-10-0.7c-0.8,0.1-1.4-0.4-1.5-1.2c-0.1-0.7,0.4-1.4,1.2-1.5c3.6-0.4,7.2-0.3,11.1,0.8
						c0.7,0.2,1.1,0.9,0.9,1.6C240.9,59.5,240.4,59.8,239.8,59.8z"/>
				</g>
			</g>
		</g>
	</g>
	<g>
		<g>
			<path class="st2" d="M131.8,268.7H170c7.5,0,13.6,0.7,18.3,2.2c4.6,1.5,8.5,3.6,11.5,6.3c3,2.7,5.2,5.9,6.6,9.5
				c1.4,3.6,2,7.5,2,11.5c0,6.4-1,11.3-3,14.8c-2,3.5-4.8,6.4-8.4,8.8c-3.6,2.4-7.5,3.9-11.6,4.7c-5.6,1.1-10.8,1.6-15.3,1.6h-38.2
				V268.7z M157.5,282.1v32.5h6.3c5.4,0,9.2-0.4,11.5-1.3c2.3-0.9,4.1-2.3,5.3-4.5c1.3-2.1,1.9-5.6,1.9-10.3c0-6.3-1.4-10.6-4.3-13
				c-2.9-2.3-7.6-3.5-14.3-3.5H157.5z"/>
		</g>
		<g>
			<path class="st2" d="M223,268.7h25.8v59.5H223V268.7z"/>
		</g>
		<g>
			<path class="st2" d="M264,298.5c0-9.7,3.8-17.3,11.4-22.7c7.6-5.4,18.1-8.1,31.6-8.1c13.9,0,24.5,2.7,32,8
				c7.5,5.3,11.2,12.8,11.2,22.3c0,7-1.6,12.7-4.9,17.1c-3.3,4.5-8,7.9-14.2,10.4c-6.2,2.5-13.9,3.7-23.1,3.7
				c-9.4,0-17.2-1.1-23.3-3.2c-6.2-2.1-11.1-5.5-15-10.1C265.9,311.2,264,305.4,264,298.5z M289.7,298.5c0,6,1.6,10.3,4.7,13
				c3.1,2.6,7.4,3.9,12.7,3.9c5.5,0,9.8-1.3,12.8-3.9c3-2.6,4.5-7.2,4.5-13.8c0-5.6-1.6-9.7-4.7-12.3c-3.2-2.6-7.5-3.9-12.9-3.9
				c-5.2,0-9.4,1.3-12.5,3.9C291.3,288.1,289.7,292.5,289.7,298.5z"/>
		</g>
		<g>
			<path class="st2" d="M359.6,308.5l24.5-1.1c0.5,2.8,1.6,5,3.2,6.5c2.6,2.4,6.4,3.6,11.4,3.6c3.7,0,6.5-0.6,8.5-1.8
				c2-1.2,3-2.7,3-4.3c0-1.5-0.9-2.9-2.8-4.1c-1.9-1.2-6.3-2.4-13.2-3.4c-11.3-1.8-19.3-4.2-24.1-7.2c-4.8-3-7.3-6.8-7.3-11.5
				c0-3.1,1.2-5.9,3.7-8.7c2.5-2.7,6.2-4.9,11.2-6.4c5-1.6,11.8-2.3,20.5-2.3c10.6,0,18.7,1.4,24.3,4.2c5.6,2.8,8.9,7.3,10,13.5
				l-24.2,1c-0.6-2.7-2-4.6-4.1-5.8c-2.1-1.2-4.9-1.8-8.5-1.8c-3,0-5.2,0.5-6.8,1.4c-1.5,0.9-2.3,2-2.3,3.3c0,0.9,0.6,1.8,1.9,2.6
				c1.2,0.8,4.1,1.5,8.6,2.2c11.2,1.7,19.3,3.5,24.2,5.3c4.9,1.8,8.4,4,10.6,6.6c2.2,2.6,3.3,5.6,3.3,8.8c0,3.8-1.5,7.3-4.4,10.6
				c-3,3.2-7.1,5.7-12.4,7.3c-5.3,1.7-12,2.5-20,2.5c-14.2,0-24-1.9-29.4-5.8C363.4,319.4,360.3,314.5,359.6,308.5z"/>
		</g>
	</g>
	<g>
		<g>
			<path class="st2" d="M253,348.8h27.1v8.6h-17.2v16h13.7v8.6h-13.7v18.6h17.2v8.6H253V348.8z"/>
		</g>
		<g>
			<path class="st2" d="M284.3,394.9v-3.5h9.4v4.1c0,4.3,2,5.9,5.2,5.9s5.2-1.6,5.2-6c0-5-2-8.2-8.5-13.7c-8.3-7-11-11.9-11-18.8
				c0-9.5,5.2-15,14.8-15c9.7,0,14.5,5.5,14.5,15.2v2.5h-9.4v-3.1c0-4.3-1.8-6-5-6c-3.2,0-5,1.6-5,5.8c0,4.4,2.1,7.6,8.6,13
				c8.3,7,10.9,11.8,10.9,19.4c0,9.9-5.2,15.4-15,15.4C289.2,410.1,284.3,404.6,284.3,394.9z"/>
		</g>
	</g>
	<g>
		<g>
			<path class="st2" d="M151,507.6c0.8-5.2,0.8-5.1,0-6.2c-0.9-1.1-1.8-3.8-1.8-5.1c0-2.2,1.2-3.6,3-3.6c1,0,1.5-0.5,1.7-1.9
				c0.4-2.6,2.7-13.4,4.2-19.5c5.1-21.3,10.4-35.7,14.3-39.3c2.3-2.1,5.4-2.5,9.3-1.1c2.7,0.9,3.4,1.3,5.1,3.2
				c5,5.2,7,16.4,8.2,45.2c0.1,3.8,0.4,9.3,0.5,12.3c0.2,2.9,0.4,6.4,0.3,7.7c-0.1,3.4,0.5,11.8,1.1,18.6c0.6,6.5,0.8,8.5,1.4,10.2
				c0.9,1.9,0.2,2.8-2.3,3.3c-2.5,0.4-6.2-0.7-7.5-2.4c-1.5-1.9-2.6-9.9-3.1-22.3c0-2.1-0.2-4.5-0.3-5.3l-0.1-1.5l-4.1,0.2
				c-7,0.2-16.2,1.4-16.9,2.1c-0.4,0.4-1.7,9.8-2.2,16.6c-0.6,6.9-1.1,11-1.6,11.9c-0.7,1.2-2,1.8-4.1,1.9c-0.9,0-2.3,0-3-0.2
				c-1.5-0.2-3.8-1.7-4.3-2.7C148.4,528.5,149.4,517.6,151,507.6z M165.7,490.5c0,0.2,0.2,0.3,0.7,0.2c0.3,0,2-0.2,3.8-0.4
				c1.7-0.1,5.8-0.2,8.9-0.2h5.7l-0.1-1.3c-0.1-0.8-0.2-3.9-0.4-6.9c-0.6-11.5-1.5-21.7-2.7-28.8c-0.7-4.5-1.9-9.9-2.1-9.9
				c-0.4,0-3.5,6.8-4.9,10.7c-2.1,5.7-4.3,13.8-6.2,22.3C167.6,479.9,165.7,489.9,165.7,490.5z"/>
		</g>
		<g>
			<path class="st2" d="M276.5,489c-2.3,23.1-3.7,40.2-3.4,41.7c0.4,2.3-2.3,3.3-5.9,2.1c-1.8-0.6-3.2-1.5-3.9-2.5
				c-0.4-0.8-0.4-1.2-0.3-6.9c0.2-7.3,0.6-13.8,1.1-19.9c2.2-23.5,2.7-29.5,3.1-39.3c0.5-9.6,0.3-17.9-0.6-23.9
				c-0.1-1.3-0.4-2.3-0.4-2.3c-0.5,0-3.5,4.6-5.3,7.8c-1.5,2.7-3.5,7.4-5,11.5c-3.7,10-6,19.4-8.3,33.6c-3,17.9-3.1,18.4-4.5,19.2
				c-1.4,0.9-3.4,1-5.8,0.4c-3.6-1-5-2.1-5.8-4.6c-0.2-0.6-1.1-5.9-2-11.7c-2-12.9-2.8-18.1-4.2-25.1c-1.3-6.4-2.9-13.8-3.1-13.9
				c-0.4-0.3-1.8,6.5-2.7,13.1c-2.6,16.7-3,33.9-1.4,55.9c0.4,5.8,0.4,6,0,6.6c-1.3,1.5-3.4,2-6.7,1.3c-2.4-0.4-4.2-1.3-4.9-2.5
				c-0.4-0.8-0.8-3.1-1.2-8.3c-0.4-4.8-0.5-23.4,0-29.5c1.7-23.9,5.8-46.2,9.6-51.5c1-1.4,2.6-2.2,4.8-2.4c2.9-0.2,7.4,1.4,9.3,3.3
				c2,2.1,3.4,6,4.9,13.5c1,4.6,3.5,18.4,3.9,21.1c0.1,0.8,0.2,1.6,0.3,1.7c0.1,0.1,0.8-2.3,1.7-5.6c3.6-13.5,7.5-24,12.2-32.8
				c6-11.2,10.4-13.5,18.6-9.8c5.8,2.5,7.8,7,8.6,18.1C279.6,454.5,278.9,464.8,276.5,489z"/>
		</g>
		<g>
			<path class="st2" d="M325.7,521.5c-3.6,5.1-8.4,8.8-12.5,9.7c-1.9,0.4-5.8,0.5-7,0.3c-2.2-0.5-6-1.9-7.6-3
				c-6.9-4.3-11.3-14.1-13.1-29.2c-0.7-6.6-0.7-17.3,0-24.2c1.4-12.6,4.6-23.9,9.5-34c2.5-5,4.3-7.8,6.7-10.4
				c2.2-2.3,3.9-3.1,6.6-3.1c1.6,0,2.1,0.1,4.1,1.1c1.2,0.6,2.7,1.6,3.2,2.1c0.7,0.7,1.3,1.1,2.5,1.3c2.3,0.5,7.2,2.4,9.3,3.7
				c7.8,4.5,12.2,13.1,13.4,26.2C342.4,480.1,335.4,507.9,325.7,521.5z M330.5,460.6c-0.6-8.9-2.8-15.1-6.6-19
				c-1.4-1.4-2.3-1.9-3.6-2.5c-1-0.4-2.2-0.7-2.7-0.8c-0.8,0-0.9,0-1.1,0.6c-0.1,1.2-2.5,1.8-4.7,1.2l-1.2-0.3l-0.6,0.9
				c-2.2,3.1-5.5,10.2-7.6,15.9c-2.9,7.9-4.6,16.2-5.5,26.3c-1,13.2,1.1,28.9,4.8,36.2c1.2,2.3,2.7,4.4,3.4,4.4
				c0.3,0,1.3-0.4,2.1-0.9c5.5-3.3,10.6-10.1,14.9-20C328.2,488.7,331.4,472.7,330.5,460.6z"/>
		</g>
		<g>
			<path class="st2" d="M390.6,498.7l-5.7,5.2l2-0.3c10.1-1.9,14.4-2.4,19.1-2.4c2.6,0,3.7,0,5,0.5c4.2,1.3,7.5,5.7,5.7,7.5
				c-0.5,0.5-0.7,0.5-1.9,0.4c-3.9-0.4-4.8-0.4-7-0.1c-7.2,0.9-19.4,3.9-29,7l-3.4,1.2l0.1,2.5c0.1,4.2,0.7,7,1.6,8.2
				c0.9,1.2,0.8,2.2-0.3,2.8c-1.3,0.7-3,0.8-5.1,0.3c-1-0.3-2.3-0.8-2.9-1.2c-1.8-1.2-2.4-2.7-3.3-8.2c-0.2-0.9-0.2-0.9-1-0.8
				c-3.3,0.5-8.6-4-8.6-7.1c0-1.4,0.2-1.5,3.7-3.9c1.4-0.9,3.1-2.1,3.6-2.4l0.9-0.8v-7.5c0.1-10.5,0.6-19,1.8-28.8
				c0.5-4.5,1.7-12.6,2-13.9c0.1-0.6,0.1-0.6-0.5-0.2c-0.3,0.3-0.8,0.5-1.1,0.5s-1.7,0.3-3.1,0.7c-4.5,1.4-7.9,1.3-10.4-0.3
				c-4.1-2.7-5.6-5.6-4.7-8.8c0.8-2.7,5.1-7.3,9.8-10.2c8.1-5.2,18.2-8.1,28-8.1c6.2,0,11,0.9,15.7,3.2c6.5,3.1,12.4,9.1,14.8,15
				C422,461.9,414.7,476,390.6,498.7z M398.3,474.5c8.2-10.3,11.5-19,10-25.5c-1-3.8-3.1-6.3-7-8c-3.5-1.7-5.2-1.9-10.9-1.9
				c-4.5,0-5.3,0-8.2,0.7c-4.1,0.9-7.2,1.9-10.5,3.5c-3.1,1.5-7.5,4.3-8.6,5.4l-0.8,0.8l1,0.3c1.5,0.4,4.3,3.2,4.6,4.6l0.2,1
				l0.2-0.9c0.1-0.5,0.1-1.2,0.1-1.7c-0.2-1.1,1.7-6.5,2.6-7.5c0.7-0.8,0.9-0.8,2.8-0.8c1.9,0,2.4,0.1,4.1,0.9
				c2.7,1.2,4.4,2.9,4.4,4.6c0,0.3-0.8,4.2-1.7,8.5c-3.1,13.9-4.4,23-5.2,36.5l-0.2,3l0.9-0.7c0.5-0.3,2.6-2.3,4.7-4.3
				C386.9,487.5,394.3,479.7,398.3,474.5z"/>
		</g>
	</g>
</g>
</svg>
