<?xml version="1.0" encoding="utf-8"?>
<!-- Generator: Adobe Illustrator 25.3.0, SVG Export Plug-In . SVG Version: 6.00 Build 0)  -->
<svg version="1.1" id="Capa_1" xmlns="http://www.w3.org/2000/svg" xmlns:xlink="http://www.w3.org/1999/xlink" x="0px" y="0px"
	 viewBox="0 0 566.9 566.9" style="enable-background:new 0 0 566.9 566.9;" xml:space="preserve">
<style type="text/css">
	.st0{fill:#FFFFFF;}
</style>
<g>
	<g>
		<path d="M116.7,159.4c0,1.8-0.2,3.2-0.5,4.3c-0.3,1.1-0.9,2-1.7,2.8c-0.8,0.8-2,1.6-3.6,2.4c-0.7-1.4-1.1-2.3-1.3-2.5
			c1.5-1,2.5-1.9,2.9-2.6c0.4-0.8,0.7-2,0.7-3.8v-18h3.5V159.4z"/>
	</g>
	<g>
		<path d="M153,145.3h-11.8v6.1h9.1v3.3h-9.1v6.6h12.4v3.4h-15.9v-22.8H153V145.3z"/>
	</g>
	<g>
		<path d="M169.8,159.4c0.8,0.6,2,1.1,3.5,1.6c1.5,0.5,2.9,0.7,4.1,0.7c4,0,6-1,6-3.1c0-0.4-0.1-0.8-0.2-1.1
			c-0.1-0.3-0.4-0.6-0.7-0.9c-0.3-0.2-0.7-0.5-1-0.6c-0.3-0.2-0.8-0.4-1.4-0.5c-0.6-0.2-1.1-0.3-1.5-0.4c-0.4-0.1-1-0.2-1.7-0.4
			c-0.9-0.2-1.6-0.4-2.3-0.5c-0.6-0.2-1.3-0.5-2.1-0.8s-1.4-0.8-1.9-1.2c-0.5-0.4-0.9-1-1.2-1.7c-0.3-0.7-0.5-1.5-0.5-2.4
			c0-2.1,0.8-3.8,2.4-4.9c1.6-1.1,3.8-1.7,6.5-1.7c1.5,0,3.2,0.2,4.9,0.6c1.7,0.4,3,1,3.9,1.6l-1.5,3.3c-2.1-1.4-4.4-2.1-7-2.1
			c-3.6,0-5.4,1-5.4,3c0,1,0.4,1.7,1.3,2.2c0.9,0.5,2.5,1,4.9,1.5c1,0.2,1.9,0.5,2.5,0.7c0.7,0.2,1.4,0.5,2.2,0.9
			c0.8,0.4,1.4,0.8,1.9,1.3c0.5,0.5,0.9,1,1.2,1.8c0.3,0.7,0.5,1.5,0.5,2.5c0,2.1-0.9,3.7-2.6,4.8c-1.7,1.1-4.1,1.7-7.2,1.7
			c-3.5,0-6.6-0.8-9.2-2.4L169.8,159.4z"/>
	</g>
	<g>
		<path d="M220.6,141.8c1.1,4,1.7,7.5,1.7,10.6c0,4-1,7.1-3.1,9.3c-2,2.3-5,3.4-8.9,3.4c-4,0-7-1.1-9-3.3c-2.1-2.2-3.1-5.4-3.1-9.5
			c0-3,0.6-6.5,1.7-10.5c1.3,0.2,2.6,0.2,3.7,0.2c-1.1,3.9-1.7,7.3-1.7,10.2c0,3.1,0.7,5.5,2.1,7c1.4,1.5,3.5,2.3,6.4,2.3
			c2.9,0,4.9-0.8,6.3-2.4c1.3-1.6,2-3.9,2-7.1c0-2.6-0.6-6-1.7-10.1C218.1,142,219.3,141.9,220.6,141.8z M207.9,137.6
			c2.5-0.9,4.8-2.1,6.9-3.5l1.6,2.3c-0.9,0.5-2.1,1.1-3.6,1.7c-1.5,0.6-2.9,1.1-4.1,1.4L207.9,137.6z"/>
	</g>
	<g>
		<path d="M238.8,159.4c0.8,0.6,2,1.1,3.5,1.6c1.5,0.5,2.9,0.7,4.1,0.7c4,0,6-1,6-3.1c0-0.4-0.1-0.8-0.2-1.1
			c-0.1-0.3-0.4-0.6-0.7-0.9c-0.3-0.2-0.7-0.5-1-0.6c-0.3-0.2-0.8-0.4-1.4-0.5c-0.6-0.2-1.1-0.3-1.5-0.4c-0.4-0.1-1-0.2-1.7-0.4
			c-0.9-0.2-1.6-0.4-2.3-0.5c-0.6-0.2-1.3-0.5-2.1-0.8c-0.8-0.4-1.4-0.8-1.9-1.2c-0.5-0.4-0.9-1-1.2-1.7c-0.3-0.7-0.5-1.5-0.5-2.4
			c0-2.1,0.8-3.8,2.4-4.9c1.6-1.1,3.8-1.7,6.5-1.7c1.5,0,3.2,0.2,4.9,0.6c1.7,0.4,3,1,3.9,1.6l-1.5,3.3c-2.1-1.4-4.4-2.1-7-2.1
			c-3.6,0-5.4,1-5.4,3c0,1,0.4,1.7,1.3,2.2c0.9,0.5,2.5,1,4.9,1.5c1,0.2,1.9,0.5,2.5,0.7c0.7,0.2,1.4,0.5,2.2,0.9
			c0.8,0.4,1.4,0.8,1.9,1.3c0.5,0.5,0.9,1,1.2,1.8c0.3,0.7,0.5,1.5,0.5,2.5c0,2.1-0.9,3.7-2.6,4.8c-1.7,1.1-4.1,1.7-7.2,1.7
			c-3.5,0-6.6-0.8-9.2-2.4L238.8,159.4z"/>
	</g>
	<g>
		<path d="M289.7,147.2c-1.8-1.6-3.9-2.4-6.2-2.4c-2.5,0-4.6,0.8-6.1,2.3c-1.5,1.5-2.3,3.6-2.3,6.2c0,2.6,0.7,4.6,2.2,6.1
			c1.5,1.5,3.5,2.3,6.1,2.3c2.4,0,4.6-0.8,6.4-2.5l1.8,2.9c-2.2,2-5.1,3-8.6,3c-3.3,0-6.1-1.1-8.3-3.2c-2.2-2.1-3.3-5-3.3-8.6
			c0-3.5,1.1-6.4,3.2-8.5c2.2-2.2,4.9-3.2,8.4-3.2c3.4,0,6.2,1,8.4,2.9L289.7,147.2z"/>
	</g>
	<g>
		<path d="M325.8,164.6c-1.1,0-2.2,0.1-3.6,0.2l-3.3-6.5c-1,0.3-2.5,0.5-4.6,0.5c-0.9,0-2.1-0.1-3.4-0.2v6.1h-3.5v-22.5
			c3.7-0.5,6.2-0.7,7.6-0.7c1.4,0,2.6,0.2,3.8,0.5c1.2,0.3,2.3,0.8,3.3,1.5c1,0.7,1.8,1.6,2.4,2.7c0.6,1.1,0.9,2.5,0.9,3.9
			c-0.1,3.1-1.2,5.3-3.4,6.8L325.8,164.6z M310.8,155.3c1.7,0.2,3.1,0.3,4.4,0.3c1.8,0,3.3-0.4,4.6-1.3c1.2-0.9,1.8-2.2,1.8-4
			c0-1.7-0.6-3-1.9-3.9c-1.3-0.9-2.9-1.4-4.8-1.4c-1.1,0-2.4,0.1-4.1,0.3V155.3z"/>
	</g>
	<g>
		<path d="M344.9,164.7h-3.5v-22.8h3.5V164.7z"/>
	</g>
	<g>
		<path d="M362.1,159.4c0.8,0.6,2,1.1,3.5,1.6c1.5,0.5,2.9,0.7,4.1,0.7c4,0,6-1,6-3.1c0-0.4-0.1-0.8-0.2-1.1
			c-0.1-0.3-0.4-0.6-0.7-0.9c-0.3-0.2-0.7-0.5-1-0.6c-0.3-0.2-0.8-0.4-1.4-0.5c-0.6-0.2-1.1-0.3-1.5-0.4c-0.4-0.1-1-0.2-1.7-0.4
			c-0.9-0.2-1.6-0.4-2.3-0.5c-0.6-0.2-1.3-0.5-2.1-0.8c-0.8-0.4-1.4-0.8-1.9-1.2c-0.5-0.4-0.9-1-1.2-1.7s-0.5-1.5-0.5-2.4
			c0-2.1,0.8-3.8,2.4-4.9c1.6-1.1,3.8-1.7,6.5-1.7c1.5,0,3.2,0.2,4.9,0.6c1.7,0.4,3,1,3.9,1.6l-1.5,3.3c-2.1-1.4-4.4-2.1-7-2.1
			c-3.6,0-5.4,1-5.4,3c0,1,0.4,1.7,1.3,2.2c0.9,0.5,2.5,1,4.9,1.5c1,0.2,1.9,0.5,2.5,0.7c0.7,0.2,1.4,0.5,2.2,0.9
			c0.8,0.4,1.4,0.8,1.9,1.3c0.5,0.5,0.9,1,1.2,1.8c0.3,0.7,0.5,1.5,0.5,2.5c0,2.1-0.9,3.7-2.6,4.8c-1.7,1.1-4.1,1.7-7.2,1.7
			c-3.5,0-6.6-0.8-9.2-2.4L362.1,159.4z"/>
	</g>
	<g>
		<path d="M405,164.7h-3.6v-19.4h-7.7v-3.4h19v3.4H405V164.7z"/>
	</g>
	<g>
		<path d="M427.1,153.3c0-3.5,1.1-6.3,3.3-8.5c2.2-2.2,5-3.3,8.5-3.3c3.5,0,6.3,1.1,8.5,3.3c2.2,2.2,3.3,5,3.3,8.5
			c0,3.5-1.1,6.3-3.3,8.5c-2.2,2.2-5,3.3-8.5,3.3c-3.5,0-6.4-1.1-8.5-3.3C428.2,159.6,427.1,156.7,427.1,153.3z M430.8,153.3
			c0,2.5,0.7,4.6,2.2,6.1c1.5,1.5,3.4,2.3,5.9,2.3c2.5,0,4.4-0.8,5.9-2.3c1.5-1.5,2.2-3.5,2.2-6.1c0-2.5-0.7-4.6-2.2-6.1
			c-1.5-1.5-3.4-2.3-5.8-2.3c-2.5,0-4.5,0.8-5.9,2.3C431.6,148.7,430.8,150.7,430.8,153.3z"/>
	</g>
</g>
<g>
	<rect x="263.4" y="50.3" width="27.2" height="83.3"/>
</g>
<g>
	<rect x="263.4" y="171.9" width="27.2" height="365.2"/>
</g>
<g>
	<path class="st0" d="M272.7,530.6c-0.3-116.9-0.3-237.3,0-357.9l8.5,0c-0.3,120.6-0.3,241,0,357.9L272.7,530.6z"/>
</g>
<g>
	<rect x="272.7" y="56.8" class="st0" width="8.5" height="75.7"/>
</g>
</svg>
