<?xml version="1.0" encoding="utf-8"?>
<!-- Generator: Adobe Illustrator 25.3.0, SVG Export Plug-In . SVG Version: 6.00 Build 0)  -->
<svg version="1.1" id="Capa_1" xmlns="http://www.w3.org/2000/svg" xmlns:xlink="http://www.w3.org/1999/xlink" x="0px" y="0px"
	 viewBox="0 0 566.9 566.9" style="enable-background:new 0 0 566.9 566.9;" xml:space="preserve">
<style type="text/css">
	.st0{fill:#E41B17;}
	.st1{fill:#151718;}
</style>
<g>
	<g>
		<g>
			<g>
				<g>
					<g>
						<path class="st0" d="M488.1,164c0-37.7-26.7-68.4-59.4-68.4c-24.1,0-44.8,16.5-54.1,40.2c-9.3-23.7-30.1-40.2-54.1-40.2
							c-32.8,0-59.4,30.7-59.4,68.4c0,8,1.2,15.6,3.4,22.7c2.5,8.1,6.3,15.5,11,21.9c2,2.7,4.2,5.3,6.6,7.6l90.7,103.6
							c0.6,0.6,1.3,1,2,1c0.7,0,1.5-0.3,2-1l94-107.5l0,0c6.1-7,10.9-15.6,13.9-25.1C486.9,180,488.1,172.2,488.1,164z"/>
					</g>
				</g>
			</g>
			<g>
				<g>
					<g>
						<path class="st1" d="M374.7,327c-2.6,0-5.1-1.1-6.9-3.1L265.6,214.2c-2.5-2.3-5.3-5.2-7.8-8.4c-5.9-7.4-10.5-15.9-13.5-25.1
							c-2.7-8.3-4.1-17.1-4.1-26c0-43.4,32.9-78.8,73.3-78.8c24.7,0,47.6,13.5,61,35.2c13.5-21.7,36.3-35.2,61.1-35.2
							c40.4,0,73.3,35.3,73.3,78.8c0,9.1-1.4,18.1-4.3,26.6c-3.2,9.4-8.1,18.3-14.3,25.8l0,0.1l-2.7,2.9L381.6,324
							C379.8,325.9,377.3,327,374.7,327z M377,315.4L377,315.4C377.1,315.4,377,315.4,377,315.4z M313.5,88.5
							c-33.5,0-60.7,29.7-60.7,66.2c0,7.6,1.2,15,3.5,22.1c2.6,7.8,6.4,14.9,11.4,21.2c2.1,2.7,4.4,5.1,6.8,7.3l100.3,107.6
							l103.7-111.4c6.3-6.8,11.3-15.2,14.3-24.3c2.4-7.2,3.6-14.8,3.6-22.6c0-36.5-27.2-66.2-60.7-66.2c-23.7,0-45.4,15.2-55.2,38.7
							l-5.8,13.9l-5.8-13.9C358.9,103.7,337.2,88.5,313.5,88.5z"/>
					</g>
				</g>
			</g>
		</g>
		<g>
			<g>
				<path class="st1" d="M185.7,320.7H88.9v-25H121v-195H88.9v-25h96.8v25h-32.1v195h32.1V320.7z"/>
			</g>
		</g>
	</g>
	<g>
		<g>
			<path class="st1" d="M112.6,463.6c0,3.9-0.7,7.5-2.1,10.8c-1.4,3.4-3.4,6.2-6.1,8.5c-2.9,2.5-6.3,4.4-10.4,5.8
				c-4.1,1.4-9.1,2-15.1,2c-4.1,0-7.9-0.1-11.5-0.4c-3.6-0.3-6.7-0.7-9.4-1.3v-17.8h2.1c1.9,0.7,3.9,1.4,5.9,2
				c2,0.6,4.7,0.9,7.9,0.9c4.1,0,7.3-0.6,9.5-1.7c2.2-1.1,3.8-2.6,4.8-4.6c0.9-1.9,1.4-4,1.5-6.4c0.1-2.3,0.2-5.2,0.2-8.8v-35.1
				H69.7v-16.2h42.8V463.6z"/>
		</g>
		<g>
			<path class="st1" d="M206.5,489.4h-63.6v-87.9h63.6v17h-41v15.2h38.1v17h-38.1v21.7h41V489.4z"/>
		</g>
		<g>
			<path class="st1" d="M305,461.8c0,8.7-3.7,15.7-11,21.1c-7.3,5.4-17.3,8.1-29.9,8.1c-7.3,0-13.6-0.6-19-1.9
				c-5.4-1.3-10.5-2.9-15.2-4.9v-21.1h2.5c4.7,3.7,9.9,6.6,15.7,8.6c5.8,2,11.4,3,16.7,3c1.4,0,3.2-0.1,5.4-0.4
				c2.2-0.2,4.1-0.6,5.5-1.2c1.7-0.7,3.2-1.6,4.3-2.7c1.1-1.1,1.7-2.6,1.7-4.7c0-1.9-0.8-3.6-2.5-5c-1.6-1.4-4-2.5-7.2-3.2
				c-3.3-0.8-6.8-1.5-10.5-2.2c-3.7-0.7-7.1-1.6-10.4-2.6c-7.4-2.4-12.7-5.7-16-9.8c-3.2-4.1-4.9-9.2-4.9-15.3c0-8.2,3.7-14.9,11-20
				c7.3-5.2,16.8-7.8,28.3-7.8c5.8,0,11.5,0.6,17.2,1.7c5.6,1.1,10.5,2.5,14.7,4.2v20.3h-2.4c-3.5-2.8-7.9-5.2-13-7.1
				c-5.1-1.9-10.4-2.9-15.7-2.9c-1.9,0-3.8,0.1-5.6,0.4c-1.9,0.3-3.7,0.7-5.4,1.4c-1.5,0.6-2.9,1.5-4,2.7c-1.1,1.2-1.7,2.6-1.7,4.1
				c0,2.3,0.9,4.1,2.7,5.3c1.8,1.2,5.1,2.4,10,3.4c3.2,0.7,6.3,1.3,9.3,1.9c3,0.6,6.2,1.5,9.6,2.6c6.7,2.2,11.7,5.2,14.9,9
				C303.4,450.8,305,455.7,305,461.8z"/>
		</g>
		<g>
			<path class="st1" d="M406.6,457.6c0,10.9-3.3,19.2-9.9,25c-6.6,5.8-16.4,8.7-29.2,8.7c-12.9,0-22.6-2.9-29.2-8.7
				c-6.6-5.8-9.9-14.1-9.9-24.9v-56.2h22.8v54.9c0,6.1,1.3,10.6,3.8,13.6c2.6,3,6.7,4.5,12.5,4.5c5.7,0,9.8-1.4,12.4-4.3
				c2.6-2.9,3.9-7.5,3.9-13.8v-54.9h22.8V457.6z M384.8,368.4v1.2l-20.8,22h-14.5l14.6-23.2H384.8z"/>
		</g>
		<g>
			<path class="st1" d="M507.3,461.8c0,8.7-3.7,15.7-11,21.1c-7.3,5.4-17.3,8.1-29.9,8.1c-7.3,0-13.6-0.6-19-1.9
				c-5.4-1.3-10.5-2.9-15.2-4.9v-21.1h2.5c4.7,3.7,9.9,6.6,15.7,8.6c5.8,2,11.4,3,16.7,3c1.4,0,3.2-0.1,5.4-0.4
				c2.2-0.2,4.1-0.6,5.5-1.2c1.7-0.7,3.2-1.6,4.3-2.7c1.1-1.1,1.7-2.6,1.7-4.7c0-1.9-0.8-3.6-2.4-5c-1.6-1.4-4-2.5-7.2-3.2
				c-3.3-0.8-6.8-1.5-10.5-2.2c-3.7-0.7-7.1-1.6-10.4-2.6c-7.4-2.4-12.7-5.7-16-9.8c-3.2-4.1-4.9-9.2-4.9-15.3c0-8.2,3.7-14.9,11-20
				c7.3-5.2,16.8-7.8,28.3-7.8c5.8,0,11.5,0.6,17.2,1.7c5.6,1.1,10.5,2.5,14.7,4.2v20.3h-2.4c-3.5-2.8-7.9-5.2-13-7.1
				c-5.1-1.9-10.4-2.9-15.7-2.9c-1.9,0-3.8,0.1-5.6,0.4c-1.9,0.3-3.7,0.7-5.4,1.4c-1.5,0.6-2.9,1.5-4,2.7c-1.1,1.2-1.7,2.6-1.7,4.1
				c0,2.3,0.9,4.1,2.7,5.3c1.8,1.2,5.1,2.4,10,3.4c3.2,0.7,6.3,1.3,9.3,1.9c3,0.6,6.2,1.5,9.6,2.6c6.7,2.2,11.7,5.2,14.9,9
				C505.7,450.8,507.3,455.7,507.3,461.8z"/>
		</g>
	</g>
</g>
</svg>
