<?xml version="1.0" encoding="utf-8"?>
<!-- Generator: Adobe Illustrator 25.3.0, SVG Export Plug-In . SVG Version: 6.00 Build 0)  -->
<svg version="1.1" id="Layer_1" xmlns="http://www.w3.org/2000/svg" xmlns:xlink="http://www.w3.org/1999/xlink" x="0px" y="0px"
	 viewBox="0 0 841.89 1190.55" style="enable-background:new 0 0 841.89 1190.55;" xml:space="preserve">
<style type="text/css">
	.st0{fill:#020202;}
	.st1{fill:#FFFFFF;}
</style>
<path class="st0" d="M198.1,513.46c0.08-7.1-0.16-15.91,0.1-24.71c0.37-12.29,3.59-23.85,9.63-34.54
	c10.19-18.06,25.23-30.29,44.99-36.65c7.48-2.41,15.19-3.5,23.04-3.52c8.77-0.02,17.54-0.02,26.31,0.01c0.76,0,1.24-0.24,1.7-0.82
	c11.77-14.86,25.76-27.22,41.93-37.11c13.86-8.47,28.67-14.67,44.45-18.57c8.2-2.03,16.51-3.4,24.93-4.12
	c8.57-0.73,17.14-0.81,25.7-0.13c27.83,2.22,53.4,11.04,76.6,26.59c13.79,9.24,25.81,20.4,36.12,33.4c0.45,0.57,0.9,0.76,1.61,0.76
	c8.73-0.02,17.46-0.11,26.19,0.01c35.83,0.5,65.73,25.2,74.26,58.3c1.68,6.54,2.48,13.17,2.48,19.92
	c-0.01,15.42,0.02,30.83-0.01,46.25c-0.06,32.21-19.66,60.8-49.68,72.56c-9.34,3.66-19.03,5.3-29.04,5.28
	c-9.64-0.02-19.28,0.01-28.92-0.02c-0.91,0-1.52,0.25-2.13,0.94c-13.72,15.59-29.86,28.07-48.43,37.38c-13.17,6.6-27,11.24-41.48,14
	c-12.3,2.34-24.7,3.18-37.18,2.61c-19.02-0.87-37.33-4.99-54.85-12.47c-22.31-9.53-41.48-23.44-57.5-41.65
	c-0.53-0.6-1.07-0.8-1.84-0.8c-11.38-0.04-22.75,0.18-34.13-0.1c-10.22-0.25-20.02-2.53-29.24-6.9
	c-22.17-10.5-36.58-27.62-43.14-51.27c-1.83-6.61-2.5-13.39-2.48-20.25C198.12,530.28,198.1,522.72,198.1,513.46z"/>
<path class="st1" d="M322.72,503.08c-0.21,1.63-0.43,3.27-0.64,4.9c-1.03,8.15-2.41,16.24-4.02,24.3c-1.97,9.85-4,19.7-5.99,29.55
	c-0.16,0.81-0.4,1.15-1.34,1.15c-7.86-0.05-15.72-0.04-23.58-0.01c-0.82,0-1.15-0.2-1.31-1.04c-2.51-12.93-5.47-25.78-7.72-38.76
	c-1.11-6.39-2.16-12.78-2.8-19.24c-0.03-0.29,0-0.61-0.33-0.83c-0.43,4.86-0.99,9.68-1.68,14.48c-0.92,6.45-1.86,12.91-2.85,19.35
	c-1.05,6.81-2.18,13.62-3.27,20.42c-0.26,1.6-0.51,3.2-0.75,4.8c-0.08,0.55-0.27,0.81-0.93,0.81c-9.11-0.03-18.22-0.02-27.33-0.02
	c-0.15,0-0.29-0.04-0.49-0.07c1.63-6.84,3.25-13.64,4.87-20.44c4.27-17.89,8.55-35.77,12.82-53.66c2.07-8.67,4.13-17.34,6.18-26.01
	c0.16-0.66,0.4-0.96,1.18-0.96c7.97,0.04,15.95,0.04,23.92,0c0.81,0,1.05,0.24,1.22,1.03c2.34,11.16,4.82,22.29,6.9,33.51
	c1.54,8.3,2.96,16.62,3.98,25c0.15,1.22,0.12,2.48,0.51,3.66c1.78-15.15,4.54-30.15,7.71-45.08c1.18-5.56,2.38-11.11,3.49-16.69
	c0.23-1.14,0.63-1.46,1.81-1.45c7.67,0.07,15.34,0.05,23.02,0.02c0.82,0,1.13,0.2,1.33,1.05c7.05,29.64,14.14,59.26,21.21,88.89
	c0.82,3.44,1.61,6.89,2.46,10.32c0.18,0.72,0.04,0.89-0.7,0.89c-9.07-0.02-18.14-0.03-27.21,0.02c-0.91,0-0.86-0.53-0.94-1.03
	c-0.79-4.83-1.57-9.67-2.34-14.5c-0.96-6.03-1.95-12.05-2.86-18.09c-0.96-6.41-1.91-12.83-2.61-19.28
	c-0.25-2.33-0.52-4.65-0.78-6.97C322.81,503.09,322.76,503.08,322.72,503.08z"/>
<path class="st1" d="M398.73,526.13c0,11.86-0.01,23.73,0.02,35.59c0,0.99-0.23,1.24-1.23,1.24c-7.9-0.05-15.8-0.04-23.7-0.01
	c-0.84,0-1.07-0.18-1.07-1.05c0.03-23.8,0.03-47.61,0-71.41c0-0.87,0.24-1.04,1.06-1.04c7.9,0.03,15.8,0.04,23.7,0
	c0.95,0,1.25,0.16,1.25,1.2C398.72,502.48,398.73,514.31,398.73,526.13z"/>
<path class="st1" d="M385.78,456.17c3.77,0.03,7.34,0.8,10.41,3.13c6.83,5.18,6.32,15.75-1.16,19.92c-6.2,3.45-12.67,3.4-18.8-0.34
	c-3.98-2.43-5.61-6.33-5.31-10.92c0.33-5.11,3.24-8.44,7.81-10.43C380.97,456.55,383.33,456.15,385.78,456.17z"/>
<path class="st1" d="M643.14,491.97c-0.01-5.46-0.65-10.84-2.07-16.12c-7.47-27.82-32.28-46.83-61.1-46.83
	c-25.82-0.01-51.63,0-77.45,0c-4.16,0-8.3,0.29-12.39,1.07c-14.32,2.72-26.34,9.55-35.9,20.52c-10.43,11.97-15.5,25.98-15.48,41.86
	c0.02,15,0.01,30,0,45c0,5.41-0.42,10.78-1.47,16.09c-2.72,13.68-8.71,25.73-17.87,36.23c-3.69,4.23-7.81,7.98-12.59,11.54
	c0.67,0,1,0,1.33,0c57.15,0,114.3-0.01,171.46,0.01c5.85,0,11.6-0.63,17.23-2.19c27.41-7.56,46.2-32.19,46.3-60.71
	C643.19,522.96,643.15,507.47,643.14,491.97z M551.9,484.57c0.01,0.92-0.26,1.1-1.13,1.1c-19.05-0.02-38.1-0.01-57.15-0.05
	c-1.2,0-1.39,0.34-1.38,1.43c0.05,6.65,0.05,13.3,0,19.95c-0.01,1.03,0.28,1.23,1.26,1.23c17.12-0.03,34.24-0.01,51.37-0.04
	c0.99,0,1.34,0.18,1.33,1.27c-0.06,7.07-0.05,14.13-0.01,21.2c0.01,1-0.2,1.31-1.27,1.31c-17.12-0.04-34.24-0.02-51.37-0.05
	c-1,0-1.32,0.19-1.31,1.27c0.05,9.56,0.02,19.12,0.05,28.68c0,0.88-0.22,1.12-1.11,1.12c-8.58-0.04-17.16-0.04-25.74,0
	c-0.93,0-1.11-0.28-1.1-1.14c0.02-16.51,0.02-33.02,0.02-49.54c0-16.44,0.01-32.87-0.03-49.31c0-1.01,0.25-1.23,1.24-1.23
	c28.39,0.03,56.77,0.03,85.16,0c0.93,0,1.18,0.19,1.17,1.15C551.86,470.14,551.86,477.35,551.9,484.57z M618.47,486.65
	c0,0.92-0.19,1.19-0.99,1.19c-11.66-0.02-23.32-0.02-34.98-0.02c0,3.85,0,7.69,0,11.54c1.63,0,3.26,0,4.9,0
	c10,0,20.01,0.02,30.01-0.03c0.91,0,1.07,0.32,1.06,1.31c-0.03,7.86-0.03,15.72,0,23.58c0,0.92-0.19,1.19-0.99,1.19
	c-11.66-0.02-23.32-0.02-34.98-0.02c0,3.84,0,7.68,0,11.52c1.63,0,3.27,0,4.9,0c10,0,20.01,0.02,30.01-0.03
	c0.91,0,1.07,0.32,1.06,1.31c-0.03,7.86-0.03,15.72,0,23.58c0,0.92-0.19,1.19-0.99,1.19c-12.03-0.02-24.07-0.02-36.1-0.02
	c-0.05,0-0.11,0-0.16,0c-0.1,0-0.2,0-0.31,0c-7.82,0-15.64,0.01-23.46,0.02c-0.78,0-1.01-0.22-1.01-1.17c0-0.13,0-0.27,0-0.4
	c0-0.02,0-0.04,0-0.06c0.01-6.45,0-12.9,0.01-19.35c0-1.33,0-2.66-0.01-3.99c0-0.12,0-0.22,0.01-0.31c0-4.36,0-8.72,0.01-13.08
	c-0.01-0.11-0.02-0.23-0.02-0.36c0.01-3.18,0.02-6.36,0.02-9.54c0-1.57,0-3.15,0-4.72c0-3.18-0.01-6.36-0.02-9.54
	c0-0.13,0.01-0.25,0.02-0.35c0-4.37,0-8.73-0.01-13.1c-0.01-0.1-0.01-0.2-0.01-0.32c0.01-1.31,0-2.62,0.01-3.93
	c0-6.45,0-12.89-0.01-19.34c0-0.03,0-0.06,0-0.08c0-0.15,0-0.3,0-0.45c0-0.89,0.2-1.1,0.93-1.1c0,0,0.01,0,0.01,0
	c0.07,0,0.14-0.01,0.22-0.01c0.72,0,1.44,0.01,2.16,0.01c5.29,0.01,10.58,0.02,15.87,0.02c1.93-0.01,3.85-0.02,5.78-0.03
	c0.15,0,0.28,0.01,0.39,0.03c1.86,0,3.72,0,5.58,0c10,0,20.01,0.02,30.01-0.03c0.91,0,1.07,0.32,1.06,1.31
	C618.44,470.93,618.44,478.79,618.47,486.65z"/>
<g>
	<path d="M191.3,739.29c1.35,0,2.7,0.12,4.05,0.37v34.06c-1.31,0.21-2.52,0.32-3.62,0.32c-1.03,0-2.27-0.11-3.73-0.32v-16.5l0.27-5
		l-1.33,3.89l-5.85,14.74c-1.1,0.14-2.2,0.21-3.3,0.21c-1.06,0-2.18-0.07-3.35-0.21l-6.17-14.8l-1.22-3.25l0.21,4.42v16.5
		c-1.28,0.21-2.52,0.32-3.73,0.32c-1.03,0-2.23-0.11-3.62-0.32v-34.01c1.06-0.28,2.4-0.43,3.99-0.43c1.38,0,2.82,0.11,4.31,0.32
		l9.21,21.08l0.64,1.7l0.53-1.7l8.52-21.08C188.62,739.39,190.02,739.29,191.3,739.29z"/>
	<path d="M209.1,743.78c-0.94,0.94-2.07,1.41-3.38,1.41c-1.31,0-2.44-0.47-3.38-1.41c-0.94-0.94-1.41-2.07-1.41-3.38
		c0-1.31,0.47-2.43,1.41-3.35c0.94-0.92,2.07-1.38,3.38-1.38c1.31,0,2.44,0.46,3.38,1.38c0.94,0.92,1.41,2.04,1.41,3.35
		C210.51,741.72,210.04,742.84,209.1,743.78z M205.67,774.04c-1.28,0-2.59-0.11-3.94-0.32v-25.23c1.03-0.21,2.34-0.32,3.94-0.32
		c1.56,0,2.89,0.11,3.99,0.32v25.23C208.38,773.93,207.05,774.04,205.67,774.04z"/>
	<path d="M242.71,774.68c-5.36,0-9.63-1.66-12.83-4.98c-3.19-3.32-4.79-7.67-4.79-13.07c0-5.32,1.68-9.69,5.03-13.09
		c3.35-3.41,7.65-5.11,12.91-5.11c4.33,0,7.84,1.1,10.54,3.3c-0.18,1.24-0.66,2.44-1.44,3.59c-0.78,1.15-1.72,2.03-2.82,2.63
		c-1.92-1.31-3.94-1.97-6.07-1.97c-2.91,0-5.22,0.95-6.95,2.85c-1.72,1.9-2.58,4.5-2.58,7.8c0,3.23,0.86,5.8,2.58,7.72
		c1.72,1.92,3.97,2.87,6.73,2.87c2.73,0,5.02-0.8,6.87-2.4c2.38,1.35,3.81,3.48,4.31,6.39
		C251.37,773.53,247.54,774.68,242.71,774.68z"/>
	<path d="M269.43,774.57c-4.08,0-7.4-1.22-9.95-3.65c-2.55-2.43-3.83-5.7-3.83-9.82c0-4.04,1.3-7.31,3.91-9.79
		c2.61-2.48,5.93-3.72,9.98-3.72c4.08,0,7.4,1.23,9.95,3.7c2.55,2.47,3.83,5.74,3.83,9.82c0,4.01-1.3,7.26-3.91,9.74
		C276.8,773.33,273.47,774.57,269.43,774.57z M265.14,766.11c1.05,1.24,2.49,1.86,4.34,1.86s3.28-0.62,4.31-1.86
		c1.03-1.24,1.54-2.91,1.54-5c0-2.09-0.51-3.76-1.54-5c-1.03-1.24-2.47-1.86-4.31-1.86s-3.29,0.62-4.34,1.86
		c-1.05,1.24-1.57,2.91-1.57,5C263.57,763.2,264.1,764.87,265.14,766.11z"/>
	<path d="M300.3,747.59c4.04,0,7.09,0.98,9.13,2.95c2.04,1.97,3.06,4.59,3.06,7.85v15.33c-1.35,0.21-2.68,0.32-3.99,0.32
		c-1.31,0-2.64-0.11-3.99-0.32v-14.05c0-3.26-1.6-4.9-4.79-4.9c-1.63,0-3.05,0.36-4.26,1.07v17.88c-1.35,0.21-2.68,0.32-3.99,0.32
		c-1.31,0-2.63-0.11-3.94-0.32v-21.93c1.21-1.1,2.93-2.08,5.16-2.93C294.92,748.01,297.46,747.59,300.3,747.59z"/>
	<path d="M341.76,759.35c0,1.42-0.09,2.66-0.27,3.72h-16.82c0.46,3.44,2.54,5.16,6.23,5.16c2.34,0,4.82-0.85,7.45-2.55
		c1.67,1.28,2.63,3.07,2.87,5.38c-3.12,2.38-6.85,3.57-11.18,3.57c-4.01,0-7.26-1.18-9.74-3.54c-2.48-2.36-3.73-5.61-3.73-9.77
		c0-3.97,1.25-7.23,3.75-9.77c2.5-2.54,5.65-3.81,9.45-3.81c3.58,0,6.47,1.06,8.67,3.17C340.66,753.03,341.76,755.84,341.76,759.35z
		 M324.67,758.61h9.58c0-1.35-0.36-2.48-1.06-3.38c-0.71-0.91-1.83-1.39-3.35-1.46c-1.49,0-2.68,0.43-3.57,1.3
		C325.38,755.94,324.85,757.11,324.67,758.61z"/>
	<path d="M361.5,761.16l9.26,12.45c-0.57,0.28-2.23,0.43-5,0.43c-1.63,0-2.95-0.07-3.94-0.21l-5.32-7.77l-4.9,7.77
		c-1.21,0.14-2.45,0.21-3.73,0.21c-2.16,0-3.8-0.14-4.9-0.43l8.89-12.51l-8.73-12.13c1.1-0.46,3.14-0.69,6.12-0.69
		c0.99,0,1.86,0.05,2.61,0.16l5,7.72l4.74-7.72c0.96-0.11,1.92-0.16,2.87-0.16c2.66,0,4.54,0.23,5.64,0.69L361.5,761.16z"/>
	<path d="M381.06,743.78c-0.94,0.94-2.07,1.41-3.38,1.41c-1.31,0-2.44-0.47-3.38-1.41c-0.94-0.94-1.41-2.07-1.41-3.38
		c0-1.31,0.47-2.43,1.41-3.35c0.94-0.92,2.07-1.38,3.38-1.38c1.31,0,2.44,0.46,3.38,1.38c0.94,0.92,1.41,2.04,1.41,3.35
		C382.47,741.72,382,742.84,381.06,743.78z M377.63,774.04c-1.28,0-2.59-0.11-3.94-0.32v-25.23c1.03-0.21,2.34-0.32,3.94-0.32
		c1.56,0,2.89,0.11,3.99,0.32v25.23C380.34,773.93,379.01,774.04,377.63,774.04z"/>
	<path d="M399.77,774.57c-4.08,0-7.4-1.22-9.95-3.65c-2.55-2.43-3.83-5.7-3.83-9.82c0-4.04,1.3-7.31,3.91-9.79
		c2.61-2.48,5.93-3.72,9.98-3.72c4.08,0,7.4,1.23,9.95,3.7c2.55,2.47,3.83,5.74,3.83,9.82c0,4.01-1.3,7.26-3.91,9.74
		C407.14,773.33,403.81,774.57,399.77,774.57z M395.46,746.31c-1.1-0.74-1.85-1.86-2.24-3.35l9.37-8.41
		c2.27,1.21,3.69,3.25,4.26,6.12L395.46,746.31z M395.48,766.11c1.05,1.24,2.49,1.86,4.34,1.86s3.28-0.62,4.31-1.86
		c1.03-1.24,1.54-2.91,1.54-5c0-2.09-0.51-3.76-1.54-5c-1.03-1.24-2.47-1.86-4.31-1.86s-3.29,0.62-4.34,1.86
		c-1.05,1.24-1.57,2.91-1.57,5C393.91,763.2,394.44,764.87,395.48,766.11z"/>
	<path d="M430.64,747.59c4.04,0,7.09,0.98,9.13,2.95c2.04,1.97,3.06,4.59,3.06,7.85v15.33c-1.35,0.21-2.68,0.32-3.99,0.32
		c-1.31,0-2.64-0.11-3.99-0.32v-14.05c0-3.26-1.6-4.9-4.79-4.9c-1.63,0-3.05,0.36-4.26,1.07v17.88c-1.35,0.21-2.68,0.32-3.99,0.32
		c-1.31,0-2.63-0.11-3.94-0.32v-21.93c1.21-1.1,2.93-2.08,5.16-2.93C425.26,748.01,427.8,747.59,430.64,747.59z"/>
	<path d="M471.72,774.63c-4.29,0-7.68-1.19-10.17-3.57c-2.48-2.38-3.73-5.68-3.73-9.9c0-4.08,1.29-7.36,3.86-9.85
		c2.57-2.48,5.85-3.72,9.82-3.72c1.81,0,3.52,0.28,5.14,0.85c1.61,0.57,2.83,1.22,3.65,1.97c-0.25,1.06-0.74,2.11-1.49,3.14
		c-0.74,1.03-1.61,1.85-2.61,2.45c-1.31-1.17-2.8-1.76-4.47-1.76c-1.88,0-3.34,0.63-4.36,1.89c-1.03,1.26-1.54,2.9-1.54,4.92
		c0,2.02,0.51,3.68,1.52,4.98c1.01,1.3,2.49,1.94,4.44,1.94c1.88,0,3.51-0.62,4.9-1.86c2.02,0.99,3.37,2.73,4.04,5.22
		C478.3,773.53,475.31,774.63,471.72,774.63z"/>
	<path d="M496.1,774.57c-4.08,0-7.4-1.22-9.95-3.65c-2.55-2.43-3.83-5.7-3.83-9.82c0-4.04,1.3-7.31,3.91-9.79
		c2.61-2.48,5.93-3.72,9.98-3.72c4.08,0,7.4,1.23,9.95,3.7c2.55,2.47,3.83,5.74,3.83,9.82c0,4.01-1.3,7.26-3.91,9.74
		C503.47,773.33,500.14,774.57,496.1,774.57z M491.81,766.11c1.05,1.24,2.49,1.86,4.34,1.86s3.28-0.62,4.31-1.86
		c1.03-1.24,1.54-2.91,1.54-5c0-2.09-0.51-3.76-1.54-5c-1.03-1.24-2.47-1.86-4.31-1.86s-3.29,0.62-4.34,1.86
		c-1.05,1.24-1.57,2.91-1.57,5C490.24,763.2,490.77,764.87,491.81,766.11z"/>
	<path d="M526.97,747.59c4.04,0,7.09,0.98,9.13,2.95c2.04,1.97,3.06,4.59,3.06,7.85v15.33c-1.35,0.21-2.68,0.32-3.99,0.32
		c-1.31,0-2.64-0.11-3.99-0.32v-14.05c0-3.26-1.6-4.9-4.79-4.9c-1.63,0-3.05,0.36-4.26,1.07v17.88c-1.35,0.21-2.68,0.32-3.99,0.32
		c-1.31,0-2.63-0.11-3.94-0.32v-21.93c1.21-1.1,2.93-2.08,5.16-2.93C521.59,748.01,524.13,747.59,526.97,747.59z"/>
	<path d="M571.94,774.68c-5.36,0-9.63-1.66-12.83-4.98c-3.19-3.32-4.79-7.67-4.79-13.07c0-5.32,1.68-9.69,5.03-13.09
		c3.35-3.41,7.65-5.11,12.91-5.11c4.33,0,7.84,1.1,10.54,3.3c-0.18,1.24-0.66,2.44-1.44,3.59c-0.78,1.15-1.72,2.03-2.82,2.63
		c-1.92-1.31-3.94-1.97-6.07-1.97c-2.91,0-5.22,0.95-6.95,2.85c-1.72,1.9-2.58,4.5-2.58,7.8c0,3.23,0.86,5.8,2.58,7.72
		c1.72,1.92,3.97,2.87,6.73,2.87c2.73,0,5.02-0.8,6.87-2.4c2.38,1.35,3.81,3.48,4.31,6.39C580.6,773.53,576.76,774.68,571.94,774.68
		z"/>
	<path d="M598.02,747.64c2.34,0,4.29,0.25,5.85,0.74c-0.07,2.77-0.81,5.06-2.23,6.86c-0.89-0.25-1.9-0.37-3.03-0.37
		c-1.6,0-2.89,0.25-3.89,0.74v18.1c-1.28,0.21-2.61,0.32-3.99,0.32c-1.31,0-2.63-0.11-3.94-0.32v-22.19
		c1.1-0.99,2.62-1.89,4.58-2.69C593.32,748.04,595.53,747.64,598.02,747.64z"/>
	<path d="M614.33,743.78c-0.94,0.94-2.07,1.41-3.38,1.41s-2.44-0.47-3.38-1.41c-0.94-0.94-1.41-2.07-1.41-3.38
		c0-1.31,0.47-2.43,1.41-3.35c0.94-0.92,2.07-1.38,3.38-1.38s2.44,0.46,3.38,1.38c0.94,0.92,1.41,2.04,1.41,3.35
		C615.74,741.72,615.27,742.84,614.33,743.78z M610.9,774.04c-1.28,0-2.59-0.11-3.94-0.32v-25.23c1.03-0.21,2.34-0.32,3.94-0.32
		c1.56,0,2.89,0.11,3.99,0.32v25.23C613.61,773.93,612.28,774.04,610.9,774.04z"/>
	<path d="M630.22,774.63c-2.59,0-4.85-0.32-6.79-0.96c-1.93-0.64-3.4-1.38-4.39-2.23c0.43-2.52,1.47-4.29,3.14-5.32
		c2.7,1.7,5.46,2.56,8.3,2.56c2.2,0,3.3-0.67,3.3-2.02c0-0.67-0.4-1.21-1.2-1.62c-0.8-0.41-2.23-0.79-4.28-1.14
		c-1.21-0.25-2.24-0.52-3.11-0.82c-0.87-0.3-1.76-0.74-2.66-1.33c-0.9-0.58-1.59-1.36-2.05-2.31c-0.46-0.96-0.69-2.11-0.69-3.46
		c0-2.55,1.04-4.56,3.11-6.01c2.08-1.46,4.75-2.18,8.01-2.18c4.4,0,7.82,0.78,10.27,2.34c-0.32,2.48-1.24,4.33-2.77,5.54
		c-2.2-1.24-4.67-1.86-7.4-1.86c-2.45,0-3.67,0.6-3.67,1.81c0,0.64,0.35,1.12,1.04,1.44c0.69,0.32,2.05,0.67,4.07,1.06
		c2.91,0.5,5.17,1.32,6.79,2.47c1.62,1.15,2.42,2.99,2.42,5.51c0,2.66-0.99,4.75-2.98,6.28
		C636.69,773.86,633.87,774.63,630.22,774.63z"/>
	<path d="M663.59,766.27c0.78,0.46,1.49,1.22,2.13,2.26c0.64,1.05,1.03,2.1,1.17,3.17c-2.38,1.88-5.11,2.82-8.2,2.82
		c-3.09,0-5.55-0.7-7.4-2.1c-1.85-1.4-2.77-3.57-2.77-6.52v-10.91h-4.31c-0.18-1.13-0.27-2.25-0.27-3.35c0-0.92,0.09-1.97,0.27-3.14
		h4.31v-6.28c1.38-0.21,2.73-0.32,4.04-0.32c1.35,0,2.63,0.11,3.83,0.32v6.28h8.84c0.25,1.17,0.37,2.22,0.37,3.14
		c0,0.92-0.13,2.04-0.37,3.35h-8.84v8.94c0,1.38,0.3,2.37,0.91,2.95c0.6,0.58,1.52,0.88,2.77,0.88
		C661.28,767.76,662.45,767.26,663.59,766.27z"/>
	<path d="M682.43,774.57c-4.08,0-7.4-1.22-9.95-3.65c-2.55-2.43-3.83-5.7-3.83-9.82c0-4.04,1.3-7.31,3.91-9.79
		c2.61-2.48,5.93-3.72,9.98-3.72c4.08,0,7.4,1.23,9.95,3.7c2.56,2.47,3.83,5.74,3.83,9.82c0,4.01-1.3,7.26-3.91,9.74
		C689.8,773.33,686.47,774.57,682.43,774.57z M678.14,766.11c1.05,1.24,2.49,1.86,4.34,1.86c1.84,0,3.28-0.62,4.31-1.86
		c1.03-1.24,1.54-2.91,1.54-5c0-2.09-0.52-3.76-1.54-5c-1.03-1.24-2.47-1.86-4.31-1.86c-1.85,0-3.29,0.62-4.34,1.86
		c-1.05,1.24-1.57,2.91-1.57,5C676.57,763.2,677.1,764.87,678.14,766.11z"/>
</g>
</svg>
