<?xml version="1.0" encoding="utf-8"?>
<!-- Generator: Adobe Illustrator 25.3.0, SVG Export Plug-In . SVG Version: 6.00 Build 0)  -->
<svg version="1.1" id="Capa_1" xmlns="http://www.w3.org/2000/svg" xmlns:xlink="http://www.w3.org/1999/xlink" x="0px" y="0px"
	 viewBox="0 0 566.9 566.9" style="enable-background:new 0 0 566.9 566.9;" xml:space="preserve">
<style type="text/css">
	.st0{fill:#FFE90B;}
	.st1{fill:#0A478D;}
</style>
<g>
	<g>
		
			<image style="overflow:visible;" width="520" height="381" xlink:href="27324116.png"  transform="matrix(0.9021 0 0 0.9021 48.9081 56.1333)">
		</image>
		<g>
			<path class="st0" d="M143.2,304.7h44.8v12.6h-26.6v10.3h22.7v11.9h-22.7v24h-18.2V304.7z"/>
			<path class="st0" d="M197.8,304.7h48.6v12.5H216v9.3h28.2v12H216v11.6h31.3v13.3h-49.5V304.7z"/>
			<path class="st0" d="M257,304.7h18.1v44.2h28.3v14.5H257V304.7z"/>
			<path class="st0" d="M312.5,304.7h18.2v58.7h-18.2V304.7z M321.3,289.2h14l-12.9,12h-7.8L321.3,289.2z"/>
			<path class="st0" d="M342.2,304.7h51.3v11.7l-33,34.4h34.2v12.6H339v-12.2l32.6-34h-29.4V304.7z"/>
		</g>
	</g>
	<g>
		<path class="st1" d="M122.1,428l9,2.7c-0.6,2.5-1.6,4.6-2.8,6.3c-1.3,1.7-2.9,3-4.8,3.8c-1.9,0.9-4.4,1.3-7.3,1.3
			c-3.6,0-6.5-0.5-8.8-1.6c-2.3-1-4.3-2.9-5.9-5.5c-1.7-2.6-2.5-6-2.5-10.1c0-5.5,1.5-9.7,4.4-12.6c2.9-2.9,7-4.4,12.4-4.4
			c4.2,0,7.5,0.8,9.9,2.5c2.4,1.7,4.2,4.3,5.3,7.8l-9,2c-0.3-1-0.6-1.7-1-2.2c-0.6-0.8-1.3-1.4-2.1-1.8c-0.8-0.4-1.8-0.6-2.8-0.6
			c-2.3,0-4.1,0.9-5.3,2.8c-0.9,1.4-1.4,3.6-1.4,6.5c0,3.7,0.6,6.2,1.7,7.6c1.1,1.4,2.7,2,4.7,2c2,0,3.4-0.5,4.4-1.7
			C120.9,431.7,121.6,430.1,122.1,428z"/>
		<path class="st1" d="M135.5,417.6h8.6v3.9c0.8-1.7,1.7-2.9,2.6-3.5c0.9-0.6,2-1,3.3-1c1.4,0,2.8,0.4,4.5,1.3l-2.9,6.6
			c-1.1-0.5-1.9-0.7-2.6-0.7c-1.2,0-2.1,0.5-2.8,1.5c-1,1.4-1.4,4-1.4,7.9v8.1h-9.3V417.6z"/>
		<path class="st1" d="M156.3,408.4h9.2v6.3h-9.2V408.4z M156.3,417.6h9.2v24h-9.2V417.6z"/>
		<path class="st1" d="M169.8,434.9l9.1-0.9c0.4,1.1,0.9,1.9,1.6,2.3c0.7,0.5,1.6,0.7,2.7,0.7c1.2,0,2.2-0.3,2.9-0.8
			c0.5-0.4,0.8-0.9,0.8-1.5c0-0.7-0.3-1.2-1-1.5c-0.5-0.3-1.8-0.6-4-0.9c-3.2-0.6-5.4-1.1-6.7-1.5c-1.2-0.5-2.3-1.3-3.1-2.4
			c-0.9-1.1-1.3-2.4-1.3-3.9c0-1.6,0.5-2.9,1.4-4.1c0.9-1.1,2.2-2,3.8-2.6c1.6-0.6,3.8-0.8,6.5-0.8c2.9,0,5,0.2,6.3,0.7
			c1.4,0.4,2.5,1.1,3.4,2c0.9,0.9,1.7,2.2,2.3,3.7l-8.7,0.9c-0.2-0.8-0.6-1.3-1.1-1.7c-0.7-0.5-1.6-0.7-2.6-0.7
			c-1,0-1.8,0.2-2.3,0.6c-0.5,0.4-0.7,0.8-0.7,1.3c0,0.6,0.3,1,0.9,1.3c0.6,0.3,1.9,0.6,3.9,0.8c3.1,0.3,5.3,0.8,6.8,1.4
			c1.5,0.6,2.6,1.5,3.4,2.6c0.8,1.1,1.2,2.4,1.2,3.8c0,1.4-0.4,2.7-1.3,4c-0.8,1.3-2.2,2.4-4,3.1c-1.8,0.8-4.3,1.2-7.4,1.2
			c-4.4,0-7.5-0.6-9.4-1.9C171.5,439,170.3,437.2,169.8,434.9z"/>
		<path class="st1" d="M210.8,408.4v9.1h5.1v6.7h-5.1v8.5c0,1,0.1,1.7,0.3,2c0.3,0.5,0.8,0.8,1.6,0.8c0.7,0,1.6-0.2,2.9-0.6l0.7,6.4
			c-2.3,0.5-4.4,0.7-6.4,0.7c-2.3,0-4-0.3-5.1-0.9c-1.1-0.6-1.9-1.5-2.4-2.7c-0.5-1.2-0.8-3.1-0.8-5.8v-8.4h-3.4v-6.7h3.4v-4.4
			L210.8,408.4z"/>
		<path class="st1" d="M219.1,429.6c0-3.7,1.2-6.7,3.7-9.1c2.5-2.4,5.8-3.6,10-3.6c4.8,0,8.4,1.4,10.9,4.2c2,2.2,3,5,3,8.3
			c0,3.7-1.2,6.7-3.7,9.1c-2.4,2.4-5.8,3.5-10.2,3.5c-3.9,0-7-1-9.4-2.9C220.6,436.8,219.1,433.6,219.1,429.6z M228.3,429.6
			c0,2.1,0.4,3.7,1.3,4.7c0.9,1,2,1.5,3.3,1.5c1.3,0,2.4-0.5,3.3-1.5c0.9-1,1.3-2.6,1.3-4.9c0-2.1-0.4-3.6-1.3-4.6
			c-0.9-1-1.9-1.5-3.2-1.5c-1.3,0-2.5,0.5-3.3,1.5C228.8,425.9,228.3,427.5,228.3,429.6z"/>
		<path class="st1" d="M266.7,417.6h8.6v3.5c1.2-1.5,2.5-2.5,3.7-3.1c1.3-0.6,2.8-0.9,4.6-0.9c1.9,0,3.4,0.3,4.6,1
			c1.1,0.7,2,1.7,2.7,3c1.4-1.6,2.8-2.6,4-3.2c1.2-0.6,2.7-0.8,4.4-0.8c2.6,0,4.6,0.8,6,2.3s2.2,3.9,2.2,7.2v15.1h-9.2v-13.7
			c0-1.1-0.2-1.9-0.6-2.4c-0.6-0.8-1.4-1.2-2.3-1.2c-1.1,0-2,0.4-2.6,1.2c-0.7,0.8-1,2-1,3.8v12.4h-9.2v-13.2c0-1.1-0.1-1.8-0.2-2.1
			c-0.2-0.6-0.5-1.1-1-1.5c-0.5-0.4-1.1-0.6-1.7-0.6c-1.1,0-1.9,0.4-2.6,1.2c-0.7,0.8-1,2.1-1,3.9v12.3h-9.2V417.6z"/>
		<path class="st1" d="M339.6,431.9h-18.5c0.2,1.5,0.6,2.6,1.2,3.3c0.9,1,2.1,1.6,3.5,1.6c0.9,0,1.8-0.2,2.6-0.7
			c0.5-0.3,1-0.8,1.6-1.5l9.1,0.8c-1.4,2.4-3.1,4.1-5,5.2c-2,1-4.8,1.6-8.4,1.6c-3.2,0-5.7-0.4-7.5-1.3c-1.8-0.9-3.3-2.3-4.5-4.3
			c-1.2-2-1.8-4.2-1.8-6.9c0-3.8,1.2-6.8,3.6-9.1c2.4-2.3,5.7-3.5,10-3.5c3.4,0,6.2,0.5,8.1,1.6c2,1,3.5,2.5,4.5,4.5
			c1,2,1.6,4.5,1.6,7.7V431.9z M330.2,427.5c-0.2-1.8-0.7-3.1-1.4-3.8c-0.8-0.8-1.8-1.2-3.1-1.2c-1.5,0-2.6,0.6-3.5,1.7
			c-0.6,0.7-0.9,1.8-1.1,3.2H330.2z"/>
		<path class="st1" d="M380.3,436.1h-11.6l-1.6,5.5h-10.5l12.5-33.2h11.2l12.5,33.2h-10.7L380.3,436.1z M378.1,428.9l-3.7-11.9
			l-3.6,11.9H378.1z"/>
		<path class="st1" d="M395.4,417.6h8.6v3.5c1.2-1.5,2.5-2.5,3.7-3.1c1.3-0.6,2.8-0.9,4.6-0.9c1.9,0,3.4,0.3,4.6,1
			c1.1,0.7,2,1.7,2.7,3c1.4-1.6,2.8-2.6,4-3.2s2.7-0.8,4.4-0.8c2.6,0,4.6,0.8,6,2.3c1.4,1.5,2.2,3.9,2.2,7.2v15.1h-9.2v-13.7
			c0-1.1-0.2-1.9-0.6-2.4c-0.6-0.8-1.4-1.2-2.3-1.2c-1.1,0-2,0.4-2.6,1.2c-0.7,0.8-1,2-1,3.8v12.4h-9.2v-13.2c0-1.1-0.1-1.8-0.2-2.1
			c-0.2-0.6-0.5-1.1-1-1.5c-0.5-0.4-1.1-0.6-1.7-0.6c-1.1,0-1.9,0.4-2.6,1.2c-0.7,0.8-1,2.1-1,3.9v12.3h-9.2V417.6z"/>
		<path class="st1" d="M450,425.4l-8.8-0.9c0.3-1.5,0.8-2.7,1.4-3.6c0.6-0.9,1.5-1.6,2.7-2.3c0.8-0.5,2-0.8,3.5-1.1
			c1.5-0.3,3.1-0.4,4.8-0.4c2.8,0,5,0.2,6.6,0.5c1.7,0.3,3.1,1,4.2,1.9c0.8,0.7,1.4,1.6,1.9,2.9c0.5,1.2,0.7,2.4,0.7,3.6v10.6
			c0,1.1,0.1,2,0.2,2.7c0.1,0.6,0.5,1.5,0.9,2.5h-8.6c-0.3-0.6-0.6-1.1-0.7-1.4c-0.1-0.3-0.2-0.8-0.3-1.5c-1.2,1.2-2.4,2-3.6,2.5
			c-1.6,0.7-3.5,1-5.7,1c-2.9,0-5-0.7-6.5-2c-1.5-1.3-2.2-3-2.2-4.9c0-1.8,0.5-3.3,1.6-4.5c1.1-1.2,3-2.1,5.9-2.6
			c3.5-0.7,5.7-1.2,6.7-1.5c1-0.3,2.1-0.6,3.3-1.1c0-1.1-0.2-1.9-0.7-2.4c-0.5-0.5-1.3-0.7-2.5-0.7c-1.5,0-2.6,0.2-3.4,0.7
			C450.8,423.6,450.4,424.3,450,425.4z M458,430.2c-1.3,0.5-2.6,0.9-4,1.2c-1.9,0.5-3.1,1-3.6,1.5c-0.5,0.5-0.8,1.1-0.8,1.7
			c0,0.7,0.3,1.3,0.8,1.8s1.2,0.7,2.2,0.7c1,0,2-0.2,2.9-0.7c0.9-0.5,1.5-1.1,1.9-1.8c0.4-0.7,0.6-1.6,0.6-2.8V430.2z"/>
	</g>
</g>
</svg>
