<?xml version="1.0" encoding="utf-8"?>
<!-- Generator: Adobe Illustrator 25.3.0, SVG Export Plug-In . SVG Version: 6.00 Build 0)  -->
<svg version="1.1" id="Capa_1" xmlns="http://www.w3.org/2000/svg" xmlns:xlink="http://www.w3.org/1999/xlink" x="0px" y="0px"
	 viewBox="0 0 566.9 566.9" style="enable-background:new 0 0 566.9 566.9;" xml:space="preserve">
<g>
	<g>
		<g>
			<path d="M286.8,223.1c-17.9,9.6-17.3,36.5,3.1,45.5c-1.2,2.9-2.4,5.8-3.8,8.6c-3.1,6.2-7.1,11.9-12,16.8c-2.5,2.5-5.4,4.3-9,4.7
				c-2.9,0.4-5.8-0.3-8.5-1.2c-2.8-0.9-5.6-2.1-8.5-2.7c-4.9-1.1-9.6-0.1-14.3,1.7c-2.5,0.9-5.1,1.7-7.7,2.3
				c-3.6,0.8-6.7-0.4-9.6-2.5c-3.3-2.4-5.8-5.4-8.3-8.6c-5.1-6.6-8.9-13.9-11.5-21.8c-2.2-6.9-3.5-13.9-3.3-21.1
				c0.2-7.6,2.1-14.7,6.7-20.9c4.6-6.2,10.7-10,18.3-11.5c5.6-1.1,10.7,0.4,15.8,2.3c1.7,0.6,3.4,1.1,5,1.7c2.3,0.9,4.5,0.6,6.8-0.2
				c3.4-1.2,6.8-2.3,10.2-3.4c4.2-1.3,8.4-1.3,12.7-0.5c5.5,1,10.4,3.1,14.4,7.1C284.6,220.5,285.6,221.8,286.8,223.1z"/>
			<path d="M265.6,184.7c0.5,5.2-0.7,9.9-3.3,14.3c-2.7,4.4-6.2,8-10.7,10.5c-2.9,1.7-6.9,2.5-9.9,2.1c-0.6-6.2,1.5-11.6,5.1-16.5
				C251.6,188.5,260,184.8,265.6,184.7z"/>
		</g>
		<g>
			<path d="M62.3,181.8v-18.9h14.4v18.9H62.3z M62.3,296.9v-97h14.4v97H62.3z"/>
			<path d="M100.8,296.9v-134h44.4c10.5,0,18.2,0.9,23.1,2.6c6.8,2.3,12.2,6.6,16.3,12.9c4.1,6.3,6.1,14,6.1,23.1
				c0,12.1-3.3,21.9-9.9,29.5c-6.6,7.6-18,11.4-34.2,11.4h-30.2v54.5H100.8z M116.4,226.6h30.5c9.6,0,16.6-2,21.1-6.1
				c4.4-4,6.7-10.2,6.7-18.3c0-5.3-1.1-9.8-3.3-13.6c-2.2-3.8-4.8-6.4-7.9-7.8c-3.1-1.4-8.7-2.1-16.8-2.1h-30.2V226.6z"/>
			<path d="M355.5,296.9v-12.2c-2.6,4.7-6,8.3-10.1,10.7c-4.1,2.5-8.6,3.7-13.3,3.7c-10.1,0-18.8-4.4-26.1-13.3
				c-7.4-8.9-11-21.3-11-37.4c0-11,1.6-20.4,4.9-28.1c3.3-7.7,7.6-13.4,13.1-17.1c5.4-3.7,11.5-5.6,18.2-5.6c4.8,0,9.2,1.2,13.3,3.5
				c4.1,2.3,7.5,5.6,10.1,9.8v-48.1H369v134H355.5z M309.7,248.4c0,12.6,2.3,21.9,7,28c4.7,6.1,10.1,9.1,16.3,9.1
				c6.1,0,11.5-2.9,16-8.8c4.5-5.8,6.8-14.7,6.8-26.5c0-13.6-2.3-23.5-6.8-29.7c-4.5-6.2-10.2-9.4-17.1-9.4c-6.1,0-11.3,3-15.7,9
				C311.9,226.2,309.7,235.6,309.7,248.4z"/>
			<path d="M450,265.6l14.9,2.1c-2.5,10.4-7,18.2-13.5,23.4c-6.5,5.3-14.6,7.9-24.2,7.9c-12.1,0-21.9-4.3-29.4-12.8
				c-7.5-8.6-11.2-20.9-11.2-37.1c0-16.8,3.8-29.5,11.3-38.3c7.5-8.8,17.1-13.2,28.7-13.2c11,0,20.3,4.3,27.6,13
				c7.4,8.7,11.1,21.2,11.1,37.6l-0.1,4.4h-63.7c0.6,10.9,3.3,19.1,8.1,24.7c4.8,5.5,10.7,8.3,17.6,8.3
				C438.2,285.5,445.8,278.9,450,265.6z M402.5,239h47.6c-0.7-8.4-2.6-14.7-5.8-18.8c-4.6-6-10.6-9-17.7-9c-6.5,0-12,2.5-16.6,7.5
				C405.5,223.7,403,230.5,402.5,239z"/>
			<path d="M483.3,296.9v-97h13v14.7c3.3-6.8,6.4-11.3,9.2-13.6c2.8-2.2,5.9-3.3,9.4-3.3c4.8,0,9.8,1.8,14.8,5.3l-4.9,15.3
				c-3.6-2.4-7.1-3.6-10.5-3.6c-3.1,0-5.9,1-8.4,3c-2.5,2-4.3,4.8-5.4,8.4c-1.8,6.3-2.7,12.9-2.7,20v50.8H483.3z"/>
		</g>
	</g>
	<g>
		<path d="M176.8,387.5l7.4,1c-1.2,5.1-3.5,9-6.7,11.6c-3.2,2.6-7.2,3.9-11.9,3.9c-6,0-10.8-2.1-14.5-6.3
			c-3.7-4.2-5.6-10.3-5.6-18.3c0-8.3,1.9-14.6,5.6-19c3.7-4.4,8.5-6.5,14.2-6.5c5.5,0,10,2.1,13.7,6.4c3.7,4.3,5.5,10.5,5.5,18.6
			l0,2.2h-31.5c0.3,5.4,1.6,9.5,4,12.2c2.4,2.7,5.3,4.1,8.7,4.1C171,397.3,174.7,394,176.8,387.5z M153.3,374.3h23.6
			c-0.3-4.2-1.3-7.3-2.9-9.3c-2.3-3-5.2-4.5-8.8-4.5c-3.2,0-5.9,1.2-8.2,3.7C154.8,366.8,153.5,370.1,153.3,374.3z"/>
		<path d="M193.2,404v-48h6.4v6.8c1.5-2.6,3.4-4.6,5.7-5.9c2.2-1.3,4.8-2,7.7-2c2.3,0,4.3,0.4,6.3,1.2c1.9,0.8,3.5,1.9,4.6,3.3
			c1.2,1.3,2.1,3.1,2.6,5.2c0.6,2.1,0.9,5.4,0.9,9.9V404h-7.1v-29.2c0-3.5-0.3-6.1-1-7.7c-0.6-1.6-1.7-2.9-3-3.8
			c-1.4-0.9-3-1.3-4.8-1.3c-3.4,0-6.2,1.2-8.2,3.6c-2,2.4-3.1,6.5-3.1,12.3V404H193.2z"/>
		<path d="M258.1,384.1l6.9-1.1c0.2,5.1,1,8.5,2.5,10.4c1.5,1.9,3.5,2.8,6.2,2.8c1.8,0,3.5-0.5,4.9-1.4c1.4-0.9,2.4-2.1,2.8-3.6
			c0.7-2,1-4.9,1-8.9v-45.6h7.7v45.2c0,8.1-1.4,13.9-4.3,17.2c-2.9,3.3-6.9,5-12.1,5c-5.1,0-8.9-1.5-11.3-4.5
			C259.5,396.1,258.1,390.9,258.1,384.1z"/>
		<path d="M330.7,387.5l7.4,1c-1.2,5.1-3.5,9-6.7,11.6c-3.2,2.6-7.2,3.9-11.9,3.9c-6,0-10.8-2.1-14.5-6.3
			c-3.7-4.2-5.6-10.3-5.6-18.3c0-8.3,1.9-14.6,5.6-19c3.7-4.4,8.5-6.5,14.2-6.5c5.5,0,10,2.1,13.7,6.4c3.7,4.3,5.5,10.5,5.5,18.6
			l0,2.2h-31.5c0.3,5.4,1.6,9.5,4,12.2c2.4,2.7,5.3,4.1,8.7,4.1C324.9,397.3,328.6,394,330.7,387.5z M307.2,374.3h23.6
			c-0.3-4.2-1.3-7.3-2.9-9.3c-2.3-3-5.2-4.5-8.8-4.5c-3.2,0-5.9,1.2-8.2,3.7C308.7,366.8,307.4,370.1,307.2,374.3z"/>
		<path d="M344.4,388.6l7.1-1.3c0.4,3.4,1.6,5.9,3.4,7.6c1.9,1.7,4.4,2.5,7.4,2.5c3.1,0,5.5-0.7,7.2-2.1c1.7-1.4,2.5-3.2,2.5-5.4
			c0-1.9-0.7-3.4-2.2-4.4c-1-0.7-3.4-1.6-7.3-2.7c-5.6-1.6-9.3-3-11.1-4.1c-1.9-1.1-3.3-2.6-4.4-4.5c-1-1.9-1.6-4-1.6-6.4
			c0-4.1,1.4-7.4,4.2-10c2.8-2.6,6.7-3.8,11.7-3.8c3.1,0,5.9,0.5,8.3,1.6c2.4,1.1,4.2,2.5,5.5,4.2c1.3,1.8,2.1,4.3,2.6,7.6l-7,1.1
			c-0.6-5.2-3.7-7.9-9.2-7.9c-3.1,0-5.4,0.6-6.9,1.7c-1.5,1.2-2.3,2.6-2.3,4.4c0,1.8,0.7,3.2,2.2,4.2c0.9,0.6,3.5,1.6,7.8,2.9
			c5.9,1.8,9.8,3.1,11.5,4.2c1.7,1,3.1,2.5,4.1,4.3c1,1.8,1.4,3.9,1.4,6.4c0,4.6-1.6,8.3-4.7,11.1c-3.1,2.8-7.4,4.3-12.8,4.3
			C351.9,404,346,398.9,344.4,388.6z"/>
		<path d="M415.5,402.9v-7.1c-1.6,2.7-3.6,4.7-5.8,6.1c-2.2,1.4-4.8,2-7.6,2c-3.3,0-6.2-0.8-8.5-2.5c-2.4-1.7-3.9-3.8-4.7-6.4
			c-0.8-2.6-1.2-6.1-1.2-10.5v-29.7h7.1v26.6c0,4.9,0.3,8.2,0.8,9.9c0.5,1.7,1.5,3,3,4c1.4,1,3.1,1.5,4.9,1.5c3.4,0,6.2-1.3,8.4-3.9
			c1.9-2.3,2.8-6.4,2.8-12.4v-25.7h7.2v48H415.5z M399.7,349l5.3-12.7h9.4l-8.7,12.7H399.7z"/>
		<path d="M430.4,388.6l7.1-1.3c0.4,3.4,1.6,5.9,3.4,7.6c1.9,1.7,4.4,2.5,7.4,2.5c3.1,0,5.5-0.7,7.2-2.1c1.7-1.4,2.5-3.2,2.5-5.4
			c0-1.9-0.7-3.4-2.2-4.4c-1-0.7-3.4-1.6-7.3-2.7c-5.6-1.6-9.3-3-11.1-4.1c-1.9-1.1-3.3-2.6-4.4-4.5c-1-1.9-1.6-4-1.6-6.4
			c0-4.1,1.4-7.4,4.2-10c2.8-2.6,6.7-3.8,11.7-3.8c3.1,0,5.9,0.5,8.3,1.6c2.4,1.1,4.2,2.5,5.5,4.2c1.3,1.8,2.1,4.3,2.6,7.6l-7,1.1
			c-0.6-5.2-3.7-7.9-9.2-7.9c-3.1,0-5.4,0.6-6.9,1.7c-1.5,1.2-2.3,2.6-2.3,4.4c0,1.8,0.7,3.2,2.2,4.2c0.9,0.6,3.5,1.6,7.8,2.9
			c5.9,1.8,9.8,3.1,11.5,4.2c1.7,1,3.1,2.5,4.1,4.3c1,1.8,1.4,3.9,1.4,6.4c0,4.6-1.6,8.3-4.7,11.1c-3.1,2.8-7.4,4.3-12.8,4.3
			C437.9,404,432,398.9,430.4,388.6z"/>
	</g>
</g>
</svg>
