<?xml version="1.0" encoding="utf-8"?>
<!-- Generator: Adobe Illustrator 25.3.0, SVG Export Plug-In . SVG Version: 6.00 Build 0)  -->
<svg version="1.1" id="Capa_1" xmlns="http://www.w3.org/2000/svg" xmlns:xlink="http://www.w3.org/1999/xlink" x="0px" y="0px"
	 viewBox="0 0 566.9 566.9" style="enable-background:new 0 0 566.9 566.9;" xml:space="preserve">
<style type="text/css">
	.st0{fill:#020203;}
</style>
<path class="st0" d="M283.5,140.5c-73.4,0-132.9,59.5-132.9,132.9c0,73.4,59.5,132.9,132.9,132.9s132.9-59.5,132.9-132.9
	C416.4,200,356.9,140.5,283.5,140.5z M303.7,375.3h-41.1l0.3-110.2h-55.5v-38.5l52.5-0.1l-0.1-51.9h43.6l0.6,51.9l52.5,0.3
	l-0.3,38.4l-52.5-0.1L303.7,375.3z"/>
<g>
	<path class="st0" d="M139.8,107.6l10-6.8l21.4,31.5c2.8,4.1,4.6,7.5,5.4,10.3c1,3.6,0.8,7.1-0.6,10.6c-1.4,3.5-4.1,6.7-8.3,9.5
		c-4.9,3.3-9.6,4.5-14.2,3.6c-4.5-1-8.6-4.1-12.2-9.4l8.7-7.5c2.1,2.8,3.8,4.5,5.4,5.2c2.3,1,4.6,0.8,6.8-0.7
		c2.2-1.5,3.4-3.2,3.5-5.2c0.1-1.9-1.3-4.9-4-8.9L139.8,107.6z"/>
	<path class="st0" d="M195.4,144l-19-57.2l42.4-14.1l3.2,9.7l-30.8,10.3l4.2,12.7l28.7-9.6l3.2,9.6l-28.7,9.6l5.2,15.6l31.9-10.6
		l3.2,9.6L195.4,144z"/>
	<path class="st0" d="M245.8,108.5l11.8-1.4c0.8,4,2.3,6.8,4.5,8.7c2.2,1.8,5.2,2.7,8.9,2.6c3.9-0.1,6.8-1,8.8-2.7
		c1.9-1.7,2.9-3.7,2.8-5.9c0-1.4-0.5-2.6-1.3-3.6c-0.9-1-2.3-1.8-4.4-2.5c-1.4-0.5-4.7-1.3-9.8-2.4c-6.6-1.5-11.2-3.3-13.9-5.6
		c-3.8-3.2-5.7-7.2-5.8-12c-0.1-3.1,0.7-6,2.4-8.7c1.7-2.7,4.1-4.8,7.4-6.3c3.2-1.5,7.2-2.3,11.8-2.4c7.6-0.2,13.3,1.3,17.2,4.6
		c3.9,3.2,6,7.6,6.3,13.1l-12.1,0.8c-0.6-3.1-1.8-5.3-3.5-6.6c-1.7-1.3-4.3-1.9-7.8-1.9c-3.5,0.1-6.3,0.9-8.2,2.4
		c-1.3,1-1.9,2.2-1.8,3.8c0,1.4,0.7,2.6,1.9,3.6c1.6,1.3,5.3,2.5,11.3,3.8c5.9,1.3,10.4,2.6,13.2,4c2.9,1.4,5.1,3.4,6.8,6
		c1.7,2.6,2.5,5.7,2.6,9.5c0.1,3.5-0.8,6.7-2.6,9.8c-1.8,3.1-4.5,5.4-8,6.9c-3.5,1.5-7.8,2.4-13.1,2.5c-7.6,0.2-13.5-1.4-17.7-4.9
		C249.3,120.3,246.7,115.2,245.8,108.5z"/>
	<path class="st0" d="M322.7,70.4l11.7,3.4l-9.2,31.3c-1.5,5-2.3,8.2-2.4,9.8c-0.2,2.5,0.4,4.8,1.9,6.7c1.5,2,3.8,3.5,7.1,4.4
		c3.3,1,6,1,8.1,0.2c2.1-0.9,3.6-2.2,4.5-4.1c0.9-1.9,2.1-5.1,3.4-9.7l9.4-32l11.7,3.4l-8.9,30.4c-2,6.9-3.8,11.7-5.3,14.4
		c-1.5,2.7-3.3,4.8-5.6,6.2c-2.3,1.5-5,2.4-8.2,2.7c-3.2,0.3-7.1-0.2-11.6-1.5c-5.5-1.6-9.5-3.5-12-5.6c-2.5-2.1-4.2-4.4-5.3-7
		c-1.1-2.5-1.5-5-1.4-7.4c0.2-3.5,1.3-8.5,3.2-15L322.7,70.4z M339.5,71.8l8.9-10.2l12.4,3.7l-14.3,8.6L339.5,71.8z"/>
	<path class="st0" d="M371.8,129.6l10.4,5.7c-1.6,3.7-2.1,6.9-1.3,9.7c0.8,2.8,2.7,5.2,5.7,7.3c3.2,2.2,6.1,3.2,8.7,2.9
		c2.6-0.3,4.5-1.3,5.7-3.1c0.8-1.2,1.1-2.4,1-3.7c-0.1-1.3-0.8-2.8-2.2-4.6c-0.9-1.2-3.1-3.8-6.6-7.7c-4.5-5-7.2-9.2-8-12.6
		c-1.2-4.8-0.5-9.2,2.2-13.1c1.7-2.5,4.1-4.4,7-5.7c2.9-1.2,6.2-1.5,9.7-0.8c3.5,0.7,7.2,2.3,11,4.9c6.3,4.2,10,8.8,11.3,13.7
		c1.3,4.9,0.5,9.7-2.5,14.4l-10.4-6.4c1.3-2.8,1.6-5.3,1-7.4c-0.7-2.1-2.4-4.1-5.2-6c-2.9-2-5.6-2.9-8.1-2.9c-1.6,0-2.8,0.7-3.7,2
		c-0.8,1.2-1,2.5-0.6,4c0.5,1.9,2.9,5.1,7,9.6c4.1,4.5,6.9,8.1,8.4,11c1.5,2.8,2.2,5.8,2.1,8.8c-0.1,3-1.3,6.1-3.4,9.3
		c-1.9,2.9-4.5,5-7.8,6.4c-3.3,1.4-6.8,1.7-10.5,1c-3.7-0.8-7.8-2.6-12.1-5.5c-6.3-4.3-10.2-9-11.6-14.2
		C367.8,141.2,368.6,135.6,371.8,129.6z"/>
</g>
<g>
	<path class="st0" d="M102.3,468.8l9.3-0.9c0.6,3.1,1.7,5.4,3.4,6.9c1.7,1.5,4,2.2,7,2.2c3.1,0,5.4-0.7,7-2c1.6-1.3,2.4-2.8,2.4-4.6
		c0-1.1-0.3-2.1-1-2.9c-0.7-0.8-1.8-1.5-3.5-2.1c-1.1-0.4-3.7-1.1-7.7-2.1c-5.1-1.3-8.8-2.8-10.8-4.7c-2.9-2.6-4.4-5.8-4.4-9.6
		c0-2.4,0.7-4.7,2.1-6.8s3.4-3.7,5.9-4.8c2.6-1.1,5.7-1.7,9.4-1.7c6,0,10.5,1.3,13.5,3.9c3,2.6,4.6,6.1,4.8,10.5l-9.6,0.4
		c-0.4-2.4-1.3-4.2-2.6-5.3c-1.4-1.1-3.4-1.6-6.1-1.6c-2.8,0-5,0.6-6.6,1.7c-1,0.7-1.5,1.7-1.5,3c0,1.1,0.5,2.1,1.4,2.9
		c1.2,1,4.2,2.1,8.8,3.2c4.7,1.1,8.1,2.2,10.4,3.4c2.2,1.2,4,2.8,5.3,4.8c1.3,2,1.9,4.6,1.9,7.6c0,2.7-0.8,5.3-2.3,7.7
		c-1.5,2.4-3.7,4.1-6.4,5.3c-2.8,1.2-6.2,1.7-10.3,1.7c-6,0-10.6-1.4-13.8-4.2S102.9,474.1,102.3,468.8z"/>
	<path class="st0" d="M155.7,460.3l-8.3-1.5c0.9-3.3,2.5-5.8,4.8-7.4c2.3-1.6,5.6-2.4,10.1-2.4c4.1,0,7.1,0.5,9.1,1.4
		c2,1,3.4,2.2,4.2,3.7c0.8,1.5,1.2,4.2,1.2,8.2l-0.1,10.6c0,3,0.1,5.3,0.4,6.7c0.3,1.4,0.8,3,1.6,4.6h-9c-0.2-0.6-0.5-1.5-0.9-2.7
		c-0.2-0.5-0.3-0.9-0.3-1.1c-1.6,1.5-3.2,2.6-5,3.4c-1.8,0.8-3.7,1.1-5.7,1.1c-3.5,0-6.3-1-8.4-2.9c-2-1.9-3.1-4.4-3.1-7.3
		c0-1.9,0.5-3.7,1.4-5.2c0.9-1.5,2.2-2.7,3.9-3.5c1.7-0.8,4.1-1.5,7.2-2.1c4.3-0.8,7.2-1.5,8.9-2.2v-0.9c0-1.8-0.4-3-1.3-3.7
		s-2.5-1.1-4.9-1.1c-1.6,0-2.9,0.3-3.8,1C157,457.6,156.3,458.7,155.7,460.3z M167.9,467.7c-1.2,0.4-3,0.9-5.5,1.4
		c-2.5,0.5-4.2,1.1-5,1.6c-1.2,0.8-1.8,1.9-1.8,3.2c0,1.3,0.5,2.4,1.4,3.3c1,0.9,2.2,1.4,3.6,1.4c1.6,0,3.2-0.5,4.7-1.6
		c1.1-0.8,1.8-1.8,2.2-3c0.2-0.8,0.4-2.3,0.4-4.4V467.7z"/>
	<path class="st0" d="M185.9,484.3v-47.5h9.1v47.5H185.9z"/>
	<path class="st0" d="M213.8,484.3l-13.9-34.4h9.6l6.5,17.6l1.9,5.9c0.5-1.5,0.8-2.5,0.9-3c0.3-1,0.6-1.9,1-2.9l6.6-17.6h9.4
		L222,484.3H213.8z"/>
	<path class="st0" d="M248.1,460.3l-8.3-1.5c0.9-3.3,2.5-5.8,4.8-7.4c2.3-1.6,5.6-2.4,10.1-2.4c4.1,0,7.1,0.5,9.1,1.4
		c2,1,3.4,2.2,4.2,3.7c0.8,1.5,1.2,4.2,1.2,8.2l-0.1,10.6c0,3,0.1,5.3,0.4,6.7c0.3,1.4,0.8,3,1.6,4.6h-9c-0.2-0.6-0.5-1.5-0.9-2.7
		c-0.2-0.5-0.3-0.9-0.3-1.1c-1.6,1.5-3.2,2.6-5,3.4c-1.8,0.8-3.7,1.1-5.7,1.1c-3.5,0-6.3-1-8.4-2.9c-2-1.9-3.1-4.4-3.1-7.3
		c0-1.9,0.5-3.7,1.4-5.2c0.9-1.5,2.2-2.7,3.9-3.5c1.7-0.8,4.1-1.5,7.2-2.1c4.3-0.8,7.2-1.5,8.9-2.2v-0.9c0-1.8-0.4-3-1.3-3.7
		c-0.9-0.7-2.5-1.1-4.9-1.1c-1.6,0-2.9,0.3-3.8,1C249.4,457.6,248.6,458.7,248.1,460.3z M260.3,467.7c-1.2,0.4-3,0.9-5.5,1.4
		c-2.5,0.5-4.2,1.1-5,1.6c-1.2,0.8-1.8,1.9-1.8,3.2c0,1.3,0.5,2.4,1.4,3.3c1,0.9,2.2,1.4,3.6,1.4c1.6,0,3.2-0.5,4.7-1.6
		c1.1-0.8,1.8-1.8,2.2-3c0.2-0.8,0.4-2.3,0.4-4.4V467.7z"/>
	<path class="st0" d="M308.8,484.3l-17-47.5h10.4l12,35.2l11.6-35.2h10.2l-17,47.5H308.8z"/>
	<path class="st0" d="M339.7,445.2v-8.4h9.1v8.4H339.7z M339.7,484.3v-34.4h9.1v34.4H339.7z"/>
	<path class="st0" d="M389.8,484.3h-8.5v-5.1c-1.4,2-3.1,3.4-5,4.4c-1.9,1-3.8,1.4-5.8,1.4c-4,0-7.3-1.6-10.2-4.8
		c-2.8-3.2-4.2-7.6-4.2-13.3c0-5.8,1.4-10.3,4.1-13.3c2.7-3,6.2-4.6,10.4-4.6c3.8,0,7.2,1.6,10,4.8v-17.1h9.1V484.3z M365.5,466.3
		c0,3.7,0.5,6.3,1.5,8c1.5,2.4,3.5,3.6,6.2,3.6c2.1,0,3.9-0.9,5.4-2.7c1.5-1.8,2.2-4.4,2.2-8c0-4-0.7-6.8-2.1-8.5
		c-1.4-1.7-3.3-2.6-5.5-2.6c-2.2,0-4,0.9-5.4,2.6C366.2,460.3,365.5,462.9,365.5,466.3z"/>
	<path class="st0" d="M405.6,460.3l-8.3-1.5c0.9-3.3,2.5-5.8,4.8-7.4c2.3-1.6,5.6-2.4,10.1-2.4c4.1,0,7.1,0.5,9.1,1.4
		c2,1,3.4,2.2,4.2,3.7c0.8,1.5,1.2,4.2,1.2,8.2l-0.1,10.6c0,3,0.1,5.3,0.4,6.7c0.3,1.4,0.8,3,1.6,4.6h-9c-0.2-0.6-0.5-1.5-0.9-2.7
		c-0.2-0.5-0.3-0.9-0.3-1.1c-1.6,1.5-3.2,2.6-5,3.4c-1.8,0.8-3.7,1.1-5.7,1.1c-3.5,0-6.3-1-8.4-2.9c-2-1.9-3.1-4.4-3.1-7.3
		c0-1.9,0.5-3.7,1.4-5.2c0.9-1.5,2.2-2.7,3.9-3.5c1.7-0.8,4.1-1.5,7.2-2.1c4.3-0.8,7.2-1.5,8.9-2.2v-0.9c0-1.8-0.4-3-1.3-3.7
		c-0.9-0.7-2.5-1.1-4.9-1.1c-1.6,0-2.9,0.3-3.8,1C406.9,457.6,406.1,458.7,405.6,460.3z M417.8,467.7c-1.2,0.4-3,0.9-5.5,1.4
		c-2.5,0.5-4.2,1.1-5,1.6c-1.2,0.8-1.8,1.9-1.8,3.2c0,1.3,0.5,2.4,1.4,3.3c1,0.9,2.2,1.4,3.6,1.4c1.6,0,3.2-0.5,4.7-1.6
		c1.1-0.8,1.8-1.8,2.2-3c0.2-0.8,0.4-2.3,0.4-4.4V467.7z"/>
	<path class="st0" d="M432.5,474.5l9.1-1.4c0.4,1.8,1.2,3.1,2.4,4c1.2,0.9,2.9,1.4,5,1.4c2.4,0,4.1-0.4,5.3-1.3
		c0.8-0.6,1.2-1.4,1.2-2.4c0-0.7-0.2-1.3-0.6-1.7c-0.5-0.4-1.5-0.8-3-1.2c-7.4-1.6-12-3.1-14-4.4c-2.7-1.9-4.1-4.4-4.1-7.8
		c0-3,1.2-5.5,3.5-7.5c2.4-2,6-3,11-3c4.7,0,8.2,0.8,10.5,2.3c2.3,1.5,3.9,3.8,4.7,6.8l-8.6,1.6c-0.4-1.3-1.1-2.4-2.1-3.1
		c-1-0.7-2.5-1.1-4.4-1.1c-2.4,0-4.1,0.3-5.2,1c-0.7,0.5-1,1.1-1,1.8c0,0.6,0.3,1.2,0.9,1.7c0.8,0.6,3.7,1.5,8.5,2.6
		c4.9,1.1,8.2,2.5,10.2,4.1c1.9,1.6,2.9,3.9,2.9,6.8c0,3.2-1.3,5.9-4,8.1c-2.6,2.3-6.5,3.4-11.7,3.4c-4.7,0-8.4-1-11.1-2.9
		C435.1,480.3,433.3,477.7,432.5,474.5z"/>
</g>
</svg>
