<?xml version="1.0" encoding="utf-8"?>
<!-- Generator: Adobe Illustrator 25.3.0, SVG Export Plug-In . SVG Version: 6.00 Build 0)  -->
<svg version="1.1" id="Capa_1" xmlns="http://www.w3.org/2000/svg" xmlns:xlink="http://www.w3.org/1999/xlink" x="0px" y="0px"
	 viewBox="0 0 566.9 566.9" style="enable-background:new 0 0 566.9 566.9;" xml:space="preserve">
<style type="text/css">
	.st0{fill:#3D3D3B;}
</style>
<g>
	<g>
		<g>
			<path class="st0" d="M53.6,140.9c1.6-0.4,2.4-0.6,4-1c-2.5-9.5-3.7-14.3-6.2-23.8c-1.9,0.5-2.9,0.7-4.8,1.2
				c0.5,1.9,0.8,2.9,1.3,4.8c-3.4,0.9-5,1.3-8.4,2.3c-1.2-4.5-1.8-6.7-3.1-11.2c14.4-3.9,21.6-5.7,36-9.1c1.1,4.5,1.6,6.8,2.6,11.3
				c-3.4,0.8-5.1,1.2-8.5,2c-0.5-1.9-0.7-2.9-1.2-4.8c-2.2,0.5-3.3,0.8-5.4,1.3c2.4,9.5,3.6,14.3,5.9,23.9c1.6-0.4,2.4-0.6,4-1
				c0.7,2.7,1,4,1.6,6.7c-6.5,1.6-9.8,2.4-16.3,4.1C54.6,144.9,54.3,143.6,53.6,140.9z"/>
			<path class="st0" d="M102.2,137.2c-1.7,0.4-3.4,0.5-5.1,0.4c-1.7-0.1-3.3-0.4-4.9-1c-1.6-0.5-3-1.3-4.4-2.2
				c-1.4-0.9-2.6-2-3.8-3.3c-1.1-1.2-2.1-2.6-2.9-4.2c-0.8-1.5-1.4-3.2-1.8-5c-0.4-1.8-0.6-3.5-0.5-5.3c0.1-1.7,0.3-3.4,0.8-5
				c0.5-1.6,1.2-3.1,2.1-4.6c0.9-1.4,2-2.7,3.2-3.9c1.2-1.1,2.6-2.1,4.2-2.9c1.5-0.8,3.2-1.4,5-1.8c1.8-0.4,3.6-0.5,5.3-0.4
				c1.8,0.1,3.4,0.5,5,1c1.6,0.6,3.1,1.3,4.5,2.3c1.4,1,2.6,2.1,3.7,3.4c1.1,1.3,2,2.7,2.8,4.3c0.8,1.6,1.3,3.3,1.6,5.1
				c0.3,1.8,0.4,3.5,0.3,5.3c-0.1,1.7-0.5,3.4-1,5c-0.5,1.6-1.3,3.1-2.2,4.5c-0.9,1.4-2,2.7-3.2,3.8c-1.2,1.1-2.6,2.1-4.1,2.8
				C105.5,136.3,103.9,136.9,102.2,137.2z M100.6,129.5c1.5-0.3,2.8-0.9,3.9-1.8c1.1-0.9,2-1.9,2.7-3.2c0.7-1.2,1.1-2.6,1.3-4.1
				c0.2-1.5,0.2-3-0.2-4.6c-0.3-1.6-0.9-3.1-1.6-4.4c-0.8-1.3-1.7-2.4-2.9-3.3c-1.1-0.9-2.4-1.5-3.8-1.9c-1.4-0.4-2.8-0.4-4.3-0.1
				c-1.5,0.3-2.8,0.9-3.9,1.8c-1.1,0.9-2,1.9-2.7,3.2c-0.7,1.3-1.1,2.6-1.3,4.2c-0.2,1.5-0.1,3.1,0.2,4.7c0.3,1.6,0.9,3,1.7,4.3
				c0.8,1.3,1.8,2.4,2.9,3.2c1.1,0.9,2.3,1.5,3.7,1.8C97.7,129.8,99.1,129.8,100.6,129.5z"/>
			<path class="st0" d="M118.1,94.5c6.1-1.1,9.2-1.7,15.4-2.7c1.8-0.3,3.6-0.4,5.4-0.2c1.8,0.2,3.4,0.6,5,1.1c1.6,0.6,3,1.4,4.4,2.3
				c1.4,1,2.6,2.1,3.6,3.3c1,1.3,1.9,2.7,2.6,4.2c0.7,1.5,1.2,3.2,1.4,4.9c0.3,1.7,0.3,3.5,0.1,5.1c-0.2,1.7-0.6,3.3-1.2,4.8
				c-0.6,1.5-1.4,2.9-2.4,4.3c-1,1.3-2.1,2.5-3.4,3.5c-1.3,1-2.7,1.9-4.2,2.6c-1.5,0.7-3.2,1.2-5,1.5c-5.9,1-8.9,1.5-14.8,2.6
				c-0.5-2.7-0.7-4.1-1.2-6.8c1.2-0.2,1.9-0.3,3.1-0.6c-1.7-9.6-2.6-14.4-4.3-24c-1.3,0.2-1.9,0.3-3.2,0.6
				C118.8,98.6,118.6,97.3,118.1,94.5z M131.2,99.3c1.6,9.6,2.4,14.4,4.1,24c1.3-0.2,2-0.3,3.3-0.5c1.4-0.2,2.6-0.8,3.8-1.6
				c1.1-0.8,2.1-1.9,2.8-3.1c0.7-1.2,1.3-2.6,1.6-4.2c0.3-1.6,0.3-3.2,0.1-4.9c-0.3-1.7-0.8-3.2-1.5-4.6c-0.8-1.4-1.7-2.5-2.8-3.5
				c-1.1-0.9-2.3-1.6-3.7-2c-1.4-0.4-2.8-0.5-4.2-0.3C133.2,98.9,132.5,99,131.2,99.3z"/>
			<path class="st0" d="M180.6,124.4c-1.8,0.2-3.5,0.2-5.1-0.1c-1.7-0.3-3.2-0.7-4.7-1.4c-1.5-0.7-2.9-1.5-4.2-2.6
				c-1.3-1-2.5-2.2-3.5-3.6c-1-1.3-1.9-2.8-2.5-4.4c-0.7-1.6-1.2-3.3-1.4-5.1c-0.3-1.8-0.3-3.6-0.1-5.3c0.2-1.7,0.6-3.4,1.3-5
				c0.6-1.6,1.4-3,2.4-4.4c1-1.3,2.2-2.5,3.5-3.6c1.3-1,2.8-1.9,4.4-2.6c1.6-0.7,3.3-1.1,5.2-1.3c1.8-0.2,3.6-0.2,5.3,0.1
				c1.7,0.3,3.4,0.8,4.9,1.4c1.5,0.7,3,1.6,4.3,2.6c1.3,1.1,2.4,2.3,3.4,3.7c1,1.4,1.8,2.9,2.4,4.5c0.6,1.6,1,3.4,1.2,5.2
				c0.2,1.8,0.1,3.6-0.2,5.3c-0.3,1.7-0.8,3.4-1.4,4.9c-0.7,1.5-1.5,3-2.5,4.3c-1,1.3-2.2,2.5-3.5,3.5c-1.3,1-2.7,1.8-4.3,2.5
				C184,123.7,182.4,124.1,180.6,124.4z M179.7,116.5c1.5-0.2,2.8-0.7,4-1.4c1.2-0.8,2.1-1.7,2.9-2.9c0.8-1.2,1.3-2.5,1.7-4
				c0.3-1.5,0.4-3,0.2-4.6c-0.2-1.6-0.6-3.1-1.3-4.5c-0.7-1.4-1.5-2.6-2.6-3.5c-1-1-2.2-1.7-3.6-2.2c-1.3-0.5-2.8-0.6-4.3-0.4
				c-1.5,0.2-2.9,0.7-4.1,1.4c-1.2,0.8-2.2,1.8-2.9,3c-0.8,1.2-1.3,2.5-1.7,4c-0.3,1.5-0.4,3.1-0.2,4.7c0.2,1.6,0.7,3.1,1.4,4.4
				c0.7,1.4,1.6,2.5,2.6,3.5c1,1,2.2,1.7,3.5,2.1C176.8,116.5,178.2,116.7,179.7,116.5z"/>
			<path class="st0" d="M211.8,82.2c6.9-0.6,10.4-0.8,17.3-1.3c0.2,2.8,0.3,4.1,0.4,6.9c-1.7,0.1-2.5,0.2-4.2,0.3
				c0.7,9.7,1,14.6,1.7,24.3c3.4-0.2,5.1-0.3,8.5-0.5c0.2,0,0.4-0.1,0.6-0.2c0.2-0.1,0.4-0.3,0.5-0.5c0.2-0.2,0.3-0.4,0.4-0.7
				c0.1-0.2,0.1-0.5,0.1-0.7c-0.1-2-0.2-3.1-0.3-5.1c3.4-0.2,5.1-0.3,8.4-0.5c0.3,5.6,0.4,8.4,0.7,14c-12.4,0.6-18.7,1-31.1,2
				c-0.2-2.7-0.3-4.1-0.6-6.9c1.6-0.1,2.4-0.2,4.1-0.3c-0.8-9.7-1.1-14.6-1.9-24.3c-1.7,0.1-2.5,0.2-4.2,0.3
				C212.1,86.3,212,84.9,211.8,82.2z"/>
			<path class="st0" d="M267,118c-1.8,0-3.5-0.1-5.1-0.6c-1.6-0.4-3.1-1-4.6-1.8s-2.7-1.8-3.9-2.9c-1.2-1.2-2.2-2.4-3.1-3.9
				c-0.9-1.4-1.6-3-2.1-4.6c-0.5-1.7-0.8-3.4-0.9-5.2c-0.1-1.8,0.1-3.6,0.4-5.3c0.4-1.7,0.9-3.3,1.7-4.8c0.8-1.5,1.7-2.9,2.8-4.1
				c1.1-1.2,2.4-2.3,3.8-3.2c1.4-0.9,3-1.6,4.6-2.1c1.7-0.5,3.4-0.8,5.2-0.9c1.8,0,3.6,0.2,5.3,0.6c1.7,0.4,3.3,1.1,4.7,1.9
				c1.5,0.8,2.8,1.8,4,3c1.2,1.2,2.2,2.5,3.1,4c0.8,1.5,1.5,3,2,4.7c0.5,1.7,0.7,3.4,0.7,5.3c0,1.8-0.2,3.6-0.6,5.3
				c-0.4,1.7-1.1,3.3-1.9,4.7c-0.8,1.5-1.8,2.8-2.9,4c-1.1,1.2-2.4,2.3-3.8,3.1c-1.4,0.9-2.9,1.6-4.5,2.1
				C270.5,117.7,268.8,118,267,118z M266.8,110.1c1.5,0,2.9-0.4,4.1-1c1.2-0.7,2.3-1.5,3.2-2.6c0.9-1.1,1.6-2.4,2-3.8
				c0.5-1.4,0.7-3,0.7-4.6c0-1.6-0.3-3.2-0.8-4.6c-0.5-1.4-1.3-2.7-2.2-3.7c-0.9-1.1-2.1-1.9-3.3-2.5c-1.3-0.6-2.7-0.9-4.2-0.8
				c-1.5,0-2.9,0.4-4.2,1.1c-1.3,0.7-2.3,1.6-3.2,2.7c-0.9,1.1-1.6,2.4-2,3.9c-0.5,1.5-0.7,3-0.6,4.6c0.1,1.6,0.4,3.1,0.9,4.5
				c0.6,1.4,1.3,2.6,2.3,3.7c0.9,1,2,1.9,3.3,2.5C264,109.9,265.4,110.2,266.8,110.1z"/>
			<path class="st0" d="M315.5,117.7c-2.2-0.5-4.2-1.3-6-2.5c-1.8-1.2-3.4-2.7-4.8-4.4c-1.3-1.7-2.4-3.7-3.1-5.8
				c-0.7-2.2-1.1-4.5-1.1-6.9c0-1.8,0.3-3.6,0.7-5.3c0.5-1.7,1.1-3.3,2-4.7c0.8-1.5,1.9-2.8,3.1-4c1.2-1.2,2.5-2.2,4-3
				c1.5-0.8,3-1.5,4.7-1.9c1.7-0.4,3.4-0.6,5.3-0.6c1.8,0.1,3.6,0.4,5.3,0.9c1.7,0.5,3.2,1.2,4.6,2.2c1.4,0.9,2.7,2,3.8,3.3
				c1.1,1.3,2.1,2.6,2.8,4.1c0.8,1.5,1.3,3.1,1.7,4.8c0.4,1.7,0.5,3.5,0.4,5.3c-0.1,2.5-0.6,4.7-1.5,6.9c-0.9,2.1-2.1,4-3.6,5.7
				c-1.5,1.7-3.2,3-5.2,4.1c-2,1.1-4.1,1.8-6.3,2.1c0.5,0.2,1,0.5,1.6,0.8c0.5,0.3,1,0.5,1.5,0.8c0.5,0.2,1,0.5,1.6,0.6
				s1.1,0.3,1.6,0.3c0.5,0,1,0,1.6-0.1c0.5-0.1,1-0.3,1.4-0.6c0.4-0.3,0.8-0.6,1.1-1.1c0.3-0.4,0.5-1,0.7-1.6
				c2.2,1.2,3.4,1.8,5.6,3.1c-0.2,1.2-0.6,2.3-1.2,3.3c-0.6,1-1.4,1.8-2.3,2.4c-0.9,0.7-1.9,1.2-3,1.5c-1.1,0.3-2.3,0.5-3.5,0.4
				c-1,0-2-0.3-3-0.7c-1-0.4-2-0.9-2.9-1.3c-0.9-0.5-1.8-0.9-2.6-1.3c-0.8-0.4-1.5-0.6-2.2-0.6c-0.3,0-0.5,0-0.7,0
				c-0.2,0-0.4,0-0.6,0c-0.2,0-0.4,0-0.7,0.1c-0.2,0-0.5,0.1-0.9,0.2C315.4,121.5,315.5,120.2,315.5,117.7z M319.4,110.2
				c1.5,0,2.9-0.2,4.2-0.8c1.3-0.6,2.4-1.4,3.3-2.5c0.9-1.1,1.7-2.3,2.2-3.7c0.6-1.4,0.9-2.9,0.9-4.5c0.1-1.6-0.1-3.2-0.6-4.6
				c-0.5-1.5-1.1-2.8-2-3.9c-0.9-1.1-1.9-2-3.2-2.7c-1.2-0.7-2.6-1-4.2-1.1c-1.5,0-2.9,0.2-4.2,0.8c-1.3,0.6-2.4,1.4-3.3,2.5
				c-0.9,1.1-1.7,2.3-2.2,3.7c-0.5,1.4-0.8,3-0.9,4.6c0,1.6,0.2,3.1,0.7,4.6c0.5,1.4,1.2,2.7,2,3.8c0.9,1.1,1.9,2,3.2,2.6
				C316.5,109.8,317.9,110.2,319.4,110.2z"/>
			<path class="st0" d="M343.9,80.3c6.5,0.4,9.7,0.6,16.2,1c-0.2,2.8-0.3,4.1-0.5,6.9c-1.5-0.1-2.2-0.2-3.7-0.3
				c-0.4,6.3-0.6,9.5-1.1,15.8c-0.1,1.4,0,2.7,0.3,3.7c0.3,1,0.7,1.9,1.2,2.6c0.6,0.7,1.2,1.2,2,1.5c0.8,0.4,1.7,0.6,2.7,0.6
				c1,0.1,2,0,2.8-0.2c0.9-0.2,1.6-0.6,2.2-1.1c0.6-0.6,1.2-1.3,1.6-2.3c0.4-1,0.7-2.3,0.8-3.8c0.5-6.3,0.8-9.5,1.3-15.8
				c-1.7-0.1-2.6-0.2-4.3-0.3c0.2-2.8,0.3-4.1,0.5-6.9c6.5,0.5,9.7,0.8,16.2,1.4c-0.3,2.8-0.4,4.1-0.7,6.9c-1.3-0.1-1.9-0.2-3.2-0.3
				c-0.5,5.9-0.8,8.9-1.3,14.8c-0.2,2.7-0.9,5-1.8,7c-1,2-2.2,3.7-3.7,5c-1.5,1.3-3.2,2.3-5.1,2.9c-1.9,0.6-3.9,0.8-6,0.7
				c-2.1-0.2-4-0.7-5.8-1.5c-1.8-0.9-3.3-2.1-4.6-3.6c-1.3-1.5-2.3-3.3-2.9-5.4c-0.7-2.1-0.9-4.4-0.8-7c0.4-6.1,0.5-9.2,0.9-15.3
				c-1.5-0.1-2.2-0.1-3.6-0.2C343.7,84.4,343.8,83.1,343.9,80.3z"/>
			<path class="st0" d="M387.2,83.6c12.9,1.3,19.3,2,32.1,3.7c-0.7,5.2-1,7.7-1.7,12.9c-3.4-0.5-5.1-0.7-8.5-1.1
				c0.3-2.1,0.4-3.2,0.7-5.4c-4.1-0.5-6.2-0.8-10.3-1.2c-0.3,3-0.5,4.5-0.8,7.5c3.2,0.4,4.7,0.5,7.9,0.9c-0.4,2.9-0.5,4.3-0.9,7.2
				c-3.1-0.4-4.7-0.6-7.8-0.9c-0.4,3.5-0.6,5.3-1,8.8c4,0.5,6,0.7,10,1.2c0.3-2.7,0.5-4,0.8-6.7c3.4,0.4,5.1,0.6,8.4,1.1
				c-0.7,5.4-1.1,8.1-1.8,13.6c-12.3-1.6-18.5-2.4-30.8-3.6c0.3-2.7,0.4-4.1,0.7-6.9c1.6,0.2,2.5,0.2,4.1,0.4
				c1-9.4,1.5-14.1,2.5-23.5c-1.7-0.2-2.5-0.3-4.2-0.4C386.8,88.2,386.9,86.7,387.2,83.6z"/>
			<path class="st0" d="M452.3,103.3c0-0.6-0.1-1.2-0.4-1.7c-0.3-0.6-0.6-1.1-1.1-1.6c-0.5-0.5-1-0.9-1.7-1.2
				c-0.6-0.3-1.3-0.6-2.1-0.7c-0.7-0.1-1.3-0.1-1.9-0.1c-0.6,0-1.1,0.2-1.6,0.4c-0.5,0.2-0.9,0.5-1.2,0.9c-0.3,0.4-0.5,0.9-0.6,1.5
				c-0.1,0.7,0,1.4,0.2,1.9c0.3,0.5,0.6,0.9,1.1,1.3c0.5,0.4,1,0.7,1.7,1c0.6,0.3,1.2,0.6,1.8,0.9c2.7,1.4,4.1,2.1,6.8,3.5
				c0.9,0.5,1.8,1.1,2.5,1.8c0.8,0.7,1.4,1.6,1.9,2.5s0.8,2,1,3.1c0.2,1.1,0.1,2.4-0.1,3.7c-0.3,1.8-1,3.4-1.9,4.8
				c-1,1.4-2.2,2.5-3.6,3.4c-1.4,0.9-3.1,1.4-4.9,1.7c-1.8,0.3-3.8,0.3-5.9-0.1c-1.5-0.2-2.8-0.6-4.1-1.2c-1.3-0.5-2.4-1.2-3.4-2
				c-1-0.8-1.8-1.7-2.5-2.6c-0.7-1-1.2-2-1.5-3.2c-1.1-0.2-1.6-0.2-2.6-0.4c0.4-3,0.7-4.5,1.1-7.5c3.7,0.6,5.6,0.8,9.4,1.4
				c-0.1,0.6-0.1,0.9-0.2,1.5c-0.1,0.7-0.1,1.5,0,2.1c0.1,0.7,0.4,1.3,0.9,1.8c0.4,0.5,1,1,1.7,1.4c0.7,0.4,1.6,0.7,2.6,0.8
				c1.5,0.3,2.8,0.1,3.7-0.4c0.9-0.6,1.5-1.4,1.7-2.7c0.1-0.6,0.1-1.2-0.2-1.6c-0.2-0.5-0.5-0.9-0.9-1.3c-0.4-0.4-0.9-0.7-1.4-1
				c-0.5-0.3-1-0.6-1.5-0.8c-2.2-1.1-3.4-1.7-5.6-2.8c-1.1-0.5-2.1-1.1-3-1.9c-1-0.8-1.8-1.6-2.4-2.7c-0.7-1-1.2-2.2-1.5-3.4
				c-0.3-1.3-0.3-2.7-0.1-4.2c0.3-1.8,0.9-3.3,1.8-4.6c0.9-1.3,2.1-2.3,3.5-3.1c1.4-0.8,3-1.3,4.9-1.5c1.8-0.2,3.8-0.2,5.9,0.2
				c1.6,0.3,3.1,0.7,4.5,1.3c1.3,0.6,2.5,1.3,3.5,2.1c1,0.8,1.8,1.6,2.4,2.5c0.6,0.9,1.1,1.8,1.3,2.7c1.1,0.2,1.6,0.3,2.6,0.5
				c-0.5,3-0.8,4.5-1.4,7.5c-3.8-0.7-5.7-1-9.4-1.7C452.1,104.6,452.2,104.1,452.3,103.3z"/>
			<path class="st0" d="M478,136.7c-1.7-0.4-3.3-0.9-4.8-1.7c-1.5-0.8-2.8-1.7-4.1-2.8c-1.2-1.1-2.3-2.4-3.2-3.8
				c-0.9-1.4-1.6-2.9-2.2-4.5c-0.5-1.6-0.9-3.3-1-5c-0.1-1.7-0.1-3.5,0.3-5.3c0.3-1.8,0.9-3.5,1.6-5.1c0.8-1.6,1.7-3,2.8-4.3
				c1.1-1.3,2.3-2.4,3.7-3.4c1.4-1,2.9-1.7,4.5-2.3c1.6-0.6,3.3-0.9,5-1c1.7-0.1,3.5,0,5.3,0.4c1.8,0.4,3.5,1,5.1,1.8
				c1.6,0.8,3,1.8,4.2,2.9c1.2,1.1,2.3,2.4,3.2,3.9c0.9,1.4,1.6,3,2.1,4.6c0.5,1.6,0.8,3.3,0.9,5c0.1,1.7-0.1,3.5-0.5,5.3
				c-0.4,1.8-1,3.4-1.8,5c-0.8,1.5-1.8,2.9-2.9,4.2c-1.1,1.3-2.4,2.3-3.8,3.3c-1.4,0.9-2.9,1.7-4.4,2.2c-1.6,0.5-3.2,0.9-4.9,1
				C481.5,137.2,479.8,137,478,136.7z M479.6,128.9c1.5,0.3,2.9,0.3,4.3-0.1c1.4-0.4,2.6-1,3.7-1.8c1.1-0.9,2.1-2,2.9-3.3
				c0.8-1.3,1.4-2.7,1.7-4.3c0.3-1.6,0.4-3.1,0.2-4.7c-0.2-1.5-0.6-2.9-1.3-4.2c-0.7-1.3-1.6-2.3-2.7-3.2c-1.1-0.9-2.4-1.5-3.9-1.8
				c-1.5-0.3-2.9-0.3-4.3,0.1c-1.4,0.4-2.6,1-3.7,1.9c-1.1,0.9-2.1,2-2.8,3.3c-0.8,1.3-1.3,2.8-1.6,4.4c-0.3,1.6-0.3,3.1-0.1,4.6
				c0.2,1.5,0.7,2.9,1.4,4.1c0.7,1.2,1.6,2.3,2.7,3.2C476.9,128.1,478.1,128.6,479.6,128.9z"/>
			<path class="st0" d="M508.6,103.6c6.8,1.6,10.2,2.4,17,4.1c-0.7,2.7-1,4-1.7,6.7c-1.3-0.3-2-0.5-3.3-0.8c1.3,3.9,1.9,5.9,3.1,9.8
				c3.1-2.8,4.6-4.3,7.7-7.1c-1.5-0.4-2.3-0.6-3.8-1c0.7-2.7,1-4,1.7-6.7c6.8,1.7,10.2,2.6,16.9,4.5c-0.7,2.7-1.1,4-1.8,6.7
				c-1.2-0.3-1.7-0.5-2.9-0.8c-6.3,4.7-9.4,7.1-15.5,11.9c-0.9,3.5-1.3,5.2-2.2,8.7c1.9,0.5,2.8,0.7,4.6,1.2c-0.7,2.7-1,4-1.7,6.7
				c-6.8-1.8-10.2-2.6-17-4.3c0.6-2.7,1-4,1.6-6.7c1.7,0.4,2.6,0.6,4.3,1c0.9-3.5,1.3-5.3,2.2-8.8c-2.9-7-4.3-10.5-7.3-17.5
				c-1.4-0.3-2.1-0.5-3.5-0.8C507.7,107.7,508,106.3,508.6,103.6z"/>
		</g>
	</g>
	<g>
		<g>
			<path class="st0" d="M163.7,313.6c-0.1-0.6-0.3-1.1-0.6-1.6c-0.3-0.5-0.7-0.9-1.2-1.3c-0.5-0.4-1-0.7-1.7-0.9
				c-0.6-0.2-1.3-0.3-2-0.3c-0.6,0-1.2,0.1-1.7,0.2c-0.5,0.1-1,0.3-1.4,0.6c-0.4,0.3-0.7,0.6-0.9,1c-0.2,0.4-0.4,0.9-0.4,1.5
				c0,0.7,0.2,1.3,0.5,1.7c0.3,0.4,0.7,0.8,1.2,1.1c0.5,0.3,1,0.5,1.6,0.7c0.6,0.2,1.2,0.3,1.7,0.5l6.7,2.2c0.9,0.3,1.8,0.8,2.6,1.3
				c0.8,0.6,1.5,1.3,2.1,2.1c0.6,0.8,1.1,1.7,1.4,2.8c0.3,1.1,0.5,2.2,0.5,3.5c0,1.8-0.3,3.4-1,4.9c-0.7,1.5-1.6,2.7-2.8,3.8
				c-1.2,1-2.6,1.9-4.2,2.4c-1.6,0.6-3.5,0.9-5.5,0.9c-1.4,0-2.7-0.2-4-0.5c-1.3-0.3-2.4-0.8-3.4-1.4c-1-0.6-1.9-1.3-2.7-2.1
				c-0.8-0.8-1.4-1.8-1.8-2.8h-2.5v-7.3h8.8v1.5c0,0.7,0.1,1.4,0.4,2c0.2,0.6,0.6,1.1,1.1,1.6c0.5,0.5,1.1,0.8,1.8,1.1
				c0.7,0.3,1.5,0.4,2.5,0.4c1.5,0,2.6-0.3,3.3-1c0.8-0.7,1.1-1.6,1.1-2.8c0-0.6-0.1-1.1-0.4-1.5c-0.3-0.4-0.6-0.8-1-1
				c-0.4-0.3-0.9-0.5-1.4-0.7c-0.5-0.2-1-0.4-1.5-0.5l-5.5-1.8c-1.1-0.3-2.1-0.8-3-1.4c-1-0.6-1.8-1.3-2.6-2.2
				c-0.8-0.9-1.3-1.9-1.8-3.1c-0.4-1.2-0.7-2.5-0.7-4c0-1.7,0.3-3.3,1-4.7c0.6-1.4,1.6-2.5,2.7-3.5c1.2-0.9,2.5-1.6,4.1-2.1
				c1.6-0.5,3.4-0.7,5.3-0.7c1.5,0,2.9,0.2,4.2,0.5c1.3,0.3,2.4,0.8,3.4,1.4c1,0.6,1.9,1.2,2.6,2c0.7,0.8,1.2,1.5,1.6,2.3h2.4v7.3
				h-8.8V313.6z"/>
		</g>
		<g>
			<path class="st0" d="M176.2,303.2h29.2v12.5h-7.9v-5.2h-9.4v7.2h7.3v7h-7.3v8.5h9.4v-6.5h7.9V340h-29.2v-6.6h3.9v-22.8h-3.9
				V303.2z"/>
		</g>
		<g>
			<path class="st0" d="M219.6,303.2h15.7v6.7h-3.9v23.4h8c0.2,0,0.4-0.1,0.6-0.2c0.2-0.1,0.4-0.3,0.5-0.5c0.2-0.2,0.3-0.4,0.4-0.6
				c0.1-0.2,0.1-0.4,0.1-0.7v-4.9h7.9V340h-29.4v-6.6h3.8v-23.4h-3.8V303.2z"/>
		</g>
		<g>
			<path class="st0" d="M268.9,340.6c-1.7,0-3.3-0.2-4.8-0.7c-1.5-0.5-2.9-1.1-4.3-1.9c-1.3-0.8-2.5-1.8-3.6-3
				c-1.1-1.2-2-2.4-2.8-3.9c-0.8-1.4-1.3-2.9-1.8-4.5c-0.4-1.6-0.6-3.3-0.6-5.1c0-1.8,0.2-3.5,0.6-5.1c0.4-1.6,1-3.1,1.8-4.6
				c0.8-1.4,1.7-2.7,2.8-3.9c1.1-1.2,2.3-2.1,3.6-3c1.3-0.8,2.7-1.5,4.3-1.9c1.5-0.5,3.1-0.7,4.8-0.7c1.7,0,3.3,0.2,4.8,0.7
				c1.5,0.5,2.9,1.1,4.3,1.9c1.3,0.8,2.5,1.8,3.6,3c1.1,1.2,2,2.4,2.8,3.9c0.8,1.4,1.4,2.9,1.8,4.6c0.4,1.6,0.6,3.3,0.6,5.1
				c0,1.7-0.2,3.4-0.6,5.1c-0.4,1.6-1,3.1-1.8,4.6c-0.8,1.4-1.7,2.7-2.8,3.9c-1.1,1.2-2.3,2.1-3.6,3c-1.3,0.8-2.7,1.5-4.3,1.9
				C272.1,340.4,270.5,340.6,268.9,340.6z M268.9,333c1.4,0,2.7-0.3,3.9-0.9c1.2-0.6,2.2-1.4,3-2.5c0.8-1,1.5-2.3,2-3.6
				s0.7-2.8,0.7-4.4c0-1.6-0.2-3-0.7-4.4c-0.5-1.4-1.1-2.6-2-3.6c-0.8-1-1.9-1.9-3-2.5c-1.2-0.6-2.4-0.9-3.8-0.9
				c-1.4,0-2.7,0.3-3.8,0.9c-1.2,0.6-2.2,1.4-3,2.5c-0.8,1-1.5,2.3-2,3.6c-0.5,1.4-0.7,2.9-0.7,4.4c0,1.6,0.2,3,0.7,4.4
				c0.5,1.4,1.1,2.6,2,3.6c0.8,1,1.8,1.9,3,2.5C266.2,332.7,267.5,333,268.9,333z"/>
		</g>
		<g>
			<path class="st0" d="M300.7,303.2h14.1c1.7,0,3.3,0.2,4.8,0.7c1.5,0.4,3,1.1,4.3,1.8c1.3,0.8,2.5,1.7,3.6,2.8
				c1.1,1.1,2,2.3,2.8,3.7c0.8,1.4,1.4,2.8,1.8,4.4c0.4,1.6,0.6,3.2,0.6,4.9c0,1.7-0.2,3.3-0.6,4.9c-0.4,1.6-1,3-1.8,4.4
				s-1.7,2.6-2.8,3.7c-1.1,1.1-2.3,2.1-3.6,2.9c-1.3,0.8-2.8,1.4-4.3,1.9c-1.5,0.4-3.2,0.7-4.8,0.7h-14.1v-6.6h2.9v-23.4h-2.9V303.2
				z M311.7,309.9v23.4h3.1c1.3,0,2.5-0.3,3.7-0.9c1.2-0.6,2.2-1.5,3-2.5c0.9-1.1,1.5-2.3,2-3.7c0.5-1.4,0.8-3,0.8-4.6
				c0-1.6-0.3-3.2-0.8-4.6c-0.5-1.4-1.2-2.7-2-3.7s-1.9-1.9-3-2.5c-1.2-0.6-2.4-0.9-3.7-0.9H311.7z"/>
		</g>
		<g>
			<path class="st0" d="M337,303.2h29.2v12.5h-7.9v-5.2h-9.4v7.2h7.3v7h-7.3v8.5h9.4v-6.5h7.9V340H337v-6.6h3.9v-22.8H337V303.2z"/>
		</g>
		<g>
			<path class="st0" d="M370.5,333.3h3.8v-23.4h-3.8v-6.7l17.9,0c1.7,0,3.2,0.3,4.6,0.9c1.4,0.6,2.6,1.4,3.6,2.4
				c1,1,1.8,2.2,2.3,3.5c0.6,1.3,0.8,2.8,0.8,4.3c0,1.8-0.3,3.2-0.9,4.4c-0.6,1.2-1.5,2.1-2.7,2.8c1.2,0.8,2.2,1.7,2.9,2.9
				c0.7,1.1,1.1,2.5,1.1,4.2c0,1.7-0.3,3.2-0.9,4.6c-0.6,1.4-1.4,2.6-2.4,3.6c-1,1-2.2,1.8-3.5,2.4c-1.4,0.6-2.8,0.8-4.4,0.8h-18.4
				V333.3z M382.3,309.9v8.2h5.8c0.5,0,0.9-0.1,1.3-0.3c0.4-0.2,0.8-0.5,1.1-0.9c0.3-0.4,0.5-0.8,0.7-1.3c0.2-0.5,0.3-1,0.3-1.5
				c0-0.5-0.1-1-0.3-1.5c-0.2-0.5-0.4-1-0.7-1.4c-0.3-0.4-0.7-0.7-1.1-1c-0.4-0.3-0.8-0.4-1.3-0.4H382.3z M382.3,324.8v8.6h6.1
				c0.5,0,0.9-0.1,1.3-0.4c0.4-0.2,0.8-0.6,1.1-1c0.3-0.4,0.5-0.9,0.7-1.4c0.2-0.5,0.3-1.1,0.3-1.6c0-0.6-0.1-1.2-0.3-1.7
				c-0.2-0.5-0.4-1-0.7-1.3c-0.3-0.4-0.7-0.7-1.1-0.9c-0.4-0.2-0.8-0.3-1.3-0.3H382.3z"/>
		</g>
		<g>
			<path class="st0" d="M420.7,340.6c-1.7,0-3.3-0.2-4.8-0.7s-2.9-1.1-4.3-1.9s-2.5-1.8-3.6-3c-1.1-1.2-2-2.4-2.8-3.9
				c-0.8-1.4-1.3-2.9-1.8-4.5c-0.4-1.6-0.6-3.3-0.6-5.1c0-1.8,0.2-3.5,0.6-5.1c0.4-1.6,1-3.1,1.8-4.6c0.8-1.4,1.7-2.7,2.8-3.9
				c1.1-1.2,2.3-2.1,3.6-3c1.3-0.8,2.7-1.5,4.3-1.9c1.5-0.5,3.1-0.7,4.8-0.7c1.7,0,3.3,0.2,4.8,0.7c1.5,0.5,2.9,1.1,4.3,1.9
				c1.3,0.8,2.5,1.8,3.6,3c1.1,1.2,2,2.4,2.8,3.9c0.8,1.4,1.4,2.9,1.8,4.6c0.4,1.6,0.6,3.3,0.6,5.1c0,1.7-0.2,3.4-0.6,5.1
				c-0.4,1.6-1,3.1-1.8,4.6c-0.8,1.4-1.7,2.7-2.8,3.9c-1.1,1.2-2.3,2.1-3.6,3c-1.3,0.8-2.7,1.5-4.3,1.9
				C423.9,340.4,422.3,340.6,420.7,340.6z M420.7,333c1.4,0,2.7-0.3,3.9-0.9c1.2-0.6,2.2-1.4,3-2.5c0.8-1,1.5-2.3,2-3.6
				c0.5-1.4,0.7-2.8,0.7-4.4c0-1.6-0.2-3-0.7-4.4c-0.5-1.4-1.1-2.6-2-3.6c-0.8-1-1.9-1.9-3-2.5c-1.2-0.6-2.4-0.9-3.8-0.9
				c-1.4,0-2.7,0.3-3.8,0.9c-1.2,0.6-2.2,1.4-3,2.5c-0.8,1-1.5,2.3-2,3.6c-0.5,1.4-0.7,2.9-0.7,4.4c0,1.6,0.2,3,0.7,4.4
				c0.5,1.4,1.1,2.6,2,3.6c0.8,1,1.8,1.9,3,2.5C418,332.7,419.3,333,420.7,333z"/>
		</g>
		<g>
			<path class="st0" d="M228.2,392.9h3.7l-1.6-5.3H219l-1.6,5.3h3.9v6.6h-13.9v-6.6h2.7l10-30.1h9.7l9.8,30.1h2.7v6.6h-13.9V392.9z
				 M220.9,381.4h7.4l-3.7-11.9L220.9,381.4z"/>
		</g>
		<g>
			<path class="st0" d="M254.7,362.8h14.1c1.7,0,3.3,0.2,4.8,0.7c1.5,0.4,3,1,4.3,1.8s2.5,1.7,3.6,2.8c1.1,1.1,2,2.3,2.8,3.7
				c0.8,1.4,1.4,2.8,1.8,4.4c0.4,1.6,0.6,3.2,0.6,4.9c0,1.7-0.2,3.3-0.6,4.9c-0.4,1.6-1,3-1.8,4.4c-0.8,1.4-1.7,2.6-2.8,3.7
				s-2.3,2.1-3.6,2.9c-1.3,0.8-2.8,1.4-4.3,1.9c-1.5,0.4-3.2,0.7-4.8,0.7h-14.1v-6.6h2.9v-23.4h-2.9V362.8z M265.6,369.4v23.4h3.1
				c1.3,0,2.5-0.3,3.7-0.9c1.2-0.6,2.2-1.5,3-2.5c0.9-1.1,1.5-2.3,2-3.7s0.8-3,0.8-4.6c0-1.6-0.3-3.2-0.8-4.6
				c-0.5-1.4-1.2-2.7-2-3.7c-0.9-1-1.9-1.9-3-2.5c-1.2-0.6-2.4-0.9-3.7-0.9H265.6z"/>
		</g>
		<g>
			<path class="st0" d="M291,362.8h15.7v6.6h-3.9v23.5h3.9v6.6H291v-6.6h3.8v-23.5H291V362.8z"/>
		</g>
		<g>
			<path class="st0" d="M327.2,400.2c-1.7,0-3.3-0.2-4.8-0.7s-2.9-1.1-4.3-1.9c-1.3-0.8-2.5-1.8-3.6-3c-1.1-1.2-2-2.4-2.8-3.9
				c-0.8-1.4-1.3-2.9-1.8-4.5c-0.4-1.6-0.6-3.3-0.6-5.1c0-1.8,0.2-3.5,0.6-5.1c0.4-1.6,1-3.1,1.8-4.6c0.8-1.4,1.7-2.7,2.8-3.9
				c1.1-1.2,2.3-2.1,3.6-3c1.3-0.8,2.7-1.5,4.3-1.9s3.1-0.7,4.8-0.7c1.7,0,3.3,0.2,4.8,0.7s2.9,1.1,4.3,1.9c1.3,0.8,2.5,1.8,3.6,3
				c1.1,1.2,2,2.4,2.8,3.9c0.8,1.4,1.4,2.9,1.8,4.6c0.4,1.6,0.6,3.3,0.6,5.1c0,1.7-0.2,3.4-0.6,5.1c-0.4,1.6-1,3.1-1.8,4.6
				c-0.8,1.4-1.7,2.7-2.8,3.9c-1.1,1.2-2.3,2.1-3.6,3c-1.3,0.8-2.7,1.5-4.3,1.9S328.9,400.2,327.2,400.2z M327.2,392.6
				c1.4,0,2.7-0.3,3.9-0.9c1.2-0.6,2.2-1.4,3-2.5c0.8-1,1.5-2.3,2-3.6c0.5-1.4,0.7-2.8,0.7-4.4c0-1.6-0.2-3-0.7-4.4
				c-0.5-1.4-1.1-2.6-2-3.6c-0.8-1-1.9-1.9-3-2.5c-1.2-0.6-2.4-0.9-3.8-0.9s-2.7,0.3-3.8,0.9c-1.2,0.6-2.2,1.4-3,2.5
				c-0.8,1-1.5,2.3-2,3.6c-0.5,1.4-0.7,2.9-0.7,4.4c0,1.6,0.2,3,0.7,4.4c0.5,1.4,1.1,2.6,2,3.6c0.8,1,1.8,1.9,3,2.5
				C324.6,392.3,325.8,392.6,327.2,392.6z"/>
		</g>
		<g>
			<path class="st0" d="M367.5,373.1c-0.1-0.6-0.3-1.1-0.6-1.6c-0.3-0.5-0.7-0.9-1.2-1.3c-0.5-0.4-1.1-0.7-1.7-0.9
				c-0.6-0.2-1.3-0.3-2-0.3c-0.6,0-1.2,0.1-1.7,0.2c-0.5,0.1-1,0.3-1.4,0.6c-0.4,0.3-0.7,0.6-0.9,1s-0.4,0.9-0.4,1.5
				c0,0.7,0.2,1.3,0.5,1.7c0.3,0.4,0.7,0.8,1.2,1.1c0.5,0.3,1,0.5,1.6,0.7c0.6,0.2,1.2,0.3,1.7,0.5l6.7,2.2c0.9,0.3,1.8,0.8,2.6,1.3
				c0.8,0.6,1.5,1.3,2.1,2.1c0.6,0.8,1.1,1.7,1.4,2.8c0.3,1,0.5,2.2,0.5,3.5c0,1.8-0.3,3.4-1,4.9c-0.7,1.5-1.6,2.7-2.8,3.8
				c-1.2,1.1-2.6,1.9-4.2,2.4c-1.6,0.6-3.5,0.9-5.5,0.9c-1.4,0-2.7-0.2-4-0.5c-1.3-0.3-2.4-0.8-3.4-1.4c-1-0.6-1.9-1.3-2.7-2.1
				c-0.8-0.8-1.4-1.8-1.8-2.8h-2.5v-7.3h8.8v1.5c0,0.7,0.1,1.4,0.4,2c0.2,0.6,0.6,1.1,1.1,1.6s1.1,0.8,1.8,1.1
				c0.7,0.3,1.5,0.4,2.5,0.4c1.5,0,2.6-0.3,3.3-1c0.8-0.7,1.1-1.6,1.1-2.8c0-0.6-0.1-1.1-0.4-1.5c-0.3-0.4-0.6-0.8-1-1
				c-0.4-0.3-0.9-0.5-1.4-0.7c-0.5-0.2-1-0.4-1.5-0.5l-5.5-1.8c-1.1-0.3-2.1-0.8-3-1.4c-1-0.6-1.8-1.3-2.6-2.2
				c-0.8-0.9-1.3-1.9-1.8-3.1c-0.4-1.2-0.7-2.5-0.7-4c0-1.7,0.3-3.3,1-4.7c0.6-1.4,1.6-2.5,2.7-3.5s2.5-1.6,4.1-2.1
				c1.6-0.5,3.4-0.7,5.3-0.7c1.5,0,2.9,0.2,4.2,0.5s2.4,0.8,3.4,1.4c1,0.6,1.9,1.2,2.6,2c0.7,0.8,1.2,1.5,1.6,2.3h2.4v7.3h-8.8
				V373.1z"/>
		</g>
	</g>
	<g>
		<g>
			<path class="st0" d="M134.7,154.6H156v9h-4.2l6.6,11.4l7-11.4h-4.7v-9H182v9h-3.7l-14.8,20v11.6h6v9h-22.1v-9h5.5v-11.7
				l-13.9-19.9h-4.4V154.6z"/>
		</g>
		<g>
			<path class="st0" d="M209.1,195.2h5.1v-32h-6v6.4h-10.7v-15.1h45.1v15.1h-10.7v-6.4h-6.8v32h5.2v9h-21.2V195.2z"/>
		</g>
		<g>
			<path class="st0" d="M247.3,154.6h39.5v16.9h-10.7v-7h-12.7v9.8h9.8v9.5h-9.8v11.5h12.7v-8.8h10.7v17.8h-39.5v-9h5.2v-30.8h-5.2
				V154.6z"/>
		</g>
		<g>
			<path class="st0" d="M323.8,154.6h18.8v9h-4v40.6h-10.9l-20.6-32.1v23.1h4.2v9h-18.8v-9h4.1v-31.6h-4v-9h15l20.5,32.5v-23.5h-4.2
				V154.6z"/>
		</g>
		<g>
			<path class="st0" d="M384,204.2v-8.5c-1.4,2.4-2.7,4.1-4,5.2c-1.3,1.1-2.7,2-4.4,2.7c-1.6,0.7-3.8,1-6.5,1
				c-1.4,0-2.7-0.2-4.1-0.5c-1.4-0.3-2.7-0.7-3.9-1.2c-1.3-0.5-2.5-1.2-3.7-1.9s-2.3-1.6-3.3-2.6c-2.4-2.4-4.3-5.3-5.6-8.5
				c-1.3-3.2-2-6.7-2-10.5c0-2.3,0.3-4.6,0.9-6.8c0.6-2.2,1.4-4.2,2.4-6.1c1-1.9,2.3-3.6,3.7-5.2c1.5-1.6,3.1-2.9,4.8-4
				c1.8-1.1,3.7-2,5.7-2.6c2.1-0.6,4.2-0.9,6.4-0.9c2.6,0,4.8,0.3,6.7,1c1.9,0.7,3.9,2,6.1,3.8h7.3v11.1h-10.1
				c-1-1.5-1.9-2.7-2.8-3.4c-0.9-0.7-1.8-1.3-2.9-1.7c-1-0.5-2.5-0.7-4.3-0.7c-1.8,0-3.5,0.4-5.1,1.2c-1.6,0.8-2.9,1.9-4.1,3.4
				c-1.1,1.4-2,3.1-2.7,5c-0.7,1.9-1,3.9-1,5.9c0,2,0.3,3.9,0.9,5.7c0.6,1.8,1.5,3.4,2.7,4.8c1.2,1.4,2.6,2.5,4.2,3.3
				c1.6,0.8,3.3,1.1,5.1,1.1c2.3,0,4.3-0.7,6.1-2s3-3.2,3.7-5.5h-9.5v-9h23v26.5H384z"/>
		</g>
		<g>
			<path class="st0" d="M424,205.1c-2.2,0-4.4-0.3-6.4-0.9c-2.1-0.6-4-1.5-5.7-2.6c-1.8-1.1-3.4-2.4-4.8-4c-1.5-1.6-2.7-3.3-3.7-5.2
				c-1-1.9-1.8-4-2.4-6.1c-0.6-2.2-0.9-4.5-0.9-6.8c0-2.4,0.3-4.7,0.9-6.9c0.6-2.2,1.4-4.2,2.4-6.2c1-1.9,2.3-3.6,3.7-5.2
				c1.5-1.6,3.1-2.9,4.8-4c1.8-1.1,3.7-2,5.7-2.6c2.1-0.6,4.2-0.9,6.4-0.9c2.2,0,4.4,0.3,6.5,0.9c2.1,0.6,4,1.5,5.8,2.6
				c1.8,1.1,3.4,2.4,4.8,4c1.5,1.6,2.7,3.3,3.7,5.2c1,1.9,1.8,4,2.4,6.2c0.6,2.2,0.9,4.5,0.9,6.9c0,2.4-0.3,4.6-0.9,6.8
				c-0.6,2.2-1.4,4.2-2.4,6.2c-1,1.9-2.3,3.6-3.7,5.2c-1.5,1.6-3.1,2.9-4.8,4c-1.8,1.1-3.7,2-5.8,2.6
				C428.4,204.8,426.3,205.1,424,205.1z M424,194.8c1.9,0,3.6-0.4,5.2-1.2c1.6-0.8,2.9-1.9,4.1-3.3c1.1-1.4,2-3,2.6-4.9
				c0.6-1.9,0.9-3.8,0.9-5.9c0-2.1-0.3-4.1-0.9-6c-0.6-1.9-1.5-3.5-2.7-4.9c-1.1-1.4-2.5-2.5-4.1-3.3c-1.6-0.8-3.3-1.2-5.2-1.2
				c-1.9,0-3.6,0.4-5.2,1.2c-1.6,0.8-2.9,1.9-4.1,3.3c-1.1,1.4-2,3-2.7,4.9c-0.6,1.9-1,3.9-1,6c0,2.1,0.3,4.1,1,5.9
				c0.6,1.9,1.5,3.5,2.7,4.9c1.1,1.4,2.5,2.5,4.1,3.3C420.4,194.4,422.2,194.8,424,194.8z"/>
		</g>
	</g>
	<g>
		<g>
			<path class="st0" d="M117.8,256.1c2.8-1.4,5.5-3.1,8.3-4.6c1.2-0.7,2.5-1.3,3.5-2.6c-1.7-0.4-3.1-0.6-4.1,0.5
				c-2.2,2.4-5.1,3-8.4,3.7c-5.4-2.8-11.6-4.8-17.1-8.1c0.8-1.6,1.9-1.6,3-1.6c1.7,0,3.3-0.3,4.8-1.1c3.5-1.7,7.3-2.7,11.2-2.8
				c0,0,0,0,0,0.1c0,0,0,0,0,0c0,0.3,0.2,0.7,0.3,0.6c0.7-0.6,0-0.5-0.3-0.6c0,0,0-0.1,0-0.1c0,0-0.1,0-0.1,0c-2.2-3-6.1-4-8.5-6.7
				c0.3-1.1,0.9-1.6,1.7-1.3c1,0.4,1.8,1.1,2.7,1.6c6.5,4.2,13.1,8.3,20.5,10.8c0,0,0,0.1,0,0.1c0,0,0.1,0.1,0.1,0.1
				c0,0.5,0.2,0.8,0.7,1c0.2,0.6,0.6,0.8,1.3,0.5c0.2-0.8-0.5-0.7-0.9-0.9c-0.2-0.5-0.5-0.7-1-0.7l-0.1-0.1c0,0-0.1,0-0.1,0
				c-0.3-1.1-1.3-1.4-2.1-2.1c-5.9-4.7-11.9-9.3-17.6-13.9c0.1-1.6,0.8-2.1,2.2-2c7.9,7.3,17,13.6,26.9,19.9c0.2,0,1.2,0.4,2.3-0.6
				c-7.5-5.5-14.9-10.9-22.3-16.4c-0.2-1.1-0.5-2.3,1-3.4c8.7,7.2,17.5,14.3,27.2,20.1c1.2,0.3,2.7,0.7,4.2-0.2
				c-3.1-4-7.1-6.6-10.5-9.8c-3.4-3.2-7.7-5.6-10-10c1.8-1.4,2.8-0.5,3.8,0.5c7.1,6.9,15,12.7,22.4,19.3c0.7,0.7,1.6,0.8,2.6-0.1
				c-6.3-6.4-14.1-11.3-19.6-18.3c0.8-1.5,1.8-1.4,2.5-0.9c1.2,0.9,2.4,1.9,3.4,3c3.1,3.1,6.4,6,9.8,8.9c3.2,2.7,7.3,4.4,10,7.8
				c0.3,0.4,1.4,0.5,1.8-0.6c-5.9-6.9-13.5-12-19.6-18.2c0.4-1.4,0.8-1.9,2-1.9c2.4,1.4,4.1,4.2,6.9,5.4c3.7,4.2,8.2,7.5,12.5,11.1
				c1.5,1.3,3.2,2.3,3.5,4.2c1.5,0.7,2.8,1,4.1,0.6c0.4-0.5,0.2-0.9-0.1-1.2c-1.5-1.3-2.9-2.6-4.5-3.7c-5.1-3.7-9.7-8.1-15.1-11.5
				c0.1-1.6-2.5-1.9-1.7-3.9c1.7-1,2.6,0.4,3.5,1.2c7.3,6.6,15.7,11.9,23.5,18c1,0.8,2,0.8,3.3,0.1c-4.1-3-8.1-5.8-11.8-8.8
				c-3.6-3-8.3-4.8-10-9.9c9,7,19,12.3,28.7,19.2c0.7,0,2.1,0,3.5,0c9.6,0,19.1-0.6,28.7-0.7c17.5-0.3,34.9-0.4,52.4,0.4
				c15.9,0.8,31.9,0.6,47.9,1.1c17.8,0.5,35.6,0.2,53.4,0.2c1,0,2.1,0.2,3.3-0.8c0.9-0.9,0.6-3.2,2.8-3.3c2.2,0.4,1.6,2.7,2.8,3.9
				c2.5,0.1,5.1,0.1,7.4-1c0.8-1.7-0.4-3.6,1-5.1c0.3-0.1,0.7-0.3,1.1-0.4c0.7-0.1,1.1,0.3,1.4,0.6c1.1,1.6-0.2,3.6,1.3,5.1
				c3.3-0.4,6.8,1.4,10.8,0.4c-4.3-5.3-7.7-10.6-11.1-16c-1-1.6-2-3.1-1-5.2c1.4-0.3,2.9-0.3,4.4,0.1c4,1.2,8.1,2.2,12.2,3.5
				c13.4,4.2,26.7,8.4,40,12.8c7,2.3,14.2,4.1,20.9,7.2c0.7,0.3,1.3,0.7,1.1,2c-1.9,0.7-4,1.6-6.1,2.1c-6.5,1.4-12.9,3.3-19.2,5.4
				c-10.8,3.6-21.2,7.9-31.6,12.5c-6.4,2.8-12.8,6-19.6,7.6c-2.2-1.7-1.6-3.5-1-5.5c1.9-6.1,5.2-11.6,8.1-17.2
				c0.7-1.4,2-2.7,1.5-4.6c-3.1-1.1-6.1-1-9.1-0.4c-1,2.1,0.5,4.5-1.6,6.4c-2.7-1.6-2.5-4.7-3.8-6.8c-2.5,0-4.8,0-7.1,0
				c-1,1.4-1.1,3.7-3.4,3.5c-1.3-0.8-1.3-2.5-2.5-3.3c-2.7,0.2-5.4,0.6-8.1,0.6c-11.4,0-22.7,0.3-34.2-0.5
				c-10.3-0.7-20.6-1.4-30.9-1.2c-10,0.2-20.1,0.5-30.1-0.7c-4.1-0.5-8.2,0.5-12.3,0.2c-7.3-0.5-14.6-0.3-21.9-0.4
				c-2.4,0-4.9,0-7.3-0.3c-3.8-0.6-7.6-0.8-11.4-0.3c-8.5,1-17,0.6-25.5,0.8c-3.4,0.1-6.1,1.1-8.9,2.7c-8.4,5-15.3,11.8-22,18.9
				c-0.4,0.4-0.9,0.8-1.5,0.7c-0.8-0.3-1.3-0.8-1.2-2.3c1.5-1.5,3.3-3.3,5.2-5.1c4.5-4.4,9.1-8.8,13.7-13.1c0.1,0,0.1,0,0.2,0
				c0,0,0.1-0.1,0.1-0.1l0,0c0.4-0.1,0.7-0.3,0.7-0.8c0,0,0.1,0,0.1,0c0.1-0.1,0.2-0.2,0.3-0.3c-0.1,0-0.3,0.1-0.4,0.1
				c0,0.1,0,0.1,0,0.1c-0.5,0-0.8,0.3-0.8,0.7l0,0l-0.1,0.1c0,0,0,0-0.1,0.1c-0.9-0.2-1.6,0.4-2.3,0.9c-7.6,5-15.1,10.1-22.1,15.9
				c-0.9,0.7-1.7,1.9-3.2,1.4c-0.8-0.7-0.8-1.6-0.2-2.4c0.8-0.9,1.7-1.8,2.6-2.5c4.8-3.6,9.7-7.2,14.6-10.9c1.2-0.9,2.7-1.5,3.1-3.3
				c-1.4-0.2-2.7-0.4-4.1,0.2c-7.6,6-15.2,12-22.8,18c-1,0.8-1.9,2.1-3.6,1.3c-0.6-1.8,0.8-3.1,0.9-4.2c6.6-5.2,13.7-9.3,19.8-14.9
				c-2.7-1.2-4.2-0.1-5.8,1.2c-7.6,6.1-15.3,11.9-23.9,16.5c-0.9,0.5-1.7,1.4-3,0.3c0-2.2,1.3-3.6,3.3-4.6c6.3-3.3,12.3-7.1,18-11.3
				c0.8-0.6,1.9-0.9,1.9-2.4c-3.3-0.7-5.5,1.3-7.7,3.1c-6.8,5.7-14.5,9.9-22,14.5c-0.2,0.1-0.5,0-0.9,0c-0.5-0.3-0.8-0.8-0.7-1.6
				c1.9-2.1,4.1-3.8,6.9-5.2c5.4-2.7,10.2-6.2,15.1-10.4c-1.8-0.5-3.1-0.8-4.3-1.1c-8.6,7.8-21.2,16.2-25.5,17
				c-0.9-0.6-1.2-1.6-1.6-2.5c0,0,0,0,0.1,0c0.1-0.1,0.1-0.1,0.2-0.2c0.3-0.1,0.4-0.3,0.5-0.6c0,0,0.1-0.1,0.1-0.1
				c0,0,0.1-0.1,0.1-0.1c0.9,0.3,1.6,0,2.4-0.4c5.6-3.4,10.9-7.1,16-11c0.6-0.5,1.2-0.9,1.4-1.8c-0.8-0.7-1.7-0.7-2.4-0.1
				c-5.4,4.4-11.2,8.1-16.8,12.3c-0.3,0.2-0.4,0.7-0.6,1c0,0-0.1,0-0.1,0c0,0.1,0,0.2-0.1,0.2c-0.3,0.3-0.6,0.5-0.9,0.7
				c0,0,0,0.1,0,0.1c-2,0.1-2.5,3.6-5,2.4c-0.5-1-0.1-1.7,0.5-2.2c2-1.8,3.9-3.7,6.1-5.3c2.4-1.7,5-3.3,6.8-5.8c1-0.4,1.8-1,2.3-1.9
				c0.1,0,0.1,0,0.2,0c0.3-0.3,0.7-0.7,1-1c0.1-0.1,0.1-0.2,0.2-0.3c-0.1,0.1-0.2,0.1-0.3,0.2c-0.3,0.3-0.7,0.7-1,1
				c0,0.1-0.1,0.1-0.1,0.1c-1,0.2-2.1,0.5-2.7,1.5c-5.3,2.3-10.2,5.2-14.9,8.6c-1.1,0.8-2.1,2.4-4.1,0.7
				C114,259.3,115.4,257.3,117.8,256.1z M111.6,244.7c3.4,0.8,6.2,0.5,9.6,0.1C117.8,241.9,115,243.3,111.6,244.7z M110.3,247.2
				c5.3,4.3,8,4.5,11.7,1.2C119.8,247.7,113,246.9,110.3,247.2z M124.6,243.2C124.6,243.2,124.6,243.2,124.6,243.2
				c-0.1-0.1-0.1-0.1-0.2-0.1c-0.1-0.2-0.2-0.4-0.3-0.6c-0.5,0.6,0,0.5,0.3,0.6c0,0,0,0.1,0.1,0.1
				C124.5,243.2,124.6,243.2,124.6,243.2c0.1,1,0.7,1.8,1.4,2.5c1,0.3,2,0.4,3.4-0.2C127.9,244.3,126.5,243.2,124.6,243.2z
				 M407.8,274.2c4.7-0.2,7.8-2.8,11.3-4.3c3.6-1.6,7-3.6,10.6-5.2c3.6-1.6,7.1-3.3,10.9-4.3c3.6-1,7.1-2.3,10.8-3.2
				c3.8-0.9,7.4-2.6,11.1-3.8c3.7-1.1,7.5-1.8,11.7-4.1c-21.7-9.2-43.7-15-66.2-22.1c1.5,4.6,4.2,7.3,6.2,10.6c2,3.2,4,6.4,6,9.6
				c5.1,0.8,10.3,1.2,15.1,3.4c-0.4,0.5-0.6,0.9-1,1.2c-0.6,0.4-1.3,0.7-2.1,1.2c-3.7-1.2-7.8-0.6-11.4-1.6
				c-1.7,0.8-2.1,1.8-2.4,2.8C416,261.3,411.1,267,407.8,274.2z"/>
		</g>
		<g>
			<path class="st0" d="M124.4,262.5C124.4,262.5,124.4,262.5,124.4,262.5c-0.2,0.2-0.4,0.4-0.6,0.6c0,0,0,0,0,0
				C124,262.9,124.2,262.7,124.4,262.5z"/>
		</g>
		<g>
			<path class="st0" d="M124.6,262.3C124.6,262.3,124.6,262.3,124.6,262.3C124.6,262.3,124.6,262.3,124.6,262.3
				C124.6,262.3,124.6,262.3,124.6,262.3z"/>
		</g>
		<g>
			<path class="st0" d="M166.4,233.3c1.7,1.3,3.4,2.7,5,4.1C169.7,236.1,168,234.8,166.4,233.3z"/>
		</g>
		<g>
			<path class="st0" d="M171.4,237.4c2.2,1.7,4.4,3.3,6.1,5C175.5,240.9,173.5,239.2,171.4,237.4z"/>
		</g>
		<g>
			<path class="st0" d="M166.4,233.3c-1.2-0.9-2.4-1.8-3.7-2.7c0.2-0.2,0.3-0.3,0.5-0.5C164.2,231.2,165.3,232.3,166.4,233.3z"/>
		</g>
		<g>
			<path class="st0" d="M126.2,261.3c-0.4,0.2-0.8,0.5-1.2,0.7c0,0,0,0,0,0C125.4,261.8,125.8,261.6,126.2,261.3z"/>
		</g>
		<g>
			<polygon class="st0" points="125,262 125,262 125,262 			"/>
		</g>
		<g>
			<path class="st0" d="M126.2,261.3c4.3-2.5,8.2-5.7,12.4-8.3C134.3,255.6,130.5,258.9,126.2,261.3z"/>
		</g>
		<g>
			<path class="st0" d="M125,262c-0.1,0.1-0.2,0.2-0.3,0.3c0,0,0,0,0,0C124.7,262.2,124.9,262.1,125,262z"/>
		</g>
		<g>
			<path class="st0" d="M132,252.1c0,0,0.1-0.3,0.1-0.3c0,0,0.2,0.2,0.2,0.2c0,0-0.3,0.2-0.3,0.2c0,0,0,0.3,0,0.3
				c-0.1-0.1-0.2-0.3-0.4-0.4C131.7,252.1,132,252.1,132,252.1z"/>
		</g>
		<g>
			<path class="st0" d="M135.5,244.1C135.5,244.1,135.5,244.1,135.5,244.1L135.5,244.1C135.5,244.1,135.5,244.1,135.5,244.1z"/>
		</g>
		<g>
			<path class="st0" d="M135.6,244.1L135.6,244.1l-0.1,0.1c0,0,0,0,0,0c0,0,0-0.1,0-0.1C135.6,244.1,135.6,244.1,135.6,244.1z"/>
		</g>
		<g>
			<path class="st0" d="M123.8,263.1c-0.1,0.1-0.1,0.1-0.2,0.2l-0.1-0.1C123.7,263.2,123.7,263.1,123.8,263.1z"/>
		</g>
		<g>
			<path class="st0" d="M124.4,262.5c0.1-0.1,0.1-0.1,0.2-0.2c0,0,0,0,0,0c0,0,0,0-0.1,0.1C124.5,262.4,124.5,262.5,124.4,262.5
				C124.4,262.5,124.4,262.5,124.4,262.5z"/>
		</g>
		<g>
			<path class="st0" d="M191.2,250.4c0,0,0,0.1,0,0.1L191.2,250.4C191.1,250.5,191.2,250.4,191.2,250.4z"/>
		</g>
		<g>
			<path class="st0" d="M191.2,250.3L191.2,250.3C191.2,250.4,191.2,250.4,191.2,250.3C191.2,250.4,191.2,250.4,191.2,250.3z"/>
		</g>
	</g>
	<g>
		<g>
			<path class="st0" d="M228.6,431.5c-0.2,1-0.3,1.7-0.6,2.4c-0.2,0.4-0.7,1-1.1,1c-0.4,0-1-0.5-1.2-0.9c-0.3-0.6-0.5-1.4-0.7-2.2
				c-1.7,0-3.4,0-5.3,0c-0.2,0.9-0.5,1.8-0.8,2.8c-0.3,1.1-1.3,1.4-2,0.5c-0.7-0.9-1.1-2.1-1.7-3.2c-1.2,0-2.6,0-4.1,0
				c-0.1,0.8-0.2,1.5-0.4,2.1c-0.2,0.8-0.6,1.6-1.6,1.6c-1,0-1.4-0.8-1.6-1.5c-0.2-0.6-0.3-1.3-0.4-2.1c-2.5,0-5.1,0-7.7,0
				c0.1,1.1,0.1,2.2,0.1,3.2c0.1,1.9-0.5,2.5-2.4,2.3c-1-0.1-2.1-0.5-3-1c-1.8-1-3.6-2.1-5.2-3.2c-1.8-1.2-2-2.8-0.4-4.2
				c2.2-2,4.5-4,6.9-5.8c1.8-1.4,2.9-0.9,3.4,1.4c0.2,1.2,0.3,2.3,0.5,3.5c1.5,0.4,6.3,0.4,8.3-0.1c0.1-0.7,0.2-1.5,0.3-2.3
				c0.1-0.7,0.3-1.6,1.2-1.6c0.9-0.1,1.4,0.5,1.7,1.3c0.3,0.9,0.4,1.8,0.7,2.8c1.3,0,2.6,0,4,0c0.2-0.9,0.4-1.7,0.7-2.5
				c0.2-0.7,0.6-1.3,1.4-1.3c0.9,0,1.3,0.6,1.6,1.3c0.3,0.8,0.4,1.6,0.6,2.4c1.6,0,3.2,0,4.9,0c0.1-0.5,0.2-0.9,0.3-1.3
				c0.2-0.7,0.4-1.4,0.7-2.1c0.3-0.6,0.8-1.2,1.4-0.9c0.4,0.2,0.8,0.7,1,1.2c0.2,0.9,0.3,1.9,0.5,3.1c0.9,0,1.6,0,2.3,0
				c8.8,0,17.7,0,26.5,0c1.9,0,3.8,0.2,5.8,0.4c0.6,0.1,1.2,0.5,1.7,0.7c-0.1,1.2-0.9,1.4-1.6,1.5c-2.8,0.2-5.6,0.5-8.4,0.6
				c-7.3,0.1-14.7,0.2-22,0.3C231.4,431.5,230.1,431.5,228.6,431.5z"/>
		</g>
		<g>
			<path class="st0" d="M383.6,428.3c0.2-1.5,0.3-2.8,0.6-4c0.4-1.9,1.5-2.5,3.1-1.3c2.5,1.9,4.9,4,7.3,6.1c1.3,1.2,1.2,2.7-0.2,3.7
				c-2.3,1.5-4.7,2.8-7,4.2c-0.2,0.1-0.3,0.1-0.5,0.2c-2.7,0.7-3.6,0-3.4-2.8c0-0.8,0.1-1.6,0.2-2.6c-2.7-0.1-5.2-0.1-7.8-0.1
				c-0.2,0.8-0.2,1.5-0.4,2.1c-0.3,1.1-1,1.7-1.8,1.6c-1-0.1-1.3-0.8-1.5-1.6c-0.2-0.6-0.2-1.2-0.3-2c-1.4,0-2.8,0-4.3,0
				c-0.2,0.5-0.3,1.1-0.6,1.7c-0.3,0.6-0.6,1.2-1.1,1.7c-0.7,0.7-1.5,0.4-1.8-0.6c-0.3-0.9-0.5-1.9-0.8-2.9c-1.8,0-3.5,0-5.3,0
				c-0.2,0.8-0.5,1.5-0.7,2.2c-0.2,0.6-0.6,1.2-1.3,1.1c-0.4-0.1-0.9-0.7-1.1-1.1c-0.3-0.6-0.3-1.3-0.5-2.2c-0.8,0-1.5-0.1-2.2-0.1
				c-7.8-0.1-15.7-0.2-23.5-0.3c-2.4,0-4.7-0.2-7.1-0.3c-0.7,0-1.4-0.1-2-0.3c-0.5-0.2-1-0.6-1.4-0.8c0.4-1.1,1.1-1.3,1.9-1.3
				c1.9-0.2,3.7-0.4,5.6-0.4c8.8,0,17.7,0,26.5,0c0.7,0,1.5,0,2.4,0c0.1-0.7,0.2-1.3,0.3-1.9c0.1-0.5,0.1-1.1,0.3-1.6
				c0.4-1,1.3-1.2,2-0.3c0.4,0.6,0.6,1.3,0.9,2c0.2,0.5,0.2,1.1,0.3,1.7c1.7,0,3.3,0,5,0c0.2-0.8,0.3-1.5,0.6-2.3
				c0.2-0.7,0.6-1.4,1.5-1.4c0.9,0,1.3,0.6,1.6,1.4c0.3,0.8,0.4,1.6,0.6,2.4c1.3,0,2.6,0,4,0c0.1-0.5,0.2-1,0.3-1.6
				c0.1-0.5,0.2-1.2,0.6-1.5c0.4-0.4,1-0.8,1.5-0.9c0.7-0.1,1,0.7,1.1,1.3c0.1,0.2,0.1,0.5,0.1,0.7c0.3,2.1,0.3,2.2,2.5,2.2
				C379.5,428.3,381.5,428.3,383.6,428.3z"/>
		</g>
		<g>
			<path class="st0" d="M290.3,415.4c0.6,0,1.4,0,2,0c1.2,1.5,2.3,2.8,3.5,4.1c1.7,2,3.5,3.9,5.2,5.8c0.5,0.6,0.9,1.2,1.2,1.9
				c0.8,1.6,0.5,2.7-1,3.7c-2.8,2-5.6,3.9-8.4,5.8c-0.7,0.5-2.4,0.3-3.2-0.2c-2.4-1.7-4.9-3.4-7.3-5.1c-0.4-0.2-0.8-0.4-1.1-0.7
				c-1.1-0.9-1.5-2-0.8-3.3c0.4-0.9,1-1.7,1.7-2.5c2.1-2.3,4.2-4.6,6.3-6.9C289,417.3,289.5,416.4,290.3,415.4z M291.4,419.4
				c-2.5,2.9-4.9,5.6-7.4,8.4c2.3,1.6,4.4,3.1,6.5,4.7c0.9,0.6,1.5,0.2,2.2-0.3c1.7-1.2,3.3-2.4,5-3.6c0.3-0.2,0.6-0.5,1-0.9
				C296.2,424.9,293.9,422.2,291.4,419.4z"/>
		</g>
		<g>
			<path class="st0" d="M311.3,429.8c-2.3-2.3-4.5-4.3-6.6-6.3c-2-2-4-4-5.9-5.9c-0.2-0.2-0.5-0.5-0.6-0.7c-0.1-0.3-0.1-0.8,0-1
				c0.2-0.2,0.7-0.4,1-0.3c0.5,0.1,1.1,0.3,1.6,0.6c1,0.7,2.1,1.3,3,2.2c3,2.9,6,5.8,9,8.7c2.8,2.7,2.6,4.2-0.6,6.3
				c-2.6,1.7-5.3,3.3-7.9,4.9c-0.8,0.5-1.8,0.7-2.8,0.9c-0.4,0.1-1.1-0.3-1.2-0.6c-0.1-0.4,0-1.1,0.3-1.5c0.2-0.4,0.6-0.6,1-0.8
				c2.6-1.7,5.3-3.3,7.9-5C309.9,430.7,310.5,430.3,311.3,429.8z"/>
		</g>
		<g>
			<path class="st0" d="M271.6,429.8c0.7,0.5,1.2,0.8,1.8,1.2c2.6,1.7,5.3,3.3,7.9,5c1.3,0.8,1.7,1.6,1.4,2.4
				c-0.3,0.7-1.5,0.9-2.9,0.4c-0.5-0.2-1-0.5-1.5-0.7c-2.6-1.6-5.2-3.2-7.8-4.8c-0.6-0.4-1.1-0.8-1.6-1.3c-1.1-1.1-1.1-2.3-0.2-3.5
				c0.5-0.6,1-1.2,1.6-1.8c2.9-2.8,5.7-5.6,8.6-8.3c1.1-1,2.4-1.8,3.7-2.5c0.6-0.4,1.4-0.8,2,0.1c0.4,0.7-0.2,1.3-0.7,1.8
				c-2,2-3.9,4-5.9,5.9c-1.7,1.7-3.4,3.3-5.1,4.9C272.4,428.8,272.1,429.3,271.6,429.8z"/>
		</g>
		<g>
			<path class="st0" d="M315.8,419.8c0.4-0.4,0.7-0.7,1.1-0.9c0.8-0.6,1.6-1.2,2.5-1.6c0.4-0.2,1,0,1.6,0c-0.1,0.5,0,1.2-0.3,1.5
				c-1.3,1.4-2.6,2.8-4.1,4.1c-0.8,0.7-1.8,0.5-2.4-0.4c-1.1-1.4-2.1-2.9-3.2-4.4c-0.4-0.6-0.7-1.2-0.1-1.9c0.6-0.6,1.3-0.4,1.9,0.1
				c0.7,0.6,1.3,1.3,1.9,2C315,418.7,315.3,419.2,315.8,419.8z"/>
		</g>
		<g>
			<path class="st0" d="M267.1,419.8c0.7-0.9,1.2-1.6,1.8-2.3c0.5-0.5,1.1-1,1.7-1.4c0.4-0.2,1.1-0.1,1.3,0.1c0.3,0.4,0.2,1,0.2,1.5
				c0,0.2-0.2,0.4-0.4,0.6c-0.9,1.3-1.9,2.6-2.8,3.9c-0.8,1.1-1.8,1.3-2.8,0.4c-1.2-1.1-2.4-2.3-3.6-3.5c-0.2-0.2-0.4-0.4-0.4-0.6
				c-0.1-0.4-0.3-0.9-0.1-1.2c0.1-0.2,0.8-0.3,1.1-0.2c0.5,0.1,1,0.4,1.5,0.7C265.4,418.4,266.1,419.1,267.1,419.8z"/>
		</g>
		<g>
			<path class="st0" d="M265.4,435.7c-0.9,0.7-1.6,1.4-2.3,1.9c-0.5,0.4-1.3,0.6-1.7,0c-0.2-0.3-0.1-1.1,0.2-1.5
				c0.8-1,1.7-2,2.6-2.9c0.6-0.6,1.5-0.7,2.2-0.1c1.4,1.2,2.8,2.4,4.2,3.7c0.2,0.2,0.4,0.5,0.5,0.7c0.2,0.6,0.3,1.2-0.2,1.7
				c-0.6,0.5-1.2,0.4-1.7,0c-0.4-0.3-0.8-0.7-1.2-1.1C267.1,437.3,266.3,436.6,265.4,435.7z"/>
		</g>
		<g>
			<path class="st0" d="M317.4,435.7c-0.8,0.8-1.6,1.5-2.4,2.3c-0.4,0.4-0.8,0.8-1.2,1.2c-0.6,0.5-1.3,0.6-1.9,0
				c-0.6-0.6-0.5-1.3,0-1.9c0.8-0.9,1.7-1.8,2.6-2.7c0.4-0.4,1-0.8,1.5-1.1c1.4-1.1,1.9-1.1,3.2,0.1c0.8,0.8,1.6,1.7,2.3,2.7
				c0.2,0.3,0.2,1.1,0,1.3c-0.2,0.2-1,0.3-1.3,0.1C319.2,437.2,318.5,436.5,317.4,435.7z"/>
		</g>
	</g>
	<g>
		<g>
			<path class="st0" d="M207.1,456.9h11.4v4.5h-2.2v-2.7h-5.7v5.1h5.5v1.8h-5.5v5.4h1.6v1.8h-5.2V471h1.5v-12.3h-1.5V456.9z"/>
		</g>
		<g>
			<path class="st0" d="M220.2,456.9h5.1v1.8h-1.5V471h1.5v1.8h-5.1V471h1.5v-12.3h-1.5V456.9z"/>
		</g>
		<g>
			<path class="st0" d="M228.3,456.9h5.2v1.8h-1.6V471h5.5c0.1,0,0.2,0,0.3-0.1c0.1-0.1,0.2-0.1,0.3-0.2c0.1-0.1,0.2-0.2,0.2-0.3
				c0.1-0.1,0.1-0.2,0.1-0.3v-2h2v4.7h-12V471h1.5v-12.3h-1.5V456.9z"/>
		</g>
		<g>
			<path class="st0" d="M241.9,456.9h5.1v1.8h-1.5V471h1.5v1.8h-5.1V471h1.5v-12.3h-1.5V456.9z"/>
		</g>
		<g>
			<path class="st0" d="M249.9,456.9h6.4c0.7,0,1.4,0.1,2,0.3c0.6,0.2,1.1,0.5,1.6,0.8c0.4,0.4,0.8,0.8,1,1.3
				c0.2,0.5,0.4,1.2,0.4,1.9c0,0.6-0.1,1.1-0.4,1.6c-0.2,0.5-0.6,1-1,1.3c-0.4,0.4-1,0.7-1.6,0.9c-0.6,0.2-1.3,0.3-2,0.3h-2.8v5.6
				h1.6v1.8h-5.2V471h1.5v-12.3h-1.5V456.9z M253.5,458.7v5h2.9c0.4,0,0.8-0.1,1.1-0.2c0.3-0.1,0.6-0.3,0.9-0.5
				c0.2-0.2,0.4-0.5,0.6-0.8c0.1-0.3,0.2-0.7,0.2-1.1c0-0.8-0.2-1.4-0.7-1.8c-0.5-0.4-1.2-0.7-2.3-0.7H253.5z"/>
		</g>
		<g>
			<path class="st0" d="M263.3,456.9h11.4v4.5h-2.2v-2.7h-5.7v5.1h4.8v1.8h-4.8v5.4h5.7v-2.7h2.2v4.5h-11.4V471h1.5v-12.3h-1.5
				V456.9z"/>
		</g>
		<g>
			<path class="st0" d="M286.6,456.9h5.2v1.8h-1.4v14.1h-2.7l-7.4-13.2V471h1.6v1.8h-5.2V471h1.5v-12.3h-1.5v-1.8h4.3l7.3,13.1
				l0.1-0.5v-10.7h-1.8V456.9z"/>
		</g>
		<g>
			<path class="st0" d="M301.6,459.9c-0.2-0.3-0.5-0.5-0.7-0.7c-0.3-0.2-0.6-0.3-0.9-0.4c-0.3-0.1-0.6-0.1-1-0.1
				c-0.5,0-1,0.1-1.4,0.2c-0.4,0.1-0.7,0.3-1,0.5c-0.3,0.2-0.5,0.5-0.6,0.7s-0.2,0.6-0.2,0.9c0,0.5,0.1,0.8,0.2,1.1
				c0.2,0.3,0.4,0.5,0.6,0.7c0.3,0.2,0.5,0.3,0.8,0.4c0.3,0.1,0.6,0.2,0.9,0.3l2.1,0.7c0.6,0.2,1.2,0.4,1.7,0.7
				c0.5,0.3,0.9,0.6,1.2,0.9c0.3,0.4,0.6,0.8,0.7,1.2c0.2,0.5,0.3,1,0.3,1.6c0,0.7-0.1,1.3-0.4,1.8c-0.3,0.6-0.6,1-1.1,1.5
				s-1.1,0.7-1.7,1c-0.7,0.2-1.4,0.4-2.2,0.4c-0.8,0-1.5-0.1-2.1-0.3c-0.6-0.2-1.1-0.4-1.5-0.7c-0.4-0.3-0.7-0.7-0.9-1.1
				c-0.2-0.4-0.4-0.8-0.6-1.2h-0.8v-1.8h2.6c0,0.8,0.1,1.3,0.2,1.6c0.2,0.3,0.4,0.6,0.7,0.8c0.3,0.2,0.6,0.4,1,0.5
				c0.4,0.1,0.9,0.2,1.3,0.2c0.5,0,0.9-0.1,1.3-0.2c0.4-0.1,0.7-0.3,1-0.5c0.3-0.2,0.5-0.5,0.6-0.8c0.1-0.3,0.2-0.6,0.2-1
				c0-0.4-0.1-0.8-0.3-1.1c-0.2-0.3-0.4-0.6-0.7-0.8c-0.3-0.2-0.6-0.4-0.9-0.5c-0.3-0.1-0.7-0.2-1-0.3l-2.3-0.7
				c-0.5-0.2-1-0.3-1.4-0.6c-0.4-0.2-0.8-0.5-1.1-0.9c-0.3-0.3-0.5-0.7-0.7-1.2c-0.2-0.5-0.2-1-0.2-1.6c0-0.6,0.1-1.2,0.4-1.7
				c0.2-0.5,0.6-1,1-1.4c0.5-0.4,1-0.7,1.7-0.9c0.7-0.2,1.4-0.3,2.3-0.3c0.6,0,1.1,0.1,1.6,0.2c0.5,0.1,0.9,0.3,1.3,0.6
				c0.4,0.2,0.7,0.5,1,0.9c0.3,0.3,0.5,0.7,0.7,1.1h0.8v1.8H302C302,460.6,301.8,460.2,301.6,459.9z"/>
		</g>
		<g>
			<path class="st0" d="M306.5,456.9h11.4v4.5h-2.2v-2.7h-5.7v5.1h4.8v1.8h-4.8v5.4h5.7v-2.7h2.2v4.5h-11.4V471h1.5v-12.3h-1.5
				V456.9z"/>
		</g>
		<g>
			<path class="st0" d="M327.8,459.9c-0.2-0.3-0.5-0.5-0.7-0.7c-0.3-0.2-0.6-0.3-0.9-0.4c-0.3-0.1-0.6-0.1-1-0.1
				c-0.5,0-1,0.1-1.4,0.2c-0.4,0.1-0.7,0.3-1,0.5c-0.3,0.2-0.5,0.5-0.6,0.7s-0.2,0.6-0.2,0.9c0,0.5,0.1,0.8,0.2,1.1
				c0.2,0.3,0.4,0.5,0.6,0.7c0.3,0.2,0.5,0.3,0.8,0.4c0.3,0.1,0.6,0.2,0.9,0.3l2.1,0.7c0.6,0.2,1.2,0.4,1.7,0.7
				c0.5,0.3,0.9,0.6,1.2,0.9c0.3,0.4,0.6,0.8,0.7,1.2c0.2,0.5,0.3,1,0.3,1.6c0,0.7-0.1,1.3-0.4,1.8s-0.6,1-1.1,1.5s-1.1,0.7-1.7,1
				c-0.7,0.2-1.4,0.4-2.2,0.4c-0.8,0-1.5-0.1-2.1-0.3c-0.6-0.2-1.1-0.4-1.5-0.7c-0.4-0.3-0.7-0.7-0.9-1.1c-0.2-0.4-0.4-0.8-0.6-1.2
				h-0.8v-1.8h2.6c0,0.8,0.1,1.3,0.2,1.6c0.2,0.3,0.4,0.6,0.7,0.8c0.3,0.2,0.6,0.4,1,0.5c0.4,0.1,0.9,0.2,1.3,0.2
				c0.5,0,0.9-0.1,1.3-0.2c0.4-0.1,0.7-0.3,1-0.5c0.3-0.2,0.5-0.5,0.6-0.8c0.1-0.3,0.2-0.6,0.2-1c0-0.4-0.1-0.8-0.3-1.1
				c-0.2-0.3-0.4-0.6-0.7-0.8c-0.3-0.2-0.6-0.4-0.9-0.5c-0.3-0.1-0.7-0.2-1-0.3l-2.3-0.7c-0.5-0.2-1-0.3-1.4-0.6
				c-0.4-0.2-0.8-0.5-1.1-0.9c-0.3-0.3-0.5-0.7-0.7-1.2c-0.2-0.5-0.2-1-0.2-1.6c0-0.6,0.1-1.2,0.4-1.7c0.2-0.5,0.6-1,1-1.4
				c0.5-0.4,1-0.7,1.7-0.9c0.7-0.2,1.4-0.3,2.3-0.3c0.6,0,1.1,0.1,1.6,0.2c0.5,0.1,0.9,0.3,1.3,0.6c0.4,0.2,0.7,0.5,1,0.9
				c0.3,0.3,0.5,0.7,0.7,1.1h0.8v1.8h-2.6C328.1,460.6,328,460.2,327.8,459.9z"/>
		</g>
		<g>
			<path class="st0" d="M336.8,466.6l5.7-9.7h2.2l-5.4,9.5h4.1v-2.6l2.1-0.1v2.8h2.4v1.8h-2.4v2.8h1.6v1.8h-5.2V471h1.5v-2.8h-6.6
				L336.8,466.6z"/>
		</g>
		<g>
			<path class="st0" d="M350,463.3c0-0.2,0-0.4,0.1-0.5c0.1-0.2,0.2-0.3,0.3-0.4c0.1-0.1,0.3-0.2,0.4-0.3c0.2-0.1,0.3-0.1,0.5-0.1
				c0.2,0,0.4,0,0.5,0.1c0.2,0.1,0.3,0.2,0.4,0.3c0.1,0.1,0.2,0.3,0.3,0.4c0.1,0.2,0.1,0.3,0.1,0.5c0,0.2,0,0.4-0.1,0.5
				c-0.1,0.2-0.2,0.3-0.3,0.4c-0.1,0.1-0.3,0.2-0.4,0.3c-0.2,0.1-0.3,0.1-0.5,0.1c-0.2,0-0.4,0-0.5-0.1c-0.2-0.1-0.3-0.2-0.4-0.3
				c-0.1-0.1-0.2-0.3-0.3-0.4C350,463.7,350,463.5,350,463.3z M350,471.6c0-0.2,0-0.4,0.1-0.5c0.1-0.2,0.2-0.3,0.3-0.4
				c0.1-0.1,0.3-0.2,0.4-0.3c0.2-0.1,0.3-0.1,0.5-0.1c0.2,0,0.4,0,0.5,0.1c0.2,0.1,0.3,0.2,0.4,0.3c0.1,0.1,0.2,0.3,0.3,0.4
				c0.1,0.2,0.1,0.3,0.1,0.5c0,0.2,0,0.4-0.1,0.5c-0.1,0.2-0.2,0.3-0.3,0.4c-0.1,0.1-0.3,0.2-0.4,0.3c-0.2,0.1-0.3,0.1-0.5,0.1
				c-0.2,0-0.4,0-0.5-0.1c-0.2-0.1-0.3-0.2-0.4-0.3c-0.1-0.1-0.2-0.3-0.3-0.4C350,471.9,350,471.7,350,471.6z"/>
		</g>
		<g>
			<path class="st0" d="M357,471h1.5v-11.6l-3.2,1.8V459l4.4-2.5h0.8V471h1.6v1.8H357V471z"/>
		</g>
		<g>
			<path class="st0" d="M368,472.8l3.7-6c-0.3,0.1-0.7,0.2-1,0.3c-0.3,0-0.6,0.1-0.9,0.1c-0.6,0-1.3-0.1-1.9-0.4
				c-0.7-0.2-1.2-0.6-1.7-1c-0.5-0.4-0.8-1-1.2-1.6s-0.5-1.3-0.5-1.9c0-0.9,0.2-1.7,0.5-2.4c0.3-0.7,0.7-1.3,1.2-1.8
				c0.5-0.5,1.1-0.8,1.8-1.1c0.7-0.2,1.4-0.4,2.1-0.4c0.8,0,1.5,0.1,2.1,0.4c0.7,0.3,1.2,0.6,1.7,1.1c0.5,0.5,0.9,1,1.2,1.7
				c0.3,0.7,0.4,1.4,0.4,2.2c0,0.6-0.1,1.2-0.4,1.8c-0.2,0.6-0.5,1.2-0.9,1.9l-4,7.1H368z M370.1,458.5c-0.5,0-0.9,0.1-1.4,0.3
				c-0.4,0.2-0.8,0.4-1.1,0.7s-0.6,0.7-0.8,1.1c-0.2,0.4-0.3,0.9-0.3,1.4c0,0.6,0.1,1.1,0.3,1.5c0.2,0.4,0.5,0.8,0.8,1.1
				c0.4,0.3,0.7,0.5,1.2,0.7c0.4,0.1,0.9,0.2,1.3,0.2c0.6,0,1.1-0.1,1.5-0.2c0.4-0.2,0.7-0.4,1-0.7c0.3-0.3,0.6-0.6,0.7-1.1
				c0.2-0.4,0.3-0.9,0.3-1.5c0-0.5-0.1-1-0.3-1.5c-0.2-0.4-0.4-0.8-0.8-1.1c-0.3-0.3-0.7-0.5-1.1-0.7
				C371.1,458.6,370.6,458.5,370.1,458.5z"/>
		</g>
	</g>
</g>
</svg>
