<?xml version="1.0" encoding="utf-8"?>
<!-- Generator: Adobe Illustrator 25.3.0, SVG Export Plug-In . SVG Version: 6.00 Build 0)  -->
<svg version="1.1" id="Capa_1" xmlns="http://www.w3.org/2000/svg" xmlns:xlink="http://www.w3.org/1999/xlink" x="0px" y="0px"
	 viewBox="0 0 566.9 566.9" style="enable-background:new 0 0 566.9 566.9;" xml:space="preserve">
<style type="text/css">
	.st0{fill:#1E1E1C;}
</style>
<g>
	<path class="st0" d="M422.3,407.4c-28.1,24.4-63.3,38.8-100.3,41.2c-1.7-2.6-3.4-5.3-5.1-7.9c-4.2-6.3-9.8-11-16.6-14.3
		c-0.5-0.2-1-0.5-1.5-0.8c0.1-0.3,0.1-0.6,0.2-0.9c1.1-3.8,0.8-7.6-0.3-11.3c-0.4-1.4-1.2-2.7-2.1-3.8c-1.1-1.3-2.8-1.5-4.2-0.6
		c-0.9,0.5-1.6,1.3-2.2,2.2c-0.7,1-1.1,2.2-1.8,3.6c-0.6-0.7-1.1-1.4-1.6-2c-1.2-1.4-2.4-2.7-4.1-3.5c-3-1.4-5.9,0.4-5.9,3.7
		c0,1.5,0.5,2.9,0.8,4.3c0.1,0.6,0.4,1.2,0.6,2c-0.8-0.1-1.3-0.2-1.8-0.2c-0.9-0.1-1.8-0.3-2.7-0.3c-3.5,0.1-5.2,2.9-3.5,6
		c0.4,0.8,1.2,1.6,1.9,2.2c1.5,1.1,3.3,1.6,5.2,1.4c1.5-0.1,2.9-0.4,4.4-0.8c2.3-0.6,4.6-0.8,6.9-0.5c4.5,0.5,8.9,1.7,12.9,3.9
		c2.1,1.1,4.2,2.4,6.1,4.5c-0.8,0-1.2-0.1-1.6-0.1c-2.5-0.2-5.1-0.3-7.6-0.5c-1.2-0.1-2.5-0.3-3.7-0.5c-4.6-0.9-9-0.9-12.8,2.2
		c-2.4,1.9-2.4,4-0.2,6c0.2,0.2,0.4,0.4,0.6,0.6c-0.3,1.1-0.6,2.1-0.8,3.2c-37.6-6.7-72.2-26-97.8-55.3c-2.2-2.5-6.1-2.8-8.6-0.6
		c-2.5,2.2-2.8,6.1-0.6,8.6c24.9,28.5,57.8,48.2,93.9,56.9c-5.5,7.1-12,13.1-21.2,15.6c-2.9,0.8-5.6,2.2-7.7,4.4
		c-2.8,3-4.4,6.4-2.9,10.6c1.1,3.2,3.9,4.8,7.1,3.7c1.8-0.7,3.4-2,5.1-3.1c1-0.6,1.4-2,2.6-1.9c1.2,3.1,1.9,6.2,3.4,8.8
		c2.7,4.8,8.6,4.8,11.2,0c1.3-2.5,1.8-5.4,2.5-8.2c0.3-1.1,0.3-2.3,0.5-3.9c1.1,0.8,1.8,1.5,2.6,1.9c1.8,0.9,3.5,2,5.4,2.5
		c4,0.9,7.1-1.4,7.4-5.5c0.1-1.6,0-3.4-0.5-4.9c-1.6-5.9-4.4-11.1-8.8-15.5c-0.5-0.5-1-1.1-1.5-1.6c0.2-0.5,0.3-0.8,0.5-1.1
		c0.1-0.2,0.2-0.3,0.3-0.5c12,2.5,24.3,3.8,36.7,3.8c43.8,0,86.1-15.8,119.2-44.6c2.5-2.2,2.8-6,0.6-8.6
		C428.7,405.4,424.9,405.2,422.3,407.4z M273,422.2c2.8,0,5.2,0.7,7.8,1.4C277.4,425.4,274.1,424.9,273,422.2z M287.5,423
		c-2.2-1.4-4.6-2.4-5.9-4.9c-0.9-1.8-1.5-3.6-1.5-6.2c1,0.5,1.6,0.6,2.1,1.1c3.1,2.6,4.8,6.1,6.4,10
		C288.1,423,287.8,423.2,287.5,423z M295.5,424.4c-0.4,0-0.7,0-1-0.1c-0.5-0.1-0.9-0.3-1.4-0.4c-1.5-4.7-1.1-9.5,0.9-11.3
		C295.8,414.6,296.5,420.1,295.5,424.4z M242.3,485c-1.2-1.3-0.9-2.5-0.2-3.5c2.1-3,5.1-4.3,8.8-4.6
		C248.3,479.9,245.8,482.9,242.3,485z M260.3,492c-5.5-5.4-3.8-15.2,1.5-21C264.5,477.9,263.6,489.2,260.3,492z M278.6,480.3
		c-4.6-0.6-7.5-4.4-11.4-14.3c0.9-0.9,1.7-1.8,2.8-2.9C274.7,468.1,277.7,473.5,278.6,480.3z M296.1,441.1c0.8,2.1,0.5,4-0.9,5.5
		C295,444.6,295.6,443,296.1,441.1z M293.1,448c-0.3,0-0.7-0.1-1-0.1c0.2-0.2,0.3-0.3,0.5-0.5C292.8,447.6,293,447.8,293.1,448z
		 M283.6,438.9c1.7-1.5,3.7-2.2,6.1-1.6c-1.6,1-3.2,2-4.7,3c-0.2,0.1-0.4,0.3-0.6,0.2c-0.4-0.1-0.9-0.3-1.3-0.4
		C283.2,439.7,283.3,439.2,283.6,438.9z M286.5,443.6c1.5-1.1,3-2,5-3.2c-0.2,2.9-1.2,5.1-2.8,7c-1.3-0.2-2.7-0.3-4-0.5
		C284.8,445.6,285.4,444.4,286.5,443.6z M297,448.3C297,448.3,297,448.3,297,448.3c0.6-0.7,1.1-1.4,1.2-2.1c0.3-1.4,0.4-2.8,0.4-4.2
		c0-1.2-0.2-2.5-0.4-3.9c3.2-0.1,6.2-0.1,9.2,0.3c3.1,0.4,5.6,1.7,7.3,4.7c1.1,1.9,2.3,3.8,3.6,5.7c-2.4,0.1-4.8,0.2-7.1,0.2
		C306.4,449,301.7,448.7,297,448.3z"/>
	<path class="st0" d="M340.9,112.8c32.1,5.7,61.7,20.5,85.6,42.8c1.2,1.1,2.7,1.6,4.1,1.6c1.6,0,3.3-0.7,4.5-1.9
		c2.3-2.5,2.2-6.3-0.3-8.6c-25.7-23.9-57.4-39.7-91.8-45.8c-3.3-0.6-6.5,1.6-7,4.9C335.4,109,337.6,112.2,340.9,112.8z"/>
	<path class="st0" d="M337.6,275c0-2.4-0.5-4.6-1.5-6.5c-1-1.9-2.5-3.4-4.3-4.4c-1.8-1.1-3.9-1.6-6.2-1.6c-2.3,0-4.4,0.5-6.3,1.6
		c-1.9,1.1-3.3,2.5-4.4,4.4c-1.1,1.9-1.6,4-1.6,6.4c0,2.4,0.5,4.5,1.6,6.4c1.1,1.9,2.6,3.4,4.6,4.4c2,1.1,4.3,1.6,6.8,1.6
		c2,0,3.8-0.3,5.5-1c1.6-0.7,3-1.7,4.1-2.9l-2.4-2.8c-1.8,2-4.1,2.9-7,2.9c-2.4,0-4.4-0.6-6-2c-1.6-1.3-2.5-3-2.8-5.2h19.7
		C337.6,275.8,337.6,275.4,337.6,275z M317.8,273.2c0.2-2.1,1.1-3.8,2.5-5c1.4-1.3,3.2-1.9,5.3-1.9c2.1,0,3.9,0.7,5.3,2
		c1.4,1.3,2.3,3,2.5,5H317.8z"/>
	<path class="st0" d="M351,283.5c-1.6,0-3.1-0.2-4.6-0.7c-1.5-0.5-2.8-1.1-3.9-1.8l-1.8,3.5c1,0.8,2.5,1.5,4.3,2
		c1.8,0.5,3.7,0.8,5.7,0.8c3.2,0,5.8-0.6,7.7-1.9c1.9-1.3,2.8-3.1,2.8-5.3c0-1.7-0.4-2.9-1.3-3.9c-0.9-0.9-1.9-1.6-3.1-1.9
		c-1.2-0.4-2.8-0.7-4.8-1.1c-1.5-0.3-2.6-0.5-3.4-0.7c-0.8-0.2-1.5-0.6-2-1c-0.5-0.5-0.8-1.1-0.8-1.9c0-1,0.5-1.8,1.5-2.4
		c1-0.6,2.4-0.9,4.3-0.9c2.7,0,5,0.6,7,1.9l1.9-3.5c-1-0.7-2.4-1.2-4-1.6c-1.6-0.4-3.2-0.6-4.9-0.6c-3.1,0-5.6,0.7-7.4,2
		c-1.8,1.3-2.8,3.1-2.8,5.3c0,1.7,0.4,3,1.3,4c0.9,0.9,2,1.6,3.2,2c1.2,0.4,2.8,0.7,4.8,1.1c1.4,0.2,2.5,0.5,3.3,0.7
		c0.8,0.2,1.4,0.5,2,0.9c0.5,0.4,0.8,1,0.8,1.7C356.8,282.4,354.9,283.5,351,283.5z"/>
	<path class="st0" d="M419.5,287.1v-14c0-3.5-0.9-6.1-2.7-7.9c-1.8-1.8-4.2-2.7-7.3-2.7c-2.1,0-3.9,0.4-5.5,1.2
		c-1.6,0.8-2.9,1.9-3.8,3.3c-0.8-1.5-1.9-2.6-3.4-3.4c-1.5-0.8-3.2-1.1-5.1-1.1c-1.8,0-3.5,0.3-4.9,1c-1.4,0.7-2.6,1.6-3.5,2.9v-3.6
		h-4.2v24.3h4.4v-12.5c0-2.6,0.7-4.6,2-6c1.3-1.4,3.1-2.1,5.3-2.1c2,0,3.6,0.6,4.7,1.8c1.1,1.2,1.6,3,1.6,5.3v13.5h4.4v-12.5
		c0-2.6,0.7-4.6,2-6c1.3-1.4,3.1-2.1,5.3-2.1c2,0,3.6,0.6,4.7,1.8s1.6,3,1.6,5.3v13.5H419.5z"/>
	<rect x="427.6" y="262.7" class="st0" width="4.4" height="24.3"/>
	<path class="st0" d="M432,253.1c-0.6-0.5-1.3-0.8-2.1-0.8c-0.9,0-1.6,0.3-2.1,0.8c-0.6,0.6-0.8,1.2-0.8,2c0,0.8,0.3,1.5,0.8,2
		c0.6,0.5,1.3,0.8,2.1,0.8c0.9,0,1.6-0.3,2.1-0.8c0.6-0.6,0.8-1.3,0.8-2.1C432.8,254.3,432.5,253.6,432,253.1z"/>
	<path class="st0" d="M167.2,206c-1.8,4.1-2.9,8.5-3.4,13.2c-0.5,4.7,0.3,9.1,2.3,13.2c1.6,3.5,4.1,6.5,7.2,9
		c3.2,2.5,6.8,4.5,10.9,6.2c4.1,1.6,8.5,2.9,13.1,3.7c4.6,0.8,9.2,1.4,13.8,1.6c4.5,0.2,8.8,0.2,13-0.2c4.1-0.3,7.6-0.9,10.6-1.6
		c8.7-2.2,16.9-5.8,24.6-10.6c7.7-4.8,14.8-10.5,21.2-16.9c6.4-6.5,12.1-13.6,17.1-21.3c5-7.8,9.1-15.7,12.4-23.8
		c1.8-4.2,3.3-8.7,4.7-13.3c1.3-4.6,2.4-9.3,3-14.1c0.6-4.8,0.8-9.6,0.5-14.4c-0.3-4.8-1.2-9.5-2.7-13.9
		c-2.4-6.5-5.8-11.7-10.2-15.7l4.8-2.1c1.1-0.5,1.2-1.2,0.5-2.1c-0.4-0.6-1.1-0.9-2.2-0.8c-1.1,0.1-2,0.1-2.6,0.1
		c-1.1,0-2.1,0.1-3.3,0.2c-1.1,0.1-2.2,0.3-3.3,0.5c-3.8-2.1-7.8-3.6-12.1-4.5c-4.3-0.9-8.9-1.2-13.7-1c-9.1,0.6-18,2.8-26.7,6.5
		c-8.8,3.8-16.1,9.2-22.1,16.2c-2.8,3.4-5.2,7.1-7.1,11c-1.9,3.9-3.2,8.1-3.9,12.3c-0.7,4.3-0.8,8.6-0.4,13
		c0.5,4.3,1.6,8.5,3.5,12.5c-1.9-0.1-3.8,0-5.6,0.3c-1.9,0.4-3.6,0.8-5.3,1.4c-8.6,2.8-16.3,7.3-23.2,13.5
		C175.9,190.4,170.7,197.6,167.2,206z M299.6,110.6c2.4,3.8,3.6,7.9,3.9,12.3c0.2,4.5,0.1,8.8-0.4,12.9c-0.5,4.9-1.3,9.7-2.4,14.4
		c-1.1,4.6-2.5,9.2-4.1,13.7c-3.4,9.1-7.5,17.8-12.2,26.1c-4.7,8.4-10.1,16.2-16.2,23.5c-6.1,7.3-13,13.9-20.6,19.8
		c-7.6,5.9-16,10.2-25.2,12.8c-3.8,0.9-8,1.6-12.7,2.1c-4.7,0.5-9.4,0.4-14.1-0.2c4.9-1.4,9.3-3.6,13.2-6.5
		c3.9-2.9,7.4-6.3,10.6-10.1c4.2-5.2,8.2-10.6,11.8-16.3c3.6-5.7,7.1-11.5,10.4-17.4c3.3-5.9,6.5-11.8,9.5-17.9
		c3.1-6.1,6.2-12,9.3-17.9c2.5-4.5,5.1-9.1,7.8-13.9c2.7-4.8,5.6-9.5,8.8-14c3.2-4.5,6.6-8.8,10.3-12.8
		C291.1,117.1,295.1,113.6,299.6,110.6z M221.1,149.7c1.4-9,4.7-17.3,9.8-24.8c5.1-7.5,11.7-13.5,19.7-18.1
		c2.9-1.6,6.3-3.1,10.1-4.4c3.8-1.3,7.6-2.2,11.5-2.6c3.9-0.5,7.7-0.4,11.5,0.3c3.8,0.6,7.2,2.1,10.2,4.3c-3.1,0.9-6,2.3-8.9,4
		c-2.9,1.7-5.6,3.6-8,5.6c-5.9,4.6-11.1,9.8-15.5,15.5c-4.5,5.8-8.7,11.8-12.7,18c-3.5,5.4-6.8,10.8-9.9,16.3
		c-3.1,5.5-6.1,11-9,16.7c0-0.6-0.1-1.2-0.2-1.9c-0.1-0.6-0.3-1.3-0.5-1.9c-0.8-2.1-2-3.8-3.4-4.9c-1.5-1.2-3.1-2-5-2.5
		C220.1,162.7,220.3,156.2,221.1,149.7z M192,187.1c1.5-1.5,3.1-3.1,4.8-4.8c1.6-1.7,3.4-3.3,5.3-4.7c1.9-1.4,3.8-2.6,5.8-3.7
		c2-1.1,4.1-1.8,6.3-2.1c2.5-0.3,4.7-0.3,6.7,0.2c2,0.5,3.5,1.7,4.4,3.7c1.1,2,1.3,4.1,0.8,6.2c-0.5,2.1-1.3,4.1-2.2,5.8
		c-2,3.8-4.6,7.3-7.9,10.7c-3.3,3.4-6.8,6.1-10.6,8.4c-2.1,1.2-4.4,2.1-6.8,2.7c-2.4,0.6-4.8,0.7-7.3,0.1c-1.1-0.2-2.1-0.6-3-1.2
		c-0.9-0.6-1.8-1.2-2.6-1.9c-0.5-0.5-0.9-1.1-1.4-1.9c-0.5-0.8-0.9-1.3-1.4-1.5c-1.6-0.6-2.3,0-1.9,1.8c0.2,0.8,0.9,1.6,1.9,2.5
		c1.1,0.8,1.9,1.5,2.5,1.9c1.9,1.3,3.9,2.2,6.1,2.7c2.2,0.5,4.4,0.7,6.6,0.4c3.6-0.4,7.1-1.3,10.5-2.8c3.4-1.5,6.4-3.5,9.1-5.8
		c-1.5,2.7-3.1,5.4-4.6,8.1c-1.5,2.7-3.1,5.4-4.8,8.1c-1.8,2.7-3.5,5.4-5.3,8.2c-1.8,2.8-3.6,5.4-5.6,8c-1.1,1.4-2.5,3.2-4.3,5.4
		c-1.8,2.2-3.7,3.7-5.6,4.7c-3.4-1.1-6.5-2.5-9.3-4.4c-2.8-1.9-5-4.3-6.6-7.2c-2.5-4.1-3.3-8.4-2.4-12.9c0.9-4.5,2.6-8.8,5-13
		c2.5-4.2,5.4-8.2,8.7-11.9C186.3,193,189.3,189.8,192,187.1z"/>
	<path class="st0" d="M331.4,168c2.4,0,4.4-0.8,6.1-2.5c1.7-1.6,2.5-3.6,2.5-6c0-2.4-0.8-4.4-2.5-6.1c-1.7-1.7-3.7-2.5-6.1-2.5
		c-2.3,0-4.4,0.8-6,2.5c-1.7,1.7-2.5,3.7-2.5,6.1c0,2.3,0.8,4.3,2.5,6C327,167.2,329,168,331.4,168z"/>
	<path class="st0" d="M305,224.9c0.7,5.5,3.5,8.3,8.4,8.3c4.2,0,8.2-1.9,11.9-5.7c3-3,5.7-6.7,8.4-11.3c0.1,2.7,0.5,5.2,1.3,7.3
		c1.2,2.9,2.9,5.2,5.3,6.8c2.3,1.6,5,2.6,8,2.9c5.1,0.5,10-0.8,14.7-3.9c4.7-3.1,8.8-7.1,12.3-12c2,0.7,4,0.8,6.1,0.7
		c0.1,4.2,1.4,7.8,4.3,10.5c3.4,3.3,8,4.9,13.9,4.9c4.2,0,7.9-0.6,11-1.8c3.2-1.2,5.8-2.7,8-4.7c2.2-1.9,3.9-4.2,5-6.7
		c1.2-2.5,1.8-5.1,1.9-7.7c0.2-3.7-0.3-7.2-1.6-10.6c-1.3-3.4-2.7-6.6-4.2-9.6c-1.5-3-3-5.9-4.3-8.7c-1.3-2.8-2-5.5-2-8.2
		c2.9-3,5.4-5.3,7.6-7.1c2.2-1.8,3.2-3.4,3.1-4.8c-0.2-1.4-1.2-2.4-3-2.8c-1.8-0.5-3.7-0.2-5.7,0.8c-2,1-3.9,2.8-5.4,5.4
		c-1.6,2.6-2.3,6.2-2.1,10.8c-1,2.1-2.1,4.5-3.4,7c-1.2,2.5-2.5,5-3.8,7.4c-1.3,2.5-2.7,4.8-4,7.1c-1.3,2.3-2.5,4.4-3.5,6.2h-0.8
		c-2.8,0-5.2,1-7.3,2.9c-1.7,1.5-2.8,3.3-3.3,5.4c-1.2-0.2-2.4-0.7-3.4-1.6l2.3-4.4c2-4.6,3.4-8.8,4.1-12.7
		c0.7-3.9,0.7-7.3,0.2-10.2c-0.5-2.9-1.6-5.3-3.1-7.3c-1.6-1.9-3.6-3.3-5.9-4.1c-3.8-1.3-7.5-1.7-11.3-1.1c-3.7,0.6-7.3,2-10.6,4.2
		c-3.4,2.2-6.5,5.1-9.4,8.8c-2.9,3.7-5.3,8-7.3,12.9c-1.8,4.4-2.9,8.4-3.4,11.9c-2,3.4-3.9,6.2-5.7,8.2c-1.9,2.1-3.7,3-5.4,2.7
		c-1.6-0.4-2.4-1.9-2.3-4.4c0.1-2.5,0.9-5.7,2.4-9.7l13-34.9h-15.3l-11.5,30.6C305.7,211.9,304.3,219.3,305,224.9z M397.8,222.3
		c2.2-2,3.4-4.4,3.8-7.1c0.2-2-0.2-3.9-1.2-5.5c-1-1.6-2.3-2.9-4.1-3.7c1.8-3.1,3.9-6.6,6.2-10.5c2.3-3.9,4.4-7.7,6.4-11.3
		c0.4,4.7,0.7,9.7,0.8,15c0.2,5.3-0.5,10.2-1.9,14.7c-0.9,2.7-2.4,5.2-4.3,7.6c-1.9,2.4-4.1,3.9-6.4,4.5c-1.4,0.4-2.7,0.5-3.9,0.3
		c-1.2-0.2-2.3-0.6-3.3-1.1h0.5C393.1,225.3,395.6,224.3,397.8,222.3z M349.2,216.6c0.5-2.4,0.9-4.8,1.5-7c1.2-5,2.8-9.6,4.7-13.8
		c1.9-4.2,3.9-7.8,6-10.7c2-3,4.1-5.2,6-6.8c2-1.6,3.6-2.2,5-1.9c1.7,0.5,2.7,1.6,2.9,3.3c0.2,1.7-0.1,3.9-0.8,6.7
		c-1.1,0-2.3,0.3-3.4,0.9c-1.2,0.6-2.3,1.6-3.4,2.9c-1.1,1.3-2,2.9-2.7,4.8c-0.7,1.9-1.1,4.1-1.2,6.7c-0.1,3.6,0.7,6.6,2.5,9.2
		c-0.9,2.3-1.9,4.6-2.9,6.7c-1,2.1-2.1,4-3.3,5.6c-1.2,1.6-2.4,3-3.7,4.1c-1.3,1.1-2.7,1.8-4.1,2.1c-1.4,0.3-2.4-0.1-2.9-1.3
		c-0.5-1.2-0.8-2.7-0.8-4.7C348.5,221.2,348.8,219,349.2,216.6z"/>
	<path class="st0" d="M182.7,362.2c4.6-0.2,9-0.9,13-1.9c0.4-0.1,1-0.3,2-0.6c0.9-0.3,1.9-0.6,2.8-0.9c0.9-0.4,1.8-0.8,2.5-1.2
		c0.8-0.4,1.2-0.9,1.3-1.4c0.2-1,0.1-1.5-0.6-1.6c-0.6-0.1-1.4,0.1-2.4,0.4c-0.9,0.3-1.9,0.7-2.8,1.2c-0.9,0.5-1.5,0.8-1.8,0.8
		c-2.1,0.6-4.3,0.9-6.4,0.8c-2.1-0.1-4.3-0.4-6.4-0.8c-3.6-0.6-7.2-1.4-10.6-2.4c-3.5-1-6.9-2-10.3-3l2.3-4.7
		c3.5-7,7-13.9,10.4-20.7c3.4-6.8,7.2-13.5,11.4-20.1c1.2-2.1,2.8-4.5,4.5-7.1c1.7-2.6,3.7-5,5.8-7.3c2.1-2.3,4.4-4.4,7-6.3
		c2.5-1.9,5.1-3.2,7.9-3.9c7.1,1.9,14.4,3,21.6,3.4c2.6,0.1,5.4,0.1,8.4-0.1c2.9-0.2,5.8-0.7,8.6-1.6c2.8-0.9,5.3-2.1,7.6-3.6
		c2.3-1.5,4.2-3.5,5.5-6c0.8-1.3,1.3-2.6,1.5-4c0.2-1.4,0.3-2.7,0.3-3.9c-0.1-1.1-0.3-2-0.8-2.6c-0.4-0.6-1-0.9-1.8-0.8
		c-0.8,0.2-1.3,0.8-1.6,1.6c-0.3,0.8-1.3,1.6-2.9,2.3c-1.3,0.6-2.5,1-3.9,1.1c-1.3,0.1-2.7,0.2-4,0.4c-7.9,0.6-15.7,0.6-23.4-0.2
		c-7.7-0.8-15.4-1.7-23.2-2.8c-11.4-1.8-22.4-1.3-33,1.3c-10.6,2.6-20.6,7.3-30,14.1c-0.2,0.3-0.6,0.5-0.9,0.7
		c-0.4,0.2-0.7,0.4-0.9,0.7c-2.9-1-6-1.4-9.4-1.1c-3.4,0.3-6.6,0.7-9.6,1.3c-1,0.3-1.3,0.7-1,1.3c0.3,0.6,0.8,1.1,1.4,1.3
		c0.9,0.3,2.2,0.1,3.9-0.5c1.7-0.6,3-0.9,4-1c1.8-0.2,3.3-0.3,4.6-0.1c1.3,0.2,2.5,0.4,3.7,0.7c-4,3.1-8,6.7-11.9,10.5
		c-3.9,3.9-7.5,8-10.7,12.4c-3.2,4.4-5.9,9-8.1,13.9c-2.2,4.9-3.5,10-3.9,15.2c-0.3,2.5-0.2,5.2,0.2,8.2c0.4,2.9,1.6,5.3,3.6,7.1
		c0.8,0.8,1.7,1.3,2.8,1.7c-4,2.9-7,6.2-8.9,10.1c-1.9,3.8-3.5,7.7-4.8,11.8c-5.8,2-10.9,5.1-15.4,9.3c-4.5,4.2-7.7,9.5-9.4,15.9
		c-1.5,5.8-0.9,10.9,1.8,15.5c2.7,4.6,7,7.4,12.9,8.6c3,0.6,6.1,0.7,9.3,0.3c3.2-0.4,6.4-1.2,9.5-2.3c3.1-1.1,6.2-2.4,9.1-4.1
		c2.9-1.7,5.7-3.5,8.4-5.4c4-3.3,7.7-6.9,11.2-10.8c3.5-3.9,6.6-7.9,9.5-11.9c3.3-4.6,6.3-9.4,9-14.3c2.8-4.9,5.4-9.9,7.9-15
		c3.9,0.8,7.8,1.4,11.8,2C174.7,362.3,178.7,362.5,182.7,362.2z M108.3,342.3c0.4-5.8,1.8-11.6,4.1-17.4c2.4-5.8,4.9-11.3,7.5-16.3
		c2.5-4.8,5.5-9.1,8.8-13.2c3.4-4,7.1-7.6,11.3-10.7c3.3,2.1,4.9,5.4,4.9,10c0,4.5-0.8,9.3-2.4,14.5c-1.6,5.1-3.7,10.1-6.1,14.9
		c-2.4,4.8-4.5,8.5-6.3,11.1c-1.8,2.4-3.6,4.7-5.5,6.9c-1.9,2.2-4.2,4-6.7,5.4c-2.9,1.6-5.3,2-7.1,1.1
		C108.8,347.6,108,345.6,108.3,342.3z M129.9,378.6c-2.1,5.3-4.3,10.5-6.6,15.7c-2.3,5.2-5,10.1-8.3,14.6c-1.3,1.6-3.2,3.7-5.7,6.2
		c-2.6,2.5-6.2,4.3-11,5.5c-2.3,0.6-4.5,0.8-6.9,0.5c-2.3-0.3-4.4-1-6.2-2.1c-1.8-1.1-3.3-2.6-4.5-4.5c-1.2-1.9-1.8-4.2-1.8-6.9
		c0-5.4,1.4-10.8,4.3-16.2c2.9-5.4,6.5-9.6,10.9-12.6c3.9-2.6,8.1-4,12.6-4.2c4.5-0.2,8.5,1,12,3.5c0.5,0.2,1.2,0.8,2,1.5
		c0.8,0.8,1.5,0.9,2.2,0.4c0.9-0.5,0.9-1.1,0-1.9c-0.9-0.8-2.1-1.5-3.6-2.3c-1.5-0.8-3-1.4-4.6-2c-1.6-0.6-2.5-0.9-2.9-1
		c-2.4-0.5-4.7-0.7-7-0.6c-2.3,0.1-4.5,0.5-6.8,1.1l0.4-1.5c2.1-7.5,6.1-12.7,11.8-15.6c5.8-2.9,12.2-3.8,19.4-2.8
		c1.8,0.3,3.5,0.6,5.2,0.9c1.7,0.4,3.4,0.8,5.2,1.1L129.9,378.6z M157.9,321.6c-2.6,4.1-5.1,8.4-7.4,12.7c-2.3,4.3-4.5,8.7-6.7,13.1
		c-4-0.8-8.1-1.1-12.2-1.1c-1.4,0.1-2.7,0.2-4,0.3c-1.3,0.1-2.6,0.2-3.9,0.5c3.9-3.1,7.4-6.8,10.5-10.9c3.1-4.1,6-8.4,8.5-12.8
		c1.2-2.4,2.5-4.9,3.7-7.7c1.2-2.8,2.1-5.6,2.7-8.5c0.6-2.9,0.9-5.8,0.9-8.7c0-2.9-0.5-5.7-1.5-8.5c-1.3-3.1-3.2-5.5-5.8-7.1
		c4.4-3,9.1-5.4,14.3-7.2c5.1-1.8,10.6-2.9,16.4-3.1c5-0.3,9.9,0.2,14.7,1.3c4.8,1.1,9.5,2.5,14.3,4.1l5.5,1.9c-3.3,1-6,2-8.4,2.9
		c-2.3,0.9-4.5,2-6.7,3.1c-7.5,4.1-14.1,9.3-19.6,15.6C167.5,307.7,162.4,314.5,157.9,321.6z"/>
	<path class="st0" d="M460.9,369.7l14.8-39.6h-17.4l-3.3,8.7c-0.6-2.9-1.7-5-3.3-6.4c-1.6-1.3-3.6-2.1-5.9-2.3
		c-2.4-0.2-5.2,0.4-8.3,1.9c-3.1,1.5-6.2,3.8-9.3,6.8c-3.1,3-6.1,6.7-9,11.1c-2.9,4.4-5.4,9.4-7.5,14.9c-1.1,2.9-1.9,5.6-2.4,8.2
		c-2.4,4.4-4.6,7.8-6.4,10.1c-1.9,2.3-3.6,3.8-5.2,4.5c-1.6,0.7-3.2,0.7-4.9,0.1c-1.6-0.6-3.4-1.8-5.2-3.4c-1.2-0.9-2.3-1.7-3.5-2.3
		c-1.2-0.6-2.4-1.2-3.6-1.7c3.7-4.4,7.4-9,10.9-13.8c3.6-4.8,7.1-9.2,10.4-13.3c3-1.3,5.9-3.7,8.8-7.1c2.8-3.5,5.7-7.9,8.6-13.4
		l-2.1-2.8c-2.3,3.4-4.6,5.7-6.8,7c-2.2,1.3-4.3,1.9-6.3,1.7c-1.4,0-2.6-0.4-3.7-1.3c-1.1-0.9-2.2-1.8-3.2-3c-1-1.1-2.2-2.2-3.5-3.2
		c-1.3-1-2.8-1.7-4.7-2.1c-3-0.6-6.1,0.2-9.2,2.3c-3.1,2.1-5.6,5.7-7.3,10.7c-1.2,3-2.6,7.3-4.2,13c-1.6,5.6-3.8,11.6-6.6,18
		c0,0,0,0,0,0c-1.3,2-2.7,3.9-4.3,5.7c-1.6,1.9-3.1,3.5-4.7,4.9c-1.6,1.4-3.1,2.4-4.5,3.1c-1.4,0.7-2.7,0.9-3.7,0.5
		c-1.6-0.5-1.8-3.2-0.6-8.3c1.2-5.1,4.5-11.8,10-20.2c6.8-10.5,10.1-18.1,9.6-22.6c-0.4-4.5-3.6-6.5-9.5-6.1
		c-2.8,0.4-5.6,0.9-8.4,1.6c-2.8,0.7-5.3,0.8-7.4,0.2c0.5-1.5,0.8-2.9,1.1-4.2c0.3-1.3,0.6-2.5,0.8-3.6c0.6-3.1,0.6-5.5,0.1-7.2
		c-0.5-1.7-1.4-3-2.7-3.9c-1.2-0.8-2.4-1.2-3.6-1c-1.2,0.1-2.3,0.6-3.1,1.5c-0.9,0.9-1.5,2.1-1.8,3.7c-0.3,1.6-0.2,3.6,0.4,5.9
		c1.2,4.2,1.4,8.5,0.8,13c-0.6,4.5-1.7,8.9-3.3,13.2c-1.6,4.3-3.4,8.6-5.6,12.7c-2.2,4.1-4.1,7.9-5.8,11.2c-1,1.6-2.4,3.3-4.1,5
		c-1.7,1.7-3.6,3.2-5.7,4.5c-2.1,1.3-4.4,2.3-6.8,3c-2.4,0.7-4.8,0.9-7.2,0.5c-1.5-0.2-2.9-0.8-4.2-1.7c-1.3-0.9-2.3-2-3.1-3.5
		c-0.8-1.4-1.3-3.1-1.5-5c-0.2-1.9,0.1-4.1,1-6.5c7.3-0.7,13.5-2.8,18.5-6.2c5-3.4,8.8-7.2,11.2-11.3c2.4-4.1,3.5-8.1,3.2-12
		c-0.3-3.9-2.1-6.7-5.3-8.6c-3-1.7-6.6-2-10.7-0.9c-4.1,1.2-8.2,3.3-12.3,6.3c-4.1,3.1-7.9,6.9-11.5,11.4c-3.5,4.5-6.2,9.3-7.9,14.3
		c-1.8,4.6-2.9,8.8-3.4,12.9c-1.8,2.9-3.7,5.5-5.5,7.6c-2.3,2.6-4.5,3.7-6.4,3.4c-1.9-0.5-2.8-2.2-2.8-5.1c0-3,0.9-6.7,2.6-11.2
		l14.8-39.8h-17.4l-13,34.8l-1.7,5.2c-1.7,3.5-3.3,6.3-4.7,8.5c-1.4,2.2-2.6,3.9-3.7,5.1c-1.1,1.2-2.1,2-3,2.3
		c-0.9,0.3-1.8,0.4-2.6,0.2c-2-0.5-2.1-2.9-0.5-7.4c1.6-4.5,4.5-10.3,8.5-17.6c2.7-4.9,4.6-9,5.7-12.5c1.2-3.5,1.7-6.4,1.7-8.9
		c0-2.4-0.5-4.4-1.4-5.8c-0.9-1.4-2.1-2.5-3.7-3.2c-1.4-0.7-2.9-0.9-4.5-0.7c-1.6,0.2-3.1,0.9-4.5,1.9c-1.4,1-2.7,2.4-3.8,4
		s-2,3.5-2.4,5.6c-0.7,2.5-1.2,4.8-1.5,6.6c-0.3,1.9-0.6,3.6-0.8,5.2c-0.2,1.2-0.4,2.4-0.6,3.6c-1.2,2.3-2.6,4.8-4.2,7.9
		c-5.8,10.7-8.2,19-7.3,25.1c0.9,6.1,4.6,9.3,11.1,9.6c3.7,0.2,7.2-1.3,10.3-4.6c3.2-3.3,6.2-7.4,9.1-12.4c-0.6,5.4,0,9.6,1.8,12.6
		c1.8,3,4.6,4.4,8.4,4.4c4.4,0,8.8-2.1,13.3-6.4c3-2.9,5.8-6.5,8.5-10.8c0.2,2.3,0.6,4.5,1.4,6.5c1.3,3.4,3.4,6,6.2,7.9
		c2.8,1.9,6.2,2.9,10.3,2.9c2.7,0,5.6-0.5,8.9-1.7c3.2-1.1,6.4-2.7,9.6-4.8c3.1-2.1,6.1-4.6,8.9-7.6c2.8-3,5.1-6.2,7-9.8
		c1.4-2.3,3-5.1,4.7-8.3c1.7-3.2,3.5-6.6,5.2-10.2c1.7-3.6,3.4-7.3,5-11c1.6-3.8,3.1-7.4,4.3-10.9c0.9,0.2,1.9,0.3,3,0.3
		c1.1-0.1,2.3-0.2,3.6-0.4c1.2-0.2,1.9,0.1,2.3,1.1c0.4,1,0,2.9-1.3,5.8c-1,2.3-2.8,5.2-5.3,8.8c-2.5,3.5-5.5,8.3-9,14.2
		c-3.1,5.2-5.3,9.9-6.4,14.2c-1.2,4.2-1.5,7.9-1,10.9c0.5,3,1.8,5.3,3.8,7c2,1.6,4.7,2.4,7.9,2.4c2.2,0,4.6-0.5,7.2-1.7
		c2.6-1.1,5.2-2.7,7.8-4.8c2.6-2.1,5.1-4.6,7.6-7.6c2.4-3,4.6-6.2,6.6-9.8l0,0c1.7-3.6,3.2-7.2,4.5-10.7c1.3-3.5,2.5-6.7,3.6-9.6
		c1.1-2.9,2.1-5.4,3.1-7.4c1-2,2-3.3,3-3.9c1.3-0.7,2.5-0.6,3.6,0.2c1.2,0.8,2.4,1.9,3.7,3.2c1.3,1.3,2.8,2.6,4.4,3.9
		c1.6,1.3,3.5,2.1,5.6,2.4c0.2,0.1,0.6,0.2,1.2,0.2c-3.7,4.2-7.4,8.5-11,13c-3.6,4.5-7.1,8.6-10.4,12.3c-3.4-0.1-6.7,0.6-9.9,2.1
		c-3.2,1.5-6.3,3.5-9,6.1c-1.9,1.7-3.1,3.5-3.7,5.4c-0.6,1.9-0.6,3.4,0,4.6c0.6,1.2,1.7,2,3.3,2.3c1.6,0.3,3.8-0.3,6.4-1.8
		c2.4-1.4,5.1-3.5,8-6.4c0.7,0.6,1.4,1.3,2.3,2.1c0.8,0.8,2,1.7,3.7,2.8c3.9,2.7,7.6,3.9,10.9,3.7c3.3-0.2,6.4-1.4,9.2-3.6
		c2.8-2.2,5.5-5.2,8-8.9c1.3-2,2.6-4.1,3.9-6.2c-0.1,3.3,0.1,6.2,0.8,8.7c0.9,3,2.3,5.3,4.3,7c2,1.6,4.4,2.4,7.2,2.4
		c3.7,0,7.2-1.6,10.6-4.9c3.4-3.2,6.5-7.5,9.6-12.7c-0.7,5.6-0.3,9.9,1.3,13c1.6,3.1,4.3,4.6,8.3,4.6c4.5,0,8.8-2.1,12.8-6.4
		c4-4.3,7.8-10.1,11.6-17.4l-2.1-2.8c-2.3,4.1-4.5,7.3-6.6,9.8c-2.1,2.5-4.1,3.6-6.1,3.2c-1.7-0.5-2.4-2.2-2.1-5.1
		C458.1,377.9,459.2,374.2,460.9,369.7z M291.4,351.2c2.4-4.1,4.8-7.4,7.2-10.2c2.4-2.7,4.5-4.6,6.5-5.7c2-1.1,3.4-1.2,4.3-0.4
		c0.8,0.8,0.8,2.6-0.1,5.3c-0.9,2.7-2.4,5.7-4.7,9c-2.3,3.2-5.1,6.4-8.4,9.4c-3.4,3-7.1,5.2-11.1,6.6
		C286.9,359.9,289,355.3,291.4,351.2z M449.8,352.6l-4.9,13c-1.3,2.8-2.7,5.5-4.2,8.1c-1.5,2.6-3,4.9-4.6,6.8
		c-1.6,1.9-3.1,3.4-4.5,4.3c-1.4,1-2.8,1.4-3.9,1.1c-1.9-0.5-2.8-2.2-2.8-5.1c0-3,0.8-6.7,2.4-11.2c1.6-4.2,3.5-8.2,5.6-12.2
		c2.1-3.9,4.2-7.3,6.3-10.2c2.1-2.8,4.2-5,6.1-6.6c1.9-1.6,3.4-2.1,4.6-1.7c1.2,0.6,1.7,1.9,1.7,4
		C451.7,345.2,451.1,348.3,449.8,352.6z"/>
	<path class="st0" d="M119.5,159.2c3.7,2.3,7.8,3.8,12.4,3.9c0.3,0,0.6,0.1,1,0.1c0.1,0.6,0.3,1.2,0.3,1.8c1,8,4,15.3,9.4,21.6
		c2.6,3,5.1,6,7.7,8.9c-7.8,14.9-13.7,30.9-17.1,47.4c-0.7,3.3,1.4,6.5,4.7,7.2c0.4,0.1,0.8,0.1,1.2,0.1c2.8,0,5.4-2,6-4.9
		c7.4-36.2,27-69.6,55.1-93.9c2.5-2.2,2.8-6,0.6-8.6c-2.2-2.6-6-2.8-8.6-0.6c-16.3,14.1-29.8,31.1-40.1,49.9c-1.8-2.5-3.9-4.8-6-7
		c-2.6-2.7-3.1-5.6-2.3-9c0.7-3.2,1.9-6.3,3.2-9.5c1.5,0.6,2.8,1.2,4.2,1.6c1.6,0.4,3.2,0.8,4.8,0.9c0.8,0.1,1.8-0.2,2.6-0.5
		c2-0.8,2.4-2,1.6-3.7c-0.2-0.4-0.5-0.7-0.8-1.3c0.8-0.3,1.4-0.5,2-0.7c1-0.4,2-0.7,3-1.2c2.5-1.2,3.8-3.1,3.5-5.1
		c-0.3-2.2-2.4-4.4-4.9-4.8c-1.4-0.2-2.8-0.1-4.3-0.2c-0.1-0.3-0.3-0.5-0.4-0.8c-1.3-3-3.6-3.6-6.7-1.8c-5,2.9-6.7,7.5-7.5,12.4
		c-0.2,1.3-0.5,2.7-0.9,4c-0.8,2.7-1.6,5.3-2.4,7.9c-0.1,0.4-0.3,0.8-0.5,1.6c-1.5-2.6-2.1-5.2-2.6-7.7c-0.8-4.8-0.5-9.6,0.7-14.4
		c0.6-2.5,1.8-4.8,3.3-6.9c0.9-1.4,1.8-2.8,2.6-4.2c0.9-1.9,1.1-3.9,0.4-5.8c-0.3-1-0.9-2-1.6-2.7c-2.8-2.7-6.6-1.9-8,1.7
		c-0.4,0.9-0.5,1.9-0.8,2.9c-0.1,0.6-0.3,1.1-0.5,2c-0.8-0.5-1.3-0.9-1.9-1.2c-1.5-0.8-2.9-1.7-4.5-2.2c-3.6-1.1-6.8,1.4-6.4,4.9
		c0.2,2,1.2,3.7,2.3,5.4c0.5,0.7,1,1.5,1.6,2.3c-1.7,0.2-3.2,0.3-4.7,0.6c-1.2,0.3-2.4,0.8-3.3,1.6c-1.6,1.2-2,3-1,4.5
		C116.9,157.1,118.1,158.4,119.5,159.2z M151.3,165.4c2.3,0.1,4.3,0,6.4,0.9C155.5,167.3,153.3,167,151.3,165.4z M157.8,156.3
		c1.4-1,3.1-1.2,4.8-0.8c0.7,0.2,1.5,1,1.8,1.6c0.4,0.8-0.5,1.4-1.2,1.8c-3.3,1.7-6.7,2.4-10.8,1.4
		C154.4,158.8,156.1,157.5,157.8,156.3z M153.7,151.9c0.4-0.2,1-0.1,1.6-0.1c0,0.5,0,1-0.1,1.5c0,0.2-0.3,0.4-0.5,0.5
		c-1.7,1.3-3.4,2.6-5.2,3.9C149.9,155,151.5,153.2,153.7,151.9z M139.3,135.6c2.6,2,1.9,5.5-1.6,8.5
		C138,141.2,138.2,138.5,139.3,135.6z M131.4,143.2c2.3,2.1,2.4,5,3.1,7.6c0.1,0.3-0.3,0.6-0.5,1.2c-3.7-2.9-6.9-5.8-8.6-9.8
		c-0.3-0.6-0.2-1.4-0.3-2.5C128,140.5,129.8,141.7,131.4,143.2z M133.3,156.9c0,0.5,0,1-0.1,1.5c0,0.3-0.2,0.6-0.3,1
		c-5.2-0.3-11-2.8-12.5-5.3C123.2,152.7,128.7,153.8,133.3,156.9z"/>
	<path class="st0" d="M520.7,257.4c-1.2-0.8-2.9-1-4.4-1.1c-1.9-0.1-3.8,0.2-6.4,0.5c1.7-1.6,2.9-2.6,4-3.7c2.1-2,3.8-4.3,4.5-7.2
		c0.4-1.8,0.4-3.6-1.2-4.9c-1.7-1.3-3.8-1.7-5.6-0.7c-1.6,0.9-2.9,2.3-4.3,3.6c-0.8,0.8-1.5,1.8-2.3,2.8c-0.7-1.7-1.1-3.3-1.9-4.4
		c-1.9-2.7-4.6-2.8-6.6-0.2c-1,1.3-1.7,2.9-2.2,4.4c-1.2,4-0.1,7.6,1.8,11.2c1.6,2.9,1,5.1-1.5,7.2c-0.7,0.6-1.4,1.2-2.2,1.8
		c-1.2-17.3-4.8-34.3-10.8-50.5c-1.2-3.1-4.7-4.7-7.8-3.6c-3.1,1.2-4.8,4.7-3.6,7.8c7,18.9,10.6,38.7,10.6,59
		c0,11.5-1.2,23-3.4,34.1c-0.7,3.3,1.4,6.5,4.7,7.2c0.4,0.1,0.8,0.1,1.2,0.1c2.8,0,5.4-2,6-4.9c2.4-12,3.7-24.3,3.7-36.6
		c0-2.3-0.1-4.6-0.2-6.9c1.8-1.8,3.6-3.5,5.4-5.2c1.2-1.1,2.5-1.4,4.2-1.3c4.4,0.2,8.9,0.2,13.3,0.1c1.7-0.1,3.6-0.6,5-1.4
		C523.6,263,523.6,259.2,520.7,257.4z M499.2,252.8c-2.4-3-1.9-6.9,1.1-8.6C501.4,247.3,500.2,250,499.2,252.8z M504.3,254.7
		c2.2-3.3,4.4-6.6,6.7-9.8c0.8-1.1,2.1-2.4,3.6-1.3c1.4,1.1,0.2,2.5-0.5,3.5c-2.3,3.9-6.2,6-9.9,9.1
		C504.3,255.4,504.2,255,504.3,254.7z M507.9,262.1c3.3-2.2,8.5-2.8,10.9-1.3C517.1,262.5,512.6,263.1,507.9,262.1z"/>
</g>
</svg>
