<?xml version="1.0" encoding="utf-8"?>
<!-- Generator: Adobe Illustrator 25.3.0, SVG Export Plug-In . SVG Version: 6.00 Build 0)  -->
<svg version="1.1" id="Capa_1" xmlns="http://www.w3.org/2000/svg" xmlns:xlink="http://www.w3.org/1999/xlink" x="0px" y="0px"
	 viewBox="0 0 566.9 566.9" style="enable-background:new 0 0 566.9 566.9;" xml:space="preserve">
<style type="text/css">
	.st0{fill:#020203;}
</style>
<g>
	<path class="st0" d="M83,356.7c11.7-7.2,23.2-16.6,34.5-28.1c11.3-11.6,21.5-24.1,30.5-37.5c11.1,0.6,19.4,2,24.7,4.1
		c0.5-0.7,0.6-1.5,0.4-2.4c-0.2-0.9-1.2-1.9-3-3.1c-4.2-2.7-9.9-4.8-17.2-6.1c1.4-2.3,2.7-4.6,4.1-7c11.8-21,22.5-42.8,32-65.7
		c9.5-22.8,14.2-38.7,14.2-47.6c0-4.7-0.5-9.3-1.5-13.7c-1-4.4-2.9-8.6-5.7-12.6c-4.1-5.8-8.6-10.5-13.5-14.1
		c-4.9-3.6-9.3-5.5-13.1-5.7c-6,0.2-14.3,2.8-24.9,7.6c-10.6,4.8-21.6,10.8-32.8,17.9c-11.3,7.1-20.8,14.1-28.6,21
		c-7.8,6.9-11.9,12.5-12.2,16.7c0.3,8.3,2.4,15.3,6.4,20.9c3.9,5.6,7.6,8.5,11,8.8c0.5,0,1.2-0.1,2-0.3c0.8-0.2,1.5-0.6,2.1-1.2
		c0.6-0.6,1-1.3,1-2.3c-0.1-0.7-0.3-1.2-0.7-1.5s-0.8-0.5-1.4-0.6c-0.5-0.2-1.1-0.4-1.6-0.8c-0.5-0.3-0.8-1-0.8-1.9
		c0.6-3.9,6.3-10.5,17-20c10.7-9.5,22.6-18.4,35.6-26.8c13-8.4,23.4-12.8,31.1-13.3c3.9,0,6.8,0.7,8.4,2.1c1.7,1.4,2.5,3.3,2.5,5.5
		c0,9.9-4.8,26.6-14.3,50.1c-9.5,23.5-20.3,44.8-32.3,63.9c-4.1,6.4-8.3,12.5-12.6,18.1c-9,0-18.1,0.7-27.4,2
		c-9.3,1.4-18.3,3.4-27,6.2c-8.7,2.7-16.5,6.2-23.4,10.4c-6.9,4.2-12.4,9.2-16.5,15.1c-4.1,5.8-6.1,12.6-6.1,20.1c0,0.4,0,0.8,0,1.3
		c-0.8,4.6,0.5,10.7,3.7,18.3c2.3,4.6,5.6,8,9.7,10c4.2,2,8.6,3,13.1,3C60.5,367.5,71.3,363.9,83,356.7z M37.2,338
		c-1-0.8-1.6-1.7-1.7-2.8c-0.1-1.1,0-2.1,0.3-3.1c0.3-1,0.7-1.7,1-2.2c7.3-11.8,18.2-20.7,32.8-26.7c14.6-6,29.9-9.7,46-11.2
		c-14.2,15.8-27.8,27.6-41,35.4c-13.1,7.9-23.8,11.8-32,11.8C40,339.2,38.2,338.8,37.2,338z"/>
	<path class="st0" d="M186.9,241.9c-3.7,9.4-5.5,18.1-5.5,26c0,6.7,1.1,12.4,3.3,17c2.2,4.6,4.9,8.3,8.2,11.1
		c3.3,2.8,6.9,4.9,10.7,6.2c3.8,1.3,7.4,1.9,10.7,1.9c7.3,0,14-1.7,20.1-5c6.1-3.3,11.7-7.5,16.7-12.5c5-5,9.4-10.2,13.2-15.5
		c3.8-5.3,7-10,9.5-14.2c0.4-0.7,0.8-1.3,1.2-1.9c0.5-0.3,0.9-0.8,1.3-1.5c2.2-3.9,5-8.8,8.1-14.7c0.1,0.4,0.2,0.8,0.3,1.2
		c1.5,6.4,3.3,12.5,5.3,18.3c1.4,4.1,2.6,8,3.7,11.6c1,3.6,1.6,7,1.6,10.1c0,5-0.8,9.3-2.6,13.2c-1.7,3.8-3.9,5.7-6.7,5.7
		c-2.6,0-6-1.3-10.5-3.9c-4.4-2.6-8.3-5.2-11.6-7.7c-0.9-0.6-1.8-0.8-2.5-0.4c-0.7,0.3-1,1.1-0.9,2.1c0.5,2.7,1.6,5.8,3.1,9.3
		c1.5,3.5,3.7,6.9,6.7,10.2c3,3.2,6.9,6,11.7,8.2c4.8,2.2,10.8,3.3,17.9,3.3c3.3,0,6.5-0.9,9.9-2.6c3.3-1.7,6.1-4.1,8.3-7.1
		c2.2-3.1,3.3-6.6,3.3-10.7c0-2.6-0.5-5.7-1.6-9.3c-1-3.6-2.3-7.4-3.8-11.5c-1.9-5.5-3.7-11.3-5.4-17.4c-1.7-6.1-2.5-12.1-2.5-18.1
		c0-5.3,1.1-10.4,3.2-15.1c2.1-4.7,4.8-8.9,7.9-12.4c3.1-3.5,6.3-6.4,9.5-8.5c3.2-2.1,5.9-3.1,8.1-3.1c1.5,0,2.2,0.6,2.2,1.9
		c0,1.3-0.4,2.9-1.2,4.8c-0.8,1.9-1.7,3.9-2.7,6c-0.9,1.9-1.7,3.7-2.4,5.4c-0.7,1.7-1.1,3-1.1,4.1c0,1.1,0.5,1.6,1.7,1.6
		c1.8,0,3.8-1.3,6-3.9c2.2-2.6,4.4-5.6,6.4-9c2-3.4,3.8-6.5,5.2-9.3c1.4-2.8,2.1-4.4,2.1-4.8c0-2.3-2.2-5.3-6.6-8.9
		c-4.4-3.6-9.5-6.8-15.3-9.6c-5.8-2.8-10.8-4.2-15.1-4.2c-4,0-8.5,2.2-13.5,6.7c-5,4.5-9.3,10.1-13.1,16.8
		c-3.7,6.7-5.9,13.7-6.5,20.8c-1.1,2.1-2.6,4.9-4.6,8.4c-2,3.5-3.9,7-5.9,10.4c-0.7,1.3-1.4,2.5-2,3.5c0,0,0,0-0.1,0.1
		c-0.8,1.2-2,2.8-3.4,4.8c-2.4,3.4-5.3,7.4-8.7,11.8c-3.4,4.5-7.1,8.9-11,13.2c-3.9,4.3-7.9,7.9-11.9,10.8c-4,2.9-7.7,4.4-11.2,4.4
		c-5.3,0-9.3-1.5-12-4.5c-2.7-3-4-7.2-4-12.8c0-5,1.1-10.6,3.4-16.6c0.1,0.1,0.2,0.1,0.2,0.2c1.3,0.8,2.9,1.5,5,2
		c2,0.5,4.6,0.8,7.6,0.8c3.6,0,7.9-1.4,12.8-4.1c4.9-2.7,9.7-6.3,14.3-10.6c4.6-4.3,8.4-8.9,11.5-13.9c3-4.9,4.6-9.7,4.6-14.1
		c0-1.6-0.2-3.8-0.5-6.5c-0.3-2.7-1.1-5.5-2.3-8.4c-1.2-2.9-3.1-5.4-5.6-7.5c-3-2.5-6.7-4.3-11-5.6c-4.3-1.3-8.7-1.9-13.1-1.9
		c-5,0-10.5,2.7-16.7,8.1c-6.2,5.4-12.1,12.3-17.7,20.7C195.2,223.6,190.5,232.5,186.9,241.9z M227.2,228.1
		c5.2-7.3,10.4-13.4,15.5-18.2c5.2-4.8,9.2-7.2,12-7.2c1.6,0,2.7,0.5,3.2,1.5c0.5,1,0.8,2.2,0.8,3.6c0,4.7-2.1,9.5-6.1,14.3
		c-4.1,4.8-9.1,9.2-14.9,13.2c-5.8,4-11.5,7.2-17.1,9.5c-1.6,0.7-3.2,1.3-4.6,1.7C219.3,240.2,223,234,227.2,228.1z"/>
	<path class="st0" d="M421.8,172.8c0.3,0.3,0.7,0.5,1,0.6c0.4,0.1,0.9-0.1,1.5-0.6c2-1.8,5.3-3.7,9.8-5.9c4.5-2.2,9.2-4.1,13.9-5.8
		c4.8-1.7,8.5-2.7,11.2-3c0.2,0,0.3,0,0.4,0.1c0.1,0.1,0.2,0.2,0.3,0.2c0.2,0.2,0.3,0.3,0.4,0.4c0.1,0.1,0.3,0.1,0.4,0.1
		c0.2,0,0.3-0.1,0.5-0.2c0.2-0.1,0.3-0.3,0.4-0.4c0.1-0.8-0.5-2-2-3.5c-1.5-1.5-3.3-3-5.5-4.6c-2.1-1.6-4.1-2.7-5.9-3.5
		c-2.1-0.1-4.8,0.6-8.3,2.2s-7,3.6-10.6,5.9c-3.6,2.3-6.7,4.5-9.2,6.6c-2.5,2.1-3.8,3.5-3.9,4.2c0.2,0.7,0.8,1.8,1.9,3.3
		C419.3,170.4,420.5,171.7,421.8,172.8z"/>
	<path class="st0" d="M525.4,217c-0.9,1.9-1.7,3.7-2.4,5.4c-0.7,1.7-1.1,3-1.1,4.1c0,1.1,0.5,1.6,1.7,1.6c1.8,0,3.8-1.3,6-3.9
		c2.2-2.6,4.4-5.6,6.4-9c2-3.4,3.8-6.5,5.2-9.3c1.4-2.8,2.1-4.4,2.1-4.8c0-2.3-2.2-5.3-6.6-8.9c-4.4-3.6-9.5-6.8-15.3-9.6
		c-5.8-2.8-10.8-4.2-15.1-4.2c-4,0-8.5,2.2-13.5,6.7c-5,4.5-9.3,10.1-13.1,16.8c-3.7,6.7-5.9,13.7-6.5,20.8
		c-1.1,2.1-2.6,4.9-4.6,8.4c-2,3.5-3.9,7-5.9,10.4c-0.2,0.3-0.3,0.5-0.4,0.8c-0.9,1.4-2.1,3.4-3.7,6.2c-3,5.3-6.7,11.3-11,18.2
		c-4.3,6.9-8.5,12.8-12.6,17.6c-4.1,4.8-7.4,6.8-9.7,6c-2.2-1.4-2.6-5.1-1.3-11.3c1.3-6.1,3.7-13.4,7.3-21.8
		c3.6-8.4,7.8-16.8,12.5-25.2c4.7-8.3,9.4-15.4,13.9-21.1c0.8-0.9,1.5-1.7,2.3-2.7c1.2-1.4,2.3-2.7,3.2-3.9c0.9-1.2,1.4-2.2,1.5-3
		c-0.5-4.4-3.2-7.9-8.4-10.6c-5.1-2.7-10.4-4-15.8-4c-0.8,0-3.2,2.9-7.2,8.6c-4,5.7-8.5,13-13.4,21.7c-4.9,8.8-9.4,18-13.4,27.7
		c-0.2,0.2-0.4,0.3-0.6,0.6c-0.2,0.3-0.5,0.7-0.9,1.3c-1.7,2.4-4.4,6.1-8.1,11.1c-3.7,5-7.7,10.2-12.2,15.6
		c-4.5,5.4-8.6,9.8-12.5,13.2c-3.9,3.4-6.8,4.7-8.9,3.8c-2.3-1.4-2.7-5.1-1.4-11.3c1.3-6.1,3.8-13.4,7.4-21.8
		c3.6-8.4,7.7-16.8,12.4-25.2c4.7-8.3,9.3-15.4,14-21.1c0.7-0.9,1.5-1.7,2.3-2.7c1.2-1.4,2.2-2.7,3.2-3.9c1-1.2,1.5-2.2,1.5-3
		c-0.4-4.4-3.1-7.9-8.2-10.6c-5.1-2.7-10.4-4-15.8-4c-0.8,0-3.5,3.2-7.9,9.5c-4.4,6.3-9.2,14.3-14.5,23.9
		c-5.3,9.5-9.9,19.5-13.9,29.8c-4,10.3-6,19.5-6,27.4c0,7.3,2.4,13.7,7.3,19.3c4.9,5.6,10.3,8.4,16.4,8.4c3.6,0,7.7-1.7,12.2-5.2
		c4.5-3.5,9-7.7,13.6-12.8c4.6-5.1,8.9-10.2,12.8-15.5c-0.2,2-0.3,3.9-0.3,5.8c0,7.3,2.4,13.7,7.3,19.3c4.8,5.6,10.3,8.4,16.4,8.4
		c4,0,8.4-2.3,13.1-6.9c4.7-4.6,9.4-10.1,13.9-16.5c4.6-6.4,8.6-12.6,12.1-18.6c3.5-6,6.1-10.5,7.8-13.6c0.6-1.2,1-2,1.3-2.5
		c1.3-2.4,2.7-5,4.3-7.8c0.1,0.4,0.2,0.8,0.3,1.2c1.6,6.4,3.3,12.5,5.3,18.3c1.4,4.1,2.6,8,3.7,11.6c1,3.6,1.6,7,1.6,10.1
		c0,5-5.4,3-10.4,17.9c-9,26.5-12.7,46.7-21.1,43.9c-60-19.8-124.8-8.9-129.8-7.7c-63.5,15.4-114.2,61-111.1,66.1
		c37.4,61.8,106.6,53.3,145.4,46.1c61.6-11.4,85-46.3,102.6-67.7c2.4-3,63.4,42.3,66.3,45.6c3,3.2,21-19.7,0-47.5
		c-12.4-16.5-46.4-20.7-48.7-27.4c-1.3-3.9,18-30.2,21.3-31.9c3.3-1.7,6.1-4.1,8.3-7.1c2.2-3.1,3.3-6.6,3.3-10.7
		c0-2.6-0.5-5.7-1.6-9.3c-1-3.6-2.3-7.4-3.8-11.5c-1.9-5.5-3.7-11.3-5.4-17.4c-1.7-6.1-2.5-12.1-2.5-18.1c0-5.3,1.1-10.4,3.2-15.1
		c2.1-4.7,4.8-8.9,7.9-12.4c3.1-3.5,6.3-6.4,9.5-8.5c3.2-2.1,5.9-3.1,8.1-3.1c1.5,0,2.2,0.6,2.2,1.9c0,1.3-0.4,2.9-1.2,4.8
		C527.3,212.9,526.4,214.9,525.4,217z M240.5,400.3c-7.8-6.9,115.3-75.8,192.9-34.2C443.8,371.7,318.5,469.1,240.5,400.3z"/>
	<path class="st0" d="M50.8,419.6c-23.2,27.8,12.4,45.6,12.4,45.6s18.3-54.6,70.2-89.5c32.6-21.9,106.7-50,106.7-50
		S133.1,320.8,50.8,419.6z"/>
	<path class="st0" d="M281.2,386c-5.2,0-9.5,4.2-9.5,9.5c0,5.2,4.2,9.5,9.5,9.5c5.2,0,9.5-4.2,9.5-9.5
		C290.7,390.2,286.4,386,281.2,386z"/>
</g>
</svg>
