<?xml version="1.0" encoding="utf-8"?>
<!-- Generator: Adobe Illustrator 25.3.0, SVG Export Plug-In . SVG Version: 6.00 Build 0)  -->
<svg version="1.1" id="Capa_1" xmlns="http://www.w3.org/2000/svg" xmlns:xlink="http://www.w3.org/1999/xlink" x="0px" y="0px"
	 viewBox="0 0 566.9 566.9" style="enable-background:new 0 0 566.9 566.9;" xml:space="preserve">
<style type="text/css">
	.st0{fill:#FFFFFF;}
</style>
<polygon points="474.7,425.7 494.6,373.1 70.5,373.1 93.5,425.7 70.5,477.7 494.6,477.7 "/>
<g>
	<path d="M112,271.8h34.3v11.7h-21.7v21.7h17.2V317h-17.2v25.3h21.7V354H112V271.8z"/>
	<path d="M153.5,271.8h15.8l12.2,49.2h0.2v-49.2h11.2V354h-12.9l-15.1-60h-0.2v60h-11.2V271.8z"/>
	<path d="M219.7,335v-44.1c0-12.7,6.4-20.2,18.5-20.2c12.1,0,18.5,7.5,18.5,20.2v8.7h-11.9V290c0-5.4-2.5-7.6-6.3-7.6
		c-3.8,0-6.3,2.2-6.3,7.6V336c0,5.4,2.5,7.5,6.3,7.5c3.8,0,6.3-2.1,6.3-7.5v-12.6h11.9V335c0,12.7-6.4,20.2-18.5,20.2
		C226.1,355.2,219.7,347.7,219.7,335z"/>
	<path d="M264.3,271.8h18.6c13,0,18.6,6.2,18.6,18.9v5.1c0,8.5-2.6,13.9-8.2,16.2v0.2c6.3,2,8.3,8.1,8.3,17.4v14.4
		c0,4,0.1,6.9,1.4,10h-12.8c-0.7-2.1-1.1-3.4-1.1-10.1v-15c0-7.6-2.2-10.1-7.9-10.1h-4.3V354h-12.6V271.8z M281.4,307.1
		c4.7,0,7.5-2.1,7.5-8.7V292c0-5.9-1.9-8.5-6.4-8.5h-5.7v23.5H281.4z"/>
	<path d="M310.3,271.8h12.6V354h-12.6V271.8z"/>
	<path d="M330.1,334.5v-4.7H342v5.6c0,5.9,2.5,8,6.5,8c4,0,6.5-2.1,6.5-8.2c0-6.8-2.5-11.2-10.7-18.5c-10.5-9.5-13.9-16.2-13.9-25.6
		c0-12.9,6.5-20.4,18.7-20.4c12.2,0,18.3,7.5,18.3,20.7v3.4h-11.9v-4.2c0-5.9-2.3-8.1-6.3-8.1c-4,0-6.3,2.2-6.3,7.9
		c0,6,2.6,10.3,10.8,17.7c10.5,9.5,13.8,16.1,13.8,26.3c0,13.4-6.6,20.9-18.9,20.9C336.3,355.2,330.1,347.7,330.1,334.5z"/>
	<path d="M384.6,283.6h-13.1v-11.7h38.8v11.7h-13.1V354h-12.6V283.6z"/>
	<path d="M415,334.5v-43.2c0-13.2,6.7-20.7,19.1-20.7c12.3,0,19.1,7.5,19.1,20.7v43.2c0,13.2-6.7,20.7-19.1,20.7
		C421.7,355.2,415,347.7,415,334.5z M440.6,335.4v-44.9c0-5.9-2.5-8.1-6.5-8.1c-4,0-6.5,2.2-6.5,8.1v44.9c0,5.9,2.5,8.1,6.5,8.1
		C438,343.5,440.6,341.2,440.6,335.4z"/>
</g>
<g>
	<path class="st0" d="M127.6,412.8V438c0,3-0.6,5.5-1.7,7.5c0.7,0.9,1.8,1.2,3.2,1.2l-0.6,6.7c-3,0-5.4-1.2-6.8-4
		c-1.2,0.5-2.6,0.8-4,0.8c-6.2,0-10-4.6-10-12.2v-25.1c0-7.6,3.8-12.2,10-12.2S127.6,405.3,127.6,412.8z M113.9,412.9v25
		c0,3.6,1.3,5.5,3.8,5.5c2.5,0,3.8-1.9,3.8-5.5v-25c0-3.6-1.3-5.5-3.8-5.5C115.2,407.4,113.9,409.3,113.9,412.9z"/>
	<path class="st0" d="M152.5,438.7c0,7.6-3.7,11.5-9.6,11.5c-5.8,0-9.5-3.9-9.5-11.5v-37.3h6v37.1c0,3.5,1.3,4.8,3.5,4.8
		c2.2,0,3.5-1.3,3.5-4.8v-37.1h6.2V438.7z"/>
	<path class="st0" d="M176.2,408.1H165v13.6h9v6.7h-9v14.3h11.2v6.7h-17.4v-48.1h17.4V408.1z"/>
	<path class="st0" d="M218.8,449.4h-6.2v-33.4h-0.1l-5.1,26.5h-3.7l-5.1-26.5h-0.1v33.4h-5.8v-48.1h8.1l4.8,25.8h0.1l4.8-25.8h8.3
		V449.4z"/>
	<path class="st0" d="M242.9,408.1h-11.2v13.6h9v6.7h-9v14.3h11.2v6.7h-17.4v-48.1h17.4V408.1z"/>
	<path class="st0" d="M276.4,408.1h-10.9v13.6h8.8v6.7h-8.8v21h-6.2v-48.1h17.1V408.1z"/>
	<path class="st0" d="M299.6,412.8V438c0,7.6-3.8,12.2-10,12.2s-10-4.6-10-12.2v-25.1c0-7.6,3.8-12.2,10-12.2
		S299.6,405.3,299.6,412.8z M285.8,412.9v25c0,3.6,1.3,5.5,3.8,5.5c2.5,0,3.8-1.9,3.8-5.5v-25c0-3.6-1.3-5.5-3.8-5.5
		C287.2,407.4,285.8,409.3,285.8,412.9z"/>
	<path class="st0" d="M319.6,449.4l-4.9-20.3h-2.9v20.3h-6.2v-48.1h8.9c6.7,0,10.3,4.3,10.3,12.2v3.4c0,5.1-1.5,8.6-4.4,10.6
		l5.7,21.9H319.6z M311.8,408.1v14.3h2.5c3,0,4.3-1.8,4.3-5.9V414c0-4.1-1.3-5.9-4.3-5.9H311.8z"/>
	<path class="st0" d="M346.9,408.2h-6.6v41.2h-6.2v-41.2h-6.6v-6.9h19.4V408.2z"/>
	<path class="st0" d="M368.6,449.4h-6.3l-1.3-10.9h-6.8l-1.3,10.9h-6.2l7.1-48.1h7.9L368.6,449.4z M357.5,411.7l-2.5,20.3h5.2
		l-2.5-20.3H357.5z"/>
	<path class="st0" d="M379.3,442.6h10.3v6.9h-16.5v-48.1h6.2V442.6z"/>
	<path class="st0" d="M411,408.1h-11.2v13.6h9v6.7h-9v14.3H411v6.7h-17.4v-48.1H411V408.1z"/>
	<path class="st0" d="M434.8,412.2v4.3l-6,0.3V413c0-3.8-1.2-5.6-3.5-5.6s-3.5,1.7-3.5,4.9v26.2c0,3.2,1.2,4.9,3.5,4.9
		s3.5-1.7,3.5-5.6v-5.3l6,0.3v5.8c0,7.3-3.6,11.5-9.6,11.5c-6,0-9.5-4.3-9.5-11.5v-26.4c0-7.3,3.5-11.5,9.5-11.5
		C431.2,400.7,434.8,405,434.8,412.2z"/>
	<path class="st0" d="M457.4,408.1h-11.2v13.6h9v6.7h-9v14.3h11.2v6.7H440v-48.1h17.4V408.1z"/>
</g>
<g>
	<path d="M377.3,491.9h-4.8v5h3.8v2.5h-3.8v7.8h-2.7v-17.8h7.4V491.9z"/>
	<path d="M381.8,507.2h-2.7v-17.8h2.7V507.2z"/>
	<path d="M387.4,504.7h4.5v2.5h-7.2v-17.8h2.7V504.7z"/>
	<path d="M396.3,507.2h-2.7v-17.8h2.7V507.2z"/>
	<path d="M407.6,493.9v1.4c0,2.9-1.6,4.5-4.5,4.5h-1.2v7.4h-2.7v-17.8h3.9C406,489.5,407.6,491,407.6,493.9z M401.9,491.9v5.4h1.1
		c1.3,0,1.9-0.7,1.9-2.2v-1.1c0-1.5-0.6-2.2-1.9-2.2H401.9z"/>
	<path d="M417.1,491.9h-4.9v5h3.9v2.5h-3.9v5.3h4.9v2.5h-7.6v-17.8h7.6V491.9z"/>
	<path d="M428.2,507.2h-2.6l-3.5-11.8H422v11.8h-2.5v-17.8h3l3.2,10.6h0.1v-10.6h2.5V507.2z"/>
	<path d="M438.3,493.2v0.5l-2.6,0.3v-0.7c0-1-0.5-1.5-1.4-1.5c-0.9,0-1.4,0.5-1.4,1.5v0.2c0,1,0.5,1.9,2.3,3.5
		c2.5,2.1,3.4,3.6,3.4,5.7v0.9c0,2.5-1.5,4-4.2,4c-2.7,0-4.2-1.4-4.2-4v-1.2l2.6-0.3v1.3c0,1.1,0.5,1.7,1.5,1.7c1,0,1.5-0.6,1.5-1.7
		v-0.6c0-1.1-0.5-2-2.3-3.5c-2.5-2.1-3.3-3.6-3.3-5.6v-0.4c0-2.5,1.4-4,4-4C436.8,489.2,438.3,490.6,438.3,493.2z"/>
	<path d="M447.8,491.9h-4.9v5h3.9v2.5h-3.9v5.3h4.9v2.5h-7.6v-17.8h7.6V491.9z"/>
	<path d="M457.2,493.2v0.5l-2.6,0.3v-0.7c0-1-0.5-1.5-1.4-1.5c-0.9,0-1.4,0.5-1.4,1.5v0.2c0,1,0.5,1.9,2.3,3.5
		c2.5,2.1,3.4,3.6,3.4,5.7v0.9c0,2.5-1.5,4-4.2,4c-2.7,0-4.2-1.4-4.2-4v-1.2l2.6-0.3v1.3c0,1.1,0.5,1.7,1.5,1.7c1,0,1.5-0.6,1.5-1.7
		v-0.6c0-1.1-0.5-2-2.3-3.5c-2.5-2.1-3.3-3.6-3.3-5.6v-0.4c0-2.5,1.4-4,4-4C455.8,489.2,457.2,490.6,457.2,493.2z"/>
	<path d="M471,501h1.2v2.5H471v3.8h-2.7v-3.8h-5.6v-2.2l5.7-11.8h2.7V501z M468.2,494.6l-2.9,6.4h3L468.2,494.6L468.2,494.6z"/>
	<path d="M477,497.1h-2.8v-2.8h2.8V497.1z M477,507.2h-2.8v-2.8h2.8V507.2z"/>
	<path d="M485.4,507.2h-2.7v-13.7H479v-1.9c2.2-0.2,4-0.9,4.5-2.2h1.9V507.2z"/>
	<path d="M496.2,493.6v1c0,1.7-0.6,2.8-2,3.3v0c1.4,0.6,2.1,1.9,2.1,3.8v1.3c0,2.7-1.6,4.4-4.3,4.4s-4.3-1.6-4.3-4.3v-1.1l2.6-0.1
		v0.9c0,1.4,0.5,2.1,1.7,2.1c1.1,0,1.7-0.7,1.7-2.1v-1.4c0-1.6-0.6-2.3-2-2.3h-1.1v-2.5h1.1c1.2,0,1.8-0.7,1.8-2.2v-1
		c0-1.3-0.6-2-1.6-2c-1,0-1.5,0.7-1.5,2.1v0.9l-2.6-0.1v-1.1c0-2.7,1.6-4.3,4.2-4.3C494.7,489.2,496.2,490.8,496.2,493.6z"/>
</g>
<g>
	<path d="M112,235.1h3.7v-32.3H112V184h24.3v18.7h-4.9v32.3h6.7v-10.9h15.6v29.4H112V235.1z M149,247.6v-17.4h-6.8v11h-15.6v-44.5
		h4.9v-6.6h-14.9v6.6h3.7v44.5h-3.7v6.5H149z"/>
	<path d="M195.8,241.1l-9.3,12.5h-19.7l-9.1-12.5V196l9.1-12h19.7l9.3,12.6V241.1z M184.7,190.1h-15.3l-6.9,8.8v39.9l6.4,8.9h15.9
		l6.4-8.9v-39.9L184.7,190.1z M184.8,237.2l-2.7,3.9h-10.5l-3-3.9v-36.8l3-3.8h10.5l2.7,3.8V237.2z M173.4,202.7v32.3h6.7v-32.3
		H173.4z"/>
	<path d="M227.9,235.1h3.7v-32.3h-3.7V184h32.3l9,12.6v22.5l-9,12.4h-13.1v3.4h3.9v18.6h-23.2V235.1z M246.3,247.6v-6.5h-3.8v-15.5
		H258l6.4-8.6v-18.2l-6.4-8.8h-25.4v6.6h3.7v44.5h-3.7v6.5H246.3z M258.1,215.5l-2.8,3.7h-12.8v-22.5h12.8l2.8,3.7V215.5z
		 M247.3,202.7V213h6.1v-10.3H247.3z"/>
	<path d="M318.5,202.7h-4.1v38.4l-9.3,12.5h-19.3l-9-12.5v-38.4h-3.7V184h21.1v17.5H292v33.5h6.3v-33.5h-2V184h22.2V202.7z
		 M300.8,190.1v6.6h2.4v40.8l-2.9,3.7h-10.3l-2.7-3.7v-40.8h2.2v-6.6h-12.2v6.6h3.7V239l6.4,8.6h15.9l6.4-8.6v-42.4h4.2v-6.6H300.8z
		"/>
	<path d="M322.5,235.1h3.6v-32.3h-3.6V184h41.8v22.3h-15.7v-3.7h-6.6v6.9h12.3v17.6h-12.3v7.8h6.6v-4.7h15.7v23.3h-41.8V235.1z
		 M359.5,247.6v-11.2h-6.3v4.7h-16v-20h12.4v-5.5h-12.4v-18.9h16v3.8h6.3v-10.3h-32.3v6.6h3.7v44.5h-3.7v6.5H359.5z"/>
	<path d="M368.5,235.1h3.7v-32.3h-3.7V184h32.7l9,12.6v44.5l-9,12.5h-32.7V235.1z M399.1,247.6l6.4-8.6v-40.2l-6.4-8.8h-25.9v6.6
		h3.7v44.5h-3.7v6.5H399.1z M383.2,196.6h13.3l2.7,4v36.9l-2.7,3.5h-13.3V196.6z M394.5,235.1v-32.3h-6.6v32.3H394.5z"/>
	<path d="M453.1,241.1l-9.3,12.5h-19.7l-9.1-12.5V196l9.1-12h19.7l9.3,12.6V241.1z M442,190.1h-15.3l-6.9,8.8v39.9l6.4,8.9H442
		l6.4-8.9v-39.9L442,190.1z M442.1,237.2l-2.7,3.9H429l-3-3.9v-36.8l3-3.8h10.5l2.7,3.8V237.2z M430.7,202.7v32.3h6.7v-32.3H430.7z"
		/>
</g>
<g>
	<path d="M187.7,68h-25.4v106.7h-24.9V68H112V48.1h75.7V68z"/>
	<path d="M234.4,176.1c-10.9,0-19.6-2.5-26.3-7.4c-7.5-5.8-11.3-13.7-11.3-23.7V77.7c0-10,3.8-17.9,11.3-23.7
		c6.7-4.9,15.4-7.4,26.3-7.4c10.9,0,19.6,2.5,26.3,7.4c7.6,5.8,11.3,13.7,11.3,23.7V145c0,10-3.8,17.9-11.3,23.7
		C254,173.6,245.3,176.1,234.4,176.1z M234.4,66.5c-4.2,0-7.3,0.7-9.3,2.2c-2.3,1.7-3.4,4.7-3.4,9.1V145c0,4.3,1.1,7.4,3.4,9
		c2,1.4,5.1,2.2,9.3,2.2c4.4,0,7.5-0.7,9.3-2.2c2.3-1.6,3.4-4.6,3.4-9V77.7c0-4.5-1.1-7.5-3.4-9.1C241.9,67.2,238.8,66.5,234.4,66.5
		z"/>
	<path d="M325.7,174.7h-37.6V48.1h37.6c10.7,0,19.5,2.5,26.3,7.6c7.5,5.5,11.3,13.4,11.3,23.5v65.1c0,4.9-0.9,9.3-2.7,13.2
		c-2.1,4.1-5.1,7.5-8.9,10.1C345.3,172.3,336.6,174.7,325.7,174.7z M313,154.8h12.7c4.5,0,7.7-0.7,9.5-2c2.1-1.4,3.2-4.3,3.2-8.5
		V79.2c0-4.2-1.1-7.2-3.4-9c-2-1.5-5.1-2.2-9.3-2.2H313V154.8z"/>
	<path d="M415.5,176.1c-10.9,0-19.6-2.5-26.3-7.4c-7.5-5.8-11.3-13.7-11.3-23.7V77.7c0-10,3.8-17.9,11.3-23.7
		c6.7-4.9,15.4-7.4,26.3-7.4c10.9,0,19.6,2.5,26.3,7.4c7.6,5.8,11.3,13.7,11.3,23.7V145c0,10-3.8,17.9-11.3,23.7
		C435.1,173.6,426.4,176.1,415.5,176.1z M415.5,66.5c-4.2,0-7.3,0.7-9.3,2.2c-2.3,1.7-3.4,4.7-3.4,9.1V145c0,4.3,1.1,7.4,3.4,9
		c2,1.4,5.1,2.2,9.3,2.2c4.4,0,7.5-0.7,9.3-2.2c2.3-1.6,3.4-4.6,3.4-9V77.7c0-4.5-1.1-7.5-3.4-9.1C423,67.2,419.9,66.5,415.5,66.5z"
		/>
</g>
</svg>
