<?xml version="1.0" encoding="utf-8"?>
<!-- Generator: Adobe Illustrator 25.3.0, SVG Export Plug-In . SVG Version: 6.00 Build 0)  -->
<svg version="1.1" id="Capa_1" xmlns="http://www.w3.org/2000/svg" xmlns:xlink="http://www.w3.org/1999/xlink" x="0px" y="0px"
	 viewBox="0 0 566.9 566.9" style="enable-background:new 0 0 566.9 566.9;" xml:space="preserve">
<style type="text/css">
	.st0{fill:#020203;}
	.st1{fill:#FFFFFF;}
</style>
<g>
	<g>
		<path class="st0" d="M95.7,114.2V92.1h16.4c0,1.8,0.4,3.3,1.2,4.4c0.8,1.1,1.8,2,2.9,2.7c1.1,0.6,2.3,1.1,3.6,1.3
			c1.3,0.2,2.4,0.4,3.3,0.4c0.8,0,1.6-0.1,2.5-0.2c0.9-0.1,1.7-0.3,2.4-0.7c0.7-0.3,1.4-0.8,1.9-1.3c0.5-0.6,0.7-1.3,0.7-2.2
			c0-1.1-0.8-2-2.5-2.8c-1.7-0.7-3.7-1.5-6.2-2.2c-2.5-0.7-5.2-1.5-8.1-2.4c-2.9-0.9-5.6-2.2-8.1-3.7c-2.5-1.6-4.6-3.6-6.2-6
			c-1.7-2.4-2.5-5.5-2.5-9.3c0-3.2,0.7-6,2.1-8.4c1.4-2.4,3.1-4.4,5.2-5.9c2.1-1.5,4.3-2.7,6.8-3.4s4.7-1.1,6.9-1.1
			c1.8,0,3.6,0.2,5.4,0.5c1.8,0.3,3.5,0.8,5.2,1.5c1.6,0.7,3.1,1.6,4.4,2.8c1.3,1.1,2.4,2.5,3.3,4.2l0.9-7.4h15.1v22.1h-15.9
			c0-1.6-0.3-3.1-0.9-4.4c-0.6-1.3-1.4-2.3-2.4-3.2c-1-0.9-2.2-1.5-3.6-2c-1.4-0.4-2.8-0.7-4.4-0.7c-0.6,0-1.3,0.1-2,0.3
			c-0.7,0.2-1.4,0.5-2,0.9c-0.6,0.4-1.1,0.9-1.5,1.5c-0.4,0.6-0.6,1.3-0.6,2c0,1.5,0.9,2.8,2.6,3.8c1.7,1,3.9,1.9,6.5,2.8
			c2.6,0.9,5.4,1.8,8.3,2.9c3,1,5.8,2.3,8.4,3.8c2.6,1.5,4.7,3.4,6.5,5.7c1.7,2.3,2.6,5.2,2.6,8.6c0,3.5-0.7,6.4-2.2,8.7
			c-1.4,2.3-3.3,4.3-5.5,5.8c-2.3,1.5-4.8,2.6-7.5,3.2c-2.8,0.6-5.5,1-8.1,1c-2.2,0-4.3-0.2-6.2-0.7c-1.9-0.5-3.6-1.1-5.1-1.9
			c-1.5-0.8-2.9-1.6-4.1-2.6c-1.2-1-2.2-1.9-3-2.9l-1,6.8H95.7z"/>
	</g>
	<g>
		<path class="st0" d="M227,114.2h-35.3v-11.5h8.3l-1.8-6h-18l-1.9,6h6.9v11.5h-28v-11.5h6l11.9-38.6h-3.6V52.8h33.8l15.6,49.9h6.2
			V114.2z M183.5,86.2H195l-5.8-19L183.5,86.2z"/>
	</g>
	<g>
		<path class="st0" d="M230.5,52.8h27.8v11.6h-4.7v38.2H265V91.4h14.8v22.9h-49.2v-11.7h4.8V64.4h-4.8V52.8z"/>
	</g>
	<g>
		<path class="st0" d="M345.2,68.2c-0.2,1-0.4,2.1-0.6,3.3c-0.2,1.2-0.5,2.3-0.7,3.4c-0.2,1.1-0.5,2.1-0.7,3
			c-0.2,0.9-0.4,1.6-0.5,2.2l-9.2,34.2H315l-9.8-35.1c-0.1-0.4-0.3-0.9-0.4-1.7c-0.2-0.8-0.4-1.7-0.5-2.7c-0.2-1-0.4-2.1-0.5-3.2
			c-0.2-1.1-0.3-2.2-0.4-3.3H303v34.6h5v11.3h-23.8v-11.3h4.8V64.1h-4.7V52.8h33.3l8.9,32.9l8.4-32.9h33.5v11.3h-4.8v38.7h4.8v11.4
			h-27.8v-11.4h5V68.2H345.2z"/>
	</g>
	<g>
		<path class="st0" d="M403.4,115.8c-4.6,0-8.8-0.7-12.7-2c-3.9-1.3-7.2-3.4-10-6.1c-2.8-2.7-5-6.1-6.5-10.2
			c-1.5-4.1-2.3-8.9-2.3-14.4c0-4.8,0.8-9.1,2.2-13c1.5-3.9,3.6-7.3,6.3-10.2c2.7-2.8,6-5,9.8-6.6c3.8-1.6,8-2.3,12.5-2.3
			c5.4,0,10.1,0.8,14,2.3c4,1.6,7.2,3.7,9.8,6.6c2.6,2.8,4.5,6.3,5.8,10.3c1.3,4,1.9,8.5,1.9,13.5c0,5-0.7,9.5-2,13.4
			c-1.4,4-3.3,7.3-6,10.1c-2.6,2.8-5.9,4.9-9.7,6.3C412.8,115.1,408.4,115.8,403.4,115.8z M403.4,102c1.4,0,2.6-0.4,3.7-1.3
			c1.1-0.9,2-2.1,2.8-3.7c0.8-1.6,1.4-3.5,1.8-5.7c0.4-2.2,0.6-4.7,0.6-7.5c0-2.7-0.2-5.2-0.6-7.5c-0.4-2.3-1-4.3-1.8-6.1
			c-0.8-1.7-1.8-3.1-3-4.1c-1.2-1-2.7-1.5-4.4-1.5c-1.4,0-2.6,0.5-3.7,1.4c-1.1,0.9-2,2.2-2.8,3.8c-0.8,1.6-1.4,3.6-1.8,5.9
			c-0.4,2.3-0.7,4.8-0.7,7.5c0,2.9,0.2,5.5,0.7,7.8c0.5,2.3,1.2,4.3,2,5.9c0.8,1.7,1.9,2.9,3.1,3.8C400.7,101.6,402,102,403.4,102z"
			/>
	</g>
	<g>
		<path class="st0" d="M437.8,114.2V92.1h16.4c0,1.8,0.4,3.3,1.2,4.4c0.8,1.1,1.8,2,2.9,2.7c1.1,0.6,2.3,1.1,3.6,1.3
			c1.3,0.2,2.4,0.4,3.3,0.4c0.8,0,1.6-0.1,2.5-0.2c0.9-0.1,1.7-0.3,2.4-0.7c0.7-0.3,1.4-0.8,1.9-1.3c0.5-0.6,0.7-1.3,0.7-2.2
			c0-1.1-0.8-2-2.5-2.8c-1.7-0.7-3.7-1.5-6.2-2.2c-2.5-0.7-5.2-1.5-8.1-2.4c-2.9-0.9-5.6-2.2-8.1-3.7c-2.5-1.6-4.6-3.6-6.2-6
			c-1.7-2.4-2.5-5.5-2.5-9.3c0-3.2,0.7-6,2.1-8.4c1.4-2.4,3.1-4.4,5.2-5.9c2.1-1.5,4.3-2.7,6.8-3.4c2.4-0.8,4.7-1.1,6.9-1.1
			c1.8,0,3.6,0.2,5.4,0.5c1.8,0.3,3.5,0.8,5.2,1.5c1.6,0.7,3.1,1.6,4.4,2.8c1.3,1.1,2.4,2.5,3.3,4.2l0.9-7.4h15.1v22.1h-15.9
			c0-1.6-0.3-3.1-0.9-4.4c-0.6-1.3-1.4-2.3-2.4-3.2c-1-0.9-2.2-1.5-3.6-2c-1.4-0.4-2.8-0.7-4.4-0.7c-0.6,0-1.3,0.1-2,0.3
			c-0.7,0.2-1.4,0.5-2,0.9c-0.6,0.4-1.1,0.9-1.5,1.5c-0.4,0.6-0.6,1.3-0.6,2c0,1.5,0.9,2.8,2.6,3.8c1.7,1,3.9,1.9,6.5,2.8
			c2.6,0.9,5.4,1.8,8.3,2.9c3,1,5.8,2.3,8.4,3.8c2.6,1.5,4.7,3.4,6.5,5.7c1.7,2.3,2.6,5.2,2.6,8.6c0,3.5-0.7,6.4-2.2,8.7
			c-1.4,2.3-3.3,4.3-5.5,5.8c-2.3,1.5-4.8,2.6-7.5,3.2c-2.8,0.6-5.5,1-8.1,1c-2.2,0-4.3-0.2-6.2-0.7c-1.9-0.5-3.6-1.1-5.1-1.9
			c-1.5-0.8-2.9-1.6-4.1-2.6c-1.2-1-2.2-1.9-3-2.9l-1,6.8H437.8z"/>
	</g>
</g>
<g>
	<g>
		<path class="st0" d="M129.5,349.2c6.6,3.8,14.7,8.1,24.2,12.7c9.4,4.6,20.1,6.9,31.8,6.9c14.6,0,26-4.5,34.3-13.4
			c8.3-9,12.5-21.9,12.5-38.7c-5.4,5.4-12.3,10-20.9,13.8c-8.6,3.8-18.5,5.8-29.7,5.8c-12,0-23.2-2.1-33.6-6.1
			c-10.4-4.1-19.4-9.9-27.2-17.5c-7.8-7.5-13.9-16.5-18.4-27c-4.5-10.5-6.7-22.1-6.7-34.9c0-13,2.4-25.4,7.1-37.2
			c4.7-11.8,11.5-22.1,20.3-30.9c8.8-8.8,19.6-15.8,32.4-21.1c12.8-5.2,27.2-7.9,43.4-7.9c15.9,0,30.5,2.9,43.9,8.8
			c13.4,5.9,25.1,14.3,34.9,25.1c9.8,10.9,17.5,24.2,23,39.9c5.5,15.7,8.2,33.6,8.2,53.5c0,9.7-0.6,20.1-1.9,31.1
			c-1.3,11-3.5,22-6.7,33c-3.2,11-7.5,21.6-13,31.8c-5.5,10.2-12.6,19.2-21.3,27c-8.7,7.8-19.2,14-31.5,18.6
			c-12.3,4.6-26.6,6.9-43,6.9c-6.7,0-13.9-0.7-21.9-2.1c-7.9-1.4-15.9-3.4-24-5.9c-8.1-2.5-15.8-5.8-23.2-9.6
			c-7.4-3.8-13.8-8.1-19.2-12.7L129.5,349.2z M195.5,280.9c4.6-0.3,8.8-1.2,12.5-2.7c3.7-1.5,7-3.4,10-5.6c2.9-2.2,5.6-4.5,7.9-6.9
			c2.3-2.4,4.2-4.7,5.8-6.7c0-4.8-0.5-9.9-1.5-15.2c-1-5.2-2.8-10.1-5.4-14.6c-2.5-4.5-5.9-8.2-10-11.1c-4.1-2.9-9.2-4.4-15.4-4.4
			c-10,0-18.3,3.2-24.9,9.6c-6.7,6.4-10,14.2-10,23.4c0,3.8,0.5,7.8,1.5,11.9c1,4.1,2.8,7.7,5.4,10.9c2.5,3.2,5.7,5.9,9.6,8.1
			S189.6,280.9,195.5,280.9z"/>
	</g>
	<g>
		<path class="st0" d="M324.8,208c5.4-2.6,10.6-5.1,15.7-7.7c5.1-2.6,10.3-5.6,15.5-9c5.2-3.5,10.8-7.8,16.7-13
			c5.9-5.2,12.3-12.1,19.2-20.5h68.3v217.2h35.7v51H342.4v-51h38.4V232.6l-38.4,18L324.8,208z"/>
	</g>
</g>
<g>
	<path class="st1" d="M191.8,424.5c-5.8,0-12.3-0.6-19.2-1.8c-6.9-1.2-13.9-3-21-5.2c-7-2.2-13.8-5-20.3-8.4
		c-6.5-3.4-12.2-7.1-16.9-11.2l-1-0.8l20.2-35.2l1.3,0.8c4.5,2.6,12.5,6.7,24.6,12.6c7.9,3.9,17,5.8,26.9,5.8
		c12.7,0,33.9-3.9,40.7-11.2c12.6-13.5,18.3-46.5,16-69.4c-5.1,4.9-17.9,16.9-25.1,20.1c-8.1,3.6-23.2,5.8-32.6,5.8
		c-10.5,0-20.5-1.8-29.6-5.4c-9.1-3.6-17.2-8.8-24.1-15.4c-6.9-6.7-12.4-14.7-16.3-23.9c-4-9.3-8.3-26.3-8.3-37.5
		c0-11.4,2.1-22.5,6.3-32.8c4.2-10.3,10.2-19.5,17.9-27.3c7.8-7.8,17.4-14,28.6-18.6c11.2-4.6,24-6.9,38.1-6.9
		c13.9,0,26.9,2.6,38.7,7.8c11.8,5.2,22.1,12.6,30.8,22.1c8.6,9.5,15.4,21.3,20.2,35.1c4.8,13.7,7.2,29.5,7.2,46.9
		c0,2.7,0.1,5.5,0.2,8.4c0.3,6,0.5,12.2-0.2,18.7c-0.8,7-1.2,12.6-1.6,17.5c-0.8,11-1.4,19.7-6,35.4c-2.8,9.6-6.6,18.9-11.4,27.9
		c-4.8,9-11.1,17-18.8,23.8c-7.6,6.9-17,12.4-27.7,16.4C218.8,422.4,206.1,424.5,191.8,424.5z M117.3,396.4c4.4,3.6,9.5,6.9,15.4,10
		c6.3,3.3,13,6,19.9,8.2c6.9,2.2,13.8,3.9,20.6,5.1c6.7,1.2,13,1.8,18.7,1.8c14,0,26.3-2,36.7-5.9c10.4-3.9,19.4-9.2,26.8-15.8
		c7.4-6.6,13.5-14.4,18.1-23c4.7-8.7,8.5-17.9,11.2-27.3c4.5-15.4,5.1-24,5.9-34.8c0.4-5,0.8-10.6,1.6-17.7
		c0.7-6.3,0.5-12.4,0.2-18.2c-0.1-2.9-0.2-5.7-0.2-8.5c0-17-2.4-32.5-7.1-45.9c-4.7-13.4-11.3-24.8-19.6-34.1
		c-8.3-9.2-18.4-16.4-29.7-21.4c-11.4-5-24-7.5-37.5-7.5c-13.7,0-26.2,2.3-37,6.7c-10.8,4.4-20.1,10.5-27.6,17.9
		c-7.5,7.5-13.3,16.3-17.3,26.3c-4,10-6,20.6-6,31.7c0,10.8,4.2,27.3,8,36.3c3.8,8.8,9,16.6,15.6,22.9c6.6,6.4,14.4,11.3,23.1,14.8
		c8.8,3.5,18.4,5.2,28.5,5.2c9.1,0,23.9-2.2,31.4-5.6c7.1-3.2,21.5-16.7,26.4-21.6l2.1-2.1l0.4,3c3.2,23.6-2.7,60.2-16.4,74.9
		c-7.7,8.3-30.2,12.1-42.9,12.1c-10.4,0-19.9-2.1-28.2-6.1c-11.1-5.4-18.8-9.3-23.5-11.9L117.3,396.4z M194.1,298.7L194.1,298.7
		c-8,0-14.7-1.5-19.9-4.5c-5.2-2.9-9.5-6.6-13-10.9c-3.5-4.4-6-9.4-7.3-14.9c-1.4-5.4-2-10.8-2-15.9c0-12.5,4.5-23.1,13.5-31.7
		c9-8.6,20.3-13,33.7-13c8.3,0,15.4,2,21,6.1c5.5,4,10,9,13.5,15c3.4,6,5.8,12.5,7.2,19.5c1.4,7,2,13.8,2,20.1v0.5l-0.3,0.4
		c-2.1,2.8-4.7,5.9-7.6,8.9c-3.1,3.3-6.6,6.4-10.5,9.2c-3.9,2.9-8.4,5.4-13.4,7.5C205.9,297.1,200.2,298.3,194.1,298.7L194.1,298.7z
		 M199,210.8c-12.6,0-23.2,4.1-31.6,12.1c-8.3,8-12.6,18-12.6,29.6c0,4.9,0.7,10,1.9,15.2c1.3,5.1,3.6,9.7,6.8,13.7
		c3.2,4,7.3,7.4,12.1,10.2c4.8,2.7,10.9,4.1,18.3,4.1c5.8-0.3,11.1-1.5,15.8-3.4c4.7-2,9-4.4,12.7-7.1c3.7-2.7,7.1-5.7,10.1-8.9
		c2.7-2.9,5.1-5.6,7.1-8.3c0-6-0.7-12.4-2-19c-1.3-6.7-3.6-12.9-6.8-18.6c-3.2-5.7-7.5-10.4-12.6-14.1
		C213.2,212.6,206.7,210.8,199,210.8z"/>
</g>
<g>
	<path class="st1" d="M487.6,421.5h-140v-40.5h40.2V223.3l-38.6,18.6l-14.2-34.1l1.3-0.6c2.8-1.3,10.8-5.4,16.7-8.3l5.9-2.9
		c3.7-1.9,7.5-4.1,11.3-6.5c3.8-2.5,7.9-5.7,12.1-9.5c4.2-3.8,8.9-8.8,14-14.9l0.4-0.6h52.4v216.6h38.3V421.5z M350.7,418.5h133.9
		v-34.5h-38.3V167.3h-48c-5,6-9.6,11-13.8,14.7c-4.3,3.9-8.5,7.1-12.4,9.7c-3.9,2.6-7.8,4.8-11.6,6.7l-5.9,2.9
		c-5.2,2.6-12,6-15.5,7.7l11.8,28.5l40-19.3v165.5h-40.2V418.5z"/>
</g>
<g>
	<rect x="95.7" y="452.9" class="st0" width="400.2" height="21.5"/>
</g>
<g>
	<rect x="95.7" y="487.7" class="st0" width="400.2" height="21.5"/>
</g>
</svg>
