<?xml version="1.0" encoding="utf-8"?>
<!-- Generator: Adobe Illustrator 25.3.0, SVG Export Plug-In . SVG Version: 6.00 Build 0)  -->
<svg version="1.1" id="Capa_1" xmlns="http://www.w3.org/2000/svg" xmlns:xlink="http://www.w3.org/1999/xlink" x="0px" y="0px"
	 viewBox="0 0 566.9 566.9" style="enable-background:new 0 0 566.9 566.9;" xml:space="preserve">
<style type="text/css">
	.st0{fill:#020203;}
	.st1{fill:#FFFFFF;}
</style>
<g>
	<path class="st0" d="M225.8,117.4c0-17.8,13.8-56.6,20.8-77.4c-9.7,11.2-23,33.9-36.4,56.9c-6,10.6-12.3,21.2-18,30.6
		c-0.5,0.7-0.8,1-1.7,1c-4.5,0-9.9-0.2-10.9-4.4l-0.2-1.5c0-5,3.2-17.5,7.4-31.6c7.1-23.7,17.1-52.7,20.5-60.9l-1-0.2
		c-7.4,0-23.2,29.5-24.5,35.9l-0.2,2.3c0,0.8,0,1.2,0.3,1.3c0.8,0.2,1.5,1,1.5,1.7c0,0.7-0.3,1.2-1.2,1.5c-2.2,0.7-4.9,1.5-7.6,1.5
		c-1.7,0-3.2-0.3-4.4-1c-2.2-1.3-2.9-3.5-2.9-5.9c0-1.3,0.2-2.9,0.5-4.2c2-7.6,8.1-18.3,15.3-26.5c6.2-7.2,13.1-12.6,19.3-13.1
		l3.2-0.2c6.2,0,15.8,1.3,16.3,7.6v0.8c0,0.8-0.2,1.8-0.7,2.7c-2.5,6-18.1,50-24.7,72.7c7.4-11.8,43.8-83.4,55.4-83.6
		c5.7,0,11.6,2.3,11.6,8.7c0,3-1.5,6.5-2.5,9.4c-6.4,17.5-21.7,59.1-21.7,76.6c0,3.5,0.5,6,2,7.2c0.5,0.3,0.7,0.8,0.7,1.3
		c0,0.8-0.7,1.7-1.7,1.7C231.8,128.5,226,128.3,225.8,117.4z"/>
	<path class="st0" d="M252.5,101.3c0-17.3,11.6-40.1,27.2-40.1c1.3,0,2.9,0.2,4.2,0.5c7.9,2.2,10.4,9.4,10.4,17.3
		c0,6.2-1.5,12.9-3.2,17.5c-3.9,10.6-12.1,24.2-23.7,24.2C256.9,120.6,252.5,112,252.5,101.3z M283.5,93.9c0.7-2.2,2.9-9.7,2.9-15.4
		c0-3.9-1-6.9-4-6.9h-0.8c-8.1,1.3-17,24-17,36.3c0,4.2,1.2,7.2,3.7,7.6h0.5C275.3,115.4,281.9,98.9,283.5,93.9z"/>
	<path class="st0" d="M339.3,120.2c-4,0-7.9-0.5-9.4-4c-0.8-1.8-1.3-4.5-1.3-7.6c0-13.1,6.9-34.9,13.1-51.7
		c-3.4-0.2-6.5-0.2-9.2-0.2c-1-0.2-1.7-1-1.7-1.7c0-0.8,0.7-1.7,1.7-1.7l10.4,0.2c2.2-5.7,4.2-10.6,5.9-14.3c0.5-1.5,2.2-2,4.2-2
		c4.4,0,10.4,2.7,10.4,5.2l-0.2,0.5c-1.5,3.4-3,7.1-4.5,11.1l8.4,0.2c1,0,1.7,0.8,1.7,1.7c0,0.8-0.7,1.7-1.8,1.7
		c-2.9-0.2-6-0.2-9.6-0.2c-5.2,15.4-10.9,32.7-14.3,47c-0.3,1-1.8,7.9-1.8,10.9c0,1.2,0.2,1.5,0.7,1.5c1.8,0,5-4,6.2-5.5
		c5.2-7.1,11.3-19.5,14.6-26.7c0.3-0.8,0.8-1,1.5-1c0.2,0,0.5,0,0.8,0.2c0.5,0.3,0.8,0.8,0.8,1.5c0,0,0,0.3-0.2,0.7
		c-3.5,8.1-9.7,20.5-15.4,28c-2,2.3-5.2,6-8.4,6.2H339.3z"/>
	<path class="st0" d="M378.1,120.6c-14.3-0.5-19.5-9.1-19.5-19.6c0-5,1.2-10.6,3.2-15.9c4.2-10.9,13.1-23.8,25.5-23.8h0.5
		c6.4,0.2,11.6,3.5,11.6,9.9v0.3c-0.3,11.9-12.6,26.5-21.7,26.5c-1.7,0-3.4-0.5-4.7-1.7c-0.5,2-0.7,4.2-0.7,6.5
		c0,6.2,2,12.8,7.4,13.9l1.8,0.2c5.5,0,10.2-4.9,13.8-8.4c0.5-0.5,1-0.7,1.5-0.7c0.5,0,0.8,0.2,1.2,0.5l0.3,1c0,0.5-0.2,1-0.5,1.2
		c-4.9,6.5-10.9,10.1-18.8,10.1H378.1z M393.5,71.7c0-0.8-0.2-1.5-0.7-1.8c-0.5-0.2-0.8-0.3-1.3-0.3c-3.9,0-9.4,7.2-11.1,9.6
		c-2.5,3.9-4.7,8.2-6,12.1c0.8,0.5,1.5,0.7,2.5,0.7C384.1,91.9,393.5,77.1,393.5,71.7z"/>
</g>
<g>
	<polygon class="st0" points="388.4,163.1 399.2,136.4 167.7,136.4 180.2,163.1 167.7,189.5 399.2,189.5 	"/>
	<g>
		<path class="st1" d="M202.4,174.8l5.1-21.2h5.4l4.8,21.2h-4.2l-1-5.4h-4.6l-1,5.4H202.4z M208.3,166.3h3.4l-1.1-6
			c-0.2-1-0.3-2-0.4-2.9c0-0.5-0.1-1-0.1-1.4H210c-0.1,0.5-0.1,0.9-0.1,1.4c-0.1,1-0.2,2-0.4,2.9L208.3,166.3z"/>
		<path class="st1" d="M219.7,174.8v-21.2h6.4c1.7,0,3.4,0.1,4.5,1.6c0.9,1.2,1,2.4,1,3.8c0,1.8-0.4,3.7-2.5,4.4v0.1
			c2.2,0.3,3.1,2.2,3.1,4.9c0,0.9-0.1,1.8-0.3,2.6c-0.9,2.7-2.4,3.8-5.2,3.8H219.7z M224.4,162.1c1,0,2.2,0.1,2.8-0.7
			c0.4-0.5,0.4-1.3,0.4-2.3c0-1.6-0.3-2.4-2.2-2.4h-1.8v5.5H224.4z M224.5,171.7c0.8,0,1.7,0.1,2.4-0.2c1.1-0.5,1.2-1.9,1.2-2.9
			c0-2.3-0.5-3.3-2.9-3.3h-1.5v6.4H224.5z"/>
		<path class="st1" d="M233.9,174.8l5.1-21.2h5.4l4.8,21.2h-4.2l-1-5.4h-4.6l-1,5.4H233.9z M239.8,166.3h3.4l-1.1-6
			c-0.2-1-0.3-2-0.4-2.9c0-0.5-0.1-1-0.1-1.4h-0.1c-0.1,0.5-0.1,0.9-0.1,1.4c-0.1,1-0.2,2-0.4,2.9L239.8,166.3z"/>
		<path class="st1" d="M260.8,153.5h4v21.2h-4.1l-3.1-7.6c-1-2.5-1.9-5.1-2.8-8.4h-0.1c0.1,1.8,0.3,3.9,0.4,6.1
			c0.1,2.1,0.2,4.2,0.2,5.9v4h-4v-21.2h4.1l3.1,7.7c1,2.5,1.9,5,2.8,8.4h0.1c-0.1-1.9-0.3-4-0.4-6c-0.1-2-0.2-4.1-0.2-6V153.5z"/>
		<path class="st1" d="M268.7,174.8v-21.2h8.3c1,0,2.9,0.4,4.1,2.4c0.9,1.5,1.2,3.8,1.2,7.3c0,4.2,0,9-3.3,10.9
			c-0.9,0.5-2,0.6-2.9,0.6H268.7z M274.4,171.7c3.5,0,3.8-1.9,3.8-8c0-5-0.5-7-2.9-7h-2.6v15H274.4z"/>
		<path class="st1" d="M285.7,162.5c0.2-5.4,0.6-9.4,6.9-9.4c6.3,0,6.8,4,6.9,9.4v3c0,5.7-0.4,9.8-6.9,9.8c-6.5,0-6.9-4.1-6.9-9.8
			V162.5z M289.8,167.5c0,1.8,0.1,4.6,2.9,4.6c2.8,0,2.9-2.9,2.9-5v-5.4c0-1.7,0.1-5.5-2.9-5.5c-3.1,0-2.9,3.7-2.9,5.4V167.5z"/>
		<path class="st1" d="M312.7,153.5h4v21.2h-4.1l-3.1-7.6c-1-2.5-1.9-5.1-2.8-8.4h-0.1c0.1,1.8,0.3,3.9,0.4,6.1
			c0.1,2.1,0.2,4.2,0.2,5.9v4h-4v-21.2h4.1l3.1,7.7c1,2.5,1.9,5,2.8,8.4h0.1c-0.1-1.9-0.3-4-0.4-6c-0.1-2-0.2-4.1-0.2-6V153.5z"/>
		<path class="st1" d="M318.9,174.8l5.1-21.2h5.4l4.8,21.2h-4.2l-1-5.4h-4.6l-1,5.4H318.9z M324.8,166.3h3.4l-1.1-6
			c-0.2-1-0.3-2-0.4-2.9c0-0.5-0.1-1-0.1-1.4h-0.1c-0.1,0.5-0.1,0.9-0.1,1.4c-0.1,1-0.2,2-0.4,2.9L324.8,166.3z"/>
		<path class="st1" d="M340.2,165.6v9.1h-4v-21.2h7.5c3.4,0,6,1.2,6,5.1c0,2.3-0.6,4.8-3.3,5.1v0.1c2.4,0.3,3.1,1.8,3.1,3.9
			c0,0.9-0.1,6.1,0.9,6.7v0.4h-4.4c-0.5-1.4-0.4-4-0.4-5.4c0-1.3,0-3.1-1.4-3.5c-1.1-0.3-2.2-0.3-3.4-0.3H340.2z M340.2,162.5h3.1
			c1.3-0.1,2.3-0.9,2.3-3.1c0-2.4-1-2.8-2.5-2.8h-2.9V162.5z"/>
		<path class="st1" d="M353.5,174.8v-21.2h11.2v3.1h-7.2v5.4h6.6v3.1h-6.6v6.5h7.2v3.1H353.5z M359.1,147.6h4.4l-4.2,4.1h-2.9
			L359.1,147.6z"/>
	</g>
</g>
<g>
	<path class="st0" d="M167.5,204.4h3v5.8h5.1v-5.8h3v15.4h-3V213h-5.1v6.8h-3V204.4z"/>
	<path class="st0" d="M192.8,204.4h3l5.9,15.4h-3l-1.2-3.2h-6.3l-1.3,3.2h-3L192.8,204.4z M194.4,208.5l-2.1,5.3h4.1L194.4,208.5z"
		/>
	<path class="st0" d="M218.1,206.5l-2.2,1.9c-0.8-1.1-1.5-1.6-2.3-1.6c-0.4,0-0.7,0.1-0.9,0.3c-0.2,0.2-0.4,0.4-0.4,0.7
		s0.1,0.5,0.3,0.7c0.2,0.3,1,1,2.2,2c1.1,0.9,1.8,1.5,2,1.8c0.6,0.6,1,1.2,1.3,1.7c0.2,0.5,0.4,1.1,0.4,1.8c0,1.3-0.4,2.3-1.3,3.1
		c-0.9,0.8-2,1.2-3.4,1.2c-1.1,0-2.1-0.3-2.9-0.8c-0.8-0.5-1.5-1.4-2.1-2.5l2.5-1.5c0.7,1.4,1.6,2,2.6,2c0.5,0,0.9-0.1,1.3-0.4
		c0.3-0.3,0.5-0.6,0.5-1c0-0.3-0.1-0.7-0.4-1c-0.3-0.4-0.8-0.9-1.7-1.6c-1.7-1.4-2.8-2.4-3.3-3.2c-0.5-0.7-0.7-1.5-0.7-2.2
		c0-1.1,0.4-2,1.2-2.8c0.8-0.8,1.8-1.1,3-1.1c0.8,0,1.5,0.2,2.2,0.5C216.5,204.9,217.3,205.5,218.1,206.5z"/>
	<path class="st0" d="M225.7,204.4h8.5v2.9h-2.8v12.5h-3v-12.5h-2.7V204.4z"/>
	<path class="st0" d="M246.9,204.4h3l5.9,15.4h-3l-1.2-3.2h-6.3l-1.3,3.2h-3L246.9,204.4z M248.4,208.5l-2.1,5.3h4.1L248.4,208.5z"
		/>
	<path class="st0" d="M290.2,207.1l-2.1,2c-1.4-1.5-3-2.2-4.7-2.2c-1.5,0-2.7,0.5-3.7,1.5c-1,1-1.5,2.2-1.5,3.7c0,1,0.2,1.9,0.7,2.7
		c0.4,0.8,1.1,1.4,1.9,1.9c0.8,0.5,1.7,0.7,2.7,0.7c0.9,0,1.6-0.2,2.3-0.5c0.7-0.3,1.5-0.9,2.3-1.7l2,2.1c-1.1,1.1-2.2,1.9-3.2,2.3
		c-1,0.4-2.2,0.6-3.5,0.6c-2.4,0-4.4-0.8-5.9-2.3c-1.5-1.5-2.3-3.5-2.3-5.8c0-1.5,0.3-2.9,1-4.1c0.7-1.2,1.7-2.2,3-2.9
		c1.3-0.7,2.7-1.1,4.2-1.1c1.3,0,2.5,0.3,3.7,0.8C288.4,205.3,289.4,206.1,290.2,207.1z"/>
	<path class="st0" d="M298.7,204.4h2.9v10c0,0.9,0.1,1.5,0.2,1.8c0.2,0.4,0.4,0.6,0.7,0.9c0.3,0.2,0.8,0.3,1.3,0.3
		c0.5,0,1-0.1,1.3-0.4c0.4-0.2,0.6-0.5,0.8-0.9c0.1-0.4,0.2-1.1,0.2-2.1v-9.6h2.9v9.2c0,1.5-0.1,2.6-0.3,3.2c-0.2,0.6-0.5,1.2-1,1.7
		c-0.5,0.6-1.1,1-1.7,1.2c-0.6,0.3-1.4,0.4-2.2,0.4c-1.1,0-2.1-0.3-2.9-0.8c-0.8-0.5-1.4-1.2-1.8-1.9c-0.4-0.8-0.5-2.1-0.5-3.9
		V204.4z"/>
	<path class="st0" d="M320,204.4h2.9l3.6,10.7l3.6-10.7h2.9l2.6,15.4h-2.8l-1.7-9.7l-3.3,9.7h-2.6l-3.2-9.7l-1.7,9.7h-2.9L320,204.4
		z"/>
	<path class="st0" d="M343.8,204.4h3.1c1.7,0,2.9,0.2,3.6,0.5c0.7,0.3,1.3,0.8,1.8,1.5c0.4,0.7,0.6,1.5,0.6,2.5c0,1.1-0.3,2-0.8,2.7
		c-0.6,0.7-1.3,1.2-2.3,1.5c-0.6,0.2-1.6,0.2-3.1,0.2v6.5h-2.9V204.4z M346.8,210.4h0.9c0.7,0,1.2,0,1.5-0.2
		c0.3-0.1,0.5-0.3,0.7-0.5c0.2-0.2,0.2-0.5,0.2-0.9c0-0.6-0.2-1-0.7-1.3c-0.3-0.2-1-0.3-1.9-0.3h-0.8V210.4z"/>
	<path class="st0" d="M361.9,204.4h2.9V217h4.3v2.8h-7.2V204.4z"/>
	<path class="st0" d="M377.1,204.4h2.9v15.4h-2.9V204.4z"/>
	<path class="st0" d="M389.5,204.4h3.1c1.7,0,2.9,0.2,3.6,0.5c0.7,0.3,1.3,0.8,1.7,1.5c0.4,0.7,0.7,1.5,0.7,2.5c0,1-0.2,1.9-0.7,2.5
		c-0.5,0.7-1.2,1.2-2.2,1.5l3.7,6.9h-3.2l-3.5-6.5h-0.3v6.5h-2.9V204.4z M392.4,210.4h0.9c0.9,0,1.6-0.1,1.9-0.4
		c0.4-0.2,0.5-0.7,0.5-1.2c0-0.3-0.1-0.6-0.3-0.9c-0.2-0.2-0.4-0.4-0.7-0.5c-0.3-0.1-0.8-0.2-1.6-0.2h-0.8V210.4z"/>
</g>
<g>
	<path class="st0" d="M197.8,236.7l-4.1,3.9c-2.8-3-6-4.5-9.5-4.5c-3,0-5.5,1-7.5,3c-2,2-3.1,4.5-3.1,7.5c0,2.1,0.5,3.9,1.4,5.5
		c0.9,1.6,2.2,2.9,3.8,3.8c1.6,0.9,3.5,1.4,5.5,1.4c1.7,0,3.3-0.3,4.7-1c1.4-0.6,3-1.8,4.7-3.5l4,4.2c-2.3,2.2-4.5,3.8-6.5,4.7
		c-2,0.9-4.4,1.3-7,1.3c-4.8,0-8.8-1.5-11.9-4.6c-3.1-3.1-4.6-7-4.6-11.8c0-3.1,0.7-5.9,2.1-8.3c1.4-2.4,3.4-4.4,6-5.8
		c2.6-1.5,5.4-2.2,8.4-2.2c2.6,0,5,0.5,7.4,1.6C194.1,233.2,196.1,234.7,197.8,236.7z"/>
	<path class="st0" d="M217.7,230.5c4.4,0,8.2,1.6,11.4,4.8c3.2,3.2,4.7,7.1,4.7,11.7c0,4.5-1.6,8.4-4.7,11.5
		c-3.1,3.1-6.9,4.7-11.4,4.7c-4.7,0-8.6-1.6-11.6-4.8c-3.1-3.2-4.6-7.1-4.6-11.5c0-3,0.7-5.7,2.2-8.2c1.4-2.5,3.4-4.5,5.9-5.9
		C212.1,231.2,214.8,230.5,217.7,230.5z M217.6,236.2c-2.9,0-5.3,1-7.3,3c-2,2-2.9,4.5-2.9,7.6c0,3.4,1.2,6.2,3.7,8.2
		c1.9,1.6,4.1,2.3,6.6,2.3c2.8,0,5.2-1,7.2-3c2-2,3-4.5,3-7.5c0-3-1-5.5-3-7.5C222.9,237.3,220.5,236.2,217.6,236.2z"/>
	<path class="st0" d="M239.4,231.2h5.7l13.3,20.5v-20.5h5.9v31.1h-5.7l-13.3-20.4v20.4h-5.9V231.2z"/>
	<path class="st0" d="M280.5,231.2h17.2v5.8H292v25.3h-6v-25.3h-5.5V231.2z"/>
	<path class="st0" d="M316.4,230.5c4.4,0,8.2,1.6,11.4,4.8c3.2,3.2,4.7,7.1,4.7,11.7c0,4.5-1.6,8.4-4.7,11.5
		c-3.1,3.1-6.9,4.7-11.4,4.7c-4.7,0-8.6-1.6-11.6-4.8c-3.1-3.2-4.6-7.1-4.6-11.5c0-3,0.7-5.7,2.2-8.2c1.4-2.5,3.4-4.5,5.9-5.9
		C310.8,231.2,313.5,230.5,316.4,230.5z M316.4,236.2c-2.9,0-5.3,1-7.3,3c-2,2-2.9,4.5-2.9,7.6c0,3.4,1.2,6.2,3.7,8.2
		c1.9,1.6,4.1,2.3,6.6,2.3c2.8,0,5.2-1,7.2-3c2-2,3-4.5,3-7.5c0-3-1-5.5-3-7.5C321.6,237.3,319.2,236.2,316.4,236.2z"/>
	<path class="st0" d="M338.1,231.2h7c4.5,0,7.9,0.6,10.1,1.7c2.2,1.1,4,2.9,5.4,5.5c1.4,2.5,2.1,5.5,2.1,8.8c0,2.4-0.4,4.6-1.2,6.6
		c-0.8,2-1.9,3.7-3.3,5c-1.4,1.3-2.9,2.2-4.6,2.8c-1.6,0.5-4.5,0.8-8.5,0.8h-7.1V231.2z M344,236.9v19.6h2.8c2.7,0,4.7-0.3,5.9-0.9
		c1.2-0.6,2.2-1.7,3-3.1c0.8-1.5,1.2-3.3,1.2-5.4c0-3.3-0.9-5.9-2.8-7.7c-1.7-1.6-4.3-2.5-8-2.5H344z"/>
	<path class="st0" d="M383.1,230.5c4.4,0,8.2,1.6,11.4,4.8c3.2,3.2,4.7,7.1,4.7,11.7c0,4.5-1.6,8.4-4.7,11.5
		c-3.1,3.1-6.9,4.7-11.4,4.7c-4.7,0-8.6-1.6-11.6-4.8c-3.1-3.2-4.6-7.1-4.6-11.5c0-3,0.7-5.7,2.2-8.2c1.4-2.5,3.4-4.5,5.9-5.9
		C377.5,231.2,380.2,230.5,383.1,230.5z M383.1,236.2c-2.9,0-5.3,1-7.3,3c-2,2-2.9,4.5-2.9,7.6c0,3.4,1.2,6.2,3.7,8.2
		c1.9,1.6,4.1,2.3,6.6,2.3c2.8,0,5.2-1,7.2-3c2-2,3-4.5,3-7.5c0-3-1-5.5-3-7.5C388.3,237.3,385.9,236.2,383.1,236.2z"/>
</g>
<g>
	<path class="st0" d="M167.7,293.8h9.2v47.5h13.4v10.5h-22.7V293.8z"/>
	<path class="st0" d="M220.3,292.4c6.8,0,12.7,3,17.7,8.9c4.9,5.9,7.4,13.2,7.4,21.7c0,8.5-2.4,15.6-7.3,21.5
		c-4.9,5.9-10.8,8.8-17.7,8.8c-7.3,0-13.3-3-18.1-9c-4.8-6-7.2-13.2-7.2-21.4c0-5.6,1.1-10.7,3.4-15.3c2.2-4.7,5.3-8.3,9.2-11.1
		C211.5,293.7,215.7,292.4,220.3,292.4z M220.1,303.2c-4.5,0-8.3,1.9-11.3,5.6c-3.1,3.7-4.6,8.5-4.6,14.2c0,6.4,1.9,11.5,5.8,15.2
		c3,2.9,6.4,4.4,10.3,4.4c4.4,0,8.1-1.9,11.2-5.7c3.1-3.8,4.6-8.4,4.6-14c0-5.5-1.6-10.2-4.7-14
		C228.4,305.1,224.6,303.2,220.1,303.2z"/>
	<path class="st0" d="M314.5,343.4l8.4,13.1H312l-4.3-6.6c-3.5,2.3-7.5,3.5-11.8,3.5c-7.3,0-13.3-3-18.1-9c-4.8-6-7.2-13.2-7.2-21.5
		c0-5.6,1.1-10.6,3.4-15.3c2.2-4.7,5.3-8.3,9.2-11.1c3.9-2.7,8.1-4.1,12.6-4.1c6.9,0,12.8,3,17.7,8.9c4.9,5.9,7.4,13.2,7.4,21.7
		C320.9,330.9,318.7,337.6,314.5,343.4z M308.7,334.4c1.9-3.5,2.9-7.3,2.9-11.5c0-5.5-1.6-10.2-4.7-14c-3.1-3.8-6.8-5.8-11.3-5.8
		c-4.5,0-8.3,1.9-11.4,5.6c-3.1,3.7-4.6,8.5-4.6,14.2c0,6.4,1.9,11.5,5.8,15.2c3,2.9,6.4,4.4,10.3,4.4c2.2,0,4.3-0.5,6.2-1.5
		l-8.7-13.4h11L308.7,334.4z"/>
	<path class="st0" d="M329.2,293.8h9.3v37.5c0,3.2,0.2,5.5,0.7,6.9c0.5,1.3,1.3,2.4,2.3,3.2c1.1,0.8,2.4,1.2,3.9,1.2
		c1.6,0,3-0.4,4.2-1.3c1.2-0.9,2-2,2.4-3.4c0.4-1.4,0.7-4,0.7-7.9v-36.1h9.3v34.6c0,5.8-0.3,9.9-0.8,12.2c-0.5,2.3-1.6,4.4-3.1,6.5
		c-1.5,2.1-3.3,3.7-5.3,4.7c-2,1-4.4,1.5-7.1,1.5c-3.5,0-6.6-1-9.2-2.9c-2.6-1.9-4.5-4.4-5.6-7.3c-1.1-2.9-1.7-7.8-1.7-14.7V293.8z"
		/>
	<path class="st0" d="M372.8,293.8h26.5v10.8h-17.3v10.5h17.3v10.6h-17.3V341h17.3v10.8h-26.5V293.8z"/>
</g>
<g>
	<path class="st0" d="M167.7,375.1h26.4v13.7h-8.7v59.2h-9.2v-59.2h-8.5V375.1z"/>
	<path class="st0" d="M219,375.1H245v13.6h-17v13.2h17v13.3h-17v19.2h17v13.6H219V375.1z"/>
	<path class="st0" d="M309.3,375.1h9.2v27.5h15.9v-27.5h9.2v72.8h-9.2V416h-15.9v31.9h-9.2V375.1z"/>
	<path class="st0" d="M373.2,375.1h26.1v13.6h-17v13.2h17v13.3h-17v19.2h17v13.6h-26.1V375.1z"/>
</g>
<g>
	<path class="st0" d="M346.2,473c0.7,0,1.3-0.2,1.4-0.6c0.6-1.3,1.8-4.3,2.2-5.1c0.2-0.2,0.2-0.4,0.2-0.6c0-1.3-2.6-2.6-4.5-2.6
		c-0.9,0-1.7,0.2-2,1c-0.5,1.1-1.5,4.4-1.5,5.8C342.1,472,344.5,473,346.2,473z"/>
	<path class="st0" d="M394,476.5c-0.7-0.2-1.4-0.2-2.1-0.2c-6,0-10.8,6.7-12.8,13.7c-2.1,4.5-5.4,10.8-7.9,13.4
		c-0.2,0.2-1.2,1.1-1.9,1.1c-0.1,0-0.2-0.3-0.2-0.7l0.1-1.9c0.9-8.8,10.3-32.2,11.2-35v-0.3c0-1.2-3-2.4-5.3-2.4
		c-1.1,0-2,0.2-2.3,0.9c-0.9,2-2.9,7.1-4.9,13.1c-1-1.4-2.8-2-4.9-2H363c-6.3,0-11.3,6.7-13.4,13.6c-2.6,5.7-7.1,14.5-9.7,14.6
		c-0.5,0-0.7-0.5-0.7-1.4c0-5.2,5.9-22.1,6.6-24l0.1-0.4c0-1.3-2.6-2.5-4.7-2.5c-0.9,0-1.8,0.3-2.1,1c-1,2.4-2.9,7.4-4.3,12.5
		c-1.8,3.7-4.4,8.8-6.7,11.9c-0.6,0.8-2.2,2.8-3.1,2.8c-0.2,0-0.3-0.2-0.3-0.8c0-1.5,0.8-5,0.9-5.5c1.7-7.2,4.6-16,7.2-23.8
		c1.8,0,3.4,0,4.8,0.1c0.6,0,0.9-0.4,0.9-0.8c0-0.4-0.3-0.9-0.8-0.9l-4.3-0.1c0.8-2,1.5-3.9,2.3-5.6l0.1-0.3c0-1.3-3.1-2.6-5.3-2.6
		c-1,0-1.9,0.3-2.1,1c-0.8,1.9-1.9,4.3-3,7.2l-5.3-0.1c-0.5,0-0.8,0.4-0.8,0.8c0,0.3,0.3,0.8,0.8,0.8c1.4,0,3,0,4.7,0.1
		c-1.7,4.5-3.4,9.7-4.7,14.6c-5.2,10.6-9.3,14.2-12.3,15.3c-0.7,0.2-1.4,0.3-1.9,0.3l-0.9-0.1c-2.8-0.6-3.7-3.9-3.7-7.1
		c0-1.1,0.2-2.2,0.3-3.2c0.7,0.6,1.5,0.8,2.4,0.8c4.6,0,10.8-7.4,11-13.4v-0.2c0-3.2-2.6-4.8-5.9-4.9h-0.3c-6.2,0-10.7,6.5-12.7,12
		c-0.2,0.5-0.4,1.1-0.5,1.6c-2.6,5.7-4.2,9.4-5.6,11.7c-1.3,2.2-2.1,2.9-3.2,3c-0.4,0-0.5-0.5-0.5-1.5c0-4.9,4.1-16.3,5.3-22.2
		l0.1-1c0-2.3-1.8-3.6-3.9-3.6c-1,0-2.1,0.3-3.1,0.9c-2.4,1.6-4.8,4.5-6.5,6.7c-1.7,2.2-3.2,4.5-4.6,6.5c1-3.6,2.2-7.8,2.5-9.6
		l0.1-1c0-2.3-1.8-3.6-3.9-3.6c-1,0-2.1,0.3-3.1,0.9c-2.4,1.6-4.8,4.5-6.5,6.7c-1.5,2-3,4.1-4.2,6c1.2-3.7,2.3-7.2,3.7-10.8l0.1-0.4
		c0-1.4-2.8-2.5-4.8-2.5c-1.1,0-1.9,0.3-2.1,1c-0.7,1.7-2.2,6.4-3.7,11.4c-1.6,2.4-4.4,3.7-7,3.7c0.6-2,1.1-4.6,1.1-7.1
		c0-4-1.2-7.8-5.3-8.8c-0.8-0.2-1.4-0.3-2.1-0.3c-6,0-10.8,6.6-12.8,13.6c-2.8,6.2-4.8,10-6.3,12.2c-0.4,0.7-2,2.6-3.1,2.6
		c-0.4,0-0.8-0.2-0.9-1l-0.2-1.4c0-4.3,2.7-11.8,4.1-15.6c0.9-2.7,1.6-4.5,1.6-5.9l-0.1-0.6c-0.3-2.2-2.5-3.8-4.6-3.8
		c-1.8,0-3.7,0.7-6,0.8c0.3-0.6,0.9-2.6,1.3-3.7l0.1-0.3c0-0.7-1.1-1-2.1-1c-0.9,0-1.8,0.3-2,0.9c-0.4,1.1-0.8,2.4-0.8,3.6
		c0,0.9,0.3,1.8,1.1,2.4c-1.4,3.5-2,4.8-4.1,9.4c-0.1,0.1-0.1,0.2-0.1,0.2c-1.6,3.1-4.1,4.9-7.6,5.4c1.1-3,1.7-5.9,1.8-9
		c0-1.4-0.2-2.7-0.6-4c-0.9-3.1-2.6-4.6-5.4-4.6c-2.1,0-4.1,1.2-5.9,3.5l0.3-1c0-0.6-0.5-1.2-1.6-1.7c-1.1-0.5-2.2-0.8-3.3-0.8
		c-0.9,0-1.7,0.3-2.1,1c-2.1,4.4-4.8,12.9-7.9,25.6c-2,7.6-3,12.8-3,15.7c0,2.2,1.4,3.3,4.2,3.3l1.7-0.1c0.4,0,0.7-0.3,0.7-1
		c0-3.9,2.4-13.5,7.1-28.8c1.2-3,2.6-5.6,4.3-8c1.4-2,2.5-3,3.4-3c0.9,0,1.4,1.2,1.4,3.7c0,3.1-0.7,6.4-1.9,9.7
		c-2.4,0-4.4,0.6-6,1.8c-1.5,1.4-2.3,3.1-2.3,4.8c0,2.4,1.2,3.6,3.6,3.6c4.5,0,8.2-3,10.9-8.8c4.7-0.4,8-2.6,10.1-6.8
		c0,0,0-0.1,0-0.1c1.9-4.1,2.7-5.8,3.9-9.1c0.4,0.2,0.9,0.2,1.4,0.2c1.4,0,3-0.4,4.1-0.5c-1.5,4.6-5.8,15.1-5.8,21.5
		c0,1.4,0.3,2.5,0.7,3.4c1,1.9,4,2,6,2h0.8c1.5,0,2.7-0.6,4.6-3.3c1.1-1.5,2.3-3.8,3.8-7c0,0.2,0,0.4,0,0.6c0,5.4,2.2,9.8,7.6,9.8
		c5.9,0,10-6.8,11.9-12.2h0.7c2.1,0,4.2-0.7,5.9-1.9c-1.3,4.8-2.4,9.4-2.4,11.6v0.1c0.1,1.9,2.8,2.4,4.9,2.4h0.6
		c0.5,0,0.9-0.3,0.9-0.8c0.1-2,0.8-5.3,2-9c1.2-2.1,4.2-7.1,7.5-11.5c0.3-0.3,2.6-3.2,4-4.4c0.4-0.3,0.8-0.5,0.9-0.5
		c0.2,0,0.3,0.1,0.3,0.3l-0.1,0.6c-0.9,3.2-4.8,14.1-5.3,19.9l-0.1,1.2c0,2.8,1.4,4.3,4.6,4.3h0.9c0.5,0,0.9-0.2,0.9-0.9v-0.2
		c0-1.4,0.9-4.8,2-8.8c1.2-2.1,4.2-7.1,7.6-11.5c1.2-1.6,2.6-3.2,3.8-4.3c0.3-0.2,0.6-0.6,0.8-0.6c0.3,0,0.4,0.2,0.4,0.6
		c-0.1,0.9-4.9,14.4-5.1,20.1v0.8c0,4.2,2.2,4.9,5.2,4.9l2.4-0.1c1.6-0.1,2.9-1,4.6-3.7c0.9-1.4,1.9-3.4,3.1-6.1c0,0,0,0,0,0
		c0,5.4,2.6,9.6,9.9,9.9h0.9c0.8,0,1.9-0.1,3-0.4c2.7-1,6.3-3.6,10.6-10.9c-0.3,2-0.5,3.8-0.5,5.4c0,1.5,0.2,2.9,0.7,3.8
		c0.8,1.8,2.7,2,4.8,2h1.3c1.6-0.1,3.2-2,4.3-3.1c1.3-1.8,2.7-4,4-6.4c-0.2,1.3-0.4,2.6-0.4,3.8c0,1.5,0.2,2.9,0.8,3.7
		c0.9,1.8,3.1,2,5.3,2h1.1c2.6-0.1,5.8-5.1,8.4-10.2c0,0.2,0,0.5,0,0.7c0,4.4,1.7,7.8,5.8,7.9h0.1c3.6,0,6.5-3.7,8.7-7.4
		c-0.2,1.2-0.3,2.4-0.3,3.4c0,1.4,0.2,2.6,0.6,3.6c0.8,1.8,2.8,2,4.8,2h1.2c0.9,0,1.9-0.7,2.9-1.6c2-2,4.1-5.4,5.9-8.9
		c0,0.3,0,0.6,0,0.9c0,5.4,2.2,9.8,7.6,9.8c5.9,0,10-6.9,12-12.2c0.8-2.3,1.6-5.7,1.6-8.8C399.2,481.3,398,477.6,394,476.5z
		 M305.6,485.2c0.8-1.2,3.6-4.8,5.5-4.8c0.2,0,0.4,0,0.7,0.2c0.2,0.2,0.4,0.4,0.4,0.9c0,2.7-4.8,10.2-8.5,10.2
		c-0.4,0-0.8-0.1-1.2-0.3C303.2,489.3,304.3,487.1,305.6,485.2z M186.6,497.8c-0.5,0.8-1.1,1.6-1.8,2.4c-0.7,0.7-1.3,1.1-1.8,1.1
		c-0.7,0-0.9-0.4-0.9-1.2c0-0.3,0-0.6,0.2-0.9c0.8-2,2.5-3,5.3-3.1C187.6,496.4,187.2,497,186.6,497.8z M238.1,488.7
		c0,1.4,0.5,3,1.9,4c-0.9,2.6-4.3,10.9-7.6,10.9h-0.2c-1.3-0.2-1.8-1.7-1.8-3.8c0-6.1,4.5-17.7,8.6-18.4h0.4c1.1,0,1.6,0.9,1.9,2
		C239.6,483.7,238.1,486.2,238.1,488.7z M364.7,488.7c-0.8,2.2-5.6,11-8.2,11c-0.9,0-1.3-0.9-1.3-2.3c0-5,4.9-16.6,8.8-16.6h0.1
		c1.3,0,1.7,1.1,1.7,2.5C365.8,485.4,365,487.9,364.7,488.7z M393.8,492.8c-0.9,2.6-4.2,10.9-7.5,10.9h-0.2
		c-1.3-0.2-1.9-1.7-1.9-3.8c0-6.2,4.5-17.7,8.6-18.4h0.4c1.5,0,2,1.5,2,3.5C395.2,487.9,394.1,491.7,393.8,492.8z"/>
</g>
<rect x="167.7" y="274.1" class="st0" width="231.6" height="9"/>
<rect x="167.7" y="355.7" class="st0" width="231.6" height="9.1"/>
<g>
	<path class="st0" d="M245.1,533.4H245c-0.8,0.1-2.9,0.5-4.4,0.5c-0.8,0-1.5-0.1-1.7-0.4c-0.1-0.1-0.1-0.1-0.2-0.1
		c-0.1,0-0.2,0.1-0.3,0.2c-0.1,0.2-0.1,0.4-0.1,0.5c0,0.7,0.4,1.3,1.1,1.6c0.3,0.1,0.9,0.2,1.7,0.2c-0.3,1-2.1,4.4-4.8,4.7h-0.2
		c-0.9,0-1.6-0.7-1.8-1.6c-0.1-0.4-0.1-0.8-0.1-1.2c0-4.3,3.6-11.8,7.4-12.6c0.3-0.1,0.5-0.1,0.7-0.1c0.8,0,1.1,0.4,1.1,1
		c0,0.7-0.4,1.6-0.9,2.3c0,0.1-0.1,0.1-0.1,0.2c0,0.1,0,0.1,0.1,0.2c0.4,0.6,0.9,0.8,1.3,0.8c0.4,0,0.9-0.3,1.3-0.7
		c0.5-0.6,0.8-1.3,0.8-2.1c0-1-0.5-1.9-1.4-2.5c-0.7-0.4-1.6-0.7-2.8-0.7h0c-5.4,0-10.2,7.4-10.2,13c0,0.7,0.1,1.4,0.3,2.1
		c0.4,1.7,2.3,3.3,4.4,3.3l0.4,0c0.9-0.1,2.5-0.8,3.7-2.1c-0.3,1-0.5,2.1-0.5,2.7c0,0.2,0,0.3,0.1,0.4c0.3,0.4,1.1,0.8,1.6,0.8
		c0.2,0,0.4-0.1,0.4-0.2c0.2-1.9,1.5-6,2.1-7.6c1.1-0.1,1.4-0.1,1.8-0.2c0.2,0,0.4-0.6,0.4-1.1C245.9,533.8,245.7,533.4,245.1,533.4
		z"/>
	<path class="st0" d="M251.4,528.4L251.4,528.4c0.4-0.1,2.6-1.1,2.9-1.3c0.1-0.1,0.2-0.2,0.2-0.4c0-0.4-0.3-0.9-0.7-0.9l-0.2,0.1
		c-0.4,0.2-2.5,1.7-2.5,1.7c-0.1,0.1-0.1,0.1-0.1,0.2C251,528.1,251.2,528.4,251.4,528.4z"/>
	<path class="st0" d="M284.8,528.9c0.2,0,0.4-0.1,0.5-0.2c0.2-0.4,0.6-1.5,0.8-1.8c0.1-0.1,0.1-0.1,0.1-0.2c0-0.4-0.9-0.9-1.6-0.9
		c-0.3,0-0.6,0.1-0.7,0.4c-0.2,0.4-0.5,1.5-0.5,2C283.4,528.5,284.2,528.9,284.8,528.9z"/>
	<path class="st0" d="M290.7,530h-2.2c-0.5,0-2.1,3.6-2.3,4.1c0,0,0,0,0,0.1c-0.8,1.9-2.6,5.5-3.6,5.6c-0.2,0-0.2-0.2-0.2-0.5
		c0-1.8,2.1-7.7,2.3-8.3l0-0.1c0-0.4-0.9-0.9-1.6-0.9c-0.3,0-0.6,0.1-0.7,0.4c-0.3,0.8-0.9,2.4-1.4,4.1c-0.5,1.1-1,2-1.5,2.7
		c-0.5,0.7-1.1,1.5-1.5,1.9c0.3-0.4,0.4-0.9,0.6-1.6c0.1-0.3,0.1-0.6,0.1-0.9c0-1.3-0.4-2.5-0.4-3.7c0-0.8,0.2-1.6,0.7-2.4
		c0.1-0.1,0.1-0.1,0.1-0.2c0-0.1-0.1-0.3-0.3-0.3h-2.2c-0.6,0-2.1,3.6-2.3,4.1c0,0,0,0,0,0c-1.9,3.9-3.3,5.1-4.4,5.5
		c-0.2,0.1-0.5,0.1-0.7,0.1l-0.3,0c-1-0.2-1.3-1.4-1.3-2.5c0-0.4,0.1-0.8,0.1-1.1c0.2,0.2,0.5,0.3,0.8,0.3c1.6,0,3.7-2.6,3.8-4.6
		v-0.1c0-1.1-0.9-1.7-2-1.7h-0.1c-2.1,0-3.7,2.3-4.4,4.2c-0.1,0.2-0.1,0.4-0.2,0.6c-1.9,4.1-2.4,5-3.1,5.1c-0.1,0-0.2-0.2-0.2-0.5
		c0-1.7,1.4-5.7,1.8-7.7l0-0.4c0-0.8-0.6-1.2-1.4-1.2c-1.2,0-2.5,1.5-3.4,2.6c-0.5,0.7-1,1.4-1.5,2.1c0.1-0.2,1.1-3.1,1.3-3.7l0-0.1
		c0-0.5-1-0.9-1.7-0.9c-0.4,0-0.6,0.1-0.7,0.4c-0.3,0.8-0.8,2.4-1.3,4c-1.8,3.8-3.3,5-4.3,5.3c-0.2,0.1-0.4,0.1-0.6,0.1
		c-0.1,0-0.2,0-0.4,0c-0.9-0.2-1.3-1.3-1.3-2.4c0-0.4,0-0.8,0.1-1.1c0.2,0.2,0.5,0.3,0.9,0.3c1.6,0,3.7-2.6,3.8-4.7v-0.1
		c0-1.1-0.9-1.7-2-1.7h-0.1c-2.2,0-3.7,2.3-4.5,4.2c-0.4,0.9-0.6,1.9-0.6,2.8c0,1.9,0.9,3.3,3.4,3.4h0.3c0.3,0,0.6,0,1-0.1
		c0.9-0.3,2.1-1.2,3.5-3.4c-0.3,1.2-0.5,2.3-0.5,2.8c0,0.7,1,0.8,1.7,0.8h0.1c0.2,0,0.4,0,0.4-0.3c0-0.7,0.3-1.9,0.7-3.1
		c0.5-0.9,2.5-4.2,3.9-5.5c0.1-0.1,0.2-0.2,0.3-0.2c0.1,0,0.1,0.1,0.1,0.1c0,0.4-1.7,5.1-1.7,7.3c0,1.5,0.7,1.7,1.8,1.7l0.8,0
		c0.9,0,1.5-0.8,2.7-3.4c0,0,0,0,0,0c0,1.9,0.9,3.3,3.4,3.4h0.3c0.3,0,0.6,0,1-0.1c0.8-0.3,1.8-1,3-2.7c0,0.1,0,0.3,0,0.4
		c0,1.3,0.8,2.4,2.6,2.4h0.3c0.9,0,1.9-0.1,2.8-1c0.5-0.6,0.9-1.1,1.4-1.8c0.2-0.3,0.3-0.6,0.5-0.9c-0.1,0.6-0.2,1.2-0.2,1.7
		c0,0.5,0.1,1,0.3,1.3c0.3,0.6,1.1,0.7,1.8,0.7h0.4c0.7,0,1.5-1,2.2-2.3c0,1.2,0.9,2.3,2.6,2.3c2.2,0,3.2-1.9,3.2-3.8
		c0-1.3-0.4-2.5-0.4-3.7c0-0.8,0.1-1.6,0.7-2.4c0-0.1,0.1-0.1,0.1-0.2C291,530.1,290.9,530,290.7,530z M269,533.1
		c0.3-0.4,1.2-1.6,1.9-1.6c0.1,0,0.1,0,0.2,0.1c0.1,0.1,0.1,0.1,0.1,0.3c0,0.9-1.7,3.5-2.9,3.5c-0.1,0-0.3,0-0.4-0.1
		C268.2,534.5,268.5,533.8,269,533.1z M250.4,533.1c0.3-0.4,1.2-1.6,1.9-1.6c0.1,0,0.2,0,0.3,0.1c0.1,0.1,0.1,0.2,0.1,0.3
		c0,0.9-1.6,3.5-2.9,3.5c-0.2,0-0.3,0-0.4-0.1C249.6,534.5,250,533.8,250.4,533.1z M275.6,539.1c-0.1,0.2-0.4,0.3-0.5,0.3
		c-0.1,0-0.1,0-0.2-0.1c-0.1-0.1-0.2-0.2-0.2-0.5c0-0.6,0.4-1.6,0.9-2c0.1-0.1,0.1-0.1,0.1-0.2c0-0.4-0.9-1-1.5-1
		c-0.1,0-0.1,0-0.2,0c0.2-0.4,0.4-0.8,0.6-1.3c0,0,0.1,0,0.1-0.1l1.1-2.3c0,0.2,0,0.4,0,0.6c0,1.3,0.4,2.9,0.4,4.4
		C276.1,537.9,276,538.6,275.6,539.1z M287.6,539.2c-0.1,0.2-0.4,0.3-0.5,0.3c-0.1,0-0.1,0-0.2-0.1c-0.1-0.1-0.1-0.2-0.1-0.4
		c0-0.6,0.4-1.7,0.9-2.1c0.1-0.1,0.1-0.1,0.1-0.2c0-0.4-0.9-1-1.5-1c0,0,0,0-0.1,0c0.2-0.5,0.5-1,0.6-1.4c0,0,0,0,0,0l1-2.2
		c0,0.2,0,0.4,0,0.6c0,1.3,0.4,2.9,0.4,4.4C288.1,537.9,288,538.7,287.6,539.2z"/>
	<path class="st0" d="M305.1,537.8c-0.7-0.2-1.5-0.3-2.4-0.3c-1.1,0-2.3,0.1-3.2,0.3c3.2-2.1,7.3-4.7,8.3-6.6
		c0.2-0.4,0.4-1.1,0.5-1.8V529c0-1.8-1-3.1-3-3.2l-0.7,0c-1,0-2,0.2-2.8,0.8c-1.2,0.9-1.9,2-1.9,3.1v0.1c0,1.4,1.1,1.2,1.8,1.3h0
		c0.1,0,0.2-0.1,0.2-0.2v-0.1c0-0.1-0.1-0.3-0.1-0.4c0-0.2,0-0.4,0.2-0.8c0.6-1.6,2.3-2.7,3.5-2.7c0.5,0,0.9,0.2,1.1,0.6
		c0.1,0.2,0.1,0.4,0.1,0.6c0,0.6-0.3,1.3-0.7,1.8c-2.4,3-7.4,5.2-8.5,6.7c-0.3,0.4-0.5,1-0.5,1.5v0.1c-0.2,0-0.7,0.1-0.8,0.3
		c-0.1,0.1-0.2,0.4-0.2,0.6c0,0.6,0.4,1.3,1.1,1.3h0.1c1.3-0.2,3.6-0.6,5.5-0.6c1.1,0,2.1,0.1,2.7,0.5c0.1,0,0.1,0.1,0.2,0.1
		c0.1,0,0.3-0.1,0.3-0.3V540C305.9,539.4,306,538.1,305.1,537.8z"/>
	<path class="st0" d="M313.8,525.8h-0.4c-1.9,0-3.3,0.8-3.9,2.7c-0.1,0.4-0.2,0.9-0.2,1.5c0,1,0.4,2,1.4,2.4h-0.1
		c-1.7,0-3,1.7-3.5,3.6c-0.1,0.4-0.2,0.9-0.2,1.3c0,1.5,0.8,2.9,3.2,3h0.3c3.1,0,4.5-1.9,4.9-4.4c0-0.2,0-0.4,0-0.6
		c0-1.4-0.8-2.3-1.7-2.7c1.9-0.6,2.7-2.1,2.9-3.9l0-0.4C316.5,527.1,315.6,525.9,313.8,525.8z M312.9,536.2
		c-0.4,2.2-1.6,3.2-2.6,3.2c-0.8,0-1.4-0.6-1.4-1.9c0-0.5,0.1-1,0.3-1.6c0.6-1.6,1.4-2.5,2.5-2.5h0.2c0.8,0.3,1.1,1.1,1.1,1.9
		C313,535.6,313,535.9,312.9,536.2z M314.4,529.5c-0.3,1.2-1,2.4-1.9,2.6c-1-0.1-1.3-0.8-1.3-1.6c0-0.4,0.1-0.8,0.2-1.2
		c0.4-1.7,1.4-2.6,2.2-2.6c0.6,0,1.1,0.5,1.1,1.6C314.5,528.6,314.5,529,314.4,529.5z"/>
	<path class="st0" d="M328.9,526.7c0-0.4-0.9-0.9-1.5-0.9c-0.3,0-0.5,0.1-0.7,0.3c-0.9,1-3.5,3.2-4.9,3.6c-0.1,0-0.2,0.1-0.2,0.3
		c0.1,0.6,0.5,1.1,1.2,1.1c0.9,0,2-0.9,2.6-1.4c-0.6,1.8-2.7,7.8-2.7,9.7c0.1,0.9,0.5,1.1,1.5,1.1h0.3c0.2,0,0.3-0.1,0.3-0.3
		c0-2.2,3.8-12.5,4.1-13.2L328.9,526.7z"/>
	<path class="st0" d="M337,525.8c-0.1,0-0.2,0-0.2,0.1c-0.3,0.4-1,0.6-1.9,0.6c-1,0-2.3-0.2-3.6-0.7l-0.1,0c-0.4,0-0.6,0.6-0.6,1.1
		c0,0.1,0,0.3,0.1,0.4c0.1,0.3,0.4,0.4,0.4,0.4l0,0.1c0,1.1-1.8,3.4-2.1,4c0,0.1-0.1,0.2-0.1,0.3c0,0.5,0.4,1.3,1.1,1.3l0.2,0
		c0.5-0.1,1.6-0.5,2.6-0.5c0.7,0,1.3,0.2,1.3,0.9c0,0.1,0,0.2,0,0.4c-0.4,1.9-2.2,4.8-4.4,4.8c-0.2,0-0.4,0-0.6-0.1
		c-0.6-0.1-1.2-0.5-1.5-1c-0.1-0.1-0.1-0.1-0.2-0.1c-0.2,0-0.4,0.3-0.4,0.6l0,0.2c0.3,0.9,1.7,1.7,2.5,1.8l0.6,0c3,0,5.3-2.4,6-5.2
		c0-0.2,0.1-0.4,0.1-0.5c0-1.3-1.2-2.4-2.3-2.6l-0.6-0.1c-0.7,0-1.4,0.1-1.9,0.2c0.5-0.9,1.5-2.6,1.5-3.5l-0.1-0.3
		c0.7,0.1,1.7,0.3,2.6,0.3c0.8,0,1.6-0.1,1.9-0.5c0.3-0.3,0.4-0.7,0.4-1c0-0.6-0.2-1.1-0.4-1.3C337.1,525.8,337,525.8,337,525.8z"/>
	<rect x="194.8" y="532.4" class="st0" width="23.5" height="2.1"/>
	<rect x="348.6" y="532.4" class="st0" width="23.5" height="2.1"/>
</g>
</svg>
