<?xml version="1.0" encoding="utf-8"?>
<!-- Generator: Adobe Illustrator 25.3.0, SVG Export Plug-In . SVG Version: 6.00 Build 0)  -->
<svg version="1.1" id="Capa_1" xmlns="http://www.w3.org/2000/svg" xmlns:xlink="http://www.w3.org/1999/xlink" x="0px" y="0px"
	 viewBox="0 0 566.9 566.9" style="enable-background:new 0 0 566.9 566.9;" xml:space="preserve">
<style type="text/css">
	.st0{fill:#B2CC23;}
	.st1{fill:#020203;}
</style>
<g>
	<path class="st0" d="M116.5,97.3h-0.2c-24.4,0-44.9,33.1-50.3,52.8c-0.4,1.8-0.7,3.8-0.7,5.6c0,3.1,0.9,6,3.8,7.8
		c1.8,0.9,3.8,1.3,5.8,1.3c3.6,0,7.2-1.1,10.1-2c1.1-0.4,1.6-1.3,1.6-2.2c0-0.9-0.7-1.8-1.8-2c-0.7,0-0.9-1.1-0.9-2.2
		c0-1.6,0.2-3.4,0.7-4.9c2.7-11.9,16.8-39.4,28.2-44.5c1.1-0.4,2-0.7,2.9-0.7c1.8,0,2.9,0.9,3.8,2.5c0.9,2.2,1.3,5.4,1.3,9.2
		c0,12.3-4.5,30.2-6.7,38.5c-11.2,6.5-21.5,17.9-29.5,29.3c-9.4,14.1-15.6,28.6-15.6,36.2v1.3c0.9,6.3,4.7,10.3,9.8,12.3
		c2.5,1.1,5.4,1.6,7.6,1.6c1.3,0,2.5-0.2,3.4-0.5c19.9-6.9,35.8-49.6,42-70c4.5-14.1,8.3-29.5,8.3-42.3
		C140,108.7,134.2,97.3,116.5,97.3z M80.7,228.8l-0.7-0.2c-0.4-0.4-0.7-1.3-0.7-2.2c0-11.6,26.6-53.2,31.5-59.3
		C108.9,173.3,89,228.8,80.7,228.8z"/>
	<path class="st0" d="M290.5,136.9h0.5c2.2-1.1,19-7.8,21.9-9.6c0.9-0.5,1.3-1.3,1.3-2.5c0-2.9-2.5-6.9-5.1-6.9l-1.6,0.4
		c-3.4,1.8-18.8,12.7-19.2,13.2c-0.4,0.2-0.7,0.9-0.7,1.6C287.6,134.6,289.2,136.9,290.5,136.9z"/>
	<path class="st0" d="M370.6,149.6c0-1.1-0.9-2.2-2.2-2.2h-16.8c-4,0-15.6,27.5-17.7,31.5c-0.1,0.2-0.2,0.5-0.2,0.7
		c-3.9,8.3-10.3,21.3-16.3,30.6c-4,6.5-8.3,11.4-11.2,11.4h-0.2c-0.9,0-1.1-1.3-1.1-3.4v-1.8c0.2-16.1,14.8-54.6,17.7-61.7l0.2-0.9
		c0-3.6-6.9-6.5-12.3-6.5c-2.5,0-4.7,0.7-5.4,2.5c-2.2,5.1-5.8,14.3-9.2,24.4c-5.8,16.3-11.2,27.5-15.9,34.9
		c-5.6,9.4-9.8,12.5-12.3,12.5h-0.2c-1.1,0-1.3-2.2-1.3-5.1c0.4-16.1,15-54.6,17.9-61.7l0.2-0.9c0-3.6-6.9-6.7-12.1-6.7
		c-2.7,0-4.9,0.9-5.8,2.7c-2.4,5.1-7,17.6-10.7,30c-4.2,8.9-8.3,15.9-11.9,21.7c-3.6,5.4-8.3,11.4-11.2,14.5c2-3.1,3.4-7.2,4.5-12.3
		c0.4-2.2,0.7-4.5,0.7-6.7c0-9.6-3.1-19-3.1-28.4c0-5.8,1.3-11.9,5.4-17.9c0.4-0.4,0.4-1.1,0.4-1.6c0-1.1-0.9-2-2.2-2h-16.5
		c-4.1,0-15.3,25.9-17.5,30.9c-0.1,0.2-0.3,0.4-0.4,0.6c-14.1,29.3-25.3,38.9-33.1,41.8c-1.8,0.4-3.6,0.7-4.9,0.7l-2.5-0.2
		c-7.4-1.6-9.8-10.3-9.8-18.8c0-2.9,0.4-5.8,0.9-8.5c1.8,1.6,4,2.2,6.3,2.2c12.1,0,28.4-19.5,28.8-35.3v-0.5c0-8.5-6.9-12.7-15.4-13
		h-0.9c-16.3,0-28.2,17.2-33.5,31.5c-2.7,7.2-4.3,14.5-4.3,21.5c0,14.1,6.9,25.3,25.9,25.9h2.5c2.2,0,4.9-0.2,7.8-1.1
		c6.1-2.1,13.7-7.5,22.6-20.4c-0.2,1.1-0.3,2.3-0.3,3.4c0,9.6,6.3,18.1,19.5,18.1h2c6.7,0,14.5-0.4,21.2-7.8
		c3.8-4.3,7.2-8.7,10.5-13.9c1.3-1.9,2.5-3.9,3.7-6c-0.9,4.8-1.5,9.4-1.5,13.4c0,3.8,0.4,6.9,1.8,9.2c2.5,4.5,8.3,5.1,13.9,5.1h2.9
		c5.1-0.2,11-6.7,15.6-14.1c1.8-3.1,3.6-6.3,4.9-9.2c-0.5,3.1-0.7,6-0.7,8.7c0,3.8,0.7,7.2,1.8,9.4c2.7,4.5,8.5,5.1,14.1,5.1h2.7
		c4.5-0.2,9.4-5.4,14.1-12.5c1.1-1.6,2.3-3.4,3.4-5.2c0.1,9.6,6.3,18.2,19.4,18.2c16.3,0,24.4-14.3,24.4-29.1c0-9.6-2.7-19-2.7-28.4
		c0-6,1.1-12.1,5.1-18.1C370.3,150.5,370.6,150.1,370.6,149.6z M164.4,170.9c2.2-3.1,9.4-12.5,14.5-12.5c0.7,0,1.1,0,1.8,0.4
		c0.7,0.4,1.1,1.1,1.1,2.5c0,7.2-12.8,26.8-22.4,26.8c-1.1,0-2.2-0.2-3.1-0.9C158.1,181.8,161,176,164.4,170.9z M214.5,216.9
		c-1.1,1.3-2.7,2.5-4,2.5c-0.4,0-0.9,0-1.3-0.4c-0.9-0.7-1.3-1.8-1.3-3.6c0-4.7,3.1-12.5,6.7-15.4c0.7-0.4,0.9-1.1,0.9-1.6
		c0-3.1-6.5-7.8-11.6-7.8c-0.4,0-0.8,0-1.1,0.1c1.6-2.9,3.1-6,4.8-9.3c0.2-0.2,0.5-0.4,0.6-0.6l8-17.4c-0.2,1.6-0.2,3.1-0.2,4.7
		c0,9.8,2.7,22.4,2.7,33.1C218.5,207.3,217.6,212.9,214.5,216.9z M344.4,217.4c-1.1,1.3-2.7,2.5-4,2.5c-0.5,0-0.9-0.2-1.3-0.4
		c-0.7-0.4-1.1-1.8-1.1-3.4c0-4.7,3.1-12.8,6.5-15.9c0.7-0.4,0.9-0.9,0.9-1.6c0-2.9-6.5-7.6-11.6-7.6c-0.2,0-0.3,0-0.5,0
		c1.8-3.8,3.5-7.4,4.9-10.5c0-0.1,0.1-0.2,0.1-0.2l7.7-16.5c-0.2,1.6-0.2,3.1-0.2,4.7c0,9.8,2.7,22.4,2.7,33.1
		C348.4,207.8,347.5,213.4,344.4,217.4z"/>
</g>
<g>
	<path class="st0" d="M292.4,396.8L292.4,396.8c-6.4,0-11.7,8.5-13.1,13.6c-0.1,0.5-0.2,1-0.2,1.4c0,0.8,0.2,1.6,1,2
		c0.5,0.2,1,0.3,1.5,0.3c0.9,0,1.8-0.3,2.6-0.5c0.3-0.1,0.4-0.3,0.4-0.6c0-0.2-0.2-0.5-0.5-0.5c-0.2,0-0.2-0.3-0.2-0.6
		c0-0.4,0.1-0.9,0.2-1.3c0.7-3.1,4.3-10.2,7.3-11.5c0.3-0.1,0.5-0.2,0.8-0.2c0.5,0,0.8,0.2,1,0.6c0.2,0.6,0.3,1.4,0.3,2.4
		c0,3.2-1.2,7.8-1.7,9.9c-2.9,1.7-5.5,4.6-7.6,7.6c-2.4,3.6-4,7.4-4,9.4v0.3c0.2,1.6,1.2,2.7,2.5,3.2c0.6,0.3,1.4,0.4,2,0.4
		c0.3,0,0.6-0.1,0.9-0.1c5.1-1.8,9.2-12.8,10.9-18.1c1.2-3.6,2.1-7.6,2.1-10.9C298.5,399.7,297,396.8,292.4,396.8z M283.2,430.8
		l-0.2-0.1c-0.1-0.1-0.2-0.3-0.2-0.6c0-3,6.9-13.7,8.1-15.3C290.5,416.4,285.3,430.8,283.2,430.8z"/>
	<path class="st0" d="M352.3,409.7c-0.7,0-1.4,0.2-2.1,0.7c-1.6,1.1-3.2,3-4.4,4.6c-1,1.3-2,2.7-2.8,4c0.2-0.5,2-6.2,2.5-7.3
		l0.1-0.3c0-0.9-1.9-1.7-3.3-1.7c-0.7,0-1.2,0.2-1.4,0.6c-0.6,1.6-1.6,4.7-2.6,7.9c-1.8,3.8-5.1,10.5-7,10.5c-0.3,0-0.3-0.5-0.3-1.3
		c0.1-4.2,3.9-14.1,4.6-15.9l0.1-0.2c0-0.9-1.8-1.7-3.1-1.7c-0.7,0-1.2,0.2-1.5,0.6l-0.4,1c-0.7-1.1-1.9-1.6-3.4-1.6h-0.1
		c-4.3,0-7.8,4.7-9.2,9.4c-1,2.1-2.3,4.8-3.6,6.8c-1.1,1.7-2.1,2.9-2.9,2.9c-0.3,0-0.4-0.5-0.4-1.3c0.1-4.2,3.9-14.1,4.6-15.9
		l0.1-0.2c0-0.9-1.8-1.7-3.2-1.7c-0.7,0-1.3,0.2-1.4,0.7c-0.6,1.3-1.5,3.7-2.3,6.3c-1.6,4.2-2.9,7.1-4.1,9c-1.5,2.4-2.6,3.2-3.2,3.2
		c-0.3,0-0.3-0.5-0.3-1.3c0.1-4.2,3.9-14.1,4.6-15.9l0.1-0.2c0-0.9-1.8-1.7-3.2-1.7c-0.7,0-1.2,0.2-1.4,0.7
		c-0.9,1.8-2.9,7.6-3.8,11.6c-0.3,1.6-0.6,3.1-0.6,4.3c0,1,0.1,1.8,0.5,2.4c0.6,1.2,2.1,1.4,3.6,1.4h0.8c1.3-0.1,2.8-1.7,4-3.7
		c0.5-0.8,1-1.6,1.3-2.3c-0.1,0.8-0.2,1.6-0.2,2.3c0,1,0.1,1.8,0.5,2.4c0.6,1.2,2.1,1.4,3.6,1.4h0.8c1.1-0.1,2.4-1.4,3.6-3.2
		c0.7-1.1,1.5-2.4,2.2-3.7c0,0.2,0,0.3,0,0.5c0,3,1.2,5.3,3.9,5.4h0.1c2.3,0,4.1-2.3,5.4-4.6c-0.1,0.7-0.1,1.3-0.1,1.8
		c0,1,0.1,1.8,0.5,2.4c0.6,1.2,2.1,1.4,3.6,1.4h0.7c1.7-0.1,3.7-3,5.4-6.1c-0.5,2-0.8,3.7-0.8,4.6c0,1.3,1.9,1.7,3.3,1.7h0.3
		c0.3-0.1,0.6-0.2,0.6-0.6c0.1-1.3,0.6-3.6,1.3-6.2c0.8-1.4,2.8-4.8,5.1-7.7c0.6-0.8,2.1-2.5,2.6-3c0.2-0.2,0.4-0.3,0.6-0.3
		c0.1,0,0.2,0.1,0.2,0.4c0,0.6-3.2,9.8-3.5,13.6v0.4c0,3.1,1.6,3.4,3.9,3.4h1.1c0.2,0,0.4-0.3,0.4-0.6c0-0.2-0.1-0.5-0.3-0.6
		c-0.2-0.1-0.2-0.5-0.2-1.1c0-3.4,2.8-11,3.6-15l0.1-0.7C355,410.7,353.8,409.7,352.3,409.7z M328.1,418.2c-0.6,1.4-3.7,7.5-5.4,7.6
		c-0.6,0-0.9-0.6-0.9-1.6c0-3.4,3.3-11.3,5.9-11.3l0.3,0.1c0.6,0.2,0.9,0.8,0.9,1.6C328.9,415.9,328.4,417.4,328.1,418.2z"/>
	<path class="st0" d="M368,414.2c-0.2-0.1-0.4-0.2-0.6-0.2c-0.2,0-0.4,0.1-0.6,0.2c-0.2,0.1-0.4,0.3-0.5,0.5
		c-0.1,0.2-0.3,0.4-0.4,0.7c-0.1,0.3-0.2,0.5-0.2,0.8c-0.1,0.7,0,1.2,0.3,1.5c0.3,0.3,0.6,0.4,1,0.4c0.5,0,0.9-0.1,1.3-0.4
		c0.4-0.3,0.6-0.7,0.7-1.2c0.1-0.5-0.1-1-0.5-1.6C368.4,414.5,368.2,414.3,368,414.2z"/>
	<path class="st0" d="M367.7,421.6c-0.2-0.3-0.4-0.5-0.6-0.6c-0.2-0.1-0.4-0.2-0.6-0.2c-0.2,0-0.4,0.1-0.6,0.2
		c-0.2,0.1-0.4,0.3-0.5,0.5c-0.1,0.2-0.3,0.4-0.4,0.7c-0.1,0.3-0.2,0.5-0.2,0.8c-0.1,0.7,0,1.2,0.3,1.5c0.3,0.3,0.6,0.4,1,0.4
		c0.2,0,0.4,0,0.7-0.1c0.2-0.1,0.4-0.2,0.6-0.3c0.2-0.1,0.4-0.3,0.5-0.5c0.1-0.2,0.2-0.4,0.2-0.7c0-0.2,0-0.5-0.1-0.7
		C368,422.2,367.9,421.9,367.7,421.6z"/>
	<path class="st0" d="M399.9,407.9l-0.1-1c-0.5-2.5-1.9-4.2-3.9-5c-0.7-0.2-1.7-0.3-2.7-0.3c-1,0-2.1,0.1-2.9,0.3
		c-3.3,0.8-6.8,3.5-6.8,7v0.1c0.1,2,1.4,3.1,3.1,3.1c0.4,0,0.8-0.1,1.2-0.2c0.3-0.1,0.4-0.3,0.4-0.5c0-0.2-0.1-0.3-0.3-0.4
		c-0.3-0.1-0.6-0.8-0.6-1.3v-0.2c0-3.3,4-6.2,6.7-6.2l0.8,0.1c1.3,0.3,1.8,1.9,1.8,3.1c0,0.2,0,0.5-0.1,0.6c-1,4-5.6,7-9.9,7h-0.3
		c-0.8,0-1.1,0.6-1.1,1.4c0,1,0.5,2,1.2,2.1c0.7,0.1,1.6,0.2,2.4,0.2c0.9,0,1.8-0.1,2.4-0.3l0.3-0.1c0.6,0,0.9,0.7,0.9,1.6
		c0,2.5-2.2,7-7.4,7h-0.6c-1.9-0.1-3.8-0.6-4.9-2.3c-0.1-0.2-0.3-0.2-0.5-0.2c-0.5,0-1.2,0.7-1.2,1.6c0,0.2,0,0.5,0.1,0.7
		c1,3.1,5.1,4.1,8.1,4.1c4.4,0,8.6-2,10.2-6.5c0.2-0.6,0.3-1.3,0.3-2c0-2.3-1-4.9-2.8-5.2C396.7,414.8,399.9,411.4,399.9,407.9z"/>
	<path class="st0" d="M423.6,403.3c0-0.9-1.7-1.7-2.9-1.7c-0.6,0-1,0.1-1.3,0.5c-1.7,2-6.9,6.2-9.7,7c-0.2,0.1-0.4,0.3-0.4,0.5
		c0.3,1.2,1,2.1,2.4,2.1c1.8,0,4-1.7,5.1-2.8c-1.2,3.5-5.3,15.3-5.3,18.9c0.2,1.8,1,2.1,2.9,2.1h0.6c0.3,0,0.6-0.3,0.6-0.6
		c0-4.4,7.4-24.4,8-25.9L423.6,403.3z"/>
	<path class="st0" d="M439.6,402.9c-0.7-1-2.1-1.3-3.2-1.3l-1,0.1c-5,1-11.5,10.3-13.7,16.8c-0.5,1.4-0.8,3.1-0.8,4.8
		c0,2.5,0.8,5.1,3.1,6.2c0.9,0.5,2,0.6,3.1,0.6c1.1,0,2.3-0.2,3.3-0.5c4.4-1.3,7.8-6.8,7.8-11.4l-0.1-0.9c-0.3-2.4-2.8-4.6-5.1-4.6
		h-0.2c-1.4,0.1-2.6,0.5-3.9,1.2c1.7-2.9,4.4-6.5,6.9-8.8c0.9-0.9,1.8-1.5,2.4-1.5c0.1,0,0.2,0,0.3,0.1c0.1,0.2,0.3,0.2,0.5,0.2
		c0.3,0,0.6-0.3,0.6-0.6C439.7,403.1,439.7,403,439.6,402.9z M431.8,414.4L431.8,414.4c1.3,0,1.8,1.1,1.8,2.7
		c0,3.9-3.2,10.6-6.2,10.8h-0.2c-1.6,0-2.1-1.2-2.1-2.8c0-2.8,1.6-6.9,2.3-8.2C428.2,415.5,430.2,414.5,431.8,414.4z"/>
</g>
<g>
	<path class="st1" d="M193.2,331.5c0,0-2.9-15.7-17.9-15.7h-0.2c-4.7,0-17.4,5.4-24.3,5.4c-2.5,0-4.2-0.7-4.7-2.4l-0.5-3.7
		c0-21.4,30.9-68.2,43-71.2h0.7c2.5,0,3.7,3.9,4.2,8.1l0.2,5.4c0,7.6-1.5,16.4-3.7,23.6c-2,5.9-7.1,17.9-14.2,18.4
		c-1.5,0-2.2,1.2-2.2,2.2c0,1.2,0.7,2.2,2,2.5c3.9,1,8.6,2.5,13.3,2.5c8.1,0,16.5-3.9,21.4-18.9c2.2-7.1,3.7-14.7,3.7-22.1
		c0-16.9-7.4-32.2-29.7-32.2c-29.9,0-62.1,54.7-62.1,76.8c0,12.5,11,20.9,21.6,20.9h0.5c5.4-0.2,22.6-5.2,28-5.2c1,0,1.7,0,1.7,0.5
		l0.2,2.2c0,7.1-6.4,19.2-9.6,24.1c-6.1,10.1-14.7,19.2-24.1,21.6c-1.2,0.2-2.2,0.5-3.4,0.5c-6.6,0-12-6.4-12.5-13.3v-2
		c0-6.6,3.2-14.5,7.9-21.4c0.2-0.5,0.5-1,0.5-1.5c0-1.2-1.2-2.2-2.5-2.2c-0.5,0-0.7,0-1.2,0.2c-7.9,4.4-14.2,18.4-14.2,27.2l0.2,2.9
		c2.5,12.5,16.4,22.1,28.7,22.1C169.9,387,193.2,352.3,193.2,331.5z"/>
	<path class="st1" d="M220.5,370.3h0.5c9.6,0,17.4-9.6,23.1-19.4c-0.2,2.9-0.5,5.4-0.5,7.9c0,4.2,0.5,7.9,2,10.3
		c2.7,5.2,9.1,5.9,15.2,5.9h2.9c7.8-0.3,17.2-15.1,25-30c-0.8,5-1.2,9.5-1.2,13.5c0,4.2,0.5,7.9,1.7,10.6c2.5,5.2,8.1,5.9,14,5.9
		h3.4c5.2-0.2,10.6-6.6,13.3-10.6c5.6-7.4,11.1-17.5,15.6-26.8c-0.1,2.1-0.2,4.2-0.2,6.2c0,9.3,1,18.2,3.9,25
		c2.5,6.4,11.8,5.9,23.3,6.1c1,0,2.9-1,3.9-2c8.3-6.9,37.1-53.5,37.1-74.6c0-1.5,0-1.2-0.2-2.7c-0.2-4.2-8.8-8.6-12.3-8.6
		c-1.2,0-2.5,1-2.5,2.2l0.2,1c0.5,1.2,0.7,2.9,0.7,4.7v2.2c0,21.1-22.3,61.9-31.7,70.9c-2.5-1.5-3.4-8.1-3.4-20.6
		c0-16,2.7-36.1,8.3-50.8l0.2-1.2c0-3.7-7.6-7.1-13.5-7.1c-2.9,0-5.6,1-6.1,3.2c-2.6,9.5-5.1,20.6-6.6,31.9
		c-4.9,10.4-13.1,27.9-20.6,38.3c-1.5,2-6.1,8.3-9.3,8.3h-0.5c-0.5,0-0.5-1-0.5-2.5l0.3-4.9c2.7-25.3,28.5-92.8,31.4-100.6l0.2-0.7
		c0-3.4-8.1-7.6-14.5-7.6c-2.9,0-5.4,1-6.6,2.9c-2.8,6.4-16.1,39.4-23.8,68.8c-7.5,16.1-21.8,44.4-29.5,44.6c-1.2,0-1.5-2.2-1.5-5.6
		c0.5-17.7,16.4-59.9,19.6-67.7l0.2-1c0-3.9-7.6-7.4-13.3-7.4c-2.9,0-5.2,0.7-6.4,2.7l-1.7,4.4c-3-4.7-8.1-6.9-14.5-6.9h-0.2
		c-24.3,0-42,34.6-42,58.9C203.8,360.2,208.7,370,220.5,370.3z M248.4,302l1.5,0.2c2.7,0.7,3.7,3.4,3.7,6.9c0,5.4-2.2,12-3.4,15.2
		c-2.5,6.1-15.7,31.9-23.1,32.2c-2.5,0-3.7-2.5-3.7-6.6C223.4,335.4,237.4,302,248.4,302z"/>
	<path class="st1" d="M478.4,297.1l0.2-1.2c0-3.7-7.6-7.1-13.3-7.1c-2.7,0-5.2,0.7-6.1,2.5l-1.7,4.4c-3-4.7-8.4-6.6-14.5-6.9h-0.2
		c-24.3,0-42,34.9-42,59.2c0,12.8,4.9,22.6,16.7,22.8h0.2c9.8,0,17.4-9.6,23.3-19.4c-0.2,2.9-0.5,5.4-0.5,7.9c0,4.2,0.5,7.9,2,10.3
		c0.9,25.4-75.1,1.6-212.4,8c-45.5,2.1-75.9,15.1-93.2,45.3c0,0,27.7-8.1,46.1,2c0,0,11.5-27,60.9-31.1
		c48.9-4.1,148.4,3.9,196.1-7.6c27.9-6.7,19-18,19-20c0-3.2,0.5-7.6,0.7-9.1C463.2,336.9,475.7,304,478.4,297.1z M447.3,324.6
		c-2.5,6.4-15.7,31.9-23.3,32.2c-2.5,0-3.4-2.5-3.4-6.4c0-14.5,14-48.1,25-48.1l1.5,0.2c2.7,1,3.7,3.7,3.7,7.1
		C450.7,314.8,448.5,321.7,447.3,324.6z"/>
</g>
</svg>
