<?xml version="1.0" encoding="utf-8"?>
<!-- Generator: Adobe Illustrator 25.3.0, SVG Export Plug-In . SVG Version: 6.00 Build 0)  -->
<svg version="1.1" id="Layer_1" xmlns="http://www.w3.org/2000/svg" xmlns:xlink="http://www.w3.org/1999/xlink" x="0px" y="0px"
	 viewBox="0 0 841.89 1190.55" style="enable-background:new 0 0 841.89 1190.55;" xml:space="preserve">
<style type="text/css">
	.st0{fill:#FFFFFF;}
	.st1{fill:#E41D20;}
	.st2{fill:#62B22F;}
	.st3{fill:#020202;}
</style>
<g>
	<g>
		<rect x="58.17" y="263.01" class="st3" width="5.8" height="20.99"/>
	</g>
	<g>
		<rect x="68.89" y="256.65" class="st3" width="5.8" height="27.34"/>
	</g>
	<g>
		<rect x="79.61" y="250.3" class="st3" width="5.8" height="33.69"/>
	</g>
	<g>
		<rect x="90.32" y="245.33" class="st3" width="5.8" height="38.67"/>
	</g>
	<g>
		<rect x="101.04" y="239.66" class="st3" width="5.8" height="44.33"/>
	</g>
</g>
<g>
	<g>
		<path class="st3" d="M163.25,232.68c7.27,0.06,14.67,1.94,21.58,5.74c3.8,2.09,7.25,4.64,10.31,7.72
			c1.23,1.23,1.44,3.08,0.53,4.54c-0.9,1.45-2.68,2.07-4.31,1.51c-0.54-0.19-1-0.51-1.41-0.91c-5.71-5.62-12.52-9.14-20.38-10.66
			c-2.54-0.49-5.11-0.66-7.69-0.64c-1.7,0.02-3.4,0.2-5.08,0.47c-7.59,1.23-14.26,4.39-20,9.5c-0.5,0.44-0.97,0.92-1.45,1.38
			c-1.47,1.41-3.66,1.41-5.13,0c-1.39-1.33-1.47-3.59-0.11-5.06c0.98-1.07,2.1-2.01,3.21-2.95c1.08-0.92,2.23-1.77,3.4-2.56
			c2.02-1.35,4.1-2.61,6.31-3.64c3.85-1.79,7.86-3.08,12.05-3.8C157.57,232.9,160.1,232.7,163.25,232.68z"/>
	</g>
	<g>
		<path class="st3" d="M162.83,245.7c5.57,0.04,10.9,1.44,15.88,4.19c2.69,1.49,5.13,3.31,7.29,5.5c0.98,1,1.29,2.23,0.88,3.57
			c-0.42,1.37-1.34,2.24-2.76,2.54c-1.34,0.28-2.45-0.15-3.4-1.08c-1.06-1.04-2.18-2.02-3.41-2.84c-2.4-1.62-4.98-2.87-7.78-3.62
			c-7.31-1.95-14.18-0.88-20.61,3.08c-1.58,0.97-3.01,2.14-4.32,3.45c-1.59,1.59-4.15,1.42-5.52-0.35c-1.12-1.44-0.97-3.5,0.39-4.86
			c1.98-1.98,4.2-3.66,6.62-5.08C151.13,247.28,156.56,245.8,162.83,245.7z"/>
	</g>
	<g>
		<path class="st3" d="M174.37,270.8c-1.24,0.01-2.09-0.39-2.81-1.09c-1.96-1.92-4.29-3.13-7-3.51c-4.03-0.57-7.58,0.55-10.56,3.34
			c-1.21,1.13-2.53,1.6-4.1,1.04c-2.43-0.86-3.18-3.99-1.4-5.89c1.16-1.24,2.51-2.27,3.98-3.12c2.39-1.4,4.95-2.32,7.71-2.66
			c3.81-0.46,7.44,0.11,10.92,1.74c2.13,1,4.04,2.3,5.68,3.98c1.04,1.06,1.33,2.62,0.76,3.96
			C176.97,269.93,175.65,270.8,174.37,270.8z"/>
	</g>
	<g>
		<path class="st3" d="M162.72,272.99c3.22-0.01,5.66,2.69,5.69,5.61c0.04,3.31-2.49,5.86-5.78,5.89c-3,0.02-5.69-2.6-5.71-5.53
			C156.9,275.58,159.52,272.96,162.72,272.99z"/>
	</g>
</g>
<g>
	<path class="st3" d="M388.37,267.91c0,11.03-4.09,17.12-11.28,17.12c-6.34,0-10.63-5.94-10.73-16.68
		c0-10.88,4.69-16.88,11.28-16.88C384.47,251.48,388.37,257.58,388.37,267.91z M370.74,268.41c0,8.44,2.6,13.23,6.59,13.23
		c4.49,0,6.64-5.24,6.64-13.53c0-7.99-2.05-13.23-6.59-13.23C373.54,254.88,370.74,259.57,370.74,268.41z"/>
	<path class="st3" d="M411.78,255.73H399.4l-1.25,8.34c0.75-0.1,1.45-0.2,2.65-0.2c2.5,0,4.99,0.55,6.99,1.75
		c2.55,1.45,4.64,4.24,4.64,8.34c0,6.34-5.04,11.08-12.08,11.08c-3.54,0-6.54-1-8.09-2l1.1-3.35c1.35,0.8,3.99,1.8,6.94,1.8
		c4.14,0,7.69-2.7,7.69-7.04c-0.05-4.19-2.85-7.19-9.34-7.19c-1.85,0-3.29,0.2-4.49,0.35l2.1-15.58h15.53V255.73z"/>
	<path class="st3" d="M421.27,267.41c-1.7,0-2.9-1.35-2.9-3.1c0-1.85,1.25-3.2,3-3.2s2.9,1.35,2.95,3.2c0,1.75-1.15,3.1-3,3.1
		H421.27z M421.27,285.04c-1.7,0-2.9-1.35-2.9-3.1c0-1.85,1.25-3.15,3-3.15s2.9,1.3,2.95,3.15c0,1.75-1.15,3.1-3,3.1H421.27z"/>
	<path class="st3" d="M429.41,279.44c1.25,0.8,4.14,2.05,7.19,2.05c5.64,0,7.39-3.59,7.34-6.29c-0.05-4.54-4.14-6.49-8.39-6.49
		h-2.45v-3.3h2.45c3.2,0,7.24-1.65,7.24-5.49c0-2.6-1.65-4.89-5.69-4.89c-2.6,0-5.09,1.15-6.49,2.15l-1.15-3.2
		c1.7-1.25,4.99-2.5,8.49-2.5c6.39,0,9.29,3.79,9.29,7.74c0,3.34-2,6.19-5.99,7.64v0.1c3.99,0.8,7.24,3.79,7.24,8.34
		c0,5.19-4.04,9.74-11.83,9.74c-3.64,0-6.84-1.15-8.44-2.2L429.41,279.44z"/>
	<path class="st3" d="M475.54,267.91c0,11.03-4.1,17.12-11.29,17.12c-6.34,0-10.63-5.94-10.73-16.68c0-10.88,4.69-16.88,11.28-16.88
		C471.65,251.48,475.54,257.58,475.54,267.91z M457.92,268.41c0,8.44,2.6,13.23,6.59,13.23c4.49,0,6.64-5.24,6.64-13.53
		c0-7.99-2.05-13.23-6.59-13.23C460.71,254.88,457.92,259.57,457.92,268.41z"/>
</g>
<g>
	<path class="st3" d="M584.96,256.13h-0.1l-5.64,3.05l-0.85-3.35l7.09-3.79h3.74v32.45h-4.24V256.13z"/>
	<path class="st3" d="M622.6,267.91c0,11.03-4.1,17.12-11.29,17.12c-6.34,0-10.63-5.94-10.73-16.68c0-10.88,4.69-16.88,11.28-16.88
		C618.71,251.48,622.6,257.58,622.6,267.91z M604.98,268.41c0,8.44,2.6,13.23,6.59,13.23c4.49,0,6.64-5.24,6.64-13.53
		c0-7.99-2.05-13.23-6.59-13.23C607.78,254.88,604.98,259.57,604.98,268.41z"/>
	<path class="st3" d="M648.22,267.91c0,11.03-4.09,17.12-11.28,17.12c-6.34,0-10.63-5.94-10.73-16.68
		c0-10.88,4.69-16.88,11.28-16.88C644.32,251.48,648.22,257.58,648.22,267.91z M630.59,268.41c0,8.44,2.6,13.23,6.59,13.23
		c4.49,0,6.64-5.24,6.64-13.53c0-7.99-2.05-13.23-6.59-13.23C633.39,254.88,630.59,259.57,630.59,268.41z"/>
	<path class="st3" d="M659.4,251.48c4.49,0,7.49,3.49,7.49,9.69c0,6.84-3.6,10.23-7.79,10.23c-4.04,0-7.54-3.29-7.59-9.79
		c0-6.49,3.54-10.14,7.84-10.14H659.4z M659.15,254.13c-2.7,0-4.14,3.25-4.14,7.34c-0.1,4.09,1.45,7.29,4.19,7.29
		c2.9,0,4.2-3.1,4.2-7.39c0-3.94-1.15-7.24-4.2-7.24H659.15z M658.8,285.08l19.07-33.65h2.79l-19.12,33.65H658.8z M680.57,264.91
		c4.49,0,7.44,3.5,7.44,9.69c0,6.84-3.6,10.24-7.74,10.24c-4.04,0-7.54-3.25-7.59-9.74c0-6.54,3.54-10.19,7.84-10.19H680.57z
		 M680.32,267.56c-2.7,0-4.19,3.25-4.19,7.34c-0.05,4.14,1.55,7.29,4.24,7.29c2.89,0,4.19-3.1,4.19-7.39c0-3.94-1.15-7.24-4.19-7.24
		H680.32z"/>
</g>
<g>
	<g>
		<path class="st3" d="M766.62,287.13H702.5c-3.35,0-6.06-2.71-6.06-6.06v-33.78c0-3.35,2.71-6.06,6.06-6.06h64.11
			c3.35,0,6.06,2.71,6.06,6.06v33.78C772.68,284.41,769.96,287.13,766.62,287.13z"/>
	</g>
	<g>
		<path class="st3" d="M780.98,274.66h-3.16c-1.51,0-2.74-1.22-2.74-2.74v-15.5c0-1.51,1.22-2.74,2.74-2.74h3.16
			c1.51,0,2.74,1.22,2.74,2.74v15.5C783.71,273.44,782.49,274.66,780.98,274.66z"/>
	</g>
</g>
<g>
	<g>
		<path class="st1" d="M118.9,929.39c-33.71-27.78-38.67-78.11-10.49-111.59c28.1-33.38,77.51-37.65,110.93-9.81
			c33.42,27.83,37.68,78.18,9.79,110.91C201.31,952.04,151.81,956.5,118.9,929.39z"/>
	</g>
	<g>
		<path class="st0" d="M112.76,855.5c7.1-8.26,14.3-11.64,22.1-13.87c13.81-3.94,27.95-4.5,42.18-3.6
			c11.59,0.73,22.97,2.53,33.51,7.8c8.35,4.17,14.89,10.07,17.77,19.3c0.72,2.3,1.04,4.66,1.06,7.06c0.04,4.56-1.61,6.99-6.07,7.97
			c-6.62,1.45-13.34,1.5-19.94-0.12c-5.88-1.44-7.82-5.67-5.47-11.2c1.77-4.15,0.8-7.76-3.21-11.27c-5.76-5.03-12.7-7.08-20.17-7.54
			c-8.97-0.55-17.25,1.73-24.79,6.6c-5.07,3.27-6.65,7.78-4.78,13.43c1.21,3.66-0.21,7.84-3.49,10.19
			c-0.62,0.45-1.28,0.91-1.99,1.16c-8.71,3-17.37,3.08-25.88-0.68c-3.73-1.65-5.47-4.58-5.45-8.82
			C108.19,865.06,109.84,858.84,112.76,855.5z"/>
	</g>
</g>
<g>
	<g>
		<path class="st2" d="M729.98,868.21c0.42,43.68-34.91,79.86-78.67,79.83c-43.64-0.04-78.69-35.11-78.88-78.61
			c-0.19-43.49,35.61-79.14,78.6-78.85C694.3,790.54,729.57,825.57,729.98,868.21z"/>
	</g>
	<g>
		<path class="st0" d="M677.36,920.44c-10.89-0.13-18.11-3.46-24.83-8c-11.91-8.04-21.42-18.5-29.89-29.97
			c-6.9-9.34-12.84-19.22-15.59-30.67c-2.18-9.08-1.87-17.87,3.34-26.02c1.3-2.03,2.9-3.79,4.72-5.36
			c3.46-2.96,6.39-3.27,10.01-0.48c5.37,4.14,9.73,9.25,12.74,15.34c2.69,5.43,0.69,9.64-5.06,11.39c-4.31,1.32-6.46,4.38-6.56,9.71
			c-0.15,7.65,2.75,14.28,7.2,20.29c5.36,7.22,12.43,12.09,21.01,14.73c5.77,1.78,10.23,0.08,13.36-4.98
			c2.02-3.28,6.13-4.88,10.05-3.88c0.74,0.19,1.52,0.39,2.17,0.78c7.9,4.74,13.54,11.32,16.13,20.25c1.14,3.92,0.01,7.14-3.24,9.84
			C687.62,917.8,681.8,920.53,677.36,920.44z"/>
	</g>
</g>
<g>
	<g>
		<path class="st3" d="M260.87,411.71h18.7v5.23c0,4.02,0.63,6.91,1.9,8.65c1.26,1.75,3.34,2.62,6.22,2.62
			c2.99,0,5.07-1.02,6.22-3.04c1.16-2.03,1.74-6.02,1.74-11.97v-49.57h19.71v48.93c0,11.4-2.16,19.53-6.49,24.41
			c-4.33,4.88-11.42,7.32-21.29,7.32c-9.08,0-15.82-2.41-20.22-7.24c-4.4-4.83-6.6-12.19-6.6-22.09c0-0.36,0.02-0.9,0.05-1.63
			C260.85,412.61,260.87,412.06,260.87,411.71z"/>
	</g>
	<g>
		<path class="st3" d="M365.68,424.05h18.27c-1.71,6.38-5.07,11.31-10.07,14.8c-5,3.49-11.21,5.23-18.62,5.23
			c-9.01,0-16.13-2.73-21.37-8.2c-5.23-5.47-7.85-12.92-7.85-22.36c0-9.62,2.64-17.23,7.91-22.84c5.27-5.61,12.38-8.41,21.31-8.41
			c9.22,0,16.47,2.85,21.74,8.55c5.27,5.7,7.91,13.57,7.91,23.61c0,0.93-0.01,1.63-0.03,2.11c-0.02,0.48-0.04,0.9-0.08,1.26h-39.26
			c0,4.1,0.88,7.22,2.64,9.38c1.76,2.16,4.35,3.23,7.77,3.23c2.53,0,4.61-0.53,6.25-1.6C363.85,427.73,365.01,426.15,365.68,424.05z
			 M345.01,407.11l21.63-0.05c-0.07-3.74-1.06-6.66-2.96-8.76c-1.91-2.1-4.51-3.15-7.83-3.15c-3.13,0-5.64,1.03-7.51,3.1
			C346.48,400.31,345.36,403.27,345.01,407.11z"/>
	</g>
	<g>
		<path class="st3" d="M391.96,424.58h19.02c0.21,2.56,1.17,4.49,2.86,5.77c1.69,1.28,4.14,1.92,7.35,1.92
			c2.67,0,4.77-0.52,6.3-1.55c1.53-1.03,2.3-2.42,2.3-4.17c0-2.24-2.99-4.13-8.97-5.66c-3.21-0.82-5.79-1.55-7.75-2.19
			c-7.26-2.39-12.23-4.87-14.9-7.45c-2.67-2.58-4.01-5.97-4.01-10.18c0-5.88,2.24-10.5,6.73-13.86c4.49-3.37,10.67-5.05,18.54-5.05
			c8.4,0,14.89,1.43,19.44,4.3c4.56,2.87,7.12,7.15,7.69,12.85h-18.27c-0.39-1.96-1.28-3.41-2.67-4.35
			c-1.39-0.94-3.31-1.42-5.77-1.42c-2.28,0-4.03,0.44-5.26,1.31c-1.23,0.87-1.84,2.11-1.84,3.71c0,2.28,3.1,4.26,9.29,5.93
			c1.5,0.39,2.65,0.71,3.47,0.96c5.77,1.67,9.78,2.93,12.02,3.77c2.24,0.84,3.86,1.63,4.86,2.38c2.1,1.53,3.65,3.31,4.65,5.34
			c1,2.03,1.5,4.4,1.5,7.1c0,6.3-2.46,11.24-7.37,14.8c-4.91,3.56-11.77,5.34-20.57,5.34c-8.62,0-15.42-1.71-20.41-5.13
			C395.2,435.64,392.46,430.81,391.96,424.58z"/>
	</g>
	<g>
		<path class="st3" d="M514.03,384.25v58.07h-18.59v-8.01c-2.28,3.24-4.85,5.63-7.72,7.16c-2.87,1.53-6.17,2.3-9.91,2.3
			c-6.41,0-11.24-1.65-14.48-4.94c-3.24-3.29-4.86-8.18-4.86-14.66v-39.9h19.02v32.48c0,4.77,0.6,8.06,1.79,9.86
			c1.19,1.8,3.27,2.7,6.22,2.7c3.31,0,5.72-1.1,7.24-3.29c1.51-2.19,2.27-5.76,2.27-10.71v-31.04H514.03z"/>
	</g>
	<g>
		<path class="st3" d="M524.55,424.58h19.02c0.21,2.56,1.17,4.49,2.86,5.77c1.69,1.28,4.14,1.92,7.35,1.92
			c2.67,0,4.77-0.52,6.3-1.55c1.53-1.03,2.3-2.42,2.3-4.17c0-2.24-2.99-4.13-8.97-5.66c-3.21-0.82-5.79-1.55-7.75-2.19
			c-7.26-2.39-12.23-4.87-14.9-7.45c-2.67-2.58-4.01-5.97-4.01-10.18c0-5.88,2.24-10.5,6.73-13.86c4.49-3.37,10.67-5.05,18.54-5.05
			c8.4,0,14.89,1.43,19.44,4.3c4.56,2.87,7.12,7.15,7.69,12.85h-18.27c-0.39-1.96-1.28-3.41-2.67-4.35
			c-1.39-0.94-3.31-1.42-5.77-1.42c-2.28,0-4.03,0.44-5.26,1.31c-1.23,0.87-1.84,2.11-1.84,3.71c0,2.28,3.1,4.26,9.29,5.93
			c1.5,0.39,2.65,0.71,3.47,0.96c5.77,1.67,9.78,2.93,12.02,3.77c2.24,0.84,3.86,1.63,4.86,2.38c2.1,1.53,3.65,3.31,4.65,5.34
			c1,2.03,1.5,4.4,1.5,7.1c0,6.3-2.46,11.24-7.37,14.8c-4.91,3.56-11.77,5.34-20.57,5.34c-8.62,0-15.42-1.71-20.41-5.13
			C527.79,435.64,525.05,430.81,524.55,424.58z"/>
	</g>
</g>
<g>
	<path class="st3" d="M285.85,517.83v-34.39h8.82v26.94h16.65v7.45H285.85z"/>
	<path class="st3" d="M314.43,517.83v-34.39h8.31v34.39H314.43z"/>
	<path class="st3" d="M352.16,517.83h-8.47c-0.09-0.4-0.17-0.82-0.25-1.26c-0.07-0.44-0.14-0.89-0.2-1.35
		c-1.17,1.17-2.41,2.03-3.72,2.59c-1.32,0.56-2.76,0.84-4.33,0.84c-2.44,0-4.38-0.67-5.8-2.02c-1.42-1.35-2.14-3.16-2.14-5.45
		c0-2.1,0.56-3.81,1.67-5.12c1.11-1.31,2.8-2.24,5.05-2.77c1.25-0.28,2.82-0.58,4.74-0.91c2.86-0.47,4.3-1.15,4.3-2.05v-0.61
		c0-0.73-0.28-1.29-0.83-1.67c-0.55-0.38-1.37-0.57-2.46-0.57c-1.18,0-2.12,0.24-2.81,0.72c-0.69,0.48-1.12,1.19-1.3,2.12h-7.66
		c0.4-2.86,1.59-5,3.56-6.4c1.97-1.4,4.77-2.1,8.39-2.1c2.26,0,4.16,0.27,5.71,0.82s2.76,1.37,3.63,2.47
		c0.61,0.79,1.03,1.74,1.28,2.84s0.37,2.86,0.37,5.29v9.62c0,1.15,0.11,2.06,0.32,2.72c0.21,0.66,0.53,1.09,0.95,1.3V517.83z
		 M343,505.88c-0.64,0.4-1.76,0.78-3.36,1.12c-0.78,0.16-1.37,0.29-1.77,0.4c-1,0.28-1.7,0.64-2.11,1.07
		c-0.41,0.44-0.62,1.02-0.62,1.75c0,0.9,0.28,1.63,0.84,2.18c0.56,0.55,1.3,0.83,2.22,0.83c1.42,0,2.57-0.41,3.47-1.23
		c0.89-0.82,1.34-1.89,1.34-3.21V505.88z"/>
	<path class="st3" d="M356.45,517.83v-25.38h7.98v3.48c0.84-1.38,1.88-2.42,3.12-3.09c1.24-0.68,2.72-1.02,4.45-1.02
		c1.84,0,3.36,0.34,4.56,1.02c1.21,0.68,2.12,1.71,2.74,3.09c0.82-1.37,1.87-2.4,3.14-3.08c1.27-0.68,2.76-1.03,4.47-1.03
		c2.72,0,4.78,0.76,6.18,2.26c1.39,1.51,2.09,3.75,2.09,6.72v17.02h-8.12v-14.5c0-1.93-0.28-3.28-0.83-4.05
		c-0.55-0.77-1.49-1.16-2.81-1.16c-1.34,0-2.33,0.5-2.96,1.49c-0.64,1-0.96,2.54-0.96,4.62v13.59h-7.35v-14.5
		c0-1.93-0.28-3.28-0.83-4.05c-0.55-0.77-1.49-1.16-2.81-1.16c-1.34,0-2.33,0.5-2.96,1.49c-0.64,1-0.96,2.54-0.96,4.62v13.59H356.45
		z"/>
	<path class="st3" d="M424.34,517.83h-8.47c-0.09-0.4-0.17-0.82-0.25-1.26c-0.07-0.44-0.14-0.89-0.2-1.35
		c-1.17,1.17-2.41,2.03-3.72,2.59c-1.32,0.56-2.76,0.84-4.33,0.84c-2.44,0-4.38-0.67-5.8-2.02c-1.42-1.35-2.14-3.16-2.14-5.45
		c0-2.1,0.56-3.81,1.67-5.12c1.11-1.31,2.8-2.24,5.05-2.77c1.25-0.28,2.82-0.58,4.74-0.91c2.86-0.47,4.3-1.15,4.3-2.05v-0.61
		c0-0.73-0.28-1.29-0.83-1.67c-0.55-0.38-1.37-0.57-2.46-0.57c-1.18,0-2.12,0.24-2.81,0.72c-0.69,0.48-1.12,1.19-1.3,2.12h-7.66
		c0.4-2.86,1.59-5,3.56-6.4c1.97-1.4,4.77-2.1,8.39-2.1c2.26,0,4.16,0.27,5.71,0.82s2.76,1.37,3.63,2.47
		c0.61,0.79,1.03,1.74,1.28,2.84s0.37,2.86,0.37,5.29v9.62c0,1.15,0.11,2.06,0.32,2.72c0.21,0.66,0.53,1.09,0.95,1.3V517.83z
		 M415.19,505.88c-0.64,0.4-1.76,0.78-3.36,1.12c-0.78,0.16-1.37,0.29-1.77,0.4c-1,0.28-1.7,0.64-2.11,1.07
		c-0.41,0.44-0.62,1.02-0.62,1.75c0,0.9,0.28,1.63,0.84,2.18c0.56,0.55,1.3,0.83,2.22,0.83c1.42,0,2.57-0.41,3.47-1.23
		c0.89-0.82,1.34-1.89,1.34-3.21V505.88z"/>
	<path class="st3" d="M428.64,517.83v-25.38h8.12v3.48c0.87-1.38,1.94-2.42,3.2-3.09c1.26-0.68,2.76-1.02,4.51-1.02
		c2.97,0,5.12,0.74,6.46,2.23c1.33,1.49,2,3.91,2,7.27v16.51h-8.31v-12.77c0-2.99-0.25-4.89-0.75-5.71s-1.42-1.23-2.75-1.23
		c-1.46,0-2.53,0.49-3.2,1.46c-0.67,0.97-1,2.53-1,4.66v13.59H428.64z"/>
	<path class="st3" d="M483.71,483.44v34.39h-8.31v-3.34c-0.93,1.39-2.01,2.41-3.23,3.07c-1.22,0.66-2.65,0.99-4.28,0.99
		c-3.17,0-5.75-1.23-7.73-3.68c-1.98-2.45-2.96-5.66-2.96-9.63c0-4,0.99-7.26,2.98-9.78s4.52-3.78,7.62-3.78
		c1.67,0,3.15,0.33,4.45,1c1.3,0.67,2.37,1.66,3.21,2.97v-12.21H483.71z M465.78,504.87c0,2.27,0.42,4.01,1.27,5.22
		c0.85,1.21,2.07,1.81,3.65,1.81c1.59,0,2.79-0.6,3.61-1.79c0.82-1.19,1.23-2.94,1.23-5.24c0-2.13-0.43-3.78-1.28-4.95
		c-0.86-1.17-2.07-1.75-3.64-1.75c-1.48,0-2.65,0.6-3.53,1.8C466.22,501.17,465.78,502.8,465.78,504.87z"/>
	<path class="st3" d="M488.05,505.11c0-4.25,1.19-7.57,3.57-9.97c2.38-2.4,5.67-3.6,9.88-3.6c4.22,0,7.52,1.2,9.91,3.6
		c2.39,2.4,3.58,5.72,3.58,9.97s-1.19,7.58-3.58,9.98c-2.39,2.4-5.69,3.61-9.91,3.61c-4.23,0-7.53-1.2-9.9-3.6
		C489.24,512.7,488.05,509.37,488.05,505.11z M496.58,505.11c0,2.32,0.43,4.1,1.28,5.35c0.86,1.25,2.07,1.87,3.64,1.87
		c1.59,0,2.81-0.63,3.68-1.88c0.86-1.25,1.29-3.03,1.29-5.33c0-2.29-0.43-4.05-1.29-5.3c-0.86-1.24-2.09-1.87-3.68-1.87
		c-1.59,0-2.81,0.62-3.65,1.86C497,501.03,496.58,502.8,496.58,505.11z"/>
	<path class="st3" d="M519.2,517.83v-8.22h8.64v8.22H519.2z"/>
	<path class="st3" d="M533.3,517.83v-8.22h8.64v8.22H533.3z"/>
	<path class="st3" d="M547.4,517.83v-8.22h8.64v8.22H547.4z"/>
</g>
<g>
	<path class="st3" d="M83.83,973.52c2.2-0.45,5.34-0.7,8.34-0.7c4.64,0,7.64,0.85,9.74,2.75c1.7,1.5,2.65,3.79,2.65,6.39
		c0,4.44-2.8,7.39-6.34,8.59v0.15c2.6,0.9,4.14,3.29,4.94,6.79c1.1,4.69,1.9,7.94,2.6,9.24h-4.49c-0.55-1-1.3-3.84-2.25-8.04
		c-1-4.64-2.8-6.39-6.74-6.54h-4.09v14.58h-4.34V973.52z M88.17,988.85h4.44c4.64,0,7.59-2.55,7.59-6.39c0-4.34-3.14-6.24-7.74-6.29
		c-2.1,0-3.59,0.2-4.29,0.4V988.85z"/>
	<path class="st3" d="M113.18,995.44c0.1,5.94,3.89,8.39,8.29,8.39c3.15,0,5.04-0.55,6.69-1.25l0.75,3.15
		c-1.55,0.7-4.19,1.55-8.04,1.55c-7.44,0-11.88-4.94-11.88-12.23c0-7.29,4.29-13.03,11.33-13.03c7.89,0,9.99,6.94,9.99,11.38
		c0,0.9-0.1,1.6-0.15,2.05H113.18z M126.07,992.3c0.05-2.8-1.15-7.14-6.09-7.14c-4.44,0-6.39,4.09-6.74,7.14H126.07z"/>
	<path class="st3" d="M152.98,1005.83c-1.15,0.6-3.69,1.45-6.94,1.45c-7.29,0-12.03-4.99-12.03-12.38c0-7.44,5.09-12.83,12.98-12.83
		c2.6,0,4.89,0.65,6.09,1.25l-1,3.4c-1.05-0.6-2.7-1.15-5.09-1.15c-5.54,0-8.54,4.09-8.54,9.14c0,5.59,3.59,9.04,8.39,9.04
		c2.5,0,4.14-0.65,5.39-1.2L152.98,1005.83z"/>
	<path class="st3" d="M158.12,971.28h4.39v15.08h0.1c0.7-1.25,1.8-2.35,3.15-3.1c1.3-0.75,2.85-1.25,4.49-1.25
		c3.25,0,8.44,2,8.44,10.33v14.38h-4.39v-13.88c0-3.89-1.45-7.19-5.59-7.19c-2.85,0-5.09,2-5.89,4.39c-0.25,0.6-0.3,1.25-0.3,2.1
		v14.58h-4.39V971.28z"/>
	<path class="st3" d="M202.81,1000.93c0,2.1,0.1,4.14,0.4,5.79h-3.99l-0.35-3.05h-0.15c-1.35,1.9-3.94,3.59-7.39,3.59
		c-4.89,0-7.39-3.44-7.39-6.94c0-5.84,5.19-9.04,14.53-8.99v-0.5c0-2-0.55-5.59-5.49-5.59c-2.25,0-4.59,0.7-6.29,1.8l-1-2.9
		c2-1.3,4.89-2.15,7.94-2.15c7.39,0,9.19,5.04,9.19,9.89V1000.93z M198.56,994.39c-4.79-0.1-10.24,0.75-10.24,5.44
		c0,2.85,1.9,4.19,4.14,4.19c3.15,0,5.14-2,5.84-4.04c0.15-0.45,0.25-0.95,0.25-1.4V994.39z"/>
	<path class="st3" d="M207.15,1004.18l10.93-14.23c1.05-1.3,2.05-2.45,3.14-3.74v-0.1h-13.08v-3.54h18.42l-0.05,2.75l-10.78,14.03
		c-1,1.35-2,2.55-3.1,3.79v0.1h14.13v3.5h-19.62V1004.18z"/>
	<path class="st3" d="M248.24,1000.93c0,2.1,0.1,4.14,0.4,5.79h-3.99l-0.35-3.05h-0.15c-1.35,1.9-3.94,3.59-7.39,3.59
		c-4.89,0-7.39-3.44-7.39-6.94c0-5.84,5.19-9.04,14.53-8.99v-0.5c0-2-0.55-5.59-5.49-5.59c-2.25,0-4.59,0.7-6.29,1.8l-1-2.9
		c2-1.3,4.89-2.15,7.94-2.15c7.39,0,9.19,5.04,9.19,9.89V1000.93z M244,994.39c-4.79-0.1-10.24,0.75-10.24,5.44
		c0,2.85,1.9,4.19,4.14,4.19c3.15,0,5.14-2,5.84-4.04c0.15-0.45,0.25-0.95,0.25-1.4V994.39z"/>
	<path class="st3" d="M255.33,990.1c0-2.85-0.05-5.29-0.2-7.54h3.84l0.15,4.74h0.2c1.1-3.25,3.75-5.29,6.69-5.29
		c0.5,0,0.85,0.05,1.25,0.15v4.14c-0.45-0.1-0.9-0.15-1.5-0.15c-3.1,0-5.29,2.35-5.89,5.64c-0.1,0.6-0.2,1.3-0.2,2.05v12.88h-4.34
		V990.1z"/>
</g>
<g>
	<path class="st3" d="M599.73,1005.63c-1.6,0.8-4.79,1.65-8.89,1.65c-9.49,0-16.62-6.04-16.62-17.07c0-10.54,7.14-17.67,17.57-17.67
		c4.19,0,6.84,0.9,7.99,1.5l-1.05,3.54c-1.65-0.8-3.99-1.4-6.79-1.4c-7.89,0-13.13,5.04-13.13,13.88c0,8.24,4.74,13.53,12.93,13.53
		c2.65,0,5.34-0.55,7.09-1.4L599.73,1005.63z"/>
	<path class="st3" d="M626.34,994.44c0,8.94-6.19,12.83-12.03,12.83c-6.54,0-11.58-4.79-11.58-12.43c0-8.09,5.29-12.83,11.98-12.83
		C621.65,982.01,626.34,987.05,626.34,994.44z M607.17,994.69c0,5.29,3.05,9.29,7.34,9.29c4.19,0,7.34-3.94,7.34-9.39
		c0-4.09-2.05-9.29-7.24-9.29C609.42,985.31,607.17,990.1,607.17,994.69z"/>
	<path class="st3" d="M631.89,989.1c0-2.5-0.05-4.54-0.2-6.54h3.89l0.25,3.99h0.1c1.2-2.3,3.99-4.54,7.99-4.54
		c3.35,0,8.54,2,8.54,10.29v14.43h-4.39V992.8c0-3.89-1.45-7.14-5.59-7.14c-2.9,0-5.14,2.05-5.89,4.49c-0.2,0.55-0.3,1.3-0.3,2.05
		v14.53h-4.39V989.1z"/>
	<path class="st3" d="M664.69,976.77v5.79h6.29v3.34h-6.29v13.03c0,3,0.85,4.69,3.3,4.69c1.2,0,1.9-0.1,2.54-0.3l0.2,3.29
		c-0.85,0.35-2.2,0.65-3.89,0.65c-2.05,0-3.7-0.7-4.74-1.9c-1.25-1.3-1.7-3.45-1.7-6.29v-13.18h-3.74v-3.34h3.74v-4.44
		L664.69,976.77z"/>
	<path class="st3" d="M678.07,995.44c0.1,5.94,3.89,8.39,8.29,8.39c3.15,0,5.04-0.55,6.69-1.25l0.75,3.15
		c-1.55,0.7-4.19,1.55-8.04,1.55c-7.44,0-11.88-4.94-11.88-12.23c0-7.29,4.29-13.03,11.33-13.03c7.89,0,9.99,6.94,9.99,11.38
		c0,0.9-0.1,1.6-0.15,2.05H678.07z M690.96,992.3c0.05-2.8-1.15-7.14-6.09-7.14c-4.44,0-6.39,4.09-6.74,7.14H690.96z"/>
	<path class="st3" d="M700.04,1002.23c1.3,0.85,3.6,1.75,5.79,1.75c3.2,0,4.69-1.6,4.69-3.59c0-2.1-1.25-3.25-4.49-4.44
		c-4.34-1.55-6.39-3.94-6.39-6.84c0-3.89,3.14-7.09,8.34-7.09c2.45,0,4.59,0.7,5.94,1.5l-1.1,3.2c-0.95-0.6-2.7-1.4-4.94-1.4
		c-2.6,0-4.04,1.5-4.04,3.3c0,2,1.45,2.9,4.59,4.09c4.19,1.6,6.34,3.69,6.34,7.29c0,4.24-3.29,7.29-9.04,7.29
		c-2.65,0-5.09-0.7-6.79-1.7L700.04,1002.23z"/>
	<path class="st3" d="M725.71,976.77v5.79H732v3.34h-6.29v13.03c0,3,0.85,4.69,3.29,4.69c1.2,0,1.9-0.1,2.55-0.3l0.2,3.29
		c-0.85,0.35-2.2,0.65-3.89,0.65c-2.05,0-3.69-0.7-4.74-1.9c-1.25-1.3-1.7-3.45-1.7-6.29v-13.18h-3.75v-3.34h3.75v-4.44
		L725.71,976.77z"/>
	<path class="st3" d="M753.92,1000.93c0,2.1,0.1,4.14,0.4,5.79h-3.99l-0.35-3.05h-0.15c-1.35,1.9-3.94,3.59-7.39,3.59
		c-4.89,0-7.39-3.44-7.39-6.94c0-5.84,5.19-9.04,14.53-8.99v-0.5c0-2-0.55-5.59-5.49-5.59c-2.25,0-4.59,0.7-6.29,1.8l-1-2.9
		c2-1.3,4.89-2.15,7.94-2.15c7.39,0,9.19,5.04,9.19,9.89V1000.93z M749.67,994.39c-4.79-0.1-10.23,0.75-10.23,5.44
		c0,2.85,1.9,4.19,4.14,4.19c3.14,0,5.14-2,5.84-4.04c0.15-0.45,0.25-0.95,0.25-1.4V994.39z"/>
	<path class="st3" d="M761.01,990.1c0-2.85-0.05-5.29-0.2-7.54h3.84l0.15,4.74h0.2c1.1-3.25,3.74-5.29,6.69-5.29
		c0.5,0,0.85,0.05,1.25,0.15v4.14c-0.45-0.1-0.9-0.15-1.5-0.15c-3.09,0-5.29,2.35-5.89,5.64c-0.1,0.6-0.2,1.3-0.2,2.05v12.88h-4.34
		V990.1z"/>
</g>
</svg>
