<?xml version="1.0" encoding="utf-8"?>
<!-- Generator: Adobe Illustrator 25.3.0, SVG Export Plug-In . SVG Version: 6.00 Build 0)  -->
<svg version="1.1" id="Capa_1" xmlns="http://www.w3.org/2000/svg" xmlns:xlink="http://www.w3.org/1999/xlink" x="0px" y="0px"
	 viewBox="0 0 566.9 566.9" style="enable-background:new 0 0 566.9 566.9;" xml:space="preserve">
<style type="text/css">
	.st0{fill:url(#SVGID_1_);}
	.st1{fill:url(#SVGID_2_);}
	.st2{fill:url(#SVGID_3_);}
	.st3{fill:url(#SVGID_4_);}
	.st4{fill:url(#SVGID_5_);}
	.st5{fill:url(#SVGID_6_);}
	.st6{fill:url(#SVGID_7_);}
	.st7{fill:url(#SVGID_8_);}
	.st8{fill:url(#SVGID_9_);}
	.st9{fill:#FEEB1A;}
</style>
<g>
	<linearGradient id="SVGID_1_" gradientUnits="userSpaceOnUse" x1="171.1976" y1="417.1583" x2="122.8456" y2="389.2422">
		<stop  offset="0" style="stop-color:#6AB42D"/>
		<stop  offset="1" style="stop-color:#FEEB1A"/>
	</linearGradient>
	<path class="st0" d="M165.6,394.1c0,0.9-0.6,1.5-1.5,1.5h-8.7c-1,0-1.5-0.6-1.5-1.5v-7.6c0-2.4-1.3-3.7-3.7-3.7h-5.9
		c-2.5,0-3.7,1.3-3.7,3.7v33.6c0,2.5,1.3,3.7,3.7,3.7h5.9c2.4,0,3.7-1.2,3.7-3.7v-7.9c0-0.9,0.5-1.5,1.5-1.5h8.7
		c0.9,0,1.5,0.6,1.5,1.5v10c0,8.7-4.7,13.3-13.3,13.3h-10.4c-8.7,0-13.4-4.6-13.4-13.3v-38.1c0-8.7,4.7-13.3,13.4-13.3h10.4
		c8.6,0,13.3,4.6,13.3,13.3V394.1z"/>
	<linearGradient id="SVGID_2_" gradientUnits="userSpaceOnUse" x1="217.4606" y1="417.1534" x2="169.1404" y2="389.2557">
		<stop  offset="0" style="stop-color:#6AB42D"/>
		<stop  offset="1" style="stop-color:#FEEB1A"/>
	</linearGradient>
	<path class="st1" d="M174.8,384.2c0-8.7,4.6-13.3,13.3-13.3h10.4c8.7,0,13.3,4.6,13.3,13.3v38.1c0,8.7-4.6,13.3-13.3,13.3h-10.4
		c-8.7,0-13.3-4.6-13.3-13.3V384.2z M196.4,423.6c2.4,0,3.7-1.2,3.7-3.7v-33.5c0-2.4-1.3-3.7-3.7-3.7h-5.9c-2.4,0-3.7,1.3-3.7,3.7
		v33.5c0,2.5,1.3,3.7,3.7,3.7H196.4z"/>
	<linearGradient id="SVGID_3_" gradientUnits="userSpaceOnUse" x1="269.1796" y1="419.5971" x2="212.3944" y2="386.8121">
		<stop  offset="0" style="stop-color:#6AB42D"/>
		<stop  offset="1" style="stop-color:#FEEB1A"/>
	</linearGradient>
	<path class="st2" d="M259.1,370.8c0.9,0,1.5,0.6,1.5,1.5v61.8c0,0.9-0.6,1.5-1.5,1.5h-7.3c-0.8,0-1.3-0.4-1.7-1.2L232.7,399v35
		c0,0.9-0.5,1.5-1.5,1.5h-8.7c-0.9,0-1.5-0.6-1.5-1.5v-61.8c0-0.9,0.6-1.5,1.5-1.5h7.3c0.8,0,1.3,0.4,1.7,1.2l17.4,35.3v-35
		c0-0.9,0.5-1.5,1.5-1.5H259.1z"/>
	<linearGradient id="SVGID_4_" gradientUnits="userSpaceOnUse" x1="306.7988" y1="410.5524" x2="258.8129" y2="382.8478">
		<stop  offset="0" style="stop-color:#6AB42D"/>
		<stop  offset="1" style="stop-color:#FEEB1A"/>
	</linearGradient>
	<path class="st3" d="M306.2,370.8c1.4,0,1.9,0.7,1.7,2l-14.7,61c-0.3,1.1-0.9,1.7-2,1.7h-9.2c-1.1,0-1.8-0.6-2-1.7l-14.6-61
		c-0.3-1.3,0.3-2,1.7-2h8.4c1.1,0,1.8,0.6,2,1.7l9.2,41.8l9.2-41.8c0.3-1.1,0.9-1.7,2-1.7H306.2z"/>
	<linearGradient id="SVGID_5_" gradientUnits="userSpaceOnUse" x1="360.3568" y1="419.0453" x2="305.474" y2="387.3587">
		<stop  offset="0" style="stop-color:#6AB42D"/>
		<stop  offset="1" style="stop-color:#FEEB1A"/>
	</linearGradient>
	<path class="st4" d="M351.3,381.6c0,0.9-0.4,1.6-1.5,1.6H327v14.2h17.4c0.9,0,1.5,0.6,1.5,1.6v9.2c0,1-0.6,1.6-1.5,1.6H327v13.7
		h22.8c1.1,0,1.5,0.5,1.5,1.5v9.2c0,0.9-0.4,1.5-1.5,1.5h-34c-0.8,0-1.4-0.6-1.4-1.5v-61.8c0-0.9,0.6-1.5,1.4-1.5h34
		c1.1,0,1.5,0.6,1.5,1.5V381.6z"/>
	<linearGradient id="SVGID_6_" gradientUnits="userSpaceOnUse" x1="404.5262" y1="420.6253" x2="349.7507" y2="389.0007">
		<stop  offset="0" style="stop-color:#6AB42D"/>
		<stop  offset="1" style="stop-color:#FEEB1A"/>
	</linearGradient>
	<path class="st5" d="M396.7,402.7c0,5.4-1.8,9.2-5.2,11.3l4.8,19.9c0.3,1.1-0.3,1.7-1.3,1.7h-9.1c-0.9,0-1.4-0.5-1.6-1.3l-4.4-18.2
		h-8.2v18c0,0.9-0.6,1.5-1.5,1.5h-9.1c-0.9,0-1.5-0.6-1.5-1.5v-61.8c0-0.9,0.6-1.5,1.5-1.5h22.2c8.7,0,13.3,4.6,13.3,13.3V402.7z
		 M380.9,404.1c2.4,0,3.7-1.3,3.7-3.7v-14c0-2.4-1.3-3.7-3.7-3.7h-9.2v21.4H380.9z"/>
	<linearGradient id="SVGID_7_" gradientUnits="userSpaceOnUse" x1="448.5613" y1="417.1445" x2="400.2587" y2="389.257">
		<stop  offset="0" style="stop-color:#6AB42D"/>
		<stop  offset="1" style="stop-color:#FEEB1A"/>
	</linearGradient>
	<path class="st6" d="M429.6,370.8c8.7,0,13.3,4.6,13.3,13.3v6.1c0,0.9-0.5,1.5-1.5,1.5h-9.3c-0.9,0-1.5-0.6-1.5-1.5v-3.9
		c0-2.4-1.2-3.7-3.7-3.7h-5.1c-2.3,0-3.7,1.3-3.7,3.7v7.9l22.4,7.2c1.6,0.6,2.4,1.7,2.4,3.4v17.4c0,8.7-4.6,13.3-13.3,13.3h-10.4
		c-8.6,0-13.3-4.6-13.3-13.3v-6c0-1,0.6-1.5,1.5-1.5h9.3c1,0,1.5,0.5,1.5,1.5v3.9c0,2.5,1.4,3.7,3.7,3.7h5c2.4,0,3.7-1.2,3.7-3.7
		v-9.3l-22.2-7.2c-1.7-0.6-2.5-1.7-2.5-3.4v-16c0-8.7,4.7-13.3,13.3-13.3H429.6z"/>
	<linearGradient id="SVGID_8_" gradientUnits="userSpaceOnUse" x1="498.0532" y1="419.0455" x2="443.1695" y2="387.3584">
		<stop  offset="0" style="stop-color:#6AB42D"/>
		<stop  offset="1" style="stop-color:#FEEB1A"/>
	</linearGradient>
	<path class="st7" d="M489,381.6c0,0.9-0.4,1.6-1.5,1.6h-22.8v14.2h17.4c0.9,0,1.5,0.6,1.5,1.6v9.2c0,1-0.6,1.6-1.5,1.6h-17.4v13.7
		h22.8c1.1,0,1.5,0.5,1.5,1.5v9.2c0,0.9-0.4,1.5-1.5,1.5h-34c-0.8,0-1.4-0.6-1.4-1.5v-61.8c0-0.9,0.6-1.5,1.4-1.5h34
		c1.1,0,1.5,0.6,1.5,1.5V381.6z"/>
</g>
<g>
	<path d="M152.2,476.4c0,0.6-0.4,0.9-0.9,0.9h-5.6c-0.7,0-0.9-0.4-0.9-0.9v-4.8c0-1.5-0.8-2.4-2.4-2.4h-3.8c-1.6,0-2.4,0.8-2.4,2.4
		V493c0,1.6,0.8,2.4,2.4,2.4h3.8c1.5,0,2.4-0.8,2.4-2.4v-5c0-0.6,0.3-0.9,0.9-0.9h5.6c0.6,0,0.9,0.4,0.9,0.9v6.4
		c0,5.6-3,8.5-8.5,8.5h-6.6c-5.6,0-8.6-3-8.6-8.5V470c0-5.6,3-8.5,8.6-8.5h6.6c5.5,0,8.5,3,8.5,8.5V476.4z"/>
	<path d="M158.1,470c0-5.6,3-8.5,8.5-8.5h6.6c5.6,0,8.5,3,8.5,8.5v24.4c0,5.6-3,8.5-8.5,8.5h-6.6c-5.6,0-8.5-3-8.5-8.5V470z
		 M171.9,495.2c1.5,0,2.4-0.8,2.4-2.4v-21.4c0-1.5-0.8-2.4-2.4-2.4h-3.8c-1.5,0-2.4,0.8-2.4,2.4v21.4c0,1.6,0.8,2.4,2.4,2.4H171.9z"
		/>
	<path d="M212,461.5c0.6,0,0.9,0.4,0.9,0.9v39.5c0,0.6-0.4,0.9-0.9,0.9h-4.7c-0.5,0-0.8-0.2-1.1-0.8l-11.1-22.6v22.4
		c0,0.6-0.3,0.9-0.9,0.9h-5.6c-0.6,0-0.9-0.4-0.9-0.9v-39.5c0-0.6,0.4-0.9,0.9-0.9h4.7c0.5,0,0.8,0.2,1.1,0.8l11.1,22.6v-22.4
		c0-0.6,0.3-0.9,0.9-0.9H212z"/>
	<path d="M234.5,462.7c0-0.8,0.4-1.2,1.2-1.2h18.4c7.2,0,11,3.9,11,11.1V504c0,7.2-3.8,11-11,11h-18.4c-0.8,0-1.2-0.4-1.2-1.2V462.7
		z M251.9,504.9c2,0,3.1-1,3.1-3.1v-27.2c0-2.1-1.1-3.1-3.1-3.1h-7v33.4H251.9z"/>
	<path d="M274,515c-0.8,0-1.2-0.5-1.2-1.2v-51.1c0-0.8,0.4-1.2,1.2-1.2h8c0.8,0,1.2,0.5,1.2,1.2v51.1c0,0.8-0.5,1.2-1.2,1.2H274z"/>
	<path d="M290.8,472.5c0-7.2,3.8-11,11-11h8.6c7.2,0,11,3.8,11,11V504c0,7.2-3.8,11-11,11h-8.6c-7.2,0-11-3.8-11-11V472.5z
		 M308.7,505.1c2,0,3.1-1,3.1-3.1v-27.7c0-2-1.1-3.1-3.1-3.1h-4.9c-2,0-3.1,1.1-3.1,3.1v27.7c0,2.1,1.1,3.1,3.1,3.1H308.7z"/>
	<path d="M348.6,461.5c7.2,0,11,3.8,11,11v5c0,0.8-0.4,1.2-1.2,1.2h-7.7c-0.8,0-1.2-0.5-1.2-1.2v-3.2c0-2-1-3.1-3.1-3.1h-4.2
		c-1.9,0-3.1,1.1-3.1,3.1v6.5l18.5,6c1.3,0.5,2,1.4,2,2.8V504c0,7.2-3.8,11-11,11h-8.6c-7.1,0-11-3.8-11-11v-5
		c0-0.8,0.5-1.2,1.2-1.2h7.7c0.8,0,1.2,0.4,1.2,1.2v3.2c0,2.1,1.1,3.1,3.1,3.1h4.1c2,0,3.1-1,3.1-3.1v-7.7l-18.4-6
		c-1.4-0.5-2.1-1.4-2.1-2.8v-13.2c0-7.2,3.9-11,11-11H348.6z"/>
</g>
<g>
	<linearGradient id="SVGID_9_" gradientUnits="userSpaceOnUse" x1="240.7117" y1="189.7137" x2="489.0366" y2="189.7137">
		<stop  offset="0" style="stop-color:#FEEB1A"/>
		<stop  offset="8.004904e-02" style="stop-color:#F1E51C"/>
		<stop  offset="0.3947" style="stop-color:#C0D122"/>
		<stop  offset="0.664" style="stop-color:#96C229"/>
		<stop  offset="0.8744" style="stop-color:#77B82C"/>
		<stop  offset="1" style="stop-color:#6AB42D"/>
	</linearGradient>
	<polygon class="st8" points="489,191.8 346.8,31.6 240.7,31.6 364.9,189.7 240.7,347.8 345.8,347.8 	"/>
	<polygon class="st9" points="229.8,167.9 223.8,114.1 184.7,151.5 131.8,140.6 155.3,189.3 128.5,236.3 179.6,229.3 179.6,229.3 
		196.3,183.5 186.7,180.1 188.2,175.9 197.8,179.4 200.3,172.5 204.4,174 201.9,180.9 211.4,184.4 209.9,188.5 200.4,185 
		183.8,230.8 218.5,269 228.1,215.7 277.4,193.5 	"/>
</g>
</svg>
