<?xml version="1.0" encoding="utf-8"?>
<!-- Generator: Adobe Illustrator 25.3.0, SVG Export Plug-In . SVG Version: 6.00 Build 0)  -->
<svg version="1.1" id="Capa_1" xmlns="http://www.w3.org/2000/svg" xmlns:xlink="http://www.w3.org/1999/xlink" x="0px" y="0px"
	 viewBox="0 0 566.9 566.9" style="enable-background:new 0 0 566.9 566.9;" xml:space="preserve">
<style type="text/css">
	.st0{fill:#FFFFFF;}
</style>
<path d="M145.6,46.1v312.5v2.5v100.7l157.5,38l157.5-38V361.1v-2.5V46.1H145.6z M150.6,51.1h305v305h-305V51.1z"/>
<g>
	<g>
		<path class="st0" d="M192.6,407.3c-0.3-6.4-5.6-8.4-10.2-8.4c-3.5,0-9.4,1-9.4,7.2c0,3.5,2.5,4.6,4.9,5.2l11.7,2.7
			c5.3,1.3,9.3,4.5,9.3,11c0,9.7-9,12.4-16.1,12.4c-7.6,0-10.6-2.3-12.4-3.9c-3.5-3.1-4.2-6.6-4.2-10.4h5.2c0,7.4,6.1,9.6,11.3,9.6
			c4,0,10.8-1,10.8-6.9c0-4.3-2-5.7-8.8-7.3l-8.4-1.9c-2.7-0.6-8.8-2.5-8.8-9.7c0-6.4,4.2-12.7,14.1-12.7c14.4,0,15.8,8.6,16,13.1
			H192.6z"/>
	</g>
	<g>
		<path class="st0" d="M219.3,424.4l-4.3,12h-5.7l15.5-41.1h6.3l14.9,41.1h-6.1l-4.1-12H219.3z M233.8,419.5l-6.1-18.1h-0.1
			l-6.6,18.1H233.8z"/>
	</g>
	<g>
		<path class="st0" d="M264.9,431.5h20.8v4.9h-26.4v-41.1h5.6V431.5z"/>
	</g>
	<g>
		<path class="st0" d="M333.3,436.4v-24.3c0-1.2,0.1-6.4,0.1-10.2h-0.1l-11.6,34.5h-5.5l-11.6-34.5h-0.1c0,3.8,0.1,9,0.1,10.2v24.3
			h-5.4v-41.1h8L319,430h0.1l11.7-34.8h7.9v41.1H333.3z"/>
	</g>
	<g>
		<path class="st0" d="M373.4,437.5c-15.3,0-20-12.8-20-21.6c0-8.9,4.7-21.6,20-21.6c15.3,0,20,12.8,20,21.6
			C393.4,424.7,388.7,437.5,373.4,437.5z M373.4,399.1c-8.9,0-14.3,7-14.3,16.7c0,9.7,5.4,16.7,14.3,16.7c8.9,0,14.3-7,14.3-16.7
			C387.7,406.2,382.3,399.1,373.4,399.1z"/>
	</g>
	<g>
		<path class="st0" d="M433.1,407.3c-0.3-6.4-5.6-8.4-10.2-8.4c-3.5,0-9.4,1-9.4,7.2c0,3.5,2.5,4.6,4.9,5.2l11.7,2.7
			c5.3,1.3,9.3,4.5,9.3,11c0,9.7-9,12.4-16.1,12.4c-7.6,0-10.6-2.3-12.4-3.9c-3.5-3.1-4.2-6.6-4.2-10.4h5.2c0,7.4,6.1,9.6,11.3,9.6
			c4,0,10.8-1,10.8-6.9c0-4.3-2-5.7-8.8-7.3l-8.4-1.9c-2.7-0.6-8.8-2.5-8.8-9.7c0-6.4,4.2-12.7,14.1-12.7c14.4,0,15.8,8.6,16,13.1
			H433.1z"/>
	</g>
</g>
<g>
	<g>
		<path d="M298.4,80v204.2l-25,35.6h-90.1V115.6l25-35.6H298.4z M248.6,239.1h-57.2v38.4h72l27.2-38.7V87.4h-77.9l-21.4,30.5V202
			h57.2V239.1z M233,163.4v-37.7h15.6v37.7H233z"/>
	</g>
	<g>
		<path d="M307.4,319.8V80h115.1v204.2l-25,35.6H307.4z M373,201.4v37.7h-57.6v38.4h72l27.2-38.7v-75.9h-57.2v-37.6h57.2V87.4h-99.3
			v114H373z"/>
	</g>
</g>
</svg>
