<?xml version="1.0" encoding="utf-8"?>
<!-- Generator: Adobe Illustrator 25.3.0, SVG Export Plug-In . SVG Version: 6.00 Build 0)  -->
<svg version="1.1" id="Capa_1" xmlns="http://www.w3.org/2000/svg" xmlns:xlink="http://www.w3.org/1999/xlink" x="0px" y="0px"
	 viewBox="0 0 566.9 566.9" style="enable-background:new 0 0 566.9 566.9;" xml:space="preserve">
<style type="text/css">
	.st0{fill:#010202;}
	.st1{fill:#FFFFFF;}
</style>
<path class="st0" d="M522.4,308.1l-0.1-17.5c-0.1-16.9-7.7-27-14-32.4c-4-3.4-8.7-6.1-14-7.8l-1-136.5l-63.8,9.5l-9.8,21.2
	l-10.2-18.2l-60.7,9l0.3,35.4l-15.7-33l-24.6,3.7l0-0.6l-143.2,21.3l-0.2-37.1l-63.9,8.3l0.2,38.9l-60,8.9l0.2,61l59.9-8.9
	l1.4,160.7l21.5-3.2c1.3,4.5,3.4,9.6,6.8,14c7.9,10.4,20,16,34,16c2.7,0,5.5-0.2,8.3-0.6c4.8-0.7,10.5-2.1,16.2-4.7l0,0.2
	l104.2-15.5l0-2.1c4.2,1,8.6,1.5,13.2,1.5c3.4,0,6.9-0.3,10.5-0.8c16.2-2.4,29.4-9.1,38.3-18.8c7.7,5.4,17.1,8.1,28.1,8.1
	c3.6,0,7.4-0.3,11.4-0.9c16.4-2.4,29.5-9.2,38.4-19.4c8.1,5.6,18.2,8.5,29.6,8.5c3.4,0,6.9-0.3,10.5-0.8c31.1-4.6,51.1-25.1,51-52
	C525.2,320.3,524.8,314.4,522.4,308.1z M309.6,271.7c-5.3,0.8-10.3,2.2-14.9,4.1l5-11.5l23.3-3.5l5,10.6
	C322.1,270.6,316,270.7,309.6,271.7z M430.5,251.8l1.3-10.5l0,0l0.1,14l-2,0.3C430.2,254.3,430.4,253,430.5,251.8z"/>
<g>
	<g>
		<polygon class="st1" points="144.8,187.1 144.6,149 122.5,151.9 122.7,190.4 62.7,199.4 62.8,218 122.5,209.1 123.9,369.8 
			145.8,366.5 144.4,206 175.7,201.3 175.6,182.5 		"/>
	</g>
	<g>
		<path class="st1" d="M207.2,238.7l0.2,21.6l44.5-6.6l0.1,18.8l-65.7,9.8l-0.8-101.8l102.3-15.2L288,184l-81.2,12.1l0.3,22.9
			l63.6-9.5l0.1,19.8L207.2,238.7z"/>
	</g>
	<g>
		<path class="st1" d="M254.8,272.2l44.2-108l22-3.3l45.1,94.7l-21.2,3.2l-9.8-21l-50.2,7.5l-10.4,24L254.8,272.2z M310.5,181.5
			l-16.4,41.7l33-4.9l-16.4-36.8L310.5,181.5z"/>
	</g>
	<g>
		<path class="st1" d="M369.8,153.5l28.4-4.2l23.2,41.4l22.3-48.1l28.8-4.3l0.7,101.5l-20.5,3l-0.6-71.8l-0.3,0l-21.7,49.5
			l-16.8,2.5l-22.4-42.2l-0.3,0l0.5,71.1l-20.7,3.1L369.8,153.5z"/>
	</g>
</g>
<g>
	<g>
		<g>
			<path class="st1" d="M197.2,367.7c-0.3,10.6-2.5,28.2-26.5,31.8c-9,1.3-17.6-0.7-22.6-7.4c-2.7-3.4-4-8.9-4.1-11.2l16.4-5.2
				c0,6.1,1.7,10,9.9,8.8c9.3-1.4,9.2-9,9.3-14.8l-0.5-55.3l17.7-2.6L197.2,367.7z"/>
		</g>
		<g>
			<path class="st1" d="M227.6,356.3l0.2,17.4l45.3-6.8l0.1,15.2l-62.4,9.3l-0.6-82.2l58.6-8.7l0.1,15.2l-41.5,6.2l0.2,18.5
				l36.7-5.5l0.1,16L227.6,356.3z"/>
		</g>
		<g>
			<path class="st1" d="M297.5,354.3c1.9,10.5,11.4,10.6,17.9,9.6c6.2-0.9,15.6-4.2,15.6-12.6c-0.2-17.4-47.8,0.8-48.1-29.7
				c-0.1-16.9,15.2-27.1,29.8-29.3c16.8-2.5,32.4,2.7,32.4,21.6l-17.1,0c-2.3-9.2-10.4-8.3-15.9-7.5c-5.6,0.8-12.1,4.2-12,11.1
				c0,6.2,3.9,6.9,24,8.8c6.1,0.6,24.1,1.8,24.1,20.3c0.1,15-11.1,28-33.2,31.3c-17.9,2.7-34.5-3.8-34.4-24.1L297.5,354.3z"/>
		</g>
		<g>
			<path class="st1" d="M426.6,328.4c0.2,22.2-12.5,34.9-34,38.1c-21.7,3.2-34.4-5.5-34.5-27.9l-0.5-51l17.7-2.6l0.5,51
				c0.1,9,2.4,17.5,16.7,15.3c12.6-1.9,16.6-8,16.5-20.3l-0.5-51l17.7-2.6L426.6,328.4z"/>
		</g>
		<g>
			<path class="st1" d="M453.8,331c1.9,10.5,11.4,10.6,17.9,9.6c6.2-0.9,15.6-4.2,15.6-12.6c-0.2-17.4-47.8,0.8-48.1-29.7
				c-0.1-16.9,15.2-27.1,29.8-29.3c16.8-2.5,32.4,2.7,32.4,21.6l-17.1,0c-2.3-9.2-10.4-8.3-15.9-7.5c-5.6,0.8-12.1,4.2-12,11.1
				c0,6.2,3.9,6.9,24,8.8c6.1,0.6,24.1,1.8,24.1,20.3c0.1,15-11.1,28-33.2,31.3c-17.9,2.7-34.5-3.8-34.4-24.1L453.8,331z"/>
		</g>
	</g>
	<g>
		<g>
			<path class="st1" d="M396.2,279.9c1.5-7.1,2.7-19.6,2.7-28l10.9-2.8c-1.3,10-4.4,23.2-6.7,28.9L396.2,279.9z"/>
		</g>
	</g>
</g>
</svg>
