<?xml version="1.0" encoding="utf-8"?>
<!-- Generator: Adobe Illustrator 25.3.0, SVG Export Plug-In . SVG Version: 6.00 Build 0)  -->
<svg version="1.1" id="Capa_1" xmlns="http://www.w3.org/2000/svg" xmlns:xlink="http://www.w3.org/1999/xlink" x="0px" y="0px"
	 viewBox="0 0 566.9 566.9" style="enable-background:new 0 0 566.9 566.9;" xml:space="preserve">
<style type="text/css">
	.st0{fill:#020203;}
	.st1{fill:#E20E18;}
</style>
<g>
	<g>
		<path class="st0" d="M144.9,220.9c3.8,1.9,6.6,4.4,8.5,7.5c1.9,3.1,2.9,6.3,2.9,9.8c0,3.6-1,7-2.9,10.1c-1.9,3.1-4.8,5.7-8.7,7.7
			c-3.8,2-8.4,3-13.7,3h-0.6h-7.7c0.1,9.9,0.5,20.5,1.1,31.7h-10.9c0.8-12.2,1.2-24.5,1.2-36.9c0-11.9-0.4-23.8-1.2-35.7h18.4
			C136.6,218.1,141.2,219,144.9,220.9z M138.3,252.1c3-1.6,5.3-3.6,6.9-6.1c1.6-2.5,2.3-5.1,2.3-7.9c0-2.7-0.7-5.2-2.2-7.6
			c-1.5-2.4-3.7-4.3-6.6-5.8c-2.9-1.5-6.5-2.2-10.6-2.2h-4.6c-0.6,9.5-0.8,20.1-0.8,31.9h4.7C131.6,254.5,135.3,253.7,138.3,252.1z"
			/>
		<path class="st0" d="M183.4,276.3h-23.5c-0.5,2.6-1.3,7.4-2.6,14.4h-6.1c7.4-25.4,12.9-49.6,16.6-72.6h12.6
			c3.6,22.7,9.1,46.9,16.5,72.6h-10.9L183.4,276.3z M182.4,271.8c-2.9-15.4-6.5-30.7-10.9-45.9c-4.2,15.1-7.8,30.5-10.9,45.9H182.4z
			"/>
		<path class="st0" d="M281.8,300.3c0.5,1.9,0.7,3.5,0.7,4.9c0,2.4-0.8,4.2-2.3,5.5c-1.5,1.3-4.2,2-8,2c-5.7,0-10.5-1.6-14.4-4.8
			c-3.9-3.2-7.1-7.1-9.5-11.6c-2.4-4.6-5-10.5-7.8-17.8c-1.9-4.9-3.6-8.8-4.9-11.8c-1.3-2.9-2.8-5.5-4.4-7.7H231h-7.7
			c0.1,9.9,0.5,20.5,1.1,31.7h-10.9c0.8-14,1.2-26.3,1.2-36.9c0-11.2-0.3-21.9-1-32c-4.8,0.4-9.4,1.7-13.9,3.9l1.6-7.6h30.5
			c5.3,0,9.9,1,13.6,2.9c3.8,1.9,6.6,4.4,8.5,7.5c1.9,3.1,2.9,6.3,2.9,9.8c0,4.2-1.3,8.1-4,11.7c-2.7,3.6-6.4,6.1-11.4,7.6
			c2.4,7.9,5.6,16,9.6,24.3c4,8.3,8.2,15.2,12.7,20.6c4.5,5.4,8.5,7.9,12.2,7.5c1.7-0.2,2.5-1.2,2.5-3c0-1.7-0.8-3.5-2.3-5.5
			c-1.6-2-3.7-3.6-6.4-4.8h11.1C281.1,297.2,281.4,298.5,281.8,300.3z M238.9,252.1c3-1.6,5.3-3.6,6.8-6.1c1.5-2.5,2.3-5.1,2.3-7.9
			c0-2.7-0.7-5.2-2.2-7.6c-1.5-2.4-3.7-4.3-6.6-5.8c-2.9-1.5-6.4-2.2-10.5-2.2h-4.6c-0.6,9.5-0.8,20.1-0.8,31.9h4.8
			C232.3,254.5,235.9,253.7,238.9,252.1z"/>
		<path class="st0" d="M295.9,276.3h-23.5c-0.5,2.6-1.3,7.4-2.6,14.4h-6.1c7.4-25.4,12.9-49.6,16.6-72.6h12.6
			c3.6,22.7,9.1,46.9,16.5,72.6h-10.9L295.9,276.3z M294.9,271.8c-2.9-15.4-6.5-30.7-10.9-45.9c-4.2,15.1-7.8,30.5-10.9,45.9H294.9z
			"/>
	</g>
	<g>
		<path class="st0" d="M145.2,375.1h-23.5c-0.5,2.6-1.4,7.4-2.6,14.4h-6.1c7.4-25.4,12.9-49.6,16.6-72.6h12.6
			c3.6,22.7,9.1,46.9,16.5,72.6h-10.9L145.2,375.1z M144.3,370.6c-2.9-15.4-6.5-30.7-10.9-45.9c-4.2,15.1-7.8,30.5-10.9,45.9H144.3z
			"/>
		<path class="st0" d="M197.8,322.1c4,3.5,7.1,8,9.2,13.6c2.1,5.6,3.1,11.6,3.1,17.9c0,6.2-1,12.1-3,17.5c-2,5.5-5,9.9-8.9,13.2
			c-3.9,3.4-8.7,5-14.2,5h-19.2c0.8-12.2,1.2-24.5,1.2-36.9c0-11.9-0.4-23.8-1.2-35.7h18.4C188.9,316.9,193.8,318.6,197.8,322.1z
			 M191.9,380.6c3.2-2.9,5.6-6.8,7.2-11.6c1.6-4.8,2.4-9.9,2.4-15.3c0-5.5-0.8-10.8-2.4-15.7c-1.6-4.9-4-9-7.2-12
			c-3.2-3.1-7-4.6-11.4-4.6c-1.4,0-3.1,0.1-5.1,0.3c-0.6,8.8-0.8,18.7-0.8,29.7c0,11.3,0.3,22.5,0.9,33.7h4.8
			C184.8,385,188.7,383.6,191.9,380.6z"/>
		<path class="st0" d="M256.9,321.2c3.8,3.4,6.7,7.8,8.7,13.4c1.9,5.5,2.9,11.4,2.9,17.7c0,6.5-1,12.6-3.1,18.4
			c-2,5.8-5,10.5-9,14.1c-4,3.6-8.8,5.4-14.4,5.4c-5.5,0-10.1-1.7-14-5.1c-3.8-3.4-6.7-7.8-8.7-13.4c-1.9-5.5-2.9-11.4-2.9-17.7
			c0-6.5,1-12.6,3.1-18.4c2-5.8,5-10.5,9-14.1c4-3.6,8.8-5.4,14.4-5.4C248.5,316.2,253.1,317.9,256.9,321.2z M251.8,382
			c2.4-2.9,4.2-6.8,5.3-11.6c1.2-4.8,1.8-10,1.8-15.5c0-5.9-0.7-11.5-2-16.9c-1.3-5.4-3.2-9.7-5.8-13c-2.5-3.3-5.5-5-9.1-5
			c-3.5,0-6.4,1.5-8.8,4.4c-2.4,2.9-4.2,6.8-5.3,11.6c-1.2,4.8-1.8,10-1.8,15.5c0,5.9,0.7,11.5,2,16.8c1.3,5.4,3.2,9.7,5.8,13
			c2.5,3.3,5.5,5,9.1,5C246.4,386.4,249.4,384.9,251.8,382z"/>
		<path class="st0" d="M353.7,399.1c0.5,1.9,0.7,3.5,0.7,4.9c0,2.4-0.8,4.2-2.3,5.5c-1.5,1.3-4.2,2-8,2c-5.7,0-10.5-1.6-14.4-4.8
			c-3.9-3.2-7.1-7.1-9.5-11.6c-2.4-4.6-5-10.5-7.8-17.8c-1.9-4.9-3.6-8.8-4.9-11.8c-1.3-2.9-2.8-5.5-4.4-7.7h-0.2h-7.7
			c0.1,9.9,0.5,20.5,1.1,31.7h-10.9c0.8-14,1.2-26.3,1.2-36.9c0-11.2-0.3-21.9-1-32c-4.8,0.4-9.4,1.7-13.9,3.9l1.6-7.6h30.5
			c5.3,0,9.9,1,13.6,2.9c3.8,1.9,6.6,4.4,8.5,7.5c1.9,3.1,2.9,6.3,2.9,9.8c0,4.2-1.3,8.1-4,11.7c-2.7,3.6-6.4,6.1-11.4,7.6
			c2.4,7.9,5.6,16,9.6,24.3c4,8.3,8.2,15.2,12.7,20.6c4.5,5.4,8.5,7.9,12.2,7.5c1.7-0.2,2.5-1.2,2.5-3c0-1.7-0.8-3.5-2.3-5.5
			c-1.6-2-3.7-3.6-6.4-4.8h11.1C353,396,353.3,397.3,353.7,399.1z M310.8,351c3-1.6,5.3-3.6,6.8-6.1c1.5-2.5,2.3-5.1,2.3-7.9
			c0-2.7-0.7-5.2-2.2-7.6c-1.5-2.4-3.7-4.3-6.6-5.8c-2.9-1.5-6.4-2.2-10.5-2.2H296c-0.6,9.5-0.8,20.1-0.8,31.9h4.8
			C304.1,353.3,307.8,352.5,310.8,351z"/>
		<path class="st0" d="M367.7,375.1h-23.5c-0.5,2.6-1.4,7.4-2.6,14.4h-6.1c7.4-25.4,12.9-49.6,16.6-72.6h12.6
			c3.6,22.7,9.1,46.9,16.5,72.6h-10.9L367.7,375.1z M366.8,370.6c-2.9-15.4-6.5-30.7-10.9-45.9c-4.2,15.1-7.8,30.5-10.9,45.9H366.8z
			"/>
		<path class="st0" d="M466.2,399.1c0.5,1.9,0.7,3.5,0.7,4.9c0,2.4-0.8,4.2-2.3,5.5c-1.5,1.3-4.2,2-8,2c-5.7,0-10.5-1.6-14.4-4.8
			c-3.9-3.2-7.1-7.1-9.5-11.6c-2.4-4.6-5-10.5-7.8-17.8c-1.9-4.9-3.6-8.8-4.9-11.8c-1.3-2.9-2.8-5.5-4.4-7.7h-0.2h-7.7
			c0.1,9.9,0.5,20.5,1.1,31.7h-10.9c0.8-14,1.2-26.3,1.2-36.9c0-11.2-0.3-21.9-1-32c-4.8,0.4-9.4,1.7-13.9,3.9l1.6-7.6h30.5
			c5.3,0,9.9,1,13.6,2.9c3.8,1.9,6.6,4.4,8.5,7.5c1.9,3.1,2.9,6.3,2.9,9.8c0,4.2-1.3,8.1-4,11.7c-2.7,3.6-6.4,6.1-11.4,7.6
			c2.4,7.9,5.6,16,9.6,24.3c4,8.3,8.2,15.2,12.7,20.6c4.5,5.4,8.5,7.9,12.2,7.5c1.7-0.2,2.5-1.2,2.5-3c0-1.7-0.8-3.5-2.3-5.5
			c-1.6-2-3.7-3.6-6.4-4.8h11.1C465.5,396,465.8,397.3,466.2,399.1z M423.3,351c3-1.6,5.3-3.6,6.8-6.1c1.5-2.5,2.3-5.1,2.3-7.9
			c0-2.7-0.7-5.2-2.2-7.6c-1.5-2.4-3.7-4.3-6.6-5.8c-2.9-1.5-6.4-2.2-10.5-2.2h-4.6c-0.6,9.5-0.8,20.1-0.8,31.9h4.8
			C416.7,353.3,420.3,352.5,423.3,351z"/>
	</g>
	<g>
		<g>
			<path class="st0" d="M159.7,166.2c0,13.8,0.4,28.1,1.3,43h-13.5c0.3-4.6-0.3-9.3-1.8-14.2c-1.5-4.9-3.5-9.5-5.9-14
				c-2.4-4.5-5.6-9.9-9.5-16.3c-2-3.3-4-6.7-6-10.2c-2-3.5-3.7-6.7-5.1-9.5c-0.2,7.2-0.4,14.5-0.4,21.7c0,13.4,0.4,27.6,1.3,42.4
				h-7.1c1-14.7,1.5-29.5,1.5-44.3c0-12.5-0.4-24.9-1.1-37.3c-0.2-0.6-0.3-1.2-0.3-1.7c0-0.5-0.1-0.9-0.1-1.2h12.9
				c-0.3,4.6,0.3,9.3,1.8,14.1c1.5,4.8,3.5,9.5,5.9,13.9c2.4,4.4,5.6,9.9,9.6,16.4c5.5,8.9,9.4,15.9,11.7,20.8
				c0.3-7.4,0.5-15.7,0.5-24.9c0-12.9-0.4-26.3-1.3-40.4h7.1C160.2,138.5,159.7,152.3,159.7,166.2z"/>
			<path class="st0" d="M205.9,192.4h-27.4c-0.6,3.1-1.6,8.7-3,16.8h-7.1c8.6-29.6,15.1-57.7,19.3-84.6h14.6
				c4.2,26.4,10.6,54.6,19.2,84.6h-12.7L205.9,192.4z M204.9,187.2c-3.4-18-7.6-35.8-12.7-53.5c-4.9,17.6-9.1,35.5-12.7,53.5H204.9z
				"/>
			<path class="st0" d="M273.8,203.6c-5,4.3-10.7,6.5-17,6.5c-5.5,0-10.7-1.6-15.7-4.8c-5-3.2-9.2-7.8-12.5-13.9
				c-3.3-6.1-5.3-13.2-5.7-21.4c-0.1-0.8-0.1-2.1-0.1-3.7c0-7.6,1.4-14.7,4.1-21.2c2.7-6.5,6.7-11.7,11.8-15.5
				c5.2-3.9,11.2-5.8,18.1-5.8c4.6,0,8.8,1,12.5,3.1c3.7,2.1,6.7,5.2,8.9,9.5c2.2,4.3,3.3,9.6,3.3,15.9h-13.3
				c1.1-2.5,1.7-5.3,1.7-8.3c0-4.4-1.2-8.2-3.6-11.4c-2.4-3.1-5.8-4.7-10-4.7c-4,0-7.8,1.6-11.2,4.6c-3.4,3.1-6.2,7.3-8.2,12.7
				c-2.1,5.3-3.1,11.2-3.1,17.7c0,1.1,0.1,2.7,0.2,4.8c0.4,6.7,1.9,12.5,4.4,17.4c2.5,4.9,5.7,8.7,9.5,11.2
				c3.8,2.6,7.8,3.9,11.9,3.9c4.2,0,8.1-1.3,11.7-4c3.6-2.7,6.5-6.6,8.6-11.7h4.4C282.4,192.9,278.8,199.3,273.8,203.6z"/>
			<path class="st0" d="M293.3,166.2c0-13.8-0.5-27.7-1.5-41.6h12.7c-0.9,12.5-1.3,26.1-1.3,40.8c0,13.9,0.4,28.5,1.3,43.7h-12.7
				C292.8,194.9,293.3,180.6,293.3,166.2z"/>
		</g>
		<g>
			<path class="st0" d="M302.9,105.9c1.7-2,3.6-4.7,5.7-8.1l5.8,5c-3.1,2.6-5.5,4.9-7.2,6.9c-1.6,1.9-3.5,4.6-5.7,8.1l-5.8-5
				C298.9,110.1,301.3,107.8,302.9,105.9z"/>
		</g>
	</g>
	<g>
		<g>
			<path class="st1" d="M508.3,169.9c0-29.3-22.1-53.2-49.2-53.2c-19.9,0-37.1,12.8-44.8,31.3c-7.7-18.4-24.9-31.3-44.8-31.3
				c-27.1,0-49.2,23.9-49.2,53.2c0,6.2,1,12.1,2.8,17.6c2.1,6.3,5.2,12,9.1,17c1.7,2.1,3.5,4.1,5.5,5.9l75,80.6
				c0.5,0.5,1.1,0.7,1.7,0.7c0.6,0,1.2-0.2,1.7-0.7l77.8-83.6l0,0c5-5.5,9-12.1,11.5-19.5C507.3,182.3,508.3,176.3,508.3,169.9z
				 M456.5,241.2c-0.5,0.6-4.2,2.1-7,0c-1.2-2.9-3.7-3.7-3.6-4.8c0.3-1.9,0.4-2.9-1.6-4.7c-8.1-6.7-10.1-11.7-15.9-14.6
				c-2.2-2.2-2.4-4.5-18.8-11.2c-1-0.2-2.9-1.6-5.3,1.1c-1.5,1.7-5.1,6.9-6.7,10.3c-2.6,4.5-3.4,8.1-4.2,10.9c-0.4,1-1,3.4-1.5,4.4
				c-1.5,2.9,0.1,4.7-0.6,6.6c-1.5,3.7-3.2-1.3-3.9,2.9c-2.1,3.7-10.7,3.4-10,2.3c2.4-4.3,6.4-5.5,6.4-5.5c-0.8-1.4-1.1-4.1-0.8-5.8
				c0-0.1,0.8-5.7,3.1-8.9c0.1-0.2,1.9-3.9,3.8-13.6c1.6-8,2.8-9.4,3-10.3c0.2-1.3-2.6-0.8,1.1-6c-2.1-3.1,1.5-2.4,0.7-2.7
				c-0.7-0.5,0.2-4.6-1.8-15.7c-0.5-3.1-0.5-3.6-2.1-5.9c-1.4-1.9-6.7-9-6.4-12c0.3-2.5,2.3-7.7,3.6-8.9l1.6-2.3
				c1.9-2.2,2.5-5.2,2.5-5.2c0.5-0.9,3.6-2.9,5.6,0.9l1.3-0.5c1.4-0.1,1.5,1,0.6,1.2c-0.9,0.2-2.8,1.2-4.7,2.6
				c-1.2,0.9-0.7,1.8-1.1,2.3c-1,1.5-2.9,7.2-3.3,10.1c0.1,0.1,2.1,4.3,5.1,7.1l6.7,3.6c3.4-2.2,0.1-5.4,1.5-9
				c1.6-4.3,5.1-4.5,6.7-4.2c5.3,1.2,4.1,4.2,4.1,5.6c0.2,4.2-2.2,4.4-2.4,4.9c-0.4,1.1-1.9,1.7,1.3,4.1c3.9,1.7,8.8,4.6,10.3,5
				c2.3,0.6,3.7,0.9,5.3,1.1c3-0.1,7.3-5.5,8.6-7.5c0.1-0.2-0.3-3.2-0.5-5.7c0.1-0.1,0.4-0.8,0.5-0.8c0.9,0.1,1.1,2,1.1,2
				c3.6-0.7,4,2.8,4,3.6c-1.1,1.4-2.3,2.4-3,6.1c0,0.2-0.3,2.9-5.2,7.2c-0.8,1.6-5.1,1.2-5,1.2c-1.1,0-4.2-0.4-5.2-0.4
				c-2.4-0.5-1.8-0.5-5.3-0.9c-1.6-0.2-2,0.1-3.2,1c-1.1,1.9-4,4.3,0.9,12.4c1.7,2.8,8.6,6.9,11.9,11.4c4,5.3,8.6,7.8,21.8,24
				C451.9,236.3,457.6,239.7,456.5,241.2z"/>
		</g>
	</g>
</g>
</svg>
