<?xml version="1.0" encoding="utf-8"?>
<!-- Generator: Adobe Illustrator 25.3.0, SVG Export Plug-In . SVG Version: 6.00 Build 0)  -->
<svg version="1.1" id="Capa_1" xmlns="http://www.w3.org/2000/svg" xmlns:xlink="http://www.w3.org/1999/xlink" x="0px" y="0px"
	 viewBox="0 0 566.9 566.9" style="enable-background:new 0 0 566.9 566.9;" xml:space="preserve">
<style type="text/css">
	.st0{fill:#F8C0B5;}
</style>
<g>
	<path class="st0" d="M172.8,204.8c0.3,0.8,1.1,1.3,1.9,1.3h5.4h20h5.4c0.8,0,1.6-0.5,1.9-1.3l28.6-77c0.2-0.6,0.2-1.3-0.2-1.8
		s-1-0.9-1.7-0.9h-5.4h-17.8h-5.4c-0.9,0-1.7,0.6-1.9,1.4l-13.3,43l-13.5-43c-0.2-0.8-1-1.4-1.9-1.4h-5.4H151h-5.4
		c-0.6,0-1.3,0.3-1.6,0.8c-0.4,0.5-0.5,1.2-0.2,1.9L172.8,204.8z M204.9,203.3h-2.5l28-75.5h2.5L204.9,203.3z M206,127.8h2.5
		L193,178.1l-1.3-4.1L206,127.8z M188.9,174.1l-1.2,4l-15.8-50.4h2.5L188.9,174.1z M169,127.8l16.7,53.4c0.3,0.8,1,1.4,1.9,1.4
		c0,0,0,0,0,0c0.9,0,1.6-0.6,1.9-1.4l0.8-2.5l0.8,2.5c0.3,0.8,1,1.4,1.9,1.4c0,0,0,0,0,0c0.9,0,1.6-0.6,1.9-1.4l16.5-53.4h16.2
		l-28.1,75.5h-18.9l-28.5-75.5H169z M149.1,127.8l28.5,75.5h-2.5l-28.5-75.5H149.1z"/>
	<path class="st0" d="M239.1,206h5.4H262h5.4c1.1,0,2-0.9,2-2v-77c0-1.1-0.9-2-2-2H262h-17.6h-5.4c-1.1,0-2,0.9-2,2v77
		C237.1,205.1,237.9,206,239.1,206z M266.7,203.3H264v-75.5h2.6V203.3z M261.3,127.8v75.5h-16.1v-75.5H261.3z M239.8,127.8h2.6v75.5
		h-2.6V127.8z"/>
	<path class="st0" d="M300.5,204.8c0.3,0.8,1.1,1.3,1.9,1.3h5.4h20h5.4c0.8,0,1.6-0.5,1.9-1.3l28.6-77c0.2-0.6,0.2-1.3-0.2-1.8
		s-1-0.9-1.7-0.9h-5.4h-17.8h-5.4c-0.9,0-1.7,0.6-1.9,1.4l-13.3,43l-13.5-43c-0.2-0.8-1-1.4-1.9-1.4h-5.4h-18.5h-5.4
		c-0.6,0-1.3,0.3-1.6,0.8c-0.4,0.5-0.5,1.2-0.2,1.9L300.5,204.8z M332.5,203.3h-2.5l28-75.5h2.5L332.5,203.3z M333.6,127.8h2.5
		l-15.5,50.4l-1.3-4.1L333.6,127.8z M316.5,174.1l-1.2,4l-15.8-50.4h2.5L316.5,174.1z M296.6,127.8l16.7,53.4c0.3,0.8,1,1.4,1.9,1.4
		c0,0,0,0,0,0c0.9,0,1.6-0.6,1.9-1.4l0.8-2.5l0.8,2.5c0.3,0.8,1,1.4,1.9,1.4c0,0,0,0,0,0c0.9,0,1.6-0.6,1.9-1.4l16.5-53.4h16.2
		l-28.1,75.5h-18.9l-28.5-75.5H296.6z M276.8,127.8l28.5,75.5h-2.5l-28.5-75.5H276.8z"/>
	<path class="st0" d="M365.7,206h5.4h59.3h5.4c1.1,0,2-0.9,2-2v-16.5c0-1.1-0.9-2-2-2h-5.4H396v-12.7h30.2h5.4c1.1,0,2-0.9,2-2
		v-14.7c0-1.1-0.9-2-2-2h-5.4H396v-9.7h33.2h5.4c1.1,0,2-0.9,2-2V127c0-1.1-0.9-2-2-2h-5.4H371h-5.4c-1.1,0-2,0.9-2,2v77
		C363.7,205.1,364.6,206,365.7,206z M435,203.3h-2.6v-15h2.6V203.3z M393.3,185.6h-2.6v-12.7h2.6V185.6z M430.9,170.2h-2.6v-13.2
		h2.6V170.2z M393.3,154.2h-2.6v-9.7h2.6V154.2z M433.9,141.7h-2.6v-14h2.6V141.7z M428.5,127.8v14h-35.2h-5.4v15.2h5.4h32.3v13.2
		h-30.3h-5.4c-1.1,0-2,0.9-2,2v14.2c0,1.1,0.9,2,2,2h5.4h34.4v15h-57.9v-75.5H428.5z M366.4,127.8h2.6v75.5h-2.6V127.8z"/>
	<path class="st0" d="M172.8,96.4c0.3,0.8,1.1,1.3,1.9,1.3h5.4h20h5.4c0.8,0,1.6-0.5,1.9-1.3l28.6-77c0.2-0.6,0.2-1.3-0.2-1.8
		c-0.4-0.5-1-0.9-1.7-0.9h-5.4h-17.8h-5.4c-0.9,0-1.7,0.6-1.9,1.4l-13.3,43l-13.5-43c-0.2-0.8-1-1.4-1.9-1.4h-5.4H151h-5.4
		c-0.6,0-1.3,0.3-1.6,0.8c-0.4,0.5-0.5,1.2-0.2,1.9L172.8,96.4z M204.9,94.9h-2.5l28-75.5h2.5L204.9,94.9z M206,19.4h2.5L193,69.8
		l-1.3-4.1L206,19.4z M188.9,65.7l-1.3,4l-15.8-50.4h2.5L188.9,65.7z M169,19.4l16.7,53.4c0.5,1.7,3.3,1.7,3.8,0l0.8-2.5l0.8,2.5
		c0.5,1.7,3.3,1.7,3.8,0l16.5-53.4h16.2l-28.1,75.5h-18.9l-28.5-75.5H169z M149.1,19.4l28.5,75.5h-2.5l-28.5-75.5H149.1z"/>
	<path class="st0" d="M239.1,97.7h5.4H262h5.4c1.1,0,2-0.9,2-2v-77c0-1.1-0.9-2-2-2H262h-17.6h-5.4c-1.1,0-2,0.9-2,2v77
		C237.1,96.8,237.9,97.7,239.1,97.7z M266.7,94.9H264V19.4h2.6V94.9z M261.3,19.4v75.5h-16.1V19.4H261.3z M239.8,19.4h2.6v75.5h-2.6
		V19.4z"/>
	<path class="st0" d="M300.5,96.4c0.3,0.8,1.1,1.3,1.9,1.3h5.4h20h5.4c0.8,0,1.6-0.5,1.9-1.3l28.6-77c0.2-0.6,0.2-1.3-0.2-1.8
		c-0.4-0.5-1-0.9-1.7-0.9h-5.4h-17.8h-5.4c-0.9,0-1.7,0.6-1.9,1.4l-13.3,43l-13.5-43c-0.2-0.8-1-1.4-1.9-1.4h-5.4h-18.5h-5.4
		c-0.6,0-1.3,0.3-1.6,0.8c-0.4,0.5-0.5,1.2-0.2,1.9L300.5,96.4z M332.5,94.9h-2.5l28-75.5h2.5L332.5,94.9z M333.6,19.4h2.5
		l-15.5,50.4l-1.3-4.1L333.6,19.4z M316.5,65.7l-1.3,4l-15.8-50.4h2.5L316.5,65.7z M296.6,19.4l16.7,53.4c0.5,1.7,3.3,1.7,3.8,0
		l0.8-2.5l0.8,2.5c0.5,1.7,3.3,1.7,3.8,0L339,19.4h16.2l-28.1,75.5h-18.9l-28.5-75.5H296.6z M276.8,19.4l28.5,75.5h-2.5l-28.5-75.5
		H276.8z"/>
	<path class="st0" d="M365.7,97.7h5.4h59.3h5.4c1.1,0,2-0.9,2-2V79.2c0-1.1-0.9-2-2-2h-5.4H396V64.5h30.2h5.4c1.1,0,2-0.9,2-2V47.8
		c0-1.1-0.9-2-2-2h-5.4H396v-9.7h33.2h5.4c1.1,0,2-0.9,2-2V18.7c0-1.1-0.9-2-2-2h-5.4H371h-5.4c-1.1,0-2,0.9-2,2v77
		C363.7,96.8,364.6,97.7,365.7,97.7z M435,94.9h-2.6V80h2.6V94.9z M393.3,77.2h-2.6V64.5h2.6V77.2z M430.9,61.8h-2.6V48.6h2.6V61.8z
		 M393.3,45.8h-2.6v-9.7h2.6V45.8z M433.9,33.4h-2.6v-14h2.6V33.4z M428.5,19.4v14h-35.2h-5.4v15.2h5.4h32.3v13.2h-30.3h-5.4
		c-1.1,0-2,0.9-2,2v14.2c0,1.1,0.9,2,2,2h5.4h34.4v15h-57.9V19.4H428.5z M366.4,19.4h2.6v75.5h-2.6V19.4z"/>
	<path class="st0" d="M234,448.7h-5.4h-17.8h-5.4c-0.9,0-1.7,0.6-1.9,1.4l-13.3,43l-13.5-43c-0.3-0.8-1-1.4-1.9-1.4h-5.4H151h-5.4
		c-0.6,0-1.3,0.3-1.6,0.8c-0.4,0.5-0.5,1.2-0.2,1.9l29.1,77c0.3,0.8,1.1,1.3,1.9,1.3h5.4h20h5.4c0.8,0,1.6-0.5,1.9-1.3l28.6-77
		c0.2-0.6,0.2-1.3-0.2-1.8C235.3,449,234.7,448.7,234,448.7z M206,451.4h2.5L193,501.8l-1.3-4.1L206,451.4z M188.9,497.8l-1.2,4
		l-15.7-50.4h2.5L188.9,497.8z M146.7,451.4h2.5l28.5,75.5h-2.5L146.7,451.4z M180.6,527l-28.5-75.5H169l16.7,53.4
		c0.5,1.7,3.3,1.7,3.8,0l0.8-2.5l0.8,2.5c0.5,1.7,3.3,1.7,3.8,0l16.5-53.4h16.2L199.5,527H180.6z M204.9,527h-2.5l28-75.5h2.5
		L204.9,527z"/>
	<path class="st0" d="M267.4,448.7H262h-17.6h-5.4c-1.1,0-2,0.9-2,2v77c0,1.1,0.9,2,2,2h5.4H262h5.4c1.1,0,2-0.9,2-2v-77
		C269.4,449.6,268.5,448.7,267.4,448.7z M239.8,451.4h2.6V527h-2.6V451.4z M245.2,527v-75.5h16.1V527H245.2z M266.7,527H264v-75.5
		h2.6V527z"/>
	<path class="st0" d="M361.6,448.7h-5.4h-17.8h-5.4c-0.9,0-1.7,0.6-1.9,1.4l-13.3,43l-13.5-43c-0.3-0.8-1-1.4-1.9-1.4h-5.4h-18.5
		h-5.4c-0.6,0-1.3,0.3-1.6,0.8c-0.4,0.5-0.5,1.2-0.2,1.9l29.1,77c0.3,0.8,1.1,1.3,1.9,1.3h5.4h20h5.4c0.8,0,1.6-0.5,1.9-1.3l28.6-77
		c0.2-0.6,0.2-1.3-0.2-1.8C362.9,449,362.3,448.7,361.6,448.7z M333.6,451.4h2.5l-15.5,50.4l-1.3-4.1L333.6,451.4z M316.5,497.8
		l-1.2,4l-15.7-50.4h2.5L316.5,497.8z M274.3,451.4h2.5l28.5,75.5h-2.5L274.3,451.4z M308.2,527l-28.5-75.5h16.9l16.7,53.4
		c0.5,1.7,3.3,1.7,3.8,0l0.8-2.5l0.8,2.5c0.5,1.7,3.3,1.7,3.8,0l16.5-53.4h16.2L327.2,527H308.2z M332.5,527h-2.5l28-75.5h2.5
		L332.5,527z"/>
	<path class="st0" d="M435.8,509.3h-5.4H396v-12.7h30.2h5.4c1.1,0,2-0.9,2-2v-14.7c0-1.1-0.9-2-2-2h-5.4H396v-9.7h33.2h5.4
		c1.1,0,2-0.9,2-2v-15.4c0-1.1-0.9-2-2-2h-5.4H371h-5.4c-1.1,0-2,0.9-2,2v77c0,1.1,0.9,2,2,2h5.4h59.3h5.4c1.1,0,2-0.9,2-2v-16.5
		C437.8,510.2,436.9,509.3,435.8,509.3z M393.3,509.3h-2.6v-12.7h2.6V509.3z M430.9,493.8h-2.6v-13.2h2.6V493.8z M393.3,477.9h-2.6
		v-9.7h2.6V477.9z M433.9,465.4h-2.6v-14h2.6V465.4z M366.4,451.4h2.6V527h-2.6V451.4z M371.8,527v-75.5h56.7v14h-35.2h-5.4v15.2
		h5.4h32.3v13.2h-30.3h-5.4c-1.1,0-2,0.9-2,2V510c0,1.1,0.9,2,2,2h5.4h34.4v15H371.8z M435,527h-2.6v-15h2.6V527z"/>
	<path class="st0" d="M234,340.3h-5.4h-17.8h-5.4c-0.9,0-1.7,0.6-1.9,1.4l-13.3,43l-13.5-43c-0.3-0.8-1-1.4-1.9-1.4h-5.4H151h-5.4
		c-0.6,0-1.3,0.3-1.6,0.8c-0.4,0.5-0.5,1.2-0.2,1.9l29.1,77c0.3,0.8,1.1,1.3,1.9,1.3h5.4h20h5.4c0.8,0,1.6-0.5,1.9-1.3l28.6-77
		c0.2-0.6,0.2-1.3-0.2-1.8C235.3,340.7,234.7,340.3,234,340.3z M206,343.1h2.5L193,393.4l-1.3-4.1L206,343.1z M188.9,389.4l-1.2,4
		l-15.7-50.4h2.5L188.9,389.4z M146.7,343.1h2.5l28.5,75.5h-2.5L146.7,343.1z M180.6,418.6l-28.5-75.5H169l16.7,53.4
		c0.3,0.8,1,1.4,1.9,1.4c0,0,0,0,0,0c0.9,0,1.6-0.6,1.9-1.4l0.8-2.5l0.8,2.5c0.3,0.8,1,1.4,1.9,1.4c0,0,0,0,0,0
		c0.9,0,1.6-0.6,1.9-1.4l16.5-53.4h16.2l-28.1,75.5H180.6z M204.9,418.6h-2.5l28-75.5h2.5L204.9,418.6z"/>
	<path class="st0" d="M267.4,340.3H262h-17.6h-5.4c-1.1,0-2,0.9-2,2v77c0,1.1,0.9,2,2,2h5.4H262h5.4c1.1,0,2-0.9,2-2v-77
		C269.4,341.2,268.5,340.3,267.4,340.3z M239.8,343.1h2.6v75.5h-2.6V343.1z M245.2,418.6v-75.5h16.1v75.5H245.2z M266.7,418.6H264
		v-75.5h2.6V418.6z"/>
	<path class="st0" d="M361.6,340.3h-5.4h-17.8h-5.4c-0.9,0-1.7,0.6-1.9,1.4l-13.3,43l-13.5-43c-0.3-0.8-1-1.4-1.9-1.4h-5.4h-18.5
		h-5.4c-0.6,0-1.3,0.3-1.6,0.8c-0.4,0.5-0.5,1.2-0.2,1.9l29.1,77c0.3,0.8,1.1,1.3,1.9,1.3h5.4h20h5.4c0.8,0,1.6-0.5,1.9-1.3l28.6-77
		c0.2-0.6,0.2-1.3-0.2-1.8C362.9,340.7,362.3,340.3,361.6,340.3z M333.6,343.1h2.5l-15.5,50.4l-1.3-4.1L333.6,343.1z M316.5,389.4
		l-1.2,4l-15.7-50.4h2.5L316.5,389.4z M274.3,343.1h2.5l28.5,75.5h-2.5L274.3,343.1z M308.2,418.6l-28.5-75.5h16.9l16.7,53.4
		c0.3,0.8,1,1.4,1.9,1.4c0,0,0,0,0,0c0.9,0,1.6-0.6,1.9-1.4l0.8-2.5l0.8,2.5c0.3,0.8,1,1.4,1.9,1.4c0,0,0,0,0,0
		c0.9,0,1.6-0.6,1.9-1.4l16.5-53.4h16.2l-28.1,75.5H308.2z M332.5,418.6h-2.5l28-75.5h2.5L332.5,418.6z"/>
	<path class="st0" d="M435.8,400.9h-5.4H396v-12.7h30.2h5.4c1.1,0,2-0.9,2-2v-14.7c0-1.1-0.9-2-2-2h-5.4H396v-9.7h33.2h5.4
		c1.1,0,2-0.9,2-2v-15.4c0-1.1-0.9-2-2-2h-5.4H371h-5.4c-1.1,0-2,0.9-2,2v77c0,1.1,0.9,2,2,2h5.4h59.3h5.4c1.1,0,2-0.9,2-2v-16.5
		C437.8,401.8,436.9,400.9,435.8,400.9z M393.3,400.9h-2.6v-12.7h2.6V400.9z M430.9,385.5h-2.6v-13.2h2.6V385.5z M393.3,369.5h-2.6
		v-9.7h2.6V369.5z M433.9,357.1h-2.6v-14h2.6V357.1z M366.4,343.1h2.6v75.5h-2.6V343.1z M371.8,418.6v-75.5h56.7v14h-35.2h-5.4v15.2
		h5.4h32.3v13.2h-30.3h-5.4c-1.1,0-2,0.9-2,2v14.2c0,1.1,0.9,2,2,2h5.4h34.4v15H371.8z M435,418.6h-2.6v-15h2.6V418.6z"/>
	<path class="st0" d="M152.4,295.6c1.5-4.4,2.2-10.7,2.2-19.1v-39.8H132v45.1c0,4.5-0.6,7.6-1.8,9.5c-1.2,1.9-3,2.8-5.6,2.8
		c-1.6,0-2.8-0.3-3.7-0.9c-1.3-1-2.2-2.2-2.7-3.8c-0.5-1.6-0.8-4-0.8-7.2l-21.6,2.9c0.4,5.7,1.7,10.4,3.9,14.3
		c2.2,3.8,5.4,6.8,9.4,8.8c4.1,2,9.8,3,17.2,3c7,0,12.7-1.5,17.2-4.5C148,303.7,151,300,152.4,295.6z"/>
	<polygon class="st0" points="197.5,279 232.7,279 232.7,264.1 197.5,264.1 197.5,252.4 235.4,252.4 235.4,236.8 174.8,236.8 
		174.8,310 236.5,310 236.5,293.4 197.5,293.4 	"/>
	<path class="st0" d="M291.7,294.6c-1.7,1.5-4.2,2.3-7.5,2.3c-4.3,0-7.7-1.5-10-4.4c-1.4-1.8-2.4-4.5-2.8-8l-21.5,1.3
		c0.6,7.4,3.3,13.5,8.1,18.3s13.4,7.2,25.9,7.2c7.1,0,13-1,17.6-3.1s8.3-5.1,10.9-9s3.9-8.3,3.9-13c0-4-1-7.6-2.9-10.8
		c-1.9-3.2-5.1-5.9-9.3-8.1c-4.3-2.2-11.4-4.3-21.3-6.5c-4-0.8-6.5-1.7-7.6-2.7c-1.1-0.9-1.6-2-1.6-3.1c0-1.6,0.7-3,2-4.1
		c1.3-1.1,3.3-1.7,5.9-1.7c3.2,0,5.7,0.7,7.5,2.2c1.8,1.5,3,3.9,3.6,7.2l21.3-1.2c-0.9-7.6-3.9-13.1-8.8-16.6
		c-4.9-3.5-12-5.2-21.4-5.2c-7.6,0-13.6,1-18,2.9c-4.4,1.9-7.7,4.5-9.8,7.9s-3.3,6.9-3.3,10.7c0,5.7,2.1,10.4,6.4,14.1
		c4.2,3.7,11.3,6.7,21.2,8.9c6.1,1.3,9.9,2.7,11.6,4.2c1.7,1.5,2.5,3.2,2.5,5.1C294.3,291.3,293.5,293.1,291.7,294.6z"/>
	<path class="st0" d="M332.9,236.8v43.6c0,3.6,0.7,7.7,2.1,12.4c0.9,2.9,2.5,5.7,4.8,8.4c2.3,2.7,4.9,4.8,7.8,6.3
		c2.8,1.5,6.4,2.5,10.6,3c4.2,0.5,8.1,0.7,11.7,0.7c6.2,0,11.4-0.8,15.8-2.4c3.2-1.2,6.2-3.2,9.1-6.1c2.9-2.9,5-6.2,6.3-10.1
		c1.3-3.8,2-7.9,2-12.2v-43.6h-22.6v44.7c0,4.1-1.1,7.2-3.3,9.4c-2.2,2.2-5.3,3.3-9.2,3.3c-3.9,0-7-1.1-9.2-3.4
		c-2.2-2.2-3.3-5.4-3.3-9.4v-44.7H332.9z"/>
	<polygon class="st0" points="384.9,217.4 367.4,217.4 359,232.3 368.7,232.3 	"/>
	<path class="st0" d="M482.7,275.3c-1.9-3.2-5.1-5.9-9.3-8.1c-4.3-2.2-11.4-4.3-21.3-6.5c-4-0.8-6.5-1.7-7.6-2.7
		c-1.1-0.9-1.6-2-1.6-3.1c0-1.6,0.7-3,2-4.1c1.3-1.1,3.3-1.7,5.9-1.7c3.2,0,5.7,0.7,7.5,2.2c1.8,1.5,3,3.9,3.6,7.2l21.3-1.2
		c-0.9-7.6-3.9-13.1-8.8-16.6c-4.9-3.5-12-5.2-21.4-5.2c-7.6,0-13.6,1-18,2.9c-4.4,1.9-7.7,4.5-9.8,7.9c-2.2,3.3-3.3,6.9-3.3,10.7
		c0,5.7,2.1,10.4,6.4,14.1c4.2,3.7,11.3,6.7,21.2,8.9c6.1,1.3,9.9,2.7,11.6,4.2c1.7,1.5,2.5,3.2,2.5,5.1c0,2-0.9,3.8-2.6,5.3
		c-1.7,1.5-4.2,2.3-7.5,2.3c-4.3,0-7.7-1.5-10-4.4c-1.4-1.8-2.4-4.5-2.8-8l-21.5,1.3c0.6,7.4,3.3,13.5,8.1,18.3
		c4.8,4.8,13.4,7.2,25.9,7.2c7.1,0,13-1,17.6-3.1s8.3-5.1,10.9-9c2.6-4,3.9-8.3,3.9-13C485.6,282.2,484.6,278.6,482.7,275.3z"/>
</g>
</svg>
