<?xml version="1.0" encoding="utf-8"?>
<!-- Generator: Adobe Illustrator 25.3.0, SVG Export Plug-In . SVG Version: 6.00 Build 0)  -->
<svg version="1.1" id="Capa_1" xmlns="http://www.w3.org/2000/svg" xmlns:xlink="http://www.w3.org/1999/xlink" x="0px" y="0px"
	 viewBox="0 0 566.9 566.9" style="enable-background:new 0 0 566.9 566.9;" xml:space="preserve">
<style type="text/css">
	.st0{fill:#F8C0B5;}
</style>
<g>
	<g>
		<g>
			<path class="st0" d="M118.7,109.6c-12.9,0-22-2.6-27.1-7.7c-4.9-4.9-7.7-11.1-8.5-18.4l0,0c-0.1-0.6,0.1-1.1,0.5-1.6
				c0.4-0.4,0.9-0.7,1.5-0.8l22.2-1.4l0.2,1.2c0.4,3.3,1.3,5.8,2.6,7.5c2.1,2.7,5.1,4,9.1,4c2.9,0,5.2-0.7,6.7-2
				c1.5-1.3,2.2-2.7,2.2-4.4c0-1.6-0.7-2.9-2.1-4.2c-1-0.9-3.8-2.4-11.1-4c-10.2-2.3-17.6-5.4-22.1-9.3c-4.6-4-6.9-9.1-6.9-15.3
				c0-4,1.2-7.9,3.5-11.5c2.3-3.6,5.9-6.4,10.5-8.5c4.6-2,10.9-3,18.7-3c9.7,0,17.2,1.9,22.4,5.5c5.1,3.6,8.2,9.2,9.3,16.8
				c0.1,0.6-0.1,1.2-0.5,1.6c-0.4,0.5-0.9,0.7-1.5,0.8l-20.1,1.2c0,0-0.1,0-0.1,0c-1,0-1.8-0.7-2-1.7c-0.5-2.7-1.6-4.7-3-5.9
				c-1.6-1.3-3.9-2-6.8-2c-2.3,0-4.1,0.5-5.2,1.4c-1.1,0.9-1.6,1.9-1.6,3.1c0,0.8,0.4,1.5,1.2,2.2c0.5,0.5,2.1,1.4,7.1,2.4
				c10.1,2.2,17.4,4.4,21.8,6.7c4.5,2.3,7.9,5.2,10,8.7c2.1,3.5,3.1,7.4,3.1,11.6c0,5-1.4,9.6-4.2,13.9c-2.7,4.2-6.6,7.4-11.6,9.6
				C132.2,108.5,126,109.6,118.7,109.6z M85.7,83.7c0.8,6.5,3.4,12.1,7.7,16.4c4.6,4.6,13.1,6.9,25.3,6.9c7,0,12.8-1,17.3-3
				c4.5-2,8-4.9,10.5-8.7c2.5-3.8,3.7-8,3.7-12.4c0-3.8-0.9-7.3-2.8-10.3c-1.8-3-4.8-5.6-8.9-7.7c-4.2-2.1-11.3-4.3-21.2-6.4
				c-4.4-0.9-7-1.9-8.3-3c-1.4-1.2-2.1-2.6-2.1-4.1c0-2,0.8-3.7,2.5-5.1c1.6-1.3,3.9-2,6.9-2c3.5,0,6.4,0.9,8.4,2.6
				c1.9,1.5,3.1,3.8,3.8,6.9l19.1-1.1c-1.1-6.6-3.8-11.5-8.1-14.5c-4.7-3.3-11.8-5-20.9-5c-7.5,0-13.5,0.9-17.7,2.8
				c-4.2,1.8-7.3,4.4-9.4,7.5c-2.1,3.2-3.1,6.6-3.1,10.1c0,5.5,2,9.8,6,13.3c4.1,3.6,11.1,6.5,20.9,8.7c6.4,1.4,10.4,2.9,12.3,4.6
				c2,1.8,3,3.8,3,6.1c0,2.4-1,4.5-3.1,6.3c-2,1.7-4.8,2.6-8.4,2.6c-4.8,0-8.5-1.7-11.1-5c-1.4-1.8-2.4-4.3-3-7.5L85.7,83.7z
				 M85.6,83.2L85.6,83.2C85.6,83.2,85.6,83.2,85.6,83.2z M128.6,54.1C128.6,54.1,128.6,54.1,128.6,54.1
				C128.6,54.1,128.6,54.1,128.6,54.1z M148.1,52.5L148.1,52.5L148.1,52.5z"/>
		</g>
		<g>
			<path class="st0" d="M242.9,108.3h-22.3c-0.9,0-1.7-0.6-2-1.4l-3.3-10.8h-24.1l-3.2,10.8c-0.2,0.9-1.1,1.5-2,1.5h-21.7
				c-0.7,0-1.3-0.3-1.7-0.9c-0.4-0.6-0.5-1.3-0.2-1.9L189.8,33c0.3-0.8,1.1-1.3,1.9-1.3h23.9c0.9,0,1.6,0.5,1.9,1.3l27.3,72.6
				c0.2,0.6,0.1,1.3-0.2,1.9C244.2,108,243.6,108.3,242.9,108.3z M165,106.4L165,106.4C165,106.5,165,106.4,165,106.4z M185.7,106.1
				C185.7,106.1,185.7,106.1,185.7,106.1L185.7,106.1z M221,105.7h21.1l-26.9-71.5h-23.2l-26.9,71.5h20.5L189,95
				c0.2-0.9,1.1-1.5,2-1.5h24.9c0.9,0,1.7,0.6,2,1.4L221,105.7z M191.4,95.7L191.4,95.7C191.4,95.7,191.4,95.7,191.4,95.7z
				 M215.2,33.9C215.2,33.9,215.2,33.9,215.2,33.9L215.2,33.9z M192.2,33.9L192.2,33.9C192.2,33.9,192.2,33.9,192.2,33.9z
				 M210.6,80.1h-14.2c-0.7,0-1.3-0.3-1.6-0.8c-0.4-0.5-0.5-1.2-0.3-1.8l9-29.7l9.1,29.7c0.2,0.6,0.1,1.3-0.3,1.8
				C211.8,79.7,211.2,80.1,210.6,80.1z M197.1,77.5h12.8l-6.4-20.9L197.1,77.5z"/>
		</g>
		<g>
			<path class="st0" d="M329.4,108.3h-20.4c-0.7,0-1.3-0.3-1.7-0.9l-25.2-36.9v35.7c0,1.1-0.9,2.1-2.1,2.1h-20
				c-1.1,0-2.1-0.9-2.1-2.1V33.7c0-1.1,0.9-2.1,2.1-2.1h20.2c0.7,0,1.3,0.3,1.7,0.9l25.3,37.2v-36c0-1.1,0.9-2.1,2.1-2.1h20.1
				c1.1,0,2.1,0.9,2.1,2.1v72.6C331.4,107.4,330.5,108.3,329.4,108.3z M309.2,105.7h19.6V34.2h-19v37.2c0,0.9-0.6,1.7-1.4,2
				c-0.9,0.3-1.8-0.1-2.3-0.8l-26.1-38.4h-19.4v71.5h18.9V68.8c0-0.9,0.6-1.7,1.5-2c0.9-0.2,1.8,0.1,2.3,0.8L309.2,105.7z"/>
		</g>
		<g>
			<path class="st0" d="M393.4,108.3H372c-1.1,0-2.1-0.9-2.1-2.1V52.5h-21.3c-1.1,0-2.1-0.9-2.1-2.1V33.7c0-1.1,0.9-2.1,2.1-2.1
				h68.1c1.1,0,2.1,0.9,2.1,2.1v16.8c0,1.1-0.9,2.1-2.1,2.1h-21.3v53.8C395.4,107.4,394.5,108.3,393.4,108.3z M372.5,105.7h20.3V52
				c0-1.1,0.9-2.1,2.1-2.1h21.3V34.2h-67v15.7h21.3c1.1,0,2.1,0.9,2.1,2.1V105.7z"/>
		</g>
		<g>
			<path class="st0" d="M468.4,109.6c-8.5,0-15.7-1.4-21.3-4.1c-5.7-2.8-10.4-7.2-13.9-13.1c-3.5-5.9-5.3-13.4-5.3-22.3
				c0-12.4,3.5-22.2,10.5-29.2c7-7,16.7-10.5,29.1-10.5c12.6,0,22.5,3.5,29.4,10.3c6.9,6.8,10.4,16.5,10.4,28.7
				c0,8.8-1.5,16.2-4.5,21.9c-3,5.7-7.4,10.3-13.2,13.5C484,108,476.8,109.6,468.4,109.6z M467.5,32.9c-11.6,0-20.8,3.3-27.2,9.7
				c-6.5,6.5-9.7,15.7-9.7,27.3c0,8.4,1.7,15.4,4.9,21c3.3,5.5,7.6,9.6,12.8,12.1c5.3,2.6,12.1,3.9,20.2,3.9c8,0,14.7-1.5,20-4.5
				c5.3-2.9,9.3-7.1,12.1-12.4c2.8-5.3,4.2-12.3,4.2-20.7c0-11.5-3.2-20.6-9.6-26.9C488.7,36.2,479.4,32.9,467.5,32.9z M467.6,92.5
				c-5.2,0-9.3-1.8-12.3-5.4c-3-3.5-4.5-9.2-4.5-17c0-7.9,1.5-13.5,4.5-17.1c3-3.6,7.1-5.4,12.1-5.4c5.2,0,9.4,1.8,12.4,5.3
				c3,3.5,4.5,8.9,4.5,16.1c0,8.7-1.4,14.6-4.4,18.1C477.1,90.7,472.9,92.5,467.6,92.5z M467.4,50.3c-4.3,0-7.6,1.5-10.1,4.5
				c-2.6,3-3.9,8.2-3.9,15.4c0,7.1,1.3,12.3,3.9,15.3c2.5,3,5.9,4.4,10.4,4.4c4.6,0,8-1.4,10.4-4.3c2.5-2.9,3.7-8.5,3.7-16.4
				c0-6.6-1.3-11.5-3.9-14.4C475.3,51.7,471.9,50.3,467.4,50.3z"/>
		</g>
	</g>
	<g>
		<g>
			<path class="st0" d="M118.7,211.7c-12.9,0-22-2.6-27.1-7.7c-4.9-4.9-7.7-11.1-8.5-18.4l0,0c-0.1-0.6,0.1-1.1,0.5-1.6
				c0.4-0.4,0.9-0.7,1.5-0.7l22.2-1.4l0.2,1.2c0.4,3.3,1.3,5.8,2.6,7.5c2.1,2.7,5.1,4,9.1,4c2.9,0,5.2-0.7,6.7-2
				c1.5-1.3,2.2-2.7,2.2-4.4c0-1.6-0.7-2.9-2.1-4.2c-1-0.9-3.8-2.4-11.1-4c-10.2-2.3-17.6-5.4-22.1-9.3c-4.6-4-6.9-9.1-6.9-15.3
				c0-4,1.2-7.9,3.5-11.5c2.3-3.6,5.9-6.4,10.5-8.5c4.6-2,10.9-3,18.7-3c9.7,0,17.2,1.9,22.4,5.5c5.1,3.6,8.2,9.2,9.3,16.8
				c0.1,0.6-0.1,1.2-0.5,1.6c-0.4,0.5-0.9,0.7-1.5,0.8l-20.1,1.2c0,0-0.1,0-0.1,0c-1,0-1.8-0.7-2-1.7c-0.5-2.7-1.6-4.6-3.1-5.9
				c-1.6-1.3-3.9-2-6.8-2c-2.3,0-4.1,0.5-5.2,1.4c-1.1,0.9-1.6,1.9-1.6,3.1c0,0.8,0.4,1.5,1.2,2.2c0.5,0.5,2.1,1.4,7.1,2.4
				c10.1,2.2,17.4,4.4,21.8,6.7c4.5,2.3,7.9,5.2,10,8.7c2.1,3.5,3.1,7.4,3.1,11.6c0,5-1.4,9.6-4.2,13.9c-2.8,4.2-6.6,7.4-11.6,9.6
				C132.2,210.6,126,211.7,118.7,211.7z M85.7,185.8c0.8,6.5,3.4,12.1,7.7,16.4c4.6,4.6,13.1,6.9,25.3,6.9c7,0,12.8-1,17.3-3
				c4.5-2,8-4.9,10.5-8.6c2.5-3.8,3.7-8,3.7-12.4c0-3.8-0.9-7.3-2.8-10.3c-1.8-3-4.8-5.6-8.9-7.7c-4.2-2.1-11.3-4.3-21.2-6.4
				c-4.4-0.9-7-1.9-8.3-3c-1.4-1.2-2.1-2.6-2.1-4.1c0-2,0.8-3.7,2.5-5.1c1.6-1.3,3.9-2,6.9-2c3.5,0,6.4,0.9,8.4,2.6
				c1.9,1.5,3.1,3.9,3.8,6.9l19.1-1.1c-1.1-6.6-3.8-11.5-8.1-14.5c-4.7-3.3-11.8-5-20.9-5c-7.5,0-13.5,0.9-17.7,2.8
				c-4.2,1.8-7.3,4.4-9.4,7.5c-2.1,3.2-3.1,6.6-3.1,10.1c0,5.5,2,9.8,6,13.3c4.1,3.6,11.1,6.5,20.9,8.7c6.4,1.4,10.4,2.9,12.3,4.6
				c2,1.8,3,3.8,3,6.1c0,2.4-1,4.5-3.1,6.3c-2,1.7-4.8,2.6-8.4,2.6c-4.8,0-8.5-1.7-11.1-5c-1.4-1.8-2.4-4.3-3-7.5L85.7,185.8z
				 M85.6,185.3L85.6,185.3C85.6,185.3,85.6,185.3,85.6,185.3z M128.6,156.1C128.6,156.1,128.6,156.2,128.6,156.1
				C128.6,156.2,128.6,156.1,128.6,156.1z"/>
		</g>
		<g>
			<path class="st0" d="M242.9,210.4h-22.3c-0.9,0-1.7-0.6-2-1.4l-3.3-10.8h-24.1l-3.2,10.8c-0.2,0.9-1.1,1.5-2,1.5h-21.7
				c-0.7,0-1.3-0.3-1.7-0.9c-0.4-0.6-0.5-1.3-0.2-1.9l27.3-72.6c0.3-0.8,1.1-1.3,1.9-1.3h23.9c0.9,0,1.6,0.5,1.9,1.3l27.3,72.6
				c0.2,0.6,0.1,1.3-0.2,1.9C244.2,210.1,243.6,210.4,242.9,210.4z M165,208.5L165,208.5C165,208.5,165,208.5,165,208.5z
				 M185.7,208.2C185.7,208.2,185.7,208.2,185.7,208.2L185.7,208.2z M221,207.8h21.2l-26.9-71.5h-23.2l-26.9,71.5h20.5L189,197
				c0.2-0.9,1.1-1.5,2-1.5h24.9c0.9,0,1.7,0.6,2,1.4L221,207.8z M191.4,197.8L191.4,197.8C191.4,197.8,191.4,197.8,191.4,197.8z
				 M210.6,182.1h-14.2c-0.7,0-1.3-0.3-1.6-0.8c-0.4-0.5-0.5-1.2-0.3-1.8l9-29.7l9.1,29.7c0.2,0.6,0.1,1.3-0.3,1.8
				C211.8,181.8,211.2,182.1,210.6,182.1z M197.1,179.5h12.8l-6.4-20.9L197.1,179.5z"/>
		</g>
		<g>
			<path class="st0" d="M329.4,210.4h-20.4c-0.7,0-1.3-0.3-1.7-0.9l-25.2-36.9v35.7c0,1.1-0.9,2.1-2.1,2.1h-20
				c-1.1,0-2.1-0.9-2.1-2.1v-72.6c0-1.1,0.9-2.1,2.1-2.1h20.2c0.7,0,1.3,0.3,1.7,0.9l25.3,37.2v-36c0-1.1,0.9-2.1,2.1-2.1h20.1
				c1.1,0,2.1,0.9,2.1,2.1v72.6C331.4,209.5,330.5,210.4,329.4,210.4z M309.2,207.8h19.6v-71.5h-19v37.2c0,0.9-0.6,1.7-1.5,2
				c-0.9,0.2-1.8-0.1-2.3-0.8l-26.1-38.4h-19.4v71.5h18.9v-36.9c0-0.9,0.6-1.7,1.5-2c0.9-0.3,1.8,0.1,2.3,0.8L309.2,207.8z"/>
		</g>
		<g>
			<path class="st0" d="M393.4,210.4H372c-1.1,0-2.1-0.9-2.1-2.1v-53.8h-21.3c-1.1,0-2.1-0.9-2.1-2.1v-16.8c0-1.1,0.9-2.1,2.1-2.1
				h68.1c1.1,0,2.1,0.9,2.1,2.1v16.8c0,1.1-0.9,2.1-2.1,2.1h-21.3v53.8C395.4,209.5,394.5,210.4,393.4,210.4z M372.5,207.8h20.3V154
				c0-1.1,0.9-2.1,2.1-2.1h21.3v-15.7h-67V152h21.3c1.1,0,2.1,0.9,2.1,2.1V207.8z"/>
		</g>
		<g>
			<path class="st0" d="M468.4,211.7c-8.5,0-15.7-1.4-21.3-4.1c-5.7-2.8-10.4-7.2-13.9-13.1c-3.5-5.9-5.3-13.4-5.3-22.3
				c0-12.4,3.5-22.2,10.5-29.2c7-7,16.7-10.5,29.1-10.5c12.6,0,22.5,3.5,29.4,10.3c6.9,6.8,10.4,16.5,10.4,28.7
				c0,8.8-1.5,16.2-4.5,21.9c-3,5.7-7.4,10.3-13.2,13.5C484,210,476.8,211.7,468.4,211.7z M467.5,135c-11.6,0-20.8,3.3-27.2,9.7
				c-6.5,6.5-9.7,15.7-9.7,27.3c0,8.4,1.7,15.4,4.9,21c3.3,5.5,7.6,9.6,12.8,12.1c5.3,2.6,12.1,3.9,20.2,3.9c8,0,14.7-1.5,20-4.5
				c5.3-2.9,9.3-7.1,12.1-12.4c2.8-5.3,4.2-12.3,4.2-20.7c0-11.5-3.2-20.6-9.6-26.9C488.7,138.2,479.4,135,467.5,135z M467.6,194.5
				c-5.2,0-9.3-1.8-12.3-5.4c-3-3.5-4.5-9.2-4.5-17c0-7.9,1.5-13.5,4.5-17.1c3-3.6,7.1-5.4,12.1-5.4c5.2,0,9.4,1.8,12.4,5.3
				c3,3.4,4.5,8.9,4.5,16.1c0,8.7-1.4,14.6-4.4,18.1C477.1,192.7,472.9,194.5,467.6,194.5z M467.4,152.4c-4.3,0-7.6,1.5-10.1,4.5
				c-2.6,3-3.9,8.2-3.9,15.4c0,7.1,1.3,12.3,3.9,15.3c2.5,3,5.9,4.4,10.4,4.4c4.6,0,8-1.4,10.4-4.3c2.5-2.9,3.7-8.5,3.7-16.4
				c0-6.6-1.3-11.5-3.9-14.4C475.3,153.8,471.9,152.4,467.4,152.4z"/>
		</g>
	</g>
	<g>
		<g>
			<path class="st0" d="M118.7,434.5c-12.9,0-22-2.6-27.1-7.7c-4.9-4.9-7.7-11.1-8.5-18.4l0,0c-0.1-0.6,0.1-1.1,0.5-1.6
				c0.4-0.4,0.9-0.7,1.5-0.8l22.2-1.4l0.2,1.2c0.4,3.3,1.3,5.8,2.6,7.5c2.1,2.7,5.1,4,9.1,4c2.9,0,5.2-0.7,6.7-2
				c1.5-1.3,2.2-2.7,2.2-4.4c0-1.6-0.7-2.9-2.1-4.2c-1-0.9-3.8-2.4-11.1-4c-10.2-2.3-17.6-5.4-22.1-9.3c-4.6-4-6.9-9.1-6.9-15.3
				c0-4,1.2-7.9,3.5-11.5c2.3-3.6,5.9-6.4,10.5-8.5c4.6-2,10.9-3,18.7-3c9.7,0,17.2,1.9,22.4,5.5c5.1,3.6,8.2,9.2,9.3,16.8
				c0.1,0.6-0.1,1.2-0.5,1.6c-0.4,0.5-0.9,0.7-1.5,0.8l-20.1,1.2c0,0-0.1,0-0.1,0c-1,0-1.8-0.7-2-1.7c-0.5-2.7-1.6-4.7-3-5.9
				c-1.6-1.3-3.9-2-6.8-2c-2.3,0-4.1,0.5-5.2,1.4c-1.1,0.9-1.6,1.9-1.6,3.1c0,0.8,0.4,1.5,1.2,2.2c0.5,0.5,2.1,1.4,7.1,2.4
				c10.1,2.2,17.4,4.4,21.8,6.7c4.5,2.3,7.9,5.2,10,8.7c2.1,3.5,3.1,7.4,3.1,11.6c0,5-1.4,9.6-4.2,13.9c-2.7,4.2-6.6,7.4-11.6,9.6
				C132.2,433.4,126,434.5,118.7,434.5z M85.7,408.6c0.8,6.5,3.4,12.1,7.7,16.4c4.6,4.6,13.1,6.9,25.3,6.9c7,0,12.8-1,17.3-3
				c4.5-2,8-4.9,10.5-8.7c2.5-3.8,3.7-8,3.7-12.4c0-3.8-0.9-7.3-2.8-10.3c-1.8-3.1-4.8-5.7-8.9-7.7c-4.2-2.1-11.3-4.3-21.2-6.4
				c-4.4-0.9-7-1.9-8.3-3c-1.4-1.2-2.1-2.6-2.1-4.1c0-2,0.8-3.7,2.5-5.1c1.6-1.3,3.9-2,6.9-2c3.5,0,6.4,0.9,8.4,2.6
				c1.9,1.5,3.1,3.8,3.8,6.9l19.1-1.1c-1.1-6.6-3.8-11.5-8.1-14.5c-4.7-3.3-11.8-5-20.9-5c-7.5,0-13.5,0.9-17.7,2.8
				c-4.2,1.8-7.3,4.4-9.4,7.5c-2.1,3.2-3.1,6.6-3.1,10.1c0,5.5,2,9.8,6,13.3c4.1,3.6,11.1,6.5,20.9,8.7c6.4,1.4,10.4,2.9,12.3,4.6
				c2,1.8,3,3.8,3,6.1c0,2.4-1,4.5-3.1,6.3c-2,1.7-4.8,2.6-8.4,2.6c-4.8,0-8.5-1.7-11.1-5c-1.4-1.8-2.4-4.3-3-7.5L85.7,408.6z
				 M85.6,408.1L85.6,408.1C85.6,408.1,85.6,408.1,85.6,408.1z M128.6,379C128.6,379,128.6,379,128.6,379
				C128.6,379,128.6,379,128.6,379z"/>
		</g>
		<g>
			<path class="st0" d="M242.9,433.2h-22.3c-0.9,0-1.7-0.6-2-1.4l-3.3-10.8h-24.1l-3.2,10.8c-0.2,0.9-1.1,1.5-2,1.5h-21.7
				c-0.7,0-1.3-0.3-1.7-0.9c-0.4-0.6-0.5-1.3-0.2-1.9l27.3-72.6c0.3-0.8,1.1-1.3,1.9-1.3h23.9c0.9,0,1.6,0.5,1.9,1.3l27.3,72.6
				c0.2,0.6,0.1,1.3-0.2,1.9C244.2,432.9,243.6,433.2,242.9,433.2z M165,431.4L165,431.4C165,431.4,165,431.4,165,431.4z M185.7,431
				C185.7,431,185.7,431,185.7,431L185.7,431z M221,430.7h21.1l-26.9-71.5h-23.2l-26.9,71.5h20.5l3.2-10.8c0.2-0.9,1.1-1.5,2-1.5
				h24.9c0.9,0,1.7,0.6,2,1.4L221,430.7z M191.4,420.6L191.4,420.6C191.4,420.6,191.4,420.6,191.4,420.6z M215.2,358.8
				C215.2,358.8,215.2,358.8,215.2,358.8L215.2,358.8z M192.2,358.8L192.2,358.8C192.2,358.8,192.2,358.8,192.2,358.8z M210.6,405
				h-14.2c-0.7,0-1.3-0.3-1.6-0.8c-0.4-0.5-0.5-1.2-0.3-1.8l9-29.7l9.1,29.7c0.2,0.6,0.1,1.3-0.3,1.8
				C211.8,404.7,211.2,405,210.6,405z M197.1,402.4h12.8l-6.4-20.9L197.1,402.4z"/>
		</g>
		<g>
			<path class="st0" d="M329.4,433.2h-20.4c-0.7,0-1.3-0.3-1.7-0.9l-25.2-36.9v35.7c0,1.1-0.9,2.1-2.1,2.1h-20
				c-1.1,0-2.1-0.9-2.1-2.1v-72.6c0-1.1,0.9-2.1,2.1-2.1h20.2c0.7,0,1.3,0.3,1.7,0.9l25.3,37.2v-36c0-1.1,0.9-2.1,2.1-2.1h20.1
				c1.1,0,2.1,0.9,2.1,2.1v72.6C331.4,432.3,330.5,433.2,329.4,433.2z M309.2,430.7h19.6v-71.5h-19v37.2c0,0.9-0.6,1.7-1.5,2
				c-0.9,0.3-1.8-0.1-2.3-0.8l-26.1-38.4h-19.4v71.5h18.9v-36.9c0-0.9,0.6-1.7,1.5-2c0.9-0.3,1.8,0.1,2.3,0.8L309.2,430.7z"/>
		</g>
		<g>
			<path class="st0" d="M393.4,433.2H372c-1.1,0-2.1-0.9-2.1-2.1v-53.8h-21.3c-1.1,0-2.1-0.9-2.1-2.1v-16.8c0-1.1,0.9-2.1,2.1-2.1
				h68.1c1.1,0,2.1,0.9,2.1,2.1v16.8c0,1.1-0.9,2.1-2.1,2.1h-21.3v53.8C395.4,432.3,394.5,433.2,393.4,433.2z M372.5,430.7h20.3
				v-53.8c0-1.1,0.9-2.1,2.1-2.1h21.3v-15.7h-67v15.7h21.3c1.1,0,2.1,0.9,2.1,2.1V430.7z"/>
		</g>
		<g>
			<path class="st0" d="M468.4,434.5c-8.5,0-15.7-1.4-21.3-4.1c-5.7-2.8-10.3-7.2-13.9-13.1c-3.5-5.9-5.3-13.4-5.3-22.3
				c0-12.4,3.5-22.2,10.5-29.2c7-7,16.7-10.5,29.1-10.5c12.6,0,22.5,3.5,29.4,10.3c6.9,6.8,10.4,16.5,10.4,28.7
				c0,8.8-1.5,16.2-4.5,21.9c-3,5.7-7.4,10.3-13.2,13.5C484,432.9,476.8,434.5,468.4,434.5z M467.5,357.9c-11.6,0-20.8,3.3-27.2,9.7
				c-6.5,6.5-9.7,15.7-9.7,27.3c0,8.4,1.7,15.4,4.9,21c3.3,5.5,7.6,9.6,12.8,12.1c5.3,2.6,12.1,3.9,20.2,3.9c8,0,14.7-1.5,20-4.5
				c5.3-2.9,9.3-7.1,12.1-12.4c2.8-5.3,4.2-12.3,4.2-20.7c0-11.5-3.2-20.6-9.6-26.9C488.7,361.1,479.4,357.9,467.5,357.9z
				 M467.6,417.4c-5.2,0-9.3-1.8-12.3-5.4c-3-3.5-4.5-9.2-4.5-17c0-7.8,1.5-13.6,4.5-17.1c3-3.6,7.1-5.4,12.1-5.4
				c5.2,0,9.4,1.8,12.4,5.3c3,3.5,4.5,8.9,4.5,16.1c0,8.7-1.4,14.6-4.4,18.1C477.1,415.6,472.9,417.4,467.6,417.4z M467.4,375.2
				c-4.3,0-7.6,1.5-10.1,4.5c-2.6,3-3.9,8.2-3.9,15.4c0,7.1,1.3,12.3,3.9,15.3c2.6,3,5.9,4.4,10.4,4.4c4.6,0,8-1.4,10.4-4.3
				c2.5-2.9,3.7-8.5,3.7-16.4c0-6.6-1.3-11.5-3.9-14.4C475.3,376.6,471.9,375.2,467.4,375.2z"/>
		</g>
	</g>
	<g>
		<g>
			<path class="st0" d="M118.7,536.6c-12.9,0-22-2.6-27.1-7.7c-4.9-4.9-7.7-11.1-8.5-18.4l0,0c-0.1-0.6,0.1-1.1,0.5-1.6
				c0.4-0.4,0.9-0.7,1.5-0.7l22.2-1.4l0.2,1.2c0.4,3.3,1.3,5.8,2.6,7.5c2.1,2.7,5.1,4,9.1,4c2.9,0,5.2-0.7,6.7-2
				c1.5-1.3,2.2-2.7,2.2-4.4c0-1.6-0.7-2.9-2.1-4.2c-1-0.9-3.8-2.4-11.1-4c-10.2-2.3-17.6-5.4-22.1-9.3c-4.6-4-6.9-9.1-6.9-15.3
				c0-4,1.2-7.9,3.5-11.5c2.3-3.6,5.9-6.4,10.5-8.5c4.6-2,10.9-3,18.7-3c9.7,0,17.2,1.9,22.4,5.5c5.1,3.6,8.2,9.2,9.3,16.8
				c0.1,0.6-0.1,1.2-0.5,1.6c-0.4,0.5-0.9,0.7-1.5,0.8l-20.1,1.2c0,0-0.1,0-0.1,0c-1,0-1.8-0.7-2-1.7c-0.5-2.7-1.6-4.6-3.1-5.9
				c-1.6-1.3-3.9-2-6.8-2c-2.3,0-4.1,0.5-5.2,1.4c-1.1,0.9-1.6,1.9-1.6,3.1c0,0.8,0.4,1.5,1.2,2.2c0.5,0.5,2.1,1.4,7.1,2.4
				c10.1,2.2,17.4,4.4,21.8,6.7c4.5,2.3,7.9,5.2,10,8.7c2.1,3.5,3.1,7.4,3.1,11.6c0,5-1.4,9.6-4.2,13.9c-2.8,4.2-6.6,7.4-11.6,9.6
				C132.2,535.5,126,536.6,118.7,536.6z M85.7,510.7c0.8,6.5,3.4,12.1,7.7,16.4c4.6,4.6,13.1,6.9,25.3,6.9c7,0,12.8-1,17.3-3
				c4.5-2,8-4.9,10.5-8.6c2.5-3.8,3.7-8,3.7-12.4c0-3.8-0.9-7.3-2.8-10.3c-1.8-3-4.8-5.6-8.9-7.7c-4.2-2.1-11.3-4.3-21.2-6.4
				c-4.4-0.9-7-1.9-8.3-3c-1.4-1.2-2.1-2.6-2.1-4.1c0-2,0.8-3.7,2.5-5.1c1.6-1.3,3.9-2,6.9-2c3.5,0,6.4,0.9,8.4,2.6
				c1.9,1.5,3.1,3.9,3.8,6.9l19.1-1.1c-1.1-6.6-3.8-11.5-8.1-14.5c-4.7-3.3-11.8-5-20.9-5c-7.5,0-13.5,0.9-17.7,2.8
				c-4.2,1.8-7.3,4.4-9.4,7.5c-2.1,3.2-3.1,6.6-3.1,10.1c0,5.5,2,9.8,6,13.3c4.1,3.6,11.1,6.5,20.9,8.7c6.4,1.4,10.4,2.9,12.3,4.6
				c2,1.8,3,3.8,3,6.1c0,2.4-1,4.5-3.1,6.3c-2,1.7-4.8,2.6-8.4,2.6c-4.8,0-8.5-1.7-11.1-5c-1.4-1.8-2.4-4.3-3-7.5L85.7,510.7z
				 M85.6,510.2L85.6,510.2C85.6,510.2,85.6,510.2,85.6,510.2z M128.6,481.1C128.6,481.1,128.6,481.1,128.6,481.1
				C128.6,481.1,128.6,481.1,128.6,481.1z"/>
		</g>
		<g>
			<path class="st0" d="M242.9,535.3h-22.3c-0.9,0-1.7-0.6-2-1.4l-3.3-10.8h-24.1l-3.2,10.8c-0.2,0.9-1.1,1.5-2,1.5h-21.7
				c-0.7,0-1.3-0.3-1.7-0.9c-0.4-0.6-0.5-1.3-0.2-1.9l27.3-72.6c0.3-0.8,1.1-1.3,1.9-1.3h23.9c0.9,0,1.6,0.5,1.9,1.3l27.3,72.6
				c0.2,0.6,0.1,1.3-0.2,1.9C244.2,535,243.6,535.3,242.9,535.3z M165,533.4L165,533.4C165,533.4,165,533.4,165,533.4z M185.7,533.1
				C185.7,533.1,185.7,533.1,185.7,533.1L185.7,533.1z M221,532.7h21.2l-26.9-71.5h-23.2l-26.9,71.5h20.5L189,522
				c0.2-0.9,1.1-1.5,2-1.5h24.9c0.9,0,1.7,0.6,2,1.4L221,532.7z M191.4,522.7L191.4,522.7C191.4,522.7,191.4,522.7,191.4,522.7z
				 M210.6,507h-14.2c-0.7,0-1.3-0.3-1.6-0.8c-0.4-0.5-0.5-1.2-0.3-1.8l9-29.7l9.1,29.7c0.2,0.6,0.1,1.3-0.3,1.8
				C211.8,506.7,211.2,507,210.6,507z M197.1,504.5h12.8l-6.4-20.9L197.1,504.5z"/>
		</g>
		<g>
			<path class="st0" d="M329.4,535.3h-20.4c-0.7,0-1.3-0.3-1.7-0.9l-25.2-36.9v35.7c0,1.1-0.9,2.1-2.1,2.1h-20
				c-1.1,0-2.1-0.9-2.1-2.1v-72.6c0-1.1,0.9-2.1,2.1-2.1h20.2c0.7,0,1.3,0.3,1.7,0.9l25.3,37.2v-36c0-1.1,0.9-2.1,2.1-2.1h20.1
				c1.1,0,2.1,0.9,2.1,2.1v72.6C331.4,534.4,330.5,535.3,329.4,535.3z M309.2,532.7h19.6v-71.5h-19v37.2c0,0.9-0.6,1.7-1.5,2
				c-0.9,0.2-1.8-0.1-2.3-0.8l-26.1-38.4h-19.4v71.5h18.9v-36.9c0-0.9,0.6-1.7,1.5-2c0.9-0.3,1.8,0.1,2.3,0.8L309.2,532.7z"/>
		</g>
		<g>
			<path class="st0" d="M393.4,535.3H372c-1.1,0-2.1-0.9-2.1-2.1v-53.8h-21.3c-1.1,0-2.1-0.9-2.1-2.1v-16.8c0-1.1,0.9-2.1,2.1-2.1
				h68.1c1.1,0,2.1,0.9,2.1,2.1v16.8c0,1.1-0.9,2.1-2.1,2.1h-21.3v53.8C395.4,534.4,394.5,535.3,393.4,535.3z M372.5,532.7h20.3V479
				c0-1.1,0.9-2.1,2.1-2.1h21.3v-15.7h-67v15.7h21.3c1.1,0,2.1,0.9,2.1,2.1V532.7z"/>
		</g>
		<g>
			<path class="st0" d="M468.4,536.6c-8.5,0-15.7-1.4-21.3-4.1c-5.7-2.8-10.4-7.2-13.9-13.1c-3.5-5.9-5.3-13.4-5.3-22.3
				c0-12.4,3.5-22.2,10.5-29.2c7-7,16.7-10.5,29.1-10.5c12.6,0,22.5,3.5,29.4,10.3c6.9,6.8,10.4,16.5,10.4,28.7
				c0,8.8-1.5,16.2-4.5,21.9c-3,5.7-7.4,10.3-13.2,13.5C484,535,476.8,536.6,468.4,536.6z M467.5,459.9c-11.6,0-20.8,3.3-27.2,9.7
				c-6.5,6.5-9.7,15.7-9.7,27.3c0,8.4,1.7,15.4,4.9,21c3.3,5.5,7.6,9.6,12.8,12.1c5.3,2.6,12.1,3.9,20.2,3.9c8,0,14.7-1.5,20-4.5
				c5.3-2.9,9.3-7.1,12.1-12.4c2.8-5.3,4.2-12.3,4.2-20.7c0-11.5-3.2-20.6-9.6-26.9C488.7,463.1,479.4,459.9,467.5,459.9z
				 M467.6,519.4c-5.2,0-9.3-1.8-12.3-5.4c-3-3.5-4.5-9.2-4.5-17c0-7.9,1.5-13.5,4.5-17.1c3-3.6,7.1-5.4,12.1-5.4
				c5.2,0,9.4,1.8,12.4,5.3c3,3.4,4.5,8.9,4.5,16.1c0,8.7-1.4,14.6-4.4,18.1C477.1,517.7,472.9,519.4,467.6,519.4z M467.4,477.3
				c-4.3,0-7.6,1.5-10.1,4.5c-2.6,3-3.9,8.2-3.9,15.4c0,7.1,1.3,12.3,3.9,15.3c2.5,3,5.9,4.4,10.4,4.4c4.6,0,8-1.4,10.4-4.3
				c2.5-2.9,3.7-8.5,3.7-16.4c0-6.6-1.3-11.5-3.9-14.4C475.3,478.7,471.9,477.3,467.4,477.3z"/>
		</g>
	</g>
	<g>
		<g>
			<path class="st0" d="M122.5,245.1h23.9V287c0,8.8-0.8,15.5-2.3,20.1c-1.6,4.6-4.7,8.5-9.4,11.7c-4.7,3.2-10.8,4.8-18.1,4.8
				c-7.8,0-13.8-1.1-18.1-3.2c-4.3-2.1-7.6-5.2-9.9-9.2c-2.3-4.1-3.7-9.1-4.1-15l22.8-3.1c0,3.4,0.3,5.9,0.9,7.6
				c0.6,1.6,1.5,3,2.8,4c0.9,0.7,2.2,1,3.9,1c2.7,0,4.6-1,5.9-3c1.2-2,1.9-5.3,1.9-10V245.1z"/>
		</g>
		<g>
			<path class="st0" d="M170.3,245.1h63.9v16.5h-40v12.3h37.1v15.7h-37.1v15.2h41.2v17.5h-65.1V245.1z"/>
		</g>
		<g>
			<path class="st0" d="M252.2,296.7l22.7-1.4c0.5,3.7,1.5,6.5,3,8.4c2.5,3.1,6,4.7,10.5,4.7c3.4,0,6-0.8,7.9-2.4
				c1.8-1.6,2.8-3.4,2.8-5.6c0-2-0.9-3.8-2.6-5.4c-1.8-1.6-5.8-3.1-12.2-4.5c-10.5-2.4-17.9-5.5-22.4-9.4c-4.5-3.9-6.7-8.9-6.7-14.9
				c0-4,1.1-7.7,3.4-11.2c2.3-3.5,5.8-6.3,10.4-8.3s10.9-3,19-3c9.9,0,17.4,1.8,22.6,5.5c5.2,3.7,8.3,9.5,9.2,17.5l-22.5,1.3
				c-0.6-3.5-1.9-6-3.8-7.6c-1.9-1.6-4.6-2.4-7.9-2.4c-2.8,0-4.9,0.6-6.3,1.8c-1.4,1.2-2.1,2.6-2.1,4.3c0,1.2,0.6,2.3,1.7,3.3
				c1.1,1,3.8,2,8,2.8c10.4,2.2,17.9,4.5,22.4,6.8c4.5,2.3,7.8,5.2,9.8,8.6c2.1,3.4,3.1,7.2,3.1,11.4c0,4.9-1.4,9.5-4.1,13.7
				c-2.7,4.2-6.6,7.3-11.5,9.5c-4.9,2.2-11.1,3.2-18.6,3.2c-13.1,0-22.2-2.5-27.3-7.6C255.7,310.9,252.8,304.5,252.2,296.7z"/>
		</g>
		<g>
			<path class="st0" d="M392.5,245.1h23.8v46c0,4.6-0.7,8.9-2.1,12.9c-1.4,4.1-3.6,7.6-6.7,10.6c-3,3-6.2,5.2-9.6,6.4
				c-4.6,1.7-10.2,2.6-16.7,2.6c-3.8,0-7.9-0.3-12.3-0.8c-4.4-0.5-8.2-1.6-11.1-3.1c-3-1.6-5.7-3.8-8.2-6.6
				c-2.5-2.9-4.2-5.8-5.1-8.9c-1.5-4.9-2.2-9.3-2.2-13v-46h23.8v47.1c0,4.2,1.2,7.5,3.5,9.9c2.3,2.4,5.6,3.6,9.7,3.6
				c4.1,0,7.3-1.2,9.7-3.5c2.3-2.3,3.5-5.6,3.5-9.9V245.1z M378.7,224.7h18.4l-17,15.7h-10.3L378.7,224.7z"/>
		</g>
		<g>
			<path class="st0" d="M436,296.7l22.7-1.4c0.5,3.7,1.5,6.5,3,8.4c2.5,3.1,6,4.7,10.5,4.7c3.4,0,6-0.8,7.9-2.4
				c1.8-1.6,2.8-3.4,2.8-5.6c0-2-0.9-3.8-2.6-5.4c-1.8-1.6-5.8-3.1-12.2-4.5c-10.5-2.4-17.9-5.5-22.4-9.4c-4.5-3.9-6.7-8.9-6.7-14.9
				c0-4,1.1-7.7,3.4-11.2c2.3-3.5,5.8-6.3,10.4-8.3s10.9-3,19-3c9.9,0,17.4,1.8,22.6,5.5c5.2,3.7,8.3,9.5,9.2,17.5l-22.5,1.3
				c-0.6-3.5-1.9-6-3.8-7.6c-1.9-1.6-4.6-2.4-7.9-2.4c-2.8,0-4.9,0.6-6.3,1.8c-1.4,1.2-2.1,2.6-2.1,4.3c0,1.2,0.6,2.3,1.7,3.3
				c1.1,1,3.8,2,8,2.8c10.4,2.2,17.9,4.5,22.4,6.8c4.5,2.3,7.8,5.2,9.8,8.6c2.1,3.4,3.1,7.2,3.1,11.4c0,4.9-1.4,9.5-4.1,13.7
				c-2.7,4.2-6.6,7.3-11.5,9.5c-4.9,2.2-11.1,3.2-18.6,3.2c-13.1,0-22.2-2.5-27.3-7.6C439.5,310.9,436.7,304.5,436,296.7z"/>
		</g>
	</g>
</g>
</svg>
