<?xml version="1.0" encoding="utf-8"?>
<!-- Generator: Adobe Illustrator 25.3.0, SVG Export Plug-In . SVG Version: 6.00 Build 0)  -->
<svg version="1.1" id="Capa_1" xmlns="http://www.w3.org/2000/svg" xmlns:xlink="http://www.w3.org/1999/xlink" x="0px" y="0px"
	 viewBox="0 0 566.9 566.9" style="enable-background:new 0 0 566.9 566.9;" xml:space="preserve">
<style type="text/css">
	.st0{fill:#020203;}
	.st1{fill:#E20E18;}
</style>
<polygon class="st0" points="175.4,220.9 132.1,220.9 132.1,182.2 100.9,182.2 100.9,220.9 57.6,220.9 57.6,252.2 100.9,252.2 
	100.9,384.7 132.1,384.7 132.1,252.2 175.4,252.2 "/>
<g>
	
		<rect x="266.2" y="210.2" transform="matrix(6.123234e-17 -1 1 6.123234e-17 15.4402 541.7341)" class="st0" width="24.7" height="105.8"/>
	
		<rect x="266.2" y="250.9" transform="matrix(6.123234e-17 -1 1 6.123234e-17 -25.1953 582.3696)" class="st0" width="24.7" height="105.8"/>
</g>
<g>
	<g>
		<path class="st1" d="M526.9,252c0-26.9-20.2-48.8-45.1-48.8c-18.3,0-34,11.8-41.1,28.7c-7.1-16.9-22.8-28.7-41.1-28.7
			c-24.9,0-45.1,21.9-45.1,48.8c0,5.7,0.9,11.1,2.6,16.2c1.9,5.8,4.7,11,8.4,15.6c1.5,1.9,3.2,3.8,5,5.4l68.8,73.9
			c0.4,0.5,1,0.7,1.5,0.7c0.6,0,1.1-0.2,1.5-0.7l71.4-76.7l0,0c4.6-5,8.3-11.1,10.5-17.9C525.9,263.3,526.9,257.8,526.9,252z"/>
	</g>
</g>
</svg>
