<?xml version="1.0" encoding="utf-8"?>
<!-- Generator: Adobe Illustrator 25.3.0, SVG Export Plug-In . SVG Version: 6.00 Build 0)  -->
<svg version="1.1" id="Layer_1" xmlns="http://www.w3.org/2000/svg" xmlns:xlink="http://www.w3.org/1999/xlink" x="0px" y="0px"
	 viewBox="0 0 841.89 1190.55" style="enable-background:new 0 0 841.89 1190.55;" xml:space="preserve">
<style type="text/css">
	.st0{fill:#020202;}
	.st1{fill:#FFFFFF;}
</style>
<g>
	<path d="M767.99,518.44c-54.2,14.44-108.4,28.88-162.6,43.32c1.51-1.32,2.97-2.76,4.37-4.29c10.1-11.02,16.36-26.06,18.78-45.1
		c0.4-3.17,0.61-6.27,0.61-9.29c0-10.57-2.97-20.32-8.89-29.23c-1.34-1.97-6.66-8.17-15.95-18.59c-5.38-6.04-7.75-11.18-7.07-15.41
		c0.4-2.87,1.82-5.59,4.24-8.16c2.42-2.57,5.46-3.85,9.09-3.85c3.76,0,7,0.99,9.69,2.94c2.69,1.97,5.38,4.84,8.07,8.62l5.26,8.16
		l7.47-53.94l-2.42-2.27c-2.43-2.12-6.5-4.04-12.22-5.78c-5.72-1.73-11.07-2.6-16.05-2.6c-14.41,0-27.2,6-38.37,18.01
		c-4.78,5.14-8.67,10.73-11.67,16.76l4.29-30.47l-44.74,0.02l-17.77,126.23c-0.54,4.53-1.99,8.23-4.36,11.09
		c-2.36,2.87-5.5,4.3-9.42,4.3c-3.11,0-5.47-1.16-7.09-3.5c-1.63-2.35-2.43-5.26-2.43-8.73c0-1.36,0.06-2.42,0.2-3.17l17.97-126.24
		h-45.03l-16.76,119.52c-0.81,5.88-1.21,11.47-1.21,16.75c0,17.66,4.57,31.01,13.73,40.07c8.08,8,19.18,11.99,33.31,11.99
		c18.71,0,33.52-5.58,44.43-16.74c6.45-6.57,11.66-15.14,15.61-25.68l-4.8,33.81l5.65,2.94c2.02,1.07,5.69,2.16,11.01,3.29
		c1.92,0.41,3.82,0.74,5.69,1c-2.31,0.62-4.62,1.24-6.92,1.85c-96.01,25.58-192.01,51.19-288.04,76.69
		c-21.68,5.76-43.66,8.8-66.11,5.35c-21.22-3.26-37.31-13.99-46.95-33.39c-6.68-13.43-7.48-27.86-5.61-42.49
		c2.08-16.46,7.43-31.96,14.34-46.97c3.24-7.04,6.92-13.84,10.47-20.89c-0.34,0.31-0.7,0.6-1.01,0.95
		c-17.25,19.01-34.44,38.07-50.03,58.5c-16.01,21-30.1,43.1-39.45,67.94c-7.12,18.92-11.53,38.27-9.39,58.7
		c2.02,19.3,11.02,34.79,25.92,46.81c14.8,11.95,32.38,16.3,51.01,17.02c18.96,0.73,37.47-2.4,55.77-7.04
		c23.09-5.84,45.11-14.63,66.93-24c166-71.24,332-142.46,498-213.7c0.74-0.32,1.74-0.35,2.17-1.48
		C769.06,518.21,768.52,518.3,767.99,518.44z M185.76,747.87c-0.13,0.51-0.64,0.25-0.97,0.25c-11.35,0.02-22.7,0.01-34.05,0.01
		h-33.83c-1.45,0-1.67-0.3-1.17-1.68c0.05-0.16,0.1-0.36,0.22-0.45c1.26-0.91,0.95-2.23,0.95-3.47c0-7.22-0.03-14.44,0-21.66
		c0.01-1-0.27-1.28-1.26-1.24c-1.99,0.08-3.99-0.01-5.98,0.04c-0.69,0.01-0.91-0.21-0.87-0.88c0.05-0.79,0.06-1.58,0-2.37
		s0.16-1.06,1.02-1.02c1.99,0.08,3.99-0.02,5.98,0.05c0.94,0.03,1.16-0.33,1.13-1.19c-0.06-1.65,0.01-3.3-0.03-4.95
		c-0.01-0.63,0.15-0.87,0.8-0.83c0.82,0.06,1.65,0.06,2.47,0c0.71-0.05,0.95,0.15,0.93,0.91c-0.06,1.71,0.02,3.44,0,5.15
		c-0.01,0.68,0.23,0.9,0.89,0.89c2.06-0.02,4.13,0.03,6.19-0.02c0.73-0.02,0.98,0.18,0.94,0.91c-0.05,0.82-0.04,1.65,0.01,2.47
		c0.05,0.7-0.25,0.87-0.9,0.86c-2.06-0.02-4.12,0.04-6.18-0.02c-0.81-0.02-0.98,0.28-0.97,1.01c0.06,7.43-0.11,14.86,0.08,22.29
		c0.04,1.26,0.03,1.26,1.21,0.8c0.38-0.15,0.76-0.32,1.16-0.43c2.46-0.67,4.49-1.94,6.07-4c1.43-1.87,3.6-2.26,5.8-2.48
		c0.95-0.09,1.91-0.2,2.87-0.21c0.9-0.01,1.23-0.3,1.23-1.27c-0.02-6.53,0.04-13.07,0.05-19.6c0.02-10.73,0-21.46,0.04-32.19
		c0-1-0.28-1.24-1.26-1.25c-5.19-0.06-10.39-0.06-15.58,0.03c-0.71,0.02-1.04-0.1-1.03-0.91c0.05-2.41,0.04-4.81,0.01-7.22
		c-0.01-0.74,0.29-0.91,0.98-0.91c5.23,0.01,10.45-0.03,15.68,0.01c0.99,0.01,1.18-0.31,1.17-1.22c-0.04-4.19,0.01-8.39-0.02-12.58
		c-0.01-0.75,0.17-1.02,0.97-1c2.37,0.05,4.74,0.06,7.11,0c0.89-0.02,1.18,0.19,1.17,1.13c-0.05,4.2,0.01,8.39-0.04,12.59
		c-0.01,0.88,0.26,1.08,1.1,1.07c5.05-0.02,10.11,0,15.16,0.02c1.56,0,1.57,0.02,1.58,1.53c0,2.06-0.06,4.13-0.01,6.19
		c0.03,0.99-0.21,1.34-1.3,1.32c-5.19-0.14-10.39-0.11-15.58-0.04c-0.74,0.01-1,0.16-0.99,0.97c0.15,17.37,0.15,34.73,0,52.1
		c-0.01,1.06,0.33,1.39,1.3,1.39c1.21,0,2.35,0.18,3.37,0.99c0.77,0.61,1.8,0.63,2.76,0.69c1.1,0.06,2.2,0.13,3.3,0.17
		c1.15,0.04,2.08,0.51,2.67,1.49c1.32,2.2,3.36,2.86,5.78,2.92c0.86,0.01,1.01-0.28,1.01-1.05c-0.03-5.5-0.01-11-0.01-16.5
		c0-3.06-0.04-6.13,0.01-9.19c0.01-0.79-0.25-0.99-1-0.98c-2.4,0.03-4.81-0.02-7.22,0c-0.75,0.01-1.13-0.17-1.06-1.04
		c0.08-0.89,0.06-1.79-0.01-2.68c-0.06-0.75,0.24-0.94,0.93-0.94c2.48,0.01,4.95-0.04,7.43-0.02c0.71,0,0.95-0.22,0.93-0.94
		c-0.04-1.93,0.01-3.85,0-5.78c0-0.68,0.21-0.98,0.96-0.93c1.06,0.07,2.13,0.06,3.2,0.02c0.65-0.03,0.82,0.21,0.81,0.82
		c-0.03,1.82-0.03,3.65,0,5.47c0.01,1.36,0.03,1.36,1.35,1.36c2.3-0.01,4.61,0.02,6.91-0.04c0.78-0.02,1.03,0.23,0.99,0.99
		c-0.05,0.93-0.04,1.86,0.01,2.79c0.03,0.7-0.19,0.95-0.93,0.94c-2.44-0.04-4.89,0.02-7.33-0.02c-0.73-0.01-1.02,0.13-1.01,0.95
		c0.02,8.7,0,17.4-0.01,26.1c0,0.47,0,0.97,0.58,1.04c2.59,0.34,4.75,2,7.33,2.39c0.95,0.14,1.87,0.43,2.81,0.63
		c0.27,0.06,0.53,0.13,0.73,0.35C185.59,747.08,185.86,747.47,185.76,747.87z M582.1,524.38c-2.3,3.78-6.46,6.05-12.52,6.8
		c-3.23,0.31-6.76-0.79-10.6-3.29c-3.84-2.48-7.04-5.78-9.6-9.85l-2.84-4.47c0.66-3.26,1.23-6.66,1.72-10.17l5.79-41.11
		c2.17,10.07,7.21,19.8,15.12,29.23c10.51,12.55,15.62,20.4,15.35,23.57C584.25,519.17,583.44,522.26,582.1,524.38z"/>
</g>
<g>
	<path d="M227.75,387.27l-17.16,121.96c-0.94,5.89-2.63,10.56-5.05,14.03c-2.42,3.47-5.72,5.2-9.89,5.2
		c-4.99,0-9.36-1.66-13.13-4.98c-1.48-1.51-2.76-3.25-3.83-5.22l-7.27,50.77l8.68,2.72c3.23,1.05,6.12,1.77,8.68,2.15
		c2.56,0.38,5.99,0.57,10.3,0.57c5.79,0,11.27-0.68,16.46-2.04c5.18-1.36,9.86-3.62,14.03-6.79c6.46-4.98,11.51-10.97,15.14-17.99
		c3.64-7.02,6.8-19.73,9.49-38.15l17.37-122.23H227.75z"/>
	<path d="M353.69,431.47l6.06-44.2h-81.78l-26.25,184.48h81.58l6.26-44.19H301.6l3.83-27.43h34.13l6.06-44.19h-33.93l3.64-24.47
		H353.69z"/>
	<path d="M405.76,431.69c2.42-2.56,5.45-3.85,9.08-3.85c3.77,0,7,0.98,9.7,2.95c2.69,1.96,5.38,4.83,8.07,8.61l5.25,8.16l7.47-53.94
		l-2.42-2.27c-2.42-2.11-6.5-4.04-12.22-5.78c-5.72-1.73-11.07-2.6-16.05-2.6c-14.4,0-27.19,6-38.36,18.01
		c-11.18,12.02-17.5,26.48-18.98,43.4c-0.14,1.52-0.21,3.63-0.21,6.35c0,14.2,5.46,27.8,16.36,40.79
		c10.5,12.54,15.61,20.4,15.35,23.57c-0.28,4.08-1.08,7.18-2.43,9.29c-2.29,3.78-6.46,6.05-12.52,6.8
		c-3.23,0.31-6.76-0.79-10.6-3.28c-3.83-2.5-7.03-5.78-9.59-9.86l-5.05-7.93l-8.07,56.88l5.65,2.95c2.02,1.05,5.68,2.15,11,3.28
		s10.47,1.7,15.45,1.7c16.96,0,30.76-5.81,41.4-17.45c10.09-11.03,16.35-26.06,18.77-45.1c0.41-3.17,0.61-6.27,0.61-9.29
		c0-10.57-2.96-20.32-8.88-29.23c-1.35-1.97-6.67-8.16-15.96-18.59c-5.38-6.04-7.74-11.18-7.06-15.41
		C401.92,436.98,403.33,434.26,405.76,431.69z"/>
</g>
<g>
	<path d="M460.85,749.02v-48.03h13v36.69h9.75v11.34H460.85z"/>
	<path d="M505.76,700.16c13.19,0,18.35,13.12,18.35,24.85c0,11.72-5.16,24.84-18.35,24.84c-13.19,0-18.35-13.12-18.35-24.84
		C487.41,713.28,492.57,700.16,505.76,700.16z M505.76,737.75c4.91,0,5.1-9.75,5.1-12.74c0-3-0.19-12.74-5.1-12.74
		s-5.1,9.75-5.1,12.74C500.66,728,500.85,737.75,505.76,737.75z"/>
	<path d="M568.75,749.02v-19.49h-6.18v19.49h-13v-48.03h13v17.2h6.18v-17.2h13v48.03H568.75z"/>
	<path d="M589.46,749.02v-48.03h13v48.03H589.46z"/>
	<path d="M607.74,749.02l13.12-30.52c0.89-2.1,2.36-4.4,3.7-6.56c-2.55,0.13-5.42,0.38-8.22,0.38h-5.73v-11.34h31.79l-14.21,32.87
		c-0.64,1.53-1.4,2.93-2.04,4.4c2.36-0.19,4.78-0.57,7.26-0.57h7.39v11.34H607.74z"/>
	<path d="M664.56,700.16c13.19,0,18.35,13.12,18.35,24.85c0,11.72-5.16,24.84-18.35,24.84c-13.19,0-18.35-13.12-18.35-24.84
		C646.21,713.28,651.37,700.16,664.56,700.16z M664.56,737.75c4.91,0,5.1-9.75,5.1-12.74c0-3-0.19-12.74-5.1-12.74
		s-5.1,9.75-5.1,12.74C659.46,728,659.66,737.75,664.56,737.75z"/>
	<path d="M687.68,742.33c0-3.89,3.25-7.2,7.01-7.2c4.14,0,7.58,3.12,7.58,7.39c0,4.01-3.31,7.2-7.33,7.2
		C690.87,749.72,687.68,746.41,687.68,742.33z"/>
	<path d="M706.92,742.33c0-3.89,3.25-7.2,7.01-7.2c4.14,0,7.58,3.12,7.58,7.39c0,4.01-3.31,7.2-7.33,7.2
		C710.11,749.72,706.92,746.41,706.92,742.33z"/>
	<path d="M726.16,742.33c0-3.89,3.25-7.2,7.01-7.2c4.14,0,7.58,3.12,7.58,7.39c0,4.01-3.31,7.2-7.33,7.2
		C729.34,749.72,726.16,746.41,726.16,742.33z"/>
</g>
</svg>
