<?xml version="1.0" encoding="utf-8"?>
<!-- Generator: Adobe Illustrator 25.3.0, SVG Export Plug-In . SVG Version: 6.00 Build 0)  -->
<svg version="1.1" id="Capa_1" xmlns="http://www.w3.org/2000/svg" xmlns:xlink="http://www.w3.org/1999/xlink" x="0px" y="0px"
	 viewBox="0 0 566.9 566.9" style="enable-background:new 0 0 566.9 566.9;" xml:space="preserve">
<style type="text/css">
	.st0{fill:#4A4D4D;}
	.st1{fill:#B05989;}
</style>
<g>
	<path class="st0" d="M109.8,166.1c0.4-0.5,0.8-0.9,1.3-1.4s0.9-0.9,1.3-1.3c0.4-0.4,0.6-0.9,0.6-1.3c0-0.3-0.1-0.5-0.3-0.7
		c-0.2-0.2-0.5-0.3-0.8-0.3c-0.3-0.1-0.6-0.1-0.9-0.1c-0.3,0-0.6,0-0.8,0c-0.7,0-1.3,0-2,0.1c-0.7,0-1.3,0.1-2,0.2
		c-0.9,0.2-1.9,0.5-3.1,0.9c-1.1,0.4-2.2,1-3.2,1.7c-1,0.7-1.8,1.5-2.5,2.4c-0.7,0.9-1,1.9-1,3c0,1.2,0.4,2.3,1.2,3.5
		c0.8,1.1,1.8,2.2,3,3.3c1.2,1.1,2.5,2.2,3.9,3.3c1.4,1.1,2.7,2.3,3.9,3.5c1.2,1.2,2.2,2.5,3,3.8c0.8,1.3,1.2,2.7,1.2,4.2
		c0,1.5-0.4,2.8-1.1,3.9c-0.7,1.1-1.6,2.1-2.8,2.8c-1.2,0.8-2.5,1.4-3.9,1.9c-1.5,0.5-3,0.9-4.5,1.2c-1.5,0.3-3,0.5-4.4,0.6
		c-1.4,0.1-2.7,0.2-3.8,0.2c-1,0-2-0.1-3.1-0.2c-0.2,0-0.6-0.1-1.1-0.1c-0.5,0-1-0.1-1.4-0.2c-0.5-0.1-0.9-0.2-1.3-0.5
		c-0.4-0.2-0.5-0.5-0.5-0.9c0-0.7,0.2-1,0.5-1.1c0.3-0.1,0.8-0.1,1.3-0.1c1,0,1.9,0.1,2.8,0.4c0.9,0.2,1.9,0.4,2.8,0.4
		c0.7,0,1.6,0,2.7-0.1c1.1-0.1,2.2-0.2,3.4-0.4s2.4-0.5,3.6-0.8c1.2-0.3,2.3-0.8,3.3-1.3c1-0.5,1.8-1.1,2.4-1.8
		c0.6-0.7,0.9-1.5,0.9-2.5c0-1.1-0.4-2.1-1.3-3.2c-0.9-1-1.9-2.1-3.2-3.2c-1.3-1.1-2.7-2.2-4.2-3.3c-1.5-1.1-2.9-2.3-4.2-3.6
		c-1.3-1.3-2.3-2.7-3.2-4.2c-0.9-1.5-1.3-3.1-1.3-4.8c0-1.5,0.3-2.8,1-4c0.7-1.1,1.6-2.1,2.7-2.9c1.1-0.8,2.4-1.5,3.9-2
		c1.4-0.5,2.9-0.9,4.4-1.2c1.5-0.3,3-0.5,4.4-0.6c1.5-0.1,2.8-0.2,3.9-0.2c0.5,0,1.2,0,1.9,0.1c0.7,0.1,1.4,0.2,2,0.5
		c0.7,0.2,1.2,0.6,1.6,1c0.4,0.4,0.7,1,0.7,1.8c0,0.7-0.2,1.4-0.5,2.1c-0.3,0.7-0.7,1.3-1.3,1.8c-0.3,0.3-0.6,0.6-1.1,0.9
		c-0.4,0.3-0.9,0.6-1.4,0.9c-0.5,0.3-1,0.5-1.5,0.7c-0.5,0.2-0.9,0.3-1.3,0.3c-0.4,0-0.8-0.1-1.1-0.4c-0.3-0.3-0.4-0.6-0.4-1
		C109.2,167,109.4,166.5,109.8,166.1z"/>
	<path class="st0" d="M119,188.7c0.5-1.8,1.2-3.4,2.1-5c0.9-1.5,2.1-2.8,3.4-3.9c1.3-1.1,2.9-1.6,4.6-1.6c1.1,0,2,0.2,2.7,0.8
		c0.7,0.5,1.2,1.1,1.6,1.9c0.4,0.8,0.7,1.6,0.9,2.5c0.2,0.9,0.3,1.8,0.3,2.7c0,1.3-0.1,2.5-0.3,3.8c-0.2,1.3-0.6,2.5-1.1,3.7
		c-0.5,1.2-1.1,2.3-1.9,3.3c-0.8,1-1.7,1.9-2.8,2.7c-0.7,0.4-1.4,0.8-2.1,1.1c-0.8,0.3-1.6,0.4-2.4,0.4c-1,0-1.9-0.2-2.6-0.7
		c-0.7-0.5-1.3-1.1-1.7-1.8c-0.4-0.7-0.7-1.6-0.9-2.5c-0.2-0.9-0.3-1.8-0.3-2.7C118.3,192.1,118.5,190.5,119,188.7z M126.2,183.4
		c-0.8,0.9-1.5,1.9-2.1,3.2c-0.6,1.2-1,2.5-1.3,3.8c-0.3,1.3-0.4,2.4-0.4,3.3c0,0.5,0,1,0.1,1.5c0.1,0.6,0.2,1.1,0.4,1.5
		c0.2,0.5,0.5,0.9,0.9,1.2c0.4,0.3,0.9,0.5,1.4,0.5c0.5,0,1-0.1,1.4-0.3c0.4-0.2,0.9-0.5,1.2-0.8c0.7-0.6,1.4-1.3,1.9-2
		c0.5-0.8,0.9-1.6,1.3-2.5c0.3-0.9,0.6-1.8,0.7-2.7c0.2-0.9,0.2-1.9,0.2-2.7c0-0.5,0-1-0.1-1.6c-0.1-0.6-0.2-1.2-0.5-1.7
		c-0.2-0.5-0.5-1-0.9-1.3c-0.4-0.4-0.9-0.5-1.5-0.5C128,182.1,127.1,182.5,126.2,183.4z"/>
	<path class="st0" d="M142.6,223.5c-0.6-0.4-1.1-0.8-1.5-1.4c-0.4-0.6-0.7-1.2-0.8-2c-0.2-0.8-0.3-1.5-0.3-2.3
		c0-1.9,0.5-3.8,1.5-5.7c1-1.9,2.3-3.7,3.8-5.3c1.5-1.7,3.2-3.2,4.9-4.6c1.7-1.4,3.4-2.6,4.9-3.6c0-0.5,0.1-1.1,0.1-1.6
		c0-0.6,0-1.1,0-1.7c0-3-0.1-5.9-0.2-8.9c-0.5,0.8-1.2,1.9-2.3,3.2c-1.1,1.3-2.3,2.6-3.6,3.9c-1.3,1.3-2.6,2.4-4,3.3
		c-1.3,0.9-2.5,1.4-3.4,1.4c-0.7,0-1.2-0.1-1.6-0.4c-0.4-0.3-0.7-0.7-1-1.1c-0.2-0.4-0.4-0.9-0.5-1.5c-0.1-0.6-0.1-1.1-0.1-1.6
		c0-1.7,0.2-3.5,0.6-5.2c0.4-1.8,0.9-3.5,1.4-5.1c0.1-0.4,0.2-0.8,0.3-1.1c0.1-0.4,0.2-0.7,0.4-1.1c0.2-0.5,0.5-0.8,0.9-1.2
		c0.3-0.3,0.8-0.5,1.3-0.5c0.7,0,1.2,0.2,1.7,0.7c0.5,0.5,0.7,1,0.7,1.7c0,0.5-0.1,1.1-0.5,1.8c-0.3,0.7-0.6,1.2-0.8,1.7
		c-0.2,0.5-0.4,1.2-0.7,2c-0.3,0.8-0.6,1.7-0.8,2.5c-0.3,0.9-0.5,1.7-0.6,2.5c-0.2,0.8-0.3,1.5-0.3,2c0,0.2,0,0.4,0.1,0.7
		c0,0.3,0.2,0.5,0.5,0.5c0.2,0,0.5-0.1,0.9-0.4c0.4-0.3,0.8-0.6,1.2-0.9c0.4-0.3,0.8-0.7,1.2-1c0.4-0.3,0.6-0.6,0.8-0.8
		c1.6-1.6,3-3.3,4.4-5.1c1.3-1.8,2.7-3.6,4.1-5.3c0.3-0.3,0.6-0.7,0.9-1c0.3-0.4,0.7-0.6,1.2-0.6c0.4,0,0.8,0.1,1.2,0.4
		c0.2,0.2,0.4,0.5,0.5,1.2c0.1,0.6,0.2,1.3,0.3,2c0.1,0.7,0.1,1.4,0.1,2c0,0.7,0,1.1,0,1.4c0,2.5,0,5.2-0.1,7.9
		c-0.1,2.7-0.3,5.4-0.7,8.1c-0.4,2.7-1,5.3-1.8,7.8c-0.8,2.5-1.9,4.9-3.3,7.1c-0.5,0.7-1,1.5-1.6,2.2c-0.6,0.7-1.3,1.3-2,1.9
		c-0.7,0.5-1.5,1-2.4,1.3c-0.8,0.3-1.7,0.5-2.7,0.5C143.9,224,143.2,223.8,142.6,223.5z M150.8,204.4c-1.4,1.2-2.8,2.6-4,4
		c-1.2,1.4-2.3,3-3.1,4.6c-0.8,1.6-1.2,3.3-1.2,5c0,0.3,0,0.7,0.1,1.2c0.1,0.4,0.2,0.8,0.3,1.2c0.2,0.4,0.4,0.7,0.7,0.9
		c0.3,0.2,0.7,0.4,1.1,0.4c0.5,0,0.9-0.1,1.4-0.3c0.4-0.2,0.9-0.5,1.3-0.9c0.4-0.3,0.8-0.7,1.1-1.1c0.3-0.4,0.7-0.8,0.9-1.1
		c0.8-1,1.5-2.2,2-3.7c0.6-1.4,1.1-3,1.6-4.5c0.4-1.6,0.8-3.1,1.1-4.7c0.3-1.6,0.5-3,0.6-4.2C153.6,202,152.3,203.1,150.8,204.4z"/>
</g>
<g>
	<path class="st1" d="M140.3,231.6c-2.9-4.2-6.5-7.7-10.8-10.7c-4.3-3-9-5.3-14.1-6.9c-5.1-1.6-9.9-2.4-14.5-2.4
		c-1.7,0-2.9,0.2-3.7,0.5c-0.7,0.3-1.4,1.3-2.1,3c-0.3,0.9-0.5,1.5-0.5,2.1c0,0.9,0.4,1.5,1.2,1.9c0.8,0.4,1.7,0.7,2.8,1
		c1.1,0.2,2.1,0.3,3.2,0.4s1.9,0.1,2.4,0.2c3.6,0.3,7.3,1.3,11.1,2.8c3.8,1.5,7.2,3.6,10.3,6.1c3.1,2.5,5.7,5.5,7.7,8.8
		c2,3.3,3,7,3,10.9c0,4.4-1.2,8.3-3.7,11.7c-2.5,3.4-5.5,6.4-9.2,8.9c-3.7,2.5-7.6,4.6-11.9,6.2c-4.3,1.6-8.2,2.9-11.8,3.7
		c0.6-6.4,1.5-12.8,2.6-19.1c1.2-6.3,2.6-12.5,4.3-18.7c0.3-0.9,0.6-2,1-3.3c0.4-1.2,0.8-2.5,1.2-3.9c0.4-1.3,0.7-2.6,1-3.9
		c0.3-1.2,0.4-2.3,0.4-3.1c0-1.7-0.5-2.9-1.5-3.5c-1-0.6-2.3-1-3.9-1c-0.6,0-1.2,0-1.8,0.1c-0.6,0.1-1.2,0.3-1.7,0.6
		c-0.8,0.4-1.5,1.2-2.1,2.3c-0.6,1.1-1.2,2.4-1.7,3.7c-0.5,1.4-0.9,2.7-1.3,4c-0.3,1.3-0.6,2.4-0.9,3.3c-1.6,6.3-3,12.2-4.1,17.9
		c-1.1,5.7-2,11.4-2.7,17c-0.7,5.7-1.2,11.4-1.4,17.2c-0.3,5.8-0.4,12-0.4,18.4c0,1.1,0.2,2.2,0.6,3.1c0.4,1,1.3,1.5,2.7,1.5
		c0.9,0,1.9-0.2,3-0.6c1.3-0.6,2.2-1.2,2.8-1.9c0.6-0.7,0.9-1.4,1.1-2.3c0.2-0.8,0.2-1.7,0.1-2.7c-0.1-1-0.1-2-0.1-3.1
		c0-1,0.1-2.4,0.2-4c0.1-1.6,0.3-3.3,0.5-5c0.2-1.7,0.4-3.4,0.7-4.9c0.3-1.6,0.6-2.8,0.9-3.8c4.5-0.8,9.5-2.2,14.8-4.3
		c5.3-2.1,10.2-4.8,14.8-8.1c4.6-3.3,8.3-7.2,11.4-11.6c3-4.4,4.6-9.3,4.6-14.6C144.6,240.4,143.1,235.8,140.3,231.6z"/>
	<path class="st1" d="M210.8,252.8c1.7,0,3.2-0.7,4.4-2.1c1.2-1.4,1.8-3,1.8-4.7c0-1.3-0.4-2.4-1.2-3.4c-0.8-1-1.9-1.5-3.3-1.5
		c-1.7,0-3.1,0.7-4.3,2.2c-1.2,1.5-1.7,3-1.7,4.6c0,1.3,0.4,2.4,1.2,3.4C208.3,252.3,209.4,252.8,210.8,252.8z"/>
	<path class="st1" d="M484.3,280.7c-0.9,0-1.7,0.4-2.2,1.1c-0.5,0.7-1,1.4-1.4,2.1c-0.8,1.2-1.9,2.8-3.5,4.8c-1.5,2-3.2,3.9-5,5.7
		c-1.8,1.8-3.6,3.4-5.5,4.8c-1.9,1.4-3.6,2.1-5.1,2.1c-1,0-1.8-0.5-2.4-1.6c-0.6-1.1-1-2.3-1.2-3.7c-0.3-1.4-0.4-2.8-0.5-4.2
		c0-1.4-0.1-2.4-0.1-3.1c0-2.2,0.1-4.6,0.4-7.1c0.3-2.5,0.8-4.9,1.5-7.1c0.3-0.9,0.8-2.2,1.4-3.7c0.6-1.5,0.9-2.8,0.9-3.7
		c0-0.9-0.3-1.4-1-1.7c-0.6-0.3-1.3-0.4-2-0.4c-1.2,0-2.1,0.4-2.8,1.2c-0.6,0.8-1.2,1.7-1.6,2.6c-0.4,0.9-1,2.2-1.9,3.9
		c-0.8,1.8-1.8,3.7-2.9,5.7c-1.1,2.1-2.3,4.2-3.5,6.4c-1.2,2.2-2.5,4.2-3.8,5.9c-1.3,1.8-2.5,3.2-3.7,4.4c-1.2,1.2-2.3,1.7-3.2,1.7
		c-0.8,0-1.2-0.4-1.4-1.2c-0.2-0.8-0.3-1.4-0.3-1.9c0-4.9,1-9.4,3-13.7c2-4.2,4.6-8.1,8-11.5c1.9-2,3.9-3.7,6-5.2
		c2.1-1.5,4.3-2.9,6.6-4.3c0.3-0.2,0.6-0.4,0.9-0.6c0.3-0.2,0.4-0.5,0.4-1c0-0.9-0.5-1.8-1.4-2.7c-0.9-0.9-1.9-1.3-2.8-1.3
		c-3.8,0-7.4,1.3-10.9,3.9c-3.5,2.6-6.6,5.8-9.3,9.6c-2.7,3.8-4.9,7.9-6.5,12.1c-0.8,2-1.3,3.9-1.7,5.7c0,0-0.1,0.1-0.1,0.1
		c-0.8,1.2-2,2.8-3.7,4.8c-1.7,2-3.6,4-5.7,5.9c-2.1,1.9-4.1,3.6-6.2,5c-2.1,1.4-3.9,2.1-5.4,2c1-1.5,1.8-3,2.2-4.8
		c0.5-1.7,0.7-3.4,0.7-5.1c0-2.7-0.4-5.4-1.3-8.1c-0.9-2.7-1.9-5.3-3.2-7.8c-1.3-2.5-2.6-5-4-7.5c-1.4-2.5-2.6-5-3.6-7.4
		c0.8-2,1.5-4.1,2.1-6.2c0.6-2.2,0.9-4.4,0.9-6.5c0-0.7-0.1-1.4-0.2-2.2c-0.1-0.8-0.3-1.5-0.6-2.2c-0.3-0.7-0.7-1.3-1.3-1.8
		c-0.6-0.5-1.2-0.7-2-0.7c-1.5,0-2.9,0.6-4.1,1.7c-1.2,1.1-2.2,2.4-3,4c-0.8,1.5-1.4,3.2-1.8,4.9c-0.4,1.7-0.6,3.2-0.6,4.5
		c0,2.3,0.4,4.6,1.2,6.8c-2.1,6.7-5.1,12.8-8.8,18.5c-0.1,0.2-0.3,0.5-0.4,0.7c-1.2,1.8-2.5,3.6-3.9,5.4c-0.1,0.1-0.1,0.1-0.1,0.2
		c-1.6,1.9-3.3,3.7-5.2,5.3c-2.1,1.7-4.3,3-6.7,4.1c-2.4,1.1-5,1.6-7.7,1.6c-3,0-5.1-0.8-6.4-2.5c-1.3-1.7-1.9-4-1.9-6.9
		c0-1.6,0.2-3.4,0.6-5.4c2-0.7,4.1-2,6.4-3.9c2.3-1.9,4.5-4.1,6.5-6.5c2-2.4,3.7-5,5-7.6c1.3-2.6,2-5,2-7.2c0-2.2-0.6-4.1-1.9-5.5
		c-1.2-1.5-3-2.2-5.3-2.2c-3.4,0-6.6,1.3-9.4,4c-2.9,2.7-5.3,5.9-7.4,9.7c-2.1,3.8-3.6,7.8-4.8,11.9c-0.5,1.8-0.8,3.5-1.1,5.1
		c-1.2,1.9-2.5,3.8-4.1,5.6c-1.8,2.2-3.9,4.1-6,5.8c-2.2,1.7-4.6,3-7.1,4c-2.6,1-5.3,1.5-8.1,1.5c-1.9,0-3.5-0.4-4.8-1.2
		c-1.3-0.8-2.4-1.8-3.2-3.1c-0.8-1.3-1.4-2.7-1.7-4.3c-0.3-1.6-0.5-3.2-0.5-4.8c0-1.9,0.3-4.4,1-7.6c0.7-3.2,1.7-6.3,3-9.4
		c1.3-3.1,2.9-5.7,4.8-8c1.9-2.2,4-3.3,6.4-3.3c1.5,0,2.3,0.5,2.6,1.6c0.3,1.1,0.4,2.2,0.4,3.4c0,1.9-0.4,3.6-1.2,5.1
		c-0.8,1.5-1.2,2.7-1.2,3.7c0,0.9,0.5,1.3,1.4,1.3c1.3,0,2.4-0.4,3.2-1.2c0.9-0.8,1.5-1.7,1.9-2.8c0.4-1.1,0.7-2.3,0.9-3.5
		c0.2-1.2,0.3-2.4,0.3-3.4c0-3.4-0.9-5.9-2.8-7.4c-1.8-1.5-4.4-2.3-7.6-2.3c-3.9,0-7.3,1.1-10.3,3.2c-3,2.1-5.5,4.8-7.6,8
		c-2.1,3.2-3.6,6.7-4.6,10.5c-0.6,2.4-1,4.7-1.3,6.9c-0.5,0.9-1.1,1.9-1.8,3c-1.3,2-2.7,3.9-4.4,5.7c-1.6,1.8-3.3,3.4-5.1,4.8
		c-1.8,1.3-3.5,2-5.2,2c-1,0-1.8-0.3-2.4-0.8c-0.6-0.5-1-1.2-1.2-1.9c-0.3-0.8-0.4-1.6-0.4-2.5c-0.1-0.9-0.1-1.7-0.1-2.5
		c0-3,0.1-6,0.3-9c0.2-3,0.3-6,0.3-9c0-0.9-0.1-2.1-0.1-3.5c-0.1-1.4-0.3-2.7-0.7-4.1c-0.4-1.4-1-2.5-1.7-3.5
		c-0.8-0.9-1.8-1.4-3.1-1.4c-1.6,0-3.5,0.9-5.7,2.8c-2.2,1.9-4.4,4.1-6.5,6.6c-2.1,2.5-4.1,5-6,7.6c-1.8,2.6-3.2,4.5-4.2,5.9
		c0.3-2.5,0.8-5,1.3-7.5c0.5-2.5,1.2-4.9,2.2-7.3c0.8-2.1,1.5-4.3,2.2-6.7c0.7-2.4,1.1-4.8,1.1-7c0-1.4-0.3-2.4-0.8-3.2
		c-0.6-0.8-1.6-1.2-3-1.2c-1.6,0-3.2,0.6-4.7,1.9c-1.5,1.3-2.4,2.7-2.8,4.2c-0.4,2-0.8,4-1.2,6c-0.3,2.1-0.7,4.1-1.2,6
		c-1,4.7-2,9.5-3,14.5c-0.8,1.2-1.8,2.7-3,4.5c-1.6,2.3-3.3,4.6-5.3,6.7c-1.9,2.2-3.9,4.1-5.9,5.7c-2,1.6-3.9,2.4-5.6,2.4
		c-1.1,0-2-0.5-2.6-1.4c-0.6-0.9-1.1-2.1-1.3-3.3c-0.3-1.3-0.5-2.6-0.5-3.9c0-1.3-0.1-2.3-0.1-3.1c0-3.9,0.4-7.8,1.2-11.4
		c0.3-0.9,0.6-2,1-3.3c0.4-1.2,0.9-2.5,1.3-3.7c0.4-1.2,0.8-2.4,1.1-3.6c0.3-1.2,0.5-2.2,0.5-3c0-1.9-1-2.8-3-2.8
		c-2.7,0-4.8,0.8-6.1,2.4c-1.3,1.6-2.4,3.5-3.1,5.8c-0.7,2.2-1.3,4.8-1.9,7.8c-0.4,2-0.6,3.8-0.7,5.5c-0.2,0.1-0.3,0.2-0.5,0.4
		c-0.6,0.7-1.1,1.4-1.5,2c-0.8,1.2-2,2.8-3.6,4.8c-1.6,2-3.4,4-5.3,6c-1.9,2-3.8,3.7-5.7,5.1c-1.9,1.5-3.6,2.2-5.1,2.2
		c-1.2,0-1.9-0.6-2.1-1.7c-0.2-1.2-0.3-2.2-0.3-3c0-3.1,0.3-6.1,0.8-9.1c0.5-3,1.1-6,1.8-9c0.4-1.9,0.6-3.6,0.6-5
		c0-2.8-0.6-5.1-1.8-6.7c-1.2-1.7-2.6-3.1-4.3-4.2c-1.7-1.2-3.4-2.2-5.1-3.2c-1.7-1-3.1-2.2-4.1-3.8c0.3-2.1,0.4-4.1,0.4-6.2
		c0-0.7-0.1-1.6-0.1-2.7c-0.1-1.1-0.3-2.2-0.6-3.3c-0.3-1.1-0.8-2-1.3-2.8c-0.5-0.8-1.2-1.2-2.2-1.2c-1.3,0-2.4,0.6-3.3,1.7
		c-1,1.1-1.7,2.4-2.4,4c-0.6,1.5-1.1,3.1-1.4,4.8c-0.3,1.6-0.4,3-0.4,4c0,2,0.3,3.9,0.8,5.7c0.5,1.9,1.4,3.5,2.6,5.1
		c-0.5,4.4-1.9,8.4-4,12.2c-2.2,3.8-4.5,7.5-7,11.1c-0.3,0.4-0.6,0.9-0.8,1.3c-0.2,0.5-0.3,1-0.3,1.5c0,1.1,0.6,1.7,1.7,1.7
		c0.7,0,1.3-0.2,1.9-0.6c0.6-0.4,1.1-0.9,1.5-1.3c1.5-1.5,2.8-3.1,4-5c1.2-1.9,2.3-3.9,3.3-5.9c1-2.1,1.9-4.1,2.8-6.2
		c0.8-2.1,1.6-4,2.2-5.9c1.9,0.6,3.6,1.5,5.2,2.8c1.6,1.3,2.4,3,2.4,5.1c0,2.4-0.1,4.8-0.3,7.1c-0.2,2.3-0.3,4.7-0.3,7.1
		c0,1.5,0.1,3.3,0.2,5.4c0.1,2.1,0.5,4,1.1,5.8c0.6,1.8,1.5,3.4,2.7,4.7c1.2,1.3,2.9,2,5,2c2.1,0,4.4-0.8,6.9-2.5
		c2.5-1.6,5-3.6,7.3-5.9c2.4-2.3,4.5-4.7,6.6-7.2c0.9-1.1,1.7-2.1,2.4-3.1c0,0.5,0.1,0.9,0.1,1.3c0.3,2.5,0.8,4.9,1.7,7.2
		c0.8,2.3,2,4.2,3.5,5.8c1.5,1.6,3.5,2.4,6.1,2.4c2.3,0,4.7-0.7,7.1-2.2c2.4-1.5,4.7-3.3,7-5.5c2.3-2.1,4.3-4.4,6.2-6.7
		c0.1-0.1,0.2-0.2,0.3-0.4c-0.6,4.6-1.1,9-1.1,13.4c0,0.9,0.2,1.6,0.6,2.2c0.4,0.6,1.1,1,2.1,1c1.2,0,2.2-0.4,3.1-1.3
		c0.9-0.8,1.6-1.8,2.1-2.8c1.5-3.3,3-6.4,4.5-9.6c1.5-3.1,3.3-6.2,5.1-9.2c1.5-2.5,3.3-5.1,5.1-7.8c1.9-2.8,3.9-5.1,6-7.2
		c0.3-0.3,0.8-0.8,1.4-1.3c0.6-0.5,1.1-0.8,1.5-0.8c0.5,0,0.8,0.3,1,1c0.1,0.7,0.2,1.2,0.2,1.5c0,2.5-0.1,4.9-0.3,7.3
		c-0.2,2.4-0.3,4.8-0.3,7.3c0,1.6,0.1,3.4,0.2,5.4c0.1,2,0.5,3.8,1.2,5.5c0.6,1.7,1.6,3.1,2.8,4.3c1.2,1.2,3,1.7,5.2,1.7
		c2.4,0,4.9-0.8,7.4-2.3c2.5-1.5,4.9-3.4,7.2-5.6c1.7-1.6,3.2-3.4,4.5-5.2c0.1,1,0.3,2,0.5,3c0.6,2.6,1.6,4.9,3,7
		c1.4,2.1,3.1,3.8,5.2,5.1c2.1,1.3,4.6,2,7.5,2c3.8,0,7.4-0.6,10.9-1.9c3.5-1.2,6.8-2.9,9.8-5.1c3-2.1,5.7-4.7,8.2-7.5
		c0.2-0.2,0.4-0.5,0.6-0.7c0.1,1.1,0.3,2.1,0.6,3.2c0.5,2.1,1.3,3.9,2.5,5.5c1.2,1.6,2.6,2.9,4.4,3.9c1.8,1,4,1.5,6.6,1.5
		c3.5,0,6.9-0.6,10.1-1.8c3.3-1.2,6.3-2.8,9.1-4.8c2.8-2,5.4-4.3,7.8-7c0.5-0.5,0.9-1.1,1.3-1.7c0.6-0.7,1.2-1.4,1.8-2.3
		c0.1-0.1,0.1-0.2,0.2-0.3c0.3-0.4,0.5-0.7,0.8-1.1c0.5-0.7,0.9-1.6,1.4-2.3c0.1-0.3,0.3-0.5,0.5-0.8c0.1-0.1,0.1-0.2,0.2-0.3
		c0.5-0.8,1-1.6,1.5-2.5c1.1-2.1,2.1-4.1,3-6.2c0.9-2.1,1.6-4,2.2-5.7c1,1.5,2.1,3.4,3.1,5.5c1.1,2.1,2,4.3,2.9,6.5
		c0.9,2.2,1.6,4.5,2.1,6.7c0.6,2.2,0.8,4.3,0.8,6.3c0,3.3-0.9,5.9-2.6,8c-1.8,2.1-4.4,3.1-7.8,3.1c-1.7,0-3.3-0.2-4.8-0.5
		c-1.5-0.3-2.9-1-4.4-1.9c-0.4-0.3-0.8-0.5-1.1-0.6c-0.3-0.2-0.7-0.3-1.2-0.3c-1.4,0-2.1,0.6-2.1,1.9c0,0.6,0.1,1.1,0.4,1.5
		c0.3,0.4,0.6,0.9,1,1.3c1.9,1.8,4.3,3,7.1,3.5c2.9,0.5,5.6,0.8,8,0.8c4.6,0,8.9-0.5,12.7-1.6c3.8-1.1,7.3-2.6,10.4-4.7
		c3.1-2.1,6-4.6,8.7-7.6c0.9-1,1.8-2.2,2.7-3.3c0,0.4,0,0.6,0.1,1c0.2,1.5,0.6,3,1.2,4.4c0.6,1.4,1.3,2.5,2.4,3.5
		c1,0.9,2.3,1.4,3.9,1.4c1.7,0,3.5-0.6,5.2-1.9c1.8-1.3,3.5-2.8,5.1-4.6c1.6-1.8,3.1-3.7,4.4-5.6c1.3-1.9,2.4-3.5,3.3-4.8
		c-0.1,1.5-0.1,3.5,0.1,5.7c0.2,2.3,0.6,4.5,1.3,6.5c0.7,2.1,1.7,3.9,3,5.4c1.3,1.5,3,2.2,5.1,2.2c2.2,0,4.5-0.6,6.7-1.9
		c2.3-1.3,4.4-2.9,6.4-4.8c2-1.9,3.9-3.9,5.6-6c1.7-2.1,3.2-4,4.4-5.7c0.4-0.7,1-1.5,1.7-2.6c0.7-1,1.1-1.9,1.1-2.7
		C486.4,281.5,485.7,280.7,484.3,280.7z M347.4,274.5c0.8-2.5,1.7-4.9,2.8-7.4c1.1-2.5,2.3-4.6,3.6-6.5c1.3-1.9,2.6-2.8,3.9-2.8
		c0.9,0,1.4,0.3,1.7,1c0.3,0.6,0.4,1.3,0.4,2c0,1.7-0.5,3.5-1.4,5.4c-0.9,1.9-2.1,3.7-3.5,5.4c-1.4,1.8-2.9,3.4-4.5,4.8
		c-1.6,1.4-3.1,2.6-4.5,3.4C346.2,278.8,346.7,277,347.4,274.5z"/>
</g>
<g>
	<path class="st0" d="M273.1,385.1v-11.6h17.5v72.4l-27.2,0l-7.5-10.7v-39.3l7.5-10.7H273.1z M288.2,433.1v-57.4h-12.6v11.9h-10.7
		l-6.6,9.5v24.4l8.2,11.6H288.2z M271,399.5h4.6v22.1H271V399.5z"/>
	<path class="st0" d="M293.3,445.8v-49.9l7.5-10.7H328v49.9l-7.5,10.7H293.3z M325.6,416.3v-28.9h-23.5l-6.5,9.2v36.4h21.7l8.2-11.7
		v-3h-12.6v3.1h-4.7v-5.1H325.6z M308.4,404.7v-5.1h4.7v5.1H308.4z"/>
	<path class="st0" d="M391.4,435.1l-7.5,10.7h-27.2l0-72.4h27.2l7.5,10.7V435.1z M380.8,433.1l8.2-11.7v-36.3l-6.5-9.4h-23.4v57.4
		H380.8z M371.7,387.4h4.7v34h-4.7V387.4z"/>
	<path class="st0" d="M394.1,373.4h17.5v72.4h-17.5V373.4z M409.2,382.6v-6.9h-12.7v6.9H409.2z M396.5,433.1h12.7v-45.5h-12.7V433.1
		z"/>
	<path class="st0" d="M414.3,445.8v-50.2l7.5-10.7H449v50.2l-7.5,10.7H414.3z M446.6,387.1h-23.5l-6.5,9.2v36.8h21.7l8.2-11.7V387.1
		z M429.4,399.5h4.6v22.1h-4.6V399.5z"/>
	<path class="st0" d="M451.7,445.8v-49.9l7.5-10.7h27.2v49.9l-7.5,10.7H451.7z M471.5,416v5.5h-17.4v11.6h21.7l8.2-11.7v-17h-17.3
		v-5.5h17.3v-11.4h-23.5l-6.5,9.2V416H471.5z"/>
</g>
<path class="st0" d="M206.6,319.7c103.8-12.6,246.9-6.3,246.9-6.3c12.6,0.1,23.6,8.6,26.9,20.8l6.1,22.9
	c-207.6-53.2-405.9,7.4-405.9,7.4S139.3,327.8,206.6,319.7z"/>
</svg>
