<?xml version="1.0" encoding="utf-8"?>
<!-- Generator: Adobe Illustrator 25.3.0, SVG Export Plug-In . SVG Version: 6.00 Build 0)  -->
<svg version="1.1" id="Capa_1" xmlns="http://www.w3.org/2000/svg" xmlns:xlink="http://www.w3.org/1999/xlink" x="0px" y="0px"
	 viewBox="0 0 566.9 566.9" style="enable-background:new 0 0 566.9 566.9;" xml:space="preserve">
<style type="text/css">
	.st0{fill:#9F1915;}
</style>
<g>
	<g>
		<path class="st0" d="M112,331.1c-1.1-1.2-2.3-1.7-3.8-1.9c-1.4-0.3-2.8-0.3-4.3-0.3h-67v-3.4c5.5,0.1,7.4-4.1,7.4-13.5v-55.1
			c0-9.5-1.9-13.7-7.4-13.5V240h61.3c3.4,0,8.8,0.6,11.3-2.1l6.9,31.1l-3,1c-3.9-13.1-15.5-20.9-29-20.9c-13.2,0-12.4,5-12.4,15.8
			v4.3h4.3c8.9,0,17.8,0.9,17.7-10.9l2.7-0.4l5.9,34.3l-2.7,0.3c-1.5-3.8-3.7-7.3-6.6-10c-5.3-4.9-10.9-4.3-17.7-4.3h-3.7v29.3
			c0,9.2,2.4,12.7,13.1,12.7c17.3,0,28.4-10.4,35.5-25.1l2.8,1.1L112,331.1z"/>
		<path class="st0" d="M181.2,257.8l-2,0.3c-2.6-6.8-10.1-12.8-17.5-12.8c-4.6,0-10.5,2.1-10.2,7.4c0,4.7,6.2,6.1,9.7,7.1l10.9,3.3
			c8.5,2.5,15.5,8.8,15.5,16.6c0,15.5-11.7,22.5-30.8,22.5c-4.8,0-8.4-0.6-13-1.4c-1.8-0.4-4.4-0.9-6.1-0.9c-2.1,0-3.6,0.8-5,2.2
			l-2-26l2-0.3c1.8,10.8,10.6,18.9,21.7,18.9c6.3,0,13.6-1.5,13.6-9.2c0-5.1-5.7-6.4-9.6-7.7l-9.4-3.1c-3.5-1.1-7.9-2.7-10.8-5
			c-3.4-2.7-5.5-7-5.5-11.3c0-16.8,15.4-20.5,23.5-20.5c9.5,0,15.1,2,17,2c1.9,0,4.5-0.7,5.8-2.2L181.2,257.8z"/>
		<path class="st0" d="M198.6,251c0-6.5-1.1-9.4-4.9-9.3v-2.3h39c3.8,0,10.1,0,13.5,1.1c4.3,1.3,7.3,4.6,7.3,9.3
			c0,14.4-24.9,20-35.8,22.7V289c0,6.5,1.9,9.4,5.7,9.3v2.3h-29.7v-2.3c3.8,0.1,4.9-2.8,4.9-9.3V251z M217.7,265.8
			c6.3-1.4,16-5.2,16-12.9c0-5.4-4.7-7.3-9.4-7.3c-6.3,0-6.6,2.4-6.6,7.8V265.8z"/>
		<path class="st0" d="M282.7,289c0,6.5,1.3,9.4,5.1,9.3v2.3h-29.3v-2.3c3.8,0.1,5.1-2.8,5.1-9.3v-38c0-6.5-1.3-9.4-5.1-9.3v-2.3
			h29.3v2.3c-3.8-0.1-5.1,2.8-5.1,9.3V289z"/>
		<path class="st0" d="M298.7,251c0-6.5-1.3-9.4-5.1-9.3v-2.3h41.9c3.8,0.1,7.9,0.1,11.5,1.5c3.3,1.5,5.4,4.2,5.4,7.9
			c0,7.7-7.1,12.8-13.2,16c6.9,6.6,12.3,15.9,15.6,25.9c1,3.3,2.9,7.6,7,7.6v2.3h-31.3v-2.3c2.1-0.1,3.8-0.6,3.8-3.1
			c0-5.7-9.3-19.1-13.2-23.7l-3.3,1.1V289c0,6.5,1.3,9.4,5.1,9.3v2.3h-29.3v-2.3c3.8,0.1,5.1-2.8,5.1-9.3V251z M324.8,245.5
			c-1.9,0-4.8,0.4-6.2,1.8c-1,1.1-0.8,3.4-0.8,4.8v13.8c6.3-1.6,14.9-5.3,14.9-13.2C332.6,247.9,329.4,245.5,324.8,245.5z"/>
		<path class="st0" d="M388.1,289c0,6.5,1.3,9.4,5.1,9.3v2.3h-29.3v-2.3c3.8,0.1,5.1-2.8,5.1-9.3v-38c0-6.5-1.3-9.4-5.1-9.3v-2.3
			h29.3v2.3c-3.8-0.1-5.1,2.8-5.1,9.3V289z"/>
		<path class="st0" d="M435.3,288.6c0,6.7,1.3,9.7,7.4,9.8v2.3h-33.8v-2.3c6.1-0.1,7.4-3.1,7.4-9.8v-42.4
			c-8.8,0.2-15.3,4.8-17.5,13.3l-2-0.4l4.6-21.2c0.6,1,2,1.4,3.4,1.5c1.5,0.1,3.1,0,4,0h33.4c2,0,6.9,0.5,8.3-1.5l4.3,21.2l-1.9,0.4
			c-3.2-8.3-8.4-12.8-17.5-13.3V288.6z"/>
		<path class="st0" d="M458.6,239.4h44v3.4c-7.7,0.9-8.3,5.7-8.8,12.8l-2.4,39c-0.5,8.3,0.1,13,2.4,17c3.7,6,10.7,8,16.2,8
			c7.2,0,14.9-3.4,17.4-9.5c2.3-5.6,2.7-11.8,2.2-21.6l-1.8-32.9c-0.4-7.2-1-12.1-9-12.8v-3.4h27.6v3.4c-7.9,0.8-7.9,5.6-7.5,12.8
			l2,39.8c0.5,10.3-1.1,19.6-9,26.2c-9.5,8.2-22.4,9.5-30,9.5c-4.2,0-20.4-0.5-28.8-7.2c-8.8-7.1-10.3-14.4-9.7-27.9l2.3-40.5
			c0.4-7.2,0.4-11.7-7.2-12.8V239.4z"/>
	</g>
	<g>
		<path class="st0" d="M195.8,335.8l-1.6,0.3c-2.2-6.8-8.3-12.8-14.5-12.8c-3.8,0-8.7,2.1-8.5,7.4c0,4.7,5.2,6.1,8,7.1l9,3.3
			c7,2.5,12.8,8.8,12.8,16.6c0,15.5-9.7,22.6-25.5,22.6c-3.9,0-6.9-0.6-10.8-1.4c-1.5-0.4-3.6-0.9-5.1-0.9c-1.8,0-3,0.8-4.2,2.2
			l-1.7-26l1.7-0.3c1.5,10.8,8.8,18.9,18,18.9c5.2,0,11.3-1.5,11.3-9.2c0-5.1-4.7-6.4-7.9-7.7l-7.8-3.1c-2.9-1.1-6.6-2.7-8.9-5
			c-2.8-2.7-4.6-7-4.6-11.3c0-16.8,12.7-20.5,19.4-20.5c7.9,0,12.5,2,14.1,2c1.5,0,3.7-0.7,4.8-2.2L195.8,335.8z"/>
		<path class="st0" d="M219,364.7c-0.5,2-1.5,5.5-1.5,7.6c0,2.9,1.5,3.8,3.6,4.1v2.3h-17v-2.3c4.2-1.1,5.8-6.3,7.3-10.6l12.1-38.7
			c0.4-1.1,1.3-3.7,1.3-5c0-1.4-0.6-2.1-1.7-2.3v-2.3h22.5v2.3c-1.2,0.2-1.8,0.7-1.8,2.3c0,1.2,6.7,24.8,12,43.9
			c1.2,3.9,2.3,10,6.4,10.5v2.3h-26.6v-2.3c2.5-0.2,4.2-2.2,4.2-5.4c0-4.6-3.5-9.2-6.5-11.7c-3.6-3-7.3-4.4-11.7-4.1L219,364.7z
			 M229,329.7l-4.9,17.5c3.9-0.1,7.6,2,10.7,4.6L229,329.7z"/>
		<path class="st0" d="M312.2,366.9c0,6.5,1.1,9.4,4.2,9.3v2.3h-15.5v-2.2c2.5-0.5,3.9-2.2,3.9-5.3c0-4.5-2.2-7.6-4.5-10.7
			l-22.9-31.9V367c0,6.5,1,9.4,4.2,9.3v2.3h-15v-2.3c3.2,0.1,4.2-2.8,4.2-9.3V329c0-6.5-1.1-9.4-4.2-9.3v-2.3h29.5v2.3
			c-1.1,0.4-2,1-2,2.5c0,2,2.1,4.6,3.1,6l8.5,12.6V329c0-6.5-1.5-9.4-4.7-9.3v-2.3h15.5v2.3c-3.2-0.1-4.2,2.8-4.2,9.3V366.9z"/>
		<path class="st0" d="M350.8,366.6c0,6.7,1.1,9.7,6.1,9.8v2.3h-28v-2.3c5-0.1,6.1-3.1,6.1-9.8v-42.5c-7.3,0.2-12.7,4.9-14.5,13.3
			l-1.6-0.4l3.8-21.3c0.5,1,1.6,1.4,2.8,1.5c1.2,0.1,2.5,0,3.3,0h27.7c1.7,0,5.7,0.5,6.9-1.5l3.5,21.3l-1.5,0.4
			c-2.6-8.3-6.9-12.8-14.5-13.3V366.6z"/>
		<path class="st0" d="M379.8,372c-5.6-6.2-8.1-15.2-8.1-24.2c0-20.1,12.6-32,28.5-32c6.9,0,14.7,2.1,19.9,8
			c5.6,6.2,8.1,15.6,8.1,24.6c0,8.4-2.5,17.3-7.6,23c-5.2,5.9-13.3,8.7-20.4,8.7C393.1,380.2,385.1,377.8,379.8,372z M409.7,364.1
			c1.2-3.7,1.5-8.3,1.5-12.3c0-5.8-0.5-12-2.2-17.4c-1.7-5.1-5.3-10.6-10.3-10.6c-4,0-6.8,3.8-8.3,7.9c-1.4,3.8-1.8,8.6-1.8,12.7
			c0,5.8,0.6,12.1,2.4,17.5c1.7,5.1,5.2,10.4,10.1,10.4C405.3,372.2,408.3,368.6,409.7,364.1z"/>
	</g>
	<rect x="37.2" y="221.5" class="st0" width="199.1" height="6.1"/>
	<rect x="351" y="221.5" class="st0" width="195" height="6.1"/>
	<rect x="37.2" y="341.2" class="st0" width="87.9" height="6.1"/>
	<rect x="459.2" y="341.2" class="st0" width="86.8" height="6.1"/>
	<path class="st0" d="M326,210.8c12-9.5,11.2-17,9.7-23.2c-0.4,0.1-11.4,5.7-10.2,3.4c5.5-9.9,10.2-15.2,10.9-26.8
		c0,0-24.8,11.8-34.4,8.8c-4.6-1.7-0.2-8.8-1.9-8.8c-10,14-24.5,0-34.2,15.8c-4.2,6.8-3.7-2.2-10.1-6.1c-0.6,12.6-4.4,9.7-7.6,16.1
		c-2,4.6-3.5,7.6-2.7,12.8c1.6,10.9,13.5,2.1,19.1,12c3.1,5.4-5.1,14.8-4.9,20.8c9.4-2.3,11.4-5.2,18.3-6.3
		c3.7-0.6,7.7-0.5,11.7,1.1c3.7,1.5,19,12.6,26.4,1.7c5.8-8.6,17.8-16.7,17.8-16.7C336.3,213.9,322,214,326,210.8z M294,208.9
		c-0.1-3.3,4.7-6.7,5.1-9.8c1.1-7-0.8-8.2-8.1-3.6c-1.5,0.9-5,4.9-6.4,6.1c-3.2,2.7-9.1,5.3-12.7,1.9c-4.9-4.7-5-26.8,11.4-26.5
		c1.7,0-2.3,8.2-1.4,8.4c0,0,7.1-6.1,9.1-7c7.3-3.2,15.7,2.3,27.8-3.6c3.3-1.6,8.2-0.1,7.1,2.4c0.2,1-1.9,4.3-2.9,5.3
		c-2.3,2.4-7.2,13.5-5.7,13.6c0,0,5.8-0.6,8.5-0.4c3.2,0.1,7.4,1.9-2.8,10.8C317.6,211.2,294.5,223.6,294,208.9z"/>
</g>
</svg>
