<?xml version="1.0" encoding="utf-8"?>
<!-- Generator: Adobe Illustrator 25.3.0, SVG Export Plug-In . SVG Version: 6.00 Build 0)  -->
<svg version="1.1" id="Capa_1" xmlns="http://www.w3.org/2000/svg" xmlns:xlink="http://www.w3.org/1999/xlink" x="0px" y="0px"
	 viewBox="0 0 566.9 566.9" style="enable-background:new 0 0 566.9 566.9;" xml:space="preserve">
<style type="text/css">
	.st0{fill:#048A38;}
	.st1{fill:#0C8A38;}
	.st2{fill:#FFFFFF;}
</style>
<g>
	<g>
		<g>
			<path class="st0" d="M160,176.9l-8.4,26.1c-0.5,2.7-0.8,4.9-1.1,6.7c-0.2,1.8-0.5,3.1-0.8,4.1c-0.6,2.2-2,4-4,5.1
				c-2,1.2-4.2,2.1-6.5,2.6c-2.3,0.6-4.6,0.9-6.9,1c-2.3,0.1-4,0-5.1-0.4c-1.3-0.3-2.2-0.9-2.6-1.8c-0.5-0.9-0.8-1.9-1-3
				c-0.2-1.3-0.2-2.6,0-4.1c2.1-8.5,4.6-17.6,7.7-27.3c2.7-8.3,6.1-17.9,10.3-28.7c4.2-10.9,9.2-22.4,15.1-34.5l0.2-0.2l5.3-10.8
				c3.2-6.7,6.3-12.7,9.3-18c3-5.3,5.7-9.8,7.9-13.7c-2.6-0.5-6.3-1.2-11.4-2.3c-5-1-10.1-2.1-15.3-3.1c-5.2-1-9.8-1.9-13.9-2.6
				c-4.1-0.7-6.5-1-7.3-0.8c-3.2,0.6-5.4,1.8-6.5,3.3c-0.2,0.3-0.4,1.1-0.7,2.3c-0.3,1.2,0.2,2.3,1.4,3.2l2.2,1.4
				c0.8,0.5,1.2,1,1.1,1.6c-0.1,0.6-0.2,1-0.4,1.3c-1.9,3.2-3.9,5.4-6.1,6.5c-2.2,1.1-4,1.8-5.6,2.2c-2.1,0.3-3.7,0-4.8-1
				c-1.3-0.6-2.6-1.5-3.9-2.7c-1.4-1.2-2.6-2.7-3.7-4.6c-1.1-1.8-1.9-3.9-2.4-6.1c-0.5-2.2-0.4-4.6,0.2-7.2c0.8-2.9,1.7-5.1,2.6-6.7
				c0.5-0.8,1.8-2.3,4-4.5c2.2-2.2,5.5-4,10.2-5.3c6.9-1.8,14.9-2.3,24.2-1.7c9.3,0.6,18.8,1.8,28.6,3.3c9.8,1.6,19.6,3.4,29.2,5.3
				c9.7,1.9,18.4,3.2,26.2,3.8c13.6,1.3,24.4,1.4,32.5,0.5c8.1-1,14.3-2.2,18.8-3.8c5.1-1.8,8.7-4.1,10.8-7c0.3-1,0.7-1.8,1.2-2.4
				c0.3-0.6,0.8-1.2,1.3-1.7c0.6-0.5,1.2-0.8,2-1c1.3-0.3,2.6-0.2,3.8,0.4c1.3,0.6,2.3,1.7,3.1,3.5c0.8,2.1,1.2,4.1,1.3,6
				c0.1,1.9,0,3.7-0.1,5.3c-0.2,1.8-0.5,3.5-1,5.3c-2.4,6.5-6.9,11.3-13.5,14.4c-6.6,3-14.4,4.8-23.2,5.4
				c-8.9,0.6-18.4,0.3-28.6-0.8c-10.2-1.1-20.1-2.5-29.7-4.3c-0.8,1.6-2.1,3.4-3.8,5.4c-1.8,2-3.9,4.7-6.3,8
				c-2.5,3.3-5.3,7.7-8.4,13.2c-3.1,5.4-6.4,12.5-9.9,21.1L160,176.9z"/>
		</g>
		<g>
			<path class="st0" d="M228.7,178.4c-1.8,3.8-4,8.3-6.8,13.5c-2.8,5.2-6,10-9.7,14.5c-3.7,4.5-7.8,8-12.3,10.7
				c-4.6,2.6-9.4,3.2-14.5,1.8c-2.9-0.8-5.2-2.2-6.9-4.2c-1.8-2-3.2-4.4-4.2-7.2s-1.7-5.8-2-9.1c-0.3-3.3-0.3-6.5,0-9.7
				c0.3-4.2,1-8.1,1.9-11.9c1-3.8,2-7.1,3.1-9.9c1.3-3.3,2.6-6.5,4.1-9.3c2.7-5.1,5.7-9.3,8.9-12.7c2.7-2.9,5.9-5.1,9.6-6.7
				c3.7-1.6,7.6-1.1,11.7,1.4c1.6-1.6,3.4-2.8,5.4-3.6c2-0.8,4.1-1,6.4-0.7c3.5,0.5,6.1,2,7.9,4.6c1.8,2.5,2.8,5.5,3.2,8.9
				c0.4,3.3,0.4,6.9-0.1,10.5c-0.5,3.7-1,6.8-1.7,9.3c4.2-1.3,8-3.1,11.5-5.5c3.5-2.4,6.1-4.5,7.9-6.2c0.8-0.8,1.5-1.4,2.2-1.7
				c0.6-0.3,1.2-0.4,1.6-0.2c0.4,0.2,0.7,0.9,0.8,2.1c0.2,1,0.2,1.9,0,2.9c-0.3,1.9-1,3.6-2.1,5c-2.6,2.9-6.2,5.6-10.8,8.3
				C238.9,175.9,234,177.6,228.7,178.4z M189.9,188.4c-1.3,4.3-1.8,7.7-1.7,10.3c0.2,2.6,0.6,4.5,1.2,5.7c0.6,1.6,1.6,2.6,2.9,2.9
				c2.1,0.6,4.3,0.2,6.7-1.4c2.4-1.6,4.7-3.8,6.9-6.7c2.2-2.9,4.3-6.2,6.4-10.1c2-3.8,3.8-7.7,5.4-11.7c-2.2-0.6-4.4-1.8-6.5-3.6
				c-2.7-2.2-4.6-4.9-5.6-8.1c-1-3.2-1.4-6.5-1.1-9.8c-2.1,2.1-4,4.9-5.8,8.4c-1.8,3.5-3.3,7.1-4.5,10.8
				C192.6,179.2,191.2,183.7,189.9,188.4z M213.4,157.1c-0.2,1.9,0,3.6,0.5,4.9c0.5,1.4,1.1,2.5,1.9,3.5c0.8,1,1.7,1.7,2.6,2.3
				c1,0.6,1.8,0.9,2.4,1.1c2.2-7.2,3-12.5,2.2-16.1c-0.3-1.1-1-1.9-1.9-2.5c-1-0.6-2-0.7-3-0.5c-1,0.2-2,0.9-2.9,2
				C214.3,152.9,213.7,154.7,213.4,157.1z"/>
		</g>
		<g>
			<path class="st0" d="M249.8,220.8c-2.9-0.2-5.7-1-8.5-2.4c-2.8-1.4-5-3.8-6.5-7.1c-1.5-3.3-2.2-7.6-1.9-13.1
				c0.2-5.4,1.9-12.2,4.9-20.3c3-8.1,6.5-14.7,10.3-19.8c3.8-5,7.7-8.9,11.5-11.5c3.8-2.6,7.6-4.2,11.4-4.7c3.8-0.5,7.1-0.2,9.9,1
				c3.3,1.3,5.7,3.5,6.9,6.7c4.6-12.9,9.5-24.6,14.6-35c5.1-10.4,9.7-19.3,13.9-26.8c4.9-8.8,9.7-16.5,14.1-23.2
				c1-1.1,1.9-2,2.9-2.6c0.8-0.6,1.7-1.1,2.8-1.4c1-0.3,2-0.1,3,0.7c1,0.8,2.2,2,3.8,3.6c1.6,1.6,3,3.4,4.2,5.5
				c1.2,2.1,2,4.2,2.5,6.5c0.5,2.2,0.2,4.4-1,6.5c-1,1.4-2.8,3.9-5.5,7.3c-2.7,3.4-6,7.8-9.7,13.2c-3.8,5.4-7.7,11.7-12,19
				c-4.2,7.4-8.3,15.7-12.3,24.9c-2.6,6.1-4.9,12.5-7.2,19.4c-2.2,6.9-4.2,14.1-6,21.8c-1,4.8-1.3,8.6-1,11.5v0.7
				c0.3,1.8,1.2,2.9,2.6,3.3c1.8,0.6,3.6,0.1,5.6-1.5c2-1.7,4-3.8,5.9-6.2c1.9-2.5,3.6-5.1,5.2-7.9c1.5-2.8,2.8-5.1,3.7-6.8
				c0.2-0.6,0.6-1.3,1.2-1.9c1.1-1.1,2.6-1.6,4.3-1.4c1.6,0.5,2.4,1.4,2.4,2.9c0,0.6-0.2,1.4-0.5,2.2c-1.3,2.7-3.3,6.5-6,11.5
				c-2.7,5-5.8,9.6-9.3,13.9c-0.8,1.1-1.6,2.1-2.4,3.1c-1.6,1.9-3.2,3.5-4.8,4.8c-0.3,0.2-0.5,0.3-0.6,0.4c-0.1,0.1-0.3,0.2-0.6,0.4
				c-1,0.8-2.1,1.5-3.3,2c-1.3,0.6-2.7,0.9-4.3,1.1c-1.4,0-2.6-0.1-3.4-0.2c-2.7-0.6-4.9-2.1-6.5-4.4c-1.6-2.3-2.8-4.8-3.6-7.4
				c-0.8-2.6-1.4-5.1-1.7-7.5c-0.3-2.4-0.5-4.1-0.5-5c-1.9,3.8-4.1,7.3-6.5,10.3c-2.4,3-4.8,5.6-7.3,7.8c-2.5,2.1-5,3.8-7.5,5
				C254.7,220.4,252.2,220.9,249.8,220.8z M258,181.7c-3,6.7-4.9,11.8-5.5,15.3c-0.6,3.5-0.8,6.2-0.5,7.9c0.5,1.9,1.5,3,3.1,3.3
				c3,0.5,6-0.9,8.9-4.2c2.9-3.3,5.5-7,7.9-11.1c2.7-4.8,5.4-10.4,7.9-16.8c1.4-3.8,2.3-6.9,2.5-9.3s0.2-4.3-0.1-5.6
				c-0.3-1.4-0.8-2.3-1.4-2.8c-0.6-0.5-1.2-0.8-1.7-1c-0.3-0.2-1-0.2-2.1-0.1c-1.1,0.1-2.6,0.8-4.4,2.3c-1.8,1.4-3.9,3.8-6.3,7.2
				C263.7,170.2,261,175.2,258,181.7z"/>
		</g>
		<g>
			<path class="st0" d="M373.6,178.4c-1.8,3.8-4,8.3-6.8,13.5c-2.8,5.2-6,10-9.7,14.5c-3.7,4.5-7.8,8-12.3,10.7
				c-4.6,2.6-9.4,3.2-14.5,1.8c-2.9-0.8-5.2-2.2-6.9-4.2c-1.8-2-3.2-4.4-4.2-7.2s-1.7-5.8-2-9.1c-0.3-3.3-0.3-6.5,0-9.7
				c0.3-4.2,1-8.1,1.9-11.9c1-3.8,2-7.1,3.1-9.9c1.3-3.3,2.6-6.5,4.1-9.3c2.7-5.1,5.7-9.3,8.9-12.7c2.7-2.9,5.9-5.1,9.6-6.7
				c3.7-1.6,7.6-1.1,11.7,1.4c1.6-1.6,3.4-2.8,5.4-3.6c2-0.8,4.1-1,6.4-0.7c3.5,0.5,6.1,2,7.9,4.6c1.8,2.5,2.8,5.5,3.2,8.9
				c0.4,3.3,0.4,6.9-0.1,10.5c-0.5,3.7-1,6.8-1.7,9.3c4.2-1.3,8-3.1,11.5-5.5c3.5-2.4,6.1-4.5,7.9-6.2c0.8-0.8,1.5-1.4,2.2-1.7
				c0.6-0.3,1.2-0.4,1.6-0.2c0.4,0.2,0.7,0.9,0.8,2.1c0.2,1,0.2,1.9,0,2.9c-0.3,1.9-1,3.6-2.1,5c-2.6,2.9-6.2,5.6-10.8,8.3
				C383.9,175.9,378.9,177.6,373.6,178.4z M334.8,188.4c-1.3,4.3-1.8,7.7-1.7,10.3c0.2,2.6,0.6,4.5,1.2,5.7c0.6,1.6,1.6,2.6,2.9,2.9
				c2.1,0.6,4.3,0.2,6.7-1.4c2.4-1.6,4.7-3.8,6.9-6.7c2.2-2.9,4.3-6.2,6.4-10.1c2-3.8,3.8-7.7,5.4-11.7c-2.2-0.6-4.4-1.8-6.5-3.6
				c-2.7-2.2-4.6-4.9-5.6-8.1c-1-3.2-1.4-6.5-1.1-9.8c-2.1,2.1-4,4.9-5.8,8.4c-1.8,3.5-3.3,7.1-4.5,10.8
				C337.6,179.2,336.1,183.7,334.8,188.4z M358.3,157.1c-0.2,1.9,0,3.6,0.5,4.9c0.5,1.4,1.1,2.5,1.9,3.5c0.8,1,1.7,1.7,2.6,2.3
				c1,0.6,1.8,0.9,2.4,1.1c2.2-7.2,3-12.5,2.2-16.1c-0.3-1.1-1-1.9-1.9-2.5c-1-0.6-2-0.7-3-0.5c-1,0.2-2,0.9-2.9,2
				C359.2,152.9,358.6,154.7,358.3,157.1z"/>
		</g>
	</g>
	<g>
		<g>
			<path class="st0" d="M123.3,343c-3.2-0.4-6.4-0.9-9.3-1.7c-3-0.8-5.6-2-8-3.7c-2.4-1.6-4.4-3.6-6-6c-1.6-2.4-2.8-5.3-3.5-8.8
				c-0.2-0.6-0.4-1.2-0.4-1.7c-0.2-1-0.1-2.4,0.4-4c0.6-1.4,1.4-2.4,2.6-3c1.2-0.6,2.5-0.5,4.2,0.4c1.2,0.7,2.7,1.6,4.7,2.8
				c2,1.2,4.3,2.4,7.1,3.7c2.8,1.3,5.9,2.5,9.3,3.6c3.4,1.1,7.2,2,11.2,2.7c5.3-5.8,10.7-10.5,16.1-14.1c5.4-3.6,10.4-6.4,15.1-8.5
				c4.7-2.1,8.8-3.5,12.4-4.3c3.5-0.8,6.1-1.3,7.7-1.6c1-0.1,2.4-0.1,4,0c1.6,0.1,3.1,0.5,4.3,1.2c1.4,0.8,2.4,2,3.1,3.7
				c0.9,2.3,0.9,5,0,8.2c-0.9,3.1-2.6,6.2-4.9,9.2c-0.4,0.4-0.6,0.6-0.7,0.9c-0.3,0.5-0.8,0.9-1.2,1.3c-0.5,0.4-0.9,0.8-1.4,1.3
				c-2.7,2.4-6,4.8-10,7.1c-4,2.3-8.9,4.4-14.7,6.3c-2.3,0.7-4.8,1.3-7.5,1.9c-2.3,0.6-4.9,1.2-7.8,1.7c-2.9,0.6-6,1-9.4,1.4
				c-2,2.5-3.9,5.2-5.8,8c-1.9,2.8-3.7,5.7-5.3,8.9c-3.8,6.8-6.3,12.7-7.5,17.7c-1.2,4.9-1.5,9.1-1,12.4c0.5,3.4,1.7,6.1,3.5,8.2
				c1.8,2.1,3.8,3.7,5.9,4.8c2.1,1.1,4.2,1.8,6.2,2.2c2,0.4,3.4,0.5,4.3,0.5c1.5,0.1,3.7,0,6.6-0.3c2.9-0.3,6.1-1.3,9.7-2.9
				c3.6-1.6,7.3-4.1,11.2-7.6c3.9-3.4,7.5-8.2,10.9-14.3c0.1-0.4,0.4-0.9,0.9-1.6c0.6-1.3,1-2.4,1.4-3.5c0.4-1.1,0.6-2,0.9-3
				c0.2-1,0.4-2,0.5-2.8c0-0.7,0-1.3,0.1-1.9c0.1-0.6,0.1-1.1,0.1-1.6v-1.4c0.2-1.2,0.8-2.2,1.7-3.1c0.9-0.9,1.9-1.7,3-2.4
				c1.2-0.7,2.4-1.2,3.7-1.7c1.3-0.4,2.4-0.7,3.5-0.8c1.2-0.1,1.9,0.4,2.4,1.6c0.4,1.2,0.5,2.3,0.4,3.2v0.4v0.9
				c0,0.4-0.1,1.3-0.3,2.7c-0.2,1.5-0.6,3.2-1.1,5.4s-1.4,4.5-2.4,7.1c-1,2.6-2.4,5.3-4.2,8.1c-0.2,0.5-0.5,0.9-0.9,1.2
				c-0.3,0.4-0.6,0.8-0.9,1.2c-1.3,1.7-2.8,3.7-4.6,5.8c-1.8,2.1-3.9,4.3-6.4,6.4c-2.5,2.1-5.3,4.1-8.4,6.1c-3.1,2-6.6,3.7-10.4,5
				c-0.9,0.4-1.8,0.6-2.6,0.9c-0.8,0.2-1.7,0.5-2.6,0.7c-4.4,1.2-9,1.8-13.8,1.8c-4.8,0.1-9.3-0.6-13.6-1.8c-4.2-1.3-8-3.3-11.2-6.2
				c-3.2-2.8-5.5-6.6-6.8-11.3c-1.3-4.7-1.3-10.4-0.1-17.1c1.2-6.7,4.1-14.6,8.6-23.7c1.2-2.2,2.3-4.3,3.4-6.3
				C120.9,346.8,122.1,344.9,123.3,343z M189.3,306.5c0.1-0.6-0.8-0.6-2.6-0.1c-1.9,0.5-4.4,1.7-7.7,3.4c-3.2,1.7-7,4.1-11.1,7
				c-4.2,2.9-8.5,6.5-13.1,10.8c1-0.2,2.1-0.4,3.1-0.6c1-0.2,2.1-0.4,3.1-0.6c5.3-1.2,9.8-2.7,13.5-4.6c3.7-1.9,6.6-4,9-6.2
				c0.1-0.1,0.5-0.5,1-1.1c0.6-0.6,1.2-1.4,1.9-2.3c0.7-0.9,1.3-1.8,1.9-2.8C189,308.4,189.3,307.4,189.3,306.5z"/>
		</g>
		<g>
			<path class="st0" d="M218.5,370.3c-0.6,1.5-1.2,3.1-1.7,4.7c-0.6,1.6-1.2,3.2-1.7,4.9c2.2-3.7,4.6-7.5,7.2-11.4
				c2.6-3.9,5.2-7.3,7.8-10.3c2.6-3,5.2-5.2,7.7-6.7c2.5-1.5,4.8-1.7,6.9-0.7c1,0.5,2.3,1.2,3.8,2.1c1.5,0.9,3,2.1,4.3,3.7
				c0.4,0.6,0.6,1.2,0.7,1.9c0.1,0.6,0.1,1.3,0,2.3c-0.1,0.9-0.5,2-1.2,3.3c-0.7,1-1.8,3.1-3.4,6.1c-1.6,3-3.1,6.3-4.6,9.7
				c-0.3,0.7-1,1-2.1,1c-1,0-2.1-0.2-3.3-0.5c-1.2-0.4-2.3-0.8-3.5-1.2c-1.2-0.5-2-0.8-2.6-1c-0.9-0.5-1.5-1-1.6-1.7
				c-0.1-0.6-0.2-1.1-0.2-1.5c0.7-2,1.4-3.9,2.1-5.7c0.7-1.8,1.4-3.6,2.1-5.2l-0.4,0.2c-3.2,3.2-6.4,7.1-9.6,11.5
				c-2.7,3.7-5.6,8.4-8.7,13.9c-3.1,5.6-6,12-8.7,19.3v0.5c-0.1,0.7-0.4,1.1-0.8,1.3c-0.4,0.2-0.7,0.3-1,0.3
				c-2.3-0.2-4.1-0.8-5.5-1.6c-1.3-0.8-2.4-1.7-3.2-2.6c-0.6-0.6-0.9-1.3-0.9-2.1c-0.1-0.5-0.1-0.8,0-1.1c0.1-2.2,0.4-4.6,0.9-7.2
				c0.5-2.6,1-5.2,1.6-7.8c0.6-2.6,1.2-5.1,1.8-7.6c0.6-2.4,1.2-4.6,1.8-6.6c0.6-1.6,1.1-3.2,1.7-4.7c0.5-1.5,1-2.8,1.3-3.8
				c0.2-0.5,0.4-0.9,0.4-1.3c0.1-0.4,0.2-0.8,0.4-1.3c0.6-1.8,1.2-3.6,1.8-5.3c0.6-1.7,1.2-3.2,1.8-4.4c0.6-1.4,1.1-2.7,1.6-4
				c0-0.1,0.1-0.2,0.2-0.4c0-0.1,0.1-0.4,0.3-0.9c0.2-0.5,0.6-0.9,1.1-1.4c0.5-0.5,1.1-0.6,1.8-0.4c0.9,0.2,2.2,0.8,3.9,1.7
				c1.7,0.9,3.2,2.1,4.6,3.7c0.1,0.1,0.3,0.4,0.5,0.7c0.1,0.2,0.2,0.5,0.4,0.9c0.1,0.3,0.2,0.8,0.2,1.2c0,1.2-0.4,2.5-1.2,4
				c0,0.1,0,0.2-0.1,0.3c-0.1,0.1-0.1,0.1-0.1,0.3c-0.2,0.2-0.6,1-1.1,2.2c-0.5,1.2-1,2.3-1.5,3.2c-0.5,0.9-0.9,1.9-1.3,3
				C219,368.8,218.7,369.6,218.5,370.3z"/>
		</g>
		<g>
			<path class="st0" d="M276.6,356.8c0.5,0.5,0.8,1,0.9,1.7c0.1,0.6,0.1,1.3-0.1,2.3c-0.2,0.9-0.6,2-1.3,3.3
				c-0.5,0.8-1.2,2.1-2.1,3.8c-0.9,1.7-1.9,3.7-3,6c-1.1,2.3-2.2,4.6-3.2,7.1c-1,2.5-1.9,4.8-2.4,7c-0.6,2.1-0.8,4-0.7,5.5
				c0.1,1.5,0.8,2.4,1.9,2.8c1.3,0.5,2.6,0.1,4.1-1.1c1.4-1.2,2.9-2.7,4.3-4.5c1.4-1.8,2.6-3.7,3.7-5.7c1.1-2,2-3.7,2.7-5
				c0.1-0.5,0.4-0.9,0.9-1.4c0.8-0.8,1.9-1.2,3.1-1.1c1.2,0.4,1.7,1.1,1.7,2.1c0,0.5-0.1,1-0.3,1.6c-0.7,1.5-1.7,3.5-3,6
				c-1.3,2.5-2.8,5-4.5,7.6c-1.7,2.5-3.5,5-5.4,7.2c-1.9,2.3-3.9,4-6,5.1c-1.3,0.8-2.6,1.3-3.8,1.5c-1.3,0.2-2.4,0.2-3.5,0.1
				c-1.3-0.1-2.4-0.4-3.5-0.7c-2.1-0.9-3.6-2.4-4.5-4.5c-0.9-2.1-1.4-4.5-1.5-7.1c-0.1-2.7,0.2-5.6,0.9-8.8c0.6-3.2,1.4-6.4,2.3-9.5
				c2.2-7.3,5.4-15.4,9.6-24.3c0.2-0.7,0.6-1.3,1-1.7c0.3-0.5,0.8-0.9,1.2-1.2c0.5-0.4,1-0.4,1.6-0.2c1,0.4,2.4,1,4.2,2.1
				C273.5,353.6,275.1,355,276.6,356.8z M271.7,345.3c-1.3-1.4-1.7-3-1.2-5c0.5-1.9,1-3.4,1.6-4.4c0.6-0.9,1.1-1.7,1.7-2.4
				c0.5-0.7,1-1.3,1.3-1.9l1-1.6c0.6-0.8,1.2-1.4,1.7-1.9c0.6-0.5,1.2-0.8,1.7-1c0.6-0.2,1.3,0,2.1,0.6c0.7,0.5,1.5,1.2,2.5,2.3
				c1,1.1,1.9,2.2,2.6,3.5c0.8,1.3,1.3,2.6,1.6,4.1c0.3,1.5,0.1,2.8-0.6,4.1c-0.5,0.7-1.1,1.6-2,2.8c-0.9,1.2-2.1,2.7-3.6,4.7
				c-0.6,0.7-1.3,1-2.3,1c-0.9-0.1-1.9-0.4-3-0.9c-1-0.5-2-1.1-3-1.8C273.1,346.7,272.3,346,271.7,345.3z"/>
		</g>
		<g>
			<path class="st0" d="M286.7,396.6c0.1,0.1,0.2,0.2,0.2,0.3c0,0.1-0.1,0.5-0.4,1.2c-0.2,0.2-0.4,0.6-0.5,1
				c-0.1,0.5-0.2,0.9-0.2,1.3c0,0.4,0.1,0.8,0.4,1.2c0.3,0.4,0.8,0.7,1.7,0.8c1,0.2,1.8,0.1,2.4-0.5c0.5-0.6,0.9-1.4,1-2.3
				c0.2-1,0.2-2.1,0.1-3.5c-0.1-1.3-0.2-2.6-0.4-3.9c-0.2-2.7-0.5-5.1-0.8-7.3c-0.3-2.2-0.6-4.5-0.8-6.8v-2.1
				c-0.9,1.9-1.8,3.5-2.7,5c-0.9,1.5-1.6,2.7-2.2,3.7c-0.2,0.5-0.6,0.9-1,1.2c-0.4,0.2-0.8,0.4-1.2,0.4c-0.5,0.1-0.9-0.2-1.4-0.8
				c-0.6-0.6-0.9-1.1-1-1.6c-0.1-0.5,0-0.9,0.1-1.4c0.1-0.5,0.3-1,0.7-1.6c0.7-1.6,1.5-3.5,2.5-5.6c1-2.1,1.9-4.2,2.8-6.3
				c0.9-2.1,1.7-4,2.4-5.6c0.8-1.7,1.2-3,1.5-3.9c0.2-2.5,0.5-4.8,0.9-6.8c0.4-2,0.8-3.2,1.4-3.7c0.8-0.7,1.9-1.3,3.2-1.8
				c1.3-0.5,2.8-0.9,4.3-1.2c1.6-0.3,3.2-0.5,4.8-0.5c1.6-0.1,3.1,0,4.5,0.1c0.6,0.2,1,0.6,1.4,1.1c0.2,0.5,0.4,1.1,0.4,1.9
				c0,0.8-0.3,2-0.9,3.7c-0.6,1.3-1.1,2.9-1.7,5c-0.5,2-1,4.3-1.4,6.8s-0.6,5.1-0.7,7.9c-0.1,2.8,0.1,5.5,0.4,8
				c0.5,2.7,0.9,5.8,1.4,9.3c0.5,3.5,0.4,6.9-0.2,10.2c-0.6,3.3-2,6.1-4.4,8.4c-2.3,2.4-6.1,3.7-11.3,3.9c-3.1,0.1-5.7-0.3-7.8-1.2
				c-1.9-0.7-3.4-1.9-4.7-3.7c-1.3-1.7-1.6-4.3-0.9-7.7c0.1-0.7,0.3-1.3,0.5-1.9c0.2-0.6,0.5-1.1,0.9-1.6c0.4-0.5,0.8-1,1.4-1.3
				c0.1-0.1,0.3-0.2,0.5-0.2c0.6,0,1.2,0.1,1.7,0.2c0.6,0.2,1.1,0.5,1.7,0.8C286.1,395.6,286.5,396,286.7,396.6z"/>
		</g>
		<g>
			<path class="st0" d="M336.1,354.8c-2,4.4-3.8,9.1-5.4,14.1c-1.6,5-3.1,10.3-4.3,16c-0.7,3.4-0.9,6.1-0.7,8.2c0,0.1,0,0.2,0.1,0.3
				c0.1,0.1,0.1,0.2,0.1,0.4c0.2,1.3,0.8,2.1,1.7,2.4c1.3,0.4,2.7-0.1,4.2-1.2c1.5-1.2,2.9-2.7,4.3-4.5c1.3-1.9,2.6-3.8,3.7-5.8
				c1.2-2,2-3.7,2.6-5c0.2-0.5,0.6-0.9,1-1.4c0.7-0.7,1.7-1,3-0.9c1.2,0.1,1.7,0.8,1.7,1.9c0,0.5-0.1,1-0.4,1.7
				c-0.9,2-2.4,4.7-4.3,8.3c-2,3.5-4.2,6.9-6.6,10.2c-0.7,0.7-1.3,1.4-1.9,2.1c-1.2,1.4-2.3,2.5-3.5,3.5c-0.1,0.1-0.2,0.2-0.3,0.3
				c-0.1,0.1-0.2,0.2-0.4,0.4c-0.8,0.5-1.7,0.9-2.6,1.3c-0.9,0.4-2,0.7-3.1,0.8c-0.5,0.1-1.3,0.1-2.4-0.2c-2.2-0.6-3.9-1.8-5-3.7
				c-1.2-1.9-2-4-2.6-6.2c-0.6-2.5-0.9-5.3-1-8.3c-0.1-1.3-0.1-2.5-0.1-3.7c0.1-1.2,0.1-2.4,0.3-3.7c0.2-2.5,0.6-5,1-7.4
				c0.5-2.4,1-4.5,1.6-6.4c0.5-2.1,1-4.1,1.7-6.1c2.2-6.4,4.5-12.3,6.8-17.8c2.3-5.5,4.6-10.7,7-15.6c-7.9,0-15.7,0-23.5-0.1
				c-7.8-0.1-15.6,0-23.5,0.1c-1.3,0-2.1-0.3-2.4-0.9c-0.2-0.4-0.4-0.7-0.5-1c-0.4-2.1-0.2-3.9,0.5-5.3c0.7-1.4,1.8-2.6,3.2-3.4
				c1.5-0.8,3.1-1.4,5-1.7c1.9-0.3,3.8-0.4,5.7-0.3c7,0.2,13.8,0.5,20.5,0.7c6.7,0.3,13.5,0.6,20.4,0.9c2-3.6,3.8-6.9,5.5-9.9
				c1.7-3,3.2-5.4,4.4-7.4c1.4-2.3,2.7-4.4,4-6.1c0.7-0.8,1.4-1.5,2.1-1.9c0.6-0.5,1.2-0.8,2-1c0.7-0.2,1.5-0.1,2.3,0.5
				c0.7,0.5,1.6,1.3,2.8,2.4c1.2,1.2,2.2,2.5,3,4c0.9,1.5,1.4,3.1,1.7,4.8c0.3,1.7,0,3.2-0.8,4.6c-0.6,0.9-1.6,2.3-3,4.2
				c-1.4,1.9-3.1,4.1-5.2,6.8c3.9,0.2,9,0.5,15.3,0.6c6.3,0.2,13.1,0.4,20.5,0.6c7.4,0.2,15.2,0.5,23.2,0.7
				c8.1,0.2,15.8,0.5,23.2,0.6c7.4,0.2,14.3,0.4,20.7,0.5c6.4,0.2,11.6,0.3,15.7,0.5c0.3,0,0.9,0.1,1.7,0.2c0.8,0.1,1.5,0.3,2.2,0.5
				c0.7,0.2,1.3,0.5,1.8,0.8c0.5,0.3,0.8,0.7,0.8,1.1c0,0.5-0.5,0.9-1.6,1.2c-1,0.4-2.2,0.6-3.6,0.8c-1.3,0.2-2.7,0.3-4.1,0.3
				c-1.4,0.1-2.5,0.1-3.3,0.1c-4.1,0.2-9.3,0.4-15.6,0.5c-6.3,0.1-13.2,0.2-20.7,0.3c-7.5,0.1-15.3,0.2-23.3,0.3
				c-8.1,0.1-15.8,0.1-23.3,0.1c-7.5,0-14.4,0-20.8,0c-6.4,0-11.5,0-15.5,0c-2.3,3.5-4.6,7.4-7,11.7
				C340.6,344.9,338.3,349.6,336.1,354.8z"/>
		</g>
		<g>
			<path class="st0" d="M382.2,378.9c-1.3,2.8-2.9,6.1-5,9.8c-2,3.8-4.4,7.3-7.1,10.5c-2.7,3.2-5.7,5.8-9,7.7
				c-3.3,1.9-6.8,2.4-10.5,1.3c-2.1-0.6-3.8-1.6-5-3c-1.3-1.5-2.3-3.2-3-5.2c-0.8-2-1.2-4.2-1.5-6.6c-0.2-2.4-0.2-4.7,0-7
				c0.2-3,0.7-5.9,1.4-8.6c0.7-2.7,1.4-5.1,2.3-7.2c0.9-2.4,1.9-4.7,3-6.8c2-3.7,4.1-6.8,6.4-9.2c2-2.1,4.3-3.7,7-4.9
				c2.7-1.2,5.5-0.8,8.5,1c1.2-1.2,2.5-2,3.9-2.6c1.4-0.6,3-0.8,4.6-0.5c2.5,0.4,4.5,1.5,5.7,3.3c1.3,1.8,2.1,4,2.3,6.4
				c0.3,2.4,0.3,5-0.1,7.7c-0.3,2.7-0.8,4.9-1.2,6.8c3-0.9,5.8-2.3,8.4-4c2.5-1.7,4.5-3.2,5.7-4.5c0.6-0.6,1.1-1,1.6-1.2
				c0.5-0.2,0.8-0.3,1.1-0.2c0.3,0.1,0.5,0.6,0.6,1.6c0.1,0.7,0.1,1.4,0,2.1c-0.2,1.4-0.8,2.6-1.6,3.7c-1.9,2.1-4.5,4.1-7.8,6
				C389.6,377,386,378.3,382.2,378.9z M354,386.2c-0.9,3.1-1.3,5.6-1.2,7.5c0.1,1.9,0.4,3.2,0.9,4.2c0.5,1.2,1.2,1.9,2.1,2.1
				c1.5,0.5,3.1,0.1,4.9-1c1.7-1.2,3.4-2.8,5-4.9c1.6-2.1,3.2-4.5,4.6-7.3c1.4-2.8,2.8-5.6,3.9-8.5c-1.6-0.5-3.2-1.3-4.7-2.6
				c-2-1.6-3.3-3.6-4.1-5.9c-0.8-2.3-1-4.7-0.8-7.1c-1.5,1.5-2.9,3.5-4.2,6.1c-1.3,2.5-2.4,5.2-3.3,7.8
				C356,379.4,355,382.7,354,386.2z M371.1,363.4c-0.1,1.4,0,2.6,0.4,3.6c0.3,1,0.8,1.8,1.4,2.5c0.6,0.7,1.2,1.2,1.9,1.6
				c0.7,0.4,1.3,0.7,1.7,0.8c1.6-5.2,2.1-9.1,1.6-11.7c-0.2-0.8-0.7-1.4-1.4-1.8c-0.7-0.4-1.4-0.5-2.2-0.4c-0.8,0.2-1.4,0.7-2.1,1.5
				C371.7,360.4,371.3,361.6,371.1,363.4z"/>
		</g>
	</g>
	<g>
		<g>
			<path class="st0" d="M102,424.6c10.9,5.5,16.3,7.9,27.2,12.4c0,10.3,0,15.5,0.1,25.8c-3-0.8-4.5-1.2-7.6-2.1c0-4.4,0-6.6,0-11
				c-3.3-1.2-5-1.8-8.4-3c0,6.9,0,10.4,0,17.3c2.9,0.8,4.3,1.2,7.2,1.9c0,6.1,0,9.1,0,15.2c-2.9-0.5-4.4-0.8-7.3-1.3
				c0,7.1,0,10.7,0,17.8c1.5,0.1,2.2,0.2,3.7,0.3c0,5.8,0,8.7,0,14.6c-6.1,0-9.1-0.1-15.2-0.1c0-6.3,0-9.5,0-15.8
				c1.5,0.1,2.2,0.2,3.7,0.4c0-21.3,0-31.9,0-53.2c-1.5-0.6-2.2-0.9-3.6-1.5C102,435.2,102,431.6,102,424.6z"/>
			<path class="st0" d="M148.1,513.9c-1.6,0-3.1-0.4-4.6-1.3c-1.5-0.9-2.8-2.1-4.1-3.8c-1.3-1.6-2.4-3.6-3.5-6c-1-2.3-1.9-5-2.7-7.9
				c-0.7-2.9-1.3-6.1-1.7-9.4c-0.4-3.4-0.6-6.8-0.6-10.4c0-3.6,0.2-7,0.6-10.2c0.4-3.2,1-6.1,1.7-8.7c0.7-2.6,1.6-4.9,2.6-6.9
				c1-1.9,2.2-3.5,3.4-4.6c1.3-1.1,2.6-1.9,4.1-2.3c1.4-0.3,3-0.2,4.6,0.4c1.6,0.6,3.1,1.5,4.6,2.8c1.5,1.3,2.8,2.9,4.1,4.8
				c1.3,1.8,2.4,3.9,3.5,6.2c1,2.3,1.9,4.8,2.7,7.4c0.8,2.6,1.3,5.4,1.8,8.3c0.4,2.9,0.6,5.8,0.6,8.9c0,3-0.2,5.9-0.6,8.6
				c-0.4,2.8-1,5.3-1.7,7.7c-0.7,2.4-1.6,4.6-2.6,6.6c-1,2-2.2,3.7-3.4,5.2c-1.3,1.4-2.6,2.6-4.1,3.4
				C151.3,513.5,149.8,513.9,148.1,513.9z M148.1,499.7c1.4,0.1,2.6-0.4,3.7-1.4c1.1-1,2.1-2.5,2.9-4.3c0.8-1.8,1.4-3.9,1.9-6.3
				c0.4-2.4,0.6-5,0.6-7.8c0-2.8-0.3-5.5-0.7-8.1c-0.5-2.6-1.1-4.9-1.9-7c-0.8-2.1-1.8-3.8-2.9-5.2c-1.1-1.4-2.4-2.3-3.7-2.7
				c-1.3-0.4-2.6-0.2-3.7,0.7c-1.1,0.8-2.1,2.2-2.9,3.9c-0.8,1.8-1.4,4-1.9,6.6c-0.5,2.6-0.7,5.4-0.7,8.5c0,3,0.3,6,0.7,8.7
				c0.5,2.7,1.1,5.2,1.9,7.3c0.8,2.1,1.8,3.8,2.9,5C145.5,498.9,146.8,499.6,148.1,499.7z"/>
			<path class="st0" d="M169.7,450.7c7.5,2,11.3,2.9,18.8,4.5c1.8,0.4,3.5,1.1,4.9,2.3c1.4,1.1,2.7,2.5,3.7,4.1
				c1,1.6,1.8,3.4,2.3,5.4c0.5,2,0.8,4,0.8,6c0,1.9-0.1,3.5-0.4,4.9c-0.3,1.4-0.6,2.6-1.1,3.7c-0.5,1.1-1.1,2-1.8,2.8
				c-0.7,0.8-1.5,1.5-2.4,2.1c0.8,0.7,1.5,1.8,2.1,3.1c0.6,1.4,1.1,3.1,1.4,5.2c0.5,2.9,0.7,4.4,1.2,7.3c1.2,0,1.8,0.1,2.9,0.1
				c0,4.3,0.1,6.4,0.1,10.7c-4.1,0-6.2,0-10.3,0c-0.6-5.4-0.9-8.1-1.5-13.6c-0.1-1.6-0.4-3-0.7-4.2c-0.3-1.2-0.7-2.2-1.2-3
				c-0.5-0.8-1.1-1.4-1.8-1.8c-0.7-0.4-1.5-0.7-2.5-0.8c-1.2-0.1-1.8-0.2-3-0.3c0,5.2,0,7.7,0.1,12.9c1.3,0.1,2,0.1,3.3,0.1
				c0,4.2,0,6.3,0,10.6c-5.9,0-8.8,0-14.7-0.1c0-4.5,0-6.7-0.1-11.2c1.5,0.1,2.2,0.1,3.7,0.2c-0.1-15.6-0.1-23.4-0.2-39
				c-1.5-0.3-2.2-0.5-3.7-0.8C169.7,457.5,169.7,455.2,169.7,450.7z M181.2,464.4c0,5.7,0,8.6,0.1,14.3c1.9,0.3,2.8,0.4,4.7,0.6
				c0.9,0.1,1.7,0.1,2.4-0.1c0.7-0.2,1.3-0.5,1.8-1c0.5-0.5,0.9-1.2,1.2-2c0.3-0.8,0.4-1.8,0.4-3c0-2.2-0.5-4-1.5-5.4
				c-1-1.4-2.4-2.3-4.3-2.6C184,464.9,183.1,464.7,181.2,464.4z"/>
			<path class="st0" d="M211.8,503.2c1.5,0,2.2,0.1,3.7,0.1c0-13.7-0.1-20.6-0.1-34.4c-1.7-0.2-2.6-0.3-4.3-0.4c0,2.8,0,4.2,0,7
				c-3.1-0.3-4.6-0.4-7.6-0.8c0-6.7,0-10-0.1-16.7c12.9,2,19.4,2.7,32.4,3.4c0,6.3,0,9.4,0,15.7c-3.1-0.1-4.6-0.2-7.7-0.3
				c0-2.7,0-4,0-6.7c-2-0.1-2.9-0.2-4.9-0.3c0,13.5,0.1,20.3,0.1,33.9c1.5,0,2.2,0,3.7,0.1c0,3.8,0,5.7,0,9.4c-6.1,0-9.1,0-15.2,0
				C211.9,509.1,211.9,507.1,211.8,503.2z"/>
			<path class="st0" d="M255.1,503.7c1.4,0,2.1,0,3.5,0c-0.6-2.9-1-4.4-1.6-7.4c-4.4,0-6.6,0-10.9,0c-0.6,2.9-1,4.4-1.6,7.4
				c1.5,0,2.2,0,3.7,0c0,3.7,0,5.6,0,9.3c-5.4,0-8.1,0-13.4,0c0-3.7,0-5.6,0-9.3c1.1,0,1.6,0,2.6,0c3.8-16.9,5.8-25.2,9.6-42
				c3.8,0,5.7,0,9.4,0c3.8,16.7,5.7,25.1,9.4,42c1,0,1.5,0,2.6,0c0,3.7,0,5.6,0,9.3c-5.4,0-8.1,0-13.5,0
				C255.1,509.3,255.1,507.4,255.1,503.7z M248,487.7c2.9,0,4.3,0,7.2,0c-1.4-6.7-2.2-10-3.6-16.7C250.2,477.7,249.4,481,248,487.7z
				"/>
			<path class="st0" d="M271.9,461c6.1-0.4,9.2-0.7,15.2-1.4c0,3.9,0,5.8,0,9.7c-1.5,0.1-2.3,0.2-3.8,0.3c0,13.5-0.1,20.3-0.1,33.8
				c3.1-0.1,4.6-0.1,7.7-0.2c0.2,0,0.4-0.1,0.6-0.3c0.2-0.2,0.4-0.4,0.5-0.7c0.2-0.3,0.3-0.6,0.4-0.9c0.1-0.3,0.1-0.7,0.1-1
				c0-2.9,0-4.3,0-7.2c3-0.2,4.6-0.2,7.6-0.4c0,8.1,0,12.2-0.1,20.3c-11.3,0-17,0-28.3,0.1c0-3.8,0-5.6,0-9.4c1.5,0,2.2,0,3.7-0.1
				c0-13.3,0-20,0.1-33.3c-1.5,0.1-2.2,0.1-3.7,0.2C271.9,466.6,271.9,464.8,271.9,461z"/>
			<path class="st0" d="M303.5,457.2c11.3-2,17-3.2,28.3-6.2c0,8.4-0.1,12.7-0.1,21.1c-3.1,0.5-4.6,0.8-7.6,1.3c0-3.4,0-5.1,0-8.5
				c-3.6,0.7-5.5,1-9.1,1.7c0,4.6,0,6.9-0.1,11.4c2.8-0.4,4.2-0.6,7.1-1c0,4.6,0,6.8-0.1,11.4c-2.8,0.3-4.2,0.4-7,0.7
				c0,5.4,0,8.1-0.1,13.4c3.6-0.2,5.5-0.2,9.1-0.4c0-4.3,0-6.4,0-10.6c3.1-0.3,4.6-0.4,7.6-0.7c0,8.9-0.1,13.3-0.1,22.2
				c-11.3,0.1-16.9,0.1-28.2,0.1c0-4,0-6,0-10.1c1.5-0.1,2.2-0.1,3.7-0.1c0.1-14,0.1-21,0.2-35c-1.5,0.2-2.2,0.3-3.7,0.5
				C303.5,463.8,303.5,461.6,303.5,457.2z"/>
			<path class="st0" d="M359,463.7c-0.9-2.3-1.6-3.8-2.3-4.6c-0.7-0.8-1.5-1.4-2.3-1.6c-0.8-0.2-1.7-0.2-2.5,0.1
				c-1.3,0.4-2.5,1.2-3.7,2.6c-1.1,1.4-2.1,3.1-2.9,5.2c-0.8,2.1-1.5,4.4-2,6.9c-0.5,2.5-0.7,5.2-0.7,7.9c0,2.8,0.2,5.3,0.7,7.7
				c0.4,2.4,1.1,4.5,1.9,6.3c0.8,1.8,1.8,3.2,2.9,4.2c1.1,1,2.3,1.5,3.7,1.4c0.9-0.1,1.8-0.4,2.6-1.1c0.8-0.6,1.6-1.5,2.2-2.5
				c0.7-1,1.3-2.2,1.8-3.6c0.5-1.3,0.9-2.7,1.2-4.2c3,1.3,4.5,2,7.5,3.3c-0.5,3.2-1.2,6.2-2.2,8.9c-0.9,2.7-2.1,5.1-3.4,7
				c-1.3,1.9-2.8,3.4-4.5,4.5c-1.7,1.1-3.4,1.6-5.3,1.6c-1.6,0-3.1-0.4-4.6-1.2c-1.5-0.8-2.8-1.9-4.1-3.4c-1.3-1.4-2.4-3.1-3.4-5.1
				c-1-2-1.9-4.2-2.6-6.5c-0.7-2.4-1.3-4.9-1.7-7.7c-0.4-2.7-0.6-5.6-0.6-8.6c0-4.5,0.5-8.8,1.4-12.9c0.9-4.1,2.1-7.9,3.7-11.3
				c1.6-3.4,3.4-6.3,5.5-8.7c2.1-2.4,4.3-4.1,6.7-4.9c1.9-0.7,3.5-0.8,4.8-0.3c1.3,0.5,2.7,1.8,4.3,4.1c2.1-0.7,3.1-1.1,5.2-1.8
				c0,6.5,0,9.8-0.1,16.3C363.3,462.6,361.8,463,359,463.7z"/>
			<path class="st0" d="M372.1,437.3c11.2-4.6,16.8-7.1,28-12.7c0,12,0,18,0,29.9c-3,1-4.5,1.5-7.6,2.5c0-4.8,0-7.2,0-11.9
				c-3.6,1.4-5.4,2.1-9,3.3c0,6.3,0,9.5,0,15.8c2.8-0.8,4.2-1.2,7-2c0,6.4,0,9.5,0,15.9c-2.8,0.6-4.2,0.8-7,1.4c0,7.4,0,11.1,0,18.5
				c3.6-0.3,5.5-0.5,9.1-0.8c0-6,0-9,0-14.9c3-0.5,4.6-0.8,7.6-1.4c0,12.6,0,18.8,0,31.4c-11.3,0.1-16.9,0.1-28.2,0.2
				c0-5.4,0-8.1,0-13.6c1.5-0.1,2.2-0.2,3.7-0.3c0-19,0.1-28.5,0.1-47.6c-1.5,0.5-2.2,0.7-3.7,1.2
				C372.1,446.3,372.1,443.3,372.1,437.3z"/>
		</g>
	</g>
	<g>
		<g>
			<path class="st0" d="M195.7,521.8h7.6v3h-1.4V523h-3.8v3.4h3.6v1.2h-3.6v3.6h1.1v1.2h-3.4v-1.2h1V523h-1V521.8z"/>
		</g>
		<g>
			<path class="st0" d="M204.4,521.8h3.4v1.2h-1v8.2h1v1.2h-3.4v-1.2h1V523h-1V521.8z"/>
		</g>
		<g>
			<path class="st0" d="M209.7,521.8h3.4v1.2h-1.1v8.2h3.6c0.1,0,0.1,0,0.2-0.1c0.1,0,0.1-0.1,0.2-0.1c0.1-0.1,0.1-0.1,0.1-0.2
				c0-0.1,0.1-0.1,0.1-0.2v-1.3h1.3v3.1h-8v-1.2h1V523h-1V521.8z"/>
		</g>
		<g>
			<path class="st0" d="M218.8,521.8h3.4v1.2h-1v8.2h1v1.2h-3.4v-1.2h1V523h-1V521.8z"/>
		</g>
		<g>
			<path class="st0" d="M224.1,521.8h4.3c0.5,0,0.9,0.1,1.3,0.2c0.4,0.1,0.7,0.3,1,0.5c0.3,0.2,0.5,0.5,0.7,0.9
				c0.2,0.4,0.2,0.8,0.2,1.2c0,0.4-0.1,0.7-0.2,1.1c-0.2,0.3-0.4,0.6-0.7,0.9c-0.3,0.3-0.6,0.5-1,0.6c-0.4,0.2-0.8,0.2-1.3,0.2h-1.9
				v3.7h1.1v1.2h-3.4v-1.2h1V523h-1V521.8z M226.5,523v3.3h1.9c0.3,0,0.5,0,0.7-0.1c0.2-0.1,0.4-0.2,0.6-0.3
				c0.2-0.1,0.3-0.3,0.4-0.5c0.1-0.2,0.1-0.5,0.1-0.7c0-0.5-0.2-0.9-0.5-1.2c-0.3-0.3-0.8-0.4-1.5-0.4H226.5z"/>
		</g>
		<g>
			<path class="st0" d="M233,521.8h7.6v3h-1.4V523h-3.8v3.4h3.2v1.2h-3.2v3.6h3.8v-1.8h1.4v3H233v-1.2h1V523h-1V521.8z"/>
		</g>
		<g>
			<path class="st0" d="M248.5,521.8h3.4v1.2H251v9.4h-1.8l-4.9-8.8v7.6h1.1v1.2H242v-1.2h1V523h-1v-1.2h2.8l4.8,8.7l0.1-0.3V523
				h-1.2V521.8z"/>
		</g>
		<g>
			<path class="st0" d="M258.4,523.8c-0.1-0.2-0.3-0.4-0.5-0.5c-0.2-0.1-0.4-0.2-0.6-0.2c-0.2-0.1-0.4-0.1-0.6-0.1
				c-0.4,0-0.7,0-0.9,0.1c-0.3,0.1-0.5,0.2-0.7,0.3c-0.2,0.1-0.3,0.3-0.4,0.5s-0.1,0.4-0.1,0.6c0,0.3,0.1,0.6,0.2,0.7
				c0.1,0.2,0.2,0.3,0.4,0.5c0.2,0.1,0.4,0.2,0.6,0.3c0.2,0.1,0.4,0.1,0.6,0.2l1.4,0.5c0.4,0.1,0.8,0.3,1.1,0.5
				c0.3,0.2,0.6,0.4,0.8,0.6c0.2,0.2,0.4,0.5,0.5,0.8c0.1,0.3,0.2,0.7,0.2,1.1c0,0.4-0.1,0.8-0.3,1.2c-0.2,0.4-0.4,0.7-0.7,1
				c-0.3,0.3-0.7,0.5-1.1,0.6c-0.4,0.2-0.9,0.2-1.5,0.2c-0.5,0-1-0.1-1.4-0.2c-0.4-0.1-0.7-0.3-1-0.5c-0.3-0.2-0.5-0.4-0.6-0.7
				c-0.2-0.3-0.3-0.5-0.4-0.8h-0.5v-1.2h1.8c0,0.5,0.1,0.9,0.2,1.1c0.1,0.2,0.3,0.4,0.5,0.5c0.2,0.1,0.4,0.2,0.7,0.3
				c0.3,0.1,0.6,0.1,0.9,0.1c0.3,0,0.6,0,0.9-0.1c0.3-0.1,0.5-0.2,0.6-0.3c0.2-0.1,0.3-0.3,0.4-0.5c0.1-0.2,0.1-0.4,0.1-0.7
				c0-0.3-0.1-0.5-0.2-0.7c-0.1-0.2-0.3-0.4-0.5-0.5c-0.2-0.1-0.4-0.2-0.6-0.3c-0.2-0.1-0.4-0.2-0.6-0.2l-1.5-0.4
				c-0.3-0.1-0.6-0.2-0.9-0.4c-0.3-0.2-0.5-0.4-0.7-0.6c-0.2-0.2-0.3-0.5-0.5-0.8c-0.1-0.3-0.2-0.7-0.2-1.1c0-0.4,0.1-0.8,0.2-1.1
				c0.2-0.4,0.4-0.7,0.7-0.9c0.3-0.3,0.7-0.5,1.1-0.6c0.4-0.1,1-0.2,1.5-0.2c0.4,0,0.7,0,1,0.1c0.3,0.1,0.6,0.2,0.9,0.4
				c0.3,0.2,0.5,0.4,0.7,0.6c0.2,0.2,0.4,0.5,0.5,0.7h0.5v1.2h-1.7C258.7,524.3,258.6,524,258.4,523.8z"/>
		</g>
		<g>
			<path class="st0" d="M261.7,521.8h7.6v3h-1.4V523h-3.8v3.4h3.2v1.2h-3.2v3.6h3.8v-1.8h1.4v3h-7.6v-1.2h1V523h-1V521.8z"/>
		</g>
		<g>
			<path class="st0" d="M275.8,523.8c-0.1-0.2-0.3-0.4-0.5-0.5c-0.2-0.1-0.4-0.2-0.6-0.2c-0.2-0.1-0.4-0.1-0.6-0.1
				c-0.4,0-0.7,0-0.9,0.1c-0.3,0.1-0.5,0.2-0.7,0.3c-0.2,0.1-0.3,0.3-0.4,0.5c-0.1,0.2-0.1,0.4-0.1,0.6c0,0.3,0.1,0.6,0.2,0.7
				c0.1,0.2,0.2,0.3,0.4,0.5c0.2,0.1,0.4,0.2,0.6,0.3c0.2,0.1,0.4,0.1,0.6,0.2l1.4,0.5c0.4,0.1,0.8,0.3,1.1,0.5
				c0.3,0.2,0.6,0.4,0.8,0.6c0.2,0.2,0.4,0.5,0.5,0.8c0.1,0.3,0.2,0.7,0.2,1.1c0,0.4-0.1,0.8-0.3,1.2c-0.2,0.4-0.4,0.7-0.7,1
				c-0.3,0.3-0.7,0.5-1.1,0.6c-0.4,0.2-0.9,0.2-1.5,0.2c-0.5,0-1-0.1-1.4-0.2c-0.4-0.1-0.7-0.3-1-0.5c-0.3-0.2-0.5-0.4-0.6-0.7
				c-0.2-0.3-0.3-0.5-0.4-0.8h-0.5v-1.2h1.8c0,0.5,0.1,0.9,0.2,1.1c0.1,0.2,0.3,0.4,0.5,0.5c0.2,0.1,0.4,0.2,0.7,0.3
				c0.3,0.1,0.6,0.1,0.9,0.1c0.3,0,0.6,0,0.9-0.1c0.3-0.1,0.5-0.2,0.6-0.3c0.2-0.1,0.3-0.3,0.4-0.5c0.1-0.2,0.1-0.4,0.1-0.7
				c0-0.3-0.1-0.5-0.2-0.7c-0.1-0.2-0.3-0.4-0.5-0.5c-0.2-0.1-0.4-0.2-0.6-0.3c-0.2-0.1-0.4-0.2-0.6-0.2l-1.5-0.4
				c-0.3-0.1-0.6-0.2-0.9-0.4c-0.3-0.2-0.5-0.4-0.7-0.6c-0.2-0.2-0.3-0.5-0.5-0.8c-0.1-0.3-0.2-0.7-0.2-1.1c0-0.4,0.1-0.8,0.2-1.1
				c0.2-0.4,0.4-0.7,0.7-0.9c0.3-0.3,0.7-0.5,1.1-0.6c0.4-0.1,1-0.2,1.5-0.2c0.4,0,0.7,0,1,0.1c0.3,0.1,0.6,0.2,0.9,0.4
				c0.3,0.2,0.5,0.4,0.7,0.6c0.2,0.2,0.4,0.5,0.5,0.7h0.5v1.2h-1.7C276.1,524.3,276,524,275.8,523.8z"/>
		</g>
		<g>
			<path class="st0" d="M281.8,528.2l3.8-6.4h1.5l-3.6,6.3h2.7v-1.7l1.4-0.1v1.8h1.6v1.2h-1.6v1.9h1v1.2h-3.4v-1.2h1v-1.9h-4.4
				L281.8,528.2z"/>
		</g>
		<g>
			<path class="st0" d="M290.6,526.1c0-0.1,0-0.2,0.1-0.3c0-0.1,0.1-0.2,0.2-0.3c0.1-0.1,0.2-0.1,0.3-0.2c0.1,0,0.2-0.1,0.4-0.1
				c0.1,0,0.2,0,0.3,0.1c0.1,0.1,0.2,0.1,0.3,0.2c0.1,0.1,0.1,0.2,0.2,0.3c0.1,0.1,0.1,0.2,0.1,0.3c0,0.1,0,0.2-0.1,0.4
				s-0.1,0.2-0.2,0.3c-0.1,0.1-0.2,0.1-0.3,0.2c-0.1,0-0.2,0.1-0.3,0.1c-0.1,0-0.2,0-0.4-0.1c-0.1-0.1-0.2-0.1-0.3-0.2
				c-0.1-0.1-0.2-0.2-0.2-0.3C290.6,526.3,290.6,526.2,290.6,526.1z M290.6,531.6c0-0.1,0-0.2,0.1-0.4c0-0.1,0.1-0.2,0.2-0.3
				c0.1-0.1,0.2-0.1,0.3-0.2c0.1,0,0.2-0.1,0.4-0.1c0.1,0,0.2,0,0.3,0.1c0.1,0,0.2,0.1,0.3,0.2c0.1,0.1,0.1,0.2,0.2,0.3
				c0.1,0.1,0.1,0.2,0.1,0.4c0,0.1,0,0.2-0.1,0.3c-0.1,0.1-0.1,0.2-0.2,0.3c-0.1,0.1-0.2,0.1-0.3,0.2c-0.1,0-0.2,0.1-0.3,0.1
				c-0.1,0-0.2,0-0.4-0.1c-0.1-0.1-0.2-0.1-0.3-0.2c-0.1-0.1-0.2-0.2-0.2-0.3C290.6,531.8,290.6,531.7,290.6,531.6z"/>
		</g>
		<g>
			<path class="st0" d="M295.3,531.2h1v-7.7l-2.1,1.2v-1.5l2.9-1.6h0.6v9.7h1v1.2h-3.4V531.2z"/>
		</g>
		<g>
			<path class="st0" d="M305,524.6c0-0.2,0-0.4-0.1-0.6c-0.1-0.2-0.2-0.4-0.4-0.6c-0.2-0.2-0.4-0.3-0.6-0.4
				c-0.2-0.1-0.5-0.2-0.9-0.2c-0.3,0-0.5,0-0.7,0.1c-0.2,0.1-0.5,0.3-0.7,0.5c-0.2,0.3-0.3,0.5-0.4,0.9h-1.3c0-0.4,0.1-0.8,0.3-1.1
				c0.2-0.3,0.4-0.6,0.7-0.9c0.3-0.2,0.6-0.4,1-0.6c0.4-0.1,0.8-0.2,1.2-0.2c0.5,0,0.9,0.1,1.4,0.2c0.4,0.2,0.8,0.4,1,0.7
				c0.3,0.3,0.5,0.6,0.7,0.9c0.2,0.3,0.2,0.7,0.2,1.1c0,0.2,0,0.4-0.1,0.7c-0.1,0.2-0.1,0.4-0.3,0.6c-0.1,0.2-0.3,0.4-0.5,0.6
				c-0.2,0.2-0.4,0.3-0.7,0.5c0.2,0.1,0.4,0.2,0.6,0.3c0.2,0.2,0.4,0.3,0.5,0.5c0.1,0.2,0.3,0.4,0.3,0.7c0.1,0.3,0.1,0.6,0.1,0.9
				c0,0.5-0.1,0.9-0.3,1.3c-0.2,0.4-0.4,0.7-0.7,1c-0.3,0.3-0.7,0.5-1.1,0.7c-0.4,0.2-0.8,0.2-1.3,0.2c-0.4,0-0.9-0.1-1.3-0.2
				c-0.4-0.2-0.8-0.4-1.1-0.6c-0.3-0.3-0.5-0.6-0.6-0.9c-0.1-0.3-0.2-0.6-0.3-0.9h1.3c0.1,0.4,0.4,0.8,0.7,1
				c0.3,0.2,0.8,0.4,1.3,0.4c0.2,0,0.5,0,0.7-0.1c0.2-0.1,0.4-0.2,0.6-0.4c0.2-0.2,0.3-0.4,0.4-0.6c0.1-0.2,0.2-0.5,0.2-0.8
				c0-0.3-0.1-0.6-0.2-0.8c-0.1-0.2-0.2-0.4-0.4-0.6c-0.2-0.2-0.4-0.3-0.6-0.4c-0.2-0.1-0.5-0.1-0.8-0.1h-0.6v-1h0.5
				c0.3,0,0.6,0,0.8-0.1c0.2-0.1,0.4-0.2,0.6-0.4c0.2-0.2,0.3-0.3,0.4-0.6C304.9,525.1,305,524.8,305,524.6z"/>
		</g>
	</g>
	<g>
		<g>
			<g>
				<g>
					<path class="st1" d="M159.7,282.5c-30-7.1-47.3-12.8-74.3-28.8l26-7.5l-6.9-26.2c23.7,14,37.4,18.3,63.8,24.6L159.7,282.5z"/>
				</g>
				<g>
					<path class="st1" d="M344.9,282.5c30-7.1,47.3-12.8,74.3-28.8l-26-7.5l6.9-26.2c-23.7,14-37.4,18.3-63.8,24.6L344.9,282.5z"/>
				</g>
			</g>
			<g>
				<path class="st1" d="M377.6,278c-4.5-15.1-9.1-30.2-13.6-45.2c-14.9,4.7-31.9,8.3-49.9,10.8c-49.9,10.8-128.2,0-128.2,0
					c-17.9-2.5-34.8-6.1-49.7-10.8c-4.5,15.1-9,30.2-13.6,45.2c14,4.4,29.5,8,45.8,10.7v0c79.4,13.5,148.8,2.2,148.8,2.2v0
					C338.9,288,359.4,283.8,377.6,278z"/>
			</g>
		</g>
		<g>
			<g>
				<path class="st2" d="M151.2,251.6c2.9,0.6,4.3,0.9,7.2,1.4c-0.2,1-0.3,1.5-0.5,2.5c-0.9-0.2-1.3-0.3-2.2-0.4
					c-1.3,6.8-2,10.2-3.3,16.9c3.2,0.6,4.8,0.9,8,1.5c0.2,0,0.3,0,0.5,0c0.2,0,0.3-0.1,0.5-0.2c0.2-0.1,0.3-0.2,0.4-0.3
					c0.1-0.1,0.2-0.3,0.2-0.4c0.2-1.1,0.3-1.7,0.5-2.8c1.1,0.2,1.7,0.3,2.9,0.5c-0.4,2.6-0.7,3.9-1.1,6.5c-7-1.2-10.5-1.9-17.5-3.3
					c0.2-1,0.3-1.5,0.5-2.5c0.9,0.2,1.3,0.3,2.2,0.4c1.4-6.8,2.1-10.1,3.4-16.9c-0.8-0.2-1.3-0.3-2.1-0.4
					C150.9,253.1,151,252.6,151.2,251.6z"/>
				<path class="st2" d="M176.5,279.2c-1.6-0.2-3-0.7-4.3-1.5c-1.2-0.8-2.3-1.8-3.2-3c-0.9-1.2-1.4-2.6-1.7-4.1
					c-0.3-1.5-0.3-3.1,0-4.6c0.3-1.6,0.8-3,1.6-4.3c0.8-1.3,1.7-2.4,2.8-3.3c1.1-0.9,2.4-1.5,3.8-1.9c1.4-0.4,2.9-0.5,4.4-0.2
					c1.6,0.2,3,0.7,4.2,1.5c1.2,0.8,2.3,1.7,3.1,2.9c0.8,1.2,1.4,2.5,1.7,3.9c0.3,1.5,0.4,3,0.2,4.6c-0.2,1.6-0.7,3.1-1.4,4.4
					c-0.7,1.3-1.6,2.5-2.8,3.4c-1.1,0.9-2.4,1.6-3.9,2C179.6,279.4,178.1,279.5,176.5,279.2z M176.9,276.5c1.2,0.2,2.3,0.1,3.4-0.2
					c1.1-0.3,2-0.9,2.8-1.6c0.8-0.7,1.5-1.6,2-2.6c0.5-1,0.8-2.1,1-3.3c0.2-1.2,0.1-2.4-0.1-3.6c-0.3-1.2-0.7-2.2-1.3-3.1
					c-0.6-0.9-1.4-1.6-2.2-2.1c-0.9-0.6-1.8-0.9-2.9-1.1c-1.2-0.2-2.3-0.1-3.3,0.2c-1,0.3-1.9,0.8-2.7,1.5c-0.8,0.7-1.5,1.5-2,2.5
					c-0.5,1-0.9,2.1-1.1,3.2c-0.2,1.4-0.2,2.6,0,3.7c0.2,1.1,0.6,2.1,1.2,2.9c0.6,0.8,1.3,1.5,2.2,2.1
					C174.6,275.9,175.6,276.3,176.9,276.5z"/>
				<path class="st2" d="M200.2,259.3c3.6,0.4,5.4,0.6,9.1,0.9c1,0.1,1.9,0.3,2.7,0.6c0.8,0.3,1.5,0.8,2.1,1.3c0.6,0.6,1,1.2,1.3,2
					c0.3,0.8,0.4,1.7,0.3,2.6c-0.1,0.8-0.3,1.6-0.7,2.3c-0.4,0.7-0.9,1.3-1.6,1.8c-0.7,0.5-1.4,0.9-2.3,1.1
					c-0.9,0.2-1.9,0.3-2.9,0.2c-1.6-0.1-2.4-0.2-4.1-0.4c-0.3,3.1-0.4,4.7-0.7,7.8c0.9,0.1,1.4,0.1,2.3,0.2c-0.1,1-0.1,1.5-0.2,2.5
					c-3-0.3-4.6-0.4-7.6-0.7c0.1-1,0.2-1.5,0.3-2.5c0.9,0.1,1.3,0.1,2.2,0.2c0.7-6.9,1-10.3,1.7-17.2c-0.9-0.1-1.3-0.1-2.1-0.2
					C200.1,260.8,200.1,260.3,200.2,259.3z M205,262.3c-0.3,2.8-0.4,4.2-0.7,7c1.6,0.2,2.5,0.2,4.1,0.4c0.6,0,1.1,0,1.6-0.1
					c0.5-0.1,0.9-0.3,1.3-0.6c0.4-0.3,0.7-0.6,0.9-1c0.2-0.4,0.4-0.9,0.4-1.5c0.1-1.1-0.2-2-0.8-2.6c-0.6-0.7-1.7-1.1-3.2-1.2
					C207.2,262.5,206.5,262.5,205,262.3z"/>
				<path class="st2" d="M218.6,260.9c2.9,0.2,4.4,0.3,7.3,0.4c-0.1,1-0.1,1.5-0.1,2.6c-0.9,0-1.4-0.1-2.3-0.1
					c-0.2,4.2-0.4,6.2-0.6,10.4c-0.1,1.2,0,2.3,0.2,3.2c0.2,0.9,0.6,1.6,1.1,2.2c0.5,0.6,1.1,1,1.8,1.3c0.7,0.3,1.5,0.5,2.3,0.5
					c0.9,0,1.7,0,2.4-0.2c0.7-0.2,1.4-0.5,1.9-1.1c0.5-0.5,1-1.2,1.3-2.1c0.3-0.9,0.5-2,0.6-3.3c0.1-4.2,0.2-6.2,0.4-10.4
					c-1,0-1.5-0.1-2.4-0.1c0-1,0.1-1.5,0.1-2.6c2.9,0.1,4.4,0.2,7.3,0.2c0,1,0,1.5-0.1,2.6c-0.8,0-1.2,0-2-0.1
					c-0.1,4-0.2,6-0.3,10.1c0,1.6-0.3,3-0.8,4.3c-0.5,1.2-1.2,2.3-2,3.1c-0.8,0.8-1.8,1.4-2.9,1.8c-1.1,0.4-2.3,0.6-3.6,0.5
					c-1.2-0.1-2.4-0.3-3.4-0.8c-1.1-0.5-2-1.2-2.7-2.1c-0.7-0.9-1.3-1.9-1.7-3.2c-0.4-1.2-0.5-2.6-0.4-4.2c0.3-4.1,0.4-6.2,0.7-10.3
					c-0.8-0.1-1.2-0.1-2.1-0.1C218.5,262.4,218.5,261.9,218.6,260.9z"/>
				<path class="st2" d="M242,261.9c6.4,0.1,9.7,0.1,16.1,0.1c0,2.5,0,3.8,0.1,6.3c-1.2,0-1.8,0-3.1,0c0-1.5,0-2.3,0-3.8
					c-3.2,0-4.8,0-8.1,0c0,2.9,0,4.3-0.1,7.1c2.7,0,4.1,0,6.9,0c0,1,0,1.5,0,2.5c-2.8,0-4.1,0-6.9,0c0,3,0,4.5-0.1,7.6
					c3.3,0,5,0,8.3,0c0-1.5,0-2.3,0-3.8c1.3,0,1.9,0,3.1,0c0,2.5,0,3.8,0.1,6.3c-6.7,0.1-10.1,0.1-16.8-0.1c0-1,0-1.5,0.1-2.5
					c0.9,0,1.3,0,2.2,0c0.1-6.9,0.2-10.3,0.3-17.2c-0.9,0-1.3,0-2.1,0C241.9,263.4,242,262.9,242,261.9z"/>
				<path class="st2" d="M261,261.9c3.3-0.1,5-0.1,8.4-0.2c1,0,2,0.1,2.9,0.3c0.9,0.2,1.8,0.6,2.6,1c0.8,0.4,1.6,1,2.3,1.6
					c0.7,0.6,1.3,1.4,1.8,2.2c0.5,0.8,0.9,1.7,1.2,2.6c0.3,0.9,0.5,1.9,0.5,2.9c0.1,1,0,2-0.2,3c-0.2,1-0.5,1.9-0.9,2.7
					c-0.4,0.9-1,1.6-1.6,2.4c-0.6,0.7-1.4,1.3-2.2,1.9c-0.8,0.5-1.7,0.9-2.7,1.2c-1,0.3-2,0.5-3,0.5c-3.5,0.1-5.2,0.2-8.7,0.2
					c0-1,0-1.5,0-2.5c0.9,0,1.3,0,2.2,0c-0.2-6.9-0.2-10.3-0.4-17.2c-0.9,0-1.3,0-2.1,0C261.1,263.4,261,262.9,261,261.9z
					 M266.1,264.4c0.2,6.9,0.3,10.3,0.5,17.2c1.5,0,2.2-0.1,3.6-0.1c1.1,0,2.1-0.3,3-0.8c0.9-0.5,1.7-1.1,2.4-2
					c0.7-0.8,1.2-1.8,1.5-2.8c0.4-1.1,0.5-2.2,0.4-3.4c-0.1-1.2-0.3-2.3-0.8-3.3c-0.5-1-1-1.9-1.8-2.6c-0.7-0.7-1.6-1.3-2.5-1.7
					c-0.9-0.4-1.9-0.6-3-0.6C268.2,264.3,267.5,264.3,266.1,264.4z"/>
				<path class="st2" d="M294.9,283c-1.6,0.1-3.1,0-4.5-0.5c-1.4-0.5-2.6-1.2-3.7-2.2c-1.1-1-2-2.2-2.6-3.6c-0.6-1.4-1-2.9-1.1-4.5
					c-0.1-1.6,0.1-3.1,0.5-4.6c0.4-1.4,1.1-2.7,2-3.8c0.9-1.1,2-2,3.2-2.7c1.3-0.7,2.7-1.1,4.3-1.2c1.6-0.1,3.1,0.1,4.4,0.5
					c1.4,0.5,2.6,1.2,3.6,2.1c1.1,0.9,1.9,2.1,2.6,3.4c0.7,1.4,1.1,2.8,1.3,4.4c0.2,1.6,0.1,3.1-0.3,4.6c-0.4,1.5-1,2.8-1.9,3.9
					c-0.9,1.1-2,2.1-3.3,2.8C298,282.5,296.6,282.9,294.9,283z M294.7,280.3c1.2-0.1,2.3-0.4,3.2-1c0.9-0.6,1.7-1.3,2.3-2.2
					c0.6-0.9,1.1-1.9,1.3-3c0.3-1.1,0.4-2.2,0.2-3.4c-0.1-1.2-0.4-2.4-1-3.5c-0.5-1.1-1.2-2-2-2.7c-0.8-0.7-1.7-1.2-2.7-1.6
					c-1-0.3-2-0.5-3-0.4c-1.2,0.1-2.2,0.4-3.2,1c-0.9,0.6-1.7,1.3-2.3,2.1c-0.6,0.9-1.1,1.8-1.4,2.9c-0.3,1.1-0.4,2.2-0.3,3.4
					c0.1,1.4,0.4,2.6,0.9,3.6c0.5,1,1.1,1.9,1.8,2.6c0.7,0.7,1.6,1.2,2.6,1.6C292.4,280.2,293.5,280.4,294.7,280.3z"/>
				<path class="st2" d="M313.5,258.2c6.4-0.8,9.6-1.2,16-2.2c0.4,2.5,0.6,3.7,1,6.2c-1.2,0.2-1.8,0.3-3,0.5
					c-0.2-1.5-0.3-2.2-0.6-3.7c-3.2,0.5-4.8,0.7-8,1.1c0.4,2.8,0.6,4.2,0.9,7.1c2.7-0.4,4.1-0.6,6.8-1c0.1,1,0.2,1.5,0.4,2.5
					c-2.7,0.4-4.1,0.6-6.9,1c0.4,3,0.6,4.5,1,7.5c3.3-0.4,5-0.7,8.3-1.2c-0.2-1.5-0.3-2.2-0.6-3.7c1.2-0.2,1.9-0.3,3.1-0.5
					c0.4,2.5,0.6,3.7,1,6.2c-6.7,1-10,1.5-16.7,2.3c-0.1-1-0.2-1.5-0.3-2.5c0.9-0.1,1.3-0.2,2.2-0.3c-0.9-6.8-1.3-10.3-2.2-17.1
					c-0.9,0.1-1.3,0.2-2.1,0.3C313.7,259.7,313.7,259.2,313.5,258.2z"/>
				<path class="st2" d="M346.2,253.1c2.9-0.6,4.3-0.8,7.2-1.4c0.2,1,0.3,1.5,0.5,2.5c-0.8,0.2-1.1,0.2-1.9,0.4
					c1.6,7.8,2.4,11.6,3.9,19.4c-1.6,0.3-2.3,0.5-3.9,0.8c-5.7-6.4-8.5-9.7-13.9-16.3c1.1,6.3,1.6,9.5,2.7,15.7
					c1-0.2,1.4-0.2,2.4-0.4c0.2,1,0.3,1.5,0.4,2.5c-3,0.5-4.5,0.8-7.5,1.3c-0.2-1-0.2-1.5-0.4-2.5c0.9-0.1,1.3-0.2,2.1-0.4
					c-1.1-6.8-1.7-10.2-2.8-17c-0.8,0.1-1.3,0.2-2.1,0.4c-0.2-1-0.2-1.5-0.4-2.5c2.4-0.4,3.6-0.6,6-1c5.3,6.5,8.1,9.7,13.7,16.1
					c0-0.3,0-0.4,0-0.7c-1.2-5.9-1.7-8.9-2.9-14.8c-1,0.2-1.5,0.3-2.5,0.5C346.5,254.6,346.4,254.1,346.2,253.1z"/>
			</g>
		</g>
	</g>
	<g>
		<g>
			<g>
				<path class="st0" d="M204.6,448c-1.2-0.2-2.4-0.6-3.4-1.2c-1-0.6-1.9-1.4-2.6-2.3c-0.7-0.9-1.3-2-1.7-3.2
					c-0.4-1.2-0.6-2.5-0.6-3.8c0-1.5,0.2-2.8,0.7-4.1c0.5-1.3,1.1-2.4,2-3.3c0.9-0.9,1.9-1.7,3.1-2.2c1.2-0.5,2.5-0.8,3.9-0.8
					c1.4,0,2.7,0.3,3.9,0.8c1.2,0.5,2.2,1.3,3.1,2.2c0.9,0.9,1.5,2.1,2,3.3c0.5,1.3,0.7,2.6,0.7,4.1c0,1.4-0.2,2.6-0.6,3.8
					c-0.4,1.2-1,2.3-1.7,3.2c-0.7,0.9-1.6,1.7-2.7,2.3c-1,0.6-2.2,1-3.4,1.1c0.6,0.2,1,0.3,1.4,0.5c0.3,0.2,0.8,0.4,1.3,0.7
					c0.5,0.3,1,0.4,1.6,0.4c0.5,0,1-0.1,1.4-0.4c0.4-0.3,0.7-0.6,0.8-1.2l2,0.9c-0.1,0.5-0.3,0.9-0.6,1.3c-0.3,0.4-0.6,0.7-1,0.9
					c-0.4,0.3-0.8,0.4-1.2,0.6c-0.4,0.1-0.9,0.2-1.3,0.2c-0.7,0-1.3-0.1-1.9-0.4c-0.6-0.2-1.2-0.6-1.9-0.9c-0.7-0.4-1.3-0.5-1.9-0.5
					c-0.4,0-0.7,0.1-1.1,0.2V448z M205.9,445.6c1.1,0,2-0.2,2.9-0.7c0.9-0.4,1.6-1,2.2-1.8c0.6-0.7,1.1-1.6,1.4-2.6
					c0.3-1,0.5-2,0.5-3.1c0-1.1-0.2-2.2-0.5-3.2c-0.4-1-0.9-1.9-1.5-2.6c-0.6-0.7-1.4-1.3-2.2-1.7c-0.8-0.4-1.7-0.6-2.7-0.6
					c-1.1,0-2,0.2-2.9,0.7c-0.9,0.4-1.6,1-2.2,1.8c-0.6,0.7-1.1,1.6-1.4,2.6c-0.3,1-0.5,2-0.5,3.1c0,1.2,0.2,2.3,0.5,3.3
					c0.4,1,0.8,1.8,1.4,2.4c0.6,0.7,1.3,1.2,2.2,1.6C204,445.4,204.9,445.6,205.9,445.6z"/>
			</g>
			<g>
				<path class="st0" d="M218.1,427.4h6.6v2.3h-2.1v9.4c0,1.1,0.1,2.1,0.4,2.9c0.3,0.8,0.6,1.4,1.1,1.9c0.4,0.5,1,0.9,1.6,1.1
					c0.6,0.2,1.3,0.3,2,0.3c0.8,0,1.5-0.1,2.1-0.3c0.6-0.2,1.2-0.5,1.6-1c0.5-0.5,0.8-1.1,1.1-1.9c0.3-0.8,0.4-1.8,0.4-3v-9.4h-2.2
					v-2.3h6.6v2.3h-1.8v9.1c0,1.5-0.2,2.8-0.6,3.9c-0.4,1.1-1,2.1-1.7,2.8c-0.7,0.8-1.5,1.3-2.5,1.7s-2,0.6-3.1,0.6
					c-1.1,0-2.1-0.2-3-0.6c-0.9-0.4-1.7-1-2.4-1.7c-0.7-0.8-1.2-1.7-1.6-2.8c-0.4-1.1-0.6-2.3-0.6-3.7v-9.4h-1.9V427.4z"/>
			</g>
			<g>
				<path class="st0" d="M239.1,427.4h14.5v5.7h-2.7v-3.4h-7.2v6.5h6.1v2.3h-6.1v6.9h7.2V442h2.7v5.7h-14.5v-2.3h1.9v-15.6h-1.9
					V427.4z"/>
			</g>
			<g>
				<path class="st0" d="M262.3,445.4h1.9V430h-1.9v-2.6h6.4l6.4,17.5l6.5-17.5h6.1v2.6h-1.9v15.4h1.9v2.3h-6.6v-2.3h2.2v-15.5
					l-7.1,17.8h-2.3l-7.2-17.9v15.6h2.1v2.3h-6.6V445.4z"/>
			</g>
			<g>
				<path class="st0" d="M291.5,427.4H306v5.7h-2.7v-3.4H296v6.5h6.1v2.3H296v6.9h7.2V442h2.7v5.7h-14.5v-2.3h1.9v-15.6h-1.9V427.4z
					"/>
			</g>
		</g>
		<g>
			<g>
				<path class="st0" d="M186.7,438.6c-16.7-9.2-17.7-21.5-22.6-19.4c-2.6,1.1-3.7,5.8,0.9,9.7C174.4,437.1,186.7,438.6,186.7,438.6
					z"/>
			</g>
			<g>
				<path class="st0" d="M189.4,444.2c-28-3.5-36-19.9-41.6-14.3c-2.9,2.9-2,9.9,6.5,12.9C171.8,448.7,189.4,444.2,189.4,444.2z"/>
			</g>
			<g>
				<path class="st0" d="M189.3,432.1c-9.6-9-8.1-17.4-11.8-16.8c-1.9,0.3-3.5,3.2-1.1,6.7C181.4,429,189.3,432.1,189.3,432.1z"/>
			</g>
		</g>
		<g>
			<g>
				<path class="st0" d="M315.5,439.1c16.7-9.2,17.6-21.5,22.5-19.4c2.6,1.1,3.7,5.7-0.9,9.7C327.8,437.5,315.5,439.1,315.5,439.1z"
					/>
			</g>
			<g>
				<path class="st0" d="M312.8,444.6c27.9-3.5,35.9-19.9,41.5-14.3c2.9,2.9,2,9.9-6.5,12.9C330.4,449.2,312.8,444.6,312.8,444.6z"
					/>
			</g>
			<g>
				<path class="st0" d="M312.9,432.6c9.6-9,8.1-17.4,11.8-16.8c1.9,0.3,3.5,3.2,1.1,6.7C320.8,429.4,312.9,432.6,312.9,432.6z"/>
			</g>
		</g>
	</g>
</g>
</svg>
