<?xml version="1.0" encoding="utf-8"?>
<!-- Generator: Adobe Illustrator 25.3.0, SVG Export Plug-In . SVG Version: 6.00 Build 0)  -->
<svg version="1.1" id="Capa_1" xmlns="http://www.w3.org/2000/svg" xmlns:xlink="http://www.w3.org/1999/xlink" x="0px" y="0px"
	 viewBox="0 0 566.9 566.9" style="enable-background:new 0 0 566.9 566.9;" xml:space="preserve">
<style type="text/css">
	.st0{fill:#E52521;}
</style>
<g>
	<path class="st0" d="M284.7,96.4c-6.6,6.2-11.6,13.3-15.5,21.2c-3.9,7.9-6.4,16.1-7.6,24.9c-0.3,0-0.5,0-0.8,0c-30.5,0-61,0-91.5,0
		c-0.7,0-1-0.1-1.1-0.9c-2.2-14.7-7.9-28-17.5-39.4c-1.7-2-3.5-3.8-5.2-5.7c2.2-1,6.2-0.7,8.7,0.5c2.8,1.4,4.7,3.7,6.3,6.6
		c0.1-0.7,0.2-1.3,0.3-1.8c0.9-4.3,4.2-6.6,8.5-5.7c1,0.2,2,0.5,2.9,0.9c1.4,0.6,2.3,1.7,2.6,3.3c0.5,2.7-0.4,5.1-1.5,7.5
		c-0.1-0.1-0.2-0.1-0.2-0.1c-1-2.2-2.2-2.9-4.5-2.5c-2.5,0.4-3.7,1.7-3.7,4.1c0,3.8,1.6,6.9,4.2,9.6c2.4,2.5,5.2,3.8,8.7,3.7
		c2.1-0.1,3.8-1.1,5-2.7c1.9-2.5,2.6-5.5,2.9-8.6c0.2-1.6,0.2-3.2,0.3-5c0.2,0.5,0.4,0.8,0.5,1.1c1.9,4.1,4.1,7.8,7.5,10.8
		c1.6,1.4,3.4,2.5,5.4,3.1c3.5,0.9,6.6,0.1,8.9-2.7c4-4.9,4.9-10.4,3-16.3c-1.4-4.1-4.6-6-8.8-6.3c-2.1-0.2-4.3,0.1-6.6,0.2
		c0,0.1,0,0,0,0c1.2-3.9,3.9-6.3,8-6.1c2.2,0.1,4.2,0.8,6.4,1.8c-0.2-0.5-0.3-0.8-0.5-1.1c-1.8-3.8-3-7.6-2.7-11.9
		c0.2-3,1.3-5.8,3.2-8.2c2.4-3,6.7-2.9,9,0.1c3.4,4.4,3.9,9.3,2.5,14.5c-0.5,1.9-1.3,3.7-2,5.5c-0.1,0.3-0.3,0.6-0.5,1.1
		c0.6-0.2,0.9-0.4,1.2-0.5c2.3-0.9,4.6-1.6,7.1-1.2c3,0.5,5.7,3.2,6.1,6.3c-0.8-0.1-1.5-0.3-2.2-0.4c-2.4-0.3-4.7-0.3-7,0.4
		c-3.2,1-5.4,3.1-6.3,6.2c-1.6,5.6-0.8,10.8,2.7,15.5c2.9,3.8,7.4,4.6,11.8,2.2c2.9-1.6,5.2-4,6.9-6.7c1.3-2,2.3-4.1,3.5-6.1
		c0.1-0.2,0.3-0.5,0.5-0.9c0.1,1.8,0.2,3.4,0.4,5c0.2,2.2,0.7,4.4,1.7,6.5c2,4.2,5.4,5.7,9.8,4.3c4.9-1.5,9.1-6.9,9.4-12
		c0-0.2,0-0.5,0-0.7c-0.1-3.2-3.1-5.3-6.1-4.2c-1.2,0.4-1.8,1.3-2.2,2.4c-0.1,0-0.2,0-0.2,0c-1.2-2.2-1.9-4.6-1.6-7.1
		c0.2-1.4,0.8-2.6,2.1-3.3c2-1.2,4.2-1.7,6.5-1.3c2.8,0.4,4.9,2.6,5.5,5.7c0.1,0.5,0.2,1.1,0.3,1.8
		C272.8,97.5,277.6,94.8,284.7,96.4z"/>
	<path class="st0" d="M169,157c-0.2-3.6-0.4-7.1-0.6-10.7c30.9,0,61.7,0,92.6,0c-0.2,3.6-0.4,7.1-0.6,10.7
		C229.9,157,199.4,157,169,157z"/>
</g>
<g>
	<path d="M71.6,214.2c-7.8-7.8-11.7-17.3-11.7-28.3c0-11,3.9-20.5,11.7-28.3c7.8-7.8,17.3-11.7,28.3-11.7c8,0,14.2,0.6,18.5,1.7
		c2.2,0.6,4.4,0.8,6.7,0.8l0.9,23.1h-1.2c-8.6-16-18.1-23.9-28.3-23.9c-5.8,0-10.1,2.2-12.9,6.5c-2.8,4.3-4.2,10.9-4.2,19.8
		c0,5.9,0.8,12.2,2.5,18.8c2.2,9,5.3,16.1,9.4,21.2c4,5.1,9.7,7.6,17,7.6c1.5,0,2.2-0.5,2.2-1.5v-19.1c0-3.2-1.3-5.8-3.8-8
		c-2.5-2.1-5.6-3.5-9.3-4.1v-1.4h34.3c-0.9,1-1.6,2.7-2.2,5.2c-0.6,2.4-0.9,4.8-0.9,7.3v18.1c-3.6,2.5-8.1,4.5-13.6,5.9
		c-5.5,1.4-10.6,2.1-15.1,2.1C88.9,225.9,79.5,222,71.6,214.2z"/>
	<path d="M180.4,222.9v-9.7c-3.6,8.7-10.3,13-20,13c-3.5,0-7.1-1.4-10.9-4.1c-3.8-2.8-5.7-7.8-5.7-15.2v-17.7c0-1-0.2-2.1-0.7-3.6
		c-0.5-1.4-1.3-2.7-2.5-3.8c-1.2-1.1-2.8-1.7-4.8-1.8l23.8-9.5c2,0.3,3,1.4,3,3.3v34.1c0,4.4,0.8,7.8,2.4,10.2
		c1.6,2.4,3.2,3.6,4.7,3.6c1.5,0,3.3-0.9,5.4-2.6c2.1-1.8,3.9-5.2,5.4-10.2v-19.5c0-1-0.3-2.1-0.8-3.6c-0.5-1.4-1.4-2.7-2.5-3.8
		c-1.2-1.1-2.8-1.7-4.8-1.8l23.8-9.5c2.1,0.3,3.1,1.4,3.1,3.3v38.7c0,0.9,0.3,1.9,0.9,2.8c0.6,1,1.4,1.5,2.4,1.5
		c0.2,0,1.7-0.3,4.4-0.8l0.4,0.8l-23.8,9.6C181.4,225.9,180.4,224.8,180.4,222.9z"/>
	<path d="M238.4,226.1c-7.8,0-14.4-2.7-19.8-8.2c-5.5-5.5-8.2-12.1-8.2-19.8c0-7.8,2.7-14.4,8.2-19.8c5.5-5.5,12.1-8.2,19.8-8.2
		c8.2,0,13.9,2.5,17.2,7.4c1.8,2.7,2.7,5.2,2.7,7.5c0,1.8-0.6,3.5-1.7,5l-27.2,7.3c3.6,8.3,7.7,13.8,12.3,16.5
		c4.6,2.7,8.1,4.1,10.7,4.1c2.3,0,4.6-0.7,6.9-2c0.2,0.1,0.3,0.2,0.3,0.3c0,0.1-0.1,0.3-0.3,0.6C253.7,223,246.7,226.1,238.4,226.1z
		 M228.8,195.9l9.5-2.6c2-1.6,3.1-4.6,3.1-9c0-2.5-0.5-5.1-1.5-7.9c-1-2.8-2.9-4.1-5.5-4.1c-5.7,0-8.6,3.1-8.6,9.4
		C225.7,186.1,226.8,190.9,228.8,195.9z"/>
	<path d="M293.4,224.6h-18.8c-1,0-1.8-0.3-2.4-0.9c-0.7-0.6-1-1.4-1-2.4v-32.2c0-0.9-0.2-2.1-0.7-3.6c-0.5-1.5-1.3-2.7-2.5-3.8
		c-1.2-1.1-2.8-1.7-4.8-1.8l23.8-9.6c1.9,0,2.9,1.1,3,3.3v5.2c4-5.7,8-8.5,12.2-8.5c4,0,6.8,0.9,8.4,2.7c1.7,1.8,2.5,4.3,2.5,7.3
		c0,3.9-1,6.8-2.9,8.6c-1.9,1.8-4.1,2.7-6.5,2.7c-1.8,0-3.4-0.6-4.9-1.7c-1.5-1.1-2.3-3.1-2.3-6c0-4.1-1-6.1-3.1-6.1
		c-1,0-1.8,0.6-2.4,1.8c-0.6,1.2-1,4.6-1,10.4v21.8c0,2.5,0.4,4.8,1.1,7.2c0.7,2.3,1.5,3.9,2.4,4.7V224.6z"/>
	<path d="M347.7,224.6H329c-1,0-1.8-0.3-2.4-0.9c-0.7-0.6-1-1.4-1-2.4v-32.2c0-0.9-0.2-2.1-0.7-3.6c-0.5-1.5-1.3-2.7-2.5-3.8
		c-1.2-1.1-2.8-1.7-4.8-1.8l23.8-9.6c1.9,0,2.9,1.1,3,3.3v5.2c4-5.7,8-8.5,12.2-8.5c4,0,6.8,0.9,8.4,2.7c1.7,1.8,2.5,4.3,2.5,7.3
		c0,3.9-1,6.8-2.9,8.6c-1.9,1.8-4.1,2.7-6.5,2.7c-1.8,0-3.4-0.6-4.9-1.7c-1.5-1.1-2.3-3.1-2.3-6c0-4.1-1-6.1-3.1-6.1
		c-1,0-1.8,0.6-2.4,1.8c-0.6,1.2-1,4.6-1,10.4v21.8c0,2.5,0.4,4.8,1.1,7.2c0.7,2.3,1.5,3.9,2.4,4.7V224.6z"/>
	<path d="M401.1,226.1c-7.8,0-14.4-2.7-19.8-8.2c-5.5-5.5-8.2-12.1-8.2-19.8c0-7.8,2.7-14.4,8.2-19.8c5.5-5.5,12.1-8.2,19.8-8.2
		c8.2,0,13.9,2.5,17.2,7.4c1.8,2.7,2.7,5.2,2.7,7.5c0,1.8-0.6,3.5-1.7,5l-27.2,7.3c3.6,8.3,7.7,13.8,12.3,16.5
		c4.6,2.7,8.1,4.1,10.7,4.1c2.3,0,4.6-0.7,6.9-2c0.2,0.1,0.3,0.2,0.3,0.3c0,0.1-0.1,0.3-0.3,0.6C416.4,223,409.4,226.1,401.1,226.1z
		 M391.6,195.9l9.5-2.6c2-1.6,3.1-4.6,3.1-9c0-2.5-0.5-5.1-1.5-7.9c-1-2.8-2.9-4.1-5.5-4.1c-5.7,0-8.6,3.1-8.6,9.4
		C388.5,186.1,389.5,190.9,391.6,195.9z"/>
	<path d="M456.2,224.6h-18.8c-1,0-1.8-0.3-2.4-0.9c-0.7-0.6-1-1.4-1-2.4v-32.2c0-0.9-0.2-2.1-0.7-3.6c-0.5-1.5-1.3-2.7-2.5-3.8
		c-1.2-1.1-2.8-1.7-4.8-1.8l23.8-9.6c1.9,0,2.9,1.1,3,3.3v5.2c4-5.7,8-8.5,12.2-8.5c4,0,6.8,0.9,8.4,2.7c1.7,1.8,2.5,4.3,2.5,7.3
		c0,3.9-1,6.8-2.9,8.6c-1.9,1.8-4.1,2.7-6.5,2.7c-1.8,0-3.4-0.6-4.9-1.7c-1.5-1.1-2.3-3.1-2.3-6c0-4.1-1-6.1-3.1-6.1
		c-1,0-1.8,0.6-2.4,1.8c-0.6,1.2-1,4.6-1,10.4v21.8c0,2.5,0.4,4.8,1.1,7.2c0.7,2.3,1.5,3.9,2.4,4.7V224.6z"/>
	<path d="M492.8,226.1c-2.2,0-4-0.5-5.6-1.4c-1.6-0.9-2.7-2.2-3.4-3.7c-0.7-1.5-1-2.9-1-4.3c0-2.5,1.5-5.3,4.5-8.4
		c3-3.1,10.7-7.6,23.2-13.4l0.1-8.9c0-4.8-0.3-8.3-0.9-10.7c-0.7-2.5-2.3-3.7-5.1-3.7c-1.6,0-2.9,0.5-3.7,1.5
		c-0.8,1-1.3,2.9-1.3,5.7c0,0.7,0,1.4,0.1,2.1c0,0.7,0.1,1.3,0.1,1.9c0,3.6-0.8,6-2.4,7.1c-1.6,1.1-3.8,1.7-6.6,1.7
		c-1.8,0-3.5-0.5-4.8-1.5c-1.4-1-2-2.7-2-5.1c0-1.6,1-3.6,2.9-6.1c1.9-2.4,4.8-4.5,8.7-6.3c3.9-1.7,7.8-2.6,11.7-2.6
		c6.5,0,11.8,1.5,15.9,4.6c4.1,3.1,6.2,8.2,6.2,15.5l0.1,22.5c0.1,4.1,1.9,6.1,5.3,6.1c1.8,0,3.5-0.5,5.3-1.5l0.6,1.1l-15.7,6.7
		c-1.4,0.7-2.9,1-4.5,1c-1.7,0-3.4-0.6-5.1-1.7c-1.7-1.1-3-2.6-4-4.5C505,223.9,498.9,226,492.8,226.1z M509.2,216.4l1.3-0.1
		l-0.1-19.8c-6.9,4.1-10.3,7.9-10.3,11.6c0,2.6,0.9,4.7,2.7,6.1C504.7,215.7,506.8,216.4,509.2,216.4z"/>
	<path d="M276.7,349c-3.5,2.1-7.3,3.1-11.4,3.1c-5,0-9.5-1.3-13.4-3.7c-3.9-2.4-6.8-5.9-8.7-10.3c-1.6-3.8-2.4-7.7-2.4-11.8
		c0-3,0.4-6.2,1.2-9.4c2.1-7.6,6.2-13.3,12.3-17.1c3.9-2.4,8.1-3.7,12.7-3.7c3.6,0,6.9,0.5,9.7,1.6v-9.6c0-1-0.3-2.2-0.8-3.7
		c-0.5-1.4-1.4-2.7-2.5-3.8c-1.2-1.1-2.8-1.7-4.8-1.7l23.9-9.6c2,0.3,3,1.4,3,3.3v65.6c0,0.9,0.3,1.9,1,2.9c0.6,0.9,1.4,1.4,2.4,1.4
		c1.2,0,2.6-0.3,4.4-0.8l0.4,0.8l-23.9,9.6C277.9,352.1,276.9,351.1,276.7,349z M276.7,346.7v-47.1c-2.6-1.1-5.3-1.6-7.9-1.6
		c-5.2,0-8.3,2.4-9.3,7.2c-0.5,2.3-0.7,4.7-0.7,7.3c0,4.6,0.8,9.7,2.4,15.3c3.7,12.7,8.3,19.1,13.8,19.1
		C275.5,347,276.1,346.9,276.7,346.7z"/>
	<path d="M335.7,352.1c-7.8,0-14.4-2.7-19.8-8.2c-5.5-5.5-8.2-12.1-8.2-19.8c0-7.8,2.7-14.4,8.2-19.8c5.5-5.5,12.1-8.2,19.8-8.2
		c8.2,0,13.9,2.5,17.2,7.4c1.8,2.7,2.7,5.2,2.7,7.5c0,1.8-0.6,3.5-1.7,5l-27.2,7.3c3.6,8.3,7.7,13.8,12.3,16.5
		c4.6,2.7,8.1,4.1,10.7,4.1c2.3,0,4.6-0.7,6.9-2c0.2,0.1,0.3,0.2,0.3,0.3c0,0.1-0.1,0.3-0.3,0.6C351,349,344,352.1,335.7,352.1z
		 M326.2,321.9l9.5-2.6c2-1.6,3.1-4.6,3.1-9c0-2.5-0.5-5.1-1.5-7.9c-1-2.8-2.9-4.1-5.5-4.1c-5.7,0-8.6,3.1-8.6,9.4
		C323,312.1,324.1,316.8,326.2,321.9z"/>
	<path d="M218.5,477.8c-3.3,0-6.9-0.2-10.6-0.6c-3.8-0.4-7.6-0.6-11.4-0.6h-10.7v-1.4c2-0.1,3.8-1,5.3-2.7c1.5-1.7,2.2-3.6,2.2-5.9
		v-58.4c0-1.9-0.7-3.8-2-5.6c-1.3-1.8-3.2-2.8-5.6-3v-0.7h30.9c12.5,0,23,3.4,31.4,10.2c8.4,6.8,12.6,15.8,12.7,27.1
		c0,11.9-3.8,21.8-11.4,29.5C241.7,473.5,231.4,477.6,218.5,477.8z M221.8,475.4c6.2,0,10.9-1.7,14-5.2c3.2-3.5,4.8-10.5,4.8-21.2
		c0-12.8-2.6-23.6-7.7-32.3c-5.1-8.7-12-14-20.4-15.9v66.9C213.7,472.9,216.8,475.4,221.8,475.4z"/>
	<path d="M312.1,469.9c-5.7-5.5-8.5-12.1-8.5-19.8s2.8-14.3,8.5-19.8c5.7-5.5,12.6-8.2,20.6-8.2c8.1,0,14.9,2.7,20.6,8.2
		c5.7,5.5,8.5,12.1,8.5,19.8s-2.8,14.3-8.5,19.8c-5.7,5.5-12.6,8.2-20.6,8.2C324.7,478.1,317.8,475.3,312.1,469.9z M342.1,472.4
		c1-1.8,1.6-4.8,1.7-9.2c0-5.4-1-11.4-3-18c-2.3-6.9-4.7-12-7.3-15.3c-2.6-3.2-4.9-4.8-6.7-4.8c-1.3,0-2.5,0.9-3.5,2.7
		c-1,1.8-1.6,4.8-1.6,9.2c0,5.3,1,11.3,3,18c2.3,6.9,4.7,12,7.3,15.3c2.6,3.2,4.9,4.8,6.7,4.8C340,475.1,341.1,474.2,342.1,472.4z"
		/>
	<path d="M376.1,476.8c-4.4-0.9-6.6-2-6.6-3.4c0-0.1,0.9-4.6,2.8-13.4l1-0.1c3.8,5.2,7.5,9.1,10.9,11.8c3.4,2.7,6.4,4.1,9,4.1
		c2.1,0,3.7-0.5,4.9-1.5c1.2-1,1.8-2.6,1.8-4.7c0-2.3-1.2-4.3-3.7-6c-2.5-1.7-5.4-3.2-8.7-4.6c-4.8-2-9.2-4.6-13.2-7.8
		c-4-3.2-6.1-7.8-6.2-13.8c0-4.2,2-7.8,6-10.8c4-3,9.4-4.5,16.2-4.5c11.8,0,17.8,2.1,17.9,6.2l-0.4,11.7l-1.4-0.1
		c-1.2-3.6-4-7-8.2-10.5c-4.3-3.4-8.3-5.1-12.2-5.1c-2,0-3.5,0.4-4.6,1.1c-1.1,0.7-1.6,1.8-1.6,3.3c0,2.1,1.1,3.8,3.3,5.2
		c2.2,1.4,5.1,2.9,8.7,4.3c5,1.9,9.8,4.6,14.4,7.8c4.6,3.3,6.9,8,6.9,14.3c0,5.4-2.8,9.7-8.3,12.9c-5.5,3.2-11.1,4.8-16.8,4.8
		C384.5,478.2,380.5,477.7,376.1,476.8z"/>
</g>
<g>
	<path d="M300.2,464.8c-0.3,0.5-0.5,1-0.8,1.5c-1,2.2-1.9,4.5-2.6,6.8c-0.5,1.6-0.9,3.3-1.4,4.9c0,0,0,0.1,0,0.1
		c-0.2-0.3-0.4-0.6-0.5-0.9c-1.3-2.1-2.6-4.3-3.9-6.4c-1.2-1.9-2.4-3.7-3.5-5.6c-1.4-2.1-2.7-4.3-4.1-6.4c-0.5-0.8-1-1.7-1.6-2.6
		c0-0.1-0.1-0.1-0.1-0.2c-0.1,0.2-0.2,0.3-0.3,0.4c-1.6,2.6-3.3,5.2-4.9,7.8c-1.8,2.8-3.6,5.7-5.4,8.5c-1.1,1.7-2.1,3.5-3.1,5.2
		c0,0-0.1,0.1-0.1,0.2c-0.1-0.3-0.1-0.5-0.2-0.8c-0.5-2-1.1-4.1-1.8-6c-0.8-2.2-1.6-4.3-2.7-6.4c0-0.1-0.1-0.1-0.1-0.2
		c0,0,0-0.1,0-0.1c0.2-0.3,0.5-0.6,0.7-0.9c1.6-2.1,3.2-4.2,4.7-6.3c2.1-2.9,4.1-5.9,5.8-9c0.5-0.8,0.9-1.6,1.4-2.4
		c0.1-0.1,0.1-0.2,0-0.3c-1.4-2.5-2.6-5-3.8-7.6c-1.4-3.1-2.7-6.3-3.6-9.6c-0.5-1.8-0.9-3.6-1.2-5.4c-0.3-2-0.4-3.9-0.3-5.9
		c0.2-2.7,0.9-5.2,2.4-7.4c1-1.5,2.2-2.7,3.7-3.7c0.9-0.6,1.8-1.2,2.8-1.6c1.6-0.7,3.3-1.2,5-1.3c0.1,0,0.1,0,0.2,0
		c0.5,0,0.9,0,1.4,0c0.4,0,0.7,0.1,1.1,0.1c1.8,0.2,3.5,0.8,5.1,1.7c1.3,0.7,2.6,1.6,3.7,2.7c1.9,1.9,3.2,4.2,3.8,6.8
		c0.4,1.8,0.6,3.7,0.4,5.6c-0.1,1.1-0.2,2.3-0.4,3.4c-0.3,1.8-0.7,3.6-1.2,5.3c-1.1,3.6-2.5,7.1-4.1,10.5c-1.1,2.2-2.2,4.4-3.3,6.6
		c-0.1,0.1-0.1,0.2,0,0.3c1,1.7,2,3.5,3.1,5.2c1.1,1.9,2.3,3.7,3.6,5.4c1.7,2.2,3.3,4.5,5,6.7c0.3,0.3,0.5,0.7,0.8,1
		C300,464.6,300.1,464.7,300.2,464.8C300.2,464.8,300.2,464.8,300.2,464.8z M289.7,406.5c0.4,0.7,0.7,1.5,1,2.4
		c0.2,0.8,0.3,1.6,0.3,2.4c0,0.9,0,1.8,0,2.7c0,0.8-0.1,1.7-0.2,2.5c-0.1,1-0.2,1.9-0.4,2.9c-0.4,2.1-1,4.1-1.9,6
		c-1,2.3-2.3,4.5-3.6,6.7c-1.8,3-3.7,6-5.5,9c-1.5,2.4-2.9,4.9-4.3,7.4c-2,3.4-4.1,6.7-6.4,9.8c-1.6,2.1-3.2,4.2-4.8,6.3
		c-0.1,0.1-0.1,0.2-0.1,0.3c1.5,3.1,2.7,6.2,3.7,9.5c0.2,0.6,0.4,1.2,0.5,1.9c0-0.1,0.1-0.1,0.1-0.2c0.4-0.6,0.7-1.3,1.1-1.9
		c2-3.2,4-6.4,6-9.6c2-3.2,4-6.4,6-9.7c1.8-2.9,3.5-5.9,5.1-8.9c1.7-3.1,3.3-6.3,4.7-9.6c1.4-3.1,2.6-6.3,3.4-9.7
		c0.5-2,0.9-4.1,1.1-6.2c0.1-1.6,0.1-3.2-0.2-4.8c-0.4-2.6-1.4-4.9-3.1-6.9C291.7,408.1,290.8,407.2,289.7,406.5z M281.6,436.2
		c0.3-0.4,0.5-0.8,0.7-1.2c1.2-2,2.4-4,3.6-6c1-1.8,1.9-3.6,2.6-5.5c0.5-1.4,1-2.8,1.2-4.3c0.1-0.9,0.3-1.9,0.4-2.8
		c0.1-0.9,0.2-1.8,0.2-2.8c0-0.2,0-0.2-0.2-0.3c-2.2-1.4-4.6-2.2-7.3-2.3c-1.4-0.1-2.8,0.1-4.2,0.3c-2.1,0.4-4,1.2-5.6,2.6
		c-0.1,0-0.1,0.2-0.1,0.2c0,0.4,0,0.7,0.1,1.1c0.1,1.1,0.2,2.3,0.4,3.4c0.2,1.4,0.5,2.7,1,4c0.7,2.1,1.6,4,2.7,5.9
		c1,1.7,2,3.4,3,5.1C280.6,434.5,281.1,435.3,281.6,436.2z M276.3,445.3c0,0,0-0.1,0.1-0.1c1.5-2.6,3-5.2,4.6-7.7
		c0.1-0.2,0.3-0.4,0.3-0.6c0-0.2-0.2-0.4-0.3-0.6c0,0-0.1-0.1-0.1-0.1c-1.2-1.9-2.3-3.8-3.5-5.7c-1.4-2.4-2.6-4.9-3.5-7.5
		c-0.4-1.2-0.8-2.5-1-3.8c-0.1-1-0.3-2-0.4-3c-0.1-0.9-0.2-1.9-0.2-2.8c0-0.7,0-1.4,0.1-2.2c0.1-1.1,0.3-2.2,0.7-3.2
		c0.2-0.5,0.4-0.9,0.6-1.4c0,0,0,0,0,0c-2,1.3-3.5,3-4.6,5.2c-1,1.9-1.4,4-1.5,6.1c-0.1,1.3,0,2.7,0.1,4c0.2,1.5,0.4,3,0.8,4.4
		c0.8,3.2,1.9,6.3,3.2,9.4c1.1,2.7,2.4,5.3,3.8,7.9C275.6,444.1,275.9,444.7,276.3,445.3z M295.1,476.3c0.4-1.2,0.7-2.4,1.1-3.5
		c0.9-2.7,1.9-5.3,3.1-7.8c0.1-0.1,0-0.2,0-0.3c-1.7-2.3-3.4-4.5-5.1-6.8c-2.2-3-4.2-6.1-6-9.3c-0.4-0.6-0.7-1.2-1.1-1.9
		c-0.1,0.1-0.1,0.2-0.2,0.3c-0.5,0.9-1,1.8-1.5,2.7c-1.1,1.8-2.1,3.7-3.2,5.5c-0.1,0.1-0.1,0.2,0,0.4c1.3,2.2,2.7,4.3,4,6.5
		c1.5,2.3,2.9,4.6,4.4,7c1.1,1.7,2.1,3.4,3.2,5.1C294.2,474.8,294.6,475.6,295.1,476.3z M290.4,412.6c-0.1-0.8-0.1-1.5-0.2-2.3
		c-0.1-0.9-0.3-1.8-0.7-2.7c-0.6-1.3-1.5-2.2-2.7-2.7c-1.4-0.6-2.9-1-4.4-1c-1.7-0.1-3.4,0.1-5,0.7c-0.7,0.3-1.4,0.5-2,1
		c-1,0.7-1.6,1.8-2,2.9c-0.4,1.1-0.5,2.2-0.6,3.3c0,0.4,0,0.9,0,1.3c0,0,0,0,0,0c0,0,0.1-0.1,0.1-0.1c1.2-0.9,2.6-1.6,4.1-2.1
		c1-0.3,2.1-0.4,3.2-0.6c1.3-0.1,2.5-0.1,3.8,0c1.6,0.2,3.2,0.7,4.7,1.4C289.4,412.1,289.9,412.3,290.4,412.6z"/>
	<path class="st0" d="M289.7,406.5c1.1,0.7,2,1.5,2.9,2.5c1.7,2,2.7,4.3,3.1,6.9c0.3,1.6,0.3,3.2,0.2,4.8c-0.1,2.1-0.5,4.1-1.1,6.2
		c-0.9,3.3-2.1,6.5-3.4,9.7c-1.4,3.3-3,6.5-4.7,9.6c-1.6,3-3.3,6-5.1,8.9c-2,3.2-4,6.5-6,9.7c-2,3.2-4,6.4-6,9.6
		c-0.4,0.6-0.8,1.3-1.1,1.9c0,0.1-0.1,0.1-0.1,0.2c-0.2-0.6-0.4-1.3-0.5-1.9c-1-3.3-2.2-6.4-3.7-9.5c-0.1-0.1,0-0.2,0.1-0.3
		c1.6-2.1,3.2-4.2,4.8-6.3c2.3-3.1,4.4-6.4,6.4-9.8c1.4-2.5,2.8-4.9,4.3-7.4c1.8-3,3.7-6,5.5-9c1.3-2.2,2.6-4.4,3.6-6.7
		c0.8-1.9,1.5-3.9,1.9-6c0.2-1,0.3-1.9,0.4-2.9c0.1-0.8,0.2-1.7,0.2-2.5c0-0.9,0-1.8,0-2.7c0-0.8-0.2-1.6-0.3-2.4
		C290.4,408.1,290.1,407.3,289.7,406.5z"/>
	<path class="st0" d="M276.3,445.3c-0.3-0.6-0.6-1.2-0.9-1.7c-1.4-2.6-2.6-5.2-3.8-7.9c-1.3-3.1-2.4-6.2-3.2-9.4
		c-0.4-1.5-0.6-2.9-0.8-4.4c-0.1-1.3-0.2-2.7-0.1-4c0.1-2.1,0.6-4.2,1.5-6.1c1.1-2.1,2.6-3.8,4.6-5.2c0,0,0,0,0,0
		c-0.2,0.4-0.4,0.9-0.6,1.4c-0.4,1-0.6,2.1-0.7,3.2c0,0.7-0.1,1.4-0.1,2.2c0,0.9,0.1,1.9,0.2,2.8c0.1,1,0.2,2,0.4,3
		c0.2,1.3,0.5,2.6,1,3.8c0.9,2.6,2.1,5.1,3.5,7.5c1.1,1.9,2.3,3.8,3.5,5.7c0,0,0.1,0.1,0.1,0.1c0.1,0.2,0.3,0.4,0.3,0.6
		c0,0.2-0.2,0.4-0.3,0.6c-1.5,2.6-3,5.2-4.6,7.7C276.3,445.2,276.3,445.3,276.3,445.3z"/>
	<path class="st0" d="M295.1,476.3c-0.5-0.8-0.9-1.5-1.4-2.3c-1-1.7-2.1-3.4-3.2-5.1c-1.5-2.3-3-4.6-4.4-7c-1.3-2.1-2.7-4.3-4-6.5
		c-0.1-0.1-0.1-0.2,0-0.4c1.1-1.8,2.2-3.6,3.2-5.5c0.5-0.9,1-1.8,1.5-2.7c0-0.1,0.1-0.2,0.2-0.3c0.4,0.6,0.7,1.3,1.1,1.9
		c1.8,3.2,3.8,6.3,6,9.3c1.7,2.3,3.4,4.5,5.1,6.8c0.1,0.1,0.1,0.2,0,0.3c-1.2,2.5-2.3,5.1-3.1,7.8
		C295.8,474,295.5,475.2,295.1,476.3z"/>
	<path class="st0" d="M290.4,412.6c-0.5-0.3-1-0.6-1.5-0.8c-1.5-0.7-3.1-1.2-4.7-1.4c-1.3-0.2-2.5-0.2-3.8,0
		c-1.1,0.1-2.1,0.3-3.2,0.6c-1.5,0.4-2.9,1.1-4.1,2.1c0,0-0.1,0.1-0.1,0.1c0,0,0,0,0,0c0-0.4,0-0.9,0-1.3c0.1-1.1,0.2-2.2,0.6-3.3
		c0.4-1.2,1-2.2,2-2.9c0.6-0.4,1.3-0.7,2-1c1.6-0.6,3.3-0.8,5-0.7c1.5,0.1,3,0.4,4.4,1c1.2,0.6,2.1,1.5,2.7,2.7
		c0.4,0.9,0.6,1.8,0.7,2.7C290.3,411.1,290.3,411.8,290.4,412.6z"/>
</g>
</svg>
