<?xml version="1.0" encoding="utf-8"?>
<!-- Generator: Adobe Illustrator 25.3.0, SVG Export Plug-In . SVG Version: 6.00 Build 0)  -->
<svg version="1.1" id="Layer_1" xmlns="http://www.w3.org/2000/svg" xmlns:xlink="http://www.w3.org/1999/xlink" x="0px" y="0px"
	 viewBox="0 0 841.89 1190.55" style="enable-background:new 0 0 841.89 1190.55;" xml:space="preserve">
<style type="text/css">
	.st0{fill:#28519F;}
	.st1{fill:#FFFFFF;}
</style>
<rect width="841.89" height="1190.55"/>
<g>
	<path class="st1" d="M509.25,602.62c0.65-0.23,1.66-0.45,3.03-0.67c1.62-0.26,2.64-0.45,3.06-0.56c-0.49-2.2-1.15-5.06-1.97-8.57
		C512.38,595.22,511.02,598.49,509.25,602.62z"/>
	<path class="st1" d="M583.41,917.89H285.66l20.89,22.35l-21.08,24.27h297.94L562.9,941.2L583.41,917.89z M565.22,958.38h-261
		l12.07-19.66l-12.07-14.18h261l-13.38,14.18L565.22,958.38z"/>
	<path class="st1" d="M269.56,590.4c1.63,0.18,2.66,0.27,3.09,0.28c-0.07-2.28-0.19-5.24-0.36-8.89c-1.4,2.08-3.34,4.9-5.82,8.46
		C267.15,590.2,268.18,590.25,269.56,590.4z"/>
	<path class="st1" d="M318.72,408.89c0.9,6.76,6.7,11.2,13.45,10.46c2.87-0.31,5.73-0.72,8.6-1.1c22.12-2.93,44.22-6.03,66.38-8.71
		c7.33-0.89,13.16-7.03,11.6-15.04c-0.58-3,0.42-3.78,3.44-2.99c0.64,0.17,1.25,0.48,1.85,0.77c6.8,3.33,13.77,4.71,21.46,3.58
		c18.09-2.67,36.26-4.89,54.39-7.29c8.87-1.17,17.75-2.27,26.6-3.54c12.05-1.73,24.2-2.68,36.13-5.16
		c6.55-1.36,12.59-4.06,17.33-8.88c9.09-9.25,10.34-20.44,6.47-32.14c-1.31-3.97-1.19-6.72,0.54-10.41
		c4.09-8.77,4.47-17.78-0.73-26.42c-0.67-1.11-0.6-1.79,0-2.83c5.84-10.1,7.3-20.39,0.97-30.87c-0.51-0.85-0.43-1.37,0.1-2.14
		c3.91-5.62,5.44-11.91,5.04-18.7c-0.86-14.81-11.82-24.18-26.39-22.43c-9.82,1.18-19.61,2.58-29.41,3.89
		c-12.17,1.63-24.35,3.27-36.52,4.91c-0.93,0.13-1.72,0.26-1.66-1.19c0.34-9.32,0.59-18.65,0.91-27.97
		c0.25-7.02-0.07-13.9-2.53-20.63c-4.52-12.38-10.74-23.83-17.92-34.84c-1.86-2.86-4.27-4.81-7.37-5.94
		c-9.87-3.61-19.44-2.89-28.45,2.57c-6.96,4.23-10.25,10.18-8.68,18.67c1.9,10.24,3.26,20.57,4.87,30.86
		c0.18,1.15,0.14,2.23-0.28,3.35c-1.59,4.27-3.03,8.61-4.67,12.86c-5.88,15.24-12.43,30.19-20.23,44.55
		c-1.86,3.42-3.84,6.78-6.38,9.76c-0.99,1.15-1.91,1.86-3.6,1.17c-1.61-0.66-3.4-0.55-5.17-0.31c-28.07,3.74-56.15,7.44-84.23,11.16
		c-7.51,0.99-12.3,7.13-11.3,14.68C308.44,331.4,313.57,370.15,318.72,408.89z M401.89,287.02c4.69-3.93,9.28-7.96,13.72-12.18
		c4.04-3.85,6.57-8.66,9.07-13.47c9.39-18.08,17.64-36.66,24.8-55.75c2.45-6.54,1.57-12.73,0.49-19.18
		c-1.44-8.55-2.63-17.14-3.99-25.71c-0.18-1.11,0.28-1.79,0.94-2.49c4.45-4.68,10.05-5.45,16.13-4.91c3.25,0.28,5.27,1.79,6.97,4.54
		c6.45,10.42,12.35,21.06,16.12,32.81c1.45,4.52,1.07,9.04,0.98,13.57c-0.27,13.35-0.56,26.7-1.47,40.03
		c-0.08,1.14-0.19,2.27-0.3,3.67l2.56-0.34c25.41-3.36,50.83-6.73,76.24-10.07c1.39-0.18,2.82-0.39,4.21-0.28
		c7.79,0.55,12.72,6.72,11.81,14.99c-0.85,7.67-4.63,13.36-12,16.26c-1.3,0.51-1.43,1.35-1.48,2.47c-0.06,1.35,1.05,1,1.7,1.16
		c12.21,2.99,13.04,14.23,7.2,22.87c-2.2,3.25-5.09,5.75-8.88,6.95c-1.42,0.44-1.17,1.45-1.32,2.34c-0.19,1.08,0.8,0.87,1.37,0.99
		c11.56,2.43,12.45,12.54,9.37,19.57c-2.17,4.95-5.58,8.7-10.85,10.41c-1.45,0.47-0.99,1.62-1.11,2.49
		c-0.13,0.96,0.83,0.61,1.33,0.7c6.73,1.25,10.61,7.6,9.09,14.88c-1.61,7.71-8.19,13.88-16.28,15.05
		c-9.32,1.35-18.65,2.59-27.98,3.84c-29,3.88-58.01,7.69-86.99,11.65c-4.82,0.66-9.19-0.17-13.47-2.24
		c-1.81-0.88-3.66-1.69-5.48-2.57c-3.15-1.52-6.43-1.81-9.82-1.02c-1.44,0.34-2.14,0.06-2.36-1.64
		c-3.77-28.89-7.6-57.77-11.45-86.65C400.62,288.55,400.97,287.8,401.89,287.02z M364.8,375.35c6.93-0.92,13.3,3.96,14.22,10.89
		c0.92,6.93-3.96,13.3-10.89,14.22s-13.3-3.96-14.22-10.89C352.99,382.63,357.86,376.26,364.8,375.35z"/>
	<polygon class="st1" points="218.93,385.92 52.25,359.36 80.81,428.42 27.02,482.88 117.99,501.47 133.93,408.5 	"/>
	<polygon class="st1" points="724.62,501.47 815.59,482.88 761.8,428.42 790.36,359.36 623.68,385.92 708.68,408.5 	"/>
	<polygon class="st1" points="218.93,393.88 165.43,409.33 218.93,419.44 	"/>
	<polygon class="st1" points="623.68,393.88 623.68,419.44 677.18,409.33 	"/>
	<path class="st1" d="M316.82,486.94c-1.91-0.17-3.46,0.43-4.65,1.82c-1.19,1.39-1.92,3.45-2.19,6.18
		c4.89,0.47,7.34,0.69,12.24,1.11c0.02-0.24,0.03-0.36,0.05-0.6c0.22-2.55-0.15-4.56-1.09-6.03
		C320.24,487.95,318.79,487.12,316.82,486.94z"/>
	<path class="st1" d="M600.94,499.16c0.18,1.11,0.73,1.95,1.68,2.53c0.94,0.58,2.07,0.76,3.37,0.55c1.61-0.26,2.81-0.97,3.6-2.11
		c0.79-1.14,1.04-2.56,0.76-4.24c-0.02-0.11-0.03-0.17-0.05-0.28c-0.36-1.97-0.55-2.95-0.91-4.92c-0.9,0.69-2.11,1.56-3.63,2.59
		C602.3,495.63,600.68,497.58,600.94,499.16z"/>
	<path class="st1" d="M714.61,528.8l-16.9-114.71c0,0-236.7,55.53-554.86,0L122.97,528.8c0,0,161.42,21.53,306.61,22.47
		C577.67,552.23,714.61,528.8,714.61,528.8z M587.66,474.67c3.83-2.84,9.71-4.46,14.24-5.11c3.39-0.49,6.56-0.82,9.35-0.76
		c2.79,0.06,4.97,0.42,6.54,1.09c1.89,0.8,3.32,1.89,4.27,3.28c0.95,1.39,1.72,3.7,2.32,6.96c1.07,5.87,1.61,8.8,2.68,14.67
		c0.18,1,0.42,1.62,0.71,1.88c0.29,0.26,0.77,0.33,1.43,0.21c0.66-0.12,1.1-0.36,1.3-0.73c0.2-0.36,0.22-1.03,0.04-2
		c-0.34-1.84-0.51-2.76-0.85-4.6c2.22-0.41,3.33-0.62,5.55-1.04c0.38,2,0.57,2.99,0.95,4.99c0.79,4.16,0.37,7.34-1.29,9.52
		c-1.66,2.18-4.76,3.7-9.3,4.51c-2.56,0.46-4.83,0.4-6.81-0.16c-1.98-0.56-3.75-1.66-5.31-3.29c-1.18,1.98-2.96,3.66-5.34,5
		c-2.38,1.35-5.23,2.29-8.52,2.8c-4.27,0.67-7.71,0.22-10.3-1.31c-2.59-1.53-4.13-4.03-4.62-7.49c-0.49-3.38,0.17-6.06,1.96-8.04
		c1.79-1.99,5.49-3.88,11.09-5.73c4.67-1.54,7.53-2.91,8.62-4.07c1.08-1.15,1.46-2.72,1.13-4.69c-0.33-1.95-1.28-3.37-2.85-4.29
		c-1.57-0.92-3.54-1.18-5.92-0.8c-0.78,0.13-1.56,0.36-2.34,0.72c-0.78,0.35-1.56,0.82-2.36,1.4c1.53,0.19,2.72,0.66,3.58,1.4
		c0.85,0.74,1.39,1.78,1.61,3.13c0.26,1.66-0.19,3.11-1.36,4.35c-1.18,1.24-2.88,2.03-5.09,2.37c-2.63,0.4-4.74,0.11-6.34-0.87
		c-1.6-0.98-2.55-2.55-2.86-4.71C583.04,479.92,584.43,477.07,587.66,474.67z M541.61,479.15c3.3-0.36,5.74-1.82,7.29-4.36
		c1.55-2.54,2.44-6.51,2.66-11.91c3.88-0.46,5.82-0.7,9.69-1.2c0.64,4.97,1.28,9.94,1.91,14.91c4.62-0.59,6.94-0.9,11.56-1.54
		c0.39,2.84,0.59,4.25,0.98,7.09c-4.65,0.65-6.98,0.96-11.63,1.55c0.89,6.93,1.78,13.86,2.67,20.78c0.2,1.56,0.59,2.67,1.17,3.34
		c0.58,0.66,1.39,0.93,2.42,0.79c1.28-0.17,2.09-0.86,2.44-2.08c0.35-1.22,0.29-3.54-0.17-6.98c-0.19-1.43-0.29-2.14-0.48-3.57
		c2.91-0.39,4.36-0.59,7.26-1c0.29,2.07,0.44,3.11,0.73,5.19c0.74,5.25,0.11,9.15-1.92,11.69c-2.03,2.54-5.76,4.18-11.2,4.87
		c-2.94,0.37-5.56,0.29-7.86-0.26c-2.3-0.54-4.22-1.53-5.77-2.96c-1.04-0.95-1.84-2.08-2.4-3.37c-0.56-1.29-1.02-3.57-1.39-6.82
		c-0.67-5.88-1.33-11.76-2-17.64c-2.21,0.25-3.31,0.37-5.52,0.61c-0.31-2.85-0.46-4.27-0.77-7.12
		C541.41,479.17,541.48,479.17,541.61,479.15z M500.23,484.95c3.19-2.59,7.65-4.11,13.39-4.59c2.57-0.22,5.06-0.18,7.47,0.11
		c2.4,0.29,4.78,0.83,7.13,1.62c0.38-0.95,0.58-1.43,0.96-2.38c2.46-0.24,3.68-0.36,6.14-0.62c0.5,4.85,0.75,7.28,1.25,12.13
		c-2.63,0.27-3.94,0.4-6.57,0.66c-1.34-1.8-3.02-3.12-5.05-3.96c-2.03-0.84-4.25-1.16-6.64-0.95c-1.66,0.15-2.95,0.52-3.86,1.11
		c-0.91,0.6-1.33,1.35-1.26,2.25c0.14,1.65,2.35,2.91,6.65,3.77c1.1,0.22,1.96,0.4,2.58,0.53c0.54,0.11,1.28,0.26,2.24,0.44
		c4.66,0.94,8.05,1.92,10.16,2.99c1.5,0.76,2.7,1.85,3.62,3.29c0.92,1.43,1.48,3.09,1.67,4.97c0.43,4.08-0.9,7.47-4.03,10.14
		c-3.12,2.67-7.65,4.29-13.55,4.82c-3.15,0.28-6.15,0.2-9-0.24c-2.85-0.44-5.39-1.19-7.61-2.26c-0.53,1.24-0.8,1.86-1.34,3.11
		c-2.43,0.18-3.64,0.26-6.07,0.43c-0.38-5.65-0.57-8.47-0.96-14.12c3.02-0.2,4.52-0.31,7.54-0.54c1.07,2.43,2.63,4.2,4.67,5.3
		c2.04,1.1,4.55,1.52,7.54,1.27c1.98-0.17,3.4-0.55,4.25-1.15c0.85-0.6,1.22-1.45,1.12-2.57c-0.13-1.49-2.48-2.65-7.03-3.53
		c-1.53-0.3-2.74-0.55-3.62-0.75c-6.59-1.45-10.88-3.01-12.89-4.61c-2.01-1.6-3.11-3.89-3.31-6.87
		C495.56,490.81,497.04,487.54,500.23,484.95z M458.55,485.1c0.29,8.33,0.58,16.65,0.86,24.98c0.08,2.24,0.59,3.89,1.53,4.95
		c0.95,1.06,2.34,1.56,4.19,1.48c1.96-0.08,3.48-0.85,4.56-2.31c1.08-1.46,1.57-3.4,1.46-5.83c-0.23-5.07-0.34-7.6-0.57-12.66
		c-0.07-1.62-0.37-2.66-0.9-3.1c-0.53-0.44-1.58-0.63-3.17-0.56c-0.66,0.03-0.99,0.04-1.64,0.07c-0.12-2.89-0.17-4.34-0.29-7.23
		c7.32-0.29,14.63-0.66,21.94-1.09c0.55,9.19,1.09,18.39,1.64,27.58c0.09,1.57,0.42,2.59,0.98,3.05c0.56,0.46,1.65,0.64,3.27,0.54
		c0.72-0.05,1.08-0.07,1.8-0.11c0.19,2.87,0.28,4.31,0.46,7.18c-7.48,0.46-14.95,0.87-22.43,1.23c-0.1-2.25-0.15-3.38-0.25-5.63
		c-1.74,2.4-3.87,4.26-6.38,5.57c-2.51,1.31-5.32,2.02-8.42,2.12c-5.21,0.17-8.93-0.81-11.12-2.89c-2.2-2.08-3.34-5.78-3.45-11.09
		c-0.12-5.89-0.18-8.83-0.29-14.71c-0.03-1.6-0.31-2.63-0.84-3.1c-0.53-0.47-1.6-0.69-3.22-0.66c-0.53,0.01-0.79,0.01-1.31,0.02
		c-0.04-2.89-0.07-4.34-0.11-7.24C444.08,485.53,451.32,485.35,458.55,485.1z M281.15,507.64c0.53,0.53,1.77,0.92,3.71,1.15
		c1.13,0.13,1.7,0.2,2.84,0.33c-0.35,3.1-0.53,4.65-0.89,7.75c-10.56-1.21-21.11-2.56-31.64-4.06c0.44-3.09,0.66-4.63,1.1-7.72
		c0.85,0.12,1.27,0.18,2.12,0.3c1.91,0.27,3.21,0.22,3.88-0.13c0.67-0.35,1.16-1.65,1.46-3.9c1.51-11.04,3.01-22.08,4.52-33.12
		c-6.83,14.55-13.82,29.02-20.95,43.42c-5.39-0.81-8.09-1.22-13.47-2.09c-2.19-15.82-4.22-31.66-6.1-47.53
		c-1.9,10.95-3.81,21.91-5.71,32.86c-0.37,2.1-0.31,3.45,0.17,4.05c0.48,0.6,1.72,1.07,3.71,1.41c0.85,0.14,1.27,0.21,2.12,0.36
		c-0.52,3.08-0.77,4.61-1.29,7.69c-8.58-1.43-17.15-2.98-25.7-4.6c0.58-3.06,0.88-4.6,1.46-7.66c1.04,0.2,1.56,0.3,2.61,0.49
		c1.99,0.37,3.31,0.36,3.97-0.03c0.66-0.39,1.18-1.64,1.57-3.74c1.81-9.83,3.62-19.66,5.43-29.5c0.39-2.1,0.36-3.44-0.09-4.02
		c-0.44-0.58-1.64-1.06-3.58-1.42c-1.01-0.19-1.51-0.29-2.52-0.48c0.58-3.05,0.87-4.57,1.45-7.62c10.19,1.91,20.39,3.71,30.62,5.4
		c1.37,11.29,2.81,22.57,4.33,33.84c5.08-10.26,10.08-20.55,15.02-30.88c10.57,1.53,21.17,2.89,31.78,4.11
		c-0.35,3.08-0.53,4.62-0.88,7.71c-1.1-0.13-1.64-0.19-2.74-0.32c-1.91-0.22-3.16-0.14-3.77,0.26c-0.61,0.4-1.04,1.68-1.31,3.85
		c-1.2,9.92-2.41,19.85-3.61,29.77C280.49,505.74,280.62,507.11,281.15,507.64z M336.08,502.97c-0.04,0.56-0.06,0.84-0.1,1.4
		c-8.9-0.64-17.79-1.41-26.68-2.26c-0.03,0.32-0.05,0.48-0.08,0.8c-0.31,3.24,0.16,5.79,1.41,7.65c1.26,1.86,3.2,2.91,5.83,3.15
		c2.23,0.2,4.12-0.27,5.64-1.4c1.53-1.13,2.62-2.84,3.28-5.14c4.2,0.34,6.29,0.51,10.49,0.81c-1.34,4.93-3.9,8.49-7.63,10.67
		c-4.12,2.42-10.55,2.93-15.04,2.43c-5.87-0.64-12.21-2.66-16.38-7.24c-3.88-4.27-5.14-10.19-4.51-15.78
		c0.63-5.56,3.14-11,7.74-14.42c4.8-3.57,11-4.55,16.78-4.03c5.53,0.5,11.35,2.49,14.99,6.91
		C335.56,491.03,336.58,497.21,336.08,502.97z M426.59,524.98c-4.22,0.03-6.34,0.03-10.56,0.02c-0.76-1.35-1.13-2.02-1.88-3.37
		c-2.87,1.53-5.75,2.66-8.63,3.39c-2.88,0.73-5.79,1.01-8.6,1c-7.61-0.03-15.57-2.82-20.95-8.4c-5.46-5.67-7.1-14.21-6.75-21.73
		c0.34-7.56,3.07-15.64,8.9-20.85c5.72-5.11,13.62-7.71,21.22-7.45c2.95,0.1,5.7,0.41,8.12,1.08c2.42,0.67,4.64,1.67,6.68,3.01
		c0.54-1.21,0.81-1.82,1.34-3.03c3.52,0.01,5.28,0.01,8.8,0c0.03,7.54,0.06,15.09,0.1,22.63c-3.94,0.02-5.91,0.02-9.84,0
		c-0.91-5.28-2.32-9.12-4.25-11.52c-1.93-2.4-4.54-3.62-7.86-3.67c-3.78-0.06-6.63,1.53-8.32,4.7c-2.47,4.62-2.82,10.53-2.95,15.71
		c-0.13,5.23-0.08,11.24,2.23,16.01c1.59,3.29,4.46,5.02,8.32,5.08c2.52,0.04,4.23-0.31,5.13-1.03c0.9-0.72,1.36-2.31,1.39-4.76
		c0.02-1.68,0.02-2.52,0.04-4.2c0.02-2.08-0.25-3.38-0.81-3.91c-0.56-0.53-1.86-0.8-3.91-0.83c-0.75-0.01-1.12-0.02-1.86-0.03
		c0.05-3.1,0.07-4.65,0.12-7.76c10.43,0.17,20.85,0.18,31.28,0.06c0.04,3.1,0.06,4.65,0.09,7.76c-0.81,0.01-1.22,0.01-2.03,0.02
		c-1.96,0.02-3.23,0.25-3.81,0.71c-0.58,0.46-0.86,1.79-0.85,4C426.52,513.41,426.56,519.2,426.59,524.98z"/>
	<rect x="136.44" y="814.83" class="st1" width="593.46" height="8.39"/>
	<rect x="136.44" y="885.77" class="st1" width="593.46" height="8.39"/>
	<circle class="st1" cx="149.41" cy="854.49" r="12.2"/>
	<circle class="st1" cx="713.12" cy="854.49" r="12.2"/>
	<rect x="141.45" y="934.21" class="st1" width="9.02" height="9.02"/>
	<rect x="157.1" y="934.21" class="st1" width="9.02" height="9.02"/>
	<rect x="172.76" y="934.21" class="st1" width="9.02" height="9.02"/>
	<rect x="188.41" y="934.21" class="st1" width="9.02" height="9.02"/>
	<rect x="204.06" y="934.21" class="st1" width="9.02" height="9.02"/>
	<rect x="219.71" y="934.21" class="st1" width="9.02" height="9.02"/>
	<rect x="235.37" y="934.21" class="st1" width="9.02" height="9.02"/>
	<rect x="251.02" y="934.21" class="st1" width="9.02" height="9.02"/>
	<rect x="266.67" y="934.21" class="st1" width="9.02" height="9.02"/>
	<rect x="591.09" y="934.21" class="st1" width="9.02" height="9.02"/>
	<rect x="606.74" y="934.21" class="st1" width="9.02" height="9.02"/>
	<rect x="622.39" y="934.21" class="st1" width="9.02" height="9.02"/>
	<rect x="638.04" y="934.21" class="st1" width="9.02" height="9.02"/>
	<rect x="653.69" y="934.21" class="st1" width="9.02" height="9.02"/>
	<rect x="669.35" y="934.21" class="st1" width="9.02" height="9.02"/>
	<rect x="685" y="934.21" class="st1" width="9.02" height="9.02"/>
	<rect x="700.65" y="934.21" class="st1" width="9.02" height="9.02"/>
	<rect x="716.3" y="934.21" class="st1" width="9.02" height="9.02"/>
	<path class="st1" d="M408.28,983.58h-3.57c-0.58,0-1.09-0.37-1.27-0.92l-1.1-3.4c-0.4-1.23-2.14-1.23-2.54,0l-1.1,3.4
		c-0.18,0.55-0.69,0.92-1.27,0.92h-3.57c-1.29,0-1.83,1.65-0.78,2.41l2.89,2.1c0.47,0.34,0.66,0.94,0.48,1.49l-1.1,3.4
		c-0.4,1.23,1.01,2.25,2.05,1.49l2.89-2.1c0.47-0.34,1.1-0.34,1.57,0l2.89,2.1c1.04,0.76,2.45-0.26,2.05-1.49l-1.1-3.4
		c-0.18-0.55,0.02-1.15,0.48-1.49l2.89-2.1C410.11,985.23,409.57,983.58,408.28,983.58z"/>
	<path class="st1" d="M441.48,983.58h-3.57c-0.58,0-1.09-0.37-1.27-0.92l-1.1-3.4c-0.4-1.23-2.14-1.23-2.54,0l-1.1,3.4
		c-0.18,0.55-0.69,0.92-1.27,0.92h-3.57c-1.29,0-1.83,1.65-0.78,2.41l2.89,2.1c0.47,0.34,0.66,0.94,0.48,1.49l-1.1,3.4
		c-0.4,1.23,1.01,2.25,2.05,1.49l2.89-2.1c0.47-0.34,1.1-0.34,1.57,0l2.89,2.1c1.04,0.76,2.45-0.26,2.05-1.49l-1.1-3.4
		c-0.18-0.55,0.02-1.15,0.48-1.49l2.89-2.1C443.31,985.23,442.77,983.58,441.48,983.58z"/>
	<path class="st1" d="M474.67,983.58h-3.57c-0.58,0-1.09-0.37-1.27-0.92l-1.1-3.4c-0.4-1.23-2.14-1.23-2.54,0l-1.1,3.4
		c-0.18,0.55-0.69,0.92-1.27,0.92h-3.57c-1.29,0-1.83,1.65-0.78,2.41l2.89,2.1c0.47,0.34,0.66,0.94,0.48,1.49l-1.1,3.4
		c-0.4,1.23,1.01,2.25,2.05,1.49l2.89-2.1c0.47-0.34,1.1-0.34,1.57,0l2.89,2.1c1.04,0.76,2.45-0.26,2.05-1.49l-1.1-3.4
		c-0.18-0.55,0.02-1.15,0.48-1.49l2.89-2.1C476.5,985.23,475.96,983.58,474.67,983.58z"/>
	<path class="st1" d="M375.22,936.55c-1.45,0-2.18,1.7-2.18,5.11c0,2.19,0.18,3.66,0.55,4.39c0.37,0.73,0.9,1.1,1.6,1.1
		c0.75,0,1.33-0.37,1.73-1.1c0.4-0.73,0.6-2.17,0.6-4.31C377.53,938.28,376.76,936.55,375.22,936.55z"/>
	<path class="st1" d="M565.22,924.54h-261l12.07,14.18l-12.07,19.66h261l-13.38-19.66L565.22,924.54z M363.08,950.73l-3.25-8.07
		h-0.07v8.07h-4.02v-17.72h4.69c1.89,0,3.39,0.49,4.49,1.46c1.1,0.97,1.65,2.3,1.65,3.97c0,0.86-0.21,1.69-0.62,2.49
		c-0.42,0.8-1.02,1.4-1.82,1.81l3.21,7.99H363.08z M380.15,948.71c-1.12,1.64-2.71,2.46-4.78,2.46c-2.14,0-3.77-0.82-4.9-2.46
		s-1.69-4.01-1.69-7.11c0-2.86,0.56-5.09,1.69-6.68c1.13-1.6,2.7-2.39,4.72-2.39c2.15,0,3.79,0.8,4.93,2.4
		c1.14,1.6,1.71,3.89,1.71,6.86C381.83,944.76,381.27,947.07,380.15,948.71z M397.92,950.73l-1.07-12.18l-2.48,12.18h-2.72
		l-2.6-12.21L388,950.73h-3.81l1.91-17.72h5.08c0.73,3.82,1.3,7.11,1.71,9.86l0.44-2.75c0.18-1.07,0.37-2.11,0.57-3.13l0.78-3.98
		h5.19l2.02,17.72H397.92z M413.29,950.73l-0.68-2.96h-4.25l-0.7,2.96h-4.1l4.7-17.72h4.51l4.7,17.72H413.29z M432.55,950.73h-4.13
		l-5-10.06l0.11,2.2v7.86h-4.02v-17.72h4.06l5.11,10.22l-0.15-1.91v-8.31h4.02V950.73z M446.91,948.71
		c-1.12,1.64-2.71,2.46-4.78,2.46c-2.14,0-3.77-0.82-4.9-2.46s-1.69-4.01-1.69-7.11c0-2.86,0.56-5.09,1.69-6.68
		c1.13-1.6,2.7-2.39,4.72-2.39c2.15,0,3.79,0.8,4.93,2.4c1.14,1.6,1.71,3.89,1.71,6.86C448.59,944.76,448.03,947.07,446.91,948.71z
		 M459,949.69c-1.07,1-2.43,1.51-4.07,1.51c-1.12,0-2.24-0.27-3.34-0.8v-4.13c1.27,0.74,2.34,1.11,3.21,1.11
		c0.5,0,0.9-0.14,1.19-0.42c0.29-0.28,0.44-0.65,0.44-1.11c0-0.35-0.12-0.69-0.35-0.99c-0.23-0.31-0.64-0.69-1.21-1.13
		c-1.39-1.06-2.4-2.05-3.02-2.97c-0.62-0.92-0.94-1.94-0.94-3.06c0-1.53,0.48-2.78,1.45-3.74c0.96-0.96,2.21-1.45,3.74-1.45
		c1.13,0,2.26,0.24,3.37,0.73v3.97c-1.19-0.66-2.16-0.98-2.91-0.98c-0.5,0-0.89,0.12-1.17,0.37c-0.29,0.24-0.43,0.58-0.43,1
		c0,0.74,0.67,1.58,2,2.51c0.8,0.55,1.6,1.32,2.42,2.32c0.82,1,1.23,2.15,1.23,3.46C460.6,947.42,460.07,948.69,459,949.69z
		 M477.19,950.73h-3.84v-14h-2.26v-3.72h6.09V950.73z M492.84,940.24c-0.34,0.96-0.84,2.02-1.51,3.17l-2.18,3.72h3.57v3.61h-10.11
		l5.79-9.89c0.71-1.19,1.06-2.26,1.06-3.24c0-0.49-0.11-0.88-0.32-1.19c-0.21-0.31-0.48-0.46-0.8-0.46c-0.5,0-0.83,0.2-0.99,0.6
		c-0.15,0.4-0.23,1.2-0.23,2.38v0.65h-3.89c0-1.33,0.06-2.37,0.17-3.12c0.11-0.75,0.34-1.42,0.69-2c0.35-0.58,0.89-1.04,1.61-1.39
		c0.72-0.35,1.58-0.52,2.57-0.52c1.64,0,2.89,0.43,3.77,1.29c0.88,0.86,1.31,2.1,1.31,3.72
		C493.35,938.39,493.18,939.28,492.84,940.24z M500.14,950.5c-0.44,0.43-0.96,0.64-1.57,0.64c-0.59,0-1.1-0.22-1.53-0.65
		c-0.42-0.43-0.64-0.95-0.64-1.55c0-0.59,0.21-1.1,0.64-1.53c0.42-0.43,0.93-0.64,1.53-0.64c0.63,0,1.16,0.21,1.59,0.64
		c0.43,0.42,0.64,0.95,0.64,1.57C500.79,949.56,500.57,950.07,500.14,950.5z M500.17,943.68c-0.43,0.43-0.94,0.64-1.55,0.64
		c-0.62,0-1.15-0.22-1.58-0.66c-0.43-0.44-0.65-0.96-0.65-1.57c0-0.6,0.21-1.11,0.64-1.53c0.43-0.42,0.96-0.62,1.59-0.62
		c0.59,0,1.11,0.22,1.54,0.66c0.43,0.44,0.65,0.95,0.65,1.55C500.82,942.74,500.6,943.25,500.17,943.68z M513.53,940.24
		c-0.34,0.96-0.84,2.02-1.51,3.17l-2.18,3.72h3.57v3.61H503.3l5.79-9.89c0.71-1.19,1.06-2.26,1.06-3.24c0-0.49-0.11-0.88-0.32-1.19
		c-0.21-0.31-0.48-0.46-0.8-0.46c-0.5,0-0.83,0.2-0.99,0.6c-0.15,0.4-0.23,1.2-0.23,2.38v0.65h-3.89c0-1.33,0.06-2.37,0.17-3.12
		c0.11-0.75,0.34-1.42,0.69-2c0.35-0.58,0.89-1.04,1.61-1.39c0.72-0.35,1.58-0.52,2.57-0.52c1.64,0,2.89,0.43,3.77,1.29
		c0.88,0.86,1.31,2.1,1.31,3.72C514.04,938.39,513.87,939.28,513.53,940.24z"/>
	<path class="st1" d="M441.98,936.55c-1.45,0-2.18,1.7-2.18,5.11c0,2.19,0.18,3.66,0.55,4.39c0.37,0.73,0.9,1.1,1.6,1.1
		c0.75,0,1.33-0.37,1.73-1.1c0.4-0.73,0.6-2.17,0.6-4.31C444.29,938.28,443.52,936.55,441.98,936.55z"/>
	<path class="st1" d="M410.43,937.06c-0.32,2.45-0.77,4.96-1.34,7.53h2.75c-0.6-2.64-1.05-5.15-1.35-7.53H410.43z"/>
	<path class="st1" d="M359.76,936.44v4.21c1.78-0.04,2.67-0.66,2.67-1.87c0-0.82-0.21-1.41-0.62-1.77
		C361.4,936.66,360.71,936.47,359.76,936.44z"/>
	<path class="st1" d="M591.1,914.41H277.65l24.23,25.92l-24.03,27.67H591.1l-23.57-26.79L591.1,914.41z M583.41,964.51H285.47
		l21.08-24.27l-20.89-22.35h297.74L562.9,941.2L583.41,964.51z"/>
	<path class="st1" d="M231.56,602.02c2.12,0.48,4.88,0.75,8.27,0.82c3.7,0.08,6.49-0.15,8.33-0.68c1.36-0.39,2.14-1.33,2.35-2.79
		c0.12-0.87-0.03-1.7-0.44-2.5c-0.46-0.89-1.14-1.44-2.06-1.63c-0.3-0.06-0.63-0.07-0.98-0.02c-4.54,0.45-9.14,1-13.67,0.09
		c0.57-2.76,1.06-4.83,1.36-6.13c1.82-7.93,3.09-16.52,4.38-24.81c0.15-0.96-0.01-1.85-0.47-2.65c-0.46-0.8-1.12-1.3-1.96-1.49
		c-0.85-0.19-1.6-0.01-2.27,0.54c-0.66,0.55-1.07,1.31-1.22,2.27c-1.3,8.15-2.71,16.31-4.41,24.37c-1.17,5.58-1.75,8.23-1.7,7.94
		C226.49,598.98,227.98,601.21,231.56,602.02z"/>
	<path class="st1" d="M252.91,603.74c0.56,0.77,1.24,1.23,2.04,1.39c1.14,0.23,2.11-0.21,2.92-1.31c2.16-3.43,3.69-6.02,4.61-7.77
		c1.25-0.02,3.04,0.09,5.35,0.33c2.46,0.26,4.24,0.39,5.34,0.4c0.23,2.72,0.62,5.16,1.14,7.3c0.8,3.3,1.77,5.11,2.92,5.36
		c0.8,0.17,1.56-0.02,2.28-0.57c0.71-0.56,1.13-1.33,1.24-2.32c0.08-0.73-0.05-1.88-0.41-3.43c-0.43-1.88-0.67-3.07-0.72-3.57
		c-0.46-5.8-0.93-11.62-1.23-17.4c-0.19-3.73-0.24-6.65-0.37-8.44c-0.16-2.27-1.16-3.68-2.72-3.96c-0.82-0.15-3.4,2.69-7.81,8.46
		c-2.92,3.8-5.78,7.71-8.52,11.7c-1.4,0.2-2.2,0.7-2.36,1.5c-0.09,0.45-0.07,0.96,0.06,1.53c-2.79,4.59-4.27,7.31-4.39,8.18
		C252.15,602.1,252.36,602.97,252.91,603.74z M272.3,581.79c0.16,3.65,0.28,6.61,0.36,8.89c-0.43-0.01-1.46-0.1-3.09-0.28
		c-1.38-0.15-2.41-0.2-3.09-0.16C268.96,586.69,270.89,583.87,272.3,581.79z"/>
	<path class="st1" d="M312.96,613.65c0.45,1.76,1.44,2.74,2.97,2.93c1.21,0.16,2.18-0.39,2.93-1.65c1.16-1.95,2.17-3.92,3.02-5.9
		c2.45-5.69,4.94-11.42,7.31-17.1c1.32-3.16,1.97-4.84,2-4.9c0.8-1.81,1.63-3.34,2.51-4.59c0.44-0.62,0.68-1.28,0.74-1.97
		c0.07-0.98-0.17-1.84-0.73-2.58c-0.56-0.75-1.25-1.17-2.06-1.26c-0.9-0.1-1.7,0.24-2.42,1.04c-1.08,1.2-2.21,3-3.19,5.3
		c-0.81,1.91-1.58,3.95-2.39,5.91c-2.06,5.02-4.25,9.95-6.43,14.89c-0.73-3.89-1.42-8.39-2.12-13.39c-0.53-3.79-1.05-6.73-1.29-8.59
		c-0.19-1.45-0.23-3.15-0.45-4.56c-0.26-1.69-1.26-2.77-2.63-2.96c-0.8-0.11-1.53,0.1-2.18,0.63c-0.69,0.57-1.09,1.37-1.19,2.38
		c-0.12,1.25,0.05,3.56,0.55,6.86c0.37,2.38,0.76,4.79,1.13,7.18C310.09,598.83,311.13,606.34,312.96,613.65z"/>
	<path class="st1" d="M363.49,612.73c2.74-3.88,4.93-10.41,5.1-15.55c0.18-5.41-0.78-9.74-3.13-12.68c-2.35-2.94-6.03-4.59-11-5.05
		c-5.16-0.49-10.05,2.46-13.48,6.85c-2.92,3.75-5.47,10.23-5.78,15.45c-0.29,4.87,0.95,9.18,3.98,12.63
		c2.84,3.23,6.49,5.04,10.83,5.46C355.22,620.36,360.18,617.41,363.49,612.73z M350.44,612.87c-2.77-0.25-5.01-1.34-6.71-3.23
		c-1.77-1.97-2.54-4.38-2.34-7.23c0.3-4.22,1.65-7.95,4.03-11.2c2.54-3.48,5.4-5.07,8.61-4.78c3.29,0.29,5.55,1.15,6.76,2.6
		c1.27,1.51,1.82,4.08,1.62,7.69c-0.23,4.31-1.43,8.08-3.58,11.3C356.47,611.54,353.67,613.17,350.44,612.87z"/>
	<path class="st1" d="M378.92,584.14c0.04-0.98-0.21-1.83-0.75-2.55c-0.54-0.72-1.24-1.11-2.1-1.17c-0.86-0.06-1.58,0.24-2.18,0.89
		c-0.6,0.65-0.92,1.47-0.96,2.44c-0.41,8.28-0.92,16.6-1.73,24.86c-0.56,5.72-0.84,8.43-0.83,8.14c-0.18,3.69,1.55,5.67,5.16,5.9
		c2.14,0.14,4.9-0.03,8.25-0.5c3.67-0.51,6.4-1.18,8.16-2c1.3-0.61,1.97-1.66,2.02-3.14c0.03-0.88-0.21-1.68-0.7-2.41
		c-0.55-0.81-1.28-1.25-2.21-1.29c-0.31-0.01-0.63,0.03-0.97,0.14c-4.44,1.16-8.92,2.44-13.5,2.25c0.27-2.83,0.53-4.96,0.69-6.29
		C378.21,601.27,378.54,592.56,378.92,584.14z"/>
	<path class="st1" d="M415.45,621.71c1.53-1.1,2.85-2.5,3.94-4.19c2.58-3.87,4.35-9.77,4.98-14.55c0.67-5.17,0.84-10.64,0.91-15.9
		c0.01-0.77-0.18-1.48-0.55-2.12c-0.48-0.85-1.21-1.3-2.18-1.32c-1.19-0.01-2.12,0.57-2.77,1.74c-0.48,0.88-0.72,1.82-0.74,2.78
		c-0.11,5.62-0.35,11.53-1.24,17.02c-0.78,4.81-3.06,11.61-7.99,11.45c-2.31-0.08-3.78-0.44-4.39-1.01c-1.17-1.1-2.02-3.01-2.58-5.7
		c-0.47-2.25-0.68-4.69-0.62-7.3c0.02-0.81,0.08-2.03,0.2-3.66c0.11-1.63,0.18-2.85,0.2-3.66c0.02-0.98,0.07-2.44,0.14-4.38
		c0.07-1.94,0.11-3.4,0.14-4.36c0.02-1.01-0.3-1.85-0.93-2.51c-0.59-0.62-1.27-0.96-2.06-0.99c-1-0.04-1.81,0.73-2.41,2.29
		c-0.45,1.18-0.69,2.45-0.73,3.8c-0.02,0.66-0.06,1.64-0.13,2.95c-0.07,1.31-0.11,2.29-0.13,2.95c-0.02,0.83-0.09,2.06-0.21,3.7
		c-0.12,1.64-0.22,2.9-0.21,3.7c0.01,6.6,0.54,13.73,5.27,18.45c1.79,1.72,4.57,2.64,8.34,2.74
		C411.64,623.7,413.58,623.05,415.45,621.71z"/>
	<path class="st1" d="M436.32,585.35c-1.3-2.2-2.47-3.3-3.53-3.3c-0.94,0-1.79,0.4-2.53,1.21c-0.74,0.81-1.11,1.72-1.12,2.76
		c0,1.03,0.08,2.57,0.24,4.62c0.17,2.05,0.25,3.59,0.25,4.62c0,1.08,0.01,2.72,0.05,4.91c0.04,2.19,0.05,3.82,0.05,4.91
		c0,1.02-0.04,2.54-0.1,4.57c-0.06,2.03-0.1,3.55-0.1,4.57c0,0.69-0.05,1.73-0.15,3.12c-0.1,1.39-0.15,2.44-0.15,3.12
		c0,0.98,0.28,1.82,0.86,2.51c0.65,0.78,1.51,1.17,2.59,1.17c2.13,0,3.19-2.54,3.18-7.62c0-1.36-0.03-3.41-0.09-6.14
		c-0.06-2.74-0.08-4.79-0.09-6.14c0-1.02,0.04-3.76,0.12-8.24c5.92,8.84,12.04,17.52,19.26,24.87c1.32,1.33,2.5,1.98,3.53,1.95
		c1.86-0.05,2.91-1.2,3.16-3.42c0.21-1.86,0.3-3.23,0.29-4.09c-0.11-5.43-0.16-10.88-0.22-16.32c-0.03-2.53-0.04-3.89-0.04-4.08
		c-0.19-8.65-1.45-12.94-3.78-12.88c-2.09,0.06-3.11,1.27-3.08,3.64c0.01,0.69,0.1,1.64,0.26,2.83c0.18,1.35,0.29,2.28,0.33,2.78
		c0.33,5.71,0.41,11.45,0.51,17.16c0.03,2.06,0.05,3.37,0.04,3.92C448.49,604.43,442.24,595.08,436.32,585.35z"/>
	<path class="st1" d="M486.07,589.31c2.38,0.05,4.14,0.03,5.26-0.04c0.86-0.06,1.57-0.44,2.12-1.16c0.55-0.72,0.8-1.57,0.76-2.55
		c-0.05-0.98-0.38-1.78-0.99-2.42c-0.61-0.63-1.35-0.92-2.2-0.86c-1.09,0.07-2.72,0.08-4.91,0.03c-2.18-0.05-3.82-0.05-4.91,0.01
		c-0.87,0.05-2.18,0.13-3.92,0.25c-1.74,0.12-3.05,0.2-3.92,0.24c-0.87,0.04-2.03,0-3.45-0.14c-1.78-0.17-2.93-0.28-3.43-0.3
		c-0.97-0.04-1.75,0.37-2.34,1.22c-0.49,0.72-0.74,1.52-0.72,2.4c0.04,1.79,0.87,2.89,2.47,3.3c1.9,0.48,4.46,0.66,7.67,0.51
		c0.45-0.02,0.67-0.03,1.12-0.05c0.11,1.72,0.41,4.83,0.91,9.34c0.43,3.92,0.69,7.04,0.76,9.34c0.03,0.81,0.11,2.01,0.26,3.6
		c0.15,1.6,0.23,2.79,0.26,3.58c0.01,0.26-0.02,0.63-0.07,1.13c-0.06,0.49-0.08,0.86-0.07,1.1c0.03,1.01,0.41,1.84,1.12,2.48
		c0.64,0.57,1.36,0.84,2.18,0.8c1.12-0.06,1.96-0.77,2.51-2.12c0.43-1.06,0.62-2.23,0.58-3.52c-0.02-0.58-0.11-1.45-0.25-2.6
		s-0.23-2.01-0.25-2.6c-0.1-2.58-0.39-6.08-0.85-10.5c-0.52-5-0.84-8.48-0.97-10.44C482.03,589.26,483.78,589.26,486.07,589.31z"/>
	<path class="st1" d="M523.22,618.46c0.81-0.04,1.52-0.44,2.11-1.17s0.86-1.6,0.79-2.59c-0.05-0.74-0.39-1.82-1.02-3.24
		c-0.76-1.72-1.22-2.81-1.35-3.28c-1.5-5.53-3.03-11.08-4.38-16.64c-0.87-3.59-1.45-6.42-1.9-8.13c-0.57-2.17-1.8-3.27-3.38-3.13
		c-0.83,0.08-2.82,3.53-6.05,10.34c-2.15,4.49-4.21,9.06-6.15,13.69c-1.33,0.57-2.01,1.27-2.02,2.09c-0.01,0.46,0.11,0.96,0.34,1.48
		c-1.88,5.23-2.81,8.27-2.77,9.15c0.05,1,0.41,1.79,1.09,2.39c0.68,0.6,1.43,0.87,2.24,0.81c1.15-0.08,2.02-0.77,2.6-2.06
		c1.48-3.93,2.49-6.86,3.06-8.81c1.21-0.36,2.97-0.73,5.27-1.11c2.44-0.41,4.2-0.75,5.27-1.04c0.72,2.59,1.55,4.87,2.45,6.82
		C520.78,617.02,522.06,618.53,523.22,618.46z M512.28,601.95c-1.38,0.22-2.39,0.45-3.03,0.67c1.76-4.13,3.13-7.4,4.12-9.81
		c0.82,3.52,1.48,6.37,1.97,8.57C514.92,601.5,513.9,601.68,512.28,601.95z"/>
	<path class="st1" d="M542.77,618.11c4.43-0.53,7.79-1.9,10.06-4.07c2.02-1.93,3.53-4.36,4.52-7.23c0.98-2.83,1.29-5.78,1.06-8.7
		c-0.38-4.69-3.6-10.08-6.6-12.72c-3.07-2.69-7.53-5.32-11.41-6.18c-0.43-0.1-1.81-0.67-4.12-1.66c-1.97-0.85-3.21-1.24-3.68-1.19
		c-0.86,0.1-1.63,0.65-2.31,1.67c-0.69,1.02-1,2-0.93,2.94c0.14,1.9,0.38,4.75,0.73,8.55c0.35,3.8,0.59,6.65,0.73,8.55
		c0.13,1.71,0.25,4.29,0.36,7.74c0.12,3.44,0.24,6.02,0.36,7.74c0.07,0.96,0.43,1.75,1.06,2.36c0.64,0.61,1.39,0.88,2.26,0.8
		c1.03,0.61,2.41,1.05,4.13,1.29C540.44,618.21,541.7,618.24,542.77,618.11z M535.64,585c4.76,1.72,7.89,2.99,9.38,3.85
		c4.44,2.58,6.88,5.96,7.26,10.2c0.16,1.81-0.06,3.61-0.67,5.39c-0.62,1.78-1.53,3.24-2.75,4.38c-1.28,1.2-3.51,2-6.68,2.38
		c-0.91,0.11-1.74,0.1-2.5-0.03c-0.76-0.13-1.44-0.37-2.04-0.74C536.98,601.96,536.31,593.48,535.64,585z"/>
	<path class="st1" d="M609.08,598.21c0.87-2.89,1.07-5.85,0.72-8.75c-0.56-4.66-4-9.87-7.1-12.32c-3.17-2.51-7.74-4.88-11.65-5.52
		c-0.43-0.08-1.84-0.57-4.18-1.43c-2.01-0.73-3.26-1.05-3.73-0.97c-0.85,0.15-1.6,0.75-2.25,1.8c-0.65,1.06-0.92,2.05-0.81,2.99
		c0.22,1.89,0.57,4.73,1.07,8.5c0.5,3.77,0.85,6.61,1.07,8.5c0.19,1.71,0.42,4.27,0.67,7.71c0.25,3.43,0.47,6,0.67,7.71
		c0.11,0.96,0.49,1.72,1.16,2.3c0.66,0.58,1.43,0.8,2.29,0.67c1.05,0.55,2.45,0.91,4.18,1.05c1.43,0.12,2.69,0.08,3.76-0.11
		c4.41-0.79,7.72-2.35,9.91-4.64C606.79,603.65,608.2,601.14,609.08,598.21z M603.24,596.17c-0.55,1.81-1.41,3.33-2.58,4.53
		c-1.24,1.28-3.44,2.2-6.59,2.77c-0.9,0.16-1.74,0.2-2.5,0.12c-0.76-0.08-1.45-0.29-2.07-0.62c-1-8.43-2-16.87-3-25.3
		c4.83,1.44,8.01,2.53,9.53,3.31c4.54,2.32,7.11,5.56,7.66,9.77C603.94,592.55,603.79,594.36,603.24,596.17z"/>
	<path class="st1" d="M624.61,567.02c2.17-0.47,4.46-0.6,6.88-0.37c0.33,0.03,0.63,0.01,0.92-0.05c0.88-0.2,1.54-0.77,1.99-1.66
		c0.4-0.79,0.54-1.63,0.4-2.51c-0.25-1.56-1.07-2.48-2.46-2.77c-2.29-0.49-5.2-0.34-8.76,0.43c-1.31,0.29-2.69,0.71-4.13,1.27
		c-1.44,0.56-2.95,1.26-4.52,2.09c-0.58-0.32-1.19-0.41-1.81-0.28c-1.98,0.41-2.79,1.9-2.44,4.48c0.08,0.59,0.27,1.46,0.58,2.59
		c0.3,1.13,0.5,2,0.58,2.59c0.31,2.26,0.65,5.69,1,10.31c0.35,4.62,0.68,8.06,0.99,10.34c0.76,5.48,2.04,8.89,3.86,10.21
		c1.65,1.2,4.87,1.31,9.63,0.29c4.6-0.99,7.61-1.84,9.02-2.49c1.65-0.76,2.32-2.09,2.03-3.98c-0.18-1.13-0.66-1.93-1.44-2.41
		c-0.68-0.42-1.44-0.54-2.29-0.35c-0.28,0.06-0.69,0.21-1.24,0.44c-0.55,0.23-0.97,0.37-1.26,0.44c-0.9,0.2-2.25,0.53-4.06,0.97
		s-3.16,0.76-4.07,0.95c-1.67,0.36-2.6,0.44-2.8,0.25c-0.4-0.39-0.84-2.24-1.31-5.57c-0.19-1.32-0.39-3.07-0.59-5.25
		c4.07-1.25,7.12-2.29,9.1-2.97c2.22-0.76,3.98-1.27,5.08-1.66c1.75-0.61,2.52-2.03,2.2-4.05c-0.16-1.05-0.6-1.82-1.3-2.32
		c-0.7-0.5-1.47-0.65-2.31-0.46c-0.73,0.16-2.44,0.72-5.12,1.64c-4.71,1.61-7.47,2.51-8.27,2.74c-0.51-4.47-0.92-7.83-1.25-10.09
		c1.32-0.7,2.58-1.28,3.77-1.74C622.42,567.6,623.55,567.25,624.61,567.02z"/>
	<path class="st1" d="M327.06,791.68c8.51-5.11,15.13-13.39,19.87-24.84c4.74-11.45,7.11-26.48,7.11-45.1
		c0-24.57-4.8-43.25-14.41-56.03c-9.61-12.78-23.64-19.17-42.1-19.17h-26.66v152.81h27.98
		C309.15,799.35,318.55,796.79,327.06,791.68z M299.42,679.04c3.64,0.23,6.64,0.73,9,1.49c2.35,0.76,4.77,2.8,7.25,6.12
		c2.48,3.32,4.35,8.05,5.61,14.19c1.26,6.14,1.88,13.64,1.88,22.49c0,14.96-1.79,25.7-5.37,32.22c-3.58,6.52-9.7,10.24-18.37,11.16
		V679.04z"/>
	<rect x="374.3" y="646.53" class="st1" width="28.54" height="152.81"/>
	<path class="st1" d="M471.7,803.12c14.69,0,26.01-7.08,33.96-21.23c7.94-14.16,11.92-34.05,11.92-59.69
		c0-25.64-4.04-45.37-12.1-59.18c-8.07-13.81-19.73-20.72-34.99-20.72c-14.32,0-25.48,6.89-33.49,20.66
		c-8.01,13.78-12.01,32.99-12.01,57.63c0,26.71,3.99,47.14,11.96,61.3C444.91,796.05,456.5,803.12,471.7,803.12z M470.66,676.98
		c10.93,0,16.39,14.92,16.39,44.76c0,18.47-1.43,30.87-4.29,37.2c-2.86,6.33-6.96,9.5-12.29,9.5c-4.96,0-8.75-3.17-11.35-9.5
		c-2.61-6.33-3.91-18.96-3.91-37.89C455.21,691.67,460.36,676.98,470.66,676.98z"/>
	<path class="st1" d="M561.56,770.5c-6.16,0-13.75-3.2-22.8-9.61v35.6c7.85,4.58,15.76,6.87,23.74,6.87
		c11.68,0,21.32-4.33,28.92-12.99c7.6-8.66,11.4-19.59,11.4-32.79c0-11.29-2.91-21.23-8.71-29.82
		c-5.81-8.58-11.54-15.24-17.19-19.97c-9.48-8.01-14.22-15.23-14.22-21.63c0-3.66,1.02-6.54,3.06-8.64c2.04-2.1,4.82-3.15,8.34-3.15
		c5.28,0,12.15,2.82,20.63,8.47v-34.23c-7.91-4.2-15.89-6.3-23.93-6.3c-10.86,0-19.72,4.16-26.56,12.48
		c-6.84,8.32-10.27,19.08-10.27,32.28c0,9.69,2.21,18.49,6.64,26.39c4.43,7.9,11.57,16.43,21.43,25.58
		c4.08,3.82,6.95,7.06,8.62,9.73c1.66,2.67,2.5,5.53,2.5,8.58c0,3.97-1.04,7.15-3.11,9.56C567.96,769.3,565.14,770.5,561.56,770.5z"
		/>
	<path class="st1" d="M218.89,858.7l4.4,9.2h3.02l-13.04-27.96h-0.68l-13.21,27.96h3.12l4.36-9.2H218.89z M212.91,845.88l4.77,10.12
		h-9.56L212.91,845.88z"/>
	<path class="st1" d="M238.63,843.63c1.98-1.08,4.07-1.62,6.26-1.62c1.76,0,3.57,0.4,5.43,1.19c1.86,0.79,3.56,1.95,5.12,3.49
		l2.17-2.05c-1.99-1.89-4.03-3.26-6.12-4.12c-2.09-0.86-4.32-1.28-6.69-1.28c-2.93,0-5.55,0.64-7.87,1.93
		c-2.32,1.29-4.14,3.07-5.47,5.35c-1.33,2.28-2,4.75-2,7.39c0,3.56,1.16,6.7,3.48,9.41c3.02,3.52,7.11,5.28,12.28,5.28
		c4.26,0,7.66-1.27,10.2-3.81c2.54-2.54,3.82-5.97,3.85-10.29h-12.05v2.7h8.91c-0.37,2.59-1.55,4.69-3.54,6.31
		c-1.99,1.62-4.42,2.43-7.3,2.43c-2.37,0-4.55-0.54-6.54-1.63c-1.99-1.08-3.55-2.57-4.68-4.47c-1.13-1.89-1.69-3.89-1.69-6
		c0-2.05,0.54-4,1.63-5.84C235.11,846.17,236.65,844.71,238.63,843.63z"/>
	<path class="st1" d="M281.15,851.4c0.72-1.15,1.07-2.49,1.07-4.02c0-1.83-0.52-3.37-1.56-4.62c-1.04-1.25-2.39-2.06-4.05-2.45
		c-1.1-0.25-3.21-0.38-6.31-0.38h-5.57v27.96h2.79v-12.98h1.58l10.06,12.98h3.46l-10.06-12.98c2.34-0.01,4.18-0.31,5.51-0.9
		C279.42,853.43,280.44,852.56,281.15,851.4z M272.35,852.22l-4.82-0.04v-9.5h4.93c1.92,0,3.29,0.16,4.11,0.49
		c0.82,0.33,1.49,0.88,2,1.64c0.51,0.77,0.76,1.62,0.76,2.56c0,0.96-0.25,1.83-0.75,2.61c-0.5,0.78-1.2,1.35-2.09,1.7
		C275.6,852.05,274.22,852.22,272.35,852.22z"/>
	<path class="st1" d="M305.26,858.7l4.4,9.2h3.02l-13.04-27.96h-0.68l-13.21,27.96h3.12l4.36-9.2H305.26z M299.29,845.88l4.77,10.12
		h-9.56L299.29,845.88z"/>
	<path class="st1" d="M338.75,861.67c1.21-2.13,1.82-4.59,1.82-7.39c0-3.24-0.76-6.04-2.29-8.38c-1.53-2.34-3.65-3.99-6.36-4.94
		c-1.89-0.67-4.92-1.01-9.1-1.01h-5.8v27.96h8.9c3.48,0,6.19-0.51,8.13-1.52C335.97,865.37,337.54,863.8,338.75,861.67z
		 M322.92,865.26h-3.23v-22.58h1.98c4.02,0,6.9,0.27,8.65,0.8c2.33,0.71,4.15,2.02,5.46,3.93s1.96,4.22,1.96,6.91
		c0,2.57-0.6,4.74-1.81,6.52c-1.2,1.78-2.86,3.01-4.96,3.69C329.47,865.02,326.79,865.26,322.92,865.26z"/>
	<path class="st1" d="M363.03,858.7l4.4,9.2h3.02l-13.04-27.96h-0.68l-13.21,27.96h3.12l4.36-9.2H363.03z M357.05,845.88l4.77,10.12
		h-9.56L357.05,845.88z"/>
	<path class="st1" d="M388.43,850.18c0.61-1.02,0.91-2.15,0.91-3.39c0-1.33-0.35-2.54-1.04-3.63c-0.69-1.09-1.63-1.9-2.82-2.42
		c-1.19-0.53-2.9-0.79-5.11-0.79h-5.51v27.96h7.68c2.76,0,4.96-0.78,6.61-2.33c1.64-1.55,2.46-3.45,2.46-5.69
		c0-1.1-0.22-2.13-0.65-3.07c-0.44-0.94-1.05-1.75-1.83-2.41c-0.78-0.67-1.9-1.24-3.35-1.74
		C386.94,852.03,387.83,851.2,388.43,850.18z M387.49,856.69c0.81,0.93,1.22,2.01,1.22,3.25c0,0.99-0.29,1.91-0.87,2.76
		c-0.58,0.85-1.34,1.47-2.29,1.87c-0.95,0.4-2.45,0.6-4.49,0.6h-3.47v-10.72h1.58c2.36,0,4.02,0.11,4.97,0.34
		C385.57,855.13,386.68,855.76,387.49,856.69z M385.65,849.38c-0.53,0.78-1.26,1.35-2.17,1.71c-0.91,0.36-2.34,0.54-4.29,0.54h-1.6
		v-8.95h3.24c1.96,0,3.38,0.36,4.28,1.09c0.9,0.73,1.34,1.73,1.34,3.01C386.45,847.74,386.18,848.6,385.65,849.38z"/>
	<polygon class="st1" points="397.13,839.94 397.13,867.9 410.68,867.9 410.68,865.21 399.93,865.21 399.93,839.94 	"/>
	<polygon class="st1" points="431.16,842.68 431.16,839.94 415.13,839.94 415.13,867.9 431.04,867.9 431.04,865.17 417.93,865.17 
		417.93,854.18 431.04,854.18 431.04,851.44 417.93,851.44 417.93,842.68 	"/>
	<path class="st1" d="M448.08,857.93c-0.88,1.4-1.32,2.8-1.32,4.19c0,1.85,0.65,3.39,1.96,4.63c1.31,1.24,3.03,1.85,5.19,1.85
		c1.62,0,3.16-0.29,4.62-0.86c1.46-0.57,3.35-1.79,5.68-3.67l3.71,3.82h3.9c-0.69-0.81-1.52-1.7-2.49-2.66
		c-1.22-1.22-2.22-2.18-2.98-2.88c1.09-0.78,2.25-1.71,3.46-2.79l-1.89-2.01c-0.85,0.78-2.03,1.72-3.52,2.82l-2.78-2.82l-4.24-4.45
		c1.94-1.65,3.24-3,3.9-4.06c0.66-1.06,0.99-2.06,0.99-2.99c0-0.89-0.25-1.73-0.76-2.52c-0.51-0.79-1.24-1.42-2.21-1.89
		c-0.96-0.47-2.03-0.7-3.19-0.7c-1.85,0-3.4,0.53-4.64,1.6c-1.08,0.91-1.62,2.06-1.62,3.46c0,0.8,0.22,1.64,0.65,2.52
		c0.44,0.88,1.42,2.25,2.95,4.09C450.76,854.76,448.96,856.53,448.08,857.93z M453.02,847.49c-0.25-0.44-0.38-0.92-0.38-1.43
		c0-0.66,0.31-1.23,0.93-1.71c0.62-0.48,1.43-0.72,2.42-0.72c1.04,0,1.88,0.23,2.51,0.7c0.63,0.47,0.94,1.03,0.94,1.67
		c0,0.56-0.24,1.2-0.72,1.92c-0.69,1.01-1.71,2.05-3.07,3.1C454.52,849.75,453.64,848.57,453.02,847.49z M455.31,854.73
		c0.94,1.08,1.79,2.01,2.55,2.81l4.41,4.54c-1.94,1.55-3.65,2.65-5.15,3.29c-0.95,0.41-1.92,0.61-2.91,0.61
		c-1.31,0-2.41-0.41-3.31-1.23c-0.9-0.82-1.35-1.76-1.35-2.82c0-0.9,0.37-1.88,1.11-2.94C451.38,857.94,452.93,856.51,455.31,854.73
		z"/>
	<path class="st1" d="M491.77,854.9c3.47,0,5.84-0.15,7.11-0.46c1.74-0.42,3.1-1.23,4.09-2.44c0.99-1.21,1.48-2.75,1.48-4.61
		c0-1.85-0.51-3.39-1.52-4.61c-1.01-1.22-2.32-2.03-3.92-2.42c-1.12-0.28-3.27-0.42-6.46-0.42h-5.57v27.96h2.79v-13H491.77z
		 M489.78,842.68h4.94c1.89,0,3.25,0.16,4.08,0.49c0.83,0.33,1.5,0.88,2.01,1.66c0.51,0.78,0.76,1.63,0.76,2.57
		c0,0.96-0.25,1.83-0.76,2.61c-0.51,0.78-1.2,1.34-2.09,1.69c-0.89,0.35-2.29,0.52-4.2,0.52l-4.73-0.06V842.68z"/>
	<polygon class="st1" points="526.08,842.68 526.08,839.94 510.06,839.94 510.06,867.9 525.97,867.9 525.97,865.17 512.85,865.17 
		512.85,854.18 525.97,854.18 525.97,851.44 512.85,851.44 512.85,842.68 	"/>
	<path class="st1" d="M547.48,851.4c0.72-1.15,1.07-2.49,1.07-4.02c0-1.83-0.52-3.37-1.56-4.62c-1.04-1.25-2.39-2.06-4.05-2.45
		c-1.1-0.25-3.21-0.38-6.31-0.38h-5.57v27.96h2.79v-12.98h1.58l10.06,12.98h3.46l-10.06-12.98c2.34-0.01,4.18-0.31,5.51-0.9
		C545.74,853.43,546.76,852.56,547.48,851.4z M538.67,852.22l-4.82-0.04v-9.5h4.93c1.92,0,3.29,0.16,4.11,0.49
		c0.82,0.33,1.49,0.88,2,1.64c0.51,0.77,0.76,1.62,0.76,2.56c0,0.96-0.25,1.83-0.75,2.61c-0.5,0.78-1.2,1.35-2.09,1.7
		C541.92,852.05,540.54,852.22,538.67,852.22z"/>
	<polygon class="st1" points="568.55,842.68 568.55,839.94 554.54,839.94 554.54,867.9 557.33,867.9 557.33,854.18 568.55,854.18 
		568.55,851.44 557.33,851.44 557.33,842.68 	"/>
	<polygon class="st1" points="589.46,842.68 589.46,839.94 573.43,839.94 573.43,867.9 589.34,867.9 589.34,865.17 576.23,865.17 
		576.23,854.18 589.34,854.18 589.34,851.44 576.23,851.44 576.23,842.68 	"/>
	<path class="st1" d="M601.92,843.6c1.9-1.07,3.97-1.61,6.2-1.61c2.04,0,3.91,0.41,5.62,1.23c1.7,0.82,3.16,2.02,4.38,3.6l2.2-1.69
		c-1.34-1.86-3.07-3.31-5.17-4.34c-2.1-1.03-4.46-1.55-7.07-1.55c-4.32,0-7.92,1.4-10.79,4.19c-2.87,2.79-4.31,6.24-4.31,10.33
		c0,3.89,1.18,7.21,3.55,9.96c2.83,3.26,6.68,4.89,11.58,4.89c2.57,0,4.9-0.48,6.99-1.45c2.08-0.97,3.82-2.34,5.22-4.12l-2.2-1.67
		c-2.64,3.07-5.91,4.6-9.83,4.6c-3.56,0-6.51-1.14-8.85-3.42c-2.34-2.28-3.51-5.13-3.51-8.53c0-2.26,0.52-4.29,1.57-6.09
		C598.55,846.11,600.02,844.67,601.92,843.6z"/>
	<polygon class="st1" points="632.24,867.9 632.24,842.68 638.48,842.68 638.48,839.94 623.16,839.94 623.16,842.68 629.39,842.68 
		629.39,867.9 	"/>
	<path class="st1" d="M659.55,858.7l4.4,9.2h3.02l-13.04-27.96h-0.68l-13.21,27.96h3.12l4.36-9.2H659.55z M653.58,845.88l4.77,10.12
		h-9.56L653.58,845.88z"/>
</g>
</svg>
