<?xml version="1.0" encoding="UTF-8" standalone="no"?>
<!-- Created with Inkscape (http://www.inkscape.org/) -->

<svg
   width="512"
   height="511.99997"
   viewBox="0 0 512.00001 511.99999"
   version="1.1"
   id="svg1"
   xml:space="preserve"
   inkscape:version="1.3 (0e150ed6c4, 2023-07-21)"
   sodipodi:docname="favicon.inkscape.svg"
   xmlns:inkscape="http://www.inkscape.org/namespaces/inkscape"
   xmlns:sodipodi="http://sodipodi.sourceforge.net/DTD/sodipodi-0.dtd"
   xmlns="http://www.w3.org/2000/svg"
   xmlns:svg="http://www.w3.org/2000/svg"><sodipodi:namedview
     id="namedview1"
     pagecolor="#6f6f6f"
     bordercolor="#000000"
     borderopacity="0.25"
     inkscape:showpageshadow="2"
     inkscape:pageopacity="0.0"
     inkscape:pagecheckerboard="0"
     inkscape:deskcolor="#d1d1d1"
     inkscape:document-units="px"
     inkscape:zoom="0.70822811"
     inkscape:cx="350.16966"
     inkscape:cy="455.36176"
     inkscape:window-width="1920"
     inkscape:window-height="991"
     inkscape:window-x="-9"
     inkscape:window-y="-9"
     inkscape:window-maximized="1"
     inkscape:current-layer="layer2" /><defs
     id="defs1" /><g
     inkscape:groupmode="layer"
     id="layer2"
     inkscape:label="VECTORES"
     style="display:inline"><circle
       style="fill:#d7043c;fill-opacity:0.992157;stroke:#22d704;stroke-width:0.326334;-inkscape-stroke:none;paint-order:markers stroke fill"
       id="path7"
       cx="256"
       cy="256"
       r="244.22821" /><g
       id="g6"
       transform="matrix(1.9583457,0,0,1.9583457,585.79486,53.662975)"><path
         id="path1"
         style="display:inline;opacity:1;fill:#ffffff;fill-opacity:0.990111;stroke-width:1.8;stroke-linecap:square;paint-order:markers stroke fill"
         d="m -171.65671,4.9175293 c -3.91865,-0.042 -7.96758,0.055803 -12.14706,0.3126424 -66.87163,4.1094299 -68.27273,54.9168573 -68.27273,54.9168573 l 172.876683,79.200021 c 0,0 -0.162612,-7.6092 -4.555277,-17.49299 l -0.394808,-0.15865 -52.208698,-22.88232 1.77457,-3.455603 48.122641,21.154263 c -8.353438,-14.64756 -26.316111,-31.924919 -65.027041,-37.498485 -71.35465,-10.27357 -53.60984,-23.535862 -53.04947,-24.469824 0.56038,-0.93396 38.75112,-24.518692 92.03779,14.171745 l 29.058175,-31.03945 c 0,0 -29.434905,-32.128212 -88.214775,-32.7582067 z"
         sodipodi:nodetypes="sscccccccssccs" /><path
         style="display:inline;opacity:1;fill:#ffffff;fill-opacity:0.990111;stroke-width:1.8;stroke-linecap:square;paint-order:markers stroke fill"
         d="m -87.570505,115.90214 25.822071,11.42511 1.122701,-3.03789 -32.360142,-14.59509 z"
         id="path2" /><path
         style="opacity:1;fill:#ffffff;fill-opacity:0.990111;stroke-width:1.8;stroke-linecap:square;paint-order:markers stroke fill"
         d="m -252.02971,60.053772 -40.13614,-18.976205 45.37769,3.86907 z"
         id="path3"
         sodipodi:nodetypes="cccc" /><path
         style="opacity:1;fill:#ffffff;fill-opacity:0.990111;stroke-width:1.8;stroke-linecap:square;paint-order:markers stroke fill"
         d="m -245.67291,84.664694 80.9664,38.435926 c 0,0 -32.09598,-1.32082 -48.60626,-10.17033 -16.51027,-8.84951 -26.81269,-15.585701 -32.36014,-28.265596 z"
         id="path4" /><path
         style="opacity:1;fill:#ffffff;fill-opacity:0.990111;stroke-width:1.8;stroke-linecap:square;paint-order:markers stroke fill"
         d="m -162.32264,160.9217 -34.27642,-15.97076 1.21415,-2.89528 90.78114,43.98962 c 0,0 -29.13963,23.34906 -79.57359,13.07547 -50.43396,-10.27358 -69.11321,-42.96226 -69.11321,-42.96226 l 34.26525,-26.42074 4.52381,2.37748 c 0,0 6.13453,9.94043 9.96378,12.74231 3.82924,2.80189 11.76792,7.93868 15.97075,9.71321 4.20283,1.77453 15.69057,7.00472 26.24434,6.35095"
         id="path5" /><path
         style="opacity:1;fill:#ffffff;fill-opacity:0.990111;stroke-width:1.8;stroke-linecap:square;paint-order:markers stroke fill"
         d="m -146.72547,160.17453 46.41792,22.97547 c 0,0 9.104785,-6.35796 13.133293,-14.21686 l 42.53047,11.62324 -79.513493,-38.70009 c 0,0 2.04728,4.35872 -2.37748,9.17972 -4.42475,4.821 -20.19071,9.13852 -20.19071,9.13852 z"
         id="path6" /></g></g></svg>
